<svg xmlns="http://www.w3.org/2000/svg" xmlns:xlink="http://www.w3.org/1999/xlink" viewBox="0 0 843.77 173.48">
  <defs>
    <clipPath id="clip-path" transform="translate(-2.48 -3.91)">
      <path id="SVGID" d="M0,84.55C11,70.11,32.11,54.4,65,78.72c12.74,9.44,25.6,16.43,35.73,17.08a27.74,27.74,0,0,0,10-1.68l.05,0a24.19,24.19,0,0,0,11.79-8.32c12.76-17.63,12.94-45.1,32.64-54.94l-5.54-16.38L121.29,6.57,86.79,0,48.59,8.21,18.2,27.93,1.77,54.63Z" style="fill: none"/>
    </clipPath>
    <clipPath id="clip-path-2" transform="translate(-2.48 -3.91)">
      <path id="SVGID-2" data-name="SVGID" d="M11.78,133.59c6.48-14,26.1-43.92,67.78-16.33C129,150,142.3,86.93,143.38,81.84c5-23.65,14.1-33.86,21.11-38.27l11.43,36.94-2.87,35.32-9.86,19.31-14.38,18.48-27.93,24.23-42.3,3.29-32.86-9.45L20.66,153.21Z" style="fill: none"/>
    </clipPath>
  </defs>
  <title>logo-ness-health</title>
  <g id="Layer_2" data-name="Layer 2">
    <g id="Layer_1-2" data-name="Layer 1">
      <g id="logo-ness-health">
        <g>
          <g style="clip-path: url(#clip-path)">
            <g>
              <g>
                <g style="opacity: 0.17">
                  <path d="M53.38,151.38c26.6,0,52.08-23.39,50.85-50.85S81.89,49.67,53.38,49.67c-26.61,0-52.09,23.39-50.86,50.86s22.34,50.85,50.86,50.85Z" transform="translate(-2.48 -3.91)" style="fill: #029adc"/>
                </g>
                <g style="opacity: 0.17">
                  <path d="M64.58,170.28c26.6,0,52.08-23.4,50.85-50.86S93.09,68.56,64.58,68.56C38,68.56,12.49,92,13.72,119.42s22.34,50.86,50.86,50.86Z" transform="translate(-2.48 -3.91)" style="fill: #029adc"/>
                </g>
                <g style="opacity: 0.17">
                  <path d="M87.36,177.4c26.6,0,52.08-23.4,50.85-50.86S115.87,75.68,87.36,75.68c-26.61,0-52.09,23.39-50.86,50.86S58.85,177.4,87.36,177.4Z" transform="translate(-2.48 -3.91)" style="fill: #029adc"/>
                </g>
                <g style="opacity: 0.17">
                  <path d="M101.59,174.55c26.61,0,52.09-23.39,50.86-50.86s-22.34-50.86-50.86-50.86c-26.6,0-52.08,23.39-50.85,50.86s22.34,50.86,50.85,50.86Z" transform="translate(-2.48 -3.91)" style="fill: #029adc"/>
                </g>
                <g style="opacity: 0.17">
                  <path d="M120.1,151.77c26.61,0,52.09-23.4,50.86-50.86S148.62,50.05,120.1,50.05c-26.6,0-52.08,23.39-50.85,50.86s22.34,50.86,50.85,50.86Z" transform="translate(-2.48 -3.91)" style="fill: #029adc"/>
                </g>
                <g style="opacity: 0.17">
                  <path d="M120.1,133.26c26.61,0,52.09-23.4,50.86-50.86S148.62,31.54,120.1,31.54C93.5,31.54,68,54.93,69.25,82.4s22.34,50.86,50.85,50.86Z" transform="translate(-2.48 -3.91)" style="fill: #029adc"/>
                </g>
                <g style="opacity: 0.17">
                  <path d="M104.44,114.75c26.61,0,52.09-23.4,50.86-50.86S133,13,104.44,13c-26.6,0-52.09,23.39-50.85,50.86s22.34,50.86,50.85,50.86Z" transform="translate(-2.48 -3.91)" style="fill: #029adc"/>
                </g>
                <g style="opacity: 0.17">
                  <path d="M63,114.55c26.6,0,52.09-23.39,50.86-50.85S91.55,12.84,63,12.84C36.44,12.84,11,36.23,12.18,63.7S34.53,114.55,63,114.55Z" transform="translate(-2.48 -3.91)" style="fill: #029adc"/>
                </g>
                <g style="opacity: 0.17">
                  <path d="M84.51,105.63c26.6,0,52.09-23.39,50.86-50.86S113,3.91,84.51,3.91c-26.6,0-52.09,23.4-50.86,50.86S56,105.63,84.51,105.63Z" transform="translate(-2.48 -3.91)" style="fill: #029adc"/>
                </g>
                <g style="opacity: 0.17">
                  <path d="M114.41,116.17c26.6,0,52.09-23.39,50.86-50.86s-22.35-50.85-50.86-50.85c-26.6,0-52.09,23.39-50.86,50.85s22.35,50.86,50.86,50.86Z" transform="translate(-2.48 -3.91)" style="fill: #029adc"/>
                </g>
                <g style="opacity: 0.17">
                  <path d="M54,127.37c26.61,0,52.09-23.39,50.86-50.86S82.55,25.65,54,25.65C27.43,25.65,2,49.05,3.18,76.51S25.52,127.37,54,127.37Z" transform="translate(-2.48 -3.91)" style="fill: #029adc"/>
                </g>
              </g>
              <g>
                <g style="opacity: 0.17">
                  <path d="M70.27,154.61c26.6,0,52.09-23.39,50.86-50.85S98.78,52.9,70.27,52.9c-26.6,0-52.09,23.39-50.86,50.86s22.35,50.85,50.86,50.85Z" transform="translate(-2.48 -3.91)" style="fill: #029adc"/>
                </g>
                <g style="opacity: 0.17">
                  <path d="M101.59,156c26.61,0,52.09-23.39,50.86-50.86s-22.34-50.86-50.86-50.86c-26.6,0-52.08,23.39-50.85,50.86S73.08,156,101.59,156Z" transform="translate(-2.48 -3.91)" style="fill: #029adc"/>
                </g>
                <g style="opacity: 0.17">
                  <path d="M108.71,136.1c26.61,0,52.09-23.39,50.86-50.85s-22.34-50.86-50.86-50.86c-26.6,0-52.08,23.39-50.85,50.86S80.2,136.1,108.71,136.1Z" transform="translate(-2.48 -3.91)" style="fill: #029adc"/>
                </g>
                <g style="opacity: 0.17">
                  <path d="M84.51,124.71c26.6,0,52.09-23.39,50.86-50.85S113,23,84.51,23c-26.6,0-52.09,23.39-50.86,50.86S56,124.71,84.51,124.71Z" transform="translate(-2.48 -3.91)" style="fill: #029adc"/>
                </g>
                <g style="opacity: 0.17">
                  <path d="M67.42,133.26c26.61,0,52.09-23.4,50.86-50.86S95.93,31.54,67.42,31.54c-26.6,0-52.08,23.39-50.85,50.86s22.34,50.86,50.85,50.86Z" transform="translate(-2.48 -3.91)" style="fill: #029adc"/>
                </g>
                <g style="opacity: 0.17">
                  <path d="M57.46,146.07c26.6,0,52.08-23.39,50.85-50.86S86,44.36,57.46,44.36C30.85,44.36,5.37,67.75,6.6,95.21s22.34,50.86,50.86,50.86Z" transform="translate(-2.48 -3.91)" style="fill: #029adc"/>
                </g>
                <g style="opacity: 0.17">
                  <path d="M80.24,148.92c26.6,0,52.09-23.39,50.86-50.86S108.75,47.2,80.24,47.2c-26.61,0-52.09,23.4-50.86,50.86s22.35,50.86,50.86,50.86Z" transform="translate(-2.48 -3.91)" style="fill: #029adc"/>
                </g>
                <g style="opacity: 0.17">
                  <path d="M103,144.65c26.6,0,52.09-23.4,50.86-50.86S131.53,42.93,103,42.93c-26.6,0-52.09,23.39-50.86,50.86S74.51,144.65,103,144.65Z" transform="translate(-2.48 -3.91)" style="fill: #029adc"/>
                </g>
                <g style="opacity: 0.17">
                  <path d="M100.17,126.14c26.6,0,52.09-23.4,50.86-50.86s-22.35-50.86-50.86-50.86c-26.6,0-52.09,23.39-50.86,50.86s22.35,50.86,50.86,50.86Z" transform="translate(-2.48 -3.91)" style="fill: #029adc"/>
                </g>
                <g style="opacity: 0.17">
                  <path d="M70.27,131.83c26.6,0,52.09-23.39,50.86-50.86S98.78,30.12,70.27,30.12c-26.6,0-52.09,23.39-50.86,50.85s22.35,50.86,50.86,50.86Z" transform="translate(-2.48 -3.91)" style="fill: #029adc"/>
                </g>
                <g style="opacity: 0.17">
                  <path d="M84.4,160.12c26.6,0,52.09-23.39,50.86-50.86S112.91,58.4,84.4,58.4c-26.6,0-52.09,23.39-50.86,50.86s22.35,50.86,50.86,50.86Z" transform="translate(-2.48 -3.91)" style="fill: #029adc"/>
                </g>
              </g>
              <g>
                <g style="opacity: 0.17">
                  <path d="M85.93,143.22c26.61,0,52.09-23.39,50.86-50.85S114.44,41.51,85.93,41.51c-26.6,0-52.08,23.39-50.85,50.86s22.34,50.85,50.85,50.85Z" transform="translate(-2.48 -3.91)" style="fill: #fff"/>
                </g>
                <g style="opacity: 0.17">
                  <path d="M80.24,146.07c26.6,0,52.09-23.39,50.86-50.86S108.75,44.36,80.24,44.36c-26.61,0-52.09,23.39-50.86,50.85s22.35,50.86,50.86,50.86Z" transform="translate(-2.48 -3.91)" style="fill: #fff"/>
                </g>
                <g style="opacity: 0.17">
                  <path d="M98.75,150.34c26.6,0,52.09-23.39,50.85-50.86S127.26,48.63,98.75,48.63C72.14,48.63,46.66,72,47.89,99.48s22.35,50.86,50.86,50.86Z" transform="translate(-2.48 -3.91)" style="fill: #fff"/>
                </g>
                <g style="opacity: 0.17">
                  <path d="M87.36,139.66c26.6,0,52.08-23.39,50.85-50.85S115.87,38,87.36,38C60.75,38,35.27,61.34,36.5,88.81s22.35,50.85,50.86,50.85Z" transform="translate(-2.48 -3.91)" style="fill: #fff"/>
                </g>
              </g>
            </g>
          </g>
          <g style="clip-path: url(#clip-path-2)">
            <g>
              <g>
                <g style="opacity: 0.17">
                  <path d="M53.38,151.38c26.6,0,52.08-23.39,50.85-50.85S81.89,49.67,53.38,49.67c-26.61,0-52.09,23.39-50.86,50.86s22.34,50.85,50.86,50.85Z" transform="translate(-2.48 -3.91)" style="fill: #029adc"/>
                </g>
                <g style="opacity: 0.17">
                  <path d="M64.58,170.28c26.6,0,52.08-23.4,50.85-50.86S93.09,68.56,64.58,68.56C38,68.56,12.49,92,13.72,119.42s22.34,50.86,50.86,50.86Z" transform="translate(-2.48 -3.91)" style="fill: #029adc"/>
                </g>
                <g style="opacity: 0.17">
                  <path d="M87.36,177.4c26.6,0,52.08-23.4,50.85-50.86S115.87,75.68,87.36,75.68c-26.61,0-52.09,23.39-50.86,50.86S58.85,177.4,87.36,177.4Z" transform="translate(-2.48 -3.91)" style="fill: #029adc"/>
                </g>
                <g style="opacity: 0.17">
                  <path d="M101.59,174.55c26.61,0,52.09-23.39,50.86-50.86s-22.34-50.86-50.86-50.86c-26.6,0-52.08,23.39-50.85,50.86s22.34,50.86,50.85,50.86Z" transform="translate(-2.48 -3.91)" style="fill: #029adc"/>
                </g>
                <g style="opacity: 0.17">
                  <path d="M120.1,151.77c26.61,0,52.09-23.4,50.86-50.86S148.62,50.05,120.1,50.05c-26.6,0-52.08,23.39-50.85,50.86s22.34,50.86,50.85,50.86Z" transform="translate(-2.48 -3.91)" style="fill: #029adc"/>
                </g>
                <g style="opacity: 0.17">
                  <path d="M120.1,133.26c26.61,0,52.09-23.4,50.86-50.86S148.62,31.54,120.1,31.54C93.5,31.54,68,54.93,69.25,82.4s22.34,50.86,50.85,50.86Z" transform="translate(-2.48 -3.91)" style="fill: #029adc"/>
                </g>
                <g style="opacity: 0.17">
                  <path d="M104.44,114.75c26.61,0,52.09-23.4,50.86-50.86S133,13,104.44,13c-26.6,0-52.09,23.39-50.85,50.86s22.34,50.86,50.85,50.86Z" transform="translate(-2.48 -3.91)" style="fill: #029adc"/>
                </g>
                <g style="opacity: 0.17">
                  <path d="M63,114.55c26.6,0,52.09-23.39,50.86-50.85S91.55,12.84,63,12.84C36.44,12.84,11,36.23,12.18,63.7S34.53,114.55,63,114.55Z" transform="translate(-2.48 -3.91)" style="fill: #029adc"/>
                </g>
                <g style="opacity: 0.17">
                  <path d="M84.51,105.63c26.6,0,52.09-23.39,50.86-50.86S113,3.91,84.51,3.91c-26.6,0-52.09,23.4-50.86,50.86S56,105.63,84.51,105.63Z" transform="translate(-2.48 -3.91)" style="fill: #029adc"/>
                </g>
                <g style="opacity: 0.17">
                  <path d="M114.41,116.17c26.6,0,52.09-23.39,50.86-50.86s-22.35-50.85-50.86-50.85c-26.6,0-52.09,23.39-50.86,50.85s22.35,50.86,50.86,50.86Z" transform="translate(-2.48 -3.91)" style="fill: #029adc"/>
                </g>
                <g style="opacity: 0.17">
                  <path d="M54,127.37c26.61,0,52.09-23.39,50.86-50.86S82.55,25.65,54,25.65C27.43,25.65,2,49.05,3.18,76.51S25.52,127.37,54,127.37Z" transform="translate(-2.48 -3.91)" style="fill: #029adc"/>
                </g>
              </g>
              <g>
                <g style="opacity: 0.17">
                  <path d="M70.27,154.61c26.6,0,52.09-23.39,50.86-50.85S98.78,52.9,70.27,52.9c-26.6,0-52.09,23.39-50.86,50.86s22.35,50.85,50.86,50.85Z" transform="translate(-2.48 -3.91)" style="fill: #029adc"/>
                </g>
                <g style="opacity: 0.17">
                  <path d="M101.59,156c26.61,0,52.09-23.39,50.86-50.86s-22.34-50.86-50.86-50.86c-26.6,0-52.08,23.39-50.85,50.86S73.08,156,101.59,156Z" transform="translate(-2.48 -3.91)" style="fill: #029adc"/>
                </g>
                <g style="opacity: 0.17">
                  <path d="M108.71,136.1c26.61,0,52.09-23.39,50.86-50.85s-22.34-50.86-50.86-50.86c-26.6,0-52.08,23.39-50.85,50.86S80.2,136.1,108.71,136.1Z" transform="translate(-2.48 -3.91)" style="fill: #029adc"/>
                </g>
                <g style="opacity: 0.17">
                  <path d="M84.51,124.71c26.6,0,52.09-23.39,50.86-50.85S113,23,84.51,23c-26.6,0-52.09,23.39-50.86,50.86S56,124.71,84.51,124.71Z" transform="translate(-2.48 -3.91)" style="fill: #029adc"/>
                </g>
                <g style="opacity: 0.17">
                  <path d="M67.42,133.26c26.61,0,52.09-23.4,50.86-50.86S95.93,31.54,67.42,31.54c-26.6,0-52.08,23.39-50.85,50.86s22.34,50.86,50.85,50.86Z" transform="translate(-2.48 -3.91)" style="fill: #029adc"/>
                </g>
                <g style="opacity: 0.17">
                  <path d="M57.46,146.07c26.6,0,52.08-23.39,50.85-50.86S86,44.36,57.46,44.36C30.85,44.36,5.37,67.75,6.6,95.21s22.34,50.86,50.86,50.86Z" transform="translate(-2.48 -3.91)" style="fill: #029adc"/>
                </g>
                <g style="opacity: 0.17">
                  <path d="M80.24,148.92c26.6,0,52.09-23.39,50.86-50.86S108.75,47.2,80.24,47.2c-26.61,0-52.09,23.4-50.86,50.86s22.35,50.86,50.86,50.86Z" transform="translate(-2.48 -3.91)" style="fill: #029adc"/>
                </g>
                <g style="opacity: 0.17">
                  <path d="M103,144.65c26.6,0,52.09-23.4,50.86-50.86S131.53,42.93,103,42.93c-26.6,0-52.09,23.39-50.86,50.86S74.51,144.65,103,144.65Z" transform="translate(-2.48 -3.91)" style="fill: #029adc"/>
                </g>
                <g style="opacity: 0.17">
                  <path d="M100.17,126.14c26.6,0,52.09-23.4,50.86-50.86s-22.35-50.86-50.86-50.86c-26.6,0-52.09,23.39-50.86,50.86s22.35,50.86,50.86,50.86Z" transform="translate(-2.48 -3.91)" style="fill: #029adc"/>
                </g>
                <g style="opacity: 0.17">
                  <path d="M70.27,131.83c26.6,0,52.09-23.39,50.86-50.86S98.78,30.12,70.27,30.12c-26.6,0-52.09,23.39-50.86,50.85s22.35,50.86,50.86,50.86Z" transform="translate(-2.48 -3.91)" style="fill: #029adc"/>
                </g>
                <g style="opacity: 0.17">
                  <path d="M84.4,160.12c26.6,0,52.09-23.39,50.86-50.86S112.91,58.4,84.4,58.4c-26.6,0-52.09,23.39-50.86,50.86s22.35,50.86,50.86,50.86Z" transform="translate(-2.48 -3.91)" style="fill: #029adc"/>
                </g>
              </g>
              <g>
                <g style="opacity: 0.17">
                  <path d="M85.93,143.22c26.61,0,52.09-23.39,50.86-50.85S114.44,41.51,85.93,41.51c-26.6,0-52.08,23.39-50.85,50.86s22.34,50.85,50.85,50.85Z" transform="translate(-2.48 -3.91)" style="fill: #fff"/>
                </g>
                <g style="opacity: 0.17">
                  <path d="M80.24,146.07c26.6,0,52.09-23.39,50.86-50.86S108.75,44.36,80.24,44.36c-26.61,0-52.09,23.39-50.86,50.85s22.35,50.86,50.86,50.86Z" transform="translate(-2.48 -3.91)" style="fill: #fff"/>
                </g>
                <g style="opacity: 0.17">
                  <path d="M98.75,150.34c26.6,0,52.09-23.39,50.85-50.86S127.26,48.63,98.75,48.63C72.14,48.63,46.66,72,47.89,99.48s22.35,50.86,50.86,50.86Z" transform="translate(-2.48 -3.91)" style="fill: #fff"/>
                </g>
                <g style="opacity: 0.17">
                  <path d="M87.36,139.66c26.6,0,52.08-23.39,50.85-50.85S115.87,38,87.36,38C60.75,38,35.27,61.34,36.5,88.81s22.35,50.85,50.86,50.85Z" transform="translate(-2.48 -3.91)" style="fill: #fff"/>
                </g>
              </g>
            </g>
          </g>
        </g>
        <g>
          <path d="M265.54,103.17Q261,96,255.29,87.75T243.38,71.28q-6.15-8.19-12.24-15.8T219.77,42.31H206.14v0h-8.57v6.54h3.67s4.18,1.12,4.9,4.76V134h16.4V68.38q5.57,6.62,11.71,14.88t12.11,17.06q5.94,8.81,11.51,17.47T267.92,134h14.16V42.31H265.54Z" transform="translate(-2.48 -3.91)" style="fill: #fff"/>
          <polygon points="307.64 89.07 345.21 89.07 345.21 75.18 307.64 75.18 307.64 52.55 349.85 52.55 349.85 38.4 290.98 38.4 290.98 130.08 353.02 130.08 353.02 115.92 307.64 115.92 307.64 89.07" style="fill: #fff"/>
          <path d="M420.52,90.93a32.78,32.78,0,0,0-8.6-5.82q-5.1-2.44-11.58-4.83-3.7-1.32-6.81-2.78a32.24,32.24,0,0,1-5.43-3.17,13,13,0,0,1-3.57-3.91,10.24,10.24,0,0,1-1.25-5.22,9.14,9.14,0,0,1,3.77-7.81q3.76-2.78,10.51-2.77a46,46,0,0,1,11.05,1.32,39.36,39.36,0,0,1,9.86,3.84l5.15-13.5a46.67,46.67,0,0,0-10.51-4.17,55.86,55.86,0,0,0-15.28-1.91q-14.82,0-23.42,7.07t-8.6,19.52a22.2,22.2,0,0,0,7.48,17.46,30.81,30.81,0,0,0,7.8,5.09q4.44,2.05,9.2,3.77t8.47,3.24A33.86,33.86,0,0,1,405,99.93a14.56,14.56,0,0,1,4,4.3,11.12,11.12,0,0,1,1.39,5.68,10.06,10.06,0,0,1-4.11,8.6q-4.1,3-13.09,3a47.67,47.67,0,0,1-14.68-2,55.55,55.55,0,0,1-9.66-4L364,129.23a38.07,38.07,0,0,0,4.24,2.05,55,55,0,0,0,6.28,2.18,66.28,66.28,0,0,0,8.33,1.79,68.83,68.83,0,0,0,10.39.73q16.94,0,25.73-6.82t8.8-19.25a29.23,29.23,0,0,0-1.86-11A22.83,22.83,0,0,0,420.52,90.93Z" transform="translate(-2.48 -3.91)" style="fill: #fff"/>
          <path d="M497.31,98.87A22.85,22.85,0,0,0,492,90.93a32.45,32.45,0,0,0-8.6-5.82q-5.09-2.44-11.57-4.83Q468.08,79,465,77.5a31.46,31.46,0,0,1-5.43-3.17A13,13,0,0,1,456,70.42a10.24,10.24,0,0,1-1.26-5.22,9.16,9.16,0,0,1,3.77-7.81q3.78-2.78,10.52-2.77a46.1,46.1,0,0,1,11.05,1.32,39.29,39.29,0,0,1,9.85,3.84l5.16-13.5a46.77,46.77,0,0,0-10.52-4.17,55.76,55.76,0,0,0-15.28-1.91q-14.81,0-23.41,7.07t-8.6,19.52A23.1,23.1,0,0,0,439.3,77a23.58,23.58,0,0,0,5.42,7.28,30.87,30.87,0,0,0,7.81,5.09q4.43,2.05,9.19,3.77t8.47,3.24a33.54,33.54,0,0,1,6.28,3.58,14.43,14.43,0,0,1,4,4.3,11,11,0,0,1,1.39,5.68,10.07,10.07,0,0,1-4.1,8.6q-4.1,3-13.1,3a47.76,47.76,0,0,1-14.68-2,55.55,55.55,0,0,1-9.66-4l-4.89,13.63a38.68,38.68,0,0,0,4.23,2.05,55.18,55.18,0,0,0,6.29,2.18,66.28,66.28,0,0,0,8.33,1.79,68.69,68.69,0,0,0,10.38.73q16.94,0,25.73-6.82t8.8-19.25A29.24,29.24,0,0,0,497.31,98.87Z" transform="translate(-2.48 -3.91)" style="fill: #fff"/>
        </g>
        <g>
          <polygon points="582.15 38.6 582.15 92.33 540.35 92.33 540.35 36.64 528.38 38.73 528.38 132.15 540.35 132.15 540.35 102.69 582.15 102.69 582.15 132.15 594.11 132.15 594.11 36.5 582.15 38.6" style="fill: #029adc"/>
          <path d="M602.93,104.13a41,41,0,0,1,2.46-14.86,31.21,31.21,0,0,1,6.54-10.55,26.65,26.65,0,0,1,9.37-6.29,29.39,29.39,0,0,1,10.85-2.09q13,0,19.86,8.07t6.9,24.61v1.91a17.72,17.72,0,0,1-.12,2.15h-43.9q.74,10,5.79,15.17t15.79,5.18a41.93,41.93,0,0,0,10.17-1.05,35.7,35.7,0,0,0,6.23-2l1.6,9.62a34,34,0,0,1-7.33,2.34,52.29,52.29,0,0,1-11.9,1.24A37.82,37.82,0,0,1,620.75,135a27.08,27.08,0,0,1-10-7,28.31,28.31,0,0,1-5.86-10.54A44.42,44.42,0,0,1,602.93,104.13Zm44-6.29q.12-7.77-3.88-12.77a13.38,13.38,0,0,0-11-5,15.12,15.12,0,0,0-7,1.54,16.47,16.47,0,0,0-5.12,4,18.47,18.47,0,0,0-3.26,5.67,27.28,27.28,0,0,0-1.54,6.54Z" transform="translate(-2.48 -3.91)" style="fill: #029adc"/>
          <path d="M689.46,70.34a33.27,33.27,0,0,1,11.65,1.78,18.93,18.93,0,0,1,7.65,5.06A19.16,19.16,0,0,1,712.89,85a37.61,37.61,0,0,1,1.23,9.93V135c-1,.17-2.36.4-4.13.68s-3.76.56-6,.81-4.62.47-7.21.67-5.16.31-7.71.31a42.21,42.21,0,0,1-10-1.11,22.4,22.4,0,0,1-7.89-3.51,16.12,16.12,0,0,1-5.18-6.35,22.29,22.29,0,0,1-1.85-9.5,18.23,18.23,0,0,1,2.16-9.12,17.14,17.14,0,0,1,5.85-6.17,27.24,27.24,0,0,1,8.64-3.45,47,47,0,0,1,10.36-1.11q1.72,0,3.57.18c1.24.12,2.41.29,3.52.49l2.89.56,1.73.37V95.49a25.86,25.86,0,0,0-.62-5.61A12.79,12.79,0,0,0,700.06,85a11.17,11.17,0,0,0-4.37-3.45,17.08,17.08,0,0,0-7.22-1.3,54.46,54.46,0,0,0-9.92.8,34.83,34.83,0,0,0-6.36,1.67l-1.35-9.5a36,36,0,0,1,7.4-1.91A63.54,63.54,0,0,1,689.46,70.34Zm1,57.46q4.06,0,7.21-.18a32,32,0,0,0,5.24-.68V107.83a14.44,14.44,0,0,0-4-1,44.3,44.3,0,0,0-6.72-.43,43,43,0,0,0-5.49.37,16.73,16.73,0,0,0-5.3,1.54,11.45,11.45,0,0,0-4,3.2,8.43,8.43,0,0,0-1.6,5.37q0,6.17,4,8.57T690.45,127.8Z" transform="translate(-2.48 -3.91)" style="fill: #029adc"/>
          <path d="M744.75,137.3q-10.61-.26-15-4.57t-4.44-13.44V42.34l11.47-2v77.07a18.52,18.52,0,0,0,.49,4.69,6.45,6.45,0,0,0,1.6,3,6.91,6.91,0,0,0,3,1.66,31.16,31.16,0,0,0,4.57.93Z" transform="translate(-2.48 -3.91)" style="fill: #029adc"/>
          <path d="M761.79,71.94h24.3v9.62h-24.3v29.59a35.17,35.17,0,0,0,.75,8,12,12,0,0,0,2.21,4.93,8,8,0,0,0,3.7,2.53,16.51,16.51,0,0,0,5.18.74,24.41,24.41,0,0,0,8.33-1.17q3.13-1.17,4.37-1.67l2.22,9.5a43.9,43.9,0,0,1-6,2.16,34.45,34.45,0,0,1-9.86,1.29,29.87,29.87,0,0,1-10.79-1.66,15.74,15.74,0,0,1-6.85-5,20.09,20.09,0,0,1-3.64-8.2,54.72,54.72,0,0,1-1-11.28V54.06l11.46-2Z" transform="translate(-2.48 -3.91)" style="fill: #029adc"/>
          <path d="M794.45,136.06V42.34l11.47-2v32.8a39,39,0,0,1,6.84-1.91,39.54,39.54,0,0,1,7.22-.68,32.48,32.48,0,0,1,12.7,2.16,19.92,19.92,0,0,1,8.08,6A23.44,23.44,0,0,1,845,88.09a54.23,54.23,0,0,1,1.23,12v36H834.78V102.52A54.25,54.25,0,0,0,834,92.41a16.91,16.91,0,0,0-2.65-6.78,10.46,10.46,0,0,0-4.93-3.76,21.73,21.73,0,0,0-7.65-1.18,31.78,31.78,0,0,0-3.82.25c-1.31.17-2.57.35-3.76.56s-2.26.43-3.21.67a21.09,21.09,0,0,0-2,.62v53.27Z" transform="translate(-2.48 -3.91)" style="fill: #029adc"/>
        </g>
      </g>
    </g>
  </g>
</svg>
