<svg id="Layer_1" data-name="Layer 1" xmlns="http://www.w3.org/2000/svg" xmlns:xlink="http://www.w3.org/1999/xlink" viewBox="0 0 39 64">
  <defs>
    <linearGradient id="linear-gradient" x1="-10735.37" y1="-11" x2="-10709.52" y2="65.04" gradientTransform="matrix(-1, 0, 0, 1, -10708.35, 0)" gradientUnits="userSpaceOnUse">
      <stop offset="0" stop-color="#52c7ea"/>
      <stop offset="0.29" stop-color="#3dc5ee"/>
      <stop offset="1" stop-color="#26aee4"/>
    </linearGradient>
  </defs>
  <title>ico-serv-processos</title>
  <g style="opacity: 0.9">
    <polygon points="3.05 22.48 0 20.71 0.12 61.93 3.17 63.7 3.05 22.48" style="fill: #004b6b;opacity: 0.8"/>
    <polygon points="38.92 1.77 35.87 0 0 20.71 3.05 22.48 38.92 1.77" style="opacity: 0.8;fill: url(#linear-gradient)"/>
    <polygon points="3.05 22.48 3.17 63.7 39.04 42.99 38.92 1.77 3.05 22.48" style="fill: #041e33"/>
  </g>
  <g>
    <path d="M34.87,32.54c.26-.15.48-.07.52.2a6.06,6.06,0,0,1,0,1.81,1.16,1.16,0,0,1-.52.8l-.7.41a7.75,7.75,0,0,1-.67,1.72l.35.5a.8.8,0,0,1-.11.83,10.76,10.76,0,0,1-1.37,1.69l-.18.15c-.18.1-.36.1-.46,0l-.34-.5a6.68,6.68,0,0,1-.67.46,4.6,4.6,0,0,1-.68.32l-.34.9a1.14,1.14,0,0,1-.45.55.49.49,0,0,1-.19.07,2.69,2.69,0,0,1-1.37-.11c-.19-.07-.24-.37-.12-.7l.35-.89a2.12,2.12,0,0,1-.68-1l-.7.4c-.25.15-.47.06-.52-.2a6.44,6.44,0,0,1,0-1.81,1.15,1.15,0,0,1,.51-.8l.71-.41a8.23,8.23,0,0,1,.66-1.72l-.35-.5a.83.83,0,0,1,.12-.83A10.35,10.35,0,0,1,29,32.19a1.1,1.1,0,0,1,.18-.14c.19-.11.36-.1.46,0l.35.5a5.35,5.35,0,0,1,.67-.46,4.51,4.51,0,0,1,.67-.32l.35-.9a1.12,1.12,0,0,1,.45-.56.49.49,0,0,1,.19-.07,2.55,2.55,0,0,1,1.36.12c.2.07.25.37.12.7L33.5,32a2.1,2.1,0,0,1,.67.95ZM30.72,38.1c1.2-.69,2.08-2.81,1.11-3.69a1.44,1.44,0,0,0-1.12.17c-1.2.7-2.08,2.81-1.11,3.69a1.37,1.37,0,0,0,1.12-.17" style="fill: #33caff"/>
    <path d="M26.51,25.6c-.26.15-.47.06-.52-.21a6.37,6.37,0,0,1,0-1.8,1.19,1.19,0,0,1,.51-.81l.7-.4a8.63,8.63,0,0,1,.67-1.72l-.35-.5a.82.82,0,0,1,.12-.83A10.35,10.35,0,0,1,29,17.63a.73.73,0,0,1,.18-.14.32.32,0,0,1,.46,0L30,18a5.7,5.7,0,0,1,.67-.46,4,4,0,0,1,.67-.31l.35-.9a1.14,1.14,0,0,1,.45-.57.64.64,0,0,1,.18-.06,2.58,2.58,0,0,1,1.37.12c.19.07.25.36.12.69l-.34.9a2.1,2.1,0,0,1,.67.95l.7-.41c.26-.14.48-.06.52.2a6.49,6.49,0,0,1,0,1.82,1.18,1.18,0,0,1-.52.8l-.7.41a7.94,7.94,0,0,1-.67,1.72l.35.5a.82.82,0,0,1-.11.83,10.76,10.76,0,0,1-1.37,1.69.73.73,0,0,1-.18.14c-.18.11-.36.11-.46,0l-.34-.5a6.54,6.54,0,0,1-.67.45,6,6,0,0,1-.68.33l-.34.89a1.21,1.21,0,0,1-.46.57.67.67,0,0,1-.18.07,2.79,2.79,0,0,1-1.37-.12c-.19-.08-.24-.38-.12-.7l.35-.9a2.09,2.09,0,0,1-.68-.94ZM30.66,20c-1.2.69-2.07,2.8-1.11,3.69a1.43,1.43,0,0,0,1.13-.18c1.2-.69,2.08-2.8,1.11-3.68a1.38,1.38,0,0,0-1.13.17" style="fill: #33caff"/>
    <path d="M26.12,34c.43,0,.62.53.45,1.16a22.38,22.38,0,0,1-1.8,4.25,2,2,0,0,1-.77.86.94.94,0,0,1-.51.14l-1.24-.1a16,16,0,0,1-2.32,2.88v1.64a2.29,2.29,0,0,1-.82,1.63,14.82,14.82,0,0,1-1.62,1.09,10.27,10.27,0,0,1-1.61.77c-.48.19-.84-.09-.84-.66V46.05a4.27,4.27,0,0,1-2.33-.19l-1.23,1.51a2,2,0,0,1-.51.46.68.68,0,0,1-.78,0,5.5,5.5,0,0,1-1.8-2.16A1.89,1.89,0,0,1,8.82,44l1.41-1.63a9.67,9.67,0,0,1,0-3.09H8.81c-.43,0-.62-.52-.45-1.16a23.87,23.87,0,0,1,1.78-4.24,2.18,2.18,0,0,1,.77-.86.94.94,0,0,1,.51-.14l1.24.11A15.69,15.69,0,0,1,15,30.11V28.47a2.25,2.25,0,0,1,.83-1.63,13.71,13.71,0,0,1,1.61-1.08A11.32,11.32,0,0,1,19,25c.49-.18.85.09.85.66v1.63a4.3,4.3,0,0,1,2.34.21l1.23-1.54a2,2,0,0,1,.5-.44.68.68,0,0,1,.78,0,5.32,5.32,0,0,1,1.8,2.17,1.84,1.84,0,0,1-.42,1.66L24.68,31a9.67,9.67,0,0,1,0,3.09Zm-6.41,3.91c1.92-4,.14-6.19-2.26-4.8a7.38,7.38,0,0,0-2.24,2.24c-1.92,4-.15,6.19,2.26,4.8a7.15,7.15,0,0,0,2.24-2.24" style="fill: #33caff"/>
  </g>
</svg>
