<svg id="Layer_1" data-name="Layer 1" xmlns="http://www.w3.org/2000/svg" xmlns:xlink="http://www.w3.org/1999/xlink" viewBox="0 0 39 64">
  <defs>
    <linearGradient id="linear-gradient" x1="-10853.37" y1="-11" x2="-10827.52" y2="65.04" gradientTransform="matrix(-1, 0, 0, 1, -10826.35, 0)" gradientUnits="userSpaceOnUse">
      <stop offset="0" stop-color="#52c7ea"/>
      <stop offset="0.29" stop-color="#3dc5ee"/>
      <stop offset="1" stop-color="#26aee4"/>
    </linearGradient>
  </defs>
  <title>ico-serv-analytics</title>
  <g style="opacity: 0.9">
    <polygon points="3.05 22.48 0 20.71 0.12 61.93 3.17 63.7 3.05 22.48" style="fill: #004b6b;opacity: 0.8"/>
    <polygon points="38.92 1.77 35.87 0 0 20.71 3.05 22.48 38.92 1.77" style="opacity: 0.8;fill: url(#linear-gradient)"/>
    <polygon points="3.05 22.48 3.17 63.7 39.04 42.99 38.92 1.77 3.05 22.48" style="fill: #041e33"/>
  </g>
  <g>
    <path d="M32.09,34.59c.38-.21.68,0,.68.39v1.55a1.51,1.51,0,0,1-.67,1.18L12.42,49.07c-.75.43-1.36.08-1.36-.78l0-16.37a1.44,1.44,0,0,1,.67-1.17L13.05,30c.37-.21.68,0,.68.4l0,14.81Z" style="fill: #33caff"/>
    <path d="M17,40.16a.34.34,0,0,1-.55-.3V36.43a1.29,1.29,0,0,1,.55-.94l1.62-.94a.34.34,0,0,1,.55.31v3.43a1.32,1.32,0,0,1-.54.93Z" style="fill: #33caff"/>
    <path d="M21.09,37.81a.34.34,0,0,1-.55-.3l0-9.67a1.32,1.32,0,0,1,.54-.93L22.68,26a.34.34,0,0,1,.55.3l0,9.67a1.27,1.27,0,0,1-.55.93Z" style="fill: #33caff"/>
    <path d="M25.16,35.46a.34.34,0,0,1-.55-.3V28.61a1.26,1.26,0,0,1,.54-.94l1.62-.94a.35.35,0,0,1,.55.31l0,6.55a1.32,1.32,0,0,1-.54.93Z" style="fill: #33caff"/>
    <path d="M29.23,33.11a.34.34,0,0,1-.54-.3l0-11.23a1.26,1.26,0,0,1,.54-.94l1.62-.94a.34.34,0,0,1,.54.31l0,11.24a1.24,1.24,0,0,1-.53.92Z" style="fill: #33caff"/>
  </g>
</svg>
