<svg id="Layer_1" data-name="Layer 1" xmlns="http://www.w3.org/2000/svg" xmlns:xlink="http://www.w3.org/1999/xlink" viewBox="0 0 39 64">
  <defs>
    <linearGradient id="linear-gradient" x1="-11089.37" y1="-11" x2="-11063.52" y2="65.04" gradientTransform="matrix(-1, 0, 0, 1, -11062.35, 0)" gradientUnits="userSpaceOnUse">
      <stop offset="0" stop-color="#52c7ea"/>
      <stop offset="0.29" stop-color="#3dc5ee"/>
      <stop offset="1" stop-color="#26aee4"/>
    </linearGradient>
  </defs>
  <title>ico-serv-robotica</title>
  <g style="opacity: 0.9">
    <polygon points="3.05 22.48 0 20.71 0.12 61.93 3.17 63.7 3.05 22.48" style="fill: #004b6b;opacity: 0.8"/>
    <polygon points="38.92 1.77 35.87 0 0 20.71 3.05 22.48 38.92 1.77" style="opacity: 0.8;fill: url(#linear-gradient)"/>
    <polygon points="3.05 22.48 3.17 63.7 39.04 42.99 38.92 1.77 3.05 22.48" style="fill: #041e33"/>
  </g>
  <g>
    <path d="M15,30.33c.94-.55,1.7-.11,1.71,1A3.73,3.73,0,0,1,15,34.22c-.93.54-1.69.11-1.69-1A3.69,3.69,0,0,1,15,30.33Z" style="fill: #33caff"/>
    <path d="M17.46,42.68c1.32-.77,2.41-.15,2.41,1.38v2.83a1.69,1.69,0,0,1-.76,1.32L10.91,53c-.43.25-.77,0-.77-.44V49.68a5.31,5.31,0,0,1,2.4-4.16Z" style="fill: #33caff"/>
    <path d="M18.19,30.4l0,10.17a4,4,0,0,0-.77.35l-4.92,2.84a6.22,6.22,0,0,0-.77.53l0-10.16c0,2,1.46,2.88,3.24,1.85A7.13,7.13,0,0,0,18.19,30.4Z" style="fill: #33caff"/>
    <path d="M23.14,15.78c.93-.54,1.7-.1,1.7,1a3.75,3.75,0,0,1-1.69,2.94c-.94.53-1.7.1-1.71-1A3.75,3.75,0,0,1,23.14,15.78Z" style="fill: #33caff"/>
    <path d="M26.35,15.49,30.68,18c1,.55,1,2.38,0,4.08a6.28,6.28,0,0,1-1,1.28v1.91L32.75,27c.3.17.31.73,0,1.25l-1.64,2.83a1.49,1.49,0,0,1-.54.57.54.54,0,0,1-.54.05c-.3-.17-.31-.72,0-1.24l1.1-1.9-2.21-1.25-2.19,3.79,1.11.63c.3.17.3.72,0,1.24a1.57,1.57,0,0,1-.54.57.53.53,0,0,1-.55.06l-1.64-.94a.52.52,0,0,1-.23-.49,1.64,1.64,0,0,1,.22-.76l3-5.28v-1.9a1.44,1.44,0,0,1-1-.13l-4-2.27-5,8.59c0-2-1.46-2.86-3.24-1.84a5.58,5.58,0,0,0-.72.51l5.7-9.87c0,.14,0,.27,0,.4,0,2,1.46,2.88,3.24,1.85a7.1,7.1,0,0,0,3.22-5.58C26.37,15.74,26.36,15.62,26.35,15.49Z" style="fill: #33caff"/>
  </g>
</svg>
