<svg id="Layer_1" data-name="Layer 1" xmlns="http://www.w3.org/2000/svg" xmlns:xlink="http://www.w3.org/1999/xlink" viewBox="0 0 39 64">
  <defs>
    <linearGradient id="linear-gradient" x1="-11207.37" y1="-11" x2="-11181.52" y2="65.04" gradientTransform="matrix(-1, 0, 0, 1, -11180.35, 0)" gradientUnits="userSpaceOnUse">
      <stop offset="0" stop-color="#52c7ea"/>
      <stop offset="0.29" stop-color="#3dc5ee"/>
      <stop offset="1" stop-color="#26aee4"/>
    </linearGradient>
  </defs>
  <title>ico-serv-infraestrutura</title>
  <g style="opacity: 0.9">
    <polygon points="3.05 22.48 0 20.71 0.12 61.93 3.17 63.7 3.05 22.48" style="fill: #004b6b;opacity: 0.8"/>
    <polygon points="38.92 1.77 35.87 0 0 20.71 3.05 22.48 38.92 1.77" style="opacity: 0.8;fill: url(#linear-gradient)"/>
    <polygon points="3.05 22.48 3.17 63.7 39.04 42.99 38.92 1.77 3.05 22.48" style="fill: #041e33"/>
  </g>
  <g>
    <path d="M31.4,33.43c.75-.44,1.37-.09,1.37.77v3.11a3,3,0,0,1-1.36,2.35l-19,11c-.75.43-1.36.09-1.37-.78V46.73a3,3,0,0,1,1.36-2.34Zm-2,5.46a2.26,2.26,0,0,0,1-1.76c0-.65-.47-.91-1-.58a2.23,2.23,0,0,0-1,1.76c0,.64.46.9,1,.58m-2.71,1.56a2.2,2.2,0,0,0,1-1.75c0-.65-.46-.91-1-.59a2.26,2.26,0,0,0-1,1.76c0,.65.45.91,1,.58" style="fill: #33caff"/>
    <path d="M31.38,25.63c.75-.43,1.36-.09,1.37.77v3.12a3,3,0,0,1-1.35,2.34l-19,11c-.74.43-1.36.09-1.36-.77V38.94a3,3,0,0,1,1.36-2.35Zm-2,5.46a2.24,2.24,0,0,0,1-1.76c0-.64-.47-.9-1-.58a2.25,2.25,0,0,0-1,1.76c0,.64.46.91,1,.58m-2.72,1.57a2.23,2.23,0,0,0,1-1.76c0-.65-.46-.9-1-.58a2.23,2.23,0,0,0-1,1.75c0,.65.46.92,1,.59" style="fill: #33caff"/>
    <path d="M31.36,17.84c.75-.44,1.36-.09,1.36.77v3.11a3,3,0,0,1-1.35,2.35l-19,11c-.74.43-1.36.09-1.36-.78V31.14a3,3,0,0,1,1.36-2.34Zm-2,5.46a2.23,2.23,0,0,0,1-1.76c0-.65-.46-.91-1-.58a2.21,2.21,0,0,0-1,1.76c0,.64.45.9,1,.58m-2.71,1.56a2.24,2.24,0,0,0,1-1.75c0-.65-.46-.91-1-.59a2.26,2.26,0,0,0-1,1.76c0,.65.46.91,1,.58" style="fill: #33caff"/>
  </g>
</svg>
