<svg id="Layer_1" data-name="Layer 1" xmlns="http://www.w3.org/2000/svg" viewBox="0 0 900 300">
  <title>logo-nflow-whitebg</title>
  <g>
    <g>
      <path d="M449.54,135.93a81.27,81.27,0,0,1,9.49-2,78.56,78.56,0,0,1,12.21-.92,29.69,29.69,0,0,1,10.8,1.7,16.28,16.28,0,0,1,6.84,4.79,18.86,18.86,0,0,1,3.58,7.37,39.13,39.13,0,0,1,1.07,9.49v28.78H479.09v-27c0-4.65-.62-8-1.84-9.89s-3.52-2.9-6.88-2.9c-1,0-2.13,0-3.3.14s-2.19.21-3.1.34v39.34H449.54Z" style="fill: #fff"/>
      <path d="M504.19,185.15V118h45v12.69H519.3v14.06h26.55v12.69H519.3v27.71Z" style="fill: #fff"/>
      <path d="M575.79,186.12a35.88,35.88,0,0,1-10.22-1.36,14.92,14.92,0,0,1-6.2-3.53,11.66,11.66,0,0,1-3.1-5.52,29.83,29.83,0,0,1-.83-7.32V112.28L569.88,110v55.52a19.37,19.37,0,0,0,.29,3.49,6.12,6.12,0,0,0,1.12,2.62,5.84,5.84,0,0,0,2.37,1.74,13.06,13.06,0,0,0,4.17.87Z" style="fill: #fff"/>
      <path d="M630.35,159.57a33,33,0,0,1-1.75,11,23.81,23.81,0,0,1-5,8.53,22.6,22.6,0,0,1-7.89,5.47,28.18,28.18,0,0,1-20.55,0,22.51,22.51,0,0,1-7.89-5.47,25.06,25.06,0,0,1-5.14-8.53,31.5,31.5,0,0,1-1.84-11,30.47,30.47,0,0,1,1.89-10.95,24.9,24.9,0,0,1,5.23-8.43,23.72,23.72,0,0,1,8-5.43,25.58,25.58,0,0,1,10-1.93,25.85,25.85,0,0,1,10.12,1.93,23.22,23.22,0,0,1,7.9,5.43,24.71,24.71,0,0,1,5.14,8.43A31.37,31.37,0,0,1,630.35,159.57Zm-14.73,0q0-6.69-2.67-10.51a8.71,8.71,0,0,0-7.6-3.83,8.85,8.85,0,0,0-7.66,3.83Q595,152.89,595,159.57t2.71,10.61a8.77,8.77,0,0,0,7.66,3.93,8.63,8.63,0,0,0,7.6-3.93Q615.62,166.27,615.62,159.57Z" style="fill: #fff"/>
      <path d="M668,155.89q-1.93,7.37-4.12,14.63t-4.6,14.63H648q-1.74-4.07-3.79-9.69T640,163.2q-2.18-6.63-4.47-14t-4.42-15h15.22c.51,2.33,1.08,4.86,1.7,7.61s1.27,5.57,2,8.48,1.4,5.83,2.14,8.77,1.51,5.76,2.3,8.48c.84-2.85,1.66-5.75,2.47-8.72s1.58-5.9,2.32-8.77,1.46-5.66,2.14-8.34,1.27-5.18,1.79-7.51h10.46q.78,3.49,1.75,7.51t2,8.34c.71,2.87,1.46,5.8,2.23,8.77s1.58,5.87,2.42,8.72c.78-2.72,1.56-5.54,2.34-8.48s1.51-5.86,2.2-8.77,1.33-5.73,1.94-8.48,1.19-5.28,1.71-7.61h15q-2.14,7.56-4.42,15t-4.47,14q-2.19,6.65-4.28,12.26t-3.84,9.69H677q-2.41-7.36-4.74-14.63T668,155.89Z" style="fill: #fff"/>
    </g>
    <g>
      <path d="M307.75,37a113,113,0,1,0,113,113A113,113,0,0,0,307.75,37Zm0,208a95,95,0,1,1,95-95A95,95,0,0,1,307.75,245Z" style="fill: #fff"/>
      <g style="opacity: 0.3">
        <path d="M402.75,150a95,95,0,0,1-186.29,26.38c1.63-2.52,3.18-4.83,3.18-4.83,10.38-15.79,32.63-36.88,71.45-9.79,16.37,11.39,30.44,15.19,41.21,12.69a31.73,31.73,0,0,0,10.08-4.5l.1-.1a38.52,38.52,0,0,0,11.18-11.49c5.18-8.8,8.08-18.19,9.58-23.19,5.78-19.08,12-32.47,22.15-39a3.71,3.71,0,0,1,.51-.23A94.61,94.61,0,0,1,402.75,150Z" style="fill: #fff;fill-rule: evenodd"/>
      </g>
      <g>
        <path d="M259.66,128.72a90.3,90.3,0,0,1,10.69-2.24,87.74,87.74,0,0,1,13.73-1,33.23,33.23,0,0,1,12.15,1.91,18.32,18.32,0,0,1,7.69,5.39,21.06,21.06,0,0,1,4,8.29,44,44,0,0,1,1.2,10.68v32.37H292.91V153.68q0-7.85-2.07-11.12t-7.74-3.27c-1.16,0-2.4.06-3.71.16s-2.47.24-3.49.39v44.25H259.66Z" style="fill: #fff"/>
        <path d="M314.05,184.09V108.55h50.58v14.28H331.06v15.81h29.86v14.28H331.06v31.17Z" style="fill: #fff"/>
      </g>
    </g>
  </g>
</svg>
