<svg width="50" height="50" viewBox="0 0 50 50" fill="none" xmlns="http://www.w3.org/2000/svg">
<path d="M46.8235 25.7647V18.4706C46.8235 16.2353 45.0588 14.4706 42.8235 14.4706H21.7647C21.1765 14.4706 20.5882 14.5882 20 14.9412C18.8235 13.5294 17.2941 12.4706 15.5294 11.8824C17.2941 10.7059 18.4706 8.70588 18.4706 6.47059C18.4706 2.94118 15.5294 0 12 0C8.47059 0 5.64706 2.94118 5.64706 6.47059C5.64706 8.70588 6.82353 10.7059 8.58824 11.8824C4.47059 13.2941 1.52941 17.1765 1.52941 21.7647V25.7647H0V50H50V25.7647H46.8235ZM26.5882 38.7059V35.5294H37.8824V38.7059H26.5882ZM21.7647 33.8824C20.4706 33.8824 19.2941 32.8235 19.2941 31.4118V30.5882H45.0588V31.4118C45.0588 32.7059 44 33.8824 42.5882 33.8824H21.7647ZM42.7059 16.1176C44 16.1176 45.1765 17.1765 45.1765 18.5882V29.0588H19.4118V18.5882C19.4118 17.2941 20.4706 16.1176 21.8824 16.1176H42.7059ZM7.29412 6.47059C7.29412 3.76471 9.41177 1.64706 12.1176 1.64706C14.8235 1.64706 16.9412 3.76471 16.9412 6.47059C16.9412 9.17647 14.8235 11.2941 12.1176 11.2941C9.41177 11.2941 7.29412 9.17647 7.29412 6.47059ZM3.17647 21.7647C3.17647 16.8235 7.17647 12.9412 12 12.9412C14.5882 12.9412 16.9412 14 18.7059 16C18.1176 16.7059 17.6471 17.6471 17.6471 18.5882V25.8824H7.29412V18.5882H5.64706V25.8824H3.17647V21.7647ZM17.7647 27.4118V31.4118C17.7647 33.6471 19.5294 35.4118 21.7647 35.4118H24.9412V38.5882H21.7647V40.2353H42.7059V38.5882H39.5294V35.4118H42.7059C44.9412 35.4118 46.7059 33.6471 46.7059 31.4118V27.4118H48.3529V43.5294H1.64706V27.4118H17.7647ZM1.64706 48.3529V45.1765H48.4706V48.3529H1.64706Z" fill="#5DD39E"/>
<path d="M10.4706 42C12.9412 42 17.7647 41.0588 17.7647 38.8235V32.3529C17.7647 30.1176 12.9412 29.1765 10.4706 29.1765C8.00004 29.1765 3.17651 30.1176 3.17651 32.3529V38.8235C3.17651 40.9412 8.00004 42 10.4706 42ZM10.4706 40.3529C7.6471 40.3529 4.94122 39.2941 4.82357 38.7059V37.4117C6.47063 38.2353 8.94122 38.7059 10.4706 38.7059C12 38.7059 14.4706 38.3529 16.1177 37.4117V38.5882C16 39.2941 13.2942 40.3529 10.4706 40.3529ZM10.4706 30.7059C13.1765 30.7059 15.8824 31.7647 16.1177 32.3529C15.8824 32.9412 13.1765 34 10.4706 34C7.6471 34 4.94122 32.9412 4.82357 32.3529C5.05887 31.7647 7.76475 30.7059 10.4706 30.7059ZM4.82357 34.2353C6.47063 35.0588 8.94122 35.5294 10.4706 35.5294C12 35.5294 14.4706 35.1765 16.1177 34.2353V35.4117C16 36 13.2942 37.0588 10.4706 37.0588C7.6471 37.0588 4.94122 36 4.82357 35.4117V34.2353V34.2353Z" fill="#5DD39E"/>
<path d="M22.5882 8.11765C23.0588 8.11765 23.5294 8 23.8823 7.76471L26.7059 9.88235C26.5882 10.1176 26.5882 10.3529 26.5882 10.5882C26.5882 11.8824 27.647 13.0588 29.0588 13.0588C30.4706 13.0588 31.5294 12 31.5294 10.5882C31.5294 10.2353 31.4117 9.88235 31.2941 9.52941L34.5882 6.23529C34.9411 6.35294 35.2941 6.47059 35.647 6.47059C36 6.47059 36.3529 6.35294 36.7059 6.23529L38.3529 7.88235C38.2353 8.23529 38.1176 8.58824 38.1176 8.94118C38.1176 10.2353 39.1764 11.4118 40.5882 11.4118C42 11.4118 43.0588 10.3529 43.0588 8.94118C43.0588 8.58824 42.9412 8.23529 42.8235 7.88235L46.1176 4.58824C46.4706 4.70588 46.8235 4.82353 47.1764 4.82353C48.4706 4.82353 49.647 3.76471 49.647 2.35294C49.647 0.941176 48.1176 0 46.8235 0C45.5294 0 44.3529 1.05882 44.3529 2.47059C44.3529 2.82353 44.4706 3.17647 44.5882 3.52941L41.2941 6.82353C40.9411 6.70588 40.5882 6.58824 40.2353 6.58824C39.8823 6.58824 39.5294 6.70588 39.1764 6.82353L37.647 5.05882C37.7647 4.70588 37.8823 4.35294 37.8823 4C37.8823 2.70588 36.8235 1.52941 35.4117 1.52941C34.1176 1.52941 32.9412 2.58824 32.9412 4C32.9412 4.35294 33.0588 4.70588 33.1764 5.05882L29.8823 8.35294C29.5294 8.23529 29.1764 8.11765 28.8235 8.11765C28.3529 8.11765 27.8823 8.23529 27.5294 8.47059L24.7059 6.35294C24.8235 6.11765 24.8235 5.88235 24.8235 5.64706C24.8235 4.35294 23.7647 3.17647 22.3529 3.17647C21.0588 3.17647 19.8823 4.23529 19.8823 5.64706C19.8823 7.05882 21.2941 8.11765 22.5882 8.11765ZM46.8235 1.64706C47.2941 1.64706 47.647 2 47.647 2.47059C47.647 2.94118 47.2941 3.29412 46.8235 3.29412C46.3529 3.29412 46 2.94118 46 2.47059C46 2 46.3529 1.64706 46.8235 1.64706ZM41.1764 8.82353C41.1764 9.29412 40.8235 9.64706 40.3529 9.64706C39.8823 9.64706 39.5294 9.29412 39.5294 8.82353C39.5294 8.35294 39.8823 8 40.3529 8C40.8235 8 41.1764 8.47059 41.1764 8.82353ZM35.5294 3.17647C36 3.17647 36.3529 3.52941 36.3529 4C36.3529 4.47059 36 4.82353 35.5294 4.82353C35.0588 4.82353 34.7059 4.47059 34.7059 4C34.7059 3.52941 35.0588 3.17647 35.5294 3.17647ZM29.0588 9.64706C29.5294 9.64706 29.8823 10 29.8823 10.4706C29.8823 10.9412 29.5294 11.2941 29.0588 11.2941C28.5882 11.2941 28.2353 10.9412 28.2353 10.4706C28.2353 10 28.5882 9.64706 29.0588 9.64706ZM22.5882 4.82353C23.0588 4.82353 23.4117 5.17647 23.4117 5.64706C23.4117 6.11765 23.0588 6.47059 22.5882 6.47059C22.1176 6.47059 21.7647 6.11765 21.7647 5.64706C21.7647 5.17647 22.1176 4.82353 22.5882 4.82353Z" fill="#5DD39E"/>
<path d="M42.7058 25.7647H41.1764V17.647H36.3529V25.7647H34.7058V20.9412H29.8823V25.7647H28.2352V19.2941H23.4117V25.7647H21.7646V27.4117H42.7058V25.7647ZM37.8823 19.4117H39.5294V25.8823H37.8823V19.4117ZM31.4117 22.5882H33.0588V25.7647H31.4117V22.5882ZM25.0588 20.9412H26.7058V25.7647H25.0588V20.9412Z" fill="#5DD39E"/>
</svg>
