<svg width="50" height="50" viewBox="0 0 50 50" fill="none" xmlns="http://www.w3.org/2000/svg">
<path d="M13.7647 3.17645C7.99995 3.17645 3.29407 7.88234 3.29407 13.647C3.29407 19.4117 7.99995 24.1176 13.7647 24.1176C19.5294 24.1176 24.2352 19.4117 24.2352 13.647C24.2352 7.88234 19.5294 3.17645 13.7647 3.17645ZM13.7647 22.5882C8.82348 22.5882 4.94113 18.5882 4.94113 13.7647C4.94113 8.94116 8.94113 4.94116 13.7647 4.94116C18.1176 4.94116 21.8823 8.11763 22.4705 12.3529L16.9411 18.2353L13.2941 14.5882H8.1176V16.2353H12.5882L16.9411 20.5882L22.4705 14.5882C22.1176 19.0588 18.3529 22.5882 13.7647 22.5882Z" fill="#5DD39E"/>
<path d="M12.9412 38.7059H14.5882V40.3529H12.9412V38.7059Z" fill="#5DD39E"/>
<path d="M12.9412 42H14.5882V43.5294H12.9412V42Z" fill="#5DD39E"/>
<path d="M12.9412 45.1765H14.5882V46.8235H12.9412V45.1765Z" fill="#5DD39E"/>
<path d="M43.5293 48.3529H41.8823V25.7647H35.4117V48.3529H33.7646V29.0588H27.294V48.4706H25.647V32.2353H19.1764V50H49.8823V20.9412H43.5293V48.3529ZM24.2352 48.3529H21.0587V33.8823H24.2352V48.3529ZM37.0587 27.4117H40.2352V48.3529H37.0587V27.4117V27.4117ZM29.0587 30.7059H32.2352V48.4706H29.0587V30.7059ZM45.1764 22.5882H48.3529V48.3529H45.1764V22.5882Z" fill="#5DD39E"/>
<path d="M6.47058 11.2941H8.11764V12.9412H6.47058V11.2941Z" fill="#5DD39E"/>
<path d="M12.9412 11.2941H14.5882V12.9412H12.9412V11.2941Z" fill="#5DD39E"/>
<path d="M9.64709 11.2941H11.2942V12.9412H9.64709V11.2941Z" fill="#5DD39E"/>
<path d="M19.4117 11.2941H21.0588V12.9412H19.4117V11.2941Z" fill="#5DD39E"/>
<path d="M16.1177 11.2941H17.7647V12.9412H16.1177V11.2941Z" fill="#5DD39E"/>
<path d="M48.3529 12.9412V8.11765H46.7059V12.9412H45.0588V11.2941H43.5294V12.9412H41.8824V8.11765H40.2353V12.9412H38.5882V9.64706H36.9412V12.9412H35.6471L28.8235 5.29412L26.2353 8.23529C24.1176 3.41176 19.2941 0 13.6471 0C6.11765 0 0 6.11765 0 13.7647C0 20.1176 4.47059 25.5294 10.4706 27.0588V31.2941C10 31.7647 9.64706 32.3529 9.64706 33.0588V46C9.64706 48.2353 11.4118 50 13.6471 50C15.8824 50 17.6471 48.2353 17.6471 46V33.0588C17.6471 32.3529 17.2941 31.7647 16.8235 31.2941V27.0588C22.8235 25.6471 27.2941 20.2353 27.2941 13.7647C27.2941 12.4706 27.0588 11.1765 26.7059 10L28.8235 7.76471L34.9412 14.5882H49.8824V12.9412H48.3529ZM16.1176 46C16.1176 47.2941 15.0588 48.4706 13.6471 48.4706C12.2353 48.4706 11.1765 47.4118 11.1765 46V33.0588C11.1765 32.5882 11.5294 32.2353 12 32.2353H15.2941C15.7647 32.2353 16.1176 32.5882 16.1176 33.0588V46ZM15.2941 30.7059H12.1176V27.4118C12.7059 27.5294 13.1765 27.5294 13.7647 27.5294C14.3529 27.5294 14.8235 27.5294 15.4118 27.4118V30.7059H15.2941ZM13.7647 25.7647C7.05882 25.7647 1.64706 20.3529 1.64706 13.7647C1.64706 7.17647 7.05882 1.64706 13.7647 1.64706C20.4706 1.64706 25.7647 7.05882 25.7647 13.7647C25.7647 20.4706 20.3529 25.7647 13.7647 25.7647Z" fill="#5DD39E"/>
</svg>
