<svg width="50" height="50" viewBox="0 0 50 50" fill="none" xmlns="http://www.w3.org/2000/svg">
<g clip-path="url(#clip0)">
<path d="M47.6471 22.7059C46.5882 22.7059 45.7647 23.4118 45.4118 24.2353H42.9412C42.8235 20.3529 41.2941 16.7059 39.0588 13.8824V7.76471H40.8235C41.1765 8.70588 42 9.29412 43.0588 9.29412C44.3529 9.29412 45.4118 8.23529 45.4118 6.94118C45.4118 5.64706 44.3529 4.58824 43.0588 4.58824C42 4.58824 41.1765 5.29412 40.8235 6.11765H38.3529C37.8823 6.11765 37.5294 6.47059 37.5294 6.94118V12C34.4706 9.05882 30.3529 7.17647 25.7647 6.94118V4.58824C26.7059 4.23529 27.2941 3.41176 27.2941 2.35294C27.2941 1.05882 26.2353 0 24.9412 0C23.6471 0 22.5882 1.05882 22.5882 2.35294C22.5882 3.41176 23.2941 4.23529 24.1176 4.58824V7.05882C19.5294 7.29412 15.4118 9.17647 12.3529 12.1176V7.05882C12.3529 6.58823 12 6.23529 11.5294 6.23529H9.29412C8.94118 5.29412 8 4.70588 7.05882 4.70588C5.76471 4.70588 4.70588 5.76471 4.70588 7.05882C4.70588 8.35294 5.76471 9.41176 7.05882 9.41176C8.11765 9.41176 8.94118 8.70588 9.29412 7.88235H11.0588V13.8824C8.82353 16.7059 7.29412 20.3529 7.17647 24.2353H4.58824C4.23529 23.2941 3.41176 22.7059 2.35294 22.7059C1.05882 22.7059 0 23.7647 0 25.0588C0 26.3529 1.05882 27.4118 2.35294 27.4118C3.41176 27.4118 4.23529 26.7059 4.58824 25.8824H7.05882C7.17647 29.7647 8.70588 33.4118 10.9412 36.2353V42.2353H9.29412C8.94118 41.2941 8.11765 40.7059 7.05882 40.7059C5.76471 40.7059 4.70588 41.7647 4.70588 43.0588C4.70588 44.3529 5.76471 45.4118 7.05882 45.4118C8.11765 45.4118 8.94118 44.7059 9.29412 43.8823H11.7647C12.2353 43.8823 12.5882 43.5294 12.5882 43.0588V38C15.6471 40.9412 19.7647 42.8235 24.3529 43.0588V45.5294C23.4118 45.8824 22.8235 46.7059 22.8235 47.7647C22.8235 49.0588 23.8824 50.1176 25.1765 50.1176C26.4706 50.1176 27.5294 49.0588 27.5294 47.7647C27.5294 46.7059 26.8235 45.8824 26 45.5294V43.0588C30.5882 42.8235 34.7059 40.9412 37.7647 38V43.0588C37.7647 43.5294 38.1176 43.8823 38.5882 43.8823H41.0588C41.4118 44.8235 42.2353 45.4118 43.2941 45.4118C44.5882 45.4118 45.6471 44.3529 45.6471 43.0588C45.6471 41.7647 44.5882 40.7059 43.2941 40.7059C42.2353 40.7059 41.4118 41.4118 41.0588 42.2353H39.2941V36.2353C41.5294 33.4118 43.0588 29.7647 43.1765 25.8824H45.6471C46 26.8235 46.8235 27.4118 47.8824 27.4118C49.1765 27.4118 50.2353 26.3529 50.2353 25.0588C50.2353 23.7647 48.9412 22.7059 47.6471 22.7059ZM42.9412 6.23529C43.4118 6.23529 43.7647 6.58823 43.7647 7.05882C43.7647 7.52941 43.4118 7.88235 42.9412 7.88235C42.4706 7.88235 42.1176 7.52941 42.1176 7.05882C42.1176 6.58823 42.5882 6.23529 42.9412 6.23529ZM7.05882 7.76471C6.58823 7.76471 6.23529 7.41176 6.23529 7.05882C6.23529 6.70588 6.58823 6.23529 7.05882 6.23529C7.52941 6.23529 7.76471 6.58823 7.76471 7.05882C7.76471 7.52941 7.41176 7.76471 7.05882 7.76471ZM7.05882 43.7647C6.58823 43.7647 6.23529 43.4118 6.23529 42.9412C6.23529 42.4706 6.58823 42.1176 7.05882 42.1176C7.52941 42.1176 7.88235 42.4706 7.88235 42.9412C7.76471 43.4118 7.41176 43.7647 7.05882 43.7647ZM42.9412 42.2353C43.4118 42.2353 43.7647 42.5882 43.7647 43.0588C43.7647 43.5294 43.4118 43.8823 42.9412 43.8823C42.4706 43.8823 42.1176 43.5294 42.1176 43.0588C42.2353 42.5882 42.5882 42.2353 42.9412 42.2353ZM38.4706 15.6471H33.4118C32.2353 12.9412 30.5882 10.5882 28.7059 9.05882C32.7059 9.88235 36.1176 12.3529 38.4706 15.6471ZM24.2353 9.05882V15.6471H18.3529C19.7647 12.5882 21.8824 10.2353 24.2353 9.05882ZM25.7647 9.05882C28.1176 10.3529 30.2353 12.7059 31.6471 15.6471H25.7647V9.05882ZM25.0588 1.52941C25.5294 1.52941 25.8824 1.88235 25.8824 2.35294C25.8824 2.82353 25.5294 3.17647 25.0588 3.17647C24.5882 3.17647 24.2353 2.82353 24.2353 2.35294C24.2353 1.88235 24.5882 1.52941 25.0588 1.52941ZM21.4118 9.05882C19.4118 10.7059 17.7647 12.9412 16.7059 15.6471H11.5294C13.8824 12.3529 17.4118 9.88235 21.4118 9.05882ZM2.35294 25.7647C1.88235 25.7647 1.52941 25.4118 1.52941 24.9412C1.52941 24.4706 1.88235 24.1176 2.35294 24.1176C2.82353 24.1176 3.17647 24.4706 3.17647 24.9412C3.17647 25.4118 2.82353 25.7647 2.35294 25.7647ZM11.5294 34.3529H16.5882C17.7647 37.0588 19.4118 39.4118 21.2941 40.9412C17.4118 40.1176 13.8824 37.6471 11.5294 34.3529ZM25.7647 41.0588V34.4706H31.6471C30.2353 37.4118 28.2353 39.7647 25.7647 41.0588ZM24.2353 41.0588C21.8824 39.7647 19.7647 37.4118 18.3529 34.4706H24.2353V41.0588ZM25.0588 48.4706C24.5882 48.4706 24.2353 48.1176 24.2353 47.6471C24.2353 47.1765 24.5882 46.8235 25.0588 46.8235C25.5294 46.8235 25.8824 47.1765 25.8824 47.6471C25.8824 48.1176 25.4118 48.4706 25.0588 48.4706ZM28.5882 41.0588C30.5882 39.4118 32.2353 37.1765 33.2941 34.4706H38.3529C36.1176 37.6471 32.7059 40.1176 28.5882 41.0588ZM39.4118 32.8235H33.8824C34.1176 32.1176 34.3529 31.4118 34.4706 30.7059L32.9412 30.3529C32.7059 31.1765 32.4706 32.1176 32.2353 32.8235H25.7647V30.4706H24.2353V32.8235H17.7647C17.5294 32 17.1765 31.1765 17.0588 30.3529L15.5294 30.7059C15.6471 31.4118 15.8824 32.1176 16.1176 32.8235H10.5882C9.41176 30.7059 8.82353 28.3529 8.58824 25.7647H10.1176V24.2353H8.58824C8.70588 21.6471 9.41176 19.2941 10.5882 17.1765H16.1176C15.8824 17.7647 15.7647 18.4706 15.5294 19.1765L17.0588 19.5294C17.2941 18.7059 17.5294 17.8824 17.7647 17.1765H24.2353V19.5294H25.7647V17.1765H32.2353C32.4706 18 32.8235 18.8235 32.9412 19.6471L34.4706 19.2941C34.3529 18.5882 34.1176 17.7647 33.8824 17.1765H39.4118C40.5882 19.2941 41.1765 21.6471 41.4118 24.2353H39.8824V25.7647H41.4118C41.2941 28.3529 40.5882 30.7059 39.4118 32.8235ZM47.6471 25.7647C47.1765 25.7647 46.8235 25.4118 46.8235 24.9412C46.8235 24.4706 47.1765 24.1176 47.6471 24.1176C48.1176 24.1176 48.4706 24.4706 48.4706 24.9412C48.4706 25.4118 48.1176 25.7647 47.6471 25.7647Z" fill="#5DD39E"/>
<path d="M11.7647 22.7059V27.4118C11.7647 28.2353 12.4706 28.9412 13.2941 28.9412H16.4706C16.9412 28.9412 17.2941 28.5882 17.2941 28.1176V24.9412C17.2941 24.4706 16.9412 24.1176 16.4706 24.1176H14.9412V25.647H15.7647V27.1765H13.4118V22.4706H17.2941V20.9412H13.4118C12.4706 21.0588 11.7647 21.7647 11.7647 22.7059Z" fill="#5DD39E"/>
<path d="M21.8823 21.0588H19.5294C19.0588 21.0588 18.7059 21.4118 18.7059 21.8824V28.1177C18.7059 28.5883 19.0588 28.9412 19.5294 28.9412H21.8823C23.1765 28.9412 24.2353 27.8824 24.2353 26.5883V23.4118C24.2353 22.1177 23.1765 21.0588 21.8823 21.0588ZM22.7059 26.5883C22.7059 27.0588 22.3529 27.4118 21.8823 27.4118H20.3529V22.7059H21.8823C22.3529 22.7059 22.7059 23.0588 22.7059 23.5294V26.5883Z" fill="#5DD39E"/>
<path d="M28.9412 21.0588H26.5882C26.1177 21.0588 25.7647 21.4118 25.7647 21.8824V28.9412H27.2941V26.5883H28.8235C30.1177 26.5883 31.1765 25.5294 31.1765 24.2353V23.4118C31.2941 22.1177 30.2353 21.0588 28.9412 21.0588ZM29.6471 24.2353C29.6471 24.7059 29.2941 25.0588 28.8235 25.0588H27.2941V22.7059H28.8235C29.2941 22.7059 29.6471 23.0588 29.6471 23.5294V24.2353Z" fill="#5DD39E"/>
<path d="M36 21.0588H33.6471C33.1765 21.0588 32.8235 21.4118 32.8235 21.8824V28.9412H34.353V26.5883H36.1177L36.7059 27.6471V28.9412H38.2353V27.4118C38.2353 27.2941 38.2353 27.1765 38.1177 26.9412L37.5294 25.8824C38 25.4118 38.2353 24.8235 38.2353 24.1177V23.2941C38.353 22.1177 37.2941 21.0588 36 21.0588ZM34.353 25.0588V22.7059H35.8824C36.353 22.7059 36.7059 23.0588 36.7059 23.5294V24.353C36.7059 24.8235 36.353 25.1765 35.8824 25.1765H34.353V25.0588Z" fill="#5DD39E"/>
</g>
<defs>
<clipPath id="clip0">
<rect width="50" height="50" fill="white"/>
</clipPath>
</defs>
</svg>
