<svg width="50" height="50" viewBox="0 0 50 50" fill="none" xmlns="http://www.w3.org/2000/svg">
<path d="M40.9412 48.7059L38.4706 41.5294C38.3529 41.1765 38 40.8236 37.5294 40.8236H37.4118V26.7059C37.4118 19.8824 31.8824 14.353 25.0588 14.353C18.2353 14.353 12.7059 19.8824 12.7059 26.7059V40.8236H12.5882C12.1177 40.8236 11.7647 41.0588 11.6471 41.5294L9.17648 48.7059C9.05883 49.0588 9.17648 49.2941 9.29412 49.6471C9.52942 49.8824 9.76471 50 10.1177 50H40C40.3529 50 40.5882 49.8824 40.8235 49.6471C40.9412 49.4118 41.0588 49.0588 40.9412 48.7059ZM14.5882 26.7059C14.5882 20.9412 19.2941 16.2353 25.0588 16.2353C30.8235 16.2353 35.5294 20.9412 35.5294 26.7059V40.8236H14.5882V26.7059ZM11.4118 48.1177L13.1765 42.8236H36.8235L38.5882 48.1177H11.4118Z" fill="#5DD39E"/>
<path d="M25.0588 0C24.4706 0 24.1176 0.470588 24.1176 0.941177V6.82353C24.1176 7.41177 24.5882 7.76471 25.0588 7.76471C25.6471 7.76471 26 7.29412 26 6.82353V0.941177C26 0.470588 25.5294 0 25.0588 0Z" fill="#5DD39E"/>
<path d="M25.6471 10C25.4118 9.76471 25.1765 9.76471 24.9412 9.76471C24.7059 9.76471 24.4706 9.88236 24.2353 10C24 10.2353 24 10.4706 24 10.7059C24 10.9412 24.1176 11.1765 24.2353 11.4118C24.4706 11.6471 24.7059 11.6471 24.9412 11.6471C25.1765 11.6471 25.4118 11.5294 25.6471 11.4118C25.8824 11.1765 26 10.9412 26 10.5882C26 10.3529 25.8824 10.1177 25.6471 10Z" fill="#5DD39E"/>
<path d="M9.29412 26.1177H4.82353C4.2353 26.1177 3.88235 26.5883 3.88235 27.0588C3.88235 27.5294 4.35294 28 4.82353 28H9.29412C9.88235 28 10.2353 27.5294 10.2353 27.0588C10.2353 26.5883 9.88235 26.1177 9.29412 26.1177Z" fill="#5DD39E"/>
<path d="M1.64706 26.4706C1.41176 26.2353 1.17647 26.2353 0.941177 26.2353C0.705882 26.2353 0.470588 26.3529 0.235294 26.4706C0 26.5882 0 26.8235 0 27.1765C0 27.5294 0.117647 27.6471 0.235294 27.8824C0.470588 28.1176 0.705882 28.1176 0.941177 28.1176C1.17647 28.1176 1.41176 28 1.64706 27.8824C1.88235 27.6471 1.88235 27.4118 1.88235 27.1765C1.88235 26.9412 1.88235 26.5882 1.64706 26.4706Z" fill="#5DD39E"/>
<path d="M18.4706 8.70592L17.1765 5.52945C16.9412 5.05886 16.3529 4.82357 15.8823 5.05886C15.2941 5.17651 15.0588 5.76474 15.2941 6.23533L16.5882 9.4118C16.7059 9.76474 17.0588 10 17.5294 10C17.6471 10 17.7647 10 17.8823 9.88239C18.3529 9.76474 18.5882 9.17651 18.4706 8.70592Z" fill="#5DD39E"/>
<path d="M7.29413 18.7059L4.11766 17.4118C3.64707 17.1765 3.05883 17.4118 2.82354 17.8824C2.58824 18.3529 2.82354 18.9412 3.29413 19.1765L6.4706 20.4706C6.58824 20.4706 6.70589 20.5882 6.82354 20.5882C7.17648 20.5882 7.52942 20.3529 7.76472 20C8.11766 19.5294 7.88236 18.9412 7.29413 18.7059Z" fill="#5DD39E"/>
<path d="M45.5294 26.1177H41.0588C40.4706 26.1177 40.1176 26.5883 40.1176 27.0588C40.1176 27.5294 40.5882 28 41.0588 28H45.5294C46.1176 28 46.4706 27.5294 46.4706 27.0588C46.4706 26.5883 46.1176 26.1177 45.5294 26.1177Z" fill="#5DD39E"/>
<path d="M49.7647 26.4706C49.5294 26.2353 49.2941 26.2353 49.0588 26.2353C48.8235 26.2353 48.5882 26.3529 48.3529 26.4706C48.1176 26.7059 48.1176 26.9412 48.1176 27.1765C48.1176 27.4118 48.2353 27.6471 48.3529 27.8824C48.5882 28.1176 48.8235 28.1176 49.0588 28.1176C49.2941 28.1176 49.5294 28 49.7647 27.8824C50 27.6471 50 27.4118 50 27.1765C50 26.9412 49.8823 26.5882 49.7647 26.4706Z" fill="#5DD39E"/>
<path d="M44.3529 7.76471C44 7.41176 43.2941 7.41176 42.9412 7.76471L38.1176 12.5882C37.7647 12.9412 37.7647 13.6471 38.1176 14C38.3529 14.2353 38.5882 14.2353 38.8235 14.2353C39.0588 14.2353 39.2941 14.1176 39.5294 14L44.3529 9.17647C44.7059 8.82353 44.7059 8.23529 44.3529 7.76471Z" fill="#5DD39E"/>
<path d="M11.8824 12.5882L7.05883 7.76471C6.70588 7.41176 6 7.41176 5.64706 7.76471C5.29412 8.23529 5.29412 8.82353 5.64706 9.17647L10.4706 14C10.7059 14.2353 10.9412 14.2353 11.1765 14.2353C11.4118 14.2353 11.6471 14.1176 11.8824 14C12.2353 13.6471 12.2353 12.9412 11.8824 12.5882Z" fill="#5DD39E"/>
<path d="M34.2353 4.94118C33.7647 4.70589 33.1765 4.94118 32.9412 5.41177L31.6471 8.58824C31.4118 9.05883 31.6471 9.64707 32.1176 9.88236C32.2353 9.88236 32.3529 10 32.4706 10C32.8235 10 33.1765 9.76471 33.4118 9.41177L34.7059 6.2353C34.9412 5.76471 34.7059 5.17648 34.2353 4.94118Z" fill="#5DD39E"/>
<path d="M47.1764 18C46.9412 17.5294 46.3529 17.2941 45.8823 17.5294L42.7059 18.8235C42.2353 19.0588 42 19.647 42.2353 20.1176C42.3529 20.4706 42.7059 20.7059 43.1765 20.7059C43.2941 20.7059 43.4117 20.7059 43.5294 20.5882L46.7059 19.2941C47.1765 19.0588 47.4117 18.4706 47.1764 18Z" fill="#5DD39E"/>
<path d="M25.0588 20.4706C23.4118 20.4706 22.1176 21.7647 22.1176 23.4118V28.1176C22.1176 29.7647 23.4118 31.0588 25.0588 31.0588C26.7059 31.0588 28 29.7647 28 28.1176V23.4118C28 21.7647 26.5882 20.4706 25.0588 20.4706ZM26 28C26 28.5882 25.5294 28.9412 25.0588 28.9412C24.4706 28.9412 24.1176 28.4706 24.1176 28V23.2941C24.1176 22.7059 24.5882 22.3529 25.0588 22.3529C25.6471 22.3529 26 22.8235 26 23.2941V28Z" fill="#5DD39E"/>
<path d="M25.0588 32.9412C23.4118 32.9412 22.1176 34.2353 22.1176 35.8823C22.1176 37.5294 23.4118 38.8235 25.0588 38.8235C26.7059 38.8235 28 37.5294 28 35.8823C28 34.2353 26.5882 32.9412 25.0588 32.9412ZM25.0588 36.8235C24.4706 36.8235 24.1176 36.3529 24.1176 35.8823C24.1176 35.4118 24.5882 34.9412 25.0588 34.9412C25.6471 34.9412 26 35.4118 26 35.8823C26 36.3529 25.5294 36.8235 25.0588 36.8235Z" fill="#5DD39E"/>
</svg>
