<svg width="47" height="50" viewBox="0 0 47 50" fill="none" xmlns="http://www.w3.org/2000/svg">
<g clip-path="url(#clip0)">
<path d="M43.7647 0H2.70588C1.17647 0 0 1.17647 0 2.70588V43.7647C0 45.1765 1.17647 46.3529 2.58824 46.4706V49.2941C2.58824 49.7647 2.94118 50.1176 3.41176 50.1176H9.05882C9.52941 50.1176 9.88235 49.7647 9.88235 49.2941V46.4706H36.4706V49.2941C36.4706 49.7647 36.8235 50.1176 37.2941 50.1176H42.9412C43.4118 50.1176 43.7647 49.7647 43.7647 49.2941V46.4706C45.1765 46.4706 46.3529 45.2941 46.3529 43.7647V2.70588C46.3529 1.17647 45.1765 0 43.7647 0ZM8.23529 48.3529H4.23529V46.3529H8.23529V48.3529ZM38.1176 48.3529V46.3529H42.1176V48.3529H38.1176ZM44.7059 43.7647C44.7059 44.3529 44.2353 44.8235 43.6471 44.8235H2.70588C2.11765 44.8235 1.64706 44.3529 1.64706 43.7647V2.70588C1.64706 2.11765 2.11765 1.64706 2.70588 1.64706H43.7647C44.3529 1.64706 44.8235 2.11765 44.8235 2.70588V43.7647H44.7059Z" fill="#5DD39E"/>
<path d="M30.3529 16.1177C30.2353 16 30.2353 16 30.2353 16C26.3529 12.1177 20 12.1177 16.1176 16C16.1176 16 16.1176 16 16 16C16 16 16 16 16 16.1177C12.1176 20 12.1176 26.353 16 30.2353C16 30.2353 16 30.2353 16 30.353C16 30.353 16 30.353 16.1176 30.353C20 34.2353 26.3529 34.2353 30.2353 30.353C30.2353 30.353 30.2353 30.353 30.3529 30.353C30.3529 30.353 30.3529 30.353 30.3529 30.2353C34.2353 26.353 34.2353 20 30.3529 16.1177ZM29.7647 28.5883L28.2353 27.0588C28.9412 26.2353 29.2941 25.1765 29.5294 24H31.6471C31.4118 25.6471 30.8235 27.2941 29.7647 28.5883ZM14.8235 24H16.9412C17.0588 25.0588 17.5294 26.1177 18.2353 27.0588L16.7059 28.5883C15.647 27.2941 14.9412 25.6471 14.8235 24ZM16.7059 17.8824L18.2353 19.4118C17.5294 20.2353 17.1765 21.2941 16.9412 22.4706H14.8235C14.9412 20.7059 15.647 19.1765 16.7059 17.8824ZM23.1765 27.8824C20.5882 27.8824 18.4706 25.7647 18.4706 23.1765C18.4706 20.5883 20.5882 18.4706 23.1765 18.4706C25.7647 18.4706 27.8823 20.5883 27.8823 23.1765C27.8823 25.7647 25.7647 27.8824 23.1765 27.8824ZM27.0588 18.2353C26.2353 17.5294 25.1765 17.1765 24 16.9412V14.8236C25.647 14.9412 27.2941 15.6471 28.5882 16.7059L27.0588 18.2353ZM22.3529 16.9412C21.2941 17.0588 20.2353 17.5294 19.2941 18.2353L17.7647 16.7059C19.0588 15.6471 20.5882 14.9412 22.3529 14.8236V16.9412V16.9412ZM19.4118 28.2353C20.2353 28.9412 21.2941 29.2941 22.4706 29.5294V31.6471C20.8235 31.5294 19.1765 30.8236 17.8823 29.7647L19.4118 28.2353ZM24 29.4118C25.0588 29.2941 26.1176 28.8236 27.0588 28.1177L28.5882 29.6471C27.2941 30.7059 25.7647 31.4118 24 31.5294V29.4118V29.4118ZM29.4118 22.353C29.2941 21.2941 28.8235 20.2353 28.1176 19.2941L29.6471 17.7647C30.7059 19.0588 31.4118 20.5883 31.5294 22.353H29.4118V22.353Z" fill="#5DD39E"/>
<path d="M23.1765 21.1765C22.1176 21.1765 21.1765 22.1176 21.1765 23.1765C21.1765 24.2353 22.1176 25.1765 23.1765 25.1765C24.2353 25.1765 25.1764 24.2353 25.1764 23.1765C25.1764 22.1176 24.3529 21.1765 23.1765 21.1765ZM23.1765 23.5294C22.9412 23.5294 22.8235 23.4117 22.8235 23.1765C22.8235 22.9412 22.9412 22.8235 23.1765 22.8235C23.4117 22.8235 23.5294 22.9412 23.5294 23.1765C23.5294 23.4117 23.4117 23.5294 23.1765 23.5294Z" fill="#5DD39E"/>
<path d="M42.1176 19.2941H41.5294V7.1765C41.5294 6.70591 41.1764 6.35297 40.7059 6.35297H5.64704C5.17645 6.35297 4.82351 6.70591 4.82351 7.1765V10C3.76469 10.353 3.05881 11.2941 3.05881 12.4706V16C3.05881 17.0588 3.76469 18.1177 4.82351 18.4706V28C3.76469 28.353 3.05881 29.2941 3.05881 30.4706V34C3.05881 35.0588 3.76469 36.1177 4.82351 36.4706V39.2941C4.82351 39.7647 5.17645 40.1177 5.64704 40.1177H40.7059C41.1764 40.1177 41.5294 39.7647 41.5294 39.2941V27.0588H42.1176C42.5882 27.0588 42.9412 26.7059 42.9412 26.2353V20.1177C42.9412 19.6471 42.5882 19.2941 42.1176 19.2941ZM41.2941 25.4118H38.9412V20.9412H41.2941V25.4118ZM4.70587 12.4706C4.70587 12 5.05881 11.5294 5.64704 11.5294C6.11763 11.5294 6.58822 11.8824 6.58822 12.4706V16C6.58822 16.4706 6.23528 16.9412 5.64704 16.9412C5.17645 16.9412 4.70587 16.4706 4.70587 16V12.4706ZM4.70587 30.4706C4.70587 30 5.05881 29.5294 5.64704 29.5294C6.11763 29.5294 6.58822 29.8824 6.58822 30.4706V34C6.58822 34.4706 6.23528 34.9412 5.64704 34.9412C5.17645 34.9412 4.70587 34.5883 4.70587 34V30.4706ZM39.8823 38.353H6.47057V36.353C7.5294 36 8.23528 35.0588 8.23528 34V30.4706C8.23528 29.4118 7.5294 28.353 6.47057 28V18.4706C7.5294 18 8.23528 17.0588 8.23528 16V12.4706C8.23528 11.4118 7.5294 10.353 6.47057 10V8.00003H39.8823V19.2941H38.1176C37.647 19.2941 37.2941 19.6471 37.2941 20.1177V26.2353C37.2941 26.7059 37.647 27.0588 38.1176 27.0588H39.8823V38.353Z" fill="#5DD39E"/>
</g>
<defs>
<clipPath id="clip0">
<rect width="46.3529" height="50" fill="white"/>
</clipPath>
</defs>
</svg>
