<svg width="50" height="50" viewBox="0 0 50 50" fill="none" xmlns="http://www.w3.org/2000/svg">
<g clip-path="url(#clip0)">
<path d="M42.3529 22.7059C45.0588 20.9412 46.8235 18 46.8235 14.5882V9.64706C46.8235 4.35294 42.4706 0 37.1765 0C34.3529 0 31.7647 1.17647 30 3.17647C26.8235 1.05882 23.1765 0 19.4118 0C8.70588 0 0 8.70588 0 19.4118C0 30.1176 8.70588 38.8235 19.4118 38.8235C21.0588 38.8235 22.7059 38.5882 24.2353 38.2353V50.1176H50V31.4118C50 26.9412 46.7059 23.2941 42.3529 22.7059ZM29.0588 9.64706C29.0588 5.17647 32.7059 1.52941 37.1765 1.52941C41.2941 1.52941 44.7059 4.70588 45.1765 8.70588C44 8.47059 41.8824 7.88235 40.8235 6C40.8235 5.88235 40.8235 5.88235 40.9412 5.76471L39.4118 5.17647C37.5294 10.7059 31.1765 10 29.1765 9.64706H29.0588ZM29.0588 11.5294C29.8824 11.6471 30.7059 11.7647 31.6471 11.7647C34.5882 11.7647 38.1176 10.8235 40 7.76471C41.5294 9.76471 44 10.3529 45.1765 10.4706V14.5882C45.1765 19.0588 41.5294 22.7059 37.0588 22.7059C32.5882 22.7059 28.9412 19.0588 28.9412 14.5882V11.5294H29.0588ZM34.7059 24.2353H39.5294L37.1765 32L34.7059 24.2353ZM36.3529 34.8235V38.3529L31.4118 33.4118L33.8824 30.9412L30.9412 28.2353L33.4118 25.7647L36.3529 34.8235ZM37.8824 34.8235L40.7059 25.7647L43.1765 28.2353L40 30.5882L42.4706 33.8824L37.8824 38.4706V34.8235ZM31.8824 22.7059C31.0588 22.8235 30.2353 23.0588 29.4118 23.4118C29.5294 22.5882 29.6471 21.7647 29.7647 20.8235C30.3529 21.5294 31.1765 22.1176 31.8824 22.7059ZM28.9412 4.47059C28 6 27.4118 7.64706 27.4118 9.52941C25.6471 6 23.2941 3.29412 21.6471 1.76471C24.2353 2.11765 26.8235 3.05882 28.9412 4.47059ZM20.1176 2.58824C21.6471 4 24.2353 6.70588 26 10.4706C24.4706 10.9412 22.5882 11.0588 20.1176 11.0588V2.58824ZM18.5882 2.35294V11.0588C18.3529 11.0588 18 11.0588 17.7647 11.0588V10.9412C17.7647 9.05882 16.5882 7.41176 14.9412 6.82353C16.2353 4.58824 17.6471 3.17647 18.5882 2.35294ZM10.4706 18.5882C10.5882 17.4118 10.8235 16.3529 11.0588 15.2941C11.0588 15.1765 11.1765 14.9412 11.1765 14.8235C11.7647 15.1765 12.5882 15.4118 13.2941 15.4118C15.0588 15.4118 16.7059 14.3529 17.4118 12.7059C17.7647 12.7059 18.2353 12.7059 18.5882 12.7059V18.5882H10.4706ZM18.5882 20.1176V23.4118C18.4706 23.4118 18.3529 23.4118 18.2353 23.4118C15.8824 23.4118 13.8824 25.2941 13.7647 27.6471C13.2941 27.7647 12.8235 27.8824 12.3529 28C11.4118 25.7647 10.7059 23.1765 10.5882 20.2353H18.5882V20.1176ZM10.4706 10.9412C10.4706 9.41176 11.7647 8.11765 13.2941 8.11765C14.8235 8.11765 16.1176 9.41176 16.1176 10.9412C16.1176 12.4706 14.8235 13.7647 13.2941 13.7647C11.7647 13.7647 10.4706 12.4706 10.4706 10.9412ZM16.8235 1.76471C15.7647 2.82353 14.4706 4.35294 13.2941 6.47059C11.5294 6.47059 10.1176 7.52941 9.41177 8.94118C7.88235 8.23529 6.94118 7.64706 6.47059 7.17647C9.17647 4.35294 12.7059 2.35294 16.8235 1.76471ZM5.41176 8.47059C6 8.94118 7.17647 9.76471 8.94118 10.5882C8.94118 10.7059 8.94118 10.8235 8.94118 10.9412C8.94118 12 9.29412 12.9412 9.88235 13.6471C9.76471 14.1176 9.64706 14.4706 9.64706 14.9412C9.41176 16 9.17647 17.2941 9.05882 18.5882H1.64706C1.76471 14.7059 3.17647 11.2941 5.41176 8.47059ZM1.64706 20.1176H8.94118C9.05882 23.2941 9.76471 26 10.8235 28.3529C8.58824 29.1765 6.94118 30.1176 6 30.8235C3.41176 28 1.76471 24.2353 1.64706 20.1176ZM7.05882 32.1176C8 31.5294 9.41176 30.5882 11.4118 29.8824C13.0588 33.1765 15.2941 35.4118 16.8235 36.9412C13.0588 36.3529 9.64706 34.7059 7.05882 32.1176ZM18.5882 36.2353C17.1765 35.0588 14.8235 32.7059 13.0588 29.4118C13.2941 29.2941 13.6471 29.2941 14 29.1765C14.5882 30.9412 16.2353 32.2353 18.2353 32.2353C18.3529 32.2353 18.4706 32.2353 18.5882 32.2353V36.2353V36.2353ZM18.1176 30.7059C16.7059 30.7059 15.4118 29.6471 15.2941 28.2353C15.2941 28.1176 15.2941 28 15.2941 27.8824C15.2941 26.3529 16.5882 25.0588 18.1176 25.0588C19.6471 25.0588 20.9412 26.3529 20.9412 27.8824C20.9412 29.4118 19.7647 30.7059 18.1176 30.7059ZM24.2353 36.4706C23.4118 36.7059 22.5882 36.8235 21.7647 36.9412C22.4706 36.2353 23.4118 35.2941 24.2353 34.2353V36.4706ZM24.2353 31.4118C22.8235 33.5294 21.2941 35.1765 20.2353 36.1176V31.7647C21.4118 31.1765 22.2353 30 22.5882 28.7059C23.2941 28.7059 24 28.8235 24.7059 28.9412C24.3529 29.7647 24.2353 30.5882 24.2353 31.4118ZM22.4706 27.0588C22.2353 25.6471 21.2941 24.4706 20.1176 23.8824V20.1176H21.7647V18.4706H20.1176V12.5882C22.9412 12.5882 24.9412 12.3529 26.7059 11.8824C26.9412 12.4706 27.1765 13.1765 27.4118 13.7647V14.4706C27.4118 15.8824 27.7647 17.2941 28.3529 18.4706H23.4118V20.1176H28.2353C28.1176 21.6471 28 23.0588 27.5294 24.4706C26.5882 25.2941 25.7647 26.2353 25.1765 27.4118V27.2941C24.3529 27.2941 23.5294 27.1765 22.4706 27.0588ZM48.3529 48.3529H37.8824V46.7059H36.2353V48.3529H25.7647V31.4118C25.7647 27.5294 28.8235 24.3529 32.7059 24.1176L28.7059 28.2353L31.5294 31.0588L29.0588 33.5294L36.2353 40.7059V45.1765H37.8824V40.7059L44.5882 34L42.2353 30.8235L45.5294 28.3529L41.4118 24.2353C45.2941 24.4706 48.3529 27.6471 48.3529 31.5294V48.3529V48.3529Z" fill="#5DD39E"/>
<path d="M29.0588 45.1765H27.4117V46.8235H29.0588V45.1765Z" fill="#5DD39E"/>
<path d="M29.0588 39.5294H27.4117V43.5294H29.0588V39.5294Z" fill="#5DD39E"/>
</g>
<defs>
<clipPath id="clip0">
<rect width="50" height="50" fill="white"/>
</clipPath>
</defs>
</svg>
