<svg id="Layer_1" data-name="Layer 1" xmlns="http://www.w3.org/2000/svg" viewBox="0 0 900 300">
  <title>logo-nduo-white</title>
  <g>
    <g>
      <path d="M465.38,135.93a79.68,79.68,0,0,1,9.49-2,78.56,78.56,0,0,1,12.21-.92,30,30,0,0,1,10.81,1.69,16.41,16.41,0,0,1,6.83,4.8,18.73,18.73,0,0,1,3.58,7.37,39.13,39.13,0,0,1,1.07,9.49v28.78H494.93v-27c0-4.66-.61-8-1.84-9.89s-3.52-2.9-6.88-2.9c-1,0-2.13,0-3.29.14s-2.2.21-3.1.34v39.34H465.38Z" style="fill: #fff"/>
      <path d="M578.85,151.53a39.23,39.23,0,0,1-2.72,15.21,28.21,28.21,0,0,1-7.7,10.76,32.89,32.89,0,0,1-12.16,6.39A56.47,56.47,0,0,1,540.18,186c-2.71,0-5.88-.11-9.49-.33A78.28,78.28,0,0,1,520,184.28V118.87a91,91,0,0,1,10.9-1.31c3.78-.22,7-.34,9.74-.34a58.93,58.93,0,0,1,15.65,1.94,32.12,32.12,0,0,1,12.06,6.11,27.14,27.14,0,0,1,7.75,10.66A40.36,40.36,0,0,1,578.85,151.53Zm-43.71,21.32c.71.06,1.54.11,2.48.14s2,0,3.34,0q11.34,0,16.81-5.72t5.48-15.79q0-10.56-5.24-16t-16.57-5.43c-1,0-2.1,0-3.2,0s-2.13.12-3.1.24Z" style="fill: #fff"/>
      <path d="M630.59,183.41a80.15,80.15,0,0,1-9.5,2,77.17,77.17,0,0,1-12.21.92,29.08,29.08,0,0,1-10.8-1.74,16.39,16.39,0,0,1-6.83-4.89,19.14,19.14,0,0,1-3.59-7.51,40.5,40.5,0,0,1-1.06-9.6V134.18H601v26.65q0,7,1.84,10.08c1.22,2.07,3.52,3.1,6.88,3.1,1,0,2.13,0,3.29-.15s2.2-.21,3.1-.34V134.18h14.44Z" style="fill: #fff"/>
      <path d="M688.44,159.57a33.22,33.22,0,0,1-1.74,11,24.1,24.1,0,0,1-5,8.53,22.64,22.64,0,0,1-7.9,5.47,28.18,28.18,0,0,1-20.55,0,22.6,22.6,0,0,1-7.89-5.47,25.06,25.06,0,0,1-5.14-8.53,31.73,31.73,0,0,1-1.84-11,30.47,30.47,0,0,1,1.89-10.95,24.9,24.9,0,0,1,5.23-8.43,23.72,23.72,0,0,1,7.95-5.43,27.26,27.26,0,0,1,20.15,0,23.12,23.12,0,0,1,7.9,5.43,24.71,24.71,0,0,1,5.14,8.43A31.37,31.37,0,0,1,688.44,159.57Zm-14.73,0q0-6.69-2.67-10.51a8.71,8.71,0,0,0-7.6-3.83,8.85,8.85,0,0,0-7.66,3.83q-2.71,3.83-2.71,10.51t2.71,10.61a8.77,8.77,0,0,0,7.66,3.93,8.63,8.63,0,0,0,7.6-3.93Q673.71,166.25,673.71,159.57Z" style="fill: #fff"/>
    </g>
    <g>
      <path d="M323.59,37a113,113,0,1,0,113,113A113,113,0,0,0,323.59,37Zm0,208a95,95,0,1,1,95-95A95,95,0,0,1,323.59,245Z" style="fill: #fff"/>
      <g style="opacity: 0.30000000000000004">
        <path d="M418.59,150A95,95,0,0,1,232.3,176.38c1.63-2.52,3.19-4.83,3.19-4.83,10.37-15.79,32.63-36.88,71.44-9.79,16.37,11.39,30.44,15.19,41.22,12.69a31.68,31.68,0,0,0,10.07-4.5l.1-.1a38.41,38.41,0,0,0,11.18-11.49c5.19-8.8,8.08-18.19,9.58-23.19,5.79-19.08,12-32.47,22.15-39,0,0,.21-.1.51-.23A94.53,94.53,0,0,1,418.59,150Z" style="fill: #fff;fill-rule: evenodd"/>
      </g>
      <g>
        <path d="M333.88,146.27a44,44,0,0,1-3.06,17.11,31.67,31.67,0,0,1-8.66,12.1,36.91,36.91,0,0,1-13.68,7.19,63.4,63.4,0,0,1-18.1,2.4q-4.58,0-10.68-.38a88.16,88.16,0,0,1-12-1.58V109.53A102.78,102.78,0,0,1,280,108.06c4.25-.25,7.91-.38,11-.38a66.26,66.26,0,0,1,17.6,2.18,36,36,0,0,1,13.57,6.87,30.42,30.42,0,0,1,8.72,12A45.33,45.33,0,0,1,333.88,146.27Zm-49.16,24c.79.07,1.72.13,2.78.16s2.3.05,3.76.05q12.75,0,18.91-6.43t6.16-17.76q0-11.88-5.89-18t-18.64-6.1c-1.16,0-2.36,0-3.6,0s-2.39.13-3.48.27Z" style="fill: #fff"/>
        <path d="M385,182.13a91,91,0,0,1-10.69,2.23,87.72,87.72,0,0,1-13.73,1,32.74,32.74,0,0,1-12.15-2,18.47,18.47,0,0,1-7.69-5.51,21.48,21.48,0,0,1-4-8.45,45.35,45.35,0,0,1-1.2-10.79V126.76h16.24v30q0,7.85,2.07,11.34t7.74,3.48c1.16,0,2.4-.05,3.71-.16s2.47-.23,3.48-.38V126.76H385Z" style="fill: #fff"/>
      </g>
    </g>
  </g>
</svg>
