<svg id="Layer_1" data-name="Layer 1" xmlns="http://www.w3.org/2000/svg" viewBox="0 0 900 300">
  <title>logo-nreport-white</title>
  <g>
    <g>
      <path d="M403.85,135.93a81.72,81.72,0,0,1,9.49-2,78.56,78.56,0,0,1,12.21-.92,29.79,29.79,0,0,1,10.81,1.7,16.3,16.3,0,0,1,6.83,4.79,18.73,18.73,0,0,1,3.58,7.37,39.13,39.13,0,0,1,1.07,9.49v28.78H433.4v-27q0-7-1.84-9.89c-1.23-1.94-3.52-2.9-6.88-2.9-1,0-2.13,0-3.3.14s-2.19.21-3.09.34v39.34H403.85Z" style="fill: #fff"/>
      <path d="M478.17,117.23q15.1,0,23.16,5.37t8,16.72q0,7.08-3.25,11.48a21.36,21.36,0,0,1-9.35,6.93q2,2.52,4.27,5.77t4.41,6.78q2.18,3.54,4.21,7.36t3.78,7.51h-16.9l-3.75-6.68q-1.89-3.39-3.89-6.59c-1.32-2.13-2.64-4.15-3.94-6.06a64.09,64.09,0,0,0-3.89-5.18h-7.46v24.51H458.5V119a85,85,0,0,1,10.22-1.36Q474,117.24,478.17,117.23Zm.87,12.88c-1.1,0-2.08,0-3,.1l-2.47.19v18.22h4.27q8.52,0,12.21-2.13t3.68-7.27c0-3.29-1.25-5.63-3.73-7S483.88,130.11,479,130.11Z" style="fill: #fff"/>
      <path d="M513.92,160.06A31.2,31.2,0,0,1,516,148.18a25.28,25.28,0,0,1,5.47-8.47,22.74,22.74,0,0,1,7.8-5.14,24.48,24.48,0,0,1,9.06-1.74q10.86,0,17.15,6.63t6.3,19.53c0,.84,0,1.76-.1,2.76s-.13,1.89-.19,2.67H528.75a9.56,9.56,0,0,0,4.17,7.07q3.68,2.61,9.88,2.62a42.08,42.08,0,0,0,7.8-.73,29.94,29.94,0,0,0,6.25-1.79l1.94,11.72a19.23,19.23,0,0,1-3.1,1.16,40.37,40.37,0,0,1-4.31,1c-1.59.29-3.28.53-5.09.73a52,52,0,0,1-5.43.29,32.08,32.08,0,0,1-12-2,23.22,23.22,0,0,1-8.43-5.57,22.28,22.28,0,0,1-4.94-8.38A33.37,33.37,0,0,1,513.92,160.06Zm33.92-5.53a15.45,15.45,0,0,0-.63-3.58,9,9,0,0,0-1.65-3.1,8.65,8.65,0,0,0-2.81-2.23,9.18,9.18,0,0,0-4.21-.87,9.66,9.66,0,0,0-4.17.82,8.64,8.64,0,0,0-2.91,2.18,9.75,9.75,0,0,0-1.79,3.15,20.34,20.34,0,0,0-.92,3.63Z" style="fill: #fff"/>
      <path d="M616.93,159.67a37.27,37.27,0,0,1-1.46,10.75,24.35,24.35,0,0,1-4.26,8.34,19.23,19.23,0,0,1-7,5.42,22.5,22.5,0,0,1-9.59,1.94,25.72,25.72,0,0,1-5.62-.58,27.52,27.52,0,0,1-5-1.65v19.19H569.54V135.93c1.29-.39,2.78-.76,4.46-1.12s3.44-.66,5.28-.92,3.72-.47,5.62-.63,3.73-.24,5.48-.24a31.31,31.31,0,0,1,11.24,1.89,23.17,23.17,0,0,1,8.33,5.33,22.79,22.79,0,0,1,5.18,8.38A32.14,32.14,0,0,1,616.93,159.67Zm-14.73.39q0-6.69-3-10.71t-8.92-4c-1.29,0-2.49,0-3.58.14s-2,.21-2.72.34v26.07a12.8,12.8,0,0,0,3.54,1.45,16.9,16.9,0,0,0,4.41.58Q602.19,173.91,602.2,160.06Z" style="fill: #fff"/>
      <path d="M672.35,159.57a33.22,33.22,0,0,1-1.74,11,23.81,23.81,0,0,1-5,8.53,22.64,22.64,0,0,1-7.9,5.47,28.15,28.15,0,0,1-20.54,0,22.64,22.64,0,0,1-7.9-5.47,25,25,0,0,1-5.13-8.53,31.5,31.5,0,0,1-1.84-11,30.47,30.47,0,0,1,1.89-10.95,24.9,24.9,0,0,1,5.23-8.43,23.68,23.68,0,0,1,7.94-5.43,27.29,27.29,0,0,1,20.16,0,23.22,23.22,0,0,1,7.9,5.43,24.84,24.84,0,0,1,5.13,8.43A31.14,31.14,0,0,1,672.35,159.57Zm-14.73,0q0-6.69-2.66-10.51a8.72,8.72,0,0,0-7.61-3.83,8.84,8.84,0,0,0-7.65,3.83Q637,152.89,637,159.57t2.72,10.61a8.76,8.76,0,0,0,7.65,3.93,8.65,8.65,0,0,0,7.61-3.93Q657.63,166.27,657.62,159.57Z" style="fill: #fff"/>
      <path d="M710.82,147c-1.29-.32-2.81-.66-4.55-1a27.85,27.85,0,0,0-5.62-.54,24.68,24.68,0,0,0-3.25.25,18.33,18.33,0,0,0-2.86.53v39H680.11V136.9a85.57,85.57,0,0,1,9.15-2.57A52.67,52.67,0,0,1,701,133.12c.77,0,1.71,0,2.81.14s2.19.23,3.29.39,2.2.36,3.29.58a16.3,16.3,0,0,1,2.82.82Z" style="fill: #fff"/>
      <path d="M717.12,121.49l14.44-2.33v15H748.9v12H731.56v17.92a14.22,14.22,0,0,0,1.6,7.27q1.59,2.72,6.44,2.72a27.73,27.73,0,0,0,4.8-.44,24.36,24.36,0,0,0,4.5-1.21l2,11.24a41.57,41.57,0,0,1-5.82,1.84,33.59,33.59,0,0,1-7.84.78,25.92,25.92,0,0,1-9.79-1.6,15.31,15.31,0,0,1-6.2-4.46,16.61,16.61,0,0,1-3.25-6.93,41.12,41.12,0,0,1-.92-9Z" style="fill: #fff"/>
    </g>
    <g>
      <path d="M262.06,37a113,113,0,1,0,113,113A113,113,0,0,0,262.06,37Zm0,208a95,95,0,1,1,95-95A95,95,0,0,1,262.06,245Z" style="fill: #fff"/>
      <g style="opacity: 0.30000000000000004">
        <path d="M357.06,150a95,95,0,0,1-186.29,26.38c1.63-2.52,3.19-4.83,3.19-4.83,10.37-15.79,32.63-36.88,71.44-9.79,16.37,11.39,30.44,15.19,41.21,12.69a31.63,31.63,0,0,0,10.08-4.5l.1-.1A38.41,38.41,0,0,0,308,158.36c5.19-8.8,8.08-18.19,9.58-23.19,5.79-19.08,12-32.47,22.15-39,0,0,.21-.1.51-.23A94.53,94.53,0,0,1,357.06,150Z" style="fill: #fff;fill-rule: evenodd"/>
      </g>
      <g>
        <path d="M231.31,107.68q17,0,26.05,6t9,18.8q0,8-3.65,12.92a24,24,0,0,1-10.52,7.79q2.29,2.83,4.8,6.49t5,7.63c1.63,2.65,3.22,5.41,4.74,8.28s2.94,5.69,4.25,8.45H252l-4.21-7.52c-1.42-2.54-2.88-5-4.38-7.41s-3-4.67-4.43-6.82-2.92-4.08-4.37-5.83h-8.4v27.58h-17V109.64a97.5,97.5,0,0,1,11.5-1.52Q226.62,107.69,231.31,107.68Zm1,14.5c-1.24,0-2.35,0-3.33.11l-2.78.21V143H231q9.59,0,13.73-2.4t4.15-8.18q0-5.55-4.2-7.9T232.29,122.18Z" style="fill: #fff"/>
        <path d="M323.19,155.42a42,42,0,0,1-1.63,12.1,27.19,27.19,0,0,1-4.8,9.38,21.66,21.66,0,0,1-7.85,6.1,25.35,25.35,0,0,1-10.79,2.18,29.48,29.48,0,0,1-6.32-.65,30.85,30.85,0,0,1-5.67-1.86v21.58H269.89V128.72c1.45-.44,3.12-.85,5-1.26s3.87-.74,5.94-1,4.17-.53,6.32-.71,4.19-.27,6.16-.27A35.38,35.38,0,0,1,306,127.57a26,26,0,0,1,9.37,6,25.68,25.68,0,0,1,5.84,9.43A36.28,36.28,0,0,1,323.19,155.42Zm-16.57.44q0-7.53-3.37-12.05t-10-4.52c-1.46,0-2.8.06-4,.16s-2.25.24-3.05.39v29.32a14.16,14.16,0,0,0,4,1.63,19,19,0,0,0,5,.66Q306.62,171.45,306.62,155.86Z" style="fill: #fff"/>
      </g>
    </g>
  </g>
</svg>
