<svg id="Layer_1" data-name="Layer 1" xmlns="http://www.w3.org/2000/svg" viewBox="0 0 900 300">
  <title>logo-iara</title>
  <g>
    <g>
      <path d="M397.31,138.93a79.68,79.68,0,0,1,9.49-2A78.56,78.56,0,0,1,419,136a30,30,0,0,1,10.81,1.69,16.41,16.41,0,0,1,6.83,4.8,18.73,18.73,0,0,1,3.58,7.37,39.13,39.13,0,0,1,1.07,9.49v28.78H426.86v-27c0-4.66-.61-8-1.84-9.89s-3.52-2.9-6.88-2.9c-1,0-2.13,0-3.3.14s-2.19.21-3.1.34v39.34H397.31Z" style="fill: #0087cc"/>
      <path d="M470.27,176.62a22.1,22.1,0,0,0,5.28-.53,9.68,9.68,0,0,0,3.34-1.46,4.9,4.9,0,0,0,1.75-2.18,7.78,7.78,0,0,0,.48-2.81,6.48,6.48,0,0,0-3.1-5.47q-3.09-2.19-10.66-4.7c-2.19-.78-4.39-1.66-6.58-2.67a24.56,24.56,0,0,1-5.92-3.77,18.14,18.14,0,0,1-4.26-5.53,17.23,17.23,0,0,1-1.65-7.89,19.47,19.47,0,0,1,1.75-8.39,17.88,17.88,0,0,1,4.94-6.34,22.34,22.34,0,0,1,7.75-4,34.7,34.7,0,0,1,10.27-1.41,41.87,41.87,0,0,1,11.73,1.45,42.47,42.47,0,0,1,8.14,3.2L489.17,136a42.38,42.38,0,0,0-6.25-2.57,27.23,27.23,0,0,0-8.29-1.11q-5.43,0-7.8,1.5a5.07,5.07,0,0,0-2.37,4.6,5.32,5.32,0,0,0,.87,3.1,8.43,8.43,0,0,0,2.47,2.28,21.77,21.77,0,0,0,3.68,1.84q2.08.83,4.6,1.7,5.24,1.94,9.11,3.82a24.4,24.4,0,0,1,6.45,4.41,16,16,0,0,1,3.82,5.91,23.8,23.8,0,0,1,1.26,8.24q0,9.4-6.59,14.58t-19.86,5.19a54.31,54.31,0,0,1-8-.54,52.31,52.31,0,0,1-6.35-1.3,37.49,37.49,0,0,1-4.75-1.65,34.78,34.78,0,0,1-3.34-1.65l4.26-12a36.71,36.71,0,0,0,18.22,4.26Z" style="fill: #0087cc"/>
      <path d="M551.38,162.67a37.27,37.27,0,0,1-1.46,10.75,24.35,24.35,0,0,1-4.26,8.34,19.32,19.32,0,0,1-7,5.42,22.53,22.53,0,0,1-9.59,1.94,25.65,25.65,0,0,1-5.62-.58,27,27,0,0,1-5-1.65v19.19H504V138.93c1.29-.39,2.78-.76,4.46-1.12s3.44-.66,5.28-.92,3.71-.47,5.62-.63,3.73-.24,5.47-.24a31.27,31.27,0,0,1,11.24,1.89,23.21,23.21,0,0,1,8.34,5.33,22.92,22.92,0,0,1,5.18,8.38A32.14,32.14,0,0,1,551.38,162.67Zm-14.73.38q0-6.68-3-10.7t-8.91-4c-1.3,0-2.49,0-3.59.14s-2,.21-2.71.34v26.07a12.6,12.6,0,0,0,3.53,1.45,17,17,0,0,0,4.42.58Q536.64,176.91,536.65,163.05Z" style="fill: #0087cc"/>
      <path d="M556.7,163.05a31.18,31.18,0,0,1,2.09-11.87,25.28,25.28,0,0,1,5.47-8.47,22.74,22.74,0,0,1,7.8-5.14,24.48,24.48,0,0,1,9.06-1.74q10.86,0,17.15,6.63t6.3,19.53c0,.84,0,1.76-.1,2.76s-.13,1.89-.19,2.67H571.53a9.58,9.58,0,0,0,4.17,7.07q3.67,2.61,9.88,2.62a42.08,42.08,0,0,0,7.8-.73,29.94,29.94,0,0,0,6.25-1.79l1.94,11.72a19.23,19.23,0,0,1-3.1,1.16,40,40,0,0,1-4.32,1c-1.58.29-3.27.53-5.08.73a52,52,0,0,1-5.43.29,32,32,0,0,1-12-2,23.22,23.22,0,0,1-8.43-5.57,22.28,22.28,0,0,1-4.94-8.38A33.39,33.39,0,0,1,556.7,163.05Zm33.92-5.52A15.35,15.35,0,0,0,590,154a9,9,0,0,0-1.65-3.1,8.65,8.65,0,0,0-2.81-2.23,9.19,9.19,0,0,0-4.22-.88,9.65,9.65,0,0,0-4.16.83,8.64,8.64,0,0,0-2.91,2.18,9.75,9.75,0,0,0-1.79,3.15,20.12,20.12,0,0,0-.92,3.63Z" style="fill: #0087cc"/>
      <path d="M609.9,163.05A31.19,31.19,0,0,1,612,151.18a25.46,25.46,0,0,1,5.48-8.47,22.74,22.74,0,0,1,7.8-5.14,24.48,24.48,0,0,1,9.06-1.74q10.84,0,17.15,6.63t6.3,19.53c0,.84,0,1.76-.1,2.76s-.13,1.89-.19,2.67H624.73a9.6,9.6,0,0,0,4.16,7.07q3.69,2.61,9.89,2.62a42.24,42.24,0,0,0,7.8-.73,29.94,29.94,0,0,0,6.25-1.79l1.93,11.72a18.52,18.52,0,0,1-3.1,1.16,39.8,39.8,0,0,1-4.31,1c-1.58.29-3.28.53-5.09.73a51.65,51.65,0,0,1-5.42.29,32,32,0,0,1-12-2,23.22,23.22,0,0,1-8.43-5.57,22,22,0,0,1-4.94-8.38A33.1,33.1,0,0,1,609.9,163.05Zm33.91-5.52a14.84,14.84,0,0,0-.62-3.58,9,9,0,0,0-1.65-3.1,8.76,8.76,0,0,0-2.81-2.23,9.19,9.19,0,0,0-4.22-.88,9.65,9.65,0,0,0-4.16.83,8.44,8.44,0,0,0-2.91,2.18,9.57,9.57,0,0,0-1.79,3.15,19.32,19.32,0,0,0-.92,3.63Z" style="fill: #0087cc"/>
      <path d="M663.1,162.67a30.14,30.14,0,0,1,1.79-10.42A24.31,24.31,0,0,1,678.31,138a27.19,27.19,0,0,1,11.05-2.13,34.22,34.22,0,0,1,14,2.81l-3,11.53a36,36,0,0,0-4.45-1.36,23.25,23.25,0,0,0-5.43-.58c-4.26,0-7.45,1.32-9.54,4s-3.15,6.14-3.15,10.47q0,6.87,2.95,10.66t10.32,3.78a34.56,34.56,0,0,0,5.62-.49,24,24,0,0,0,5.53-1.55l2,11.82a34.19,34.19,0,0,1-6.3,1.84,41.31,41.31,0,0,1-8.33.78,31.57,31.57,0,0,1-12-2.08,22.59,22.59,0,0,1-8.28-5.67,22,22,0,0,1-4.75-8.48A36,36,0,0,1,663.1,162.67Z" style="fill: #0087cc"/>
      <path d="M710.58,188.15V115.28L725,113v24.42a28.58,28.58,0,0,1,3.73-.92,23.46,23.46,0,0,1,4.41-.44,27.5,27.5,0,0,1,10.32,1.69,16.24,16.24,0,0,1,6.59,4.8,18.58,18.58,0,0,1,3.48,7.37,40.79,40.79,0,0,1,1,9.49v28.78H740.13v-27c0-4.66-.59-8-1.79-9.89s-3.41-2.9-6.64-2.9a18.2,18.2,0,0,0-3.63.34c-1.13.22-2.15.46-3.05.72v38.76Z" style="fill: #0087cc"/>
    </g>
    <g>
      <path d="M255.52,266a113,113,0,1,0-113-113A113,113,0,0,0,255.52,266Z" style="fill: #029adc"/>
      <g style="opacity: 0.5">
        <path d="M255.52,248a95,95,0,1,0-95-95A95,95,0,0,0,255.52,248Z"/>
      </g>
      <g style="opacity: 0.400000005960465">
        <path d="M350.52,153a95,95,0,0,1-186.29,26.38c1.63-2.52,3.19-4.83,3.19-4.83,10.37-15.79,32.63-36.88,71.44-9.79,16.37,11.39,30.44,15.19,41.21,12.69a31.63,31.63,0,0,0,10.08-4.5l.1-.1a38.52,38.52,0,0,0,11.18-11.49c5.19-8.8,8.08-18.19,9.58-23.19,5.78-19.08,12-32.47,22.15-39,0,0,.21-.1.51-.23A94.53,94.53,0,0,1,350.52,153Z" style="fill-rule: evenodd"/>
      </g>
      <g>
        <path d="M186.87,131.72a90.52,90.52,0,0,1,10.68-2.24,87.87,87.87,0,0,1,13.74-1,33.23,33.23,0,0,1,12.15,1.91,18.32,18.32,0,0,1,7.69,5.39,21.06,21.06,0,0,1,4,8.29,44,44,0,0,1,1.2,10.68v32.37H220.12V156.68q0-7.85-2.07-11.12t-7.74-3.27c-1.17,0-2.4.06-3.71.16s-2.47.24-3.49.39v44.25H186.87Z" style="fill: #55cff9"/>
        <path d="M266.22,174.12a24.48,24.48,0,0,0,5.94-.6,10.67,10.67,0,0,0,3.76-1.64,5.47,5.47,0,0,0,2-2.45,8.8,8.8,0,0,0,.54-3.16,7.3,7.3,0,0,0-3.49-6.16q-3.48-2.45-12-5.28c-2.47-.88-4.94-1.87-7.41-3a27.34,27.34,0,0,1-6.65-4.25,20.26,20.26,0,0,1-4.79-6.22,19.36,19.36,0,0,1-1.86-8.88,22,22,0,0,1,2-9.43,20.24,20.24,0,0,1,5.55-7.14,25.47,25.47,0,0,1,8.72-4.52A39.31,39.31,0,0,1,270,109.81,46,46,0,0,1,292.38,115l-4.9,13.41a47,47,0,0,0-7-2.89,30.34,30.34,0,0,0-9.32-1.25q-6.11,0-8.78,1.69a5.69,5.69,0,0,0-2.67,5.17,6,6,0,0,0,1,3.49,9.49,9.49,0,0,0,2.78,2.56,23.27,23.27,0,0,0,4.15,2.07q2.34.93,5.17,1.91,5.89,2.19,10.25,4.31a27.21,27.21,0,0,1,7.25,5,17.92,17.92,0,0,1,4.3,6.65,26.55,26.55,0,0,1,1.42,9.26q0,10.58-7.41,16.4t-22.35,5.84a61.7,61.7,0,0,1-9-.6,56.69,56.69,0,0,1-7.14-1.48,39.47,39.47,0,0,1-5.34-1.85,39,39,0,0,1-3.76-1.85l4.79-13.52a42.25,42.25,0,0,0,8.34,3.33A43.31,43.31,0,0,0,266.22,174.12Z" style="fill: #55cff9"/>
        <path d="M305.28,137.16l11.32-1.83v11.78h13.61v9.43H316.6V170.6a11.15,11.15,0,0,0,1.26,5.7c.83,1.42,2.52,2.13,5.05,2.13a21.4,21.4,0,0,0,3.76-.35,18.64,18.64,0,0,0,3.54-1L331.8,186a30.62,30.62,0,0,1-4.56,1.44,26.25,26.25,0,0,1-6.15.61,20.43,20.43,0,0,1-7.68-1.25,12,12,0,0,1-4.86-3.5,12.9,12.9,0,0,1-2.55-5.43,32.22,32.22,0,0,1-.72-7.07Z" style="fill: #55cff9"/>
      </g>
    </g>
  </g>
</svg>
