<svg id="Layer_1" data-name="Layer 1" xmlns="http://www.w3.org/2000/svg" viewBox="0 0 900 300">
  <title>logo-nagenda-white</title>
  <g>
    <g>
      <path d="M379.05,135.93a82,82,0,0,1,9.5-2,78.38,78.38,0,0,1,12.21-.92,29.73,29.73,0,0,1,10.8,1.7,16.24,16.24,0,0,1,6.83,4.79,18.74,18.74,0,0,1,3.59,7.37,39.15,39.15,0,0,1,1.06,9.49v28.78H408.61v-27q0-7-1.85-9.89c-1.22-1.94-3.52-2.9-6.88-2.9-1,0-2.13,0-3.29.14s-2.2.21-3.1.34v39.34H379.05Z" style="fill: #fff"/>
      <path d="M478.75,185.15q-1.12-3.5-2.41-7.19c-.86-2.46-1.71-4.91-2.57-7.34H447.55L445,178q-1.29,3.71-2.38,7.17h-15.7q3.79-10.85,7.19-20.06t6.66-17.34q3.25-8.15,6.41-15.46T453.75,118h14.32q3.31,7,6.53,14.29t6.47,15.46q3.27,8.15,6.67,17.34t7.2,20.06Zm-18.16-51.94c-.34,1-.83,2.31-1.48,4s-1.39,3.62-2.22,5.82-1.76,4.62-2.78,7.27S452,155.7,451,158.6h19.2c-1-2.91-2-5.69-3-8.35s-1.88-5.08-2.74-7.28-1.63-4.13-2.28-5.81S461,134.17,460.59,133.21Z" style="fill: #fff"/>
      <path d="M542.13,178.76q0,12.5-6.34,18.55t-19.62,6.06a54.14,54.14,0,0,1-9.31-.82,58.64,58.64,0,0,1-8.62-2.18l2.52-12.12a41.07,41.07,0,0,0,7.12,2.13,41.65,41.65,0,0,0,8.48.78c4.13,0,7.06-.91,8.77-2.71a9.76,9.76,0,0,0,2.57-7v-1.84a23.53,23.53,0,0,1-4.8,1.6,25.9,25.9,0,0,1-5.38.53q-10.56,0-16.18-6.25T495.72,158a28.69,28.69,0,0,1,1.74-10.22,21.86,21.86,0,0,1,5.09-7.9,22.75,22.75,0,0,1,8.19-5.09,31.51,31.51,0,0,1,11-1.79c1.74,0,3.53.08,5.38.24s3.66.37,5.47.63,3.54.57,5.18.92,3.12.73,4.41,1.12ZM510.45,158q0,12.12,9.78,12.11a14.35,14.35,0,0,0,4.17-.58,16.6,16.6,0,0,0,3.3-1.35V145.13c-.72-.13-1.55-.24-2.52-.34s-2.1-.14-3.39-.14q-5.73,0-8.53,3.78A15.58,15.58,0,0,0,510.45,158Z" style="fill: #fff"/>
      <path d="M549.88,160.06A31.2,31.2,0,0,1,552,148.18a25.44,25.44,0,0,1,5.47-8.47,22.74,22.74,0,0,1,7.8-5.14,24.48,24.48,0,0,1,9.06-1.74q10.86,0,17.16,6.63T597.75,159q0,1.26-.09,2.76c-.07,1-.13,1.89-.2,2.67H564.71a9.56,9.56,0,0,0,4.17,7.07q3.68,2.61,9.88,2.62a42.08,42.08,0,0,0,7.8-.73,29.76,29.76,0,0,0,6.25-1.79l1.94,11.72a19.23,19.23,0,0,1-3.1,1.16,39.8,39.8,0,0,1-4.31,1c-1.59.29-3.28.53-5.09.73a52,52,0,0,1-5.43.29,32,32,0,0,1-12-2,23,23,0,0,1-8.43-5.57,22.18,22.18,0,0,1-4.95-8.38A33.37,33.37,0,0,1,549.88,160.06Zm33.92-5.53a15.45,15.45,0,0,0-.63-3.58,9,9,0,0,0-1.65-3.1,8.65,8.65,0,0,0-2.81-2.23,9.15,9.15,0,0,0-4.21-.87,9.66,9.66,0,0,0-4.17.82,8.64,8.64,0,0,0-2.91,2.18,9.75,9.75,0,0,0-1.79,3.15,20.34,20.34,0,0,0-.92,3.63Z" style="fill: #fff"/>
      <path d="M605.51,135.93a81.72,81.72,0,0,1,9.49-2,78.56,78.56,0,0,1,12.21-.92,29.79,29.79,0,0,1,10.81,1.7,16.3,16.3,0,0,1,6.83,4.79,18.73,18.73,0,0,1,3.58,7.37,39.13,39.13,0,0,1,1.07,9.49v28.78H635.06v-27q0-7-1.84-9.89c-1.23-1.94-3.52-2.9-6.88-2.9-1,0-2.13,0-3.3.14s-2.19.21-3.1.34v39.34H605.51Z" style="fill: #fff"/>
      <path d="M704.15,183.5c-1.3.39-2.78.76-4.46,1.12s-3.44.66-5.28.92-3.72.47-5.62.63-3.73.24-5.48.24a32,32,0,0,1-11.24-1.84A22.07,22.07,0,0,1,658.56,171a31.69,31.69,0,0,1-1.8-11,37.74,37.74,0,0,1,1.55-11.19,24.36,24.36,0,0,1,4.46-8.48,19.07,19.07,0,0,1,7.12-5.33,23.87,23.87,0,0,1,9.65-1.84,22.49,22.49,0,0,1,5.37.58,29.37,29.37,0,0,1,4.8,1.65V112.28L704.15,110Zm-32.66-24.22q0,6.69,3,10.76t8.91,4.07c1.29,0,2.49-.05,3.59-.15s2-.21,2.71-.34V147.36a12.38,12.38,0,0,0-3.54-1.45,16.9,16.9,0,0,0-4.41-.58Q671.5,145.33,671.49,159.28Z" style="fill: #fff"/>
      <path d="M732.64,132.83a33.36,33.36,0,0,1,10.65,1.45,16.59,16.59,0,0,1,6.84,4.17,15.3,15.3,0,0,1,3.63,6.59,32.5,32.5,0,0,1,1.07,8.62v30q-3.11.68-8.63,1.6a83.28,83.28,0,0,1-13.37.92,42.49,42.49,0,0,1-9-.87,19.72,19.72,0,0,1-6.93-2.86,13,13,0,0,1-4.46-5.19,17.92,17.92,0,0,1-1.55-7.85,14.88,14.88,0,0,1,1.79-7.55,13.89,13.89,0,0,1,4.8-5,21.88,21.88,0,0,1,6.88-2.66,38.47,38.47,0,0,1,8-.82,46,46,0,0,1,5,.24,21.89,21.89,0,0,1,3.54.63V153a8,8,0,0,0-2.23-5.91q-2.24-2.23-7.75-2.23a48.71,48.71,0,0,0-7.27.54,30.47,30.47,0,0,0-6.2,1.5l-1.84-11.63c.84-.26,1.89-.53,3.15-.83s2.63-.54,4.12-.77,3-.42,4.7-.58S731,132.83,732.64,132.83Zm1.16,42.25c1.42,0,2.78,0,4.07-.1a29.71,29.71,0,0,0,3.1-.29V163.74a26.21,26.21,0,0,0-2.62-.39,28.83,28.83,0,0,0-7,.05,10,10,0,0,0-3.15.92,5.26,5.26,0,0,0-2.13,1.84,5.11,5.11,0,0,0-.78,2.91c0,2.26.76,3.82,2.28,4.7A12.61,12.61,0,0,0,733.8,175.08Z" style="fill: #fff"/>
    </g>
    <g>
      <path d="M237.27,37a113,113,0,1,0,113,113A113,113,0,0,0,237.27,37Zm0,208a95,95,0,1,1,95-95A95,95,0,0,1,237.27,245Z" style="fill: #fff"/>
      <g style="opacity: 0.3">
        <path d="M332.27,150A95,95,0,0,1,146,176.38c1.63-2.52,3.18-4.83,3.18-4.83,10.38-15.79,32.63-36.88,71.45-9.79C237,173.15,251,177,261.82,174.45A31.83,31.83,0,0,0,271.9,170l.1-.1a38.38,38.38,0,0,0,11.17-11.49c5.19-8.8,8.09-18.19,9.58-23.19,5.79-19.08,12-32.47,22.15-39a5.38,5.38,0,0,1,.52-.23A94.61,94.61,0,0,1,332.27,150Z" style="fill: #fff;fill-rule: evenodd"/>
      </g>
      <g>
        <path d="M181.17,128.72a90.08,90.08,0,0,1,10.68-2.24,87.84,87.84,0,0,1,13.73-1,33.33,33.33,0,0,1,12.16,1.91,18.29,18.29,0,0,1,7.68,5.39,21.07,21.07,0,0,1,4,8.29,44.47,44.47,0,0,1,1.19,10.68v32.37H214.41V153.68q0-7.85-2.07-11.12t-7.74-3.27c-1.16,0-2.39.06-3.7.16s-2.47.24-3.49.39v44.25H181.17Z" style="fill: #fff"/>
        <path d="M286.23,184.09c-.84-2.63-1.74-5.32-2.71-8.09s-1.93-5.52-2.89-8.26h-29.5q-1.42,4.14-2.87,8.29t-2.67,8.06H227.93q4.26-12.21,8.09-22.56T243.51,142q3.66-9.17,7.21-17.39t7.38-16.08h16.12q3.72,7.86,7.34,16.08T288.84,142q3.68,9.15,7.5,19.51t8.11,22.56Zm-20.42-58.42c-.38,1.09-.94,2.59-1.67,4.47s-1.56,4.07-2.5,6.55-2,5.2-3.13,8.17-2.32,6.1-3.51,9.36h21.6q-1.74-4.91-3.36-9.39t-3.09-8.19c-1-2.47-1.83-4.65-2.56-6.54S266.26,126.74,265.81,125.67Z" style="fill: #fff"/>
      </g>
    </g>
  </g>
</svg>
