<svg id="Layer_1" data-name="Layer 1" xmlns="http://www.w3.org/2000/svg" viewBox="0 0 900 300">
  <title>logo-iara-white</title>
  <g>
    <g>
      <path d="M461,118h15.11v67.15H461Z" style="fill: #fff"/>
      <path d="M533.31,185.15c-.74-2.33-1.55-4.73-2.41-7.19s-1.71-4.91-2.57-7.34H502.11L499.56,178c-.85,2.47-1.65,4.86-2.38,7.17h-15.7q3.79-10.85,7.19-20.06t6.66-17.34q3.26-8.15,6.41-15.46T508.31,118h14.33q3.3,7,6.52,14.29t6.47,15.46q3.27,8.15,6.67,17.34t7.2,20.06Zm-18.16-51.94c-.33,1-.83,2.31-1.48,4s-1.39,3.62-2.22,5.82-1.75,4.62-2.78,7.27-2.07,5.42-3.12,8.32h19.2c-1-2.91-2-5.69-3-8.35s-1.88-5.08-2.74-7.28-1.63-4.13-2.28-5.81S515.55,134.17,515.15,133.21Z" style="fill: #fff"/>
      <path d="M574.41,117.22q15.11,0,23.16,5.38t8,16.72q0,7.08-3.25,11.48a21.36,21.36,0,0,1-9.35,6.93q2,2.52,4.26,5.76t4.41,6.79c1.46,2.36,2.86,4.81,4.22,7.36s2.61,5.06,3.78,7.51h-16.9L589,178.46c-1.26-2.25-2.56-4.45-3.89-6.58s-2.64-4.15-3.94-6.06a64.09,64.09,0,0,0-3.89-5.18h-7.46v24.51H554.74V119A85,85,0,0,1,565,117.61C568.48,117.36,571.63,117.22,574.41,117.22Zm.87,12.89c-1.1,0-2.09,0-3,.1l-2.47.19v18.22h4.27q8.52,0,12.21-2.13t3.68-7.27c0-3.29-1.25-5.63-3.73-7S580.12,130.11,575.28,130.11Z" style="fill: #fff"/>
      <path d="M664,185.15q-1.12-3.5-2.41-7.19l-2.57-7.34H632.82c-.84,2.45-1.7,4.9-2.55,7.36s-1.64,4.86-2.38,7.17H612.2q3.78-10.85,7.19-20.06T626,147.75q3.27-8.15,6.42-15.46T639,118h14.33q3.31,7,6.52,14.29t6.48,15.46q3.25,8.15,6.67,17.34t7.2,20.06Zm-18.16-51.94c-.34,1-.83,2.31-1.48,4s-1.39,3.62-2.22,5.82-1.76,4.62-2.78,7.27-2.07,5.42-3.13,8.32h19.2c-1-2.91-2-5.69-3-8.35s-1.88-5.08-2.75-7.28l-2.28-5.81C646.8,135.48,646.27,134.17,645.87,133.21Z" style="fill: #fff"/>
    </g>
    <g>
      <circle cx="240.44" cy="34.66" r="20.66" style="fill: #fff"/>
      <path d="M261.09,161.82a56.81,56.81,0,0,1,113.61,0v60.5C374.7,258,416,258,416,258V161.82a98.12,98.12,0,1,0-196.23,0Z" style="fill: #fff;fill-rule: evenodd;opacity: 0.5"/>
      <g>
        <path d="M416,159.88c0,.31,0,.61,0,.92,0-.31,0-.61,0-.92Z" style="fill: #fff;fill-rule: evenodd"/>
        <path d="M374.7,222.32v-60.5c0-.25,0-.49,0-.74a56.81,56.81,0,0,1-113.6-1.2V99.39c0-35.69-41.31-35.69-41.31-35.69v96.18a98.12,98.12,0,0,0,158.08,77.67A35.2,35.2,0,0,1,374.7,222.32Z" style="fill: #fff;fill-rule: evenodd"/>
      </g>
    </g>
  </g>
</svg>
