<svg id="Layer_1" data-name="Layer 1" xmlns="http://www.w3.org/2000/svg" viewBox="0 0 900 300">
  <title>logo-ndoctor</title>
  <g>
    <g>
      <path d="M403.17,135.93a79.68,79.68,0,0,1,9.49-2,78.56,78.56,0,0,1,12.21-.92,30,30,0,0,1,10.81,1.69,16.41,16.41,0,0,1,6.83,4.8,18.73,18.73,0,0,1,3.58,7.37,39.13,39.13,0,0,1,1.07,9.49v28.78H432.72v-27c0-4.66-.61-8-1.84-9.89s-3.52-2.9-6.88-2.9c-1,0-2.13,0-3.29.14s-2.2.21-3.1.34v39.34H403.17Z" style="fill: #0087cc"/>
      <path d="M516.64,151.53a39.23,39.23,0,0,1-2.72,15.21,28.21,28.21,0,0,1-7.7,10.76,32.89,32.89,0,0,1-12.16,6.39A56.42,56.42,0,0,1,478,186c-2.71,0-5.88-.11-9.49-.33a78.28,78.28,0,0,1-10.66-1.41V118.87a91,91,0,0,1,10.9-1.31c3.78-.22,7-.34,9.74-.34a58.93,58.93,0,0,1,15.65,1.94,32.12,32.12,0,0,1,12.06,6.11,27.14,27.14,0,0,1,7.75,10.66A40.36,40.36,0,0,1,516.64,151.53Zm-43.71,21.32c.71.06,1.54.11,2.48.14s2,0,3.34,0q11.34,0,16.81-5.72T501,151.53q0-10.56-5.24-16t-16.57-5.43c-1,0-2.1,0-3.2,0s-2.13.12-3.1.24Z" style="fill: #0087cc"/>
      <path d="M572.55,159.57a33,33,0,0,1-1.75,11,23.81,23.81,0,0,1-5,8.53,22.6,22.6,0,0,1-7.89,5.47,28.18,28.18,0,0,1-20.55,0,22.6,22.6,0,0,1-7.89-5.47,25.06,25.06,0,0,1-5.14-8.53,31.5,31.5,0,0,1-1.84-11,30.47,30.47,0,0,1,1.89-10.95,24.9,24.9,0,0,1,5.23-8.43,23.72,23.72,0,0,1,7.95-5.43,27.26,27.26,0,0,1,20.15,0,23.22,23.22,0,0,1,7.9,5.43,24.71,24.71,0,0,1,5.14,8.43A31.37,31.37,0,0,1,572.55,159.57Zm-14.73,0q0-6.69-2.67-10.51a8.71,8.71,0,0,0-7.6-3.83,8.85,8.85,0,0,0-7.66,3.83q-2.71,3.83-2.71,10.51t2.71,10.61a8.77,8.77,0,0,0,7.66,3.93,8.63,8.63,0,0,0,7.6-3.93Q557.82,166.25,557.82,159.57Z" style="fill: #0087cc"/>
      <path d="M577.88,159.67a29.91,29.91,0,0,1,1.79-10.42A24.31,24.31,0,0,1,593.09,135a27.19,27.19,0,0,1,11-2.13,36,36,0,0,1,7.46.72,36.57,36.57,0,0,1,6.59,2.09l-3,11.53a36,36,0,0,0-4.45-1.36,23.25,23.25,0,0,0-5.43-.58q-6.39,0-9.55,4t-3.15,10.47q0,6.87,3,10.66t10.32,3.78a34.65,34.65,0,0,0,5.62-.49,23.79,23.79,0,0,0,5.52-1.55l2,11.82a34.19,34.19,0,0,1-6.3,1.84,41.31,41.31,0,0,1-8.33.78,31.57,31.57,0,0,1-12-2.08,22.59,22.59,0,0,1-8.28-5.67,22,22,0,0,1-4.75-8.48A36,36,0,0,1,577.88,159.67Z" style="fill: #0087cc"/>
      <path d="M624.87,121.49l14.44-2.33v15h17.35v12H639.31v17.92a14.22,14.22,0,0,0,1.6,7.27c1.07,1.81,3.21,2.72,6.44,2.72a27.73,27.73,0,0,0,4.8-.44,24.47,24.47,0,0,0,4.51-1.21l2,11.24a41.42,41.42,0,0,1-5.81,1.84,33.74,33.74,0,0,1-7.85.77,25.76,25.76,0,0,1-9.79-1.6,15.36,15.36,0,0,1-6.2-4.45,16.73,16.73,0,0,1-3.25-6.93,41.12,41.12,0,0,1-.92-9Z" style="fill: #0087cc"/>
      <path d="M710.73,159.57a33,33,0,0,1-1.75,11,23.81,23.81,0,0,1-5,8.53,22.6,22.6,0,0,1-7.89,5.47,28.18,28.18,0,0,1-20.55,0,22.6,22.6,0,0,1-7.89-5.47,25.06,25.06,0,0,1-5.14-8.53,31.5,31.5,0,0,1-1.84-11,30.47,30.47,0,0,1,1.89-10.95,24.9,24.9,0,0,1,5.23-8.43,23.72,23.72,0,0,1,8-5.43,27.26,27.26,0,0,1,20.15,0,23.22,23.22,0,0,1,7.9,5.43,24.71,24.71,0,0,1,5.14,8.43A31.37,31.37,0,0,1,710.73,159.57Zm-14.73,0q0-6.69-2.67-10.51a8.71,8.71,0,0,0-7.6-3.83,8.85,8.85,0,0,0-7.66,3.83q-2.72,3.83-2.71,10.51t2.71,10.61a8.77,8.77,0,0,0,7.66,3.93,8.63,8.63,0,0,0,7.6-3.93Q696,166.25,696,159.57Z" style="fill: #0087cc"/>
      <path d="M749.2,147c-1.3-.32-2.81-.66-4.56-1a27.77,27.77,0,0,0-5.62-.54,24.54,24.54,0,0,0-3.24.25,18.1,18.1,0,0,0-2.86.53v39H718.48V136.9a85.14,85.14,0,0,1,9.16-2.57,52.57,52.57,0,0,1,11.77-1.21c.77,0,1.71,0,2.81.14s2.19.23,3.29.39,2.2.36,3.3.58a16.17,16.17,0,0,1,2.81.82Z" style="fill: #0087cc"/>
    </g>
    <g>
      <path d="M261.38,263a113,113,0,1,0-113-113A113,113,0,0,0,261.38,263Z" style="fill: #029adc"/>
      <g style="opacity: 0.5">
        <path d="M261.38,245a95,95,0,1,0-95-95A95,95,0,0,0,261.38,245Z"/>
      </g>
      <g style="opacity: 0.400000005960465">
        <path d="M356.38,150a95,95,0,0,1-186.29,26.38c1.64-2.52,3.19-4.83,3.19-4.83,10.38-15.79,32.63-36.88,71.44-9.79,16.37,11.39,30.44,15.19,41.22,12.69A31.68,31.68,0,0,0,296,170l.1-.1a38.41,38.41,0,0,0,11.18-11.49c5.19-8.8,8.08-18.19,9.58-23.19,5.79-19.08,12-32.47,22.15-39,0,0,.21-.1.51-.23A94.53,94.53,0,0,1,356.38,150Z" style="fill-rule: evenodd"/>
      </g>
      <g>
        <path d="M204.41,128.72a90.08,90.08,0,0,1,10.68-2.24,87.87,87.87,0,0,1,13.74-1A33.23,33.23,0,0,1,241,127.36a18.32,18.32,0,0,1,7.69,5.39,21.19,21.19,0,0,1,4,8.29,44,44,0,0,1,1.2,10.68v32.37H237.66V153.68q0-7.85-2.07-11.12c-1.38-2.18-4-3.27-7.74-3.27-1.17,0-2.4.06-3.71.16s-2.47.24-3.49.39v44.25H204.41Z" style="fill: #55cff9"/>
        <path d="M325,146.27a44,44,0,0,1-3,17.11,31.67,31.67,0,0,1-8.66,12.1,36.83,36.83,0,0,1-13.68,7.19,63.4,63.4,0,0,1-18.1,2.4q-4.58,0-10.68-.38a88.16,88.16,0,0,1-12-1.58V109.53a102.78,102.78,0,0,1,12.26-1.47q6.39-.37,11-.38a66.26,66.26,0,0,1,17.6,2.18,36,36,0,0,1,13.57,6.87,30.42,30.42,0,0,1,8.72,12A45.34,45.34,0,0,1,325,146.27Zm-49.15,24c.8.07,1.72.13,2.78.16s2.3.05,3.76.05q12.75,0,18.91-6.43t6.16-17.76q0-11.88-5.89-18t-18.64-6.1c-1.16,0-2.36,0-3.6,0s-2.39.13-3.48.27Z" style="fill: #55cff9"/>
      </g>
    </g>
  </g>
</svg>
