<svg id="Layer_1" data-name="Layer 1" xmlns="http://www.w3.org/2000/svg" viewBox="0 0 900 300">
  <title>logo-ndoctor copy</title>
  <g>
    <text transform="translate(396.38 185.15)" style="font-size: 96.89977264404297px;fill: #fff;font-family: Ubuntu-Bold, Ubuntu;font-weight: 700;letter-spacing: -0.034996091205570776em">nDoc<tspan x="222.19" y="0" style="letter-spacing: -0.054996017194758745em">t</tspan><tspan x="259.88" y="0" style="letter-spacing: -0.0349910521715599em">or</tspan></text>
    <g>
      <path d="M261.38,37a113,113,0,1,0,113,113A113,113,0,0,0,261.38,37Zm0,208a95,95,0,1,1,95-95A95,95,0,0,1,261.38,245Z" style="fill: #fff"/>
      <g style="opacity: 0.3">
        <path d="M356.38,150a95,95,0,0,1-186.29,26.38c1.64-2.52,3.19-4.83,3.19-4.83,10.38-15.79,32.63-36.88,71.44-9.79,16.37,11.39,30.44,15.19,41.22,12.69A31.68,31.68,0,0,0,296,170l.1-.1a38.41,38.41,0,0,0,11.18-11.49c5.19-8.8,8.08-18.19,9.58-23.19,5.79-19.08,12-32.47,22.15-39,0,0,.21-.1.51-.23A94.53,94.53,0,0,1,356.38,150Z" style="fill: #fff;fill-rule: evenodd"/>
      </g>
      <text transform="translate(201.63 184.09)" style="font-size: 109px;fill: #fff;font-family: Ubuntu-Bold, Ubuntu;font-weight: 700;letter-spacing: -0.09999910407110092em">Dc</text>
    </g>
  </g>
</svg>
