<svg id="Layer_1" data-name="Layer 1" xmlns="http://www.w3.org/2000/svg" viewBox="0 0 900 300">
  <title>logo-nsensor</title>
  <g>
    <g>
      <path d="M404.53,135.93a81.72,81.72,0,0,1,9.49-2,78.56,78.56,0,0,1,12.21-.92,29.79,29.79,0,0,1,10.81,1.7,16.3,16.3,0,0,1,6.83,4.79,18.73,18.73,0,0,1,3.58,7.37,39.13,39.13,0,0,1,1.07,9.49v28.78H434.08v-27q0-7-1.84-9.89c-1.23-1.94-3.52-2.9-6.88-2.9-1,0-2.13,0-3.3.14s-2.19.21-3.1.34v39.34H404.53Z" style="fill: #0087cc"/>
      <path d="M477.49,173.62a22.1,22.1,0,0,0,5.28-.53,9.83,9.83,0,0,0,3.35-1.46,4.88,4.88,0,0,0,1.74-2.18,7.78,7.78,0,0,0,.48-2.81,6.48,6.48,0,0,0-3.1-5.47q-3.11-2.17-10.66-4.7c-2.19-.78-4.39-1.66-6.59-2.66a25,25,0,0,1-5.91-3.78,18.14,18.14,0,0,1-4.26-5.53,17.23,17.23,0,0,1-1.65-7.89,19.47,19.47,0,0,1,1.75-8.39,17.88,17.88,0,0,1,4.94-6.34,22.34,22.34,0,0,1,7.75-4,34.7,34.7,0,0,1,10.27-1.41,41,41,0,0,1,19.87,4.65L496.39,133a42.38,42.38,0,0,0-6.25-2.57,27.23,27.23,0,0,0-8.29-1.11q-5.43,0-7.8,1.5a5.07,5.07,0,0,0-2.37,4.6,5.32,5.32,0,0,0,.87,3.1,8.43,8.43,0,0,0,2.47,2.28,21.77,21.77,0,0,0,3.68,1.84q2.08.83,4.6,1.7,5.24,1.94,9.11,3.82a24.64,24.64,0,0,1,6.45,4.41,16,16,0,0,1,3.82,5.91,23.8,23.8,0,0,1,1.26,8.24q0,9.4-6.58,14.59t-19.87,5.18a55.79,55.79,0,0,1-8-.53,54.17,54.17,0,0,1-6.35-1.31,37.49,37.49,0,0,1-4.75-1.65,34.78,34.78,0,0,1-3.34-1.65l4.26-12a36.71,36.71,0,0,0,18.22,4.26Z" style="fill: #0087cc"/>
      <path d="M508.79,160.06a31.2,31.2,0,0,1,2.08-11.88,25.3,25.3,0,0,1,5.48-8.47,22.74,22.74,0,0,1,7.8-5.14,24.44,24.44,0,0,1,9.06-1.74q10.85,0,17.15,6.63t6.3,19.53c0,.84,0,1.76-.1,2.76s-.13,1.89-.19,2.67H523.61a9.59,9.59,0,0,0,4.17,7.07q3.68,2.61,9.88,2.62a42.08,42.08,0,0,0,7.8-.73,29.76,29.76,0,0,0,6.25-1.79l1.94,11.72a18.87,18.87,0,0,1-3.1,1.16,39.8,39.8,0,0,1-4.31,1c-1.58.29-3.28.53-5.09.73a51.94,51.94,0,0,1-5.42.29,32,32,0,0,1-12-2,23.22,23.22,0,0,1-8.43-5.57,22,22,0,0,1-4.94-8.38A33.08,33.08,0,0,1,508.79,160.06Zm33.91-5.53a14.46,14.46,0,0,0-.63-3.58,8.73,8.73,0,0,0-4.45-5.33,9.22,9.22,0,0,0-4.22-.87,9.69,9.69,0,0,0-4.17.82,8.5,8.5,0,0,0-2.9,2.18,9.59,9.59,0,0,0-1.8,3.15,21.23,21.23,0,0,0-.92,3.63Z" style="fill: #0087cc"/>
      <path d="M564.41,135.93a81.72,81.72,0,0,1,9.49-2,78.56,78.56,0,0,1,12.21-.92,29.79,29.79,0,0,1,10.81,1.7,16.3,16.3,0,0,1,6.83,4.79,18.73,18.73,0,0,1,3.58,7.37,39.13,39.13,0,0,1,1.07,9.49v28.78H594v-27q0-7-1.84-9.89c-1.23-1.94-3.52-2.9-6.88-2.9-1,0-2.13,0-3.29.14s-2.2.21-3.1.34v39.34H564.41Z" style="fill: #0087cc"/>
      <path d="M632.72,174.78a14.37,14.37,0,0,0,5.62-.77,3,3,0,0,0,1.65-3c0-1.16-.71-2.17-2.13-3.05a41.14,41.14,0,0,0-6.49-2.95,64.12,64.12,0,0,1-6.16-2.62,18,18,0,0,1-4.7-3.25,13.06,13.06,0,0,1-3-4.5,16.7,16.7,0,0,1-1.07-6.3A13.64,13.64,0,0,1,621.77,137q5.33-4.16,14.63-4.16a47,47,0,0,1,8.92.82,42.26,42.26,0,0,1,6.78,1.79l-2.52,11.24a52.76,52.76,0,0,0-5.47-1.55,29.93,29.93,0,0,0-6.64-.68q-6.78,0-6.78,3.78a3.79,3.79,0,0,0,.29,1.55,3.23,3.23,0,0,0,1.16,1.31,16.53,16.53,0,0,0,2.37,1.37c1,.48,2.28,1,3.83,1.61a59.86,59.86,0,0,1,7.85,3.46,18.61,18.61,0,0,1,4.89,3.7,11.22,11.22,0,0,1,2.52,4.4,19.3,19.3,0,0,1,.73,5.6q0,7.54-5.67,11.41t-16,3.87a46.27,46.27,0,0,1-11.28-1.16,45.5,45.5,0,0,1-6.25-1.94l2.42-11.73a47,47,0,0,0,7.56,2.28A36.6,36.6,0,0,0,632.72,174.78Z" style="fill: #0087cc"/>
      <path d="M709.37,159.57a33,33,0,0,1-1.75,11,23.93,23.93,0,0,1-5,8.53,22.64,22.64,0,0,1-7.9,5.47,26.4,26.4,0,0,1-10.32,1.94,26.07,26.07,0,0,1-10.22-1.94,22.55,22.55,0,0,1-7.9-5.47,25.06,25.06,0,0,1-5.14-8.53,31.5,31.5,0,0,1-1.84-11,30.47,30.47,0,0,1,1.89-10.95,25.05,25.05,0,0,1,5.23-8.43,23.72,23.72,0,0,1,8-5.43,25.62,25.62,0,0,1,10-1.93,25.9,25.9,0,0,1,10.13,1.93,23.18,23.18,0,0,1,7.89,5.43,24.71,24.71,0,0,1,5.14,8.43A31.37,31.37,0,0,1,709.37,159.57Zm-14.73,0q0-6.69-2.66-10.51a8.73,8.73,0,0,0-7.61-3.83,8.85,8.85,0,0,0-7.66,3.83Q674,152.89,674,159.57t2.71,10.61a8.77,8.77,0,0,0,7.66,3.93,8.66,8.66,0,0,0,7.61-3.93Q694.64,166.27,694.64,159.57Z" style="fill: #0087cc"/>
      <path d="M747.84,147c-1.3-.32-2.81-.66-4.56-1a27.77,27.77,0,0,0-5.62-.54,24.67,24.67,0,0,0-3.24.25,18.1,18.1,0,0,0-2.86.53v39H717.12V136.9a85.14,85.14,0,0,1,9.16-2.57,52.57,52.57,0,0,1,11.77-1.21c.78,0,1.71,0,2.81.14s2.2.23,3.3.39,2.19.36,3.29.58a16.17,16.17,0,0,1,2.81.82Z" style="fill: #0087cc"/>
    </g>
    <g>
      <path d="M262.74,263a113,113,0,1,0-113-113A113,113,0,0,0,262.74,263Z" style="fill: #029adc"/>
      <g style="opacity: 0.5">
        <path d="M262.74,245a95,95,0,1,0-95-95A95,95,0,0,0,262.74,245Z"/>
      </g>
      <g style="opacity: 0.400000005960465">
        <path d="M357.74,150a95,95,0,0,1-186.29,26.38c1.63-2.52,3.19-4.83,3.19-4.83,10.37-15.79,32.63-36.88,71.44-9.79,16.37,11.39,30.44,15.19,41.21,12.69a31.63,31.63,0,0,0,10.08-4.5l.1-.1a38.41,38.41,0,0,0,11.18-11.49c5.19-8.8,8.08-18.19,9.58-23.19,5.79-19.08,12-32.47,22.15-39,0,0,.21-.1.51-.23A94.53,94.53,0,0,1,357.74,150Z" style="fill-rule: evenodd"/>
      </g>
      <g>
        <path d="M214.22,128.72a90.08,90.08,0,0,1,10.68-2.24,87.84,87.84,0,0,1,13.73-1,33.33,33.33,0,0,1,12.16,1.91,18.29,18.29,0,0,1,7.68,5.39,21.07,21.07,0,0,1,4,8.29,44.44,44.44,0,0,1,1.2,10.68v32.37H247.46V153.68q0-7.85-2.07-11.12t-7.74-3.27c-1.16,0-2.39.06-3.7.16s-2.47.24-3.49.39v44.25H214.22Z" style="fill: #55cff9"/>
        <path d="M289.21,171.12a24.48,24.48,0,0,0,5.94-.6,10.84,10.84,0,0,0,3.76-1.64,5.44,5.44,0,0,0,2-2.45,8.59,8.59,0,0,0,.55-3.16,7.33,7.33,0,0,0-3.49-6.16q-3.49-2.45-12-5.28c-2.47-.88-4.94-1.87-7.41-3a27.34,27.34,0,0,1-6.65-4.25,20.44,20.44,0,0,1-4.8-6.22,19.5,19.5,0,0,1-1.85-8.88,22,22,0,0,1,2-9.43,20.27,20.27,0,0,1,5.56-7.14,25.38,25.38,0,0,1,8.72-4.52A39.27,39.27,0,0,1,293,106.81,46.11,46.11,0,0,1,315.37,112l-4.91,13.41a46.57,46.57,0,0,0-7-2.89,30.27,30.27,0,0,0-9.31-1.25c-4.08,0-7,.56-8.78,1.69a5.69,5.69,0,0,0-2.67,5.17,6,6,0,0,0,1,3.49,9.36,9.36,0,0,0,2.78,2.56,23.5,23.5,0,0,0,4.14,2.07q2.34.93,5.18,1.91,5.88,2.19,10.25,4.31a27.15,27.15,0,0,1,7.24,5,17.94,17.94,0,0,1,4.31,6.65,26.79,26.79,0,0,1,1.42,9.26q0,10.58-7.42,16.4t-22.34,5.84a61.94,61.94,0,0,1-9-.6,56.69,56.69,0,0,1-7.14-1.48,39.79,39.79,0,0,1-9.1-3.7l4.8-13.52a42.25,42.25,0,0,0,8.34,3.33A43.21,43.21,0,0,0,289.21,171.12Z" style="fill: #55cff9"/>
      </g>
    </g>
  </g>
</svg>
