<svg id="Layer_1" data-name="Layer 1" xmlns="http://www.w3.org/2000/svg" viewBox="0 0 900 300">
  <title>logo-iara-white</title>
  <g>
    <g>
      <path d="M435.39,135.93a79.68,79.68,0,0,1,9.49-2,78.56,78.56,0,0,1,12.21-.92,30,30,0,0,1,10.81,1.69,16.41,16.41,0,0,1,6.83,4.8,18.73,18.73,0,0,1,3.58,7.37,39.13,39.13,0,0,1,1.07,9.49v28.78H464.94v-27c0-4.66-.61-8-1.84-9.89s-3.52-2.9-6.88-2.9c-1,0-2.13,0-3.29.14s-2.2.21-3.1.34v39.34H435.39Z" style="fill: #fff"/>
      <path d="M510.11,185.15q-4-8.46-7.91-17.56t-7.41-18q-3.51-8.91-6.45-17.05T483.25,118h16.67q1.89,5.84,4.19,12.56t4.71,13.4l4.58,12.8c1.47,4.07,2.87,7.6,4.21,10.56,1.26-2.94,2.64-6.46,4.13-10.53s3-8.35,4.64-12.8,3.16-8.92,4.7-13.4,2.94-8.68,4.2-12.59h16.1q-2.26,6.42-5.2,14.55t-6.42,17q-3.5,8.92-7.36,18t-7.87,17.53Z" style="fill: #fff"/>
      <path d="M598,159.57a33.22,33.22,0,0,1-1.74,11,23.81,23.81,0,0,1-5,8.53,22.64,22.64,0,0,1-7.9,5.47,28.15,28.15,0,0,1-20.54,0,22.64,22.64,0,0,1-7.9-5.47,25,25,0,0,1-5.13-8.53,31.5,31.5,0,0,1-1.84-11,30.47,30.47,0,0,1,1.89-10.95,24.9,24.9,0,0,1,5.23-8.43,23.68,23.68,0,0,1,7.94-5.43,27.29,27.29,0,0,1,20.16,0,23.22,23.22,0,0,1,7.9,5.43,24.84,24.84,0,0,1,5.13,8.43A31.14,31.14,0,0,1,598,159.57Zm-14.73,0q0-6.69-2.66-10.51a8.72,8.72,0,0,0-7.61-3.83,8.84,8.84,0,0,0-7.65,3.83q-2.72,3.83-2.72,10.51t2.72,10.61a8.76,8.76,0,0,0,7.65,3.93,8.65,8.65,0,0,0,7.61-3.93Q583.26,166.25,583.25,159.57Z" style="fill: #fff"/>
      <path d="M621.53,119.45A7.92,7.92,0,0,1,619,125.7a9.18,9.18,0,0,1-12.11,0,8.88,8.88,0,0,1,0-12.5,9.21,9.21,0,0,1,12.11,0A8,8,0,0,1,621.53,119.45Zm-1.36,65.7H605.73v-51h14.44Z" style="fill: #fff"/>
      <path d="M627.92,159.67a29.91,29.91,0,0,1,1.8-10.42A24.31,24.31,0,0,1,643.14,135a27.18,27.18,0,0,1,11-2.13,35.91,35.91,0,0,1,7.46.72,36.32,36.32,0,0,1,6.59,2.09l-3,11.53a36.2,36.2,0,0,0-4.46-1.36,23.1,23.1,0,0,0-5.42-.58q-6.4,0-9.55,4t-3.15,10.47q0,6.87,3,10.66t10.32,3.78a34.75,34.75,0,0,0,5.62-.49,23.79,23.79,0,0,0,5.52-1.55l2,11.82a34.42,34.42,0,0,1-6.3,1.84,41.34,41.34,0,0,1-8.34.78,31.52,31.52,0,0,1-12-2.08,22.72,22.72,0,0,1-8.29-5.67,22.31,22.31,0,0,1-4.75-8.48A36,36,0,0,1,627.92,159.67Z" style="fill: #fff"/>
      <path d="M670.56,160.05a31.19,31.19,0,0,1,2.08-11.87,25.46,25.46,0,0,1,5.48-8.47,22.74,22.74,0,0,1,7.8-5.14,24.48,24.48,0,0,1,9.06-1.74q10.85,0,17.15,6.63t6.3,19.53c0,.84,0,1.76-.1,2.76s-.13,1.89-.19,2.67H685.39a9.6,9.6,0,0,0,4.16,7.07q3.69,2.61,9.89,2.62a42.24,42.24,0,0,0,7.8-.73,29.94,29.94,0,0,0,6.25-1.79l1.93,11.72a18.52,18.52,0,0,1-3.1,1.16,39.8,39.8,0,0,1-4.31,1c-1.58.29-3.28.53-5.09.73a51.65,51.65,0,0,1-5.42.29,32,32,0,0,1-12-2,23.22,23.22,0,0,1-8.43-5.57,22.15,22.15,0,0,1-4.94-8.38A33.1,33.1,0,0,1,670.56,160.05Zm33.92-5.52a15.35,15.35,0,0,0-.63-3.58,9,9,0,0,0-1.65-3.1,8.65,8.65,0,0,0-2.81-2.23,9.19,9.19,0,0,0-4.22-.88,9.65,9.65,0,0,0-4.16.83,8.54,8.54,0,0,0-2.91,2.18,9.57,9.57,0,0,0-1.79,3.15,20.12,20.12,0,0,0-.92,3.63Z" style="fill: #fff"/>
    </g>
    <g>
      <path d="M293.6,37a113,113,0,1,0,113,113A113,113,0,0,0,293.6,37Zm0,208a95,95,0,1,1,95-95A95,95,0,0,1,293.6,245Z" style="fill: #fff"/>
      <g style="opacity: 0.30000000000000004">
        <path d="M388.6,150a95,95,0,0,1-186.29,26.38c1.63-2.52,3.19-4.83,3.19-4.83,10.37-15.79,32.63-36.88,71.44-9.79,16.37,11.39,30.44,15.19,41.22,12.69a31.68,31.68,0,0,0,10.07-4.5l.1-.1a38.41,38.41,0,0,0,11.18-11.49c5.19-8.8,8.08-18.19,9.58-23.19,5.79-19.08,12-32.47,22.15-39,0,0,.21-.1.51-.23A94.53,94.53,0,0,1,388.6,150Z" style="fill: #fff;fill-rule: evenodd"/>
      </g>
      <g>
        <path d="M237.45,128.72a90.08,90.08,0,0,1,10.68-2.24,87.87,87.87,0,0,1,13.74-1A33.27,33.27,0,0,1,274,127.36a18.29,18.29,0,0,1,7.68,5.39,21.07,21.07,0,0,1,4,8.29,44,44,0,0,1,1.2,10.68v32.37H270.7V153.68q0-7.85-2.08-11.12t-7.74-3.27c-1.16,0-2.39.06-3.7.16s-2.47.24-3.49.39v44.25H237.45Z" style="fill: #fff"/>
        <path d="M314.42,184.09q-4.51-9.51-8.9-19.75t-8.33-20.26q-4-10-7.26-19.18t-5.72-16.35H303q2.12,6.57,4.71,14.13T313,137.75q2.7,7.51,5.16,14.4T322.85,164q2.13-5,4.65-11.85t5.22-14.39q2.7-7.51,5.29-15.08t4.72-14.16h18.11q-2.55,7.23-5.84,16.37t-7.23,19.17q-3.93,10-8.28,20.28t-8.85,19.72Z" style="fill: #fff"/>
      </g>
    </g>
  </g>
</svg>
