<svg id="Layer_1" data-name="Layer 1" xmlns="http://www.w3.org/2000/svg" viewBox="0 0 900 300">
  <title>logo-iara-white</title>
  <g>
    <g>
      <path d="M398.76,135.93a79.47,79.47,0,0,1,9.5-2,78.38,78.38,0,0,1,12.21-.92,30,30,0,0,1,10.8,1.69,16.41,16.41,0,0,1,6.83,4.8,18.88,18.88,0,0,1,3.59,7.37,39.15,39.15,0,0,1,1.06,9.49v28.78H428.31v-27c0-4.66-.61-8-1.84-9.89s-3.52-2.9-6.88-2.9c-1,0-2.13,0-3.29.14s-2.2.21-3.1.34v39.34H398.76Z" style="fill: #fff"/>
      <path d="M471.72,173.62a22,22,0,0,0,5.28-.53,9.74,9.74,0,0,0,3.35-1.46,4.81,4.81,0,0,0,1.74-2.18,7.77,7.77,0,0,0,.49-2.81,6.5,6.5,0,0,0-3.1-5.47q-3.11-2.19-10.66-4.7c-2.2-.78-4.4-1.66-6.59-2.67a24.31,24.31,0,0,1-5.91-3.77,18,18,0,0,1-4.27-5.53,17.24,17.24,0,0,1-1.64-7.89,19.61,19.61,0,0,1,1.74-8.39,17.88,17.88,0,0,1,4.94-6.34,22.43,22.43,0,0,1,7.75-4,34.72,34.72,0,0,1,10.28-1.41,41.75,41.75,0,0,1,11.72,1.45,42.21,42.21,0,0,1,8.14,3.2L490.62,133a42.38,42.38,0,0,0-6.25-2.57,27.18,27.18,0,0,0-8.29-1.11q-5.41,0-7.8,1.5a5.07,5.07,0,0,0-2.37,4.6,5.32,5.32,0,0,0,.87,3.1,8.56,8.56,0,0,0,2.47,2.28,21.88,21.88,0,0,0,3.69,1.84c1.38.55,2.92,1.12,4.6,1.7q5.23,1.94,9.11,3.82a24.34,24.34,0,0,1,6.44,4.41,16,16,0,0,1,3.83,5.91,23.8,23.8,0,0,1,1.26,8.24q0,9.4-6.59,14.58t-19.87,5.19a54.31,54.31,0,0,1-8-.54,52.71,52.71,0,0,1-6.35-1.3,36.75,36.75,0,0,1-4.74-1.65,35.07,35.07,0,0,1-3.35-1.65l4.27-12a37.67,37.67,0,0,0,7.41,2.95A38.14,38.14,0,0,0,471.72,173.62Z" style="fill: #fff"/>
      <path d="M552.83,159.67a37.27,37.27,0,0,1-1.46,10.75,24.35,24.35,0,0,1-4.26,8.34,19.23,19.23,0,0,1-7,5.42,22.53,22.53,0,0,1-9.59,1.94,25.72,25.72,0,0,1-5.62-.58,27.52,27.52,0,0,1-5-1.65v19.19H505.44V135.93c1.29-.39,2.78-.76,4.46-1.12s3.44-.66,5.28-.92,3.72-.47,5.62-.63,3.73-.24,5.48-.24a31.31,31.31,0,0,1,11.24,1.89,23.17,23.17,0,0,1,8.33,5.33,22.79,22.79,0,0,1,5.18,8.38A32.14,32.14,0,0,1,552.83,159.67Zm-14.73.38q0-6.68-3-10.7t-8.92-4c-1.29,0-2.49,0-3.58.14s-2,.21-2.72.34v26.07a12.8,12.8,0,0,0,3.54,1.45,16.9,16.9,0,0,0,4.41.58Q538.09,173.91,538.1,160.05Z" style="fill: #fff"/>
      <path d="M558.16,160.05a31.19,31.19,0,0,1,2.08-11.87,25.44,25.44,0,0,1,5.47-8.47,22.74,22.74,0,0,1,7.8-5.14,24.48,24.48,0,0,1,9.06-1.74q10.86,0,17.16,6.63T606,159q0,1.26-.09,2.76c-.07,1-.13,1.89-.2,2.67H573a9.58,9.58,0,0,0,4.17,7.07q3.68,2.61,9.88,2.62a42.08,42.08,0,0,0,7.8-.73,29.76,29.76,0,0,0,6.25-1.79L603,183.31a18.87,18.87,0,0,1-3.1,1.16,39.8,39.8,0,0,1-4.31,1c-1.59.29-3.28.53-5.09.73a52,52,0,0,1-5.43.29,32,32,0,0,1-12-2,23.22,23.22,0,0,1-8.43-5.57,22.18,22.18,0,0,1-5-8.38A33.39,33.39,0,0,1,558.16,160.05Zm33.91-5.52a14.38,14.38,0,0,0-.63-3.58,8.7,8.7,0,0,0-4.46-5.33,9.14,9.14,0,0,0-4.21-.88,9.66,9.66,0,0,0-4.17.83,8.64,8.64,0,0,0-2.91,2.18,9.75,9.75,0,0,0-1.79,3.15,21,21,0,0,0-.92,3.63Z" style="fill: #fff"/>
      <path d="M611.35,160.05a31.18,31.18,0,0,1,2.09-11.87,25.28,25.28,0,0,1,5.47-8.47,22.74,22.74,0,0,1,7.8-5.14,24.48,24.48,0,0,1,9.06-1.74q10.86,0,17.15,6.63t6.3,19.53c0,.84,0,1.76-.1,2.76s-.13,1.89-.19,2.67H626.18a9.58,9.58,0,0,0,4.17,7.07q3.67,2.61,9.88,2.62a42.08,42.08,0,0,0,7.8-.73,29.94,29.94,0,0,0,6.25-1.79l1.94,11.72a19.23,19.23,0,0,1-3.1,1.16,40.37,40.37,0,0,1-4.31,1c-1.59.29-3.28.53-5.09.73a52,52,0,0,1-5.43.29,32.08,32.08,0,0,1-12-2,23.22,23.22,0,0,1-8.43-5.57,22.28,22.28,0,0,1-4.94-8.38A33.39,33.39,0,0,1,611.35,160.05Zm33.92-5.52a15.35,15.35,0,0,0-.63-3.58,9,9,0,0,0-1.65-3.1,8.65,8.65,0,0,0-2.81-2.23,9.14,9.14,0,0,0-4.21-.88,9.66,9.66,0,0,0-4.17.83,8.64,8.64,0,0,0-2.91,2.18,9.75,9.75,0,0,0-1.79,3.15,20.12,20.12,0,0,0-.92,3.63Z" style="fill: #fff"/>
      <path d="M664.55,159.67a30.14,30.14,0,0,1,1.79-10.42,25.1,25.1,0,0,1,5.19-8.53,24.65,24.65,0,0,1,8.24-5.76,27.15,27.15,0,0,1,11-2.13,34.22,34.22,0,0,1,14.05,2.81l-3,11.53a36.74,36.74,0,0,0-4.46-1.36,23.19,23.19,0,0,0-5.43-.58q-6.39,0-9.54,4t-3.15,10.47q0,6.87,3,10.66t10.32,3.78a34.75,34.75,0,0,0,5.62-.49,23.79,23.79,0,0,0,5.52-1.55l2,11.82a34.3,34.3,0,0,1-6.29,1.84,41.34,41.34,0,0,1-8.34.78,31.48,31.48,0,0,1-12-2.08,22.72,22.72,0,0,1-8.29-5.67,22.18,22.18,0,0,1-4.75-8.48A36,36,0,0,1,664.55,159.67Z" style="fill: #fff"/>
      <path d="M712,185.15V112.28L726.47,110v24.42a28.58,28.58,0,0,1,3.73-.92,23.54,23.54,0,0,1,4.41-.44,27.5,27.5,0,0,1,10.32,1.69,16.17,16.17,0,0,1,6.59,4.8,18.59,18.59,0,0,1,3.49,7.37,40.81,40.81,0,0,1,1,9.49v28.78H741.59v-27c0-4.66-.6-8-1.8-9.89s-3.4-2.9-6.63-2.9a18.23,18.23,0,0,0-3.64.34c-1.13.22-2.15.46-3,.72v38.76Z" style="fill: #fff"/>
    </g>
    <g>
      <path d="M257,37A113,113,0,1,0,370,150,113,113,0,0,0,257,37Zm0,208a95,95,0,1,1,95-95A95,95,0,0,1,257,245Z" style="fill: #fff"/>
      <g style="opacity: 0.3">
        <path d="M352,150a95,95,0,0,1-186.3,26.38c1.64-2.52,3.19-4.83,3.19-4.83,10.38-15.79,32.63-36.88,71.45-9.79,16.36,11.39,30.43,15.19,41.21,12.69a31.83,31.83,0,0,0,10.08-4.5l.1-.1a38.38,38.38,0,0,0,11.17-11.49c5.19-8.8,8.08-18.19,9.58-23.19,5.79-19.08,12-32.47,22.15-39,0,0,.21-.1.51-.23A94.54,94.54,0,0,1,352,150Z" style="fill: #fff;fill-rule: evenodd"/>
      </g>
      <g>
        <path d="M194.85,128.72a90.08,90.08,0,0,1,10.68-2.24,87.87,87.87,0,0,1,13.74-1,33.27,33.27,0,0,1,12.15,1.91,18.29,18.29,0,0,1,7.68,5.39,21.07,21.07,0,0,1,4,8.29,44,44,0,0,1,1.2,10.68v32.37H228.1V153.68q0-7.85-2.08-11.12t-7.73-3.27c-1.17,0-2.4.06-3.71.16s-2.47.24-3.49.39v44.25H194.85Z" style="fill: #fff"/>
        <path d="M272,171.12a24.48,24.48,0,0,0,5.94-.6,10.76,10.76,0,0,0,3.76-1.64,5.37,5.37,0,0,0,2-2.45,8.59,8.59,0,0,0,.55-3.16,7.3,7.3,0,0,0-3.49-6.16q-3.5-2.45-12-5.28c-2.47-.88-4.94-1.87-7.41-3a27.34,27.34,0,0,1-6.65-4.25,20.44,20.44,0,0,1-4.8-6.22,19.5,19.5,0,0,1-1.85-8.88,22.12,22.12,0,0,1,2-9.43,20.27,20.27,0,0,1,5.56-7.14,25.47,25.47,0,0,1,8.72-4.52,39.31,39.31,0,0,1,11.56-1.58A46,46,0,0,1,298.18,112l-4.9,13.41a47.44,47.44,0,0,0-7-2.89,30.34,30.34,0,0,0-9.32-1.25q-6.1,0-8.78,1.69a5.69,5.69,0,0,0-2.67,5.17,6,6,0,0,0,1,3.49,9.49,9.49,0,0,0,2.78,2.56,23.5,23.5,0,0,0,4.14,2.07c1.57.62,3.29,1.26,5.18,1.91q5.88,2.19,10.25,4.31a27.37,27.37,0,0,1,7.25,5,17.92,17.92,0,0,1,4.3,6.65,26.55,26.55,0,0,1,1.42,9.26q0,10.58-7.41,16.4T272,185.62a61.94,61.94,0,0,1-9-.6,57.45,57.45,0,0,1-7.14-1.48,39.79,39.79,0,0,1-9.1-3.7l4.8-13.52a42.25,42.25,0,0,0,8.34,3.33A43.26,43.26,0,0,0,272,171.12Z" style="fill: #fff"/>
        <path d="M302.36,134.16l11.32-1.83v11.78h13.6v9.43h-13.6V167.6a11.26,11.26,0,0,0,1.25,5.7c.84,1.42,2.52,2.13,5.06,2.13a21.48,21.48,0,0,0,3.76-.35,18.34,18.34,0,0,0,3.53-1l1.6,8.82a31.38,31.38,0,0,1-4.56,1.44,26.28,26.28,0,0,1-6.16.61,20.33,20.33,0,0,1-7.67-1.25,12.06,12.06,0,0,1-4.87-3.5,13,13,0,0,1-2.54-5.43,32.22,32.22,0,0,1-.72-7.07Z" style="fill: #fff"/>
      </g>
    </g>
  </g>
</svg>
