<svg id="Layer_1" data-name="Layer 1" xmlns="http://www.w3.org/2000/svg" viewBox="0 0 900 300">
  <title>logo-iara-white</title>
  <g>
    <text transform="translate(428.6 185.15)" style="font-size: 96.89977264404297px;fill: #fff;font-family: Ubuntu-Bold, Ubuntu;font-weight: 700;letter-spacing: -0.034996091205570776em">n<tspan x="53.68" y="0" style="letter-spacing: -0.09000218646835129em">V</tspan><tspan x="114.92" y="0" style="letter-spacing: -0.0349910521715599em">oi</tspan><tspan x="194.96" y="0" style="letter-spacing: -0.05999473893355301em">c</tspan><tspan x="237.6" y="0" style="letter-spacing: -0.035011208307603424em">e</tspan></text>
    <g>
      <path d="M293.6,37a113,113,0,1,0,113,113A113,113,0,0,0,293.6,37Zm0,208a95,95,0,1,1,95-95A95,95,0,0,1,293.6,245Z" style="fill: #fff"/>
      <g style="opacity: 0.3">
        <path d="M388.6,150a95,95,0,0,1-186.29,26.38c1.63-2.52,3.19-4.83,3.19-4.83,10.37-15.79,32.63-36.88,71.44-9.79,16.37,11.39,30.44,15.19,41.22,12.69a31.68,31.68,0,0,0,10.07-4.5l.1-.1a38.41,38.41,0,0,0,11.18-11.49c5.19-8.8,8.08-18.19,9.58-23.19,5.79-19.08,12-32.47,22.15-39,0,0,.21-.1.51-.23A94.53,94.53,0,0,1,388.6,150Z" style="fill: #fff;fill-rule: evenodd"/>
      </g>
      <text transform="translate(229.82 184.09)" style="font-size: 109px;fill: #fff;font-family: Ubuntu-Bold, Ubuntu;font-weight: 700;letter-spacing: -0.09999910407110092em">nV</text>
    </g>
  </g>
</svg>
