<svg id="Layer_1" data-name="Layer 1" xmlns="http://www.w3.org/2000/svg" viewBox="0 0 900 300">
  <title>logo-nduo-white</title>
  <g>
    <g>
      <path d="M449.78,135.93a79.68,79.68,0,0,1,9.49-2,78.56,78.56,0,0,1,12.21-.92,30,30,0,0,1,10.81,1.69,16.41,16.41,0,0,1,6.83,4.8,18.73,18.73,0,0,1,3.58,7.37,39.13,39.13,0,0,1,1.07,9.49v28.78H479.33v-27c0-4.66-.61-8-1.84-9.89s-3.52-2.9-6.88-2.9c-1,0-2.13,0-3.29.14s-2.2.21-3.11.34v39.34H449.78Z" style="fill: #fff"/>
      <path d="M504.43,185.15V118h45.35v12.69H519.54v13.18h26.85v12.41H519.54v16.18H552v12.69Z" style="fill: #fff"/>
      <path d="M555.2,159.67a29.91,29.91,0,0,1,1.8-10.42,24.92,24.92,0,0,1,5.18-8.53,24.65,24.65,0,0,1,8.24-5.76,27.18,27.18,0,0,1,11-2.13,35.91,35.91,0,0,1,7.46.72,36.32,36.32,0,0,1,6.59,2.09l-3,11.53a36.2,36.2,0,0,0-4.46-1.36,23.13,23.13,0,0,0-5.43-.58q-6.39,0-9.54,4t-3.15,10.47q0,6.87,3,10.66t10.32,3.78a34.75,34.75,0,0,0,5.62-.49,23.79,23.79,0,0,0,5.52-1.55l2,11.82a34.06,34.06,0,0,1-6.29,1.84,41.34,41.34,0,0,1-8.34.78,31.52,31.52,0,0,1-12-2.08,22.72,22.72,0,0,1-8.29-5.67,22.31,22.31,0,0,1-4.75-8.48A36,36,0,0,1,555.2,159.67Z" style="fill: #fff"/>
      <path d="M602.68,185.15V112.28L617.12,110v24.42a28.58,28.58,0,0,1,3.73-.92,23.54,23.54,0,0,1,4.41-.44,27.5,27.5,0,0,1,10.32,1.69,16.17,16.17,0,0,1,6.59,4.8,18.59,18.59,0,0,1,3.49,7.37,40.79,40.79,0,0,1,1,9.49v28.78H632.24v-27c0-4.66-.6-8-1.79-9.89s-3.41-2.9-6.64-2.9a18.23,18.23,0,0,0-3.64.34c-1.13.22-2.14.46-3,.72v38.76Z" style="fill: #fff"/>
      <path d="M704,159.57a33.22,33.22,0,0,1-1.74,11,24.1,24.1,0,0,1-5,8.53,22.64,22.64,0,0,1-7.9,5.47A26.4,26.4,0,0,1,679,186.51a26.07,26.07,0,0,1-10.22-1.94,22.55,22.55,0,0,1-7.9-5.47,25.06,25.06,0,0,1-5.14-8.53,31.73,31.73,0,0,1-1.84-11,30.47,30.47,0,0,1,1.89-10.95,25.05,25.05,0,0,1,5.23-8.43,23.72,23.72,0,0,1,8-5.43,25.62,25.62,0,0,1,10-1.93,25.9,25.9,0,0,1,10.13,1.93,23.18,23.18,0,0,1,7.89,5.43,24.71,24.71,0,0,1,5.14,8.43A31.37,31.37,0,0,1,704,159.57Zm-14.73,0q0-6.69-2.66-10.51a8.73,8.73,0,0,0-7.61-3.83,8.86,8.86,0,0,0-7.66,3.83q-2.7,3.83-2.71,10.51t2.71,10.61a8.78,8.78,0,0,0,7.66,3.93,8.66,8.66,0,0,0,7.61-3.93Q689.31,166.25,689.31,159.57Z" style="fill: #fff"/>
    </g>
    <g>
      <path d="M308,37A113,113,0,1,0,421,150,113,113,0,0,0,308,37Zm0,208a95,95,0,1,1,95-95A95,95,0,0,1,308,245Z" style="fill: #fff"/>
      <g style="opacity: 0.3">
        <path d="M403,150A95,95,0,0,1,216.7,176.38c1.63-2.52,3.19-4.83,3.19-4.83,10.37-15.79,32.63-36.88,71.44-9.79,16.37,11.39,30.44,15.19,41.21,12.69a31.63,31.63,0,0,0,10.08-4.5l.1-.1a38.41,38.41,0,0,0,11.18-11.49c5.19-8.8,8.08-18.19,9.58-23.19,5.79-19.08,12-32.47,22.15-39,0,0,.21-.1.51-.23A94.53,94.53,0,0,1,403,150Z" style="fill: #fff;fill-rule: evenodd"/>
      </g>
      <g>
        <path d="M258.16,128.72a90.08,90.08,0,0,1,10.68-2.24,87.87,87.87,0,0,1,13.74-1,33.23,33.23,0,0,1,12.15,1.91,18.32,18.32,0,0,1,7.69,5.39,21.19,21.19,0,0,1,4,8.29,44,44,0,0,1,1.2,10.68v32.37H291.41V153.68c0-5.23-.7-8.94-2.07-11.12s-4-3.27-7.74-3.27c-1.17,0-2.4.06-3.71.16s-2.47.24-3.49.39v44.25H258.16Z" style="fill: #fff"/>
        <path d="M312.55,184.09V108.55h51v14.28h-34v14.83h30.19v14H329.56v18.2h36.51v14.28Z" style="fill: #fff"/>
      </g>
    </g>
  </g>
</svg>
