<svg id="Layer_1" data-name="Layer 1" xmlns="http://www.w3.org/2000/svg" viewBox="0 0 900 300">
  <title>logo-nmonitor-white</title>
  <g>
    <g>
      <path d="M369.8,135.93a81.5,81.5,0,0,1,9.5-2,78.38,78.38,0,0,1,12.21-.92,29.77,29.77,0,0,1,10.8,1.7,16.3,16.3,0,0,1,6.83,4.79,18.81,18.81,0,0,1,3.59,7.37,39.15,39.15,0,0,1,1.06,9.49v28.78H399.35v-27q0-7-1.84-9.89c-1.22-1.94-3.52-2.9-6.88-2.9-1,0-2.13,0-3.29.14s-2.2.21-3.1.34v39.34H369.8Z" style="fill: #fff"/>
      <path d="M442.28,118c1.17,2.13,2.51,4.77,4,7.9s3.11,6.52,4.76,10.17,3.29,7.38,4.91,11.19L460.54,158l4.57-10.76q2.43-5.72,4.91-11.19t4.76-10.17c1.52-3.13,2.87-5.77,4-7.9h13.76q1,6.69,1.79,15t1.46,17.25q.63,9,1.16,18c.35,6,.66,11.66.92,17H483.17q-.29-9.78-.77-21.32t-1.46-23.25q-1.74,4.06-3.89,9t-4.22,9.88q-2.1,5-4,9.45c-1.29,3-2.4,5.57-3.3,7.7H454.92c-.9-2.13-2-4.69-3.3-7.7s-2.64-6.15-4-9.45-2.8-6.59-4.22-9.88-2.72-6.3-3.89-9q-1,11.73-1.45,23.25t-.78,21.32H422.51c.26-5.29.57-11,.92-17s.74-12,1.17-18,.9-11.73,1.45-17.25,1.15-10.51,1.79-15Z" style="fill: #fff"/>
      <path d="M554.68,159.57a33.22,33.22,0,0,1-1.74,11,24,24,0,0,1-5,8.53,22.64,22.64,0,0,1-7.9,5.47,26.4,26.4,0,0,1-10.32,1.94,26.11,26.11,0,0,1-10.22-1.94,22.64,22.64,0,0,1-7.9-5.47,25,25,0,0,1-5.13-8.53,31.5,31.5,0,0,1-1.85-11,30.47,30.47,0,0,1,1.89-10.95,24.92,24.92,0,0,1,5.24-8.43,23.54,23.54,0,0,1,7.94-5.43,25.62,25.62,0,0,1,10-1.93,25.9,25.9,0,0,1,10.13,1.93,23.08,23.08,0,0,1,7.9,5.43,24.84,24.84,0,0,1,5.13,8.43A31.14,31.14,0,0,1,554.68,159.57Zm-14.73,0q0-6.69-2.66-10.51a8.72,8.72,0,0,0-7.61-3.83,8.83,8.83,0,0,0-7.65,3.83q-2.71,3.83-2.72,10.51T522,170.18a8.75,8.75,0,0,0,7.65,3.93,8.65,8.65,0,0,0,7.61-3.93Q539.94,166.27,540,159.57Z" style="fill: #fff"/>
      <path d="M562.43,135.93a82,82,0,0,1,9.5-2,78.56,78.56,0,0,1,12.21-.92,29.69,29.69,0,0,1,10.8,1.7,16.24,16.24,0,0,1,6.83,4.79,18.67,18.67,0,0,1,3.59,7.37,39.13,39.13,0,0,1,1.07,9.49v28.78H592v-27c0-4.65-.62-8-1.84-9.89s-3.53-2.9-6.88-2.9c-1,0-2.14,0-3.3.14s-2.19.21-3.1.34v39.34H562.43Z" style="fill: #fff"/>
      <path d="M631.91,119.45a7.92,7.92,0,0,1-2.57,6.25,9.18,9.18,0,0,1-12.11,0,8.88,8.88,0,0,1,0-12.5,9.21,9.21,0,0,1,12.11,0A8,8,0,0,1,631.91,119.45Zm-1.36,65.7H616.12v-51h14.43Z" style="fill: #fff"/>
      <path d="M640.24,121.49l14.44-2.33v15H672v12H654.68v17.92a14.22,14.22,0,0,0,1.6,7.27q1.59,2.72,6.44,2.72a27.73,27.73,0,0,0,4.8-.44,24.47,24.47,0,0,0,4.51-1.21l2,11.24a41.42,41.42,0,0,1-5.81,1.84,33.74,33.74,0,0,1-7.85.78,26,26,0,0,1-9.79-1.6,15.37,15.37,0,0,1-6.2-4.46,16.73,16.73,0,0,1-3.25-6.93,41.12,41.12,0,0,1-.92-9Z" style="fill: #fff"/>
      <path d="M726.09,159.57a33.22,33.22,0,0,1-1.74,11,23.81,23.81,0,0,1-5,8.53,22.64,22.64,0,0,1-7.9,5.47,28.15,28.15,0,0,1-20.54,0,22.64,22.64,0,0,1-7.9-5.47,25,25,0,0,1-5.13-8.53,31.5,31.5,0,0,1-1.84-11,30.47,30.47,0,0,1,1.89-10.95,24.9,24.9,0,0,1,5.23-8.43,23.58,23.58,0,0,1,8-5.43,25.57,25.57,0,0,1,10-1.93,25.87,25.87,0,0,1,10.13,1.93,23.08,23.08,0,0,1,7.9,5.43,24.68,24.68,0,0,1,5.13,8.43A31.14,31.14,0,0,1,726.09,159.57Zm-14.72,0q0-6.69-2.67-10.51a8.72,8.72,0,0,0-7.61-3.83,8.84,8.84,0,0,0-7.65,3.83q-2.72,3.83-2.71,10.51t2.71,10.61a8.76,8.76,0,0,0,7.65,3.93,8.65,8.65,0,0,0,7.61-3.93Q711.37,166.27,711.37,159.57Z" style="fill: #fff"/>
      <path d="M764.56,147c-1.29-.32-2.81-.66-4.55-1a27.85,27.85,0,0,0-5.62-.54,24.68,24.68,0,0,0-3.25.25,18.33,18.33,0,0,0-2.86.53v39H733.85V136.9a85.57,85.57,0,0,1,9.15-2.57,52.67,52.67,0,0,1,11.78-1.21c.77,0,1.71,0,2.81.14s2.19.23,3.29.39,2.2.36,3.29.58a16.3,16.3,0,0,1,2.82.82Z" style="fill: #fff"/>
    </g>
    <g>
      <path d="M228,37A113,113,0,1,0,341,150,113,113,0,0,0,228,37Zm0,208a95,95,0,1,1,95-95A95,95,0,0,1,228,245Z" style="fill: #fff"/>
      <g style="opacity: 0.3">
        <path d="M323,150a95,95,0,0,1-186.3,26.38c1.64-2.52,3.19-4.83,3.19-4.83,10.38-15.79,32.63-36.88,71.45-9.79,16.36,11.39,30.43,15.19,41.21,12.69a31.83,31.83,0,0,0,10.08-4.5l.1-.1a38.38,38.38,0,0,0,11.17-11.49c5.19-8.8,8.08-18.19,9.58-23.19,5.79-19.08,12-32.47,22.15-39,0,0,.21-.1.51-.23A94.54,94.54,0,0,1,323,150Z" style="fill: #fff;fill-rule: evenodd"/>
      </g>
      <g>
        <path d="M162.32,128.72A92.83,92.83,0,0,1,173,126.48a87.84,87.84,0,0,1,13.73-1,33.44,33.44,0,0,1,12.15,1.91,18.26,18.26,0,0,1,7.69,5.39,21.06,21.06,0,0,1,4,8.29,44,44,0,0,1,1.2,10.68v32.37H195.57V153.68q0-7.85-2.07-11.12t-7.74-3.27c-1.16,0-2.4.06-3.71.16s-2.47.24-3.48.39v44.25H162.32Z" style="fill: #fff"/>
        <path d="M236.77,108.55q2,3.6,4.54,8.89t5.35,11.44q2.79,6.17,5.52,12.59t5.14,12.1l5.13-12.1q2.73-6.43,5.52-12.59t5.36-11.44q2.57-5.3,4.53-8.89h15.48q1.1,7.53,2,16.84T297,144.8q.7,10.08,1.31,20.21t1,19.08H282.77q-.33-11-.87-24T280.26,134q-2,4.58-4.37,10.14t-4.76,11.12q-2.36,5.55-4.54,10.62t-3.71,8.67H251l-3.72-8.67q-2.19-5.07-4.54-10.62T238,144.09q-2.4-5.57-4.37-10.14-1.1,13.19-1.64,26.16t-.87,24H214.54q.42-8.94,1-19.08t1.31-20.21q.7-10.08,1.63-19.41t2-16.84Z" style="fill: #fff"/>
      </g>
    </g>
  </g>
</svg>
