<svg id="Layer_1" data-name="Layer 1" xmlns="http://www.w3.org/2000/svg" viewBox="0 0 900 300">
  <title>logo-ncommand-white</title>
  <g>
    <g>
      <path d="M328.47,135.93a81.5,81.5,0,0,1,9.5-2,78.38,78.38,0,0,1,12.21-.92,29.73,29.73,0,0,1,10.8,1.7,16.3,16.3,0,0,1,6.83,4.79,18.74,18.74,0,0,1,3.59,7.37,39.15,39.15,0,0,1,1.06,9.49v28.78H358v-27q0-7-1.85-9.89c-1.22-1.94-3.52-2.9-6.88-2.9-1,0-2.13,0-3.29.14s-2.2.21-3.1.34v39.34H328.47Z" style="fill: #fff"/>
      <path d="M413.74,186.51q-16.38,0-24.95-9.11t-8.58-25.87a39.88,39.88,0,0,1,2.62-14.88,31.87,31.87,0,0,1,7.17-11,29.9,29.9,0,0,1,10.85-6.83,39.2,39.2,0,0,1,13.67-2.33,43.81,43.81,0,0,1,7.75.63,52.07,52.07,0,0,1,6.1,1.45,30,30,0,0,1,4.36,1.7,28.29,28.29,0,0,1,2.52,1.36l-4.36,12.2a36.74,36.74,0,0,0-7.22-2.8,34.21,34.21,0,0,0-9.35-1.17,20.56,20.56,0,0,0-6.83,1.17,15.26,15.26,0,0,0-5.91,3.73,18.68,18.68,0,0,0-4.12,6.63,28,28,0,0,0-1.55,9.89,35.17,35.17,0,0,0,1,8.67,18.57,18.57,0,0,0,3.29,6.93,15.84,15.84,0,0,0,6,4.6,21.25,21.25,0,0,0,8.92,1.7,40.48,40.48,0,0,0,5.91-.39,46.1,46.1,0,0,0,4.65-.92,25.48,25.48,0,0,0,3.59-1.21c1-.45,2-.87,2.81-1.26l4.16,12.11a35.25,35.25,0,0,1-9,3.49A52.73,52.73,0,0,1,413.74,186.51Z" style="fill: #fff"/>
      <path d="M488.06,159.57a33.22,33.22,0,0,1-1.74,11,23.81,23.81,0,0,1-5,8.53,22.64,22.64,0,0,1-7.9,5.47,28.15,28.15,0,0,1-20.54,0,22.64,22.64,0,0,1-7.9-5.47,25,25,0,0,1-5.13-8.53,31.5,31.5,0,0,1-1.84-11,30.47,30.47,0,0,1,1.89-10.95,24.9,24.9,0,0,1,5.23-8.43,23.68,23.68,0,0,1,7.94-5.43,27.29,27.29,0,0,1,20.16,0,23.22,23.22,0,0,1,7.9,5.43,24.84,24.84,0,0,1,5.13,8.43A31.14,31.14,0,0,1,488.06,159.57Zm-14.73,0q0-6.69-2.66-10.51a8.72,8.72,0,0,0-7.61-3.83,8.84,8.84,0,0,0-7.65,3.83q-2.71,3.83-2.72,10.51t2.72,10.61a8.76,8.76,0,0,0,7.65,3.93,8.65,8.65,0,0,0,7.61-3.93Q473.34,166.27,473.33,159.57Z" style="fill: #fff"/>
      <path d="M523.82,158.12q0-7-1.79-9.89c-1.2-1.94-3.25-2.9-6.16-2.9-.9,0-1.84,0-2.81.14s-1.9.21-2.81.34v39.34H495.82V135.93c1.22-.33,2.66-.66,4.31-1s3.39-.68,5.23-1,3.73-.52,5.67-.68,3.84-.24,5.72-.24a24.15,24.15,0,0,1,9,1.4,20.48,20.48,0,0,1,5.67,3.35,24.61,24.61,0,0,1,7.12-3.49,24.92,24.92,0,0,1,7.41-1.26,25.44,25.44,0,0,1,10,1.7,15.13,15.13,0,0,1,6.25,4.79,18.19,18.19,0,0,1,3.2,7.37,47.55,47.55,0,0,1,.87,9.49v28.78H551.82v-27c0-4.65-.59-8-1.79-9.89s-3.25-2.9-6.15-2.9a12.88,12.88,0,0,0-3.25.58,12.53,12.53,0,0,0-3.44,1.45,22.21,22.21,0,0,1,.87,4.7c.13,1.65.2,3.41.2,5.28v27.81H523.82Z" style="fill: #fff"/>
      <path d="M604,158.12q0-7-1.8-9.89c-1.19-1.94-3.24-2.9-6.15-2.9-.91,0-1.84,0-2.81.14s-1.91.21-2.81.34v39.34H576V135.93c1.23-.33,2.67-.66,4.31-1s3.39-.68,5.24-1,3.73-.52,5.66-.68,3.85-.24,5.72-.24a24.15,24.15,0,0,1,9,1.4,20.19,20.19,0,0,1,5.67,3.35A27,27,0,0,1,626.05,133a25.48,25.48,0,0,1,10,1.7,15.19,15.19,0,0,1,6.25,4.79,18.33,18.33,0,0,1,3.2,7.37,47.55,47.55,0,0,1,.87,9.49v28.78H632v-27q0-7-1.79-9.89c-1.2-1.94-3.25-2.9-6.16-2.9a12.89,12.89,0,0,0-3.24.58,12.4,12.4,0,0,0-3.44,1.45,22.21,22.21,0,0,1,.87,4.7c.13,1.65.19,3.41.19,5.28v27.81H604Z" style="fill: #fff"/>
      <path d="M674.4,132.83a33.43,33.43,0,0,1,10.66,1.45,16.55,16.55,0,0,1,6.83,4.17,15.3,15.3,0,0,1,3.63,6.59,32.09,32.09,0,0,1,1.07,8.62v30q-3.11.68-8.62,1.6a83.41,83.41,0,0,1-13.38.92,42.49,42.49,0,0,1-9-.87,19.72,19.72,0,0,1-6.93-2.86,13,13,0,0,1-4.45-5.19,17.78,17.78,0,0,1-1.55-7.85,14.78,14.78,0,0,1,1.79-7.55,13.78,13.78,0,0,1,4.79-5,22,22,0,0,1,6.88-2.66,38.63,38.63,0,0,1,8.05-.82,46.21,46.21,0,0,1,5,.24,21.74,21.74,0,0,1,3.53.63V153a8,8,0,0,0-2.22-5.91c-1.49-1.49-4.07-2.23-7.76-2.23a48.67,48.67,0,0,0-7.26.54,30.74,30.74,0,0,0-6.21,1.5l-1.84-11.63c.84-.26,1.89-.53,3.15-.83s2.63-.54,4.12-.77,3-.42,4.7-.58S672.72,132.83,674.4,132.83Zm1.16,42.25c1.42,0,2.78,0,4.07-.1a29.44,29.44,0,0,0,3.1-.29V163.74a26.38,26.38,0,0,0-2.61-.39,28.91,28.91,0,0,0-7,.05,10.11,10.11,0,0,0-3.15.92,5.39,5.39,0,0,0-2.13,1.84,5.11,5.11,0,0,0-.77,2.91c0,2.26.75,3.82,2.27,4.7A12.61,12.61,0,0,0,675.56,175.08Z" style="fill: #fff"/>
      <path d="M706.28,135.93a82,82,0,0,1,9.5-2A78.38,78.38,0,0,1,728,133a29.73,29.73,0,0,1,10.8,1.7,16.24,16.24,0,0,1,6.83,4.79,18.74,18.74,0,0,1,3.59,7.37,39.15,39.15,0,0,1,1.06,9.49v28.78H735.84v-27q0-7-1.85-9.89c-1.22-1.94-3.52-2.9-6.88-2.9-1,0-2.13,0-3.29.14s-2.2.21-3.1.34v39.34H706.28Z" style="fill: #fff"/>
      <path d="M804.92,183.5c-1.29.39-2.78.76-4.45,1.12s-3.44.66-5.29.92-3.71.47-5.62.63-3.73.24-5.47.24a32,32,0,0,1-11.24-1.84,22.59,22.59,0,0,1-8.33-5.28,22.85,22.85,0,0,1-5.19-8.33,31.93,31.93,0,0,1-1.79-11,37.74,37.74,0,0,1,1.55-11.19,24.2,24.2,0,0,1,4.46-8.48,19.07,19.07,0,0,1,7.12-5.33,23.82,23.82,0,0,1,9.64-1.84,22.63,22.63,0,0,1,5.38.58,29.69,29.69,0,0,1,4.8,1.65V112.28L804.92,110Zm-32.65-24.22q0,6.69,3,10.76t8.92,4.07c1.29,0,2.48-.05,3.58-.15s2-.21,2.72-.34V147.36a12.5,12.5,0,0,0-3.54-1.45,17,17,0,0,0-4.41-.58Q772.27,145.33,772.27,159.28Z" style="fill: #fff"/>
    </g>
    <g>
      <path d="M186.69,37a113,113,0,1,0,113,113A113,113,0,0,0,186.69,37Zm0,208a95,95,0,1,1,95-95A95,95,0,0,1,186.69,245Z" style="fill: #fff"/>
      <g style="opacity: 0.3">
        <path d="M281.69,150A95,95,0,0,1,95.4,176.38c1.63-2.52,3.18-4.83,3.18-4.83,10.38-15.79,32.63-36.88,71.45-9.79,16.36,11.39,30.43,15.19,41.21,12.69a31.83,31.83,0,0,0,10.08-4.5l.1-.1a38.38,38.38,0,0,0,11.17-11.49c5.19-8.8,8.08-18.19,9.58-23.19,5.79-19.08,12-32.47,22.15-39,0,0,.21-.1.51-.23A94.54,94.54,0,0,1,281.69,150Z" style="fill: #fff;fill-rule: evenodd"/>
      </g>
      <g>
        <path d="M134.57,128.72a90.08,90.08,0,0,1,10.68-2.24,87.84,87.84,0,0,1,13.73-1,33.23,33.23,0,0,1,12.15,1.91,18.26,18.26,0,0,1,7.69,5.39,21.06,21.06,0,0,1,4,8.29,44,44,0,0,1,1.2,10.68v32.37H167.81V153.68q0-7.85-2.07-11.12T158,139.29c-1.16,0-2.4.06-3.71.16s-2.47.24-3.48.39v44.25H134.57Z" style="fill: #fff"/>
        <path d="M223.4,185.62q-18.42,0-28.07-10.25t-9.64-29.1a44.77,44.77,0,0,1,2.94-16.73,36.07,36.07,0,0,1,8.06-12.43,33.88,33.88,0,0,1,12.21-7.69,44.13,44.13,0,0,1,15.37-2.61,49.4,49.4,0,0,1,8.72.71,57.4,57.4,0,0,1,6.87,1.63,34.24,34.24,0,0,1,4.9,1.91c1.31.65,2.25,1.16,2.84,1.53l-4.91,13.73a40.57,40.57,0,0,0-8.12-3.16,38.82,38.82,0,0,0-10.52-1.31,23.3,23.3,0,0,0-7.68,1.31,17.25,17.25,0,0,0-6.65,4.2,20.74,20.74,0,0,0-4.63,7.46,31.16,31.16,0,0,0-1.75,11.12,39.4,39.4,0,0,0,1.15,9.76,20.78,20.78,0,0,0,3.7,7.79,17.75,17.75,0,0,0,6.71,5.18,23.87,23.87,0,0,0,10,1.9,45.8,45.8,0,0,0,6.64-.43,49,49,0,0,0,5.24-1,27.45,27.45,0,0,0,4-1.36c1.16-.51,2.21-1,3.16-1.42L248.69,180a39.93,39.93,0,0,1-10.14,3.92A59.18,59.18,0,0,1,223.4,185.62Z" style="fill: #fff"/>
      </g>
    </g>
  </g>
</svg>
