<svg id="Layer_1" data-name="Layer 1" xmlns="http://www.w3.org/2000/svg" viewBox="0 0 900 300">
  <title>logo-nreport copy</title>
  <g>
    <text transform="translate(397.06 185.15)" style="font-size: 96.89977264404297px;fill: #fff;font-family: Ubuntu-Bold, Ubuntu;font-weight: 700;letter-spacing: -0.034996091205570776em">n<tspan x="53.68" y="0" style="letter-spacing: -0.059999777967563894em">R</tspan><tspan x="112.5" y="0" style="letter-spacing: -0.03500113023958166em">eport</tspan></text>
    <g>
      <path d="M262.06,37a113,113,0,1,0,113,113A113,113,0,0,0,262.06,37Zm0,208a95,95,0,1,1,95-95A95,95,0,0,1,262.06,245Z" style="fill: #fff"/>
      <g style="opacity: 0.3">
        <path d="M357.06,150a95,95,0,0,1-186.29,26.38c1.63-2.52,3.19-4.83,3.19-4.83,10.37-15.79,32.63-36.88,71.44-9.79,16.37,11.39,30.44,15.19,41.21,12.69a31.63,31.63,0,0,0,10.08-4.5l.1-.1A38.41,38.41,0,0,0,308,158.36c5.19-8.8,8.08-18.19,9.58-23.19,5.79-19.08,12-32.47,22.15-39,0,0,.21-.1.51-.23A94.53,94.53,0,0,1,357.06,150Z" style="fill: #fff;fill-rule: evenodd"/>
      </g>
      <text transform="translate(200.46 184.09)" style="font-size: 109px;fill: #fff;font-family: Ubuntu-Bold, Ubuntu;font-weight: 700;letter-spacing: -0.09999910407110092em">Rp</text>
    </g>
  </g>
</svg>
