<svg id="Layer_1" data-name="Layer 1" xmlns="http://www.w3.org/2000/svg" viewBox="0 0 900 300">
  <title>logo-nagenda copy</title>
  <g>
    <text transform="translate(381.27 185.15)" style="font-size: 96.89977264404297px;fill: #fff;font-family: Ubuntu-Bold, Ubuntu;font-weight: 700;letter-spacing: -0.034996091205570776em">n<tspan x="53.68" y="0" style="letter-spacing: -0.04598118534929206em">A</tspan><tspan x="119.09" y="0" style="letter-spacing: -0.03500113023958166em">genda</tspan></text>
    <g>
      <path d="M246.27,37a113,113,0,1,0,113,113A113,113,0,0,0,246.27,37Zm0,208a95,95,0,1,1,95-95A95,95,0,0,1,246.27,245Z" style="fill: #fff"/>
      <g style="opacity: 0.3">
        <path d="M341.27,150A95,95,0,0,1,155,176.38c1.63-2.52,3.18-4.83,3.18-4.83,10.38-15.79,32.63-36.88,71.45-9.79C246,173.15,260,177,270.82,174.45A31.83,31.83,0,0,0,280.9,170l.1-.1a38.38,38.38,0,0,0,11.17-11.49c5.19-8.8,8.09-18.19,9.58-23.19,5.79-19.08,12-32.47,22.15-39a5.38,5.38,0,0,1,.52-.23A94.61,94.61,0,0,1,341.27,150Z" style="fill: #fff;fill-rule: evenodd"/>
      </g>
      <text transform="translate(182.86 184.09)" style="font-size: 109px;fill: #fff;font-family: Ubuntu-Bold, Ubuntu;font-weight: 700;letter-spacing: -0.11098767201834862em">A<tspan x="66.49" y="0" style="letter-spacing: -0.09999910407110092em">g</tspan></text>
    </g>
  </g>
</svg>
