<svg width="40" height="40" viewBox="0 0 40 40" fill="none" xmlns="http://www.w3.org/2000/svg">
<g clip-path="url(#clip0)">
<path d="M20.0234 40C20.391 40 20.6895 39.7012 20.6895 39.3332V35.3333C20.6895 34.9652 20.391 34.6667 20.0234 34.6667C19.6558 34.6667 19.3574 34.9652 19.3574 35.3333V39.3332C19.3574 39.7012 19.6558 40 20.0234 40Z" fill="#FBFF00"/>
<path d="M20.0234 5.33325C20.391 5.33325 20.6895 5.03479 20.6895 4.66675V0.666809C20.6895 0.298767 20.391 0 20.0234 0C19.6558 0 19.3574 0.298767 19.3574 0.666809V4.66675C19.3574 5.03479 19.6558 5.33325 20.0234 5.33325Z" fill="#FBFF00"/>
<path d="M35.3387 20.6668H39.334C39.7016 20.6668 40 20.368 40 20C40 19.632 39.7016 19.3332 39.334 19.3332H35.3387C34.9711 19.3332 34.673 19.632 34.673 20C34.673 20.368 34.9711 20.6668 35.3387 20.6668Z" fill="#FBFF00"/>
<path d="M0.712519 20.6668H4.70781C5.07542 20.6668 5.37354 20.368 5.37354 20C5.37354 19.632 5.07542 19.3332 4.70781 19.3332H0.712519C0.344905 19.3332 0.0464858 19.632 0.0464858 20C0.0464858 20.368 0.344905 20.6668 0.712519 20.6668V20.6668Z" fill="#FBFF00"/>
<path d="M23.9075 32C24.027 32 24.1475 31.9722 24.2592 31.9136C24.5771 31.7473 24.7439 31.3785 24.6639 31.02L22.5534 21.5998H26.2378C26.5425 21.5998 26.8181 21.4167 26.9447 21.1325C27.0713 20.848 27.0247 20.5133 26.8252 20.2767L16.7265 8.2765C16.4925 7.99817 16.1049 7.92053 15.7874 8.0868C15.4687 8.25306 15.3016 8.62221 15.3827 8.98037L17.4932 18.3998H13.8088C13.504 18.3998 13.2284 18.5829 13.1018 18.8671C12.9753 19.1517 13.0218 19.4864 13.2213 19.723L23.3201 31.7231C23.4715 31.9041 23.6874 32 23.9075 32ZM24.5366 19.9998H21.5769C21.3401 19.9998 21.1164 20.1111 20.9695 20.3016C20.822 20.4916 20.7676 20.7414 20.8202 20.9798L22.4478 28.2441L15.51 19.9998H18.4697C18.7065 19.9998 18.9302 19.8885 19.0777 19.6981C19.2246 19.508 19.2797 19.2582 19.2271 19.0198L17.5988 11.7556L24.5366 19.9998Z" fill="#FBFF00"/>
<path d="M6.36823 34.3375C6.53863 34.3375 6.70902 34.2719 6.83887 34.1422L9.66365 31.3141C9.92397 31.0535 9.92397 30.632 9.66365 30.3714C9.40333 30.1108 8.98237 30.1108 8.72206 30.3714L5.89728 33.1995C5.63697 33.4601 5.63697 33.8812 5.89728 34.1422C6.02714 34.2719 6.19784 34.3375 6.36823 34.3375V34.3375Z" fill="#FBFF00"/>
<path d="M30.8527 9.82391C31.0231 9.82391 31.1938 9.75861 31.3236 9.6286L34.149 6.80054C34.4093 6.53992 34.4093 6.11877 34.149 5.85785C33.8893 5.59723 33.4677 5.59723 33.2074 5.85785L30.382 8.68591C30.1214 8.94653 30.1214 9.36798 30.382 9.6286C30.5119 9.75922 30.6829 9.82391 30.8527 9.82391Z" fill="#FBFF00"/>
<path d="M33.6781 34.3375C33.8484 34.3375 34.0191 34.2719 34.149 34.1422C34.4093 33.8812 34.4093 33.4601 34.149 33.1995L31.3236 30.3714C31.063 30.1108 30.6417 30.1108 30.382 30.3714C30.1214 30.632 30.1214 31.0535 30.382 31.3141L33.2074 34.1422C33.3373 34.2719 33.5077 34.3375 33.6781 34.3375V34.3375Z" fill="#FBFF00"/>
<path d="M9.19301 9.82391C9.3634 9.82391 9.5338 9.75861 9.66365 9.6286C9.92397 9.36798 9.92397 8.94653 9.66365 8.68591L6.83887 5.85785C6.57856 5.59723 6.1579 5.59723 5.89728 5.85785C5.63697 6.11877 5.63697 6.53992 5.89728 6.80054L8.72206 9.6286C8.85252 9.75922 9.02261 9.82391 9.19301 9.82391V9.82391Z" fill="#FBFF00"/>
</g>
<defs>
<clipPath id="clip0">
<rect width="40" height="40" fill="white"/>
</clipPath>
</defs>
</svg>
