<svg width="40" height="40" viewBox="0 0 40 40" fill="none" xmlns="http://www.w3.org/2000/svg">
<path d="M36.4542 6.90711C30.9571 5.39915 25.4277 3.05111 20.4638 0.116894C20.2001 -0.0389647 19.8729 -0.0389647 19.6093 0.116894C14.5021 3.1354 9.27151 5.35641 3.61834 6.90711C3.25314 7.00719 3 7.33953 3 7.71867V16.316C3 25.1693 7.07954 31.0296 10.5019 34.3867C14.1864 38.0012 18.4783 40 20.0365 40C21.5946 40 25.8865 38.0012 29.571 34.3867C32.9933 31.0297 37.0726 25.1694 37.0726 16.316V7.71859C37.0726 7.33953 36.8194 7.00719 36.4542 6.90711ZM35.3917 16.3159C35.3917 24.5849 31.5867 30.0532 28.3945 33.1846C24.7713 36.7389 20.8975 38.317 20.0365 38.317C19.1756 38.317 15.3015 36.7389 11.6782 33.1846C8.4861 30.0532 4.68093 24.5849 4.68093 16.3159V8.35734C10.087 6.82063 15.1216 4.67602 20.0367 1.81642C24.8291 4.60016 30.1148 6.85141 35.3917 8.35703V16.3159Z" fill="#A771FE"/>
<path d="M12.5868 8.26319C12.4167 7.83077 11.9288 7.61835 11.4968 7.78874C9.99539 8.381 8.45437 8.92615 6.91656 9.40912C6.56611 9.51928 6.32764 9.84428 6.32764 10.2119V13.4612C6.32764 13.9259 6.70399 14.3026 7.16806 14.3026C7.63213 14.3026 8.00849 13.9259 8.00849 13.4612V10.8269C9.38805 10.38 10.7661 9.88568 12.1129 9.35436C12.5448 9.18412 12.757 8.69561 12.5868 8.26319Z" fill="#A771FE"/>
<path d="M14.1837 8.42282C14.2964 8.42282 14.4109 8.40009 14.5207 8.35212L14.5361 8.3454C14.9613 8.15884 15.1528 7.6633 14.9665 7.23775C14.78 6.81205 14.2822 6.61947 13.8575 6.80588L13.8439 6.81174C13.4185 6.99775 13.2263 7.49291 13.4121 7.91869C13.55 8.23478 13.8594 8.42282 14.1837 8.42282Z" fill="#A771FE"/>
<path d="M30.0496 27.1314C29.6612 26.8773 29.1404 26.9866 28.8862 27.3756C28.1937 28.4368 27.3812 29.4531 26.471 30.3958C25.7225 31.1709 24.9114 31.8934 24.0603 32.5431C23.6913 32.8248 23.6203 33.3527 23.9016 33.7223C24.0671 33.9395 24.3173 34.0537 24.5705 34.0537C24.7482 34.0537 24.9273 33.9975 25.0795 33.8813C25.9976 33.1804 26.8723 32.4013 27.6794 31.5655C28.6634 30.5464 29.5429 29.4464 30.2934 28.296C30.5474 27.907 30.4381 27.3856 30.0496 27.1314Z" fill="#A771FE"/>
<path d="M22.1089 33.8627L22.0607 33.8911C21.659 34.124 21.5218 34.6387 21.7543 35.0408C21.9101 35.3103 22.1922 35.4608 22.4824 35.4608C22.6252 35.4608 22.7702 35.4243 22.9027 35.3474L22.9583 35.3146C23.3588 35.0798 23.4934 34.5644 23.2588 34.1634C23.0241 33.7625 22.5092 33.6281 22.1089 33.8627Z" fill="#A771FE"/>
<path d="M14.308 18.2827C13.7919 17.766 13.1056 17.4816 12.3757 17.4816C11.6457 17.4816 10.9594 17.7661 10.4431 18.2827C9.37769 19.3496 9.37769 21.0855 10.4431 22.1523L15.4057 27.1206C15.9219 27.6371 16.6082 27.9216 17.3382 27.9216C18.0682 27.9216 18.7545 27.6371 19.2707 27.1204L29.6305 16.7484C30.6959 15.6813 30.6959 13.9456 29.6304 12.8791C29.1143 12.3624 28.428 12.078 27.6979 12.078C26.9679 12.078 26.2816 12.3625 25.7654 12.8791L17.3381 21.3162L14.308 18.2827ZM26.954 14.0691C27.1526 13.8703 27.4169 13.7608 27.698 13.7608C27.9792 13.7608 28.2433 13.8703 28.442 14.0691C28.8521 14.4797 28.8521 15.1479 28.4419 15.5586L18.0821 25.9305C17.8836 26.1293 17.6192 26.2388 17.3382 26.2388C17.0571 26.2388 16.7928 26.1293 16.5941 25.9305L11.6316 20.9624C11.2214 20.5517 11.2214 19.8834 11.6315 19.4729C11.8301 19.274 12.0944 19.1644 12.3756 19.1644C12.6568 19.1644 12.9209 19.2739 13.1195 19.4727L16.7438 23.1013C16.9015 23.259 17.1151 23.3477 17.3381 23.3477C17.561 23.3477 17.7747 23.2591 17.9322 23.1013L26.954 14.0691Z" fill="#A771FE"/>
</svg>
