<svg width="40" height="40" viewBox="0 0 40 40" fill="none" xmlns="http://www.w3.org/2000/svg">
<g opacity="1.1">
<path d="M33.4418 8.98437C35.8139 11.375 36.186 14.9844 34.5116 17.7969C34.3255 18.125 34.7906 18.7344 34.7906 18.7344H36.093C38.1395 15.2656 37.6744 10.6719 34.7441 7.67187C31.2558 4.10938 25.5813 4.10938 22.093 7.67187L20.186 9.59375L18.279 7.625C16.5116 5.89062 14.2325 5 11.9069 5C9.62786 5 7.34879 5.89062 5.58135 7.67187C2.6046 10.6719 2.186 15.2656 4.23251 18.7344L5.86042 17.8437C4.186 15.0781 4.51158 11.4219 6.93018 8.98437C8.32553 7.57812 10.1395 6.875 11.9534 6.875C13.7674 6.875 15.5813 7.57812 16.9767 8.98437L19.5348 11.6094C19.9069 11.9844 20.4651 11.9844 20.8372 11.6094L23.3953 8.98437C26.186 6.17187 30.6511 6.17187 33.4418 8.98437Z" fill="#17F1D7"/>
<path d="M29.3487 23.3281C26.279 26.4687 23.2092 29.5625 20.1394 32.7031L10.9301 23.3281L9.67432 24.6875L19.4883 34.6719C19.8604 35.0469 20.4185 35.0469 20.7906 34.6719C24.1394 31.3437 27.4418 27.9687 30.7441 24.5938C31.1627 24.1719 29.3487 23.3281 29.3487 23.3281Z" fill="#17F1D7"/>
<path d="M22.5116 27.6875C22.4651 27.6875 22.4186 27.6875 22.3721 27.6875C22 27.6406 21.7209 27.4062 21.6279 27.0781L17.3023 14.6562L13.7209 21.5C13.5814 21.7812 13.2558 22.0156 12.8837 22.0156H0.930233C0.418605 22.0156 0 21.5937 0 21.125C0 20.6562 0.418605 20.2344 0.930233 20.2344H12.3256L16.6512 11.9844C16.8372 11.6562 17.1628 11.4687 17.5349 11.5156C17.907 11.5625 18.2326 11.7969 18.3721 12.125L22.7907 24.7344L25.7209 20.4687C25.907 20.2344 26.186 20.0469 26.5116 20.0469H39.0698C39.5814 20.0469 40 20.4687 40 20.9375C40 21.4062 39.5349 21.875 39.0233 21.875H26.9767L23.3023 27.2656C23.1163 27.5 22.8372 27.6875 22.5116 27.6875Z" fill="#17F1D7"/>
<path d="M5.02349 19.2031C5.53725 19.2031 5.95373 18.7834 5.95373 18.2656C5.95373 17.7479 5.53725 17.3281 5.02349 17.3281C4.50974 17.3281 4.09326 17.7479 4.09326 18.2656C4.09326 18.7834 4.50974 19.2031 5.02349 19.2031Z" fill="#17F1D7"/>
<path d="M10.2789 24.9219C10.7926 24.9219 11.2091 24.5021 11.2091 23.9844C11.2091 23.4666 10.7926 23.0469 10.2789 23.0469C9.76511 23.0469 9.34863 23.4666 9.34863 23.9844C9.34863 24.5021 9.76511 24.9219 10.2789 24.9219Z" fill="#17F1D7"/>
<path d="M30.0464 24.9219C30.5602 24.9219 30.9767 24.5021 30.9767 23.9844C30.9767 23.4666 30.5602 23.0469 30.0464 23.0469C29.5327 23.0469 29.1162 23.4666 29.1162 23.9844C29.1162 24.5021 29.5327 24.9219 30.0464 24.9219Z" fill="#17F1D7"/>
<path d="M35.3023 19.2031C35.8161 19.2031 36.2325 18.7834 36.2325 18.2656C36.2325 17.7479 35.8161 17.3281 35.3023 17.3281C34.7885 17.3281 34.3721 17.7479 34.3721 18.2656C34.3721 18.7834 34.7885 19.2031 35.3023 19.2031Z" fill="#17F1D7"/>
</g>
</svg>
