<svg width="40" height="40" viewBox="0 0 40 40" fill="none" xmlns="http://www.w3.org/2000/svg">
<path d="M14.8923 20.897L10.7259 10.7309C10.6068 10.4319 10.3092 10.2525 10.0116 10.1927C9.71402 10.1927 9.41641 10.3721 9.23785 10.6711L4.41665 20.897C4.17856 21.0166 4 21.3156 4 21.6146C4 24.7242 6.49988 27.2359 9.59497 27.2957C9.59497 27.2957 9.59497 27.2957 9.6545 27.2957H9.71402C9.71402 27.2957 9.71402 27.2957 9.77354 27.2957C12.8686 27.2359 15.3685 24.7242 15.3685 21.6146C15.309 21.3156 15.1304 21.0166 14.8923 20.897ZM9.9521 13.0631L13.1067 20.7774H6.32132L9.9521 13.0631ZM9.6545 25.6213C7.74982 25.6213 6.20228 24.2458 5.78563 22.4518H13.5234C13.1662 24.2458 11.5592 25.5615 9.6545 25.6213Z" fill="#FF7A2F"/>
<path d="M30.4272 38H10.0115C9.53535 38 9.17822 37.6412 9.17822 37.1628C9.17822 36.6844 9.53535 36.3256 10.0115 36.3256H30.4272C30.9034 36.3256 31.2605 36.6844 31.2605 37.1628C31.2605 37.6412 30.9034 38 30.4272 38Z" fill="#FF7A2F"/>
<path d="M35.4866 20.8372L31.3201 10.6711C31.2011 10.3721 30.9035 10.1927 30.6059 10.1329C30.3083 10.1329 30.0107 10.3123 29.8321 10.6113L25.0109 20.8372C24.7728 20.9568 24.5942 21.2558 24.5942 21.5548C24.5942 24.6645 27.0941 27.1761 30.1892 27.2359C30.1892 27.2359 30.1892 27.2359 30.2487 27.2359H30.3083C30.3083 27.2359 30.3083 27.2359 30.3678 27.2359C33.4629 27.1761 35.9628 24.6645 35.9628 21.5548C35.9032 21.2558 35.7247 20.9568 35.4866 20.8372ZM30.5463 13.0033L33.701 20.7176H26.9156L30.5463 13.0033ZM30.2487 25.5615C28.3441 25.5615 26.7965 24.1861 26.3799 22.392H34.1176C33.7605 24.1861 32.1534 25.5017 30.2487 25.5615Z" fill="#FF7A2F"/>
<path d="M30.4272 6.72425H22.8085C22.5705 5.88704 21.8562 5.16944 21.0229 4.93023V2.83721C21.0229 2.3588 20.6658 2 20.2491 2C19.773 2 19.4158 2.3588 19.4158 2.83721V4.93023C18.5825 5.22924 17.9278 5.88704 17.6897 6.72425H10.0115C9.53535 6.72425 9.17822 7.08306 9.17822 7.56146C9.17822 8.03987 9.53535 8.39867 10.0115 8.39867H17.6897C17.9873 9.17608 18.5825 9.83389 19.4158 10.0731V33.3356H14.178C13.7018 33.3356 13.3447 33.6944 13.3447 34.1728C13.3447 34.6512 13.7018 35.01 14.178 35.01H26.2608C26.7369 35.01 27.094 34.6512 27.094 34.1728C27.094 33.6944 26.7369 33.3356 26.2608 33.3356H21.0229V10.0731C21.8562 9.83389 22.5109 9.17608 22.749 8.33887H30.4272C30.9034 8.33887 31.2605 7.98007 31.2605 7.50166C31.2605 7.02326 30.9034 6.72425 30.4272 6.72425ZM20.2491 8.57807C19.6539 8.57807 19.1778 8.09967 19.1778 7.50166C19.1778 6.90365 19.6539 6.42525 20.2491 6.42525C20.8443 6.42525 21.3205 6.90365 21.3205 7.50166C21.3205 8.09967 20.8443 8.57807 20.2491 8.57807Z" fill="#FF7A2F"/>
</svg>
