<svg width="40" height="40" viewBox="0 0 40 40" fill="none" xmlns="http://www.w3.org/2000/svg">
<path d="M12.6521 34.0014H11.3203V35.3348H12.6521V34.0014Z" fill="#EF2FA2"/>
<path d="M15.3157 34.0014H13.9839V35.3348H15.3157V34.0014Z" fill="#EF2FA2"/>
<path d="M12.6521 26.0014H11.3203V27.3348H12.6521V26.0014Z" fill="#EF2FA2"/>
<path d="M15.3157 26.0014H13.9839V27.3348H15.3157V26.0014Z" fill="#EF2FA2"/>
<path d="M31.2969 10.0014C30.9116 10.0016 30.5268 10.0274 30.1449 10.0788C28.3505 4.08561 22.043 0.683529 16.0568 2.48003C11.492 3.84995 8.2737 7.93645 8.00801 12.7001C7.78094 12.6788 7.55254 12.6681 7.3248 12.6681C3.27943 12.6681 0 15.9514 0 20.0014C0 24.0515 3.27943 27.3348 7.3248 27.3348H8.65659V29.3348C8.65659 29.7029 8.95474 30.0014 9.32248 30.0014H10.6543V31.3348H9.32248C8.95474 31.3348 8.65659 31.6333 8.65659 32.0014V37.3348C8.65659 37.7029 8.95474 38.0014 9.32248 38.0014H30.631C30.9987 38.0014 31.2969 37.7029 31.2969 37.3348V32.0014C31.2969 31.6333 30.9987 31.3348 30.631 31.3348H29.2992V30.0014H30.631C30.9987 30.0014 31.2969 29.7029 31.2969 29.3348V27.3348C36.0778 27.3348 39.9535 23.4546 39.9535 18.6681C39.9535 13.8816 36.0778 10.0014 31.2969 10.0014ZM29.9651 32.6681V36.6681H9.98837V32.6681H29.9651ZM11.986 31.3348V30.0014H27.9674V31.3348H11.986ZM29.9651 28.6681H9.98837V24.6681H29.9651V28.6681ZM32.7946 25.8461C32.302 25.9493 31.8001 26.0013 31.2969 26.0014V24.0014C31.2969 23.6333 30.9987 23.3348 30.631 23.3348H23.9721V17.3348H30.0876C30.4554 18.3762 31.5968 18.9219 32.6369 18.5537C33.6771 18.1855 34.2222 17.0428 33.8544 16.0014C33.4867 14.96 32.3453 14.4143 31.3051 14.7825C30.7362 14.9839 30.2887 15.4319 30.0876 16.0014H23.3062C22.9385 16.0014 22.6403 16.2999 22.6403 16.6681V23.3348H19.3108V10.6681H22.0969C22.4647 11.7095 23.6061 12.2553 24.6462 11.887C25.6864 11.5189 26.2315 10.3761 25.8637 9.33478C25.496 8.29336 24.3546 7.74761 23.3144 8.11586C22.7455 8.3172 22.298 8.76528 22.0969 9.33478H18.645C18.2772 9.33478 17.9791 9.63328 17.9791 10.0014V23.3348H14.6496V18.6681C14.6496 18.2999 14.3515 18.0014 13.9837 18.0014H10.5317C10.164 16.96 9.02258 16.4143 7.98246 16.7825C6.94233 17.1508 6.39714 18.2934 6.76496 19.3348C7.13278 20.3761 8.27412 20.9219 9.31424 20.5537C9.88316 20.3524 10.3306 19.9043 10.5317 19.3348H13.3178V23.3348H9.32248C8.95474 23.3348 8.65659 23.6333 8.65659 24.0014V26.0014H7.3248C4.01491 26.0014 1.33178 23.3151 1.33178 20.0014C1.33178 16.6877 4.01491 14.0014 7.3248 14.0014C7.73008 14.0018 8.13428 14.0426 8.5314 14.1234C8.72884 14.1621 8.93318 14.1105 9.08875 13.9828C9.24374 13.8539 9.33213 13.6618 9.32914 13.4601C9.32914 13.4468 9.32314 13.3481 9.32248 13.3348C9.31882 7.81486 13.7854 3.33711 19.2989 3.33345C23.9163 3.33036 27.9333 6.49795 29.0122 10.9928C29.0961 11.3432 29.4429 11.5634 29.7953 11.4901C33.755 10.6609 37.6363 13.2024 38.4645 17.1668C39.2928 21.1311 36.7542 25.0169 32.7946 25.8461ZM31.2969 16.6681C31.2969 16.2999 31.595 16.0014 31.9628 16.0014C32.3305 16.0014 32.6287 16.2999 32.6287 16.6681C32.6287 17.0363 32.3305 17.3348 31.9628 17.3348C31.595 17.3348 31.2969 17.0363 31.2969 16.6681ZM23.3062 10.0014C23.3062 9.63328 23.6044 9.33478 23.9721 9.33478C24.3398 9.33478 24.638 9.63328 24.638 10.0014C24.638 10.3696 24.3398 10.6681 23.9721 10.6681C23.6044 10.6681 23.3062 10.3696 23.3062 10.0014ZM9.32248 18.6681C9.32248 19.0363 9.02433 19.3348 8.65659 19.3348C8.28885 19.3348 7.9907 19.0363 7.9907 18.6681C7.9907 18.2999 8.28885 18.0014 8.65659 18.0014C9.02433 18.0014 9.32248 18.2999 9.32248 18.6681Z" fill="#EF2FA2"/>
</svg>
