<svg xmlns="http://www.w3.org/2000/svg" xmlns:xlink="http://www.w3.org/1999/xlink" viewBox="0 0 168.53 173.48">
  <defs>
    <clipPath id="clip-path" transform="translate(-2.48 -3.91)">
      <path id="SVGID" d="M0,84.55C11,70.11,32.11,54.4,65,78.72c12.74,9.44,25.6,16.43,35.73,17.08a27.74,27.74,0,0,0,10-1.68l.05,0a24.19,24.19,0,0,0,11.79-8.32c12.76-17.63,12.94-45.1,32.64-54.94l-5.54-16.38L121.29,6.57,86.79,0,48.59,8.21,18.2,27.93,1.77,54.63Z" style="fill: none"/>
    </clipPath>
    <clipPath id="clip-path-2" transform="translate(-2.48 -3.91)">
      <path id="SVGID-2" data-name="SVGID" d="M11.78,133.59c6.48-14,26.1-43.92,67.78-16.33C129,150,142.3,86.93,143.38,81.84c5-23.65,14.1-33.86,21.11-38.27l11.43,36.94-2.87,35.32-9.86,19.31-14.38,18.48-27.93,24.23-42.3,3.29-32.86-9.45L20.66,153.21Z" style="fill: none"/>
    </clipPath>
  </defs>
  <title>iconess</title>
  <g id="Layer_2" data-name="Layer 2">
    <g id="Layer_1-2" data-name="Layer 1">
      <g>
        <g style="clip-path: url(#clip-path)">
          <g>
            <g>
              <g style="opacity: 0.17">
                <path d="M53.38,151.38c26.6,0,52.08-23.39,50.85-50.85S81.89,49.67,53.38,49.67c-26.61,0-52.09,23.39-50.86,50.86s22.34,50.85,50.86,50.85Z" transform="translate(-2.48 -3.91)" style="fill: #029adc"/>
              </g>
              <g style="opacity: 0.17">
                <path d="M64.58,170.28c26.6,0,52.08-23.4,50.85-50.86S93.09,68.56,64.58,68.56C38,68.56,12.49,92,13.72,119.42s22.34,50.86,50.86,50.86Z" transform="translate(-2.48 -3.91)" style="fill: #029adc"/>
              </g>
              <g style="opacity: 0.17">
                <path d="M87.36,177.4c26.6,0,52.08-23.4,50.85-50.86S115.87,75.68,87.36,75.68c-26.61,0-52.09,23.39-50.86,50.86S58.85,177.4,87.36,177.4Z" transform="translate(-2.48 -3.91)" style="fill: #029adc"/>
              </g>
              <g style="opacity: 0.17">
                <path d="M101.59,174.55c26.61,0,52.09-23.39,50.86-50.86s-22.34-50.86-50.86-50.86c-26.6,0-52.08,23.39-50.85,50.86s22.34,50.86,50.85,50.86Z" transform="translate(-2.48 -3.91)" style="fill: #029adc"/>
              </g>
              <g style="opacity: 0.17">
                <path d="M120.1,151.77c26.61,0,52.09-23.4,50.86-50.86S148.62,50.05,120.1,50.05c-26.6,0-52.08,23.39-50.85,50.86s22.34,50.86,50.85,50.86Z" transform="translate(-2.48 -3.91)" style="fill: #029adc"/>
              </g>
              <g style="opacity: 0.17">
                <path d="M120.1,133.26c26.61,0,52.09-23.4,50.86-50.86S148.62,31.54,120.1,31.54C93.5,31.54,68,54.93,69.25,82.4s22.34,50.86,50.85,50.86Z" transform="translate(-2.48 -3.91)" style="fill: #029adc"/>
              </g>
              <g style="opacity: 0.17">
                <path d="M104.44,114.75c26.61,0,52.09-23.4,50.86-50.86S133,13,104.44,13c-26.6,0-52.09,23.39-50.85,50.86s22.34,50.86,50.85,50.86Z" transform="translate(-2.48 -3.91)" style="fill: #029adc"/>
              </g>
              <g style="opacity: 0.17">
                <path d="M63,114.55c26.6,0,52.09-23.39,50.86-50.85S91.55,12.84,63,12.84C36.44,12.84,11,36.23,12.18,63.7S34.53,114.55,63,114.55Z" transform="translate(-2.48 -3.91)" style="fill: #029adc"/>
              </g>
              <g style="opacity: 0.17">
                <path d="M84.51,105.63c26.6,0,52.09-23.39,50.86-50.86S113,3.91,84.51,3.91c-26.6,0-52.09,23.4-50.86,50.86S56,105.63,84.51,105.63Z" transform="translate(-2.48 -3.91)" style="fill: #029adc"/>
              </g>
              <g style="opacity: 0.17">
                <path d="M114.41,116.17c26.6,0,52.09-23.39,50.86-50.86s-22.35-50.85-50.86-50.85c-26.6,0-52.09,23.39-50.86,50.85s22.35,50.86,50.86,50.86Z" transform="translate(-2.48 -3.91)" style="fill: #029adc"/>
              </g>
              <g style="opacity: 0.17">
                <path d="M54,127.37c26.61,0,52.09-23.39,50.86-50.86S82.55,25.65,54,25.65C27.43,25.65,2,49.05,3.18,76.51S25.52,127.37,54,127.37Z" transform="translate(-2.48 -3.91)" style="fill: #029adc"/>
              </g>
            </g>
            <g>
              <g style="opacity: 0.17">
                <path d="M70.27,154.61c26.6,0,52.09-23.39,50.86-50.85S98.78,52.9,70.27,52.9c-26.6,0-52.09,23.39-50.86,50.86s22.35,50.85,50.86,50.85Z" transform="translate(-2.48 -3.91)" style="fill: #029adc"/>
              </g>
              <g style="opacity: 0.17">
                <path d="M101.59,156c26.61,0,52.09-23.39,50.86-50.86s-22.34-50.86-50.86-50.86c-26.6,0-52.08,23.39-50.85,50.86S73.08,156,101.59,156Z" transform="translate(-2.48 -3.91)" style="fill: #029adc"/>
              </g>
              <g style="opacity: 0.17">
                <path d="M108.71,136.1c26.61,0,52.09-23.39,50.86-50.85s-22.34-50.86-50.86-50.86c-26.6,0-52.08,23.39-50.85,50.86S80.2,136.1,108.71,136.1Z" transform="translate(-2.48 -3.91)" style="fill: #029adc"/>
              </g>
              <g style="opacity: 0.17">
                <path d="M84.51,124.71c26.6,0,52.09-23.39,50.86-50.85S113,23,84.51,23c-26.6,0-52.09,23.39-50.86,50.86S56,124.71,84.51,124.71Z" transform="translate(-2.48 -3.91)" style="fill: #029adc"/>
              </g>
              <g style="opacity: 0.17">
                <path d="M67.42,133.26c26.61,0,52.09-23.4,50.86-50.86S95.93,31.54,67.42,31.54c-26.6,0-52.08,23.39-50.85,50.86s22.34,50.86,50.85,50.86Z" transform="translate(-2.48 -3.91)" style="fill: #029adc"/>
              </g>
              <g style="opacity: 0.17">
                <path d="M57.46,146.07c26.6,0,52.08-23.39,50.85-50.86S86,44.36,57.46,44.36C30.85,44.36,5.37,67.75,6.6,95.21s22.34,50.86,50.86,50.86Z" transform="translate(-2.48 -3.91)" style="fill: #029adc"/>
              </g>
              <g style="opacity: 0.17">
                <path d="M80.24,148.92c26.6,0,52.09-23.39,50.86-50.86S108.75,47.2,80.24,47.2c-26.61,0-52.09,23.4-50.86,50.86s22.35,50.86,50.86,50.86Z" transform="translate(-2.48 -3.91)" style="fill: #029adc"/>
              </g>
              <g style="opacity: 0.17">
                <path d="M103,144.65c26.6,0,52.09-23.4,50.86-50.86S131.53,42.93,103,42.93c-26.6,0-52.09,23.39-50.86,50.86S74.51,144.65,103,144.65Z" transform="translate(-2.48 -3.91)" style="fill: #029adc"/>
              </g>
              <g style="opacity: 0.17">
                <path d="M100.17,126.14c26.6,0,52.09-23.4,50.86-50.86s-22.35-50.86-50.86-50.86c-26.6,0-52.09,23.39-50.86,50.86s22.35,50.86,50.86,50.86Z" transform="translate(-2.48 -3.91)" style="fill: #029adc"/>
              </g>
              <g style="opacity: 0.17">
                <path d="M70.27,131.83c26.6,0,52.09-23.39,50.86-50.86S98.78,30.12,70.27,30.12c-26.6,0-52.09,23.39-50.86,50.85s22.35,50.86,50.86,50.86Z" transform="translate(-2.48 -3.91)" style="fill: #029adc"/>
              </g>
              <g style="opacity: 0.17">
                <path d="M84.4,160.12c26.6,0,52.09-23.39,50.86-50.86S112.91,58.4,84.4,58.4c-26.6,0-52.09,23.39-50.86,50.86s22.35,50.86,50.86,50.86Z" transform="translate(-2.48 -3.91)" style="fill: #029adc"/>
              </g>
            </g>
            <g>
              <g style="opacity: 0.17">
                <path d="M85.93,143.22c26.61,0,52.09-23.39,50.86-50.85S114.44,41.51,85.93,41.51c-26.6,0-52.08,23.39-50.85,50.86s22.34,50.85,50.85,50.85Z" transform="translate(-2.48 -3.91)" style="fill: #fff"/>
              </g>
              <g style="opacity: 0.17">
                <path d="M80.24,146.07c26.6,0,52.09-23.39,50.86-50.86S108.75,44.36,80.24,44.36c-26.61,0-52.09,23.39-50.86,50.85s22.35,50.86,50.86,50.86Z" transform="translate(-2.48 -3.91)" style="fill: #fff"/>
              </g>
              <g style="opacity: 0.17">
                <path d="M98.75,150.34c26.6,0,52.09-23.39,50.85-50.86S127.26,48.63,98.75,48.63C72.14,48.63,46.66,72,47.89,99.48s22.35,50.86,50.86,50.86Z" transform="translate(-2.48 -3.91)" style="fill: #fff"/>
              </g>
              <g style="opacity: 0.17">
                <path d="M87.36,139.66c26.6,0,52.08-23.39,50.85-50.85S115.87,38,87.36,38C60.75,38,35.27,61.34,36.5,88.81s22.35,50.85,50.86,50.85Z" transform="translate(-2.48 -3.91)" style="fill: #fff"/>
              </g>
            </g>
          </g>
        </g>
        <g style="clip-path: url(#clip-path-2)">
          <g>
            <g>
              <g style="opacity: 0.17">
                <path d="M53.38,151.38c26.6,0,52.08-23.39,50.85-50.85S81.89,49.67,53.38,49.67c-26.61,0-52.09,23.39-50.86,50.86s22.34,50.85,50.86,50.85Z" transform="translate(-2.48 -3.91)" style="fill: #029adc"/>
              </g>
              <g style="opacity: 0.17">
                <path d="M64.58,170.28c26.6,0,52.08-23.4,50.85-50.86S93.09,68.56,64.58,68.56C38,68.56,12.49,92,13.72,119.42s22.34,50.86,50.86,50.86Z" transform="translate(-2.48 -3.91)" style="fill: #029adc"/>
              </g>
              <g style="opacity: 0.17">
                <path d="M87.36,177.4c26.6,0,52.08-23.4,50.85-50.86S115.87,75.68,87.36,75.68c-26.61,0-52.09,23.39-50.86,50.86S58.85,177.4,87.36,177.4Z" transform="translate(-2.48 -3.91)" style="fill: #029adc"/>
              </g>
              <g style="opacity: 0.17">
                <path d="M101.59,174.55c26.61,0,52.09-23.39,50.86-50.86s-22.34-50.86-50.86-50.86c-26.6,0-52.08,23.39-50.85,50.86s22.34,50.86,50.85,50.86Z" transform="translate(-2.48 -3.91)" style="fill: #029adc"/>
              </g>
              <g style="opacity: 0.17">
                <path d="M120.1,151.77c26.61,0,52.09-23.4,50.86-50.86S148.62,50.05,120.1,50.05c-26.6,0-52.08,23.39-50.85,50.86s22.34,50.86,50.85,50.86Z" transform="translate(-2.48 -3.91)" style="fill: #029adc"/>
              </g>
              <g style="opacity: 0.17">
                <path d="M120.1,133.26c26.61,0,52.09-23.4,50.86-50.86S148.62,31.54,120.1,31.54C93.5,31.54,68,54.93,69.25,82.4s22.34,50.86,50.85,50.86Z" transform="translate(-2.48 -3.91)" style="fill: #029adc"/>
              </g>
              <g style="opacity: 0.17">
                <path d="M104.44,114.75c26.61,0,52.09-23.4,50.86-50.86S133,13,104.44,13c-26.6,0-52.09,23.39-50.85,50.86s22.34,50.86,50.85,50.86Z" transform="translate(-2.48 -3.91)" style="fill: #029adc"/>
              </g>
              <g style="opacity: 0.17">
                <path d="M63,114.55c26.6,0,52.09-23.39,50.86-50.85S91.55,12.84,63,12.84C36.44,12.84,11,36.23,12.18,63.7S34.53,114.55,63,114.55Z" transform="translate(-2.48 -3.91)" style="fill: #029adc"/>
              </g>
              <g style="opacity: 0.17">
                <path d="M84.51,105.63c26.6,0,52.09-23.39,50.86-50.86S113,3.91,84.51,3.91c-26.6,0-52.09,23.4-50.86,50.86S56,105.63,84.51,105.63Z" transform="translate(-2.48 -3.91)" style="fill: #029adc"/>
              </g>
              <g style="opacity: 0.17">
                <path d="M114.41,116.17c26.6,0,52.09-23.39,50.86-50.86s-22.35-50.85-50.86-50.85c-26.6,0-52.09,23.39-50.86,50.85s22.35,50.86,50.86,50.86Z" transform="translate(-2.48 -3.91)" style="fill: #029adc"/>
              </g>
              <g style="opacity: 0.17">
                <path d="M54,127.37c26.61,0,52.09-23.39,50.86-50.86S82.55,25.65,54,25.65C27.43,25.65,2,49.05,3.18,76.51S25.52,127.37,54,127.37Z" transform="translate(-2.48 -3.91)" style="fill: #029adc"/>
              </g>
            </g>
            <g>
              <g style="opacity: 0.17">
                <path d="M70.27,154.61c26.6,0,52.09-23.39,50.86-50.85S98.78,52.9,70.27,52.9c-26.6,0-52.09,23.39-50.86,50.86s22.35,50.85,50.86,50.85Z" transform="translate(-2.48 -3.91)" style="fill: #029adc"/>
              </g>
              <g style="opacity: 0.17">
                <path d="M101.59,156c26.61,0,52.09-23.39,50.86-50.86s-22.34-50.86-50.86-50.86c-26.6,0-52.08,23.39-50.85,50.86S73.08,156,101.59,156Z" transform="translate(-2.48 -3.91)" style="fill: #029adc"/>
              </g>
              <g style="opacity: 0.17">
                <path d="M108.71,136.1c26.61,0,52.09-23.39,50.86-50.85s-22.34-50.86-50.86-50.86c-26.6,0-52.08,23.39-50.85,50.86S80.2,136.1,108.71,136.1Z" transform="translate(-2.48 -3.91)" style="fill: #029adc"/>
              </g>
              <g style="opacity: 0.17">
                <path d="M84.51,124.71c26.6,0,52.09-23.39,50.86-50.85S113,23,84.51,23c-26.6,0-52.09,23.39-50.86,50.86S56,124.71,84.51,124.71Z" transform="translate(-2.48 -3.91)" style="fill: #029adc"/>
              </g>
              <g style="opacity: 0.17">
                <path d="M67.42,133.26c26.61,0,52.09-23.4,50.86-50.86S95.93,31.54,67.42,31.54c-26.6,0-52.08,23.39-50.85,50.86s22.34,50.86,50.85,50.86Z" transform="translate(-2.48 -3.91)" style="fill: #029adc"/>
              </g>
              <g style="opacity: 0.17">
                <path d="M57.46,146.07c26.6,0,52.08-23.39,50.85-50.86S86,44.36,57.46,44.36C30.85,44.36,5.37,67.75,6.6,95.21s22.34,50.86,50.86,50.86Z" transform="translate(-2.48 -3.91)" style="fill: #029adc"/>
              </g>
              <g style="opacity: 0.17">
                <path d="M80.24,148.92c26.6,0,52.09-23.39,50.86-50.86S108.75,47.2,80.24,47.2c-26.61,0-52.09,23.4-50.86,50.86s22.35,50.86,50.86,50.86Z" transform="translate(-2.48 -3.91)" style="fill: #029adc"/>
              </g>
              <g style="opacity: 0.17">
                <path d="M103,144.65c26.6,0,52.09-23.4,50.86-50.86S131.53,42.93,103,42.93c-26.6,0-52.09,23.39-50.86,50.86S74.51,144.65,103,144.65Z" transform="translate(-2.48 -3.91)" style="fill: #029adc"/>
              </g>
              <g style="opacity: 0.17">
                <path d="M100.17,126.14c26.6,0,52.09-23.4,50.86-50.86s-22.35-50.86-50.86-50.86c-26.6,0-52.09,23.39-50.86,50.86s22.35,50.86,50.86,50.86Z" transform="translate(-2.48 -3.91)" style="fill: #029adc"/>
              </g>
              <g style="opacity: 0.17">
                <path d="M70.27,131.83c26.6,0,52.09-23.39,50.86-50.86S98.78,30.12,70.27,30.12c-26.6,0-52.09,23.39-50.86,50.85s22.35,50.86,50.86,50.86Z" transform="translate(-2.48 -3.91)" style="fill: #029adc"/>
              </g>
              <g style="opacity: 0.17">
                <path d="M84.4,160.12c26.6,0,52.09-23.39,50.86-50.86S112.91,58.4,84.4,58.4c-26.6,0-52.09,23.39-50.86,50.86s22.35,50.86,50.86,50.86Z" transform="translate(-2.48 -3.91)" style="fill: #029adc"/>
              </g>
            </g>
            <g>
              <g style="opacity: 0.17">
                <path d="M85.93,143.22c26.61,0,52.09-23.39,50.86-50.85S114.44,41.51,85.93,41.51c-26.6,0-52.08,23.39-50.85,50.86s22.34,50.85,50.85,50.85Z" transform="translate(-2.48 -3.91)" style="fill: #fff"/>
              </g>
              <g style="opacity: 0.17">
                <path d="M80.24,146.07c26.6,0,52.09-23.39,50.86-50.86S108.75,44.36,80.24,44.36c-26.61,0-52.09,23.39-50.86,50.85s22.35,50.86,50.86,50.86Z" transform="translate(-2.48 -3.91)" style="fill: #fff"/>
              </g>
              <g style="opacity: 0.17">
                <path d="M98.75,150.34c26.6,0,52.09-23.39,50.85-50.86S127.26,48.63,98.75,48.63C72.14,48.63,46.66,72,47.89,99.48s22.35,50.86,50.86,50.86Z" transform="translate(-2.48 -3.91)" style="fill: #fff"/>
              </g>
              <g style="opacity: 0.17">
                <path d="M87.36,139.66c26.6,0,52.08-23.39,50.85-50.85S115.87,38,87.36,38C60.75,38,35.27,61.34,36.5,88.81s22.35,50.85,50.86,50.85Z" transform="translate(-2.48 -3.91)" style="fill: #fff"/>
              </g>
            </g>
          </g>
        </g>
      </g>
    </g>
  </g>
</svg>
