<?xml version="1.0" encoding="utf-8"?>
<!-- Generator: Adobe Illustrator 23.0.4, SVG Export Plug-In . SVG Version: 6.00 Build 0)  -->
<svg version="1.1" id="Camada_1" xmlns="http://www.w3.org/2000/svg" xmlns:xlink="http://www.w3.org/1999/xlink" x="0px" y="0px"
	 viewBox="0 0 501.6 181.1" style="enable-background:new 0 0 501.6 181.1;" xml:space="preserve">
<style type="text/css">
	.st0{clip-path:url(#SVGID_2_);}
	.st1{opacity:0.17;}
	.st2{fill:#029ADC;}
	.st3{fill:#FFFFFF;}
	.st4{clip-path:url(#SVGID_4_);}
</style>
<title>logo-ness-health</title>
<g>
	<defs>
		<path id="SVGID_1_" d="M1.1,84.6c11-14.4,32.1-30.2,65-5.8c12.7,9.4,25.6,16.4,35.7,17.1c3.4,0.1,6.8-0.5,10-1.7h0.1
			c4.7-1.5,8.8-4.4,11.8-8.3c12.8-17.6,12.9-45.1,32.6-54.9l-5.5-16.4l-28.4-7.9L87.9,0L49.7,8.2L19.3,27.9L2.9,54.6L1.1,84.6z"/>
	</defs>
	<clipPath id="SVGID_2_">
		<use xlink:href="#SVGID_1_"  style="overflow:visible;"/>
	</clipPath>
	<g class="st0">
		<g>
			<g>
				<g class="st1">
					<path class="st2" d="M54.5,151.4c26.6,0,52.1-23.4,50.8-50.8S83,49.7,54.5,49.7c-26.6,0-52.1,23.4-50.9,50.9
						S26,151.4,54.5,151.4z"/>
				</g>
				<g class="st1">
					<path class="st2" d="M65.7,170.3c26.6,0,52.1-23.4,50.8-50.9S94.2,68.6,65.7,68.6c-26.6,0-52.1,23.4-50.9,50.9
						S37.2,170.3,65.7,170.3z"/>
				</g>
				<g class="st1">
					<path class="st2" d="M88.5,177.4c26.6,0,52.1-23.4,50.8-50.9S117,75.7,88.5,75.7c-26.6,0-52.1,23.4-50.9,50.9
						S60,177.4,88.5,177.4z"/>
				</g>
				<g class="st1">
					<path class="st2" d="M102.7,174.6c26.6,0,52.1-23.4,50.9-50.9s-22.3-50.9-50.9-50.9c-26.6,0-52.1,23.4-50.9,50.9
						S74.2,174.6,102.7,174.6z"/>
				</g>
				<g class="st1">
					<path class="st2" d="M121.2,151.8c26.6,0,52.1-23.4,50.9-50.9S149.7,50,121.2,50c-26.6,0-52.1,23.4-50.8,50.9
						S92.7,151.8,121.2,151.8z"/>
				</g>
				<g class="st1">
					<path class="st2" d="M121.2,133.3c26.6,0,52.1-23.4,50.9-50.9s-22.3-50.9-50.9-50.9c-26.6,0-52.1,23.4-50.8,50.9
						S92.7,133.3,121.2,133.3L121.2,133.3z"/>
				</g>
				<g class="st1">
					<path class="st2" d="M105.5,114.8c26.6,0,52.1-23.4,50.9-50.9S134.1,13,105.5,13c-26.6,0-52.1,23.4-50.9,50.9
						S77,114.7,105.5,114.8L105.5,114.8z"/>
				</g>
				<g class="st1">
					<path class="st2" d="M64.1,114.6c26.6,0,52.1-23.4,50.9-50.8S92.7,12.8,64.1,12.8c-26.6,0-52,23.4-50.8,50.9
						S35.6,114.6,64.1,114.6z"/>
				</g>
				<g class="st1">
					<path class="st2" d="M85.6,105.6c26.6,0,52.1-23.4,50.9-50.9S114.1,3.9,85.6,3.9C59,3.9,33.5,27.3,34.8,54.8
						S57.1,105.6,85.6,105.6z"/>
				</g>
				<g class="st1">
					<path class="st2" d="M115.5,116.2c26.6,0,52.1-23.4,50.9-50.9S144,14.5,115.5,14.5c-26.6,0-52.1,23.4-50.9,50.8
						C65.9,92.8,87,116.2,115.5,116.2z"/>
				</g>
				<g class="st1">
					<path class="st2" d="M55.1,127.4c26.6,0,52.1-23.4,50.9-50.9S83.7,25.6,55.1,25.6c-26.6,0-52,23.4-50.8,50.9
						S26.6,127.4,55.1,127.4z"/>
				</g>
			</g>
			<g>
				<g class="st1">
					<path class="st2" d="M71.4,154.6c26.6,0,52.1-23.4,50.9-50.8S99.9,52.9,71.4,52.9c-26.6,0-52.1,23.4-50.9,50.9
						S42.9,154.6,71.4,154.6z"/>
				</g>
				<g class="st1">
					<path class="st2" d="M102.7,156c26.6,0,52.1-23.4,50.9-50.9s-22.3-50.9-50.9-50.9c-26.6,0-52.1,23.4-50.9,50.9
						S74.2,156,102.7,156z"/>
				</g>
				<g class="st1">
					<path class="st2" d="M109.8,136.1c26.6,0,52.1-23.4,50.9-50.8s-22.3-50.9-50.9-50.9c-26.6,0-52.1,23.4-50.9,50.9
						S81.3,136.1,109.8,136.1z"/>
				</g>
				<g class="st1">
					<path class="st2" d="M85.6,124.7c26.6,0,52.1-23.4,50.9-50.8S114.1,23,85.6,23C59,23,33.5,46.4,34.8,73.9
						S57.1,124.7,85.6,124.7z"/>
				</g>
				<g class="st1">
					<path class="st2" d="M68.5,133.3c26.6,0,52.1-23.4,50.9-50.9S97,31.5,68.5,31.5c-26.6,0-52.1,23.4-50.8,50.9
						S40,133.3,68.5,133.3L68.5,133.3z"/>
				</g>
				<g class="st1">
					<path class="st2" d="M58.6,146.1c26.6,0,52.1-23.4,50.9-50.9S87.1,44.4,58.6,44.4C32,44.4,6.5,67.8,7.7,95.2
						S30,146.1,58.6,146.1z"/>
				</g>
				<g class="st1">
					<path class="st2" d="M81.3,148.9c26.6,0,52.1-23.4,50.9-50.9s-22.3-50.9-50.9-50.9c-26.6,0-52.1,23.4-50.9,50.9
						S52.8,148.9,81.3,148.9z"/>
				</g>
				<g class="st1">
					<path class="st2" d="M104.1,144.6c26.6,0,52.1-23.4,50.9-50.9s-22.3-50.9-50.9-50.9c-26.6,0-52.1,23.4-50.9,50.9
						S75.6,144.6,104.1,144.6z"/>
				</g>
				<g class="st1">
					<path class="st2" d="M101.3,126.1c26.6,0,52.1-23.4,50.9-50.9s-22.4-50.9-50.9-50.9c-26.6,0-52.1,23.4-50.9,50.9
						S72.8,126.1,101.3,126.1z"/>
				</g>
				<g class="st1">
					<path class="st2" d="M71.4,131.8c26.6,0,52.1-23.4,50.9-50.9S99.9,30.1,71.4,30.1c-26.6,0-52.1,23.4-50.9,50.8
						S42.9,131.8,71.4,131.8z"/>
				</g>
				<g class="st1">
					<path class="st2" d="M85.5,160.1c26.6,0,52.1-23.4,50.9-50.9S114,58.4,85.5,58.4c-26.6,0-52.1,23.4-50.9,50.9
						S57,160.1,85.5,160.1z"/>
				</g>
			</g>
			<g>
				<g class="st1">
					<path class="st3" d="M87,143.2c26.6,0,52.1-23.4,50.9-50.8S115.5,41.5,87,41.5c-26.6,0-52.1,23.4-50.9,50.9
						S58.5,143.2,87,143.2z"/>
				</g>
				<g class="st1">
					<path class="st3" d="M81.3,146.1c26.6,0,52.1-23.4,50.9-50.9s-22.3-50.9-50.9-50.9c-26.6,0-52.1,23.4-50.9,50.8
						S52.8,146.1,81.3,146.1z"/>
				</g>
				<g class="st1">
					<path class="st3" d="M99.9,150.3c26.6,0,52.1-23.4,50.8-50.9s-22.3-50.8-50.8-50.8C73.2,48.6,47.8,72,49,99.5
						S71.3,150.3,99.9,150.3z"/>
				</g>
				<g class="st1">
					<path class="st3" d="M88.5,139.7c26.6,0,52.1-23.4,50.8-50.8S117,38,88.5,38c-26.6,0-52.1,23.3-50.9,50.8S60,139.7,88.5,139.7z
						"/>
				</g>
			</g>
		</g>
	</g>
</g>
<g>
	<defs>
		<path id="SVGID_3_" d="M12.9,133.6c6.5-14,26.1-43.9,67.8-16.3c49.4,32.7,62.7-30.3,63.8-35.4c5-23.7,14.1-33.9,21.1-38.3
			L177,80.5l-2.9,35.3l-9.9,19.3l-14.4,18.5L122,177.8l-42.3,3.3l-32.9-9.4l-25.1-18.5L12.9,133.6z"/>
	</defs>
	<clipPath id="SVGID_4_">
		<use xlink:href="#SVGID_3_"  style="overflow:visible;"/>
	</clipPath>
	<g class="st4">
		<g>
			<g>
				<g class="st1">
					<path class="st2" d="M54.5,151.4c26.6,0,52.1-23.4,50.8-50.8S83,49.7,54.5,49.7c-26.6,0-52.1,23.4-50.9,50.9
						S26,151.4,54.5,151.4z"/>
				</g>
				<g class="st1">
					<path class="st2" d="M65.7,170.3c26.6,0,52.1-23.4,50.8-50.9S94.2,68.6,65.7,68.6c-26.6,0-52.1,23.4-50.9,50.9
						S37.2,170.3,65.7,170.3z"/>
				</g>
				<g class="st1">
					<path class="st2" d="M88.5,177.4c26.6,0,52.1-23.4,50.8-50.9S117,75.7,88.5,75.7c-26.6,0-52.1,23.4-50.9,50.9
						S60,177.4,88.5,177.4z"/>
				</g>
				<g class="st1">
					<path class="st2" d="M102.7,174.6c26.6,0,52.1-23.4,50.9-50.9s-22.3-50.9-50.9-50.9c-26.6,0-52.1,23.4-50.9,50.9
						S74.2,174.6,102.7,174.6z"/>
				</g>
				<g class="st1">
					<path class="st2" d="M121.2,151.8c26.6,0,52.1-23.4,50.9-50.9S149.7,50,121.2,50c-26.6,0-52.1,23.4-50.8,50.9
						S92.7,151.8,121.2,151.8z"/>
				</g>
				<g class="st1">
					<path class="st2" d="M121.2,133.3c26.6,0,52.1-23.4,50.9-50.9s-22.3-50.9-50.9-50.9c-26.6,0-52.1,23.4-50.8,50.9
						S92.7,133.3,121.2,133.3L121.2,133.3z"/>
				</g>
				<g class="st1">
					<path class="st2" d="M105.5,114.8c26.6,0,52.1-23.4,50.9-50.9S134.1,13,105.5,13c-26.6,0-52.1,23.4-50.9,50.9
						S77,114.7,105.5,114.8L105.5,114.8z"/>
				</g>
				<g class="st1">
					<path class="st2" d="M64.1,114.6c26.6,0,52.1-23.4,50.9-50.8S92.7,12.8,64.1,12.8c-26.6,0-52,23.4-50.8,50.9
						S35.6,114.6,64.1,114.6z"/>
				</g>
				<g class="st1">
					<path class="st2" d="M85.6,105.6c26.6,0,52.1-23.4,50.9-50.9S114.1,3.9,85.6,3.9C59,3.9,33.5,27.3,34.8,54.8
						S57.1,105.6,85.6,105.6z"/>
				</g>
				<g class="st1">
					<path class="st2" d="M115.5,116.2c26.6,0,52.1-23.4,50.9-50.9S144,14.5,115.5,14.5c-26.6,0-52.1,23.4-50.9,50.8
						C65.9,92.8,87,116.2,115.5,116.2z"/>
				</g>
				<g class="st1">
					<path class="st2" d="M55.1,127.4c26.6,0,52.1-23.4,50.9-50.9S83.7,25.6,55.1,25.6c-26.6,0-52,23.4-50.8,50.9
						S26.6,127.4,55.1,127.4z"/>
				</g>
			</g>
			<g>
				<g class="st1">
					<path class="st2" d="M71.4,154.6c26.6,0,52.1-23.4,50.9-50.8S99.9,52.9,71.4,52.9c-26.6,0-52.1,23.4-50.9,50.9
						S42.9,154.6,71.4,154.6z"/>
				</g>
				<g class="st1">
					<path class="st2" d="M102.7,156c26.6,0,52.1-23.4,50.9-50.9s-22.3-50.9-50.9-50.9c-26.6,0-52.1,23.4-50.9,50.9
						S74.2,156,102.7,156z"/>
				</g>
				<g class="st1">
					<path class="st2" d="M109.8,136.1c26.6,0,52.1-23.4,50.9-50.8s-22.3-50.9-50.9-50.9c-26.6,0-52.1,23.4-50.9,50.9
						S81.3,136.1,109.8,136.1z"/>
				</g>
				<g class="st1">
					<path class="st2" d="M85.6,124.7c26.6,0,52.1-23.4,50.9-50.8S114.1,23,85.6,23C59,23,33.5,46.4,34.8,73.9
						S57.1,124.7,85.6,124.7z"/>
				</g>
				<g class="st1">
					<path class="st2" d="M68.5,133.3c26.6,0,52.1-23.4,50.9-50.9S97,31.5,68.5,31.5c-26.6,0-52.1,23.4-50.8,50.9
						S40,133.3,68.5,133.3L68.5,133.3z"/>
				</g>
				<g class="st1">
					<path class="st2" d="M58.6,146.1c26.6,0,52.1-23.4,50.9-50.9S87.1,44.4,58.6,44.4C32,44.4,6.5,67.8,7.7,95.2
						S30,146.1,58.6,146.1z"/>
				</g>
				<g class="st1">
					<path class="st2" d="M81.3,148.9c26.6,0,52.1-23.4,50.9-50.9s-22.3-50.9-50.9-50.9c-26.6,0-52.1,23.4-50.9,50.9
						S52.8,148.9,81.3,148.9z"/>
				</g>
				<g class="st1">
					<path class="st2" d="M104.1,144.6c26.6,0,52.1-23.4,50.9-50.9s-22.3-50.9-50.9-50.9c-26.6,0-52.1,23.4-50.9,50.9
						S75.6,144.6,104.1,144.6z"/>
				</g>
				<g class="st1">
					<path class="st2" d="M101.3,126.1c26.6,0,52.1-23.4,50.9-50.9s-22.4-50.9-50.9-50.9c-26.6,0-52.1,23.4-50.9,50.9
						S72.8,126.1,101.3,126.1z"/>
				</g>
				<g class="st1">
					<path class="st2" d="M71.4,131.8c26.6,0,52.1-23.4,50.9-50.9S99.9,30.1,71.4,30.1c-26.6,0-52.1,23.4-50.9,50.8
						S42.9,131.8,71.4,131.8z"/>
				</g>
				<g class="st1">
					<path class="st2" d="M85.5,160.1c26.6,0,52.1-23.4,50.9-50.9S114,58.4,85.5,58.4c-26.6,0-52.1,23.4-50.9,50.9
						S57,160.1,85.5,160.1z"/>
				</g>
			</g>
			<g>
				<g class="st1">
					<path class="st3" d="M87,143.2c26.6,0,52.1-23.4,50.9-50.8S115.5,41.5,87,41.5c-26.6,0-52.1,23.4-50.9,50.9
						S58.5,143.2,87,143.2z"/>
				</g>
				<g class="st1">
					<path class="st3" d="M81.3,146.1c26.6,0,52.1-23.4,50.9-50.9s-22.3-50.9-50.9-50.9c-26.6,0-52.1,23.4-50.9,50.8
						S52.8,146.1,81.3,146.1z"/>
				</g>
				<g class="st1">
					<path class="st3" d="M99.9,150.3c26.6,0,52.1-23.4,50.8-50.9s-22.3-50.8-50.8-50.8C73.2,48.6,47.8,72,49,99.5
						S71.3,150.3,99.9,150.3z"/>
				</g>
				<g class="st1">
					<path class="st3" d="M88.5,139.7c26.6,0,52.1-23.4,50.8-50.8S117,38,88.5,38c-26.6,0-52.1,23.3-50.9,50.8S60,139.7,88.5,139.7z
						"/>
				</g>
			</g>
		</g>
	</g>
</g>
<path class="st3" d="M266.6,103.2c-3-4.8-6.4-9.9-10.3-15.4s-7.8-11-11.9-16.5c-4.1-5.5-8.2-10.7-12.2-15.8
	c-4.1-5.1-7.9-9.5-11.4-13.2h-13.6l0,0h-8.6v6.5h3.7c0,0,4.2,1.1,4.9,4.8V134h16.4V68.4c3.7,4.4,7.6,9.4,11.7,14.9
	c4.1,5.5,8.1,11.2,12.1,17.1c4,5.9,7.8,11.7,11.5,17.5c3.7,5.8,7.1,11.2,10.1,16.2h14.2V42.3h-16.5V103.2z"/>
<polygon class="st3" points="311.2,93 348.8,93 348.8,79.1 311.2,79.1 311.2,56.5 353.4,56.5 353.4,42.3 294.6,42.3 294.6,134 
	356.6,134 356.6,119.8 311.2,119.8 "/>
<path class="st3" d="M421.6,90.9c-2.5-2.4-5.4-4.3-8.6-5.8c-3.4-1.6-7.3-3.2-11.6-4.8c-2.5-0.9-4.7-1.8-6.8-2.8
	c-1.9-0.9-3.7-1.9-5.4-3.2c-1.4-1-2.7-2.4-3.6-3.9c-0.9-1.6-1.3-3.4-1.2-5.2c-0.1-3.1,1.3-6,3.8-7.8c2.5-1.9,6-2.8,10.5-2.8
	c3.7,0,7.4,0.4,11,1.3c3.4,0.8,6.8,2.1,9.9,3.8l5.1-13.5c-3.3-1.8-6.9-3.2-10.5-4.2c-5-1.3-10.1-2-15.3-1.9
	c-9.9,0-17.7,2.4-23.4,7.1s-8.6,11.2-8.6,19.5c-0.2,6.6,2.5,13.1,7.5,17.5c2.3,2.1,5,3.8,7.8,5.1c3,1.4,6,2.6,9.2,3.8
	c3.2,1.1,6,2.2,8.5,3.2c2.2,1,4.3,2.2,6.2,3.6c1.6,1.1,3,2.6,4,4.3c1,1.7,1.4,3.7,1.4,5.7c0.2,3.4-1.4,6.6-4.1,8.6
	c-2.7,2-7.1,3-13.1,3c-5,0.1-9.9-0.6-14.7-2c-3.3-1-6.6-2.4-9.7-4l-4.9,13.7c1.4,0.8,2.8,1.5,4.2,2.1c2,0.9,4.1,1.6,6.3,2.2
	c2.7,0.8,5.5,1.4,8.3,1.8c3.4,0.5,6.9,0.7,10.4,0.7c11.3,0,19.9-2.3,25.7-6.8c5.9-4.5,8.8-11,8.8-19.2c0.1-3.8-0.5-7.5-1.9-11
	C425.8,95.9,424,93.2,421.6,90.9z"/>
<path class="st3" d="M498.4,98.9c-1.2-3-3-5.7-5.3-7.9c-2.5-2.4-5.4-4.4-8.6-5.8c-3.4-1.6-7.2-3.2-11.6-4.8
	c-2.5-0.9-4.8-1.8-6.8-2.8c-1.9-0.9-3.7-1.9-5.4-3.2c-1.4-1-2.7-2.4-3.6-3.9c-0.9-1.6-1.3-3.4-1.3-5.2c-0.1-3.1,1.3-6,3.8-7.8
	c2.5-1.9,6-2.8,10.5-2.8c3.7,0,7.4,0.4,11,1.3c3.4,0.8,6.8,2.1,9.9,3.8l5.2-13.5c-3.3-1.8-6.9-3.2-10.5-4.2c-5-1.3-10.1-2-15.3-1.9
	c-9.9,0-17.7,2.4-23.4,7.1s-8.6,11.2-8.6,19.5c-0.1,3.5,0.6,7,2,10.2c1.3,2.8,3.2,5.2,5.4,7.3c2.3,2.1,5,3.8,7.8,5.1
	c3,1.4,6,2.6,9.2,3.8c3.2,1.1,6,2.2,8.5,3.2c2.2,1,4.3,2.2,6.3,3.6c1.6,1.1,3,2.6,4,4.3c1,1.7,1.4,3.7,1.4,5.7
	c0.2,3.4-1.4,6.6-4.1,8.6c-2.7,2-7.1,3-13.1,3c-5,0.1-9.9-0.6-14.7-2c-3.3-1-6.6-2.4-9.7-4l-4.9,13.6c1.4,0.8,2.8,1.5,4.2,2.1
	c2.1,0.9,4.2,1.6,6.3,2.2c2.7,0.8,5.5,1.4,8.3,1.8c3.4,0.5,6.9,0.7,10.4,0.7c11.3,0,19.9-2.3,25.7-6.8c5.9-4.5,8.8-11,8.8-19.2
	C500.4,106.1,499.7,102.4,498.4,98.9z"/>
</svg>
