<svg xmlns="http://www.w3.org/2000/svg" xmlns:xlink="http://www.w3.org/1999/xlink" viewBox="0 0 319 266">
  <defs>
    <linearGradient id="linear-gradient" x1="2418.4" y1="2492.18" x2="2512.52" y2="2676.89" gradientTransform="matrix(-0.96, -0.04, 0.04, -1, 2420.44, 2824.16)" gradientUnits="userSpaceOnUse">
      <stop offset="0" stop-color="#a4d8c8"/>
      <stop offset="0.98" stop-color="#12a0c6"/>
    </linearGradient>
    <linearGradient id="linear-gradient-2" x1="68.02" y1="136.41" x2="73.83" y2="203.19" gradientUnits="userSpaceOnUse">
      <stop offset="0" stop-color="#fff"/>
      <stop offset="1" stop-color="#a8c2d6"/>
    </linearGradient>
    <linearGradient id="linear-gradient-3" x1="84.63" y1="127.56" x2="90.71" y2="127.56" gradientUnits="userSpaceOnUse">
      <stop offset="0" stop-color="#a9b9d5"/>
      <stop offset="1" stop-color="#95a9c8"/>
    </linearGradient>
    <linearGradient id="linear-gradient-4" x1="81.09" y1="141.9" x2="85.54" y2="141.9" xlink:href="#linear-gradient-3"/>
    <linearGradient id="linear-gradient-5" x1="70.4" y1="122.05" x2="90.24" y2="122.05" xlink:href="#linear-gradient-3"/>
    <linearGradient id="linear-gradient-6" x1="46.1" y1="95.94" x2="118.7" y2="95.94" xlink:href="#linear-gradient-3"/>
    <linearGradient id="linear-gradient-7" x1="111.34" y1="91.55" x2="118.35" y2="91.55" gradientUnits="userSpaceOnUse">
      <stop offset="0.01" stop-color="#e3e7f0"/>
      <stop offset="0.27" stop-color="#dee3ee"/>
      <stop offset="0.6" stop-color="#cfd7e7"/>
      <stop offset="0.95" stop-color="#b7c4db"/>
      <stop offset="1" stop-color="#b3c1d9"/>
    </linearGradient>
    <linearGradient id="linear-gradient-8" x1="85.47" y1="141.66" x2="75.61" y2="47.95" gradientUnits="userSpaceOnUse">
      <stop offset="0" stop-color="#52c7ea"/>
      <stop offset="0.29" stop-color="#3dc5ee"/>
      <stop offset="1" stop-color="#26aee4"/>
    </linearGradient>
    <linearGradient id="linear-gradient-9" x1="47.31" y1="96.81" x2="114.19" y2="96.81" xlink:href="#linear-gradient-3"/>
  </defs>
  <title>isohero-nreport</title>
  <g style="isolation: isolate">
    <g id="arte">
      <g>
        <path d="M183,50.83c56.69-8.31,115.35,3.64,130.46,34.34C327.69,114,320,219.31,189.23,217.72,53.3,216.06-2.61,170.55.09,136.82,5.6,68,98.52,63.23,183,50.83Z" style="fill: url(#linear-gradient)"/>
        <g>
          <g>
            <g style="mix-blend-mode: multiply">
              <path d="M125.89,166.49,70,133.75a6,6,0,0,0-5.45,0L15.27,162.32c-1.5.87-1.49,2.28,0,3.16l55.88,32.74a6,6,0,0,0,5.45,0l49.29-28.57C127.41,168.78,127.4,167.37,125.89,166.49Z" style="fill: url(#linear-gradient-2)"/>
            </g>
            <g style="isolation: isolate">
              <path d="M125.89,141.31,70,108.56a6,6,0,0,0-5.45,0L15.27,137.13c-1.5.88-1.49,2.29,0,3.16L71.17,173a6,6,0,0,0,5.45,0l49.29-28.57C127.41,143.6,127.4,142.18,125.89,141.31Z" style="fill: #b8e3ef"/>
              <path d="M125.91,144.47,76.62,173a6,6,0,0,1-5.45,0L15.29,140.29a1.93,1.93,0,0,1-1.14-1.59v3.6a1.94,1.94,0,0,0,1.14,1.59l55.88,32.74a6,6,0,0,0,5.45,0l49.29-28.57a1.9,1.9,0,0,0,1.12-1.57V142.9A1.9,1.9,0,0,1,125.91,144.47Z" style="fill: #95d3eb"/>
            </g>
          </g>
          <g>
            <g>
              <g>
                <g>
                  <path d="M85.52,140.48l2.74-2.29a6.84,6.84,0,0,0,2.45-5.26v-18.3h-.87v18.3a6,6,0,0,1-2.14,4.59l-3.07,2.58Z" style="fill: url(#linear-gradient-3)"/>
                  <polygon points="81.09 143.36 81.1 143.36 81.1 143.97 85.51 140.48 85.54 140.45 85.09 140.19 85 140.27 81.09 143.36" style="fill: #fafbfb"/>
                  <polygon points="81.09 143.36 81.1 143.36 81.1 143.97 85.51 140.48 85.54 140.45 85.54 139.83 85.24 140.07 85.09 140.19 85 140.27 81.09 143.36" style="fill: url(#linear-gradient-4)"/>
                  <path d="M59.09,130.77l22,12.59L85,140.27l.09-.08.15-.12h0l.26-.23L88,137.77l.08-.07a5.91,5.91,0,0,0,2.15-4.51V115.46l-.4-.22-13.68-7.56-4.87-4.44h-.87v18.29a1.72,1.72,0,0,1,0,.33,5.87,5.87,0,0,1-2.13,4.26,1.69,1.69,0,0,1-.3.21C66.74,127.14,63,128.94,59.09,130.77Z" style="fill: #fff"/>
                  <path d="M70.4,121.86l19.84,11.33V116.78c-1.4-1.38-2.43-2.3-2.57-2.15-.32.39-13-3.13-17.25-3.71v10.61A1.72,1.72,0,0,1,70.4,121.86Z" style="fill: url(#linear-gradient-5)"/>
                </g>
                <polygon points="81.09 143.36 59.09 130.77 59.09 131.39 81.1 143.97 81.09 143.36" style="fill: #fafbfb"/>
                <path d="M68,126.33l20,11.44.08-.07a5.91,5.91,0,0,0,2.15-4.51L70.4,121.86a5.87,5.87,0,0,1-2.13,4.26A1.69,1.69,0,0,1,68,126.33Z" style="fill: #cbd2db"/>
              </g>
              <g>
                <path d="M46.1,50l.47.09h0l1,.2-.06.33a6.37,6.37,0,0,0-.06.9l.1,10.43.24,35.58c0,2.78,1.73,6,3.82,7.19l64,36.81.11.06-.49,1.78,2.18-1.28a3.1,3.1,0,0,0,1.29-2.6,3.77,3.77,0,0,0,0-.48l-.35-45.93V93a9.53,9.53,0,0,0-2-5.56,6.37,6.37,0,0,0-1.8-1.63L50.56,49a2.44,2.44,0,0,0-2.39-.22h0l-1.8,1.07Z" style="fill: url(#linear-gradient-6)"/>
                <path d="M46.37,49.83l.2.24h0l.94.53,66.62,37.86,2.19-1a6.37,6.37,0,0,0-1.8-1.63L50.56,49a2.44,2.44,0,0,0-2.39-.22h0Z" style="fill: #fff"/>
                <path d="M111.34,89.84l2.38,5.85,4.63-2.63V93a9.53,9.53,0,0,0-2-5.56Z" style="fill: url(#linear-gradient-7)"/>
                <path d="M44.76,53.07l.05,4.59h0l0,5.83.24,35.58c0,2.78,1.74,6,3.84,7.19l23.43,13.28,25.17,14.27.58.35,14.78,8.91a2.24,2.24,0,0,0,3.6-1.52,4.38,4.38,0,0,0,.14-.88c0-.16,0-.32,0-.49l0-5.23-.1-13.49-.2-27.28c0-2.79-1.74-6-3.83-7.19L86.08,72l0,0-9-5.36L65.57,59.86h0l-13.21-7.5-3.83-2.17c-1.4-.79-2.61-.48-3.26.64A4.53,4.53,0,0,0,44.76,53.07Z" style="fill: #fafbfb"/>
                <g>
                  <polygon points="114.19 92.92 114.19 139.78 94.29 128.16 94.04 128.01 76.68 117.86 76.32 117.66 75.31 117.06 72.82 115.61 72.44 115.39 71.66 114.93 71.02 114.56 69.13 113.46 66.17 111.72 64.19 110.57 62.53 109.6 60.22 108.25 58.37 107.16 56.89 106.3 55.25 105.34 47.31 100.7 47.31 53.84 70.78 67.56 71.37 67.9 72.6 68.62 73.37 69.07 73.72 69.28 74.01 69.44 77.86 71.7 79.54 72.67 82.49 74.4 83.59 75.04 83.74 75.13 88.53 77.93 90.14 78.87 94.52 81.43 96.53 82.6 99.16 84.14 114.19 92.92" style="fill: url(#linear-gradient-8)"/>
                  <polygon points="48.27 54.4 48.27 100.19 114.19 138.71 114.19 139.78 47.31 100.7 47.31 53.84 48.27 54.4" style="fill: url(#linear-gradient-9)"/>
                  <polygon points="114.19 139.78 47.31 100.7 48.27 100.19 114.19 138.71 114.19 139.78" style="fill: #fff"/>
                </g>
              </g>
            </g>
            <g style="opacity: 0.6000000000000001;mix-blend-mode: screen">
              <g style="opacity: 0.4">
                <polygon points="49.58 56.79 49.58 99.95 110.2 134.95 110.2 91.78 49.58 56.79" style="fill: #fff"/>
              </g>
            </g>
            <g>
              <polygon points="77.41 80.85 57.91 69.6 57.91 65.96 77.41 77.21 77.41 80.85" style="fill: #fff"/>
              <polygon points="75.16 78.47 59.09 69.17 59.09 68.13 75.16 77.43 75.16 78.47" style="opacity: 0.5"/>
              <polygon points="77.41 86.73 57.91 75.48 57.91 71.84 77.41 83.09 77.41 86.73" style="fill: #fff"/>
              <polygon points="74.57 83.84 59.09 74.9 59.09 73.87 74.57 82.81 74.57 83.84" style="opacity: 0.15"/>
              <polygon points="77.41 92.61 57.91 81.36 57.91 77.72 77.41 88.97 77.41 92.61" style="fill: #fff"/>
              <polygon points="75.16 90.07 59.09 80.77 59.09 79.74 75.16 89.04 75.16 90.07" style="opacity: 0.5"/>
              <polygon points="77.41 98.49 57.91 87.24 57.91 83.6 77.41 94.86 77.41 98.49" style="fill: #fff"/>
              <polygon points="70.13 93 59.09 86.61 59.09 85.58 70.13 91.97 70.13 93" style="opacity: 0.5"/>
              <polygon points="77.41 104.52 57.91 93.27 57.91 89.63 77.41 100.88 77.41 104.52" style="fill: #fff"/>
              <polygon points="71.49 99.89 59.09 92.73 59.09 91.7 71.49 98.86 71.49 99.89" style="opacity: 0.15"/>
              <path d="M54.69,64A4.27,4.27,0,0,1,56,65.24c1.08,2.26.08,3.48-1.27,2.7a4.27,4.27,0,0,1-1.26-1.26C52.35,64.43,53.34,63.2,54.69,64Z" style="fill: #fff"/>
              <g style="opacity: 0.5">
                <path d="M54.69,65a2.11,2.11,0,0,1,.61.62c.53,1.1,0,1.7-.62,1.32a2,2,0,0,1-.61-.62C53.54,65.21,54,64.61,54.69,65Z"/>
              </g>
              <path d="M54.69,69.86A4.27,4.27,0,0,1,56,71.12c1.08,2.26.08,3.48-1.27,2.7a4.15,4.15,0,0,1-1.26-1.26C52.35,70.31,53.34,69.08,54.69,69.86Z" style="fill: #fff"/>
              <path d="M54.69,75.74A4.27,4.27,0,0,1,56,77c1.08,2.26.08,3.48-1.27,2.7a4,4,0,0,1-1.26-1.26C52.35,76.19,53.34,75,54.69,75.74Z" style="fill: #fff"/>
              <g style="opacity: 0.5">
                <path d="M54.69,76.75a2.11,2.11,0,0,1,.61.62c.53,1.1,0,1.7-.62,1.32a1.85,1.85,0,0,1-.61-.61C53.54,77,54,76.37,54.69,76.75Z"/>
              </g>
              <path d="M54.69,81.63A4.1,4.1,0,0,1,56,82.88c1.08,2.26.08,3.48-1.27,2.7a4,4,0,0,1-1.26-1.26C52.35,82.07,53.34,80.85,54.69,81.63Z" style="fill: #fff"/>
              <g style="opacity: 0.5">
                <path d="M54.69,82.63a2.11,2.11,0,0,1,.61.62c.53,1.11,0,1.7-.62,1.32a1.85,1.85,0,0,1-.61-.61C53.54,82.85,54,82.25,54.69,82.63Z"/>
              </g>
              <path d="M54.69,87.51A4.1,4.1,0,0,1,56,88.76C57,91,56,92.24,54.68,91.46a4,4,0,0,1-1.26-1.26C52.35,88,53.34,86.73,54.69,87.51Z" style="fill: #fff"/>
              <polygon points="77.41 110.47 57.91 99.22 57.91 95.58 77.41 106.84 77.41 110.47" style="fill: #fff"/>
              <polygon points="76.06 108.43 59.09 98.61 59.09 97.58 76.06 107.4 76.06 108.43" style="opacity: 0.15"/>
              <path d="M54.69,93.46A4.27,4.27,0,0,1,56,94.72C57,97,56,98.2,54.68,97.42a4.27,4.27,0,0,1-1.26-1.26C52.35,93.91,53.34,92.68,54.69,93.46Z" style="fill: #fff"/>
            </g>
            <g>
              <polygon points="105.95 127.12 81.35 112.83 81.35 107.35 105.95 121.64 105.95 127.12" style="fill: #fff"/>
              <polygon points="105.95 99.51 81.35 85.22 81.35 79.74 105.95 94.03 105.95 99.51" style="fill: #fff"/>
              <polygon points="105.95 106.59 81.35 92.3 81.35 86.82 105.95 101.11 105.95 106.59" style="fill: #fff"/>
              <polygon points="105.95 113.49 81.35 99.2 81.35 93.72 105.95 108.01 105.95 113.49" style="fill: #fff"/>
              <polygon points="105.95 120.43 81.35 106.14 81.35 100.65 105.95 114.94 105.95 120.43" style="fill: #fff"/>
              <g style="opacity: 0.5">
                <path d="M104.07,95a.53.53,0,0,1,.21.23c.11.2.1.4,0,.45l-1.15.53a.2.2,0,0,1-.18,0,.63.63,0,0,1-.2-.2l-1.14-1.84c-.11-.19-.13-.4,0-.48a.18.18,0,0,1,.21,0,.49.49,0,0,1,.19.19l1,1.54,1-.44A.22.22,0,0,1,104.07,95Z"/>
              </g>
              <g style="opacity: 0.5">
                <path d="M104.07,101.93a.59.59,0,0,1,.21.23c.11.2.1.39,0,.45l-1.15.52a.22.22,0,0,1-.19,0,.61.61,0,0,1-.19-.2l-1.14-1.84c-.11-.19-.13-.4,0-.47a.2.2,0,0,1,.21,0,.57.57,0,0,1,.19.19l1,1.54,1-.43A.19.19,0,0,1,104.07,101.93Z"/>
              </g>
              <g style="opacity: 0.5">
                <path d="M104.07,108.88a.5.5,0,0,1,.21.22c.11.2.1.4,0,.45l-1.15.52a.19.19,0,0,1-.19,0,.61.61,0,0,1-.19-.2L101.59,108c-.11-.18-.13-.4,0-.47a.2.2,0,0,1,.21,0,.57.57,0,0,1,.19.19l1,1.55,1-.44A.19.19,0,0,1,104.07,108.88Z"/>
              </g>
              <g style="opacity: 0.5">
                <path d="M104.07,115.87a.53.53,0,0,1,.21.23c.11.2.1.39,0,.45l-1.15.52a.19.19,0,0,1-.19,0,.61.61,0,0,1-.19-.2L101.59,115c-.11-.18-.13-.39,0-.46a.18.18,0,0,1,.21,0,.49.49,0,0,1,.19.19l1,1.54,1-.44A.22.22,0,0,1,104.07,115.87Z"/>
              </g>
              <g style="opacity: 0.5">
                <path d="M104.07,122.52a.53.53,0,0,1,.21.23c.11.2.1.4,0,.45l-1.15.52a.19.19,0,0,1-.19,0,.61.61,0,0,1-.19-.2l-1.14-1.84c-.11-.19-.13-.4,0-.48a.18.18,0,0,1,.21,0,.49.49,0,0,1,.19.19l1,1.54,1-.44A.22.22,0,0,1,104.07,122.52Z"/>
              </g>
            </g>
          </g>
          <g>
            <g>
              <path d="M55.05,103c-.14-.15.14-.23.21-.42.16-.4,0-.82.58-1.32.07-.06.13-.18.22-.2.36-.11.45.08.47.33.6-.25,1.55-1.58,1.71-1,.07.28-.91,1-1.07,1.18,0,0,.32-.21.36-.25s.48-.34.56-.08-.08.32-.22.44-.25.22-.2.2.44-.33.53,0c0,.11,0,.21-.11.29l-.22.2c.25-.1.47.15.23.37a4.89,4.89,0,0,1-2.18,1.15s0,0-.05,0,0,0,0,0a.7.7,0,0,0-.06-.09c-.06-.09-.09-.06-.15-.15S55.19,103.18,55.05,103Z" style="fill: #fcd4bd"/>
              <path d="M45.51,109.23c.47-1.11,4.72-3.55,4.72-3.55.66-.48,2.83-2,4.57-3.24a2.57,2.57,0,0,1,1.8,1.62,34.52,34.52,0,0,0-2.32,2.82,10.44,10.44,0,0,1-2.06,1.74h0l-1.47,1.14c-1.49.91-3,1.9-4.72,1.89A3,3,0,0,1,45.51,109.23Z" style="fill: #cbd2da"/>
              <path d="M50.94,107.5v.15l0,1.33a1.7,1.7,0,0,1-.32.36h-.11c-1-.1-2.16-.31-2.16-1,0,0,0,0,0,0l.05-1h.12l1.74.15Z" style="fill: #fcd4bd"/>
              <path d="M48,108.13a5.56,5.56,0,0,0-.07,1.69c.05.55.14-.23.65,0a2.79,2.79,0,0,0,1.62.09,1,1,0,0,0,.65-.32c.22-.22.22-1.13,0-1.14a7.48,7.48,0,0,0-.82,0,3.19,3.19,0,0,1-1.33-.22C48.44,108.1,48.33,107.82,48,108.13Z" style="fill: #f6f8fc"/>
              <path d="M45.65,139.83s-.17,1.44.32,1.85a1.63,1.63,0,0,0,1.19-.16c.36-.16.73-.47,1.1-.59,1.07-.35,1.27-.91,1.63-1.64.76-1.53-.94-.82-2-.19A5.39,5.39,0,0,1,45.65,139.83Z" style="fill: #16181d"/>
              <path d="M49.5,129.36c-.09.82-.26,1.63-.39,2.44-.08.47,0,.82-.14,1.29-.16.93-.12,5.28-.12,6.77,0,.3-3.25,1.27-3.34.82a33.92,33.92,0,0,1-.14-5.3c.12-1,.37-10.31.3-10.93-.1-1,0-2.67.84-3.2,1.27-.79,2.88,1,3.22,1.74C50.24,124.08,49.91,125.68,49.5,129.36Z" style="fill: #0c7c90"/>
              <path d="M49.65,141.79s-.53,1.33-.16,1.87a1.58,1.58,0,0,0,1.19.18c.39-.05.82-.24,1.2-.26a2.33,2.33,0,0,0,2-1.11c1.12-1.27-.7-1.06-1.9-.76A5.48,5.48,0,0,1,49.65,141.79Z" style="fill: #16181d"/>
              <path d="M53.37,129.39h0c-1,8.11-.65,7-.67,12.79,0,.47-.12.38-1.56.6a3.24,3.24,0,0,1-.93.06c-.94-.12-1.07-.81-1.1-1.57S48.87,131,51,131A11.33,11.33,0,0,0,53.37,129.39Z" style="fill: #0d8ea8"/>
              <path d="M53.59,123.92c-.09,2.06-.1,4-.22,5.47h0a6.1,6.1,0,0,1-.85,2.92c-.33.75-.29,1.3-.71,1.67a1,1,0,0,1-1.18,0c-.37-.22-.86,1.55-1,1.12a18.78,18.78,0,0,1-.19-2.27c-.17-3.56-1.69-5.91-1.36-8.83C48.1,123.91,53.59,123.92,53.59,123.92Z" style="fill: #0d8ea8"/>
              <path d="M54.46,111.34s-.09.56-.21,1.36a.68.68,0,0,1,0,.14c-.17,1.18-.39,2.82-.5,4,0,.39,0,.73-.06,1,0,1.28-.15,12.62-.09,13.75a.56.56,0,0,1-.28.54,3.91,3.91,0,0,1-.57.3,4.12,4.12,0,0,1-1,.29,6,6,0,0,1-.81.1,13.43,13.43,0,0,1-3.41-.14,4.83,4.83,0,0,1-2.2-.93.63.63,0,0,1-.24-.48h0c0-1.22.24-10.88,1-13.66.55-2.17-.8-6-.75-7.25,0-1,.43-2.33,2.7-2l3,.68C51.6,109.36,54.21,109.83,54.46,111.34Z" style="fill: #e9ecee"/>
              <path d="M51.83,106.62a2.07,2.07,0,0,1-.9,1,1.31,1.31,0,0,1-.47.16l-.09,0a.94.94,0,0,1-.47-.08c-.27-.14-1.28,0-1.38-.26a.65.65,0,0,1-.05-.2,9.85,9.85,0,0,1,.54-2.63,3,3,0,0,1,1-1.74,4,4,0,0,1,1.51-.85l.28.33.23.28a8.74,8.74,0,0,0,0,2A4.6,4.6,0,0,1,51.83,106.62Z" style="fill: #fcd4bd"/>
              <path d="M52.05,104.66a8.74,8.74,0,0,1,0-2l-.23-.28-.09.43a7.07,7.07,0,0,1,0,3.17,2.32,2.32,0,0,1-.5,1.09,1,1,0,0,1-1.11.31l.07,0a.94.94,0,0,1,.25.37,1.59,1.59,0,0,1,.07.38v.24a1,1,0,0,1,.34,0h.05v-.79a2.07,2.07,0,0,0,.9-1A4.6,4.6,0,0,0,52.05,104.66Z" style="fill: #fcd4bd"/>
              <path d="M52.43,102.52c-.06.4-.4.37-.61.72s-.26.75-.5,1.15c-.09.14-.45,1.51-.86,1.27-.6-.35.09,1.27-1,1.86a2.05,2.05,0,0,1-.92,0,.6.6,0,0,1-.31-.21l0,0a12,12,0,0,1-1.7-2,3.86,3.86,0,0,1-.26-1.62,2.64,2.64,0,0,1,.58-1.35,3,3,0,0,1,1.06-1,4.4,4.4,0,0,1,2.59-.36l.34,0q.29.06.57.15l.25.13c.81.45.8.92.81,1A2.34,2.34,0,0,1,52.43,102.52Z" style="fill: #2b140f"/>
              <path d="M50.41,105.58a.55.55,0,1,1-.86-.24A.65.65,0,0,1,50.41,105.58Z" style="fill: #fcd4bd"/>
              <path d="M50.7,108.7a2.81,2.81,0,0,1,.54.17.45.45,0,0,1,.24.35,9.2,9.2,0,0,1-2.7-.25,2.46,2.46,0,0,1-1.3-.65c-.24-.4,1.24,0,1.39.08.6.16,1.23.17,1.83.3Z" style="fill: #fcfdfc"/>
            </g>
            <path d="M55.8,124.07l.81-.1.1.79s.26.31.29.35c.19.32.28.69.46,1,.06.09.28.37.25.49a.13.13,0,0,1-.07,0c-.35.12-.52-.23-.64-.51,0,.14.06.29.1.43s.25,1,0,1.07-.15-.13-.18-.2a5.87,5.87,0,0,1-.3-1c.05.3.11.58.17.87,0,.13.1.66-.11.69a.13.13,0,0,1-.13-.09,3.63,3.63,0,0,1-.19-.82c0,.18,0,.36.05.54s0,.25-.09.29-.2-.1-.23-.19a7.59,7.59,0,0,1-.19-1.06c0,.22,0,.78,0,1h0s0,.06-.09,0a.27.27,0,0,1-.1-.18c-.12-.42-.2-.67-.32-1.08a3.6,3.6,0,0,1-.12-.64c0-.22,0-.39-.07-.6s0-.29,0-.46h0s-.07-.18-.17-.48A7.08,7.08,0,0,1,55.8,124.07Z" style="fill: #fcd4bd"/>
            <path d="M52.52,110.87a1,1,0,0,1,1.34-.49,1.54,1.54,0,0,1,.6.88l1.42,6.43c.16.8.89,4.75,1.27,6.85a2.53,2.53,0,0,1-2.23.93c-.69-1.8-1.55-3.94-1.85-4.63a11.06,11.06,0,0,1-.7-2.61l0,0-.4-1.81C51.78,114.47,51.5,112.5,52.52,110.87Z" style="fill: #fcfdfc"/>
          </g>
          <g>
            <line x1="138.89" y1="142.32" x2="138.89" y2="142.32" style="fill: none;stroke: #00709e;stroke-linecap: round;stroke-linejoin: round;stroke-width: 1.88751888275147px"/>
            <line x1="143.53" y1="142.32" x2="210.84" y2="142.32" style="fill: none;stroke: #00709e;stroke-linecap: round;stroke-linejoin: round;stroke-width: 1.88751888275147px;stroke-dasharray: 0,4.642050266265869"/>
            <line x1="213.16" y1="142.32" x2="213.16" y2="142.32" style="fill: none;stroke: #00709e;stroke-linecap: round;stroke-linejoin: round;stroke-width: 1.88751888275147px"/>
            <rect x="137.95" y="136.19" width="1.89" height="12.27" style="fill: #00709e"/>
            <polygon points="206.91 150.04 205.62 148.66 212.44 142.32 205.62 135.99 206.91 134.6 215.21 142.32 206.91 150.04" style="fill: #00709e"/>
          </g>
          <g>
            <rect x="237.26" y="83.51" width="58.28" height="78.75" style="fill: #fff;opacity: 0.5"/>
            <rect x="234.16" y="86.85" width="58.28" height="78.75" style="fill: #fff;opacity: 0.5"/>
            <rect x="231.16" y="90.85" width="58.28" height="78.75" style="fill: #fff;opacity: 0.5"/>
            <rect x="228.16" y="94.85" width="58.28" height="78.75" style="fill: #fff;stroke: #004b6b;stroke-miterlimit: 10;stroke-opacity: 0.2"/>
            <g>
              <rect x="232.34" y="100.24" width="23.41" height="2.69" style="fill: #89d6f2"/>
              <rect x="232.34" y="104.23" width="14.27" height="2.69" style="fill: #89d6f2"/>
              <rect x="232.34" y="115.05" width="49.87" height="1.6" style="fill: #89d6f2"/>
              <rect x="232.34" y="117.95" width="49.87" height="1.6" style="fill: #89d6f2"/>
              <rect x="232.34" y="120.85" width="49.87" height="1.6" style="fill: #89d6f2"/>
              <rect x="232.34" y="123.76" width="49.87" height="1.6" style="fill: #89d6f2"/>
              <rect x="232.34" y="126.66" width="49.87" height="1.6" style="fill: #89d6f2"/>
              <rect x="232.34" y="129.56" width="49.87" height="1.6" style="fill: #89d6f2"/>
              <rect x="232.34" y="132.47" width="49.87" height="1.6" style="fill: #89d6f2"/>
              <rect x="232.34" y="135.37" width="28.42" height="1.6" style="fill: #89d6f2"/>
              <rect x="262.67" y="160.61" width="19.54" height="1.6" style="fill: #89d6f2"/>
              <rect x="273.85" y="163.16" width="8.36" height="1.09" style="fill: #89d6f2"/>
            </g>
            <path d="M261.75,157.33a13.73,13.73,0,0,0,9.2-3,11.26,11.26,0,0,0,1.74-1.71,4.36,4.36,0,0,0,1-2.07,2.26,2.26,0,0,0-.65-2,1.76,1.76,0,0,0-2-.11,17.13,17.13,0,0,0-4.07,2.64,4,4,0,0,0-1.23,1.88,2.08,2.08,0,0,0,.54,2,2.87,2.87,0,0,0,2,.89,4.22,4.22,0,0,0,2.2-.61,11,11,0,0,0,3.26-3.54l.48.34a2.35,2.35,0,0,0,.83,3.36,2.44,2.44,0,0,0,3.24-1.53l.28.05a2,2,0,0,0,1.06,2,2.06,2.06,0,0,0,2.29-.39,2.1,2.1,0,0,1-2.35.53,2.18,2.18,0,0,1-1.28-2.14l.28,0a2.7,2.7,0,1,1-4.82-2.25l.48.34a11,11,0,0,1-3.41,3.79,4.84,4.84,0,0,1-2.55.72,3.6,3.6,0,0,1-2.49-1.08,2.84,2.84,0,0,1-.75-2.64,4.67,4.67,0,0,1,1.46-2.24,17.89,17.89,0,0,1,4.31-2.74,3.17,3.17,0,0,1,1.35-.29,2.06,2.06,0,0,1,1.34.54,2.82,2.82,0,0,1,.83,2.58,4.86,4.86,0,0,1-1.22,2.32,12.22,12.22,0,0,1-1.87,1.73A13.3,13.3,0,0,1,261.75,157.33Z" style="fill: #004b6b"/>
          </g>
        </g>
      </g>
    </g>
  </g>
</svg>
