<svg xmlns="http://www.w3.org/2000/svg" xmlns:xlink="http://www.w3.org/1999/xlink" viewBox="0 0 339 266">
  <defs>
    <linearGradient id="linear-gradient" x1="58.22" y1="171.49" x2="69.78" y2="171.49" gradientUnits="userSpaceOnUse">
      <stop offset="0" stop-color="#a9b9d5"/>
      <stop offset="1" stop-color="#95a9c8"/>
    </linearGradient>
    <linearGradient id="linear-gradient-2" x1="145.46" y1="33.37" x2="249.93" y2="238.39" gradientTransform="matrix(1.05, -0.01, -0.01, 0.97, -40.89, 51.67)" gradientUnits="userSpaceOnUse">
      <stop offset="0" stop-color="#a4d8c8"/>
      <stop offset="0.98" stop-color="#12a0c6"/>
    </linearGradient>
    <linearGradient id="linear-gradient-3" x1="82.05" y1="150.6" x2="89.52" y2="236.49" gradientUnits="userSpaceOnUse">
      <stop offset="0" stop-color="#a9c3d7"/>
      <stop offset="1" stop-color="#fff"/>
    </linearGradient>
    <linearGradient id="linear-gradient-4" x1="63.63" y1="168.66" x2="77.77" y2="168.66" xlink:href="#linear-gradient"/>
    <clipPath id="clip-path">
      <path id="SVGID" d="M58.22,169.71l6.16,3.57c1.38.81,3.29.7,5.4-.52l-6.15-3.58C61.52,170.4,59.61,170.51,58.22,169.71Z" style="fill: url(#linear-gradient)"/>
    </clipPath>
    <linearGradient id="linear-gradient-6" x1="62.93" y1="171.15" x2="69.78" y2="171.15" xlink:href="#linear-gradient"/>
    <linearGradient id="linear-gradient-7" x1="60.98" y1="171.65" x2="69.08" y2="171.65" xlink:href="#linear-gradient"/>
    <linearGradient id="linear-gradient-8" x1="58.22" y1="171.75" x2="67.14" y2="171.75" xlink:href="#linear-gradient"/>
    <clipPath id="clip-path-2">
      <path id="SVGID-2" data-name="SVGID" d="M69.73,154.64l-6.15-3.58a16.64,16.64,0,0,0-5.76,6.09,16.42,16.42,0,0,0-2.38,8c0,.12,0,.23,0,.34l6.15,3.58c0-.12,0-.23,0-.34a18,18,0,0,1,8.14-14.1Z" style="fill: #fafbfb"/>
    </clipPath>
    <linearGradient id="linear-gradient-9" x1="55.96" y1="158.56" x2="68.32" y2="158.56" xlink:href="#linear-gradient"/>
    <linearGradient id="linear-gradient-10" x1="84.41" y1="155.31" x2="89.4" y2="155.31" xlink:href="#linear-gradient"/>
    <linearGradient id="linear-gradient-11" x1="89.38" y1="156.39" x2="98.13" y2="156.39" xlink:href="#linear-gradient"/>
    <linearGradient id="linear-gradient-12" x1="102.3" y1="161.12" x2="122.86" y2="161.12" xlink:href="#linear-gradient"/>
    <clipPath id="clip-path-3">
      <path id="SVGID-3" data-name="SVGID" d="M90.83,114.79l-4.71,2.74c-2.35,1.37-3.81,4.28-3.82,8.41,0,8.33,5.83,18.47,13.07,22.65l4.71-2.73C92.83,141.68,87,131.54,87,123.21,87,119.07,88.48,116.16,90.83,114.79Z" style="fill: none"/>
    </clipPath>
    <linearGradient id="linear-gradient-13" x1="86.86" y1="142.96" x2="100.08" y2="142.96" xlink:href="#linear-gradient"/>
    <linearGradient id="linear-gradient-14" x1="84" y1="135.87" x2="91.57" y2="135.87" xlink:href="#linear-gradient"/>
    <linearGradient id="linear-gradient-15" x1="82.3" y1="124.6" x2="90.83" y2="124.6" xlink:href="#linear-gradient"/>
    <clipPath id="clip-path-4">
      <path id="SVGID-4" data-name="SVGID" d="M104.71,149.51l4.71-2.74c-2.39,1.39-5.69,1.19-9.34-.91l-4.71,2.73C99,150.7,102.32,150.89,104.71,149.51Z" style="fill: none"/>
    </clipPath>
    <linearGradient id="linear-gradient-16" x1="101.76" y1="148.58" x2="109.42" y2="148.58" xlink:href="#linear-gradient"/>
    <linearGradient id="linear-gradient-17" x1="95.37" y1="148.13" x2="106.46" y2="148.13" xlink:href="#linear-gradient"/>
    <clipPath id="clip-path-5">
      <path id="SVGID-5" data-name="SVGID" d="M84.65,104.16l-4.71,2.73c4-2.3,9.48-2,15.55,1.53l4.7-2.74C94.12,102.18,88.62,101.85,84.65,104.16Z" style="fill: #fafbfb"/>
    </clipPath>
    <clipPath id="clip-path-6">
      <path id="SVGID-6" data-name="SVGID" d="M110.89,160.14l4.71-2.73c3.92-2.28,6.35-7.13,6.37-14,0-13.87-9.71-30.75-21.78-37.72l-4.7,2.74c12.06,7,21.81,23.85,21.77,37.71C117.24,153,114.81,157.86,110.89,160.14Z" style="fill: #fafbfb"/>
    </clipPath>
    <linearGradient id="linear-gradient-18" x1="68.04" y1="151.6" x2="118.76" y2="151.6" xlink:href="#linear-gradient"/>
    <clipPath id="clip-path-7">
      <path id="SVGID-7" data-name="SVGID" d="M52.77,153.76v1a.78.78,0,0,0,.46.64v-1A.76.76,0,0,1,52.77,153.76Z" style="fill: #186d7d"/>
    </clipPath>
    <clipPath id="clip-path-8">
      <path id="SVGID-8" data-name="SVGID" d="M83.49,155.16v-1a.78.78,0,0,1-.46.64v1A.77.77,0,0,0,83.49,155.16Z" style="fill: #186d7d"/>
    </clipPath>
    <clipPath id="clip-path-9">
      <path id="SVGID-9" data-name="SVGID" d="M67.34,162.61v1a2.44,2.44,0,0,0,2.2,0v-1A2.46,2.46,0,0,1,67.34,162.61Z" style="fill: #186d7d"/>
    </clipPath>
    <clipPath id="clip-path-10">
      <path id="SVGID-10" data-name="SVGID" d="M106.45,142v-1a.85.85,0,0,1-.5.7v1A.86.86,0,0,0,106.45,142Z" style="fill: #186d7d"/>
    </clipPath>
    <clipPath id="clip-path-11">
      <path id="SVGID-11" data-name="SVGID" d="M69.43,144.3v1a.83.83,0,0,0,.49.69v-1A.83.83,0,0,1,69.43,144.3Z" style="fill: #186d7d"/>
    </clipPath>
    <clipPath id="clip-path-12">
      <path id="SVGID-12" data-name="SVGID" d="M83.84,153.09v1a2.61,2.61,0,0,0,2.4,0v-1A2.69,2.69,0,0,1,83.84,153.09Z" style="fill: #186d7d"/>
    </clipPath>
    <clipPath id="clip-path-13">
      <path id="SVGID-13" data-name="SVGID" d="M92.56,130.6v1a.79.79,0,0,0,.45.64v-1A.75.75,0,0,1,92.56,130.6Z" style="fill: #186d7d"/>
    </clipPath>
    <clipPath id="clip-path-14">
      <path id="SVGID-14" data-name="SVGID" d="M115.23,136.73v-1a.78.78,0,0,1-.46.65v1A.78.78,0,0,0,115.23,136.73Z" style="fill: #186d7d"/>
    </clipPath>
    <clipPath id="clip-path-15">
      <path id="SVGID-15" data-name="SVGID" d="M107.14,139.45v1a2.46,2.46,0,0,0,2.21,0v-1A2.44,2.44,0,0,1,107.14,139.45Z" style="fill: #186d7d"/>
    </clipPath>
    <linearGradient id="linear-gradient-19" x1="-8194.39" y1="126" x2="-8181.19" y2="142.7" gradientTransform="matrix(-0.87, -0.5, -0.5, 0.87, -6928.88, -4076.28)" gradientUnits="userSpaceOnUse">
      <stop offset="0" stop-color="#aadde5"/>
      <stop offset="1" stop-color="#0f0f10"/>
    </linearGradient>
    <linearGradient id="linear-gradient-20" x1="110.89" y1="144.72" x2="121.97" y2="144.72" xlink:href="#linear-gradient"/>
    <radialGradient id="radial-gradient" cx="3221.66" cy="-330.32" r="6.06" gradientTransform="matrix(0.87, 0.5, 0, 1, -2694.58, -1166.37)" gradientUnits="userSpaceOnUse">
      <stop offset="0.09" stop-color="#3d5eaa"/>
      <stop offset="0.29" stop-color="#2a4176"/>
      <stop offset="0.52" stop-color="#182543"/>
      <stop offset="0.71" stop-color="#0b111f"/>
      <stop offset="0.87" stop-color="#030508"/>
      <stop offset="0.97"/>
    </radialGradient>
    <radialGradient id="radial-gradient-2" cx="3221.66" cy="-330.32" r="1.24" gradientTransform="matrix(0.87, 0.5, 0, 1, -2694.58, -1166.37)" gradientUnits="userSpaceOnUse">
      <stop offset="0.22" stop-color="#dae4f4"/>
      <stop offset="0.28" stop-color="#c2cbd9"/>
      <stop offset="0.48" stop-color="#7e848d"/>
      <stop offset="0.65" stop-color="#484b50"/>
      <stop offset="0.79" stop-color="#212225"/>
      <stop offset="0.9" stop-color="#09090a"/>
      <stop offset="0.97"/>
    </radialGradient>
    <radialGradient id="radial-gradient-3" cx="3215.6" cy="-328.16" r="6.06" xlink:href="#radial-gradient"/>
    <radialGradient id="radial-gradient-4" cx="3215.6" cy="-328.16" r="1.24" xlink:href="#radial-gradient-2"/>
    <radialGradient id="radial-gradient-5" cx="3226.74" cy="-328.95" r="6.06" xlink:href="#radial-gradient"/>
    <radialGradient id="radial-gradient-6" cx="3226.74" cy="-328.95" r="1.24" xlink:href="#radial-gradient-2"/>
    <linearGradient id="linear-gradient-21" x1="265.46" y1="159.44" x2="271.26" y2="226.21" gradientUnits="userSpaceOnUse">
      <stop offset="0" stop-color="#fff"/>
      <stop offset="1" stop-color="#a9c3d7"/>
    </linearGradient>
  </defs>
  <title>isohero-ncommand</title>
  <g style="isolation: isolate">
    <g id="arte">
      <g>
        <path d="M164.25,239c-53,0-126,37.89-156.62-19.94C-7.24,191-.14,148.17,26.91,127.7,107.59,66.64,206.67,89,234.36,95.87c81.82,20.2,106.75,68.88,105.05,101.64C336,264.3,238.81,239,164.25,239Z" style="fill: url(#linear-gradient-2)"/>
        <g>
          <g>
            <g style="mix-blend-mode: multiply">
              <path d="M157.51,185.57,90.64,146.38a6,6,0,0,0-5.45,0l-72,42.17c-1.51.87-1.5,2.29,0,3.16L80.07,230.9a6,6,0,0,0,5.45,0l72-42.17C159,187.86,159,186.44,157.51,185.57Z" style="fill: url(#linear-gradient-3)"/>
            </g>
            <g style="isolation: isolate">
              <path d="M157.51,160.39,90.64,121.2a6,6,0,0,0-5.45,0l-72,42.17c-1.51.87-1.5,2.28,0,3.16l66.87,39.18a6,6,0,0,0,5.45,0l72-42.16C159,162.67,159,161.26,157.51,160.39Z" style="fill: #b8e3f0"/>
              <path d="M157.53,163.55l-72,42.16a6,6,0,0,1-5.45,0L13.2,166.53a1.94,1.94,0,0,1-1.14-1.59v3.59a1.94,1.94,0,0,0,1.14,1.59l66.87,39.19a6,6,0,0,0,5.45,0l72-42.17a1.93,1.93,0,0,0,1.12-1.57V162A1.93,1.93,0,0,1,157.53,163.55Z" style="fill: #95d4ec"/>
            </g>
          </g>
          <g>
            <g style="isolation: isolate">
              <polygon points="77.77 168.15 71.61 164.57 63.63 169.18 69.78 172.76 77.77 168.15" style="fill: url(#linear-gradient-4)"/>
              <g>
                <path id="SVGID-16" data-name="SVGID" d="M58.22,169.71l6.16,3.57c1.38.81,3.29.7,5.4-.52l-6.15-3.58C61.52,170.4,59.61,170.51,58.22,169.71Z" style="fill: url(#linear-gradient)"/>
                <g style="clip-path: url(#clip-path)">
                  <g style="isolation: isolate">
                    <path d="M69.78,172.76l-6.15-3.58c-.24.14-.47.26-.7.37l6.15,3.58c.23-.11.46-.24.7-.37Z" style="fill: url(#linear-gradient-6)"/>
                    <path d="M69.08,173.13l-6.15-3.58a6.93,6.93,0,0,1-2,.61l6.16,3.58a7,7,0,0,0,1.94-.61Z" style="fill: url(#linear-gradient-7)"/>
                    <path d="M67.14,173.74,61,170.16a4.16,4.16,0,0,1-2.76-.45l6.16,3.57a4.14,4.14,0,0,0,2.76.46Z" style="fill: url(#linear-gradient-8)"/>
                  </g>
                </g>
              </g>
              <polygon points="61.6 169.08 55.45 165.5 55.47 174.54 61.62 178.12 61.6 169.08" style="fill: #fafbfb"/>
              <polygon points="74.46 151.91 68.31 148.33 63.58 151.06 69.73 154.64 74.46 151.91" style="fill: #fff"/>
              <g style="isolation: isolate">
                <path id="SVGID-17" data-name="SVGID" d="M69.73,154.64l-6.15-3.58a16.64,16.64,0,0,0-5.76,6.09,16.42,16.42,0,0,0-2.38,8c0,.12,0,.23,0,.34l6.15,3.58c0-.12,0-.23,0-.34a18,18,0,0,1,8.14-14.1Z" style="fill: #fafbfb"/>
                <g style="clip-path: url(#clip-path-2)">
                  <g style="isolation: isolate">
                    <path d="M69.73,154.64l-6.15-3.58a12.55,12.55,0,0,0-1.41,1l6.15,3.57a12.44,12.44,0,0,1,1.41-1Z" style="fill: #fff"/>
                    <path d="M68.32,155.59,62.17,152a17.68,17.68,0,0,0-4.35,5.13A18.83,18.83,0,0,0,56,161.54l6.15,3.57A18.59,18.59,0,0,1,64,160.73a17.88,17.88,0,0,1,4.35-5.14Z" style="fill: url(#linear-gradient-9)"/>
                    <path d="M62.11,165.11,56,161.54a14.5,14.5,0,0,0-.48,2.66l6.15,3.58a14.6,14.6,0,0,1,.48-2.67Z" style="fill: #fafbfb"/>
                    <path d="M61.63,167.78l-6.15-3.58c0,.33,0,.65,0,1,0,.12,0,.23,0,.34l6.15,3.58c0-.12,0-.23,0-.34,0-.32,0-.64,0-1Z" style="fill: #fafbfb"/>
                  </g>
                </g>
              </g>
              <path d="M69.73,154.64a18,18,0,0,0-8.14,14.1c0,.11,0,.22,0,.34l0,9,8.16-4.72,8-4.61v-.64l-8,4.61c-4.19,2.42-7.61.47-7.62-4.35a16.69,16.69,0,0,1,7.57-13.12l4.73-2.74v-.64Z" style="fill: #cbd2db"/>
            </g>
            <g style="isolation: isolate">
              <polygon points="89.4 151.81 89.38 155.92 84.41 158.82 84.42 154.7 89.4 151.81" style="fill: url(#linear-gradient-10)"/>
              <polygon points="84.42 154.7 84.41 158.82 75.25 153.53 75.26 149.42 84.42 154.7" style="fill: #fafbfb"/>
              <polygon points="98.14 156.86 98.12 160.97 89.38 155.92 89.4 151.81 98.14 156.86" style="fill: url(#linear-gradient-11)"/>
              <polygon points="102.31 165.04 102.3 169.15 93.15 163.86 93.16 159.75 102.31 165.04" style="fill: #fafbfb"/>
              <polygon points="102.31 165.04 107.29 162.14 117.88 155.99 122.86 153.1 122.84 157.21 117.87 160.1 107.28 166.26 102.3 169.15 102.31 165.04" style="fill: url(#linear-gradient-12)"/>
              <polygon points="122.86 153.1 117.88 155.99 107.29 162.14 102.31 165.04 93.16 159.75 98.14 156.86 89.4 151.81 84.42 154.7 75.26 149.42 80.24 146.52 90.83 140.37 95.8 137.48 122.86 153.1" style="fill: #fafbfb"/>
            </g>
            <g style="isolation: isolate">
              <g style="isolation: isolate">
                <g style="clip-path: url(#clip-path-3)">
                  <g>
                    <path d="M95.37,148.59l4.71-2.73a26.16,26.16,0,0,1-8.51-8.53l-4.71,2.73a26,26,0,0,0,8.51,8.53Z" style="fill: url(#linear-gradient-13)"/>
                    <path d="M86.86,140.06l4.71-2.73a31.89,31.89,0,0,1-2.86-5.65L84,134.41a31.89,31.89,0,0,0,2.86,5.65Z" style="opacity: 0;fill: url(#linear-gradient-14)"/>
                    <path d="M84,134.41l4.71-2.73A24,24,0,0,1,87,123.21c0-4.14,1.48-7,3.83-8.42l-4.71,2.74c-2.35,1.37-3.81,4.28-3.82,8.41a23.72,23.72,0,0,0,1.7,8.47Z" style="fill: url(#linear-gradient-15)"/>
                  </g>
                </g>
              </g>
              <g style="isolation: isolate">
                <g style="clip-path: url(#clip-path-4)">
                  <g>
                    <path d="M104.71,149.51l4.71-2.74a6.68,6.68,0,0,1-3,.87l-4.7,2.74a6.77,6.77,0,0,0,2.95-.87Z" style="fill: url(#linear-gradient-16)"/>
                    <path d="M101.76,150.38l4.7-2.74a11.48,11.48,0,0,1-6.38-1.78l-4.71,2.73a11.53,11.53,0,0,0,6.39,1.79Z" style="fill: url(#linear-gradient-17)"/>
                  </g>
                </g>
              </g>
              <g>
                <path id="SVGID-18" data-name="SVGID" d="M84.65,104.16l-4.71,2.73c4-2.3,9.48-2,15.55,1.53l4.7-2.74C94.12,102.18,88.62,101.85,84.65,104.16Z" style="fill: #fafbfb"/>
                <g style="clip-path: url(#clip-path-5)">
                  <g>
                    <path d="M95.49,108.42l4.7-2.74c-3.85-2.22-7.47-3.17-10.62-3l-4.71,2.74a19.15,19.15,0,0,1,10.63,3Z" style="fill: #fafbfb"/>
                    <path d="M84.86,105.45l4.71-2.74a11.08,11.08,0,0,0-4.92,1.45l-4.71,2.73a11.07,11.07,0,0,1,4.92-1.44Z" style="fill: #fafbfb"/>
                  </g>
                </g>
              </g>
              <g>
                <path id="SVGID-19" data-name="SVGID" d="M110.89,160.14l4.71-2.73c3.92-2.28,6.35-7.13,6.37-14,0-13.87-9.71-30.75-21.78-37.72l-4.7,2.74c12.06,7,21.81,23.85,21.77,37.71C117.24,153,114.81,157.86,110.89,160.14Z" style="fill: #fafbfb"/>
                <g style="clip-path: url(#clip-path-6)">
                  <g style="isolation: isolate">
                    <path d="M109.66,122.62l4.7-2.73a43.22,43.22,0,0,0-14.17-14.21l-4.7,2.74c5.41,3.12,10.36,8.25,14.17,14.2Z" style="fill: #fafbfb"/>
                  </g>
                </g>
              </g>
              <path d="M73.57,120.91c0-13.87,9.85-19.46,21.92-12.49a35.53,35.53,0,0,1,6.46,4.85c-2.28,1.68-4.38,3.48-6.58,5.12-7.2-4.1-13.05-.74-13.07,7.55s5.83,18.47,13.07,22.65a13.37,13.37,0,0,0,4.34,1.66c-.14,1.53-.26,3.07-.36,4.6L81.12,144.32C76.48,137,73.55,128.51,73.57,120.91Z" style="fill: #fff"/>
            </g>
            <g>
              <g>
                <g style="isolation: isolate">
                  <polygon points="51.72 155.53 51.73 157.97 68.05 167.46 68.04 165.02 51.72 155.53" style="fill: #fafbfb"/>
                  <polygon points="68.04 165.02 68.05 167.46 118.76 138.17 118.75 135.73 68.04 165.02" style="fill: url(#linear-gradient-18)"/>
                  <polygon points="51.72 155.53 68.04 165.02 118.75 135.73 102.43 126.24 51.72 155.53" style="fill: #fff"/>
                </g>
                <g style="isolation: isolate">
                  <g>
                    <path id="SVGID-20" data-name="SVGID" d="M52.77,153.76v1a.78.78,0,0,0,.46.64v-1A.76.76,0,0,1,52.77,153.76Z" style="fill: #186d7d"/>
                    <g style="clip-path: url(#clip-path-7)">
                      <g style="isolation: isolate">
                        <path d="M52.77,153.76v1a.64.64,0,0,0,.17.41v-1a.55.55,0,0,1-.17-.4Z" style="fill: #186d7d"/>
                        <path d="M52.94,154.16v1a1.18,1.18,0,0,0,.29.23v-1a.93.93,0,0,1-.28-.23Z" style="fill: #186d7d"/>
                      </g>
                    </g>
                  </g>
                  <g>
                    <path id="SVGID-21" data-name="SVGID" d="M83.49,155.16v-1a.78.78,0,0,1-.46.64v1A.77.77,0,0,0,83.49,155.16Z" style="fill: #186d7d"/>
                    <g style="clip-path: url(#clip-path-8)">
                      <path d="M83,154.83v1a.77.77,0,0,0,.46-.64v-1a.78.78,0,0,1-.46.64Z" style="fill: #186d7d"/>
                    </g>
                  </g>
                  <polygon points="53.22 154.39 53.23 155.37 67.35 163.58 67.34 162.61 53.22 154.39" style="fill: #186d7d"/>
                  <polygon points="69.55 162.61 69.55 163.58 83.03 155.81 83.03 154.83 69.55 162.61" style="fill: #186d7d"/>
                  <g>
                    <path id="SVGID-22" data-name="SVGID" d="M67.34,162.61v1a2.44,2.44,0,0,0,2.2,0v-1A2.46,2.46,0,0,1,67.34,162.61Z" style="fill: #186d7d"/>
                    <g style="clip-path: url(#clip-path-9)">
                      <g style="isolation: isolate">
                        <path d="M67.34,162.61v1a2.12,2.12,0,0,0,.77.25v-1a2.1,2.1,0,0,1-.78-.24Z" style="fill: #186d7d"/>
                        <path d="M68.12,162.85v1a2.36,2.36,0,0,0,1.43-.25v-1a2.43,2.43,0,0,1-1.43.24Z" style="fill: #186d7d"/>
                      </g>
                    </g>
                  </g>
                  <path d="M53.23,153.11c-.61.36-.61.93,0,1.28l14.12,8.22a2.46,2.46,0,0,0,2.21,0L83,154.83a.68.68,0,0,0,0-1.28l-14.12-8.21a2.38,2.38,0,0,0-2.2,0Z" style="fill: #078fa9"/>
                </g>
              </g>
              <g style="isolation: isolate">
                <g>
                  <path id="SVGID-23" data-name="SVGID" d="M106.45,142v-1a.85.85,0,0,1-.5.7v1A.86.86,0,0,0,106.45,142Z" style="fill: #186d7d"/>
                  <g style="clip-path: url(#clip-path-10)">
                    <path d="M106,141.71v1a.86.86,0,0,0,.5-.7v-1a.85.85,0,0,1-.5.7Z" style="fill: #186d7d"/>
                  </g>
                </g>
                <g>
                  <path id="SVGID-24" data-name="SVGID" d="M69.43,144.3v1a.83.83,0,0,0,.49.69v-1A.83.83,0,0,1,69.43,144.3Z" style="fill: #186d7d"/>
                  <g style="clip-path: url(#clip-path-11)">
                    <g style="isolation: isolate">
                      <path d="M69.43,144.3v1a.68.68,0,0,0,.18.44v-1a.68.68,0,0,1-.18-.44Z" style="fill: #186d7d"/>
                      <path d="M69.61,144.74v1a1.13,1.13,0,0,0,.31.25v-1a1.35,1.35,0,0,1-.31-.25Z" style="fill: #186d7d"/>
                    </g>
                  </g>
                </g>
                <polygon points="69.92 144.99 69.92 145.96 83.85 154.06 83.84 153.09 69.92 144.99" style="fill: #186d7d"/>
                <polygon points="86.25 153.09 86.25 154.06 105.95 142.69 105.95 141.71 86.25 153.09" style="fill: #186d7d"/>
                <g>
                  <path id="SVGID-25" data-name="SVGID" d="M83.84,153.09v1a2.61,2.61,0,0,0,2.4,0v-1A2.69,2.69,0,0,1,83.84,153.09Z" style="fill: #186d7d"/>
                  <g style="clip-path: url(#clip-path-12)">
                    <g style="isolation: isolate">
                      <path d="M83.84,153.09v1a2.24,2.24,0,0,0,.84.27v-1a2.29,2.29,0,0,1-.85-.26Z" style="fill: #186d7d"/>
                      <path d="M84.69,153.35v1a2.54,2.54,0,0,0,1.56-.27v-1a2.63,2.63,0,0,1-1.56.26Z" style="fill: #186d7d"/>
                    </g>
                  </g>
                </g>
                <path d="M69.93,143.59a.74.74,0,0,0,0,1.4l13.92,8.1a2.69,2.69,0,0,0,2.41,0L106,141.71a.73.73,0,0,0,0-1.39L92,132.22a2.67,2.67,0,0,0-2.4,0Z" style="fill: #078fa9"/>
              </g>
              <g style="isolation: isolate">
                <g>
                  <path id="SVGID-26" data-name="SVGID" d="M92.56,130.6v1a.79.79,0,0,0,.45.64v-1A.75.75,0,0,1,92.56,130.6Z" style="fill: #186d7d"/>
                  <g style="clip-path: url(#clip-path-13)">
                    <g style="isolation: isolate">
                      <path d="M92.56,130.6v1a.63.63,0,0,0,.16.41v-1a.6.6,0,0,1-.17-.4Z" style="fill: #186d7d"/>
                      <path d="M92.73,131v1a1.18,1.18,0,0,0,.29.23v-1a1.18,1.18,0,0,1-.29-.23Z" style="fill: #186d7d"/>
                    </g>
                  </g>
                </g>
                <g>
                  <path id="SVGID-27" data-name="SVGID" d="M115.23,136.73v-1a.78.78,0,0,1-.46.65v1A.78.78,0,0,0,115.23,136.73Z" style="fill: #186d7d"/>
                  <g style="clip-path: url(#clip-path-14)">
                    <path d="M114.77,136.4v1a.78.78,0,0,0,.46-.64v-1a.78.78,0,0,1-.46.65Z" style="fill: #186d7d"/>
                  </g>
                </g>
                <polygon points="93.02 131.23 93.02 132.21 107.14 140.42 107.14 139.45 93.02 131.23" style="fill: #186d7d"/>
                <polygon points="109.34 139.45 109.35 140.42 114.77 137.37 114.77 136.4 109.34 139.45" style="fill: #186d7d"/>
                <g>
                  <path id="SVGID-28" data-name="SVGID" d="M107.14,139.45v1a2.46,2.46,0,0,0,2.21,0v-1A2.44,2.44,0,0,1,107.14,139.45Z" style="fill: #186d7d"/>
                  <g style="clip-path: url(#clip-path-15)">
                    <g style="isolation: isolate">
                      <path d="M107.14,139.45v1a2.12,2.12,0,0,0,.77.25v-1a2.11,2.11,0,0,1-.77-.24Z" style="fill: #186d7d"/>
                      <path d="M107.91,139.69v1a2.39,2.39,0,0,0,1.44-.25v-1a2.43,2.43,0,0,1-1.43.24Z" style="fill: #186d7d"/>
                    </g>
                  </g>
                </g>
                <path d="M93,130a.68.68,0,0,0,0,1.28l14.12,8.22a2.44,2.44,0,0,0,2.2,0l5.43-3c.61-.36.61-.93,0-1.28l-14.12-8.22a2.46,2.46,0,0,0-2.21,0Z" style="fill: #078fa9"/>
              </g>
            </g>
            <g>
              <g>
                <g>
                  <path d="M57.33,153.44s0,0,0,0c.74-1.43,1.71-1.17,2.08-1l1.6.7a4.48,4.48,0,0,0,2.41.27c2.33-1.84,5.78-5.64,6.47-6.17s1.78-1.45,3.14-2.56l1.57-1.26c.75-.59,1.52-1.18,2.28-1.72a25,25,0,0,1,7.92-4.35,3.44,3.44,0,0,0,.44,2.94c2.42,4.67,4.65,3.78,4.65,3.78C88,148.09,82,150.64,82,150.64h0c-1.79,1-3.65,2-5.05,2.72a16,16,0,0,1-4.6,3.6,15.24,15.24,0,0,1-1.56.74h0c-.15.06-.31.13-.48.18-.77.3-1.52.53-2.45.84l-.36.23-.1.1c-.3.32-.39.81-.75,1.06a1.68,1.68,0,0,1-.86.2l-1.66.06a3.53,3.53,0,0,1-.92,0,1.64,1.64,0,0,1-.63-.32,2.65,2.65,0,0,1-.51-.55,6.52,6.52,0,0,1-.64-1.33.87.87,0,0,1-.06-.67.65.65,0,0,1,.31-.28c.71-.36,1.56,0,2.35.18a5.68,5.68,0,0,0,2.21.11A73.32,73.32,0,0,0,73.74,151c.41-.38,6.35-6,6.88-6.43-.26.15-5.87,4.79-6.12,4.94-2,1.15-3.51,2.63-5.67,3.39A13,13,0,0,0,66,154.83c-.85.8-.71,1-1.65,1.66a1.85,1.85,0,0,1-1.36.42c-.89-.15-1-.82-2.4-1.26-.54-.16-1.25-.38-1.94-.54S56.9,154.34,57.33,153.44Z" style="fill: #fcddcc"/>
                  <path d="M62.61,156.5a.86.86,0,0,0,1,0c2.91-4.27,8.35-4.27,11.07-8,.51-.67-.73-2.36-1.58-3.94l1.55-1.24c.75-.59,1.52-1.18,2.28-1.72a25,25,0,0,1,7.92-4.35,3.44,3.44,0,0,0,.44,2.94c2.42,4.67,4.65,3.78,4.65,3.78C88,148.09,82,150.64,82,150.64c-1.79,1-3.65,2-5.05,2.72a16,16,0,0,1-4.6,3.6,15.24,15.24,0,0,1-1.56.74h0c-.15.06-.31.13-.48.18-.77.3-1.52.53-2.45.84l-.36.23-.1.1c-.3.32-.39.81-.75,1.06a1.68,1.68,0,0,1-.86.2l-1.66.06a3.53,3.53,0,0,1-.92,0,1.64,1.64,0,0,1-.63-.32,2.65,2.65,0,0,1-.51-.55,5.09,5.09,0,0,1-.46-.9,10.33,10.33,0,0,1,1.73,1.25,2,2,0,0,0,2.52,0c.78-.39,1.36-1.36,2.14-1.75,2.91-1.36,6.8-2.53,8.35-5.64.2,0,.78.39.78.2.57-1.51-.51-2.65-1.11-3.78,1.87-1.76,4.23-4,4.55-4.25-.26.15-5.87,4.79-6.12,4.94-2,1.15-3.51,2.63-5.67,3.39A13,13,0,0,0,66,154.83c-.85.8-.71,1-1.65,1.66a1.85,1.85,0,0,1-1.36.42c-.89-.15-1-.82-2.4-1.26-.54-.16-1.25-.38-1.94-.54a2.27,2.27,0,0,1-1.16-.68A12.45,12.45,0,0,1,62.61,156.5Z" style="fill: #f4c1a5"/>
                  <path d="M84.61,133.2h0l8.59-2.8a1.72,1.72,0,1,1,.94,3.31l-7.9,2.11c-.56-.89-1.22-1.72-1.85-2.54Z" style="fill: #f4c1a5"/>
                  <path d="M96.27,141a7.36,7.36,0,0,0-3.76,1.47,10.28,10.28,0,0,0-1.59,1.54,26.85,26.85,0,0,1-2.42,2.35.38.38,0,0,1-.26.14.5.5,0,0,1-.2-.08,6,6,0,0,1-2.1-3.8c-.25-1-1.6-1.79-2.7-2.55a5.58,5.58,0,0,1-1.07-.93l2-1.58a49.49,49.49,0,0,0,7.57-4.67c.56-.59.92-2.55,2.31-2.51a8.66,8.66,0,0,1,3.25,1.74c1.79,1.82,4.07,3.16,4.23,5.59.12,1.72-2.92,2.95-4.44,3.18a.9.9,0,0,1-.16,0Z" style="fill: #fcddcc"/>
                  <path d="M90.92,144.05a10.28,10.28,0,0,1,1.59-1.54A7.36,7.36,0,0,1,96.27,141l.62-.08a.9.9,0,0,0,.16,0,3.35,3.35,0,0,0,.23-.55,2.88,2.88,0,0,0,.09-.4c.65-.7,1.79-2.09,1.09-3-.4-.51-.82-.18-1.15.19s-.49.54-.73.81a6.75,6.75,0,0,1-1.6-.66,3.22,3.22,0,0,1-1-.7.88.88,0,0,0-.29.75,2.12,2.12,0,0,0,.83,1.5,3.54,3.54,0,0,0,.8.46,19,19,0,0,1-2.23,1.77,2.49,2.49,0,0,1-1,.51c-.87.18-1.66-.49-2.29-1.11-.31,0-.44.43-.38.73a2.46,2.46,0,0,1,.16.91.92.92,0,0,1-.85.65,2.72,2.72,0,0,1-1.11-.25,3.94,3.94,0,0,1-2-1.26,4.72,4.72,0,0,0-.35-.52,2.08,2.08,0,0,0-.77-.43L83.47,140a.2.2,0,0,0-.2,0,.16.16,0,0,0,0,.12l-1.56.12c1.1.76,1.31,3.24,1.56,4.28.34,1.45,3.57,1.15,4.8,2a.5.5,0,0,0,.2.08.38.38,0,0,0,.26-.14A26.85,26.85,0,0,0,90.92,144.05Z" style="fill: #f4c1a5"/>
                  <path d="M98,134.63a1.81,1.81,0,0,0,1.38.42,20.79,20.79,0,0,0,2.48-1.93l-3-1.73s-1.09.83-1.41,1.16S97.31,134.12,98,134.63Z" style="fill: #f4c1a5"/>
                  <path d="M93,131.8a3.56,3.56,0,0,0-.39.75,1.68,1.68,0,0,0-.13.58,2.36,2.36,0,0,0,.26.92,1.82,1.82,0,0,0,.86,1.07,2.12,2.12,0,0,1-.75-.1,1.84,1.84,0,0,1-.66-.48,3,3,0,0,1-.66-1,1.44,1.44,0,0,1,0-1.15Z" style="fill: #f4c1a5"/>
                  <path d="M87,140.14a.31.31,0,0,1-.44-.07.33.33,0,0,1,.11-.44.3.3,0,1,1,.33.51Z" style="fill: #f4c1a5"/>
                  <g>
                    <g>
                      <path d="M97.76,132.15a1.93,1.93,0,0,0,.75,1.25,3.74,3.74,0,0,0,1.86.79,7.69,7.69,0,0,0,3-.79l.28-.18c1.5-1.08.67-2.58.51-4.17s-1.54-2.69-3.22-1.32S97.63,130.68,97.76,132.15Z" style="fill: #fcddcc"/>
                      <path d="M99.79,128.7c.08.09,1.82-1.62,2.49-.13.48,1,1.83,1.57,1.74,2.07s-1.4,1.23-1.91,1.59c-.25.18.26.45.39.52s0,.13,0,.36c-.16.61-1.66.95-1.94,1.09a4.09,4.09,0,0,0,1.52,0l.23,0a3.32,3.32,0,0,0,.81-.1,6.63,6.63,0,0,0,1.68-.6c2.51-1.4,1.29-3.21,1.29-3.21a3.7,3.7,0,0,0-2.37-3.5C101.64,126.06,99.65,128.56,99.79,128.7Z" style="fill: #414141"/>
                    </g>
                    <path d="M101.49,133.07c0,.33.41.62,1,.64s1-.23,1-.56-.4-.61-.94-.64S101.51,132.74,101.49,133.07Z" style="fill: #fcddcc"/>
                    <path d="M102,133.09c0,.16.19.29.44.3s.46-.1.47-.26-.19-.29-.44-.3S102,132.94,102,133.09Z" style="fill: #f4c1a5"/>
                  </g>
                </g>
                <path d="M94.18,147.25l-7.29,4.13c-.46.32-.86.72-1.36,1a4,4,0,0,1-1.9.34.74.74,0,0,1-.21,0,.23.23,0,0,1-.12-.17c0-.1.11-.16.2-.2-.17-.08-.58-.17-.63-.31s0-.13.22-.22a4.55,4.55,0,0,1,1.11-.11A1,1,0,0,0,85,151a1.06,1.06,0,0,0-.58.08,1.36,1.36,0,0,1-.43.14.33.33,0,0,1-.36-.2c-.06-.22,1.52-.92,2.44-1.08a1.29,1.29,0,0,0,.4-.13,46.52,46.52,0,0,0,6.22-5.06,62.26,62.26,0,0,0,5.15-7.49,2.26,2.26,0,0,1,2.86-.76,1.4,1.4,0,0,1,.57.44c.5.73,0,2.3-.74,3.21a68.85,68.85,0,0,1-5.83,6.68A4,4,0,0,1,94.18,147.25Z" style="fill: #fcddcc"/>
                <path d="M94.18,147.25l-7.29,4.13c-.46.32-.86.72-1.36,1a4,4,0,0,1-1.9.34.74.74,0,0,1-.21,0,.23.23,0,0,1-.12-.17c0-.1.11-.16.2-.2-.17-.08-.58-.17-.63-.31a1.19,1.19,0,0,1,.42,0c.18,0,.35.14.53.2a2,2,0,0,0,1.75-.33,2.68,2.68,0,0,0,1-1.55,1.21,1.21,0,0,1,.38.46,63.86,63.86,0,0,0,6.7-4.1,1.38,1.38,0,0,0,.66-.83,1.43,1.43,0,0,1,.06-.36c.09-.18.3-.23.5-.29a4.17,4.17,0,0,0,1.82-1.31,27.83,27.83,0,0,0,3.79-5.09c.28-.47.58-1.19.18-1.67-.12-.14-.7-.38-.56-.62s.39-.1.68-.09a1.4,1.4,0,0,1,.57.44c.5.73,0,2.3-.74,3.21a68.85,68.85,0,0,1-5.83,6.68A4,4,0,0,1,94.18,147.25Z" style="fill: #f4c1a5"/>
                <path d="M72.91,139.15a11.69,11.69,0,0,1,1.61-.58c-.52,0-1.87.48-1.79.21,0-.08.12-.13.22-.18l1.51-.71a7.09,7.09,0,0,1,1-.33l1-.29a12.69,12.69,0,0,1,1.43-.34l6.49-3.59h0l.1,0c.63.82,1.29,1.65,1.85,2.54l-.71.19-6.62,2.28c-.26.21-.55.43-.56.45l-.32.51c-.22.32-.63.56-.85.88-.07.09-.21.42-.4.45a.33.33,0,0,1-.14,0c-.62-.31-.07-.7.14-.95a2.58,2.58,0,0,0,.18-.32l-1.3.51c-.25.1-1.48.62-1.73.41s.07-.21.17-.26a10.67,10.67,0,0,1,1.4-.67l-1.29.48c-.2.08-1,.34-1.23.13a.1.1,0,0,1,0-.17,6.84,6.84,0,0,1,1.2-.49l-.85.24a.8.8,0,0,1-.57,0C72.58,139.34,72.79,139.2,72.91,139.15Z" style="fill: #f4c1a5"/>
              </g>
              <path d="M88.89,146.05s-2.93.24-5.34-5.07c-.56-1.23-.91-2.26-.43-3-3.4.84-7.68,4.53-9.15,5.21-.2,1.84,1.55,4.55,2.32,5.05.75-.4,3.49-2.89,3.84-3.12-1.39,1-2.12,2.12-3.52,3.07-.15.33,0,.48.17.82.41,1,2.7,3.7,3.63,3.86C80.41,152.82,87.35,148.38,88.89,146.05Z" style="fill: #cbd2db"/>
            </g>
            <path d="M108.54,141.09c0-8.32-5.83-18.46-13.08-22.65l-.09,0c2.2-1.64,4.3-3.44,6.58-5.12,8.9,8.31,15.34,21.59,15.31,32.86,0,7.61-3,12.73-7.65,14.64l-10.26-5.92c.1-1.53.22-3.07.36-4.6C104.83,151.15,108.52,147.67,108.54,141.09Z" style="fill: #fff"/>
            <ellipse cx="95.49" cy="133.73" rx="10.84" ry="18.78" transform="translate(-54.07 65.66) rotate(-30)" style="opacity: 0.5;mix-blend-mode: screen;fill: url(#linear-gradient-19)"/>
            <path d="M110.89,160.14l4.71-2.73c3.92-2.28,6.35-7.13,6.37-14a39.76,39.76,0,0,0-2.83-14.1L114.43,132a39.54,39.54,0,0,1,2.83,14.1c0,6.89-2.45,11.73-6.37,14Z" style="fill: url(#linear-gradient-20)"/>
            <path d="M114.43,132l4.71-2.73a52,52,0,0,0-4.78-9.41l-4.7,2.73a53,53,0,0,1,4.77,9.41Z" style="fill: #fafbfb"/>
            <g>
              <path d="M96.16,114.59a1.72,1.72,0,0,0-.79-1.36c-.43-.25-.78,0-.78.45a1.74,1.74,0,0,0,.78,1.37C95.81,115.3,96.16,115.09,96.16,114.59Z" style="fill: #4368b0"/>
              <path d="M100.62,117.17a11.6,11.6,0,0,0-5.25-9.09c-2.89-1.67-5.24-.31-5.24,3a11.59,11.59,0,0,0,5.24,9.08C98.27,121.87,100.62,120.51,100.62,117.17Z" style="mix-blend-mode: screen;fill: url(#radial-gradient)"/>
              <path d="M96.44,114.76a2.34,2.34,0,0,0-1.07-1.86c-.59-.34-1.06-.06-1.06.62a2.36,2.36,0,0,0,1.06,1.86C96,115.72,96.45,115.44,96.44,114.76Z" style="mix-blend-mode: color-dodge;fill: url(#radial-gradient-2)"/>
            </g>
            <g>
              <path d="M90.91,113.72a1.71,1.71,0,0,0-.78-1.35c-.43-.26-.79-.06-.79.45a1.75,1.75,0,0,0,.79,1.36C90.56,114.43,90.91,114.23,90.91,113.72Z" style="fill: #4368b0"/>
              <path d="M95.37,116.3a11.57,11.57,0,0,0-5.24-9.08c-2.9-1.68-5.25-.32-5.25,3a11.6,11.6,0,0,0,5.25,9.09C93,121,95.37,119.64,95.37,116.3Z" style="mix-blend-mode: screen;fill: url(#radial-gradient-3)"/>
              <path d="M91.2,113.89A2.38,2.38,0,0,0,90.13,112c-.59-.34-1.07-.06-1.07.62a2.37,2.37,0,0,0,1.07,1.86C90.72,114.85,91.2,114.57,91.2,113.89Z" style="mix-blend-mode: color-dodge;fill: url(#radial-gradient-4)"/>
            </g>
            <g>
              <path d="M100.56,118.51a1.73,1.73,0,0,0-.78-1.36c-.43-.26-.79-.05-.79.45a1.77,1.77,0,0,0,.79,1.37C100.21,119.22,100.56,119,100.56,118.51Z" style="fill: #4368b0"/>
              <path d="M105,121.08A11.57,11.57,0,0,0,99.78,112c-2.9-1.67-5.25-.32-5.25,3a11.59,11.59,0,0,0,5.25,9.08C102.68,125.78,105,124.43,105,121.08Z" style="mix-blend-mode: screen;fill: url(#radial-gradient-5)"/>
              <path d="M100.85,118.67a2.36,2.36,0,0,0-1.07-1.85c-.59-.35-1.07-.07-1.07.62a2.4,2.4,0,0,0,1.07,1.86C100.37,119.64,100.85,119.36,100.85,118.67Z" style="mix-blend-mode: color-dodge;fill: url(#radial-gradient-6)"/>
            </g>
          </g>
        </g>
        <g>
          <g style="mix-blend-mode: multiply">
            <path d="M323.33,189.52l-55.88-32.75a6,6,0,0,0-5.45,0l-49.29,28.57c-1.5.88-1.49,2.29,0,3.16l55.88,32.75a6,6,0,0,0,5.45,0l49.29-28.57C324.85,191.81,324.84,190.39,323.33,189.52Z" style="fill: url(#linear-gradient-21)"/>
          </g>
          <g style="isolation: isolate">
            <path d="M323.33,164.34l-55.88-32.75a6,6,0,0,0-5.45,0l-49.29,28.57c-1.5.87-1.49,2.29,0,3.16l55.88,32.75a6,6,0,0,0,5.45,0l49.29-28.57C324.85,166.62,324.84,165.21,323.33,164.34Z" style="fill: #b8e3f0"/>
            <path d="M323.35,167.5l-49.29,28.57a6,6,0,0,1-5.45,0l-55.88-32.75a1.94,1.94,0,0,1-1.14-1.59v3.59a1.93,1.93,0,0,0,1.14,1.59l55.88,32.75a6,6,0,0,0,5.45,0l49.29-28.57a1.92,1.92,0,0,0,1.12-1.57v-3.59A1.93,1.93,0,0,1,323.35,167.5Z" style="fill: #95d4ec"/>
          </g>
        </g>
        <g>
          <g style="isolation: isolate">
            <path d="M230.39,64.61l-.15,53.66a4.74,4.74,0,0,0,2.15,3.73l69.76,40.28c1.2.69,2.17.13,2.17-1.24l.15-53.66a4.74,4.74,0,0,0-2.15-3.73L232.56,63.37C231.36,62.68,230.39,63.24,230.39,64.61Zm6,56.77.15-52.76,61.75,35.65L298.15,157Z" style="fill: #edf2f2"/>
            <path d="M234.27,62.38,304,102.65a4.77,4.77,0,0,1,2.16,3.74L306,160.05a1.49,1.49,0,0,1-.63,1.38l-1.71,1a1.52,1.52,0,0,0,.63-1.39l.15-53.66a4.74,4.74,0,0,0-2.15-3.73L232.56,63.37a1.54,1.54,0,0,0-1.54-.15l1.71-1A1.52,1.52,0,0,1,234.27,62.38Z" style="fill: #007887"/>
            <polygon points="298.3 104.27 298.15 157.03 236.4 121.38 236.55 68.62 298.3 104.27" style="fill: #007887"/>
          </g>
          <g>
            <polygon points="298.31 104.1 298.31 157.28 236.09 121.55 236.24 68.37 298.31 104.1" style="fill: #4caeb2"/>
            <polygon points="298.31 104.1 298.31 109.65 236.09 73.93 236.24 68.37 298.31 104.1" style="fill: #308d8d"/>
            <g>
              <polygon points="256.81 124.85 256.8 126.42 240.13 116.8 240.14 115.23 256.81 124.85" style="fill: #cbe8ea"/>
              <g>
                <g>
                  <polygon points="242.15 99.93 242.13 102.45 244.31 103.73 244.3 105.15 240.88 103.15 240.91 99.2 242.15 99.93" style="fill: #fff"/>
                  <polygon points="244.46 85.7 244.45 87.12 242.27 85.85 242.25 88.38 241 87.65 241.03 83.7 244.46 85.7" style="fill: #fff"/>
                  <polygon points="254.26 91.42 257.69 93.42 257.65 97.38 256.41 96.65 256.43 94.12 254.25 92.85 254.26 91.42" style="fill: #fff"/>
                  <polygon points="256.29 110.73 256.31 108.2 257.56 108.93 257.53 112.88 254.1 110.88 254.11 109.45 256.29 110.73" style="fill: #fff"/>
                </g>
                <g>
                  <path d="M245.88,97.56l.16.62.09.37.1.37c.06.25.12.5.19.75l.19.74.25,1,.16-.75c0-.19.08-.38.12-.57l.12-.57.12-.57.06-.29.06-.29.11-.57.06-.29.05-.29.06-.29.14.46.12.39.12.38.11.39.13.39.06.2.15.08.56.32.55.31,1.12.63,1.12.62,1.12.62,1.12.61.56.31.34.18c-1.57,2.68-5.63,3.31-5.85,3.34-.21-.28-4.24-5.58-5.8-10l.84.52Z" style="fill: #fff"/>
                  <path d="M246.1,90.87a7.36,7.36,0,0,1,3.18,5.86c0-2.22,1.44-3.19,3.21-2.17a7.36,7.36,0,0,1,3.18,5.86,4.08,4.08,0,0,1-.48,2l-.43-.26-.56-.34-1.12-.68-1.12-.68-1.11-.67-1.12-.66-.56-.34-.41-.23,0-.2-.11-.38-.11-.39c0-.13-.07-.26-.11-.39l-.22-.77-.23-.77-.32-1.1-.17.87-.05.29-.06.29-.11.58-.05.29,0,.29-.11.58,0,.29-.05.29-.11.58-.07.41-.15-.54-.11-.37-.12-.37-.22-.75,0-.14-.1,0-1.69-1-1-.54a8.36,8.36,0,0,1-.46-2.49C242.9,90.82,244.33,89.85,246.1,90.87Z" style="fill: #fff"/>
                </g>
              </g>
            </g>
          </g>
        </g>
        <g>
          <g>
            <path d="M280.27,141.84c-.13-.15.15-.24.22-.42.16-.4,0-.82.58-1.32.07-.07.13-.18.21-.2.36-.11.46.07.48.33.6-.25,1.55-1.58,1.7-1,.08.27-.91,1-1.06,1.18,0,0,.31-.21.36-.25s.47-.34.56-.08-.08.32-.22.44-.25.22-.21.2.45-.33.54,0a.3.3,0,0,1-.12.29,2.08,2.08,0,0,1-.21.21c.25-.1.47.15.22.37a4.91,4.91,0,0,1-2.18,1.15s0,0,0,0,0,0,0,0l-.06-.09c-.06-.09-.09-.05-.16-.14S280.42,142,280.27,141.84Z" style="fill: #fcd4be"/>
            <path d="M270.74,148.06c.47-1.11,4.72-3.55,4.72-3.55.66-.48,2.83-2,4.57-3.24a2.54,2.54,0,0,1,1.79,1.62,33.7,33.7,0,0,0-2.31,2.82,10.44,10.44,0,0,1-2.06,1.74h-.05l-1.47,1.13c-1.49.92-3,1.9-4.72,1.9A2.91,2.91,0,0,1,270.74,148.06Z" style="fill: #cbd2db"/>
            <path d="M276.16,146.33v.15l0,1.33a2.15,2.15,0,0,1-.32.36h-.11c-1-.1-2.17-.31-2.16-1l0,0,.05-1h.11l1.74.15Z" style="fill: #fcd4be"/>
            <path d="M273.23,147a5.91,5.91,0,0,0-.06,1.69c0,.55.14-.23.64,0a2.83,2.83,0,0,0,1.63.09,1,1,0,0,0,.65-.32c.22-.22.22-1.13,0-1.14a7.48,7.48,0,0,0-.82,0,3.19,3.19,0,0,1-1.33-.22C273.67,146.93,273.56,146.65,273.23,147Z" style="fill: #f7f9fc"/>
            <path d="M270.87,178.66s-.17,1.43.32,1.85a1.66,1.66,0,0,0,1.2-.16c.36-.16.73-.47,1.09-.59a2.48,2.48,0,0,0,1.64-1.64c.75-1.54-.94-.82-2-.19A5.6,5.6,0,0,1,270.87,178.66Z" style="fill: #16181d"/>
            <path d="M274.73,168.19c-.1.82-.26,1.63-.39,2.44-.08.46-.06.82-.14,1.28-.16.94-.12,5.29-.12,6.78,0,.3-3.25,1.26-3.34.82a33.92,33.92,0,0,1-.14-5.3c.12-1,.36-10.31.3-10.93-.1-1,0-2.67.84-3.2,1.27-.79,2.87,1,3.22,1.73C275.47,162.91,275.14,164.51,274.73,168.19Z" style="fill: #0b7c91"/>
            <path d="M274.87,180.62s-.52,1.33-.15,1.87a1.68,1.68,0,0,0,1.19.18c.39,0,.82-.25,1.2-.26a2.36,2.36,0,0,0,2-1.11c1.12-1.27-.7-1.06-1.9-.76A5.53,5.53,0,0,1,274.87,180.62Z" style="fill: #16181d"/>
            <path d="M278.6,168.22h0c-1,8.11-.65,7-.68,12.79,0,.47-.11.38-1.56.6a3.22,3.22,0,0,1-.93.06c-.93-.12-1.07-.82-1.09-1.57s-.25-10.3,1.91-10.31A11.13,11.13,0,0,0,278.6,168.22Z" style="fill: #078fa9"/>
            <path d="M278.82,162.75c-.09,2.06-.1,4-.22,5.47h0a6.09,6.09,0,0,1-.86,2.92c-.32.75-.28,1.3-.7,1.67a1,1,0,0,1-1.19.05c-.36-.22-.85,1.55-1,1.12a17,17,0,0,1-.19-2.27c-.17-3.56-1.7-5.92-1.37-8.83C273.33,162.73,278.82,162.75,278.82,162.75Z" style="fill: #078fa9"/>
            <path d="M279.68,150.17s-.08.56-.2,1.36c0,0,0,.09,0,.14-.17,1.18-.39,2.82-.5,4,0,.39-.06.73-.06,1,0,1.28-.15,12.62-.09,13.75a.58.58,0,0,1-.28.54,4.5,4.5,0,0,1-.57.3,4.12,4.12,0,0,1-1,.29,6.18,6.18,0,0,1-.81.1,13.91,13.91,0,0,1-3.41-.14,4.92,4.92,0,0,1-2.21-.94.61.61,0,0,1-.23-.47h0c0-1.21.24-10.87.95-13.66.55-2.17-.81-6-.75-7.25.05-1,.42-2.32,2.7-2l3,.69C276.83,148.19,279.44,148.66,279.68,150.17Z" style="fill: #eaeef1"/>
            <path d="M277.05,145.45a2,2,0,0,1-.89,1,1.38,1.38,0,0,1-.47.16h-.1a.81.81,0,0,1-.46-.07c-.28-.14-1.29,0-1.39-.26,0-.06,0-.13-.05-.2a10.25,10.25,0,0,1,.54-2.63,3.06,3.06,0,0,1,1-1.74,4,4,0,0,1,1.51-.85l.27.33.23.28a8.74,8.74,0,0,0,0,2A4.61,4.61,0,0,1,277.05,145.45Z" style="fill: #fcd4be"/>
            <path d="M277.28,143.49a8.74,8.74,0,0,1,0-2l-.23-.28-.08.43a7,7,0,0,1,0,3.16,2.41,2.41,0,0,1-.5,1.1,1,1,0,0,1-1.11.31l.06,0a.89.89,0,0,1,.26.37,1.59,1.59,0,0,1,.07.38,1.93,1.93,0,0,1,0,.24,1,1,0,0,1,.35,0h0v-.79a2,2,0,0,0,.89-1A4.61,4.61,0,0,0,277.28,143.49Z" style="fill: #fcd4be"/>
            <path d="M277.65,141.35c0,.4-.39.37-.6.72s-.26.75-.51,1.15c-.08.14-.44,1.51-.85,1.27-.6-.35.08,1.27-1,1.86a2.1,2.1,0,0,1-.93,0,.57.57,0,0,1-.3-.21l0,0a12.51,12.51,0,0,1-1.71-2,4,4,0,0,1-.25-1.62,2.62,2.62,0,0,1,.58-1.36,3,3,0,0,1,1.06-1,4.39,4.39,0,0,1,2.59-.36l.33,0a5.47,5.47,0,0,1,.58.15l.24.13c.82.45.81.92.81,1A2.34,2.34,0,0,1,277.65,141.35Z" style="fill: #2b130d"/>
            <path d="M275.64,144.41a.55.55,0,1,1-.86-.24A.65.65,0,0,1,275.64,144.41Z" style="fill: #fcd4be"/>
            <path d="M275.93,147.53a3.68,3.68,0,0,1,.54.16.48.48,0,0,1,.24.36,9.26,9.26,0,0,1-2.71-.25,2.42,2.42,0,0,1-1.29-.65c-.24-.4,1.24,0,1.39.08.6.16,1.23.17,1.83.3Z" style="fill: #fcfcfb"/>
          </g>
          <path d="M281,162.89l.81-.1c.06.49.09.79.09.79s.27.32.3.36c.19.32.27.69.46,1,.06.09.28.37.25.49a.13.13,0,0,1-.07.05c-.35.12-.52-.23-.64-.51l.09.43c0,.17.25,1,.05,1.07s-.16-.13-.19-.2a8.41,8.41,0,0,1-.3-1c.06.3.12.58.17.87,0,.13.1.66-.1.69a.12.12,0,0,1-.13-.09,3.16,3.16,0,0,1-.19-.82c0,.18,0,.36,0,.54s0,.25-.08.29-.2-.1-.23-.19a5.45,5.45,0,0,1-.19-1.07c0,.22,0,.78,0,1h0c0,.05,0,.06-.09,0a.37.37,0,0,1-.11-.19c-.12-.41-.19-.66-.32-1.07a4.76,4.76,0,0,1-.11-.64c0-.22,0-.39-.07-.61s0-.28,0-.46h0l-.17-.47A7.78,7.78,0,0,1,281,162.89Z" style="fill: #fcd4be"/>
          <path d="M277.74,149.69a1.07,1.07,0,0,1,1.35-.48,1.53,1.53,0,0,1,.59.88l1.43,6.42c.15.81.89,4.76,1.27,6.86a2.55,2.55,0,0,1-2.24.93c-.68-1.8-1.54-3.94-1.84-4.63a10.6,10.6,0,0,1-.7-2.61.09.09,0,0,0,0-.05l-.39-1.81C277,153.3,276.73,151.33,277.74,149.69Z" style="fill: #fcfcfb"/>
        </g>
        <g>
          <g>
            <polygon points="326.12 73.86 326.02 112.07 294.31 93.76 294.42 55.55 326.12 73.86" style="fill: #89d6f2;opacity: 0.5"/>
            <path d="M299.13,85.7a5.29,5.29,0,0,0,2.39,4.14c1.25.72,2.29.2,2.39-1.15l8.4,4.85c.13,1,.4,3,.39,3.07a.75.75,0,0,0,0,.42,3.73,3.73,0,0,1-.15.68l-.27.27c-.06.21.18.35.2.36l.91.5s.21.06.2-.29c0-.11-.19-.87-.21-1.13a.73.73,0,0,0,.05-.53,8.34,8.34,0,0,1,0-1.67,5.37,5.37,0,0,0,.13-2.45,4.16,4.16,0,0,1,.05-.69c.05-.22.5-3.39.5-3.91V87.08a1.16,1.16,0,0,0,.22.17.75.75,0,0,0,.25.1v1.09c0,.52.43,4.2.47,4.47a4.44,4.44,0,0,1,.06.75,6.6,6.6,0,0,0,.11,2.59,9.69,9.69,0,0,1,0,1.7c-.1.2,0,.51,0,.58a8.57,8.57,0,0,1-.21.89.64.64,0,0,0,.2.52l.91.56s.26.14.2-.13l-.27-.59a4.6,4.6,0,0,1-.14-.84c.06-.08,0-.3,0-.42s.42-2.62.46-3.08,0-1.51,0-1.88c0-.17,0-.93,0-1.09s0-.79.13-1.53a10.73,10.73,0,0,0,0-2.43c0-.65-.26-2.54-.27-2.82a7.8,7.8,0,0,0-.13-1.38,10.12,10.12,0,0,1,.19-2.23,11,11,0,0,1,.51,1.57c0,.11.14.78.17.9.07.36,1,3.51,1.09,3.68a.91.91,0,0,0,0,.54l.11.65.13,1.16a.2.2,0,0,0,.08.13c.06,0,.09,0,.09-.06l-.07-.86.08.07.22,1.2a.23.23,0,0,0,.09.14c.07,0,.11,0,.1-.07l-.15-1.07.09,0,.28,1.26a.19.19,0,0,0,.1.13c.07,0,.1,0,.09-.08l-.23-1.26h.07l.4,1.16a.2.2,0,0,0,.09.11c.09,0,.11,0,.09-.1l-.44-1.44,0-.23a4.65,4.65,0,0,1,.29.43.8.8,0,0,0,.28.38c.09,0,.14,0,.14,0s-.42-.89-.63-1.29a2.68,2.68,0,0,0-.53-.75c0-.09-.4-2.73-.53-3.38a9.25,9.25,0,0,0-.43-1.43,9.16,9.16,0,0,1-.31-1.35,5.79,5.79,0,0,1-.13-1.09,4.5,4.5,0,0,0-.52-1.72,2.36,2.36,0,0,0-.81-.75,13.11,13.11,0,0,1-1-1.28l-.05-.69a4.2,4.2,0,0,0,.58-1.46,2.39,2.39,0,0,0-1-2c-.82-.47-1.3-.27-1.41,0a2.84,2.84,0,0,0-.22.56.39.39,0,0,0,0,.19s-.31.41-.33.43-.07,0,0,.17l.16.12,0,.15.12.22-.07,0,.11.27a.43.43,0,0,0,.17.54l.36.21,0,.35a3.59,3.59,0,0,1-.95.17c-.15-.08-.6-.33-.84-.2a.83.83,0,0,0-.14.13L304,72.15a5.35,5.35,0,0,0-2.38-3.91c-1.32-.76-2.4-.15-2.41,1.37a5.3,5.3,0,0,0,2.39,4.14c1.26.72,2.29.2,2.4-1.16l7.51,4.34a1.67,1.67,0,0,0-.17.68,4,4,0,0,1-.14.93,4.12,4.12,0,0,1-.31,1,2.56,2.56,0,0,0-.44.93c-.14.49-.52,2.7-.54,2.76a.55.55,0,0,0-.36,0L303.92,80a5.37,5.37,0,0,0-2.36-3.74c-1.32-.76-2.4-.14-2.41,1.38a5.28,5.28,0,0,0,2.39,4.13c1.31.76,2.37.16,2.4-1.32l5.22,3-.47.42a.55.55,0,0,0,.14.15.24.24,0,0,0,.29,0s.25-.12.29-.09l0,.14-.45,1s0,.11,0,.16.11.06.13,0l.41-.69.07.09-.24,1a.22.22,0,0,0,.06.17c.07.05.11,0,.12,0l.3-.92.09.06-.16.89a.19.19,0,0,0,.07.17c.07,0,.11,0,.12,0l.23-.94h.07l-.06.79a.17.17,0,0,0,.07.15c.05,0,.08,0,.09,0l.14-1,.12-.53a.84.84,0,0,0,0-.54c.06-.1,1-2.13,1.11-2.4,0-.09.15-.62.18-.71a3,3,0,0,1,.51-1,14.46,14.46,0,0,1,.18,2.45,4.86,4.86,0,0,0-.14,1.22,23,23,0,0,0-.29,2.5,11.39,11.39,0,0,0,0,2.45c.07.82.13,1.52.12,1.67a9.9,9.9,0,0,0,0,1.09c.05.43-.05,1.36,0,1.88l-8.34-4.77a5.29,5.29,0,0,0-2.38-3.91C300.21,83.57,299.13,84.18,299.13,85.7Zm4.43-5.5c0,1.27-.91,1.79-2,1.15a4.43,4.43,0,0,1-2-3.47c0-1.27.91-1.79,2-1.15A4.46,4.46,0,0,1,303.56,80.2Zm0-8c0,1.27-.91,1.78-2,1.14a4.42,4.42,0,0,1-2-3.47c0-1.27.91-1.79,2-1.15A4.4,4.4,0,0,1,303.58,72.16Zm-4.06,13.76c0-1.27.91-1.79,2-1.15a4.44,4.44,0,0,1,2,3.47c0,1.28-.91,1.79-2,1.15A4.39,4.39,0,0,1,299.52,85.92Z" style="fill: #89d6f2"/>
          </g>
          <g>
            <g style="opacity: 0.8">
              <polygon points="314.9 119.35 314.79 159.96 267.73 132 267.84 91.39 314.9 119.35" style="fill: #89d6f2;opacity: 0.5"/>
            </g>
            <g>
              <polygon points="308.67 136.75 308.67 138.13 274.52 118.42 274.52 117.03 308.67 136.75" style="fill: #89d6f2"/>
              <polygon points="308.64 145.66 308.64 147.04 282.85 132.15 282.86 130.77 308.64 145.66" style="fill: #89d6f2"/>
              <polygon points="308.66 141.2 308.65 142.59 282.87 127.7 282.87 126.31 308.66 141.2" style="fill: #89d6f2"/>
              <path d="M278.91,112.89l.91-7c0-.18.17-.24.35-.14a.76.76,0,0,1,.34.53l1.06,9.28,1.06-2.91c0-.13.16-.17.33-.08a.8.8,0,0,1,.3.39l1.06,3,5,2.9.91-7c0-.18.18-.25.35-.14a.73.73,0,0,1,.34.53L292,121.6l1.05-2.92c0-.12.16-.16.33-.07a.76.76,0,0,1,.3.39l1.07,3,4.67,2.71.92-7c0-.19.16-.25.34-.15a.8.8,0,0,1,.34.54l1.07,9.28,1.05-2.92c0-.13.16-.16.33-.08a.8.8,0,0,1,.3.39l1.07,3.05,3.83,2.21v.79l-4.05-2.33a.75.75,0,0,1-.31-.4l-.79-2.26-1.25,3.47c-.05.13-.18.17-.35.06a.77.77,0,0,1-.31-.52l-.93-8-.61,4.72c0,.18-.18.24-.35.14l-5.19-3a.7.7,0,0,1-.3-.39l-.8-2.26-1.25,3.46c-.05.14-.18.17-.36.07a.88.88,0,0,1-.31-.52l-.92-8-.62,4.72c0,.18-.17.24-.34.15l-5.54-3.2a.79.79,0,0,1-.31-.4L283,114l-1.25,3.47c-.05.13-.18.16-.36.06a.83.83,0,0,1-.31-.52l-.92-8.05-.62,4.72c0,.18-.17.24-.34.15l-4.67-2.7v-.79Z" style="fill: #89d6f2"/>
            </g>
          </g>
        </g>
        <g>
          <line x1="269.36" y1="60.28" x2="269.36" y2="60.28" style="fill: none;stroke: #00709e;stroke-linecap: round;stroke-linejoin: round;stroke-width: 1.71115823833577px"/>
          <path d="M269.36,56V29.09a1.84,1.84,0,0,0-1.84-1.83H72.83A1.83,1.83,0,0,0,71,29.09V78.5" style="fill: none;stroke: #00709e;stroke-linecap: round;stroke-linejoin: round;stroke-width: 1.71115823833577px;stroke-dasharray: 0,4.290718078613281"/>
          <line x1="71" y1="80.65" x2="71" y2="80.65" style="fill: none;stroke: #00709e;stroke-linecap: round;stroke-linejoin: round;stroke-width: 1.71115823833577px"/>
          <rect x="263.8" y="59.42" width="11.12" height="1.71" style="fill: #00709e"/>
          <polygon points="64 74.98 65.25 73.81 71 79.99 76.74 73.81 77.99 74.98 71 82.5 64 74.98" style="fill: #00709e"/>
        </g>
        <g>
          <g>
            <path d="M162.82,37.48a8.2,8.2,0,1,1,0-16.4,8.11,8.11,0,0,1,1.47.13,10.23,10.23,0,0,1,18.37,4.6,5.87,5.87,0,0,1-.5,11.66H162.82Z" style="fill: #89d6f2"/>
            <path d="M172.54,17.54a9.72,9.72,0,0,1,9.67,8.72A5.37,5.37,0,0,1,181.75,37H162.82a7.7,7.7,0,1,1,0-15.39,7.81,7.81,0,0,1,1.69.18,9.72,9.72,0,0,1,8-4.23m0-1a10.75,10.75,0,0,0-8.47,4.14A8.71,8.71,0,1,0,162.82,38h19.84v-.07a6.38,6.38,0,0,0,.45-12.54,10.71,10.71,0,0,0-10.57-8.86Z" style="fill: #89d6f2"/>
            <path d="M172.54,18.55a8.67,8.67,0,0,1,8.66,7.82l.09.83.83.07a4.35,4.35,0,0,1-.39,8.69h-.06l-1,0v0H162.82a6.68,6.68,0,1,1,1.47-13.2l.67.15.39-.56a8.69,8.69,0,0,1,7.19-3.8m0-1a9.72,9.72,0,0,0-8,4.23,7.81,7.81,0,0,0-1.69-.18,7.7,7.7,0,1,0,0,15.39h18.93a5.37,5.37,0,0,0,.46-10.72,9.72,9.72,0,0,0-9.67-8.72Z" style="fill: #00394b"/>
          </g>
          <g style="opacity: 0.1">
            <path d="M183,34.55H165.11a7.26,7.26,0,0,1-7.25-7.26,23.06,23.06,0,0,1,.6-4.42A7.7,7.7,0,0,0,162.72,37h18.93a5.38,5.38,0,0,0,5.27-4.33A5,5,0,0,1,183,34.55Z"/>
          </g>
        </g>
      </g>
    </g>
  </g>
</svg>
