<svg xmlns="http://www.w3.org/2000/svg" xmlns:xlink="http://www.w3.org/1999/xlink" viewBox="0 0 407 266">
  <defs>
    <linearGradient id="linear-gradient" x1="-18138.68" y1="98.43" x2="-18132.86" y2="98.43" gradientTransform="matrix(-1, 0, 0, 1, -18066.2, 0)" gradientUnits="userSpaceOnUse">
      <stop offset="0.01" stop-color="#e3e7f0"/>
      <stop offset="1" stop-color="#b3c1d9"/>
    </linearGradient>
    <linearGradient id="linear-gradient-2" x1="-20694.68" y1="76.34" x2="-20688.85" y2="76.34" gradientTransform="translate(21011.25)" xlink:href="#linear-gradient"/>
    <linearGradient id="linear-gradient-3" x1="112.19" y1="236.94" x2="196.27" y2="401.95" gradientTransform="matrix(1, 0.05, -0.05, 1.08, 65.38, -197.17)" gradientUnits="userSpaceOnUse">
      <stop offset="0" stop-color="#a4d8c8"/>
      <stop offset="0.98" stop-color="#12a0c6"/>
    </linearGradient>
    <linearGradient id="linear-gradient-4" x1="98.84" y1="161.31" x2="104.51" y2="226.59" gradientUnits="userSpaceOnUse">
      <stop offset="0" stop-color="#fff"/>
      <stop offset="1" stop-color="#a9c3d7"/>
    </linearGradient>
    <linearGradient id="linear-gradient-5" x1="3096.74" y1="161.31" x2="3102.41" y2="226.59" gradientTransform="matrix(-1, 0, 0, 1, 3393.02, 0)" xlink:href="#linear-gradient-4"/>
    <clipPath id="clip-path">
      <path id="SVGID" d="M95.93,80.66l3.46,2a1.65,1.65,0,0,0-1.69.16l-3.46-2A1.65,1.65,0,0,1,95.93,80.66Z" style="fill: #fafbfb"/>
    </clipPath>
    <clipPath id="clip-path-2">
      <path id="SVGID-2" data-name="SVGID" d="M70.11,101.49l-3.45-2A5.21,5.21,0,0,1,69,95.38l3.45,2A5.26,5.26,0,0,0,70.11,101.49Z" style="fill: url(#linear-gradient)"/>
    </clipPath>
    <linearGradient id="linear-gradient-7" x1="-18147" y1="174.12" x2="-18153.76" y2="95.93" gradientTransform="matrix(-1, 0, 0, 1, -18066.2, 0)" gradientUnits="userSpaceOnUse">
      <stop offset="0" stop-color="#52c7ea"/>
      <stop offset="0.29" stop-color="#3dc5ee"/>
      <stop offset="1" stop-color="#26aee4"/>
    </linearGradient>
    <linearGradient id="linear-gradient-8" x1="-18162.26" y1="82.55" x2="-18159.38" y2="82.55" gradientTransform="matrix(-1, 0, 0, 1, -18066.2, 0)" gradientUnits="userSpaceOnUse">
      <stop offset="0" stop-color="#a9b9d5"/>
      <stop offset="1" stop-color="#95a9c8"/>
    </linearGradient>
    <linearGradient id="linear-gradient-9" x1="-18158.75" y1="84.96" x2="-18154.12" y2="84.96" xlink:href="#linear-gradient-8"/>
    <linearGradient id="linear-gradient-10" x1="-18155.47" y1="93.63" x2="-18144.84" y2="93.63" xlink:href="#linear-gradient-8"/>
    <linearGradient id="linear-gradient-11" x1="-18134.16" y1="132.42" x2="-18163.16" y2="115.46" gradientTransform="matrix(-1, 0, 0, 1, -18066.2, 0)" gradientUnits="userSpaceOnUse">
      <stop offset="0" stop-color="#0997af"/>
      <stop offset="0.29" stop-color="#0d8eab"/>
      <stop offset="1" stop-color="#0076a0"/>
    </linearGradient>
    <linearGradient id="linear-gradient-12" x1="2847.47" y1="142.66" x2="2871.43" y2="142.66" gradientTransform="matrix(-1, 0, 0, 1, 2945.05, 0)" xlink:href="#linear-gradient-11"/>
    <linearGradient id="linear-gradient-13" x1="2855.55" y1="104.01" x2="2869.34" y2="104.01" gradientTransform="matrix(-1, 0, 0, 1, 2945.05, 0)" xlink:href="#linear-gradient-8"/>
    <linearGradient id="linear-gradient-14" x1="2849.24" y1="107.86" x2="2869.34" y2="107.86" gradientTransform="matrix(-1, 0, 0, 1, 2945.05, 0)" xlink:href="#linear-gradient-8"/>
    <linearGradient id="linear-gradient-15" x1="2849.01" y1="111.27" x2="2869.11" y2="111.27" gradientTransform="matrix(-1, 0, 0, 1, 2945.05, 0)" xlink:href="#linear-gradient-8"/>
    <linearGradient id="linear-gradient-16" x1="2849.01" y1="114.66" x2="2869.11" y2="114.66" gradientTransform="matrix(-1, 0, 0, 1, 2945.05, 0)" xlink:href="#linear-gradient-8"/>
    <linearGradient id="linear-gradient-17" x1="2849.01" y1="117.61" x2="2869.11" y2="117.61" gradientTransform="matrix(-1, 0, 0, 1, 2945.05, 0)" xlink:href="#linear-gradient-8"/>
    <clipPath id="clip-path-3">
      <path id="SVGID-3" data-name="SVGID" d="M293.12,58.56l-3.45,2a1.68,1.68,0,0,1,1.69.16l3.45-2A1.68,1.68,0,0,0,293.12,58.56Z" style="fill: #fafbfb"/>
    </clipPath>
    <clipPath id="clip-path-4">
      <path id="SVGID-4" data-name="SVGID" d="M318.94,79.39l3.46-2a5.24,5.24,0,0,0-2.37-4.1l-3.46,2A5.21,5.21,0,0,1,318.94,79.39Z" style="fill: url(#linear-gradient-2)"/>
    </clipPath>
    <linearGradient id="linear-gradient-19" x1="-20702.99" y1="152.02" x2="-20709.75" y2="73.83" gradientTransform="translate(21011.25)" xlink:href="#linear-gradient-7"/>
    <linearGradient id="linear-gradient-20" x1="-20701.64" y1="70.29" x2="-20698.76" y2="70.29" gradientTransform="translate(21011.25)" xlink:href="#linear-gradient-8"/>
    <linearGradient id="linear-gradient-21" x1="-20698.13" y1="72.69" x2="-20693.5" y2="72.69" gradientTransform="translate(21011.25)" xlink:href="#linear-gradient-8"/>
    <linearGradient id="linear-gradient-22" x1="-20711.47" y1="71.54" x2="-20700.83" y2="71.54" gradientTransform="translate(21011.25)" xlink:href="#linear-gradient-8"/>
    <linearGradient id="linear-gradient-23" x1="-20690.16" y1="110.32" x2="-20719.15" y2="93.36" gradientTransform="translate(21011.25)" xlink:href="#linear-gradient-11"/>
    <linearGradient id="linear-gradient-24" x1="291.47" y1="120.57" x2="315.44" y2="120.57" gradientTransform="matrix(1, 0, 0, 1, 0, 0)" xlink:href="#linear-gradient-11"/>
    <linearGradient id="linear-gradient-25" x1="293.25" y1="78.92" x2="307.04" y2="78.92" gradientTransform="matrix(1, 0, 0, 1, 0, 0)" xlink:href="#linear-gradient-8"/>
    <linearGradient id="linear-gradient-26" x1="293.25" y1="85.76" x2="313.35" y2="85.76" gradientTransform="matrix(1, 0, 0, 1, 0, 0)" xlink:href="#linear-gradient-8"/>
    <linearGradient id="linear-gradient-27" x1="293.02" y1="89.17" x2="313.12" y2="89.17" gradientTransform="matrix(1, 0, 0, 1, 0, 0)" xlink:href="#linear-gradient-8"/>
    <linearGradient id="linear-gradient-28" x1="293.02" y1="92.56" x2="313.12" y2="92.56" gradientTransform="matrix(1, 0, 0, 1, 0, 0)" xlink:href="#linear-gradient-8"/>
    <linearGradient id="linear-gradient-29" x1="293.02" y1="95.51" x2="313.12" y2="95.51" gradientTransform="matrix(1, 0, 0, 1, 0, 0)" xlink:href="#linear-gradient-8"/>
    <linearGradient id="linear-gradient-30" x1="293.02" y1="101.32" x2="313.12" y2="101.32" gradientTransform="matrix(1, 0, 0, 1, 0, 0)" xlink:href="#linear-gradient-8"/>
    <linearGradient id="linear-gradient-31" x1="293.02" y1="105.31" x2="313.12" y2="105.31" gradientTransform="matrix(1, 0, 0, 1, 0, 0)" xlink:href="#linear-gradient-8"/>
    <linearGradient id="linear-gradient-32" x1="293.02" y1="106.66" x2="304.18" y2="106.66" gradientTransform="matrix(1, 0, 0, 1, 0, 0)" xlink:href="#linear-gradient-8"/>
  </defs>
  <title>isohero-ndoctor</title>
  <g style="isolation: isolate">
    <g id="arte">
      <g>
        <path d="M148.05,243.59c-33.55-4.74-95.69-33-104.33-68.34C18.5,72.13,205,92,269,82.88c53.89-7.68,99.46,26.76,96.45,63.11C359.32,220.12,218.88,253.59,148.05,243.59Z" style="fill: url(#linear-gradient-3)"/>
        <g>
          <g style="mix-blend-mode: multiply">
            <path d="M156.36,185.91,108.77,158a6,6,0,0,0-5.45,0l-57,33.35c-1.5.87-1.49,2.28,0,3.16l47.59,27.87a6,6,0,0,0,5.45,0l57-33.35C157.88,188.19,157.87,186.78,156.36,185.91Z" style="fill: url(#linear-gradient-4)"/>
          </g>
          <g style="isolation: isolate">
            <path d="M156.36,160.72l-47.59-27.87a6,6,0,0,0-5.45,0l-57,33.34c-1.5.88-1.49,2.29,0,3.16l47.59,27.88a6,6,0,0,0,5.45,0l57-33.35C157.88,163,157.87,161.6,156.36,160.72Z" style="fill: #b8e3f0"/>
            <path d="M156.38,163.88l-57,33.35a6,6,0,0,1-5.45,0L46.34,169.35a1.93,1.93,0,0,1-1.14-1.59v3.6A1.94,1.94,0,0,0,46.33,173l47.59,27.87a6,6,0,0,0,5.45,0l57-33.35a1.92,1.92,0,0,0,1.12-1.56v-3.6A1.92,1.92,0,0,1,156.38,163.88Z" style="fill: #95d4ec"/>
          </g>
        </g>
        <g>
          <g style="mix-blend-mode: multiply">
            <path d="M238.75,185.91,286.34,158a6,6,0,0,1,5.45,0l57,33.35c1.5.87,1.49,2.28,0,3.16l-47.58,27.87a6,6,0,0,1-5.46,0l-57-33.35C237.24,188.19,237.24,186.78,238.75,185.91Z" style="fill: url(#linear-gradient-5)"/>
          </g>
          <g style="isolation: isolate">
            <path d="M238.75,160.72l47.59-27.87a6,6,0,0,1,5.45,0l57,33.34c1.5.88,1.49,2.29,0,3.16l-47.58,27.88a6,6,0,0,1-5.46,0l-57-33.35C237.24,163,237.24,161.6,238.75,160.72Z" style="fill: #b8e3f0"/>
            <path d="M238.74,163.88l57,33.35a6,6,0,0,0,5.46,0l47.58-27.88a1.93,1.93,0,0,0,1.14-1.59v3.6a1.94,1.94,0,0,1-1.14,1.59L301.2,200.82a6,6,0,0,1-5.45,0l-57-33.35a1.9,1.9,0,0,1-1.12-1.56v-3.6A1.9,1.9,0,0,0,238.74,163.88Z" style="fill: #95d4ec"/>
          </g>
        </g>
        <g>
          <g>
            <g style="isolation: isolate">
              <g>
                <path id="SVGID-5" data-name="SVGID" d="M95.93,80.66l3.46,2a1.65,1.65,0,0,0-1.69.16l-3.46-2A1.65,1.65,0,0,1,95.93,80.66Z" style="fill: #fafbfb"/>
                <g style="clip-path: url(#clip-path)">
                  <g style="isolation: isolate">
                    <path d="M97.7,82.83l-3.46-2a2.36,2.36,0,0,1,.72-.29l3.46,2a2.36,2.36,0,0,0-.72.29Z" style="fill: #fafbfb"/>
                    <path d="M98.42,82.54l-3.46-2a1.43,1.43,0,0,1,.93.1l3.45,2a1.34,1.34,0,0,0-.92-.1Z" style="fill: #fafbfb"/>
                    <path d="M99.34,82.64l-3.45-2,0,0,3.46,2,0,0Z" style="fill: #fafbfb"/>
                  </g>
                </g>
              </g>
              <polygon points="72.48 97.39 69.03 95.38 94.24 80.82 97.7 82.83 72.48 97.39" style="fill: #fff"/>
              <g>
                <path id="SVGID-6" data-name="SVGID" d="M70.11,101.49l-3.45-2A5.21,5.21,0,0,1,69,95.38l3.45,2A5.26,5.26,0,0,0,70.11,101.49Z" style="fill: url(#linear-gradient)"/>
                <g style="clip-path: url(#clip-path-2)">
                  <path d="M69,95.38a4.31,4.31,0,0,0-1.15,1,5.86,5.86,0,0,0-.81,1.31,4.39,4.39,0,0,0-.41,1.79l3.45,2a4.58,4.58,0,0,1,.42-1.79,5.82,5.82,0,0,1,.8-1.31,4.47,4.47,0,0,1,1.15-1Z" style="fill: #cbd2db"/>
                </g>
              </g>
              <g>
                <path d="M100.25,144.75a5.24,5.24,0,0,1-2.37,4.1L72.66,163.41c-1.3.75-2.38.14-2.38-1.36v-1.92l30-17.31Z" style="fill: #f0f4fa"/>
                <polygon points="70.12 104.01 70.27 160.13 100.24 142.82 100.18 120.23 100.11 95.63 100.09 86.7 70.12 104.01" style="fill: url(#linear-gradient-7)"/>
                <path d="M70.11,101.49a5.26,5.26,0,0,1,2.37-4.1L97.7,82.83c1.3-.76,2.38-.15,2.38,1.36V86.7L70.12,104Z" style="fill: #f0f4fa"/>
              </g>
            </g>
            <g>
              <path d="M93.18,82.59a.73.73,0,0,0,.41.56,2.31,2.31,0,0,0,2,0,.8.8,0,0,0,.3-.27c.23-.31.13-.67-.3-.92a2.31,2.31,0,0,0-2,0A.66.66,0,0,0,93.18,82.59Z" style="fill: url(#linear-gradient-8)"/>
              <path d="M93.18,82.59a.73.73,0,0,0,.41.56,2.31,2.31,0,0,0,2,0,.8.8,0,0,0,.3-.27.69.69,0,0,0-.41-.55,2.25,2.25,0,0,0-2,0A1,1,0,0,0,93.18,82.59Z" style="fill: #141d30"/>
            </g>
            <g>
              <path d="M88,85.78a.75.75,0,0,0,.32.32,2,2,0,0,0,1.86,0l2-1.17a1,1,0,0,0,.3-.29c.17-.28.07-.59-.31-.82a2,2,0,0,0-1.88,0l-2,1.19C88,85.23,87.84,85.52,88,85.78Z" style="fill: url(#linear-gradient-9)"/>
              <path d="M88,85.78a.75.75,0,0,0,.32.32,2,2,0,0,0,1.86,0l2-1.17a1,1,0,0,0,.3-.29.75.75,0,0,0-.33-.33,2,2,0,0,0-1.87,0l-2,1.18A.86.86,0,0,0,88,85.78Z" style="fill: #141d30"/>
            </g>
            <path d="M88.55,91.81l-9.19,5.31c-.39.23-.72,0-.72-.42h0a1.6,1.6,0,0,1,.72-1.24l9.19-5.31c.4-.23.72,0,.72.41h0A1.59,1.59,0,0,1,88.55,91.81Z" style="fill: url(#linear-gradient-10)"/>
            <g>
              <path d="M70.28,162.05a1.67,1.67,0,0,0,.69,1.52l-3.45-2a1.65,1.65,0,0,1-.7-1.52V158.3l3.46,2Z" style="fill: #cbd2db"/>
              <polygon points="66.66 99.48 70.11 101.49 70.12 104 66.66 102.01 66.66 99.48" style="fill: #cbd2db"/>
              <polygon points="70.12 104 70.27 160.29 66.81 158.3 66.66 102.01 70.12 104" style="fill: #cbd2db"/>
              <polygon points="68.34 102.98 70.12 104 70.27 160.29 68.34 159.18 68.34 102.98" style="fill: url(#linear-gradient-11)"/>
            </g>
          </g>
          <g>
            <polygon points="97.58 91.5 97.58 127.81 73.61 141.68 73.61 105.37 97.58 91.5" style="fill: #fff;opacity: 0.8"/>
            <polygon points="97.58 130.16 97.58 141.29 73.61 155.16 73.61 144.04 97.58 130.16" style="opacity: 0.5;fill: url(#linear-gradient-12)"/>
            <polygon points="89.5 98.24 89.5 101.75 75.71 109.77 75.71 106.27 89.5 98.24" style="opacity: 0.4;fill: url(#linear-gradient-13)"/>
            <polygon points="95.81 101.06 95.81 102.81 75.71 114.66 75.71 112.91 95.81 101.06" style="opacity: 0.4;fill: url(#linear-gradient-14)"/>
            <polygon points="96.03 104.47 96.03 106.22 75.93 118.07 75.93 116.31 96.03 104.47" style="opacity: 0.4;fill: url(#linear-gradient-15)"/>
            <polygon points="96.03 107.86 96.03 109.61 75.93 121.46 75.93 119.7 96.03 107.86" style="opacity: 0.4;fill: url(#linear-gradient-16)"/>
            <polygon points="96.03 110.81 96.03 112.56 75.93 124.41 75.93 122.65 96.03 110.81" style="opacity: 0.4;fill: url(#linear-gradient-17)"/>
            <path d="M83.3,140.22a.69.69,0,0,1,.25-.09l7-.54a.26.26,0,0,1,.23.1c.13.17,0,.53-.25.81l-7,7.55a.87.87,0,0,1-.25.19c-.3.18-.55.09-.55-.17v-2.81a.52.52,0,0,1,.23-.37l5.68-3.75L83,143.94c-.13.06-.23,0-.23-.11V141a.69.69,0,0,1,.06-.26A1.13,1.13,0,0,1,83.3,140.22Z" style="fill: #fff"/>
          </g>
        </g>
        <g>
          <g>
            <g style="isolation: isolate">
              <g>
                <path id="SVGID-7" data-name="SVGID" d="M293.12,58.56l-3.45,2a1.68,1.68,0,0,1,1.69.16l3.45-2A1.68,1.68,0,0,0,293.12,58.56Z" style="fill: #fafbfb"/>
                <g style="clip-path: url(#clip-path-3)">
                  <g style="isolation: isolate">
                    <path d="M291.36,60.73l3.45-2a2.37,2.37,0,0,0-.71-.28l-3.46,2a2.65,2.65,0,0,1,.72.29Z" style="fill: #fafbfb"/>
                    <path d="M290.64,60.44l3.46-2a1.31,1.31,0,0,0-.93.1l-3.46,2a1.43,1.43,0,0,1,.93-.1Z" style="fill: #fafbfb"/>
                    <path d="M289.71,60.54l3.46-2-.05,0-3.45,2,0,0Z" style="fill: #fafbfb"/>
                  </g>
                </g>
              </g>
              <polygon points="316.57 75.29 320.03 73.28 294.81 58.72 291.36 60.73 316.57 75.29" style="fill: #fff"/>
              <g>
                <path id="SVGID-8" data-name="SVGID" d="M318.94,79.39l3.46-2a5.24,5.24,0,0,0-2.37-4.1l-3.46,2A5.21,5.21,0,0,1,318.94,79.39Z" style="fill: url(#linear-gradient-2)"/>
                <g style="clip-path: url(#clip-path-4)">
                  <path d="M320,73.28a4.18,4.18,0,0,1,1.15,1,5.75,5.75,0,0,1,.8,1.3,4.41,4.41,0,0,1,.42,1.79l-3.46,2a4.41,4.41,0,0,0-.42-1.79,5.42,5.42,0,0,0-.8-1.3,4.18,4.18,0,0,0-1.15-1Z" style="fill: #cbd2db"/>
                </g>
              </g>
              <g>
                <path d="M288.8,122.65a5.26,5.26,0,0,0,2.37,4.1l25.22,14.56c1.31.76,2.38.15,2.39-1.36V138l-30-17.3Z" style="fill: #f0f4fa"/>
                <polygon points="318.93 81.91 318.79 138.03 288.82 120.73 288.88 98.13 288.94 73.53 288.96 64.61 318.93 81.91" style="fill: url(#linear-gradient-19)"/>
                <path d="M318.94,79.39a5.21,5.21,0,0,0-2.37-4.1L291.36,60.73c-1.31-.75-2.38-.14-2.39,1.36v2.52l30,17.3Z" style="fill: #f0f4fa"/>
              </g>
            </g>
            <g>
              <path d="M312.49,70.33a.74.74,0,0,1-.41.55,2.31,2.31,0,0,1-2.05,0,.91.91,0,0,1-.31-.26c-.22-.31-.12-.67.31-.92a2.25,2.25,0,0,1,2.05,0A.67.67,0,0,1,312.49,70.33Z" style="fill: url(#linear-gradient-20)"/>
              <path d="M312.49,70.33a.74.74,0,0,1-.41.55,2.31,2.31,0,0,1-2.05,0,.91.91,0,0,1-.31-.26.74.74,0,0,1,.42-.56,2.29,2.29,0,0,1,2,0A.93.93,0,0,1,312.49,70.33Z" style="fill: #141d30"/>
            </g>
            <g>
              <path d="M317.68,73.52a.8.8,0,0,1-.32.31,2,2,0,0,1-1.87,0l-2-1.17a.76.76,0,0,1-.3-.29c-.17-.28-.07-.59.31-.81a2,2,0,0,1,1.87,0l2,1.18C317.72,73,317.83,73.26,317.68,73.52Z" style="fill: url(#linear-gradient-21)"/>
              <path d="M317.68,73.52a.8.8,0,0,1-.32.31,2,2,0,0,1-1.87,0l-2-1.17a.76.76,0,0,1-.3-.29.77.77,0,0,1,.32-.33,2.08,2.08,0,0,1,1.88,0l2,1.19A.78.78,0,0,1,317.68,73.52Z" style="fill: #141d30"/>
            </g>
            <path d="M300.5,69.71,309.69,75c.4.23.72,0,.72-.41h0a1.59,1.59,0,0,0-.72-1.25l-9.19-5.31c-.4-.23-.72,0-.72.42h0A1.57,1.57,0,0,0,300.5,69.71Z" style="fill: url(#linear-gradient-22)"/>
            <g>
              <path d="M318.77,140a1.63,1.63,0,0,1-.69,1.52l3.46-2a1.68,1.68,0,0,0,.69-1.53l0-1.74-3.46,2Z" style="fill: #cbd2db"/>
              <polygon points="322.4 77.39 318.94 79.39 318.93 81.91 322.39 79.91 322.4 77.39" style="fill: #cbd2db"/>
              <polygon points="318.93 81.91 318.79 138.2 322.25 136.2 322.39 79.91 318.93 81.91" style="fill: #cbd2db"/>
              <polygon points="320.71 80.88 318.93 81.91 318.79 138.2 320.71 137.09 320.71 80.88" style="fill: url(#linear-gradient-23)"/>
            </g>
          </g>
          <g>
            <polygon points="291.47 69.4 291.47 105.71 315.44 119.59 315.44 83.27 291.47 69.4" style="fill: #fff;opacity: 0.8"/>
            <polygon points="291.47 108.07 291.47 119.19 315.44 133.07 315.44 121.94 291.47 108.07" style="fill: url(#linear-gradient-24)"/>
            <polygon points="293.25 73.15 293.25 76.66 307.04 84.68 307.04 81.17 293.25 73.15" style="opacity: 0.4;fill: url(#linear-gradient-25)"/>
            <polygon points="293.25 78.96 293.25 80.71 313.35 92.56 313.35 90.81 293.25 78.96" style="opacity: 0.4;fill: url(#linear-gradient-26)"/>
            <polygon points="293.02 82.37 293.02 84.12 313.12 95.97 313.12 94.22 293.02 82.37" style="opacity: 0.4;fill: url(#linear-gradient-27)"/>
            <polygon points="293.02 85.76 293.02 87.51 313.12 99.36 313.12 97.61 293.02 85.76" style="opacity: 0.4;fill: url(#linear-gradient-28)"/>
            <polygon points="293.02 88.71 293.02 90.46 313.12 102.31 313.12 100.56 293.02 88.71" style="opacity: 0.4;fill: url(#linear-gradient-29)"/>
            <polygon points="293.02 94.52 293.02 96.27 313.12 108.12 313.12 106.37 293.02 94.52" style="opacity: 0.4;fill: url(#linear-gradient-30)"/>
            <polygon points="293.02 98.52 293.02 100.27 313.12 112.11 313.12 110.36 293.02 98.52" style="opacity: 0.4;fill: url(#linear-gradient-31)"/>
            <polygon points="293.02 102.51 293.02 104.26 304.18 110.81 304.18 109.05 293.02 102.51" style="opacity: 0.4;fill: url(#linear-gradient-32)"/>
            <path d="M300,114.8a1.33,1.33,0,0,1,.24.19l7,7.56a1.18,1.18,0,0,1,.23.35c.13.32,0,.56-.26.53l-7-.53a.59.59,0,0,1-.24-.09,1.13,1.13,0,0,1-.56-.82v-2.8c0-.12.1-.17.23-.11l5.69,2.82-5.66-3.74a.51.51,0,0,1-.23-.38V115a.38.38,0,0,1,.05-.19C299.61,114.67,299.81,114.68,300,114.8Z" style="fill: #fff"/>
          </g>
          <g>
            <path d="M294.15,173.23a4.19,4.19,0,0,0-.82-.48c-.95-.41-1.94-.78-2.9-1.18-1.16-.49-2.35-.85-3.52-1.32-.46-.18-.75-.29-.72.66-1.7,0-3.34-.32-5,.12-.86.24-2.19.47-2.63,1.37a2,2,0,0,0-.21,1.17c.1.79,1.11,1.36,1.69,1.81a10.07,10.07,0,0,0,1.51,1,15.2,15.2,0,0,0,2.16.56c1.46.46,3,.6,4.47,1a4.39,4.39,0,0,0,2.13,0c.92-.19,1.9.06,2.82-.07a7.79,7.79,0,0,0,1.65-.47c.41-.15,1-.17,1.34-.49a1.83,1.83,0,0,0,.36-1.37C296.35,174.35,295,173.79,294.15,173.23Z" style="fill: #015866;opacity: 0.1"/>
            <path d="M295.07,174h-2.94l-4.76.86-.15,2.25c.62,1.51,2.52,1,2.52,1l6.33-1.88A1.28,1.28,0,0,0,295.07,174Z" style="fill: #809aa1"/>
            <path d="M276,120.2a50.86,50.86,0,0,0-2.34,14.29c0,1.86,5.28,2.08,5.28,2.08l-1.21-4.08Z" style="fill: #fff"/>
            <path d="M277,127.29a29.12,29.12,0,0,0-2.65,8.23c1.43.92,4.59,1,4.59,1l-1.21-4.08Z" style="opacity: 0.05"/>
            <path d="M285.3,170.25l-2.85.36-3.61.35-.28,3.1c.7,1.36,2.86.63,2.86.63l5-2.45C287.22,171.71,286.26,170.13,285.3,170.25Z" style="fill: #809aa1"/>
            <path d="M277.79,137.43s-.56,4.14-.67,5.67c-.13,1.88.81,5.68,1.05,8.82.3,3.78.47,6.82.47,6.82l.23,12.76a3.2,3.2,0,0,0,2.82.64c.71-.11,1.46-.5,1.5-1.23l.14-11.4.22-7.72,3.09,8.57.7,14.93a4.56,4.56,0,0,0,3.1.28,1.56,1.56,0,0,0,1.29-1.52l.08-14.05-2.89-19.85C288.09,141.16,279.06,138.16,277.79,137.43Z" style="fill: #183f42"/>
            <path d="M282.07,163.68c0,2.95-.1,6-1.2,8.51a4,4,0,0,0,.82-.05c.71-.11,1.46-.5,1.5-1.23l.14-11.4.22-7.72c-.52-.58-1.11-.57-2.09-1C283,154.81,282,159.4,282.07,163.68Z" style="fill: #183f42"/>
            <path d="M277.79,137.43s-.56,4.14-.67,5.67a8.86,8.86,0,0,0,0,1.33,2.88,2.88,0,0,1,2.19.07c4.82,2.09,9,4.85,9.89,10.36,1.16,6.85.32,13.57,2,20.3a1.59,1.59,0,0,0,.49-1.11l.08-14.05-2.89-19.85C288.09,141.16,279.06,138.16,277.79,137.43Z" style="fill: #183f42"/>
            <path d="M289.39,131.11c.19-2.29,2.06-8.08.48-9.21-1.36-1-1.27-1.7-6.45-3.47a10.54,10.54,0,0,0-5.58.16,2.76,2.76,0,0,0-2.09,2.46c-.38,2.06,1.2,13,1.3,14.84s-.75,16.29-.75,16.29a23.34,23.34,0,0,0,11.26,2,5.83,5.83,0,0,0,3.94-2S289.12,134.54,289.39,131.11Z" style="fill: #fff"/>
            <path d="M289.39,131.12c.1-1.22.67-3.4.95-5.36-3.11,2.38-2.94,6.68-2.64,10.23.25,2.95.51,5.86.5,8.83,0,2.8-.13,6.56-1.44,9.42l.8-.06a5.83,5.83,0,0,0,3.94-2S289.12,134.54,289.39,131.12Z" style="opacity: 0.05"/>
            <g>
              <path d="M280.19,118.79c.13,1.2,3.69,1.5,3.56.3l.73-3.86-4.35,0Z" style="fill: #f6b6a8"/>
              <path d="M280.17,117.73l-.28.92c.24,1.55,4.56,1.69,4.43.49l-.18-1.25A7.85,7.85,0,0,1,280.17,117.73Z" style="fill: #fff"/>
              <path d="M284.4,109.93,278,112.16l.93,3.28c.3,1.8,3.7,2.26,3.7,2.26,1.74-.29,2.88-1.31,2.57-3.15Z" style="fill: #f6b6a8"/>
              <path d="M282.5,107.91c-1.08-.27-4.64.2-4.87,2.83a7.45,7.45,0,0,0,2.17,6.36s1.55.81,2.25.05c.95-1.06,2.2-2.72,2-4.12s.62-1.78.62-1.78C286.55,109.36,284,108.29,282.5,107.91Z" style="fill: #cb9649"/>
              <path d="M283.18,113.4c0,.81.71,1.59,1.3,1.19l-.26-1.53S283.14,112.3,283.18,113.4Z" style="fill: #f6b6a8"/>
            </g>
            <g>
              <path d="M309.31,119.36l-4.34,2-2.4,1.28v2.3l1.91-.7c.44.28,2-.41,2-.41a.64.64,0,0,0,.37.41l.9-1.16a3.54,3.54,0,0,0-.33-1.93l1.74-.94C309.67,119.63,309.31,119.36,309.31,119.36Z" style="fill: #f6b6a8"/>
              <path d="M302.78,122.34l-6.16,2.6a2.2,2.2,0,0,1-1.94,0c-3.73-2.15-5.28-3.43-5.91-3.78a3.12,3.12,0,0,0-2.82-.27c-2.43,1-2.2,5.76.39,6.53,1.72.51,6.67,2.09,8.92,2.57a2.54,2.54,0,0,0,1.95-.36l6.88-4.5s.18-.19,0-1.22A2.26,2.26,0,0,0,302.78,122.34Z" style="fill: #fff"/>
              <path d="M304.08,123.75c-2.61,1.8-6,4-9.21,4.47a20.3,20.3,0,0,1-6.32-.12c2.2.67,5.12,1.55,6.71,1.89a2.54,2.54,0,0,0,1.95-.36l6.88-4.5s.18-.19,0-1.22C304.11,123.85,304.09,123.8,304.08,123.75Z" style="opacity: 0.05"/>
            </g>
          </g>
        </g>
        <g>
          <g>
            <path d="M93.56,118.13c.21-.23-.23-.37-.34-.66-.24-.62-.06-1.28-.9-2.06-.11-.1-.2-.27-.33-.31-.57-.18-.72.12-.75.52-.93-.4-2.42-2.47-2.66-1.59-.12.42,1.42,1.52,1.67,1.84a5.72,5.72,0,0,0-.57-.39c-.26-.19-.74-.53-.87-.13s.13.49.34.69c0,0,.39.34.32.31-.27-.12-.69-.51-.83,0a.44.44,0,0,0,.18.45s.3.31.34.33c-.4-.16-.74.23-.36.57a7.76,7.76,0,0,0,3.4,1.8s0,0,.07,0,0-.06,0-.07l.09-.14c.1-.14.15-.09.25-.22C92.86,118.8,93.33,118.39,93.56,118.13Z" style="fill: #fcd4be"/>
            <path d="M108.44,127.84c-.73-1.73-7.36-5.54-7.36-5.54-1-.75-4.42-3.13-7.13-5.06a4,4,0,0,0-2.81,2.53,48.48,48.48,0,0,1,3.61,4.41A17.14,17.14,0,0,0,98,126.89l.08,0,2.3,1.76c2.32,1.43,4.69,3,7.36,3C107.71,131.63,109.17,129.57,108.44,127.84Z" style="fill: #cbd2db"/>
            <path d="M100,125.14v.24l0,2.07a3.38,3.38,0,0,0,.49.57h.17c1.51-.16,3.39-.49,3.38-1.6,0,0,0,0,0,0l-.08-1.58-.18,0-2.71.24Z" style="fill: #fcd4be"/>
            <path d="M104.55,126.13a8.8,8.8,0,0,1,.1,2.63c-.07.85-.21-.36-1,0a4.36,4.36,0,0,1-2.53.14,1.53,1.53,0,0,1-1-.5c-.33-.35-.34-1.76,0-1.79s1,0,1.28,0a4.71,4.71,0,0,0,2.07-.35C103.87,126.08,104.05,125.63,104.55,126.13Z" style="fill: #f7f9fc"/>
            <path d="M108.24,175.61s.26,2.23-.5,2.88a2.53,2.53,0,0,1-1.87-.25c-.56-.24-1.14-.73-1.71-.92-1.67-.55-2-1.42-2.55-2.55-1.18-2.41,1.47-1.29,3.16-.3A8.78,8.78,0,0,0,108.24,175.61Z" style="fill: #16181d"/>
            <path d="M102.22,159.26c.14,1.28.41,2.54.61,3.81.12.72.08,1.28.21,2,.26,1.46.19,8.25.19,10.57,0,.48,5.07,2,5.21,1.29a54.08,54.08,0,0,0,.23-8.28c-.19-1.53-.58-16.09-.48-17.05.16-1.56,0-4.17-1.3-5-2-1.24-4.49,1.5-5,2.7C101.07,151,101.57,153.51,102.22,159.26Z" style="fill: #0b7c91"/>
            <path d="M102,178.66s.82,2.08.25,2.91a2.49,2.49,0,0,1-1.86.29c-.61-.07-1.29-.38-1.88-.4a3.66,3.66,0,0,1-3.1-1.74c-1.75-2,1.08-1.65,3-1.18A8.49,8.49,0,0,0,102,178.66Z" style="fill: #16181d"/>
            <path d="M96.18,159.31h0c1.58,12.66,1,11,1,20,0,.73.18.59,2.43.94a5.5,5.5,0,0,0,1.46.09c1.46-.18,1.67-1.28,1.7-2.46s.39-16.07-3-16.08C99.26,161.77,96.62,159.67,96.18,159.31Z" style="fill: #078fa9"/>
            <path d="M95.83,150.76c.14,3.23.16,6.32.35,8.55h0a9.46,9.46,0,0,0,1.33,4.56c.51,1.17.44,2,1.1,2.6a1.58,1.58,0,0,0,1.85.09c.57-.34,1.33,2.41,1.54,1.75a29.81,29.81,0,0,0,.3-3.55c.26-5.56,2.64-9.23,2.13-13.79C104.4,150.74,95.83,150.76,95.83,150.76Z" style="fill: #078fa9"/>
            <path d="M94.48,131.14s.14.86.32,2.11l0,.23c.27,1.84.61,4.4.78,6.25,0,.61.09,1.14.09,1.55,0,2,.25,19.7.15,21.46a.92.92,0,0,0,.44.85,8.42,8.42,0,0,0,.88.47,7.21,7.21,0,0,0,1.56.45,11.37,11.37,0,0,0,1.27.15,21.06,21.06,0,0,0,5.32-.22,7.54,7.54,0,0,0,3.44-1.46.94.94,0,0,0,.37-.74h0c.05-1.89-.38-17-1.48-21.32-.86-3.39,1.26-9.36,1.17-11.31-.08-1.64-.66-3.63-4.22-3.17l-4.68,1.06C98.94,128,94.87,128.77,94.48,131.14Z" style="fill: #eaeef1"/>
            <path d="M98.59,123.77a3.23,3.23,0,0,0,1.39,1.61,2.4,2.4,0,0,0,.74.25l.15,0a1.38,1.38,0,0,0,.72-.12c.43-.23,2,0,2.17-.41a2.82,2.82,0,0,0,.07-.31c.18-1.2-.65-3-.84-4.11a4.75,4.75,0,0,0-1.62-2.71A6.45,6.45,0,0,0,99,116.66l-.43.52-.36.43a14.6,14.6,0,0,1,0,3.1A7.17,7.17,0,0,0,98.59,123.77Z" style="fill: #fcd4be"/>
            <path d="M98.24,120.71a14.6,14.6,0,0,0,0-3.1l.36-.43.13.67a11,11,0,0,0,0,4.94,3.63,3.63,0,0,0,.78,1.71,1.6,1.6,0,0,0,1.72.48l-.09.07a1.19,1.19,0,0,0-.4.58,2.36,2.36,0,0,0-.11.59c0,.12,0,.25,0,.37a1.63,1.63,0,0,0-.54,0l-.07,0,0-1.23a3.23,3.23,0,0,1-1.39-1.61A7.17,7.17,0,0,1,98.24,120.71Z" style="fill: #fcd4be"/>
            <path d="M97.65,117.36c.09.63.62.59.95,1.13s.4,1.17.78,1.79c.14.23.7,2.36,1.34,2,.94-.55-.13,2,1.59,2.9a3.25,3.25,0,0,0,1.45,0,.91.91,0,0,0,.47-.33l0,0a19.48,19.48,0,0,0,2.66-3.08,6.2,6.2,0,0,0,.41-2.54,4.2,4.2,0,0,0-.91-2.11,4.69,4.69,0,0,0-1.66-1.53,7,7,0,0,0-4-.56c-.18,0-.35,0-.52.09s-.6.14-.9.23l-.39.2c-1.27.71-1.25,1.44-1.26,1.49S97.64,117.26,97.65,117.36Z" style="fill: #2b130d"/>
            <path d="M100.8,122.15a1,1,0,0,0,0,1.38,1.17,1.17,0,1,0,0-1.38Z" style="fill: #fcd4be"/>
            <path d="M100.34,127a4.94,4.94,0,0,0-.83.25.75.75,0,0,0-.39.55,14.84,14.84,0,0,0,4.23-.39,3.8,3.8,0,0,0,2-1c.38-.63-1.93,0-2.17.12-.93.26-1.92.27-2.86.48Z" style="fill: #fcfcfb"/>
          </g>
          <path d="M92.38,151l-1.26-.16c-.09.75-.15,1.23-.15,1.23a6.74,6.74,0,0,0-.46.56c-.3.49-.43,1.07-.72,1.57-.09.14-.44.58-.39.76a.15.15,0,0,0,.11.08c.55.19.81-.35,1-.79,0,.22-.1.45-.15.68s-.39,1.6-.06,1.66c.16,0,.23-.21.28-.32a11.85,11.85,0,0,0,.47-1.57c-.08.47-.18.91-.27,1.36,0,.21-.15,1,.17,1.08a.2.2,0,0,0,.2-.14,6,6,0,0,0,.3-1.28c0,.28,0,.56-.07.85,0,.13,0,.38.13.45s.31-.16.35-.3a9.28,9.28,0,0,0,.31-1.67c.06.35,0,1.22.06,1.5a0,0,0,0,0,0,0c0,.08.06.11.14.05a.47.47,0,0,0,.16-.29c.19-.65.31-1,.5-1.68a6.63,6.63,0,0,0,.18-1c0-.34.06-.61.11-.95,0-.19.05-.44.06-.72h0l.26-.74A10.8,10.8,0,0,0,92.38,151Z" style="fill: #fcd4be"/>
          <path d="M97.51,130.39a1.66,1.66,0,0,0-2.1-.76,2.39,2.39,0,0,0-.93,1.37l-2.22,10c-.24,1.25-1.39,7.41-2,10.7a4,4,0,0,0,3.48,1.45c1.07-2.81,2.42-6.15,2.89-7.23a16.63,16.63,0,0,0,1.08-4.07.19.19,0,0,0,0-.08l.62-2.83C98.66,136,99.1,133,97.51,130.39Z" style="fill: #fcfcfb"/>
        </g>
        <g>
          <line x1="234.21" y1="20.68" x2="234.21" y2="20.68" style="fill: none;stroke: #00709e;stroke-linecap: round;stroke-linejoin: round;stroke-width: 1.88751888275147px"/>
          <path d="M238.84,20.68h65.81a2,2,0,0,1,2,2V48.65" style="fill: none;stroke: #00709e;stroke-linecap: round;stroke-linejoin: round;stroke-width: 1.88751888275147px;stroke-dasharray: 0,4.630367279052734"/>
          <line x1="306.68" y1="50.96" x2="306.68" y2="50.96" style="fill: none;stroke: #00709e;stroke-linecap: round;stroke-linejoin: round;stroke-width: 1.88751888275147px"/>
          <rect x="300.54" y="50.02" width="12.27" height="1.89" style="fill: #00709e"/>
        </g>
        <g>
          <line x1="91.32" y1="65.96" x2="91.32" y2="65.96" style="fill: none;stroke: #00709e;stroke-linecap: round;stroke-linejoin: round;stroke-width: 1.88751888275147px"/>
          <path d="M91.32,61.25V22.71a2,2,0,0,1,2-2h64.23" style="fill: none;stroke: #00709e;stroke-linecap: round;stroke-linejoin: round;stroke-width: 1.88751888275147px;stroke-dasharray: 0,4.7086567878723145"/>
          <line x1="159.92" y1="20.68" x2="159.92" y2="20.68" style="fill: none;stroke: #00709e;stroke-linecap: round;stroke-linejoin: round;stroke-width: 1.88751888275147px"/>
          <rect x="85.18" y="65.02" width="12.27" height="1.89" style="fill: #00709e"/>
        </g>
        <g>
          <line x1="212.97" y1="28.83" x2="180.52" y2="28.83" style="fill: none;stroke: #029adc;stroke-linecap: round;stroke-linejoin: round;stroke-width: 2px"/>
          <polygon points="206.34 20.66 204.97 22.12 212.2 28.83 204.97 35.55 206.34 37.01 215.13 28.83 206.34 20.66" style="fill: #029adc"/>
        </g>
        <g>
          <line x1="180.69" y1="15.83" x2="213.13" y2="15.83" style="fill: none;stroke: #029adc;stroke-linecap: round;stroke-linejoin: round;stroke-width: 2px"/>
          <polygon points="187.32 24.01 188.68 22.55 181.46 15.84 188.68 9.12 187.32 7.66 178.52 15.84 187.32 24.01" style="fill: #029adc"/>
        </g>
      </g>
    </g>
  </g>
</svg>
