<svg xmlns="http://www.w3.org/2000/svg" xmlns:xlink="http://www.w3.org/1999/xlink" viewBox="0 0 407 266">
  <defs>
    <linearGradient id="linear-gradient" x1="-15142.48" y1="98.29" x2="-15135.08" y2="98.29" gradientTransform="matrix(-1, 0, 0, 1, -15056.23, 0)" gradientUnits="userSpaceOnUse">
      <stop offset="0.01" stop-color="#e3e7f0"/>
      <stop offset="1" stop-color="#b3c1d9"/>
    </linearGradient>
    <linearGradient id="linear-gradient-2" x1="92.49" y1="-52.46" x2="190.62" y2="140.14" gradientTransform="matrix(0.96, 0, 0, 0.92, 66.57, 122.71)" gradientUnits="userSpaceOnUse">
      <stop offset="0" stop-color="#a4d8c8"/>
      <stop offset="0.98" stop-color="#12a0c6"/>
    </linearGradient>
    <linearGradient id="linear-gradient-3" x1="287.75" y1="159.89" x2="295.22" y2="245.78" gradientUnits="userSpaceOnUse">
      <stop offset="0" stop-color="#fff"/>
      <stop offset="1" stop-color="#a9c3d7"/>
    </linearGradient>
    <clipPath id="clip-path">
      <path id="SVGID" d="M271.2,140.37l-.82-.48a.74.74,0,0,1,.3.65,2.21,2.21,0,0,1-1,1.74l.82.48a2.22,2.22,0,0,0,1-1.75A.69.69,0,0,0,271.2,140.37Z" style="fill: none"/>
    </clipPath>
    <clipPath id="clip-path-2">
      <path id="SVGID-2" data-name="SVGID" d="M269,142.35l.82.48a.71.71,0,0,0,.72-.07l-.82-.48A.71.71,0,0,1,269,142.35Z" style="fill: none"/>
    </clipPath>
    <clipPath id="clip-path-3">
      <path id="SVGID-3" data-name="SVGID" d="M271.79,138.9l-.82-.47a1.29,1.29,0,0,0-1.31.12l.82.48A1.3,1.3,0,0,1,271.79,138.9Z" style="fill: none"/>
    </clipPath>
    <clipPath id="clip-path-4">
      <path id="SVGID-4" data-name="SVGID" d="M270.48,139l-.82-.48a4.1,4.1,0,0,0-1.85,3.2l.82.48A4.1,4.1,0,0,1,270.48,139Z" style="fill: none"/>
    </clipPath>
    <clipPath id="clip-path-5">
      <path id="SVGID-5" data-name="SVGID" d="M275.5,148v-.45a.26.26,0,0,1-.16.23v.45A.26.26,0,0,0,275.5,148Z" style="fill: none"/>
    </clipPath>
    <clipPath id="clip-path-6">
      <path id="SVGID-6" data-name="SVGID" d="M263.93,150.32v.45a.29.29,0,0,0,.16.23v-.45A.31.31,0,0,1,263.93,150.32Z" style="fill: #b8bdc6"/>
    </clipPath>
    <clipPath id="clip-path-7">
      <path id="SVGID-7" data-name="SVGID" d="M266.94,152.21v.45a.83.83,0,0,0,.78,0v-.45A.83.83,0,0,1,266.94,152.21Z" style="fill: #b8bdc6"/>
    </clipPath>
    <linearGradient id="linear-gradient-4" x1="260.78" y1="139.29" x2="277.29" y2="139.29" gradientUnits="userSpaceOnUse">
      <stop offset="0" stop-color="#0997af"/>
      <stop offset="0.29" stop-color="#0d8eab"/>
      <stop offset="1" stop-color="#0076a0"/>
    </linearGradient>
    <linearGradient id="linear-gradient-5" x1="270.49" y1="134.29" x2="275.74" y2="134.29" xlink:href="#linear-gradient-4"/>
    <linearGradient id="linear-gradient-6" x1="270.49" y1="134.85" x2="275.74" y2="134.85" xlink:href="#linear-gradient-4"/>
    <linearGradient id="linear-gradient-7" x1="270.49" y1="135.38" x2="275.74" y2="135.38" xlink:href="#linear-gradient-4"/>
    <linearGradient id="linear-gradient-8" x1="270.49" y1="136.61" x2="273.25" y2="136.61" xlink:href="#linear-gradient-4"/>
    <linearGradient id="linear-gradient-9" x1="107.17" y1="172.87" x2="112.85" y2="238.15" xlink:href="#linear-gradient-3"/>
    <clipPath id="clip-path-8">
      <path id="SVGID-8" data-name="SVGID" d="M116,75.71l4.39,2.55a2.14,2.14,0,0,0-2.15.21l-4.39-2.55A2.12,2.12,0,0,1,116,75.71Z" style="fill: #fafbfb"/>
    </clipPath>
    <clipPath id="clip-path-9">
      <path id="SVGID-9" data-name="SVGID" d="M83.24,102.18l-4.39-2.56a6.64,6.64,0,0,1,3-5.21L86.25,97A6.66,6.66,0,0,0,83.24,102.18Z" style="fill: url(#linear-gradient)"/>
    </clipPath>
    <linearGradient id="linear-gradient-11" x1="-15153.04" y1="194.44" x2="-15161.63" y2="95.11" gradientTransform="matrix(-1, 0, 0, 1, -15056.23, 0)" gradientUnits="userSpaceOnUse">
      <stop offset="0" stop-color="#52c7ea"/>
      <stop offset="0.29" stop-color="#3dc5ee"/>
      <stop offset="1" stop-color="#26aee4"/>
    </linearGradient>
    <linearGradient id="linear-gradient-12" x1="-15151.33" y1="90.61" x2="-15147.67" y2="90.61" gradientTransform="matrix(-1, 0, 0, 1, -15056.23, 0)" gradientUnits="userSpaceOnUse">
      <stop offset="0" stop-color="#a9b9d5"/>
      <stop offset="1" stop-color="#95a9c8"/>
    </linearGradient>
    <linearGradient id="linear-gradient-13" x1="-15146.87" y1="93.66" x2="-15140.99" y2="93.66" xlink:href="#linear-gradient-12"/>
    <linearGradient id="linear-gradient-14" x1="-15163.81" y1="92.2" x2="-15150.31" y2="92.2" xlink:href="#linear-gradient-12"/>
    <linearGradient id="linear-gradient-15" x1="-15136.74" y1="141.47" x2="-15173.58" y2="119.92" gradientTransform="matrix(-1, 0, 0, 1, -15056.23, 0)" xlink:href="#linear-gradient-4"/>
    <linearGradient id="linear-gradient-16" x1="48.84" y1="164.57" x2="67.3" y2="164.57" xlink:href="#linear-gradient-4"/>
    <linearGradient id="linear-gradient-17" x1="93.44" y1="116.49" x2="110.94" y2="116.49" xlink:href="#linear-gradient-4"/>
    <linearGradient id="linear-gradient-18" x1="94.05" y1="138.87" x2="112.72" y2="138.87" xlink:href="#linear-gradient-4"/>
  </defs>
  <title>isohero-nagenda</title>
  <g style="isolation: isolate">
    <g id="arte">
      <g>
        <path d="M167.88,252.8C110.65,251.44,70,223.9,53.82,196.39,38.59,170.55,37.38,94.44,168.06,90.13,303.91,85.64,361.42,125,360,156,357,219.4,248.15,254.72,167.88,252.8Z" style="fill: url(#linear-gradient-2)"/>
        <g>
          <line x1="101.66" y1="59.15" x2="101.66" y2="59.15" style="fill: none;stroke: #00709e;stroke-linecap: round;stroke-linejoin: round;stroke-width: 1.88751888275147px"/>
          <path d="M101.66,54.45V26.89a2,2,0,0,1,2-2H287a2,2,0,0,1,2,2v57.8" style="fill: none;stroke: #00709e;stroke-linecap: round;stroke-linejoin: round;stroke-width: 1.88751888275147px;stroke-dasharray: 0,4.701045036315918"/>
          <line x1="289.02" y1="87.04" x2="289.02" y2="87.04" style="fill: none;stroke: #00709e;stroke-linecap: round;stroke-linejoin: round;stroke-width: 1.88751888275147px"/>
          <rect x="95.53" y="58.2" width="12.27" height="1.89" style="fill: #00709e"/>
          <polygon points="281.3 80.79 282.68 79.5 289.02 86.32 295.36 79.5 296.74 80.79 289.02 89.09 281.3 80.79" style="fill: #00709e"/>
        </g>
        <g>
          <g>
            <path d="M185.48,33.07a8.2,8.2,0,1,1,0-16.4,8,8,0,0,1,1.47.13,10.23,10.23,0,0,1,18.38,4.6,5.87,5.87,0,0,1-.51,11.66H185.48Z" style="fill: #89d6f2"/>
            <path d="M195.2,13.12a9.71,9.71,0,0,1,9.67,8.73,5.36,5.36,0,0,1-.45,10.71H185.48a7.7,7.7,0,0,1,0-15.39,8,8,0,0,1,1.7.19,9.7,9.7,0,0,1,8-4.24m0-1a10.75,10.75,0,0,0-8.47,4.14,8.71,8.71,0,1,0-1.25,17.33h19.85v-.07A6.37,6.37,0,0,0,205.77,21a10.69,10.69,0,0,0-10.57-8.86Z" style="fill: #89d6f2"/>
            <path d="M195.2,14.14A8.69,8.69,0,0,1,203.87,22l.08.84.84.07a4.35,4.35,0,0,1-.4,8.69h-.06l-1,0v0H185.48a6.68,6.68,0,1,1,0-13.36,6.62,6.62,0,0,1,1.47.16l.67.15.39-.57a8.73,8.73,0,0,1,7.19-3.79m0-1a9.7,9.7,0,0,0-8,4.24,8,8,0,0,0-1.7-.19,7.7,7.7,0,0,0,0,15.39h18.94a5.36,5.36,0,0,0,.45-10.71,9.71,9.71,0,0,0-9.67-8.73Z" style="fill: #00394b"/>
          </g>
          <g style="opacity: 0.1">
            <path d="M205.63,30.13H187.78a7.26,7.26,0,0,1-7.26-7.25,23.89,23.89,0,0,1,.6-4.42,7.7,7.7,0,0,0,4.26,14.1h18.94a5.37,5.37,0,0,0,5.26-4.32A5.07,5.07,0,0,1,205.63,30.13Z"/>
          </g>
        </g>
        <g>
          <g>
            <g style="mix-blend-mode: multiply">
              <path d="M363.21,194.86l-66.87-39.19a6,6,0,0,0-5.45,0l-72,42.17c-1.5.87-1.49,2.29,0,3.16l66.87,39.19a6,6,0,0,0,5.45,0l72-42.17C364.73,197.15,364.72,195.73,363.21,194.86Z" style="fill: url(#linear-gradient-3)"/>
            </g>
            <g style="isolation: isolate">
              <path d="M363.21,169.68l-66.87-39.19a6,6,0,0,0-5.45,0l-72,42.17c-1.5.87-1.49,2.29,0,3.16L285.77,215a6,6,0,0,0,5.45,0l72-42.17C364.73,172,364.72,170.55,363.21,169.68Z" style="fill: #b8e3f0"/>
              <path d="M363.23,172.84l-72,42.17a6,6,0,0,1-5.45,0L218.9,175.82a1.94,1.94,0,0,1-1.14-1.59v3.59a1.93,1.93,0,0,0,1.14,1.59l66.87,39.19a6,6,0,0,0,5.45,0l72-42.17a1.94,1.94,0,0,0,1.12-1.57v-3.59A2,2,0,0,1,363.23,172.84Z" style="fill: #95d4ec"/>
            </g>
          </g>
          <g>
            <g style="opacity: 0.7000000000000001;mix-blend-mode: multiply">
              <polygon points="241.77 177.75 241.77 181.57 265.96 196.06 330.68 157.46 295.63 137 241.77 177.75" style="fill: #d3dff1"/>
              <path d="M312.27,189.09l-11.44,6.61a4.94,4.94,0,0,1-4.91,0l-11.44-6.61a4.91,4.91,0,0,1,0-8.51L295.92,174a4.94,4.94,0,0,1,4.91,0l11.44,6.61A4.91,4.91,0,0,1,312.27,189.09Z" style="fill: #d3dff1"/>
            </g>
            <g>
              <g>
                <g>
                  <g style="isolation: isolate">
                    <polygon points="264.75 191.1 262.89 190.02 262.87 166.37 264.73 167.44 264.75 191.1" style="fill: #f7f9fc"/>
                    <polygon points="264.73 167.44 262.87 166.37 264.57 165.38 266.43 166.46 264.73 167.44" style="fill: #1a1c1e"/>
                    <polygon points="266.43 166.46 266.45 190.12 264.75 191.1 264.73 167.44 266.43 166.46" style="fill: #d6dfe8"/>
                  </g>
                  <g style="isolation: isolate">
                    <polygon points="263.05 190.11 242.1 177.75 242.09 159.17 263.05 169.19 263.05 190.11" style="fill: #f7f9fc"/>
                    <polygon points="243.94 160.25 242.09 159.17 243.79 158.19 245.65 159.26 243.94 160.25" style="fill: #1a1c1e"/>
                  </g>
                </g>
                <g>
                  <g style="isolation: isolate">
                    <polygon points="319.35 136.04 319.37 156.54 321.23 157.62 321.21 136.04 319.35 136.04" style="fill: #f7f9fc"/>
                    <polygon points="321.21 136.04 321.23 157.62 322.93 156.63 322.91 136.04 321.21 136.04" style="fill: #d6dfe8"/>
                  </g>
                  <g style="isolation: isolate">
                    <polygon points="298.58 136.04 298.58 144.26 319.53 156.63 319.53 136.04 298.58 136.04" style="fill: #f7f9fc"/>
                  </g>
                </g>
                <g style="isolation: isolate">
                  <polygon points="261.49 173.7 239.81 161.1 239.81 159.15 261.49 171.75 261.49 173.7" style="fill: #004b6b"/>
                  <polygon points="261.49 171.75 239.81 159.15 303.81 121.81 325.49 134.41 261.49 171.75" style="fill: #00709e"/>
                  <polygon points="325.49 134.41 325.49 136.37 261.49 173.7 261.49 171.75 325.49 134.41" style="fill: #004b6b"/>
                </g>
              </g>
              <g>
                <g style="isolation: isolate">
                  <polygon points="278.92 142.26 278.92 142.53 279.32 142.77 279.32 142.49 278.92 142.26" style="fill: #90908f"/>
                  <polygon points="279.73 142.73 279.73 143 280.13 143.24 280.13 142.96 279.73 142.73" style="fill: #90908f"/>
                  <polygon points="280.57 143.22 280.57 143.49 280.98 143.73 280.98 143.46 280.57 143.22" style="fill: #90908f"/>
                  <polygon points="281.38 143.69 281.38 143.96 281.79 144.2 281.79 143.93 281.38 143.69" style="fill: #90908f"/>
                  <polygon points="273.71 143.15 273.71 143.42 275.12 144.24 275.12 143.97 273.71 143.15" style="fill: #90908f"/>
                  <polygon points="275.89 144 275.9 144.28 278.92 142.53 278.92 142.26 275.89 144" style="fill: #90908f"/>
                  <polygon points="275.89 144 275.9 144.28 276.3 144.51 276.3 144.24 275.89 144" style="fill: #727173"/>
                  <polygon points="276.3 144.24 276.3 144.51 279.32 142.77 279.32 142.49 276.3 144.24" style="fill: #727273"/>
                  <polygon points="275.89 144 276.3 144.24 279.32 142.49 278.92 142.26 275.89 144" style="fill: #d6dfe8"/>
                  <polygon points="282.19 144.16 282.19 144.43 282.6 144.67 282.6 144.4 282.19 144.16" style="fill: #90908f"/>
                  <polygon points="273.71 143.15 273.7 144.78 275.12 143.97 273.71 143.15" style="fill: #d6dfe8"/>
                  <polygon points="273.7 144.78 273.7 145.06 275.12 144.24 275.12 143.97 273.7 144.78" style="fill: #727273"/>
                  <polygon points="275.25 145.31 275.25 145.58 279.73 143 279.73 142.73 275.25 145.31" style="fill: #90908f"/>
                  <polygon points="275.66 145.54 275.66 145.82 280.13 143.24 280.13 142.96 275.66 145.54" style="fill: #727273"/>
                  <polygon points="275.25 145.31 275.25 145.58 275.66 145.82 275.66 145.54 275.25 145.31" style="fill: #727173"/>
                  <polygon points="276.1 145.8 276.1 146.07 280.57 143.49 280.57 143.22 276.1 145.8" style="fill: #90908f"/>
                  <polygon points="276.51 146.04 276.51 146.31 280.98 143.73 280.98 143.46 276.51 146.04" style="fill: #727273"/>
                  <polygon points="276.1 145.8 276.1 146.07 276.51 146.31 276.51 146.04 276.1 145.8" style="fill: #727173"/>
                  <polygon points="276.1 145.8 276.51 146.04 280.98 143.46 280.57 143.22 276.1 145.8" style="fill: #d6dfe8"/>
                  <polygon points="276.91 146.27 276.91 146.54 281.38 143.96 281.38 143.69 276.91 146.27" style="fill: #90908f"/>
                  <polygon points="277.31 146.51 277.32 146.78 281.79 144.2 281.79 143.93 277.31 146.51" style="fill: #727273"/>
                  <polygon points="276.91 146.27 276.91 146.54 277.32 146.78 277.31 146.51 276.91 146.27" style="fill: #727173"/>
                  <polygon points="277.72 146.74 277.72 147.01 282.19 144.43 282.19 144.16 277.72 146.74" style="fill: #90908f"/>
                  <polygon points="277.72 146.74 277.72 147.01 278.12 147.25 278.12 146.98 277.72 146.74" style="fill: #727173"/>
                  <polygon points="278.12 146.98 278.12 147.25 282.6 144.67 282.6 144.4 278.12 146.98" style="fill: #727273"/>
                  <path d="M273.71,143.15l3.7-2.14L284.2,145l-5.12,3-5.38-3.13,1.42-.82Zm2.8,2.89,4.47-2.58-.41-.24-4.47,2.58.41.24Zm1.61.94,4.47-2.58-.4-.24-4.47,2.58.4.24Zm-2.46-1.43,4.47-2.59-.41-.23-4.47,2.58.41.24Zm1.65,1,4.48-2.58-.41-.24-4.47,2.58.4.24Zm1.61-4.25-3,1.74.4.24,3-1.75-.4-.23Z" style="fill: #f7f9fc"/>
                  <polygon points="275.25 145.31 275.66 145.54 280.13 142.96 279.73 142.73 275.25 145.31" style="fill: #d6dfe8"/>
                  <polygon points="276.91 146.27 277.31 146.51 281.79 143.93 281.38 143.69 276.91 146.27" style="fill: #d6dfe8"/>
                  <polygon points="277.72 146.74 278.12 146.98 282.6 144.4 282.19 144.16 277.72 146.74" style="fill: #d6dfe8"/>
                  <polygon points="273.7 144.78 273.7 145.06 279.08 148.18 279.08 147.91 273.7 144.78" style="fill: #d6dfe8"/>
                  <polygon points="279.08 147.91 279.08 148.18 284.2 145.22 284.2 144.95 279.08 147.91" style="fill: #d6dfe8"/>
                </g>
                <g style="isolation: isolate">
                  <polygon points="278.92 141.97 278.92 142.24 279.32 142.48 279.32 142.2 278.92 141.97" style="fill: #90908f"/>
                  <polygon points="279.73 142.44 279.73 142.71 280.13 142.95 280.13 142.67 279.73 142.44" style="fill: #90908f"/>
                  <polygon points="280.57 142.93 280.57 143.2 280.98 143.44 280.98 143.17 280.57 142.93" style="fill: #90908f"/>
                  <polygon points="281.38 143.4 281.38 143.67 281.79 143.91 281.79 143.64 281.38 143.4" style="fill: #90908f"/>
                  <polygon points="273.71 142.86 273.71 143.13 275.12 143.95 275.12 143.68 273.71 142.86" style="fill: #90908f"/>
                  <polygon points="275.89 143.71 275.9 143.99 278.92 142.24 278.92 141.97 275.89 143.71" style="fill: #90908f"/>
                  <polygon points="275.89 143.71 275.9 143.99 276.3 144.22 276.3 143.95 275.89 143.71" style="fill: #727173"/>
                  <polygon points="276.3 143.95 276.3 144.22 279.32 142.48 279.32 142.2 276.3 143.95" style="fill: #727273"/>
                  <polygon points="275.89 143.71 276.3 143.95 279.32 142.2 278.92 141.97 275.89 143.71" style="fill: #d6dfe8"/>
                  <polygon points="282.19 143.87 282.19 144.14 282.6 144.38 282.6 144.1 282.19 143.87" style="fill: #90908f"/>
                  <polygon points="273.71 142.86 273.7 144.49 275.12 143.68 273.71 142.86" style="fill: #d6dfe8"/>
                  <polygon points="273.7 144.49 273.7 144.77 275.12 143.95 275.12 143.68 273.7 144.49" style="fill: #727273"/>
                  <polygon points="275.25 145.02 275.25 145.29 279.73 142.71 279.73 142.44 275.25 145.02" style="fill: #90908f"/>
                  <polygon points="275.66 145.26 275.66 145.53 280.13 142.95 280.13 142.67 275.66 145.26" style="fill: #727273"/>
                  <polygon points="275.25 145.02 275.25 145.29 275.66 145.53 275.66 145.26 275.25 145.02" style="fill: #727173"/>
                  <polygon points="276.1 145.51 276.1 145.79 280.57 143.2 280.57 142.93 276.1 145.51" style="fill: #90908f"/>
                  <polygon points="276.51 145.75 276.51 146.02 280.98 143.44 280.98 143.17 276.51 145.75" style="fill: #727273"/>
                  <polygon points="276.1 145.51 276.1 145.79 276.51 146.02 276.51 145.75 276.1 145.51" style="fill: #727173"/>
                  <polygon points="276.1 145.51 276.51 145.75 280.98 143.17 280.57 142.93 276.1 145.51" style="fill: #d6dfe8"/>
                  <polygon points="276.91 145.98 276.91 146.25 281.38 143.67 281.38 143.4 276.91 145.98" style="fill: #90908f"/>
                  <polygon points="277.31 146.22 277.32 146.49 281.79 143.91 281.79 143.64 277.31 146.22" style="fill: #727273"/>
                  <polygon points="276.91 145.98 276.91 146.25 277.32 146.49 277.31 146.22 276.91 145.98" style="fill: #727173"/>
                  <polygon points="277.72 146.45 277.72 146.72 282.19 144.14 282.19 143.87 277.72 146.45" style="fill: #90908f"/>
                  <polygon points="277.72 146.45 277.72 146.72 278.12 146.96 278.12 146.69 277.72 146.45" style="fill: #727173"/>
                  <polygon points="278.12 146.69 278.12 146.96 282.6 144.38 282.6 144.1 278.12 146.69" style="fill: #727273"/>
                  <path d="M273.71,142.86l3.7-2.14,6.79,3.94-5.12,3-5.38-3.13,1.42-.81Zm2.8,2.89,4.47-2.58-.41-.24-4.47,2.58.41.24Zm1.61.94,4.47-2.58-.4-.24-4.47,2.58.4.24Zm-2.46-1.43,4.47-2.59-.41-.23L275.25,145l.41.24Zm1.65,1,4.48-2.58-.41-.24L276.91,146l.4.24Zm1.61-4.25-3,1.74.4.24,3-1.75-.4-.23Z" style="fill: #f7f9fc"/>
                  <polygon points="275.25 145.02 275.66 145.26 280.13 142.67 279.73 142.44 275.25 145.02" style="fill: #d6dfe8"/>
                  <polygon points="276.91 145.98 277.31 146.22 281.79 143.64 281.38 143.4 276.91 145.98" style="fill: #d6dfe8"/>
                  <polygon points="277.72 146.45 278.12 146.69 282.6 144.1 282.19 143.87 277.72 146.45" style="fill: #d6dfe8"/>
                  <polygon points="273.7 144.49 273.7 144.77 279.08 147.89 279.08 147.62 273.7 144.49" style="fill: #d6dfe8"/>
                  <polygon points="279.08 147.62 279.08 147.89 284.2 144.94 284.2 144.66 279.08 147.62" style="fill: #d6dfe8"/>
                </g>
                <g style="isolation: isolate">
                  <polygon points="278.92 141.68 278.92 141.95 279.32 142.19 279.32 141.91 278.92 141.68" style="fill: #90908f"/>
                  <polygon points="279.73 142.15 279.73 142.42 280.13 142.66 280.13 142.38 279.73 142.15" style="fill: #90908f"/>
                  <polygon points="280.57 142.64 280.57 142.91 280.98 143.15 280.98 142.88 280.57 142.64" style="fill: #90908f"/>
                  <polygon points="281.38 143.11 281.38 143.38 281.79 143.62 281.79 143.35 281.38 143.11" style="fill: #90908f"/>
                  <polygon points="273.71 142.57 273.71 142.84 275.12 143.66 275.12 143.39 273.71 142.57" style="fill: #90908f"/>
                  <polygon points="275.89 143.42 275.9 143.7 278.92 141.95 278.92 141.68 275.89 143.42" style="fill: #90908f"/>
                  <polygon points="275.89 143.42 275.9 143.7 276.3 143.93 276.3 143.66 275.89 143.42" style="fill: #727173"/>
                  <polygon points="276.3 143.66 276.3 143.93 279.32 142.19 279.32 141.91 276.3 143.66" style="fill: #727273"/>
                  <polygon points="275.89 143.42 276.3 143.66 279.32 141.91 278.92 141.68 275.89 143.42" style="fill: #d6dfe8"/>
                  <polygon points="282.19 143.58 282.19 143.85 282.6 144.09 282.6 143.82 282.19 143.58" style="fill: #90908f"/>
                  <polygon points="273.71 142.57 273.7 144.2 275.12 143.39 273.71 142.57" style="fill: #d6dfe8"/>
                  <polygon points="273.7 144.2 273.7 144.48 275.12 143.66 275.12 143.39 273.7 144.2" style="fill: #727273"/>
                  <polygon points="275.25 144.73 275.25 145 279.73 142.42 279.73 142.15 275.25 144.73" style="fill: #90908f"/>
                  <polygon points="275.66 144.97 275.66 145.24 280.13 142.66 280.13 142.38 275.66 144.97" style="fill: #727273"/>
                  <polygon points="275.25 144.73 275.25 145 275.66 145.24 275.66 144.97 275.25 144.73" style="fill: #727173"/>
                  <polygon points="276.1 145.22 276.1 145.5 280.57 142.91 280.57 142.64 276.1 145.22" style="fill: #90908f"/>
                  <polygon points="276.51 145.46 276.51 145.73 280.98 143.15 280.98 142.88 276.51 145.46" style="fill: #727273"/>
                  <polygon points="276.1 145.22 276.1 145.5 276.51 145.73 276.51 145.46 276.1 145.22" style="fill: #727173"/>
                  <polygon points="276.1 145.22 276.51 145.46 280.98 142.88 280.57 142.64 276.1 145.22" style="fill: #d6dfe8"/>
                  <polygon points="276.91 145.69 276.91 145.97 281.38 143.38 281.38 143.11 276.91 145.69" style="fill: #90908f"/>
                  <polygon points="277.31 145.93 277.32 146.2 281.79 143.62 281.79 143.35 277.31 145.93" style="fill: #727273"/>
                  <polygon points="276.91 145.69 276.91 145.97 277.32 146.2 277.31 145.93 276.91 145.69" style="fill: #727173"/>
                  <polygon points="277.72 146.16 277.72 146.43 282.19 143.85 282.19 143.58 277.72 146.16" style="fill: #90908f"/>
                  <polygon points="277.72 146.16 277.72 146.43 278.12 146.67 278.12 146.4 277.72 146.16" style="fill: #727173"/>
                  <polygon points="278.12 146.4 278.12 146.67 282.6 144.09 282.6 143.82 278.12 146.4" style="fill: #727273"/>
                  <path d="M273.71,142.57l3.7-2.14,6.79,3.94-5.12,3-5.38-3.13,1.42-.81Zm2.8,2.89,4.47-2.58-.41-.24-4.47,2.58.41.24Zm1.61.94,4.47-2.58-.4-.24-4.47,2.58.4.24ZM275.66,145l4.47-2.59-.41-.23-4.47,2.58.41.24Zm1.65,1,4.48-2.58-.41-.24-4.47,2.58.4.24Zm1.61-4.25-3,1.74.4.24,3-1.75-.4-.23Z" style="fill: #f7f9fc"/>
                  <polygon points="275.25 144.73 275.66 144.97 280.13 142.38 279.73 142.15 275.25 144.73" style="fill: #d6dfe8"/>
                  <polygon points="276.91 145.69 277.31 145.93 281.79 143.35 281.38 143.11 276.91 145.69" style="fill: #d6dfe8"/>
                  <polygon points="277.72 146.16 278.12 146.4 282.6 143.82 282.19 143.58 277.72 146.16" style="fill: #d6dfe8"/>
                  <polygon points="273.7 144.2 273.7 144.48 279.08 147.6 279.08 147.33 273.7 144.2" style="fill: #d6dfe8"/>
                  <polygon points="279.08 147.33 279.08 147.6 284.2 144.65 284.2 144.37 279.08 147.33" style="fill: #d6dfe8"/>
                </g>
              </g>
              <g>
                <path d="M292.25,149.65a.47.47,0,0,1-.27.38l-.48.27v-.6l-.95-.56-.94.55.53.31.41-.24.42.25-.41.23-.95-.55v0l-.46-.27a1.61,1.61,0,0,0-.16-.38l.3-.18v-.62l-1-.55-.22.12v-.25l-.95-.55-.22.12v-.24l-.95-.56-.94.54v.15l-.13-.07-.94.54v.15l-.13-.08-.94.54v.15l-.13-.07-.93.54v.15l-.13-.08-.94.55v.15l-.13-.08-.94.54v.15l-.13-.07-.93.54v.15l-.13-.08-.94.54v.15l-.13-.07-.94.54V152l-.13-.07-.94.54v.15l-.12-.08-.94.54v.15l-.13-.07-.94.54v.15l-.13-.08-.94.54h0v.16l-.13-.08-.93.54v.56l-.48-.28-.94.54v.57l-.45-.26a.5.5,0,0,1-.27-.38v.62a.46.46,0,0,0,.26.38l5.46,3.17a1.42,1.42,0,0,0,1.3,0l15.9-9.18a.47.47,0,0,0,.27-.38Z" style="fill: #c1c1c1"/>
                <g>
                  <path d="M292,149.27l-5.45-3.17a1.44,1.44,0,0,0-1.31,0l-15.89,9.18c-.36.21-.37.55,0,.76l5.45,3.17a1.44,1.44,0,0,0,1.31,0L292,150A.4.4,0,0,0,292,149.27Z" style="fill: #fff"/>
                  <path d="M275.43,159a1,1,0,0,0,.45-.1l15.89-9.18,0,0,0,0-5.45-3.17a1.06,1.06,0,0,0-.9,0l-15.9,9.18,0,0,0,0,5.45,3.17A1,1,0,0,0,275.43,159Z" style="fill: #4d4e4e;opacity: 0.6000000000000001;mix-blend-mode: multiply"/>
                  <g>
                    <polygon points="285.7 146.71 286.6 147.24 285.71 147.75 284.81 147.22 285.7 146.71" style="fill: #f7f9fc"/>
                    <polygon points="284.69 147.29 285.59 147.82 284.71 148.33 283.81 147.81 284.69 147.29" style="fill: #f7f9fc"/>
                    <polygon points="283.68 147.88 284.58 148.4 283.7 148.91 282.8 148.39 283.68 147.88" style="fill: #f7f9fc"/>
                    <polygon points="285.79 147.94 286.69 148.46 285.81 148.97 284.91 148.45 285.79 147.94" style="fill: #f7f9fc"/>
                    <polygon points="287.9 148 288.81 148.52 287.92 149.03 287.02 148.51 287.9 148" style="fill: #f7f9fc"/>
                    <polygon points="282.67 148.46 283.58 148.98 282.69 149.49 281.79 148.97 282.67 148.46" style="fill: #f7f9fc"/>
                    <polygon points="286.9 148.58 287.8 149.1 286.91 149.61 286.01 149.09 286.9 148.58" style="fill: #f7f9fc"/>
                    <polygon points="281.67 149.04 282.57 149.56 281.68 150.07 280.78 149.55 281.67 149.04" style="fill: #f7f9fc"/>
                    <polygon points="285.89 149.16 286.79 149.68 285.9 150.19 285 149.67 285.89 149.16" style="fill: #f7f9fc"/>
                    <polygon points="280.66 149.62 281.56 150.15 280.68 150.66 279.77 150.13 280.66 149.62" style="fill: #f7f9fc"/>
                    <polygon points="283.35 149.35 284.25 149.87 281.78 151.3 280.88 150.78 283.35 149.35" style="fill: #f7f9fc"/>
                    <polygon points="278.64 150.78 279.55 151.31 278.66 151.82 277.76 151.3 278.64 150.78" style="fill: #f7f9fc"/>
                    <polygon points="280.76 150.84 281.66 151.37 280.77 151.88 279.87 151.36 280.76 150.84" style="fill: #f7f9fc"/>
                    <polygon points="284.53 150.04 285.58 150.64 286.18 150.99 286.48 151.17 284.98 152.03 284.08 151.5 284.54 151.24 283.5 150.63 284.53 150.04" style="fill: #f7f9fc"/>
                    <polygon points="277.64 151.37 278.54 151.89 277.65 152.4 276.75 151.88 277.64 151.37" style="fill: #f7f9fc"/>
                    <polygon points="279.75 151.43 280.65 151.95 279.76 152.46 278.86 151.94 279.75 151.43" style="fill: #f7f9fc"/>
                    <polygon points="281.18 151.88 282.08 152.4 281.2 152.91 280.3 152.39 281.18 151.88" style="fill: #f7f9fc"/>
                    <polygon points="276.63 151.95 277.53 152.47 276.65 152.98 275.74 152.46 276.63 151.95" style="fill: #f7f9fc"/>
                    <polygon points="278.74 152.01 279.64 152.53 278.76 153.04 277.86 152.52 278.74 152.01" style="fill: #f7f9fc"/>
                    <polygon points="280.19 152.45 281.08 152.98 280.2 153.49 279.3 152.97 280.19 152.45" style="fill: #f7f9fc"/>
                    <polygon points="275.62 152.53 276.52 153.05 275.64 153.57 274.74 153.04 275.62 152.53" style="fill: #f7f9fc"/>
                    <polygon points="277.73 152.59 278.63 153.11 277.75 153.63 276.85 153.1 277.73 152.59" style="fill: #f7f9fc"/>
                    <polygon points="284.57 152.49 285.46 153.01 283.71 154.03 282.81 153.5 284.57 152.49" style="fill: #f7f9fc"/>
                    <polygon points="279.19 153.03 280.09 153.55 279.2 154.06 278.3 153.54 279.19 153.03" style="fill: #f7f9fc"/>
                    <polygon points="274.61 153.11 275.52 153.64 274.63 154.15 273.73 153.62 274.61 153.11" style="fill: #f7f9fc"/>
                    <polygon points="276.73 153.17 277.63 153.69 276.74 154.21 275.84 153.68 276.73 153.17" style="fill: #f7f9fc"/>
                    <polygon points="278.19 153.6 279.09 154.13 278.21 154.64 277.31 154.11 278.19 153.6" style="fill: #f7f9fc"/>
                    <polygon points="273.61 153.69 274.51 154.22 273.62 154.73 272.72 154.2 273.61 153.69" style="fill: #f7f9fc"/>
                    <polygon points="275.72 153.75 276.62 154.28 275.73 154.79 274.83 154.26 275.72 153.75" style="fill: #f7f9fc"/>
                    <polygon points="277.2 154.18 278.1 154.7 277.21 155.21 276.31 154.69 277.2 154.18" style="fill: #f7f9fc"/>
                    <polygon points="272.6 154.28 273.5 154.8 272.62 155.31 271.71 154.79 272.6 154.28" style="fill: #f7f9fc"/>
                    <polygon points="274.71 154.34 275.61 154.86 274.73 155.37 273.83 154.85 274.71 154.34" style="fill: #f7f9fc"/>
                    <polygon points="276.2 154.75 277.1 155.28 276.22 155.79 275.32 155.26 276.2 154.75" style="fill: #f7f9fc"/>
                    <polygon points="271.26 155.05 272.16 155.57 271.28 156.08 270.37 155.56 271.26 155.05" style="fill: #f7f9fc"/>
                    <polygon points="275.2 155.33 276.11 155.85 275.22 156.36 274.32 155.84 275.2 155.33" style="fill: #f7f9fc"/>
                    <polygon points="282.7 153.57 283.6 154.09 279.27 156.59 278.37 156.06 282.7 153.57" style="fill: #f7f9fc"/>
                    <polygon points="273.66 154.94 274.56 155.47 272.38 156.72 271.48 156.2 273.66 154.94" style="fill: #f7f9fc"/>
                    <polygon points="274.21 155.91 275.11 156.43 273.48 157.37 272.58 156.84 274.21 155.91" style="fill: #f7f9fc"/>
                    <polygon points="278.23 156.14 279.13 156.67 277.64 157.53 276.74 157.01 278.23 156.14" style="fill: #f7f9fc"/>
                    <polygon points="276.55 157.11 277.45 157.64 275.7 158.65 274.79 158.13 276.55 157.11" style="fill: #f7f9fc"/>
                    <polygon points="286.8 147.35 287.7 147.88 286.82 148.39 285.92 147.87 286.8 147.35" style="fill: #f7f9fc"/>
                    <polygon points="284.79 148.52 285.69 149.04 284.8 149.55 283.9 149.03 284.79 148.52" style="fill: #f7f9fc"/>
                    <polygon points="289.99 149.34 290.89 149.87 290.01 150.38 289.11 149.85 289.99 149.34" style="fill: #f7f9fc"/>
                    <polygon points="288.99 149.92 289.11 149.99 289.89 150.44 289 150.96 288.1 150.43 288.19 150.38 288.99 149.92" style="fill: #f7f9fc"/>
                    <polygon points="288.01 149.34 288.13 149.41 288.92 149.87 288.03 150.38 287.13 149.85 287.22 149.8 288.01 149.34" style="fill: #f7f9fc"/>
                    <polygon points="279.65 150.2 280.55 150.73 279.67 151.24 278.77 150.71 279.65 150.2" style="fill: #f7f9fc"/>
                    <polygon points="288.01 150.48 288.92 151.01 288.03 151.52 287.13 150.99 288.01 150.48" style="fill: #f7f9fc"/>
                    <polygon points="283.17 150.73 284.07 151.25 283.19 151.76 282.29 151.24 283.17 150.73" style="fill: #f7f9fc"/>
                    <polygon points="282.18 151.3 283.08 151.83 282.19 152.34 281.29 151.81 282.18 151.3" style="fill: #f7f9fc"/>
                    <polygon points="286.57 151.33 287.48 151.85 285.65 152.91 284.75 152.38 286.57 151.33" style="fill: #f7f9fc"/>
                    <polygon points="276.87 155.64 277.77 156.17 276.89 156.68 275.99 156.15 276.87 155.64 276.87 155.64" style="fill: #f7f9fc"/>
                    <polygon points="276.97 155.59 277.86 155.07 278.76 155.6 277.88 156.11 276.97 155.59 276.97 155.59" style="fill: #f7f9fc"/>
                    <polygon points="277.97 155.01 278.85 154.5 279.76 155.02 278.87 155.53 277.97 155.01 277.97 155.01" style="fill: #f7f9fc"/>
                    <polygon points="278.95 154.44 279.84 153.93 280.74 154.46 279.85 154.97 278.95 154.44 278.95 154.44" style="fill: #f7f9fc"/>
                    <polygon points="279.98 153.85 280.87 153.34 281.77 153.86 280.88 154.37 279.98 153.85 279.98 153.85" style="fill: #f7f9fc"/>
                    <polygon points="280.97 153.28 281.85 152.77 282.75 153.29 281.87 153.8 280.97 153.28 280.97 153.28" style="fill: #f7f9fc"/>
                    <polygon points="281.96 152.71 282.85 152.19 283.75 152.72 282.87 153.23 281.96 152.71 281.96 152.71" style="fill: #f7f9fc"/>
                    <polygon points="282.95 152.14 283.83 151.63 284.74 152.15 283.85 152.66 282.95 152.14 282.95 152.14" style="fill: #f7f9fc"/>
                    <polygon points="273.69 157.48 275.87 156.22 276.77 156.75 274.59 158.01 273.69 157.48 273.69 157.48" style="fill: #f7f9fc"/>
                  </g>
                </g>
              </g>
              <g>
                <g style="isolation: isolate">
                  <polygon points="288.44 143 278.74 136.86 278.71 126.37 288.41 132.51 288.44 143" style="fill: #1c2024"/>
                  <polygon points="288.41 132.51 278.71 126.37 283.59 123.54 293.29 129.68 288.41 132.51" style="fill: #29313b"/>
                  <polygon points="293.29 129.68 293.32 140.17 288.44 143 288.41 132.51 293.29 129.68" style="fill: #1a1c1e"/>
                  <polygon points="292.94 131.28 288.79 133.69 288.79 138.43 292.94 136.02 292.94 131.28" style="fill: #0f0f10"/>
                  <polygon points="292.66 131.89 289.07 133.97 289.07 135.73 292.66 133.64 292.66 131.89" style="fill: #1c2024"/>
                </g>
                <g>
                  <polygon points="292.72 137.37 292.72 137.94 292.23 138.23 292.23 137.66 292.72 137.37" style="fill: #29313b"/>
                  <path d="M289.33,139.36c.13-.08.23,0,.23.13a.52.52,0,0,1-.23.4c-.12.07-.23,0-.23-.14A.49.49,0,0,1,289.33,139.36Z" style="fill: #1f2527"/>
                  <g>
                    <polygon points="292.14 137.7 292.15 138.27 291.65 138.56 291.65 137.99 292.14 137.7" style="fill: #29313b"/>
                    <polygon points="291.57 138.03 291.57 138.61 291.08 138.89 291.08 138.32 291.57 138.03" style="fill: #29313b"/>
                    <polygon points="292.14 137.03 292.14 137.6 291.65 137.89 291.65 137.32 292.14 137.03" style="fill: #29313b"/>
                    <polygon points="291 138.37 291 138.94 290.5 139.23 290.5 138.66 291 138.37" style="fill: #29313b"/>
                    <polygon points="291.57 137.37 291.57 137.94 291.08 138.22 291.07 137.66 291.57 137.37" style="fill: #29313b"/>
                    <polygon points="290.42 138.7 290.42 139.27 289.93 139.56 289.93 138.99 290.42 138.7" style="fill: #29313b"/>
                    <polygon points="291 137.7 291 138.27 290.5 138.56 290.5 137.99 291 137.7" style="fill: #29313b"/>
                    <polygon points="290.42 138.03 290.42 138.6 289.93 138.89 289.93 138.32 290.42 138.03" style="fill: #29313b"/>
                    <path d="M289.33,138.64a.14.14,0,0,1,.23.13.49.49,0,0,1-.23.4c-.13.07-.23,0-.23-.13A.49.49,0,0,1,289.33,138.64Z" style="fill: #29313b"/>
                    <path d="M292.94,136.34l-4.15,2.41v1.68l4.15-2.41Zm-3.61,2.3a.14.14,0,0,1,.23.13.49.49,0,0,1-.23.4c-.13.07-.23,0-.23-.13A.49.49,0,0,1,289.33,138.64Zm0,1.25c-.12.07-.23,0-.23-.14a.49.49,0,0,1,.23-.39c.13-.08.23,0,.23.13A.52.52,0,0,1,289.33,139.89Zm.6-1.57.49-.29v.57l-.49.29Zm0,1.24V139l.49-.29v.57Zm.57-1.57.49-.29v.57l-.5.29Zm0,1.24v-.57l.5-.29v.57Zm.57-1.57.5-.29v.57l-.49.28Zm0,1.23v-.57l.49-.28v.57Zm.57-1.57.49-.29v.58l-.49.28Zm0,1.24V138l.5-.29v.57Zm.57-1.57.5-.29v.57l-.49.29Zm0,.67.49-.29v.57l-.49.29Z" style="fill: #29313b"/>
                  </g>
                  <polygon points="292.72 136.7 292.72 137.27 292.23 137.56 292.22 136.99 292.72 136.7" style="fill: #29313b"/>
                </g>
                <g style="isolation: isolate">
                  <g style="isolation: isolate">
                    <path d="M291.39,139.8l-.19-.11a.35.35,0,0,1,.35,0l.19.11a.35.35,0,0,0-.35,0Z" style="fill: #181c1e"/>
                  </g>
                  <g style="isolation: isolate">
                    <path d="M291,141l-.19-.11a.36.36,0,0,1-.14-.32,1.1,1.1,0,0,1,.49-.85l.19.11a1.08,1.08,0,0,0-.49.85.35.35,0,0,0,.14.32Z" style="fill: #181c1e"/>
                  </g>
                  <path d="M291.39,139.8c.27-.16.49,0,.49.28a1.1,1.1,0,0,1-.49.85c-.27.16-.49,0-.49-.28A1.08,1.08,0,0,1,291.39,139.8Z" style="fill: #1c2024"/>
                </g>
              </g>
              <g>
                <g style="isolation: isolate">
                  <g style="clip-path: url(#clip-path)">
                    <g>
                      <path d="M271.2,140.37l-.82-.48a.56.56,0,0,1,.23.27l.81.47a.48.48,0,0,0-.22-.26Z" style="fill: #1c2024"/>
                      <path d="M271.42,140.63l-.81-.47a.91.91,0,0,1,.06.35l.82.47a.78.78,0,0,0-.07-.35Z" style="fill: #1c2024"/>
                      <path d="M271.49,141l-.82-.47v0A2.28,2.28,0,0,1,270,142l.81.48a2.23,2.23,0,0,0,.64-1.46v0Z" style="fill: #1c2024"/>
                      <path d="M270.85,142.47,270,142a1.68,1.68,0,0,1-.34.27l.82.48a1.7,1.7,0,0,0,.33-.27Z" style="fill: #1c2024"/>
                      <path d="M270.52,142.74l-.82-.48,0,0,.82.48,0,0Z" style="fill: #1c2024"/>
                    </g>
                  </g>
                </g>
                <g style="isolation: isolate">
                  <g style="clip-path: url(#clip-path-2)">
                    <path d="M270.49,142.76l-.82-.48a.71.71,0,0,1-.72.07l.82.48a.71.71,0,0,0,.72-.07Z" style="fill: #1c2024"/>
                  </g>
                </g>
                <g style="isolation: isolate">
                  <g style="clip-path: url(#clip-path-3)">
                    <path d="M271.79,138.9l-.82-.47a1.29,1.29,0,0,0-1.31.12l.82.48a1.3,1.3,0,0,1,1.31-.13Z" style="fill: #1c2024"/>
                  </g>
                </g>
                <g style="isolation: isolate">
                  <g style="clip-path: url(#clip-path-4)">
                    <g>
                      <path d="M270.48,139l-.82-.48-.06,0,.82.47.06,0Z" style="fill: #1c2024"/>
                      <path d="M270.42,139.06l-.82-.47a3.45,3.45,0,0,0-.61.49l.82.48a2.85,2.85,0,0,1,.61-.5Z" style="fill: #1c2024"/>
                      <path d="M269.81,139.56l-.82-.48a4.14,4.14,0,0,0-1.18,2.67l.82.48a4.14,4.14,0,0,1,1.18-2.67Z" style="fill: #1c2024"/>
                    </g>
                  </g>
                </g>
                <g>
                  <g style="isolation: isolate">
                    <g style="isolation: isolate">
                      <g style="clip-path: url(#clip-path-5)">
                        <path d="M275.34,147.81v.45a.26.26,0,0,0,.16-.23v-.45a.26.26,0,0,1-.16.23Z" style="fill: #b8bdc6"/>
                      </g>
                    </g>
                    <g style="isolation: isolate">
                      <path id="SVGID-10" data-name="SVGID" d="M263.93,150.32v.45a.29.29,0,0,0,.16.23v-.45A.31.31,0,0,1,263.93,150.32Z" style="fill: #b8bdc6"/>
                      <g style="clip-path: url(#clip-path-6)">
                        <path d="M263.93,150.32v.45a.29.29,0,0,0,.16.23v-.45a.31.31,0,0,1-.16-.23Z" style="fill: #b8bdc6"/>
                      </g>
                    </g>
                    <polygon points="264.09 150.55 264.1 151 266.94 152.66 266.94 152.21 264.09 150.55" style="fill: #b8bdc6"/>
                    <polygon points="267.72 152.21 267.72 152.66 275.34 148.26 275.34 147.81 267.72 152.21" style="fill: #b8bdc6"/>
                    <g style="isolation: isolate">
                      <path id="SVGID-11" data-name="SVGID" d="M266.94,152.21v.45a.83.83,0,0,0,.78,0v-.45A.83.83,0,0,1,266.94,152.21Z" style="fill: #b8bdc6"/>
                      <g style="clip-path: url(#clip-path-7)">
                        <path d="M266.94,152.21v.45a.83.83,0,0,0,.78,0v-.45a.83.83,0,0,1-.78,0Z" style="fill: #b8bdc6"/>
                      </g>
                    </g>
                    <path d="M264.1,150.09c-.22.13-.22.33,0,.46l2.85,1.66a.83.83,0,0,0,.78,0l7.62-4.4a.24.24,0,0,0,0-.45l-2.84-1.67a.91.91,0,0,0-.79,0Z" style="fill: #f7f9fc"/>
                  </g>
                  <g>
                    <polygon points="267.6 139.87 266.59 139.28 266.61 149.53 267.62 150.12 267.6 139.87" style="fill: #1c2024"/>
                    <path d="M272.15,137.23l0,10.25-4.57,2.64,0-10.25a5,5,0,0,1,2.27-3.94C271.11,135.2,272.14,135.79,272.15,137.23Zm-2.28,3.3a2.77,2.77,0,0,0,1.24-2.16c0-.79-.56-1.1-1.25-.71a2.71,2.71,0,0,0-1.24,2.15c0,.79.56,1.11,1.25.72Z" style="fill: #1a1c1e"/>
                  </g>
                </g>
                <path d="M259.45,136.48l17.28-10a.62.62,0,0,1,.61-.06l.86.51a.6.6,0,0,0-.61.06l-.82.47.84.49a.35.35,0,0,1,.15.33l0,10.9.69.4-6.77,3.94.73.42a6.87,6.87,0,0,1-1.82.9c-1,.42-1.85,1-2.79,1.5s-2.05,1-3.06,1.46c-.29.15-.64.3-1,.46v-.18l-4.31,2.46V151a.59.59,0,0,0,.25.54l-.86-.5a.63.63,0,0,1-.25-.55v-1.71l0-10.87A1.89,1.89,0,0,1,259.45,136.48Z" style="fill: #f7f9fc"/>
                <path d="M259.6,137.83a1.93,1.93,0,0,1,.55-.73.91.91,0,0,1,.16-.11l9.89-5.71,6.57-3.8h0l.82-.47c.47-.27.85-.05.86.49l0,10.86v1.71a1.89,1.89,0,0,1-.85,1.48l-17.28,10c-.47.27-.86.05-.86-.49v-1.71l0-6v-4.84A1.63,1.63,0,0,1,259.6,137.83Z" style="fill: #d3dff1"/>
                <polygon points="260.78 138.01 277.29 128.3 277.29 140.58 260.78 150.29 260.78 138.01" style="fill: url(#linear-gradient-4)"/>
                <polygon points="276.34 130.11 267.14 135.42 267.14 140.69 276.34 135.38 276.34 130.11" style="fill: #f7f9fc"/>
                <polygon points="276.34 136.36 267.14 141.67 267.14 142.68 276.34 137.37 276.34 136.36" style="fill: #f7f9fc"/>
                <polygon points="273.88 132.41 270.46 134.37 270.46 134.87 273.88 132.91 273.88 132.41" style="fill: #fcb912"/>
                <polygon points="275.75 132.63 270.49 135.63 270.49 135.95 275.75 132.95 275.75 132.63" style="fill: url(#linear-gradient-5)"/>
                <polygon points="275.75 133.19 270.49 136.18 270.49 136.5 275.75 133.51 275.75 133.19" style="fill: url(#linear-gradient-6)"/>
                <polygon points="275.75 133.72 270.49 136.72 270.49 137.04 275.75 134.04 275.75 133.72" style="fill: url(#linear-gradient-7)"/>
                <polygon points="273.25 135.66 270.49 137.24 270.49 137.56 273.25 135.98 273.25 135.66" style="fill: url(#linear-gradient-8)"/>
                <polygon points="276.34 138.44 267.15 143.75 267.15 144.76 276.34 139.45 276.34 138.44" style="fill: #f7f9fc"/>
                <polygon points="260.78 149.94 276.98 140.41 276.98 128.48 277.29 128.3 277.29 140.58 260.78 150.29 260.78 149.94" style="fill: #b3b2b3"/>
                <g>
                  <path d="M262.81,138.41c.18-.11.34,0,.34.19v2.8a.74.74,0,0,1-.34.57c-.18.11-.33,0-.33-.19v-2.4l-.22.19-.13.1c-.15.09-.28,0-.28-.17a.63.63,0,0,1,.22-.45l.43-.39A2,2,0,0,1,262.81,138.41Z" style="fill: #fff"/>
                  <path d="M266.07,138.69c.15-.09.27,0,.27.16a.57.57,0,0,1-.27.46l-.16.1v.42a.71.71,0,0,1-.32.55c-.18.1-.31,0-.31-.19v-.42l-1.25.72c-.17.1-.32,0-.32-.16a1.09,1.09,0,0,1,.15-.51l1.31-2.51a1.09,1.09,0,0,1,.42-.51c.18-.1.32,0,.32.19v1.79Zm-.8.46v-1.08l-.8,1.54.8-.46" style="fill: #fff"/>
                </g>
                <g>
                  <path d="M263.18,142.24c.1-.06.17,0,.18.1v1.6a.4.4,0,0,1-.18.31.11.11,0,0,1-.18-.1v0a1,1,0,0,1-.39.46c-.3.17-.58.07-.58-.42h0a1.27,1.27,0,0,1,.57-1.08c.19-.11.32-.08.4,0v-.53A.39.39,0,0,1,263.18,142.24Zm-.17,1.37h0c0-.24-.14-.31-.31-.22a.71.71,0,0,0-.31.58h0c0,.24.15.32.31.22a.71.71,0,0,0,.31-.58" style="fill: #fff"/>
                  <path d="M264.86,142.48a.37.37,0,0,1-.17.3l-.71.41c0,.17.15.2.3.11a.78.78,0,0,0,.26-.25l.09-.08c.08-.05.14,0,.14.08l0,.15a1.47,1.47,0,0,1-.43.43c-.39.22-.67.07-.67-.37h0a1.36,1.36,0,0,1,.62-1.12C264.66,141.9,264.86,142.18,264.86,142.48Zm-.89.46.54-.32c0-.17-.11-.24-.27-.15a.64.64,0,0,0-.27.47" style="fill: #fff"/>
                  <path d="M266,141.16c.1-.06.18,0,.18.06h0a.51.51,0,0,1-.09.25l-.58,1.08.52-.3c.08,0,.15,0,.15.08a.31.31,0,0,1-.15.26l-.8.46c-.1.06-.18,0-.18-.07h0a.45.45,0,0,1,.08-.25l.59-1.09-.5.29c-.08.05-.15,0-.15-.08a.31.31,0,0,1,.15-.25Z" style="fill: #fff"/>
                </g>
                <g>
                  <path d="M269.55,137.43a.36.36,0,0,1-.16.33L269,138v.82a.34.34,0,0,1-.16.29l-.22.12c-.09,0-.16,0-.16-.09v-.82l-.38.22c-.11.06-.19,0-.16-.14l.32-1.71a.39.39,0,0,1,.16-.23l.08-.05a.73.73,0,0,0,.26-.09,1.46,1.46,0,0,0,.25-.2l.07,0c.07,0,.15,0,.16,0Z" style="fill: #fcb912"/>
                  <path d="M268.72,136.11c-.24.14-.44,0-.44-.25a1,1,0,0,1,.44-.76c.24-.14.44,0,.44.25A1,1,0,0,1,268.72,136.11Z" style="fill: #fcb912"/>
                </g>
              </g>
              <g>
                <g style="isolation: isolate">
                  <polygon points="245.47 158.01 245.47 158.15 253.02 162.56 253.02 162.43 245.47 158.01" style="fill: #d6dfe8"/>
                  <polygon points="253.02 162.43 253.02 162.56 258.75 159.24 258.75 159.1 253.02 162.43" style="fill: #d6dfe8"/>
                  <polygon points="245.47 158.01 253.02 162.43 258.75 159.1 251.2 154.69 245.47 158.01" style="fill: #eaeaea"/>
                </g>
                <g style="isolation: isolate">
                  <polygon points="240.49 157.54 240.49 157.68 248.04 162.09 248.04 161.95 240.49 157.54" style="fill: #d6dfe8"/>
                  <polygon points="248.04 161.95 248.04 162.09 253.78 158.76 253.78 158.63 248.04 161.95" style="fill: #d6dfe8"/>
                  <polygon points="240.49 157.54 248.04 161.95 253.78 158.63 246.22 154.22 240.49 157.54" style="fill: #eaeaea"/>
                </g>
                <g style="isolation: isolate">
                  <polygon points="245.47 157.54 245.47 157.68 253.02 162.09 253.02 161.95 245.47 157.54" style="fill: #d6dfe8"/>
                  <polygon points="253.02 161.95 253.02 162.09 258.75 158.76 258.75 158.62 253.02 161.95" style="fill: #d6dfe8"/>
                  <polygon points="245.47 157.54 253.02 161.95 258.75 158.62 251.2 154.21 245.47 157.54" style="fill: #f3f4f1"/>
                </g>
                <g>
                  <g style="isolation: isolate">
                    <polygon points="241.64 157.22 241.64 157.63 249.2 162.04 249.19 161.63 241.64 157.22" style="fill: #ec9e21"/>
                    <polygon points="249.19 161.63 249.2 162.04 254.93 158.72 254.92 158.31 249.19 161.63" style="fill: #d29229"/>
                    <polygon points="241.64 157.22 249.19 161.63 254.92 158.31 247.37 153.9 241.64 157.22" style="fill: #9a6c29"/>
                  </g>
                  <g style="isolation: isolate">
                    <polygon points="240.49 157.54 240.49 157.68 248.04 162.09 248.04 161.95 240.49 157.54" style="fill: #d6dfe8"/>
                    <polygon points="248.04 161.95 248.04 162.09 253.78 158.76 253.78 158.63 248.04 161.95" style="fill: #d6dfe8"/>
                    <polygon points="240.49 157.54 248.04 161.95 253.78 158.63 246.22 154.22 240.49 157.54" style="fill: #eaeaea"/>
                  </g>
                  <g style="isolation: isolate">
                    <polygon points="241.38 157.44 241.39 157.57 248.94 161.99 248.94 161.85 241.38 157.44" style="fill: #d6dfe8"/>
                    <polygon points="248.94 161.85 248.94 161.99 254.67 158.66 254.67 158.52 248.94 161.85" style="fill: #d6dfe8"/>
                    <polygon points="241.38 157.44 248.94 161.85 254.67 158.52 247.12 154.11 241.38 157.44" style="fill: #e2e2e2"/>
                  </g>
                  <g style="isolation: isolate">
                    <polygon points="240.48 156.5 240.48 156.64 248.04 161.05 248.04 160.91 240.48 156.5" style="fill: #d6dfe8"/>
                    <polygon points="248.04 160.91 248.04 161.05 253.77 157.72 253.77 157.59 248.04 160.91" style="fill: #d6dfe8"/>
                    <polygon points="240.48 156.5 248.04 160.91 253.77 157.59 246.21 153.17 240.48 156.5" style="fill: #f3f4f1"/>
                  </g>
                  <g style="isolation: isolate">
                    <polygon points="241.64 156.44 241.64 156.85 249.2 161.26 249.19 160.85 241.64 156.44" style="fill: #ec9e21"/>
                    <polygon points="249.19 160.85 249.2 161.26 254.62 158.12 254.62 158.52 254.93 158.72 254.93 157.94 254.92 157.53 249.19 160.85" style="fill: #d29229"/>
                    <polygon points="241.64 156.44 249.19 160.85 254.92 157.53 247.37 153.12 241.64 156.44" style="fill: #fcb912"/>
                  </g>
                </g>
              </g>
              <g>
                <g>
                  <path d="M291.29,180s.67,2.27-.06,3.07a2.94,2.94,0,0,1-2.11.08c-.66-.15-1.38-.55-2.05-.64a5.74,5.74,0,0,1-3.91-2.39c-1.72-2.28,1.4-1.6,3.45-.88A16.56,16.56,0,0,0,291.29,180Z" style="fill: #0f0f10"/>
                  <path d="M291.29,179.46s.67,2.27-.06,3.08a3,3,0,0,1-2.11.07c-.66-.14-1.38-.54-2.05-.64a5.69,5.69,0,0,1-3.91-2.38c-1.72-2.28,1.4-1.6,3.45-.88A16.36,16.36,0,0,0,291.29,179.46Z" style="fill: #15171c"/>
                  <path d="M286.08,170.06l0,7.87v1.81a6.31,6.31,0,0,0,.73.6,6.85,6.85,0,0,0,2.52,1.06,3,3,0,0,0,2-.94l0-10.4Z" style="fill: #111216"/>
                </g>
                <g>
                  <g>
                    <g>
                      <polygon points="295.01 178.84 297.16 194.56 296.25 194.04 294.17 178.84 295.01 178.84" style="fill: #0f0f10"/>
                      <polygon points="284.21 174.73 285.2 174.73 283.22 186.92 282.31 186.4 284.21 174.73" style="fill: #0f0f10"/>
                    </g>
                    <polygon points="295.84 178.84 297.93 194.12 297.16 194.56 295.01 178.84 295.84 178.84" style="fill: #29313b"/>
                    <polygon points="285.2 174.73 285.9 174.73 283.99 186.47 283.22 186.92 285.2 174.73" style="fill: #29313b"/>
                    <polygon points="306.42 174.07 308.35 188.12 307.44 187.6 305.59 174.07 306.42 174.07" style="fill: #0f0f10"/>
                    <polygon points="307.26 174.07 309.12 187.67 308.35 188.12 306.42 174.07 307.26 174.07" style="fill: #29313b"/>
                  </g>
                  <g style="isolation: isolate">
                    <path d="M303,171.28l2.06,1.19,2.75.1v2h0a.74.74,0,0,1-.38.59l-11.59,6.69-.95.55a.8.8,0,0,1-.79,0l-1.44-.84V171.28Z" style="fill: #0f0f10"/>
                    <path d="M298.21,166.43a.75.75,0,0,0,.25.22l9,5.23a.8.8,0,0,1,0,1.37l-12.54,7.24a.77.77,0,0,1-.79,0L284,174.62Z" style="fill: #29313b"/>
                    <path d="M284,174.6v1.93c.14.1,9.64,5.63,9.64,5.63v-1.94h0Z" style="fill: #0f0f10"/>
                  </g>
                </g>
                <g>
                  <path d="M271.73,184.48a5.71,5.71,0,0,0,3.91,2.39c.66.09,1.38.49,2.05.64a3,3,0,0,0,2.11-.08,1.58,1.58,0,0,0,.33-.94,7.1,7.1,0,0,0-.28-2.13,16.2,16.2,0,0,1-4.68-.76,14.52,14.52,0,0,0-1.54-.46C271.93,182.72,270.41,182.74,271.73,184.48Z" style="fill: #0f0f10"/>
                  <path d="M271.73,184a5.68,5.68,0,0,0,3.91,2.39c.66.09,1.38.5,2.05.64a3,3,0,0,0,2.11-.07,1.64,1.64,0,0,0,.33-.95,7.16,7.16,0,0,0-.28-2.13,16.2,16.2,0,0,1-4.68-.76,14.52,14.52,0,0,0-1.54-.46C271.93,182.23,270.41,182.25,271.73,184Z" style="fill: #15171c"/>
                  <path d="M273.63,182.65a2.94,2.94,0,0,0,.44,1.22,2.81,2.81,0,0,0,.52.62,4.13,4.13,0,0,0,1.34.72,9.17,9.17,0,0,0,4.2.79,7.16,7.16,0,0,0-.28-2.13,16.2,16.2,0,0,1-4.68-.76A14.52,14.52,0,0,0,273.63,182.65Z" style="fill: #121416;opacity: 0.4;mix-blend-mode: multiply"/>
                  <g>
                    <path d="M286.21,164.4a5.8,5.8,0,0,1,5.26,0l11.24,5.25a43.5,43.5,0,0,0-6.24,3.77l-10.28-6C284.75,166.59,284.75,165.23,286.21,164.4Z" style="fill: #111216"/>
                    <path d="M282.05,171.15l2.28,1.57,1.65,1.13c2.12,1.43,4.55,3.06,5.83,3.83l0,0a5.46,5.46,0,0,0,5.91-.07c1.12-.87,1.62-2.33.8-4.24l-6.05-2.83-5.18-2.42a13.23,13.23,0,0,0-1.7-.72,18.56,18.56,0,0,0-2.84.37h0a5.1,5.1,0,0,0-.71.32,3,3,0,0,0-.55.39,1.74,1.74,0,0,0-.49.76C280.82,169.92,281.16,170.63,282.05,171.15Z" style="fill: #16181d"/>
                  </g>
                  <path d="M303.49,171.05l-11.5-6.4a18.88,18.88,0,0,0-7.49,9c.19.13,6.9,4.05,8.16,4.83,2.82,1.36,3.66.22,5.1-.9a3.22,3.22,0,0,0,1-3.8A33.08,33.08,0,0,1,303.49,171.05Z" style="fill: #eaf0f4"/>
                  <path d="M285.81,167.49a16.25,16.25,0,0,0-3-.77,2.88,2.88,0,0,0-1.48.36,2.11,2.11,0,0,0-.7.56,4.82,4.82,0,0,0-.91,1.85l-4.49,13.93-.07.22a4.29,4.29,0,0,0,2.11,1.79,5,5,0,0,0,3.3,0l4.08-12.74.62-3.22C285.64,168.3,286.31,167.84,285.81,167.49Z" style="fill: #16181d"/>
                  <path d="M291.85,177.7c2.16,1.4,6.23,1.11,8.76-.29l.36-.21.13-.09c1-.67,1.57-1.54,1.78-3.53a11.88,11.88,0,0,0-.2-3H292.21l-.31,6.14Z" style="fill: #eaf0f4"/>
                  <g>
                    <g>
                      <path d="M285.64,150c.14-.37.83-.47,1-.5l1.45-.18,1.48.48,1,1.51-.89.42a1.47,1.47,0,0,1-.59-.12l-1.47,1.09a.39.39,0,0,1-.55-.08.4.4,0,0,1,.08-.55l.61-.45c-.83,0-1.87.1-2.07.09C285.17,151.7,285.55,150.27,285.64,150Z" style="fill: #fbc79f"/>
                      <path d="M288.32,152.94h0c.37,0,8.1.56,10.73-.68a1.73,1.73,0,0,0,.81-.73s-.48-.49-.83-.92-.84-1-.91-1v-1.51l-1.82.21-1,.11-.3,0-6.07.7a15.74,15.74,0,0,0-.62,3.27A3.92,3.92,0,0,0,288.32,152.94Z" style="fill: #eaf0f4"/>
                      <path d="M293.19,152.52h0c.38,0,8.11.56,10.73-.68a1.69,1.69,0,0,0,.81-.74s.14-2.12-.73-2.88a3.12,3.12,0,0,0-2.82-.38l-1,.11-.3,0-6.07.7a15.74,15.74,0,0,0-.62,3.27C293.21,152.28,293.19,152.5,293.19,152.52Z" style="fill: #16181d"/>
                      <path d="M295,146.41v.26l.05,2.3a3.28,3.28,0,0,0,.54.63h0l.17,0c1.68-.18,3.77-.54,3.76-1.77l0,0-.09-1.76-.21,0-3,.27Z" style="fill: #fbc79f"/>
                      <path d="M293.47,144.88a3.67,3.67,0,0,0,1.55,1.79l.05,2.3a3.28,3.28,0,0,0,.54.63h0l.17,0a2.55,2.55,0,0,0,0-.39c0-.53-.12-1.06-.1-1.59a2.15,2.15,0,0,1,.13-.66,1.43,1.43,0,0,1,.43-.64l.11-.08a1.78,1.78,0,0,1-1.92-.53,4.14,4.14,0,0,1-.87-1.9,12.3,12.3,0,0,1,0-5.5l-.15-.74-.4.48a15.22,15.22,0,0,1,0,3.44A8,8,0,0,0,293.47,144.88Z" style="fill: #f4c1a5"/>
                      <path d="M300.11,147.5a10.14,10.14,0,0,1,.11,2.93c-.08.95-.24-.4-1.12,0a4.92,4.92,0,0,1-2.82.15,1.77,1.77,0,0,1-1.14-.55c-.37-.39-.37-2,0-2a13.54,13.54,0,0,1,1.42,0,5.29,5.29,0,0,0,2.3-.39C299.35,147.45,299.55,147,300.11,147.5Z" style="fill: #d6e1e7"/>
                      <path d="M290.26,164.36c0,2.23-.3,8.4-.42,10.35a1.06,1.06,0,0,0,.49.95,7.33,7.33,0,0,0,2.73,1,13.42,13.42,0,0,0,1.4.17,24,24,0,0,0,5.93-.24,8.4,8.4,0,0,0,3.83-1.63,1.09,1.09,0,0,0,.41-.82h0c.05-2.11-1.07-7.93-1.07-10.2,0-3.89,1.39-10.42,1.3-12.59-.09-1.82-.74-4-4.7-3.53L295,149c-1.08.61-5.62,1.42-6.05,4,0,0,.15,1,.35,2.36.3,2.06.72,5.06.91,7.2C290.22,163.31,290.26,163.91,290.26,164.36Z" style="fill: #eaf0f4"/>
                      <path d="M293.47,144.88a3.67,3.67,0,0,0,1.55,1.79,2.69,2.69,0,0,0,.83.27l.16,0a1.38,1.38,0,0,0,.8-.13c.48-.24,2.23.07,2.41-.45a1.28,1.28,0,0,0,.08-.35c.2-1.33-.72-3.32-.93-4.57a5.35,5.35,0,0,0-1.8-3A7.32,7.32,0,0,0,294,137l-.48.59-.4.48a15.22,15.22,0,0,1,0,3.44A8,8,0,0,0,293.47,144.88Z" style="fill: #fbc79f"/>
                      <path d="M292.43,137.75c.09.7.69.65,1.06,1.25s.44,1.3.86,2c.16.26.24.87,1,.45,1.05-.61.38,4,2.31,5a3.35,3.35,0,0,0,1.6-.05,1,1,0,0,0,.53-.37l0,0a21.62,21.62,0,0,0,3-3.43,6.85,6.85,0,0,0,.44-2.82,4.51,4.51,0,0,0-1-2.35,5.09,5.09,0,0,0-1.84-1.7,7.81,7.81,0,0,0-4.5-.63l-.58.1c-.33.07-.67.16-1,.26l-.43.23c-1.41.78-1.39,1.59-1.4,1.65A3.4,3.4,0,0,0,292.43,137.75Z" style="fill: #2b130d"/>
                      <path d="M295.31,141.44a.9.9,0,1,0,1.35,1.05.89.89,0,1,0-1.35-1.05Z" style="fill: #fbc79f"/>
                    </g>
                    <path d="M289.84,174.71a1.06,1.06,0,0,0,.49.95,7.33,7.33,0,0,0,2.73,1,12.66,12.66,0,0,0-1-2.57,5.67,5.67,0,0,1,.76-4.75,17.12,17.12,0,0,1,3.39-3.62,5.74,5.74,0,0,1-4,.2c0-1.88-1.25-4.5-.43-6.19-.47.15,3.71-3.38,2.61-6.83-.36-1.12-3.56,1.21-5.12,2.51.3,2.06.72,5.06.91,7.2.06.68.1,1.28.1,1.73C290.29,166.59,290,172.76,289.84,174.71Z" style="fill: #eaf0f4;opacity: 0.6000000000000001;mix-blend-mode: multiply"/>
                    <path d="M302.45,140.14a6.19,6.19,0,0,1-2.11,5,1.52,1.52,0,0,0-.54.67.27.27,0,0,0,0,.13,21.62,21.62,0,0,0,3-3.43,6.85,6.85,0,0,0,.44-2.82,4.51,4.51,0,0,0-1-2.35,5.09,5.09,0,0,0-1.84-1.7,7.81,7.81,0,0,0-4.5-.63,10.57,10.57,0,0,1,3.52.65A5.43,5.43,0,0,1,302.45,140.14Z" style="fill: #2b130d;opacity: 0.30000000000000004;mix-blend-mode: screen"/>
                    <path d="M283.58,162.18a2,2,0,0,0,.64.77,2.89,2.89,0,0,0,2.16.72h.06l7.37-7.49h0a3.75,3.75,0,0,0-.47-4.87,3.53,3.53,0,0,0-1.11-.59,2.43,2.43,0,0,0-2.63,1.08l-5,6.44-.28.36L284,159l0,.06-.35.45v0a4.17,4.17,0,0,0-.05,2.7Z" style="fill: #fff"/>
                    <g>
                      <path d="M277.92,157.24a.43.43,0,0,0,.61.1h0a.43.43,0,0,0,.1-.6l-1.39-1.94a.42.42,0,0,0-.6-.1h0a.43.43,0,0,0-.11.6Z" style="fill: #fbc79f"/>
                      <path d="M278.81,157.31l-1.27-1.58-1.3-.94c-.14-.08-.76-.51-1.15-.32s-1.65,1-1.26,1.41,2.66,2.24,2.66,2.24c.14.15.4.74.55.79l1,.32Z" style="fill: #fbc79f"/>
                    </g>
                    <path d="M275.92,158.68h0c.3.23,6.54,4.81,9.42,5.17a1.71,1.71,0,0,0,1.08-.19s-.14-.67-.21-1.21-.18-1.29-.21-1.37l.81-1.28-1.64-.79-.87-.42-.28-.13-5.5-2.66a15.36,15.36,0,0,0-2.27,2.44C276.06,158.49,275.93,158.66,275.92,158.68Z" style="fill: #fff"/>
                    <path d="M284,159a7.86,7.86,0,0,0,.11,1.19,5.48,5.48,0,0,0,.38-1.33c.27.29.56.58.86.85.11.1.27.21.41.14l-.6-.79-.59-.78-.28.36-.28-.13C284,158.62,284,158.78,284,159Z" style="fill: #eaf0f4;opacity: 0.6000000000000001;mix-blend-mode: multiply"/>
                    <path d="M275.92,158.68h0c.3.23,6.54,4.81,9.42,5.17a1.71,1.71,0,0,0,1.08-.19l7.37-7.49h0a3.75,3.75,0,0,0-.47-4.87,3.41,3.41,0,0,1,.52,1.51,3.49,3.49,0,0,1-.31,1.3,12.12,12.12,0,0,1-1.75,3.46,13.19,13.19,0,0,1-1.3,1.29l-3.22,2.86a3.74,3.74,0,0,1-1,.7l-.07,0a3.22,3.22,0,0,1-1.87,0q-.39-.1-.78-.24c-2.59-.93-4.77-2.93-7.31-3.94C276.06,158.49,275.93,158.66,275.92,158.68Z" style="fill: #eaf0f4;opacity: 0.6000000000000001;mix-blend-mode: multiply"/>
                  </g>
                </g>
                <path d="M308.56,154.19a.8.8,0,0,0-1.18-.58L298,158.79a.79.79,0,0,0-.39.74l-.51,3.33h11.58Z" style="fill: #151515"/>
                <polygon points="309.17 154.52 308.26 153.68 306.94 154.44 308.21 155.2 309.17 154.52" style="fill: #151515"/>
                <polygon points="297.65 159.27 293.43 180.51 294.71 181.51 307.88 167.42 308.69 162.86 297.65 159.27" style="fill: #0f0f10"/>
                <path d="M294.93,180.71s2.66-14.65,3.6-20.08a1.53,1.53,0,0,1,.48-.94l9.37-5.17a.79.79,0,0,1,1.18.57l-1.71,18.06S295,181,294.93,180.71Z" style="fill: #1a1c1e"/>
              </g>
            </g>
          </g>
        </g>
        <g>
          <g>
            <g style="mix-blend-mode: multiply">
              <path d="M164.7,197.47l-47.59-27.88a6,6,0,0,0-5.45,0l-57,33.35c-1.5.87-1.49,2.28,0,3.16L102.26,234a6,6,0,0,0,5.45,0l57-33.35C166.21,199.75,166.21,198.34,164.7,197.47Z" style="fill: url(#linear-gradient-9)"/>
            </g>
            <g style="isolation: isolate">
              <path d="M164.7,172.28l-47.59-27.87a6,6,0,0,0-5.45,0l-57,33.34c-1.5.88-1.49,2.29,0,3.16l47.58,27.88a6,6,0,0,0,5.45,0l57-33.35C166.21,174.57,166.21,173.16,164.7,172.28Z" style="fill: #b8e3f0"/>
              <path d="M164.71,175.44l-57,33.35a6,6,0,0,1-5.45,0L54.68,180.91a1.93,1.93,0,0,1-1.14-1.59v3.6a1.94,1.94,0,0,0,1.14,1.59l47.58,27.87a6,6,0,0,0,5.45,0l57-33.35a1.9,1.9,0,0,0,1.12-1.56v-3.6A1.9,1.9,0,0,1,164.71,175.44Z" style="fill: #95d4ec"/>
            </g>
          </g>
          <g>
            <g style="isolation: isolate">
              <g>
                <path id="SVGID-12" data-name="SVGID" d="M116,75.71l4.39,2.55a2.14,2.14,0,0,0-2.15.21l-4.39-2.55A2.12,2.12,0,0,1,116,75.71Z" style="fill: #fafbfb"/>
                <g style="clip-path: url(#clip-path-8)">
                  <g style="isolation: isolate">
                    <path d="M118.28,78.47l-4.39-2.55a3,3,0,0,1,.91-.37l4.39,2.55a3.35,3.35,0,0,0-.91.37Z" style="fill: #fafbfb"/>
                    <path d="M119.19,78.1l-4.39-2.55a1.78,1.78,0,0,1,1.18.13l4.39,2.55a1.78,1.78,0,0,0-1.18-.13Z" style="fill: #fafbfb"/>
                    <path d="M120.37,78.23,116,75.68l.06,0,4.39,2.55-.06,0Z" style="fill: #fafbfb"/>
                  </g>
                </g>
              </g>
              <polygon points="86.25 96.96 81.86 94.41 113.89 75.92 118.28 78.47 86.25 96.96" style="fill: #fff"/>
              <g>
                <path id="SVGID-13" data-name="SVGID" d="M83.24,102.18l-4.39-2.56a6.64,6.64,0,0,1,3-5.21L86.25,97A6.66,6.66,0,0,0,83.24,102.18Z" style="fill: url(#linear-gradient)"/>
                <g style="clip-path: url(#clip-path-9)">
                  <path d="M81.86,94.41a5.3,5.3,0,0,0-1.46,1.28,7,7,0,0,0-1,1.65,5.69,5.69,0,0,0-.53,2.28l4.39,2.56a5.65,5.65,0,0,1,.53-2.28,7.4,7.4,0,0,1,1-1.66A5.47,5.47,0,0,1,86.25,97Z" style="fill: #cbd2db"/>
                </g>
              </g>
              <g>
                <path d="M121.52,157.13a6.66,6.66,0,0,1-3,5.21l-32,18.49c-1.66,1-3,.19-3-1.72l0-2.45,38.08-22Z" style="fill: #f0f4fa"/>
                <polygon points="83.25 105.37 83.43 176.66 121.51 154.68 121.43 125.98 121.35 94.73 121.32 83.39 83.25 105.37" style="fill: url(#linear-gradient-11)"/>
                <path d="M83.24,102.18a6.66,6.66,0,0,1,3-5.22l32-18.49c1.66-1,3-.18,3,1.73v3.19l-38.07,22Z" style="fill: #f0f4fa"/>
              </g>
            </g>
            <g>
              <path d="M91.44,90.66a.91.91,0,0,0,.52.7,2.9,2.9,0,0,0,2.6,0A1.08,1.08,0,0,0,95,91c.28-.4.16-.85-.39-1.17a2.9,2.9,0,0,0-2.6,0A.82.82,0,0,0,91.44,90.66Z" style="fill: url(#linear-gradient-12)"/>
              <path d="M91.44,90.66a.91.91,0,0,0,.52.7,2.9,2.9,0,0,0,2.6,0A1.08,1.08,0,0,0,95,91a.93.93,0,0,0-.53-.71,2.9,2.9,0,0,0-2.6,0A1.16,1.16,0,0,0,91.44,90.66Z" style="fill: #141d30"/>
            </g>
            <g>
              <path d="M84.85,94.71a.9.9,0,0,0,.4.4,2.55,2.55,0,0,0,2.37,0l2.53-1.49a1,1,0,0,0,.38-.36c.22-.36.09-.76-.39-1a2.57,2.57,0,0,0-2.38,0l-2.5,1.51C84.79,94,84.65,94.38,84.85,94.71Z" style="fill: url(#linear-gradient-13)"/>
              <path d="M84.85,94.71a.9.9,0,0,0,.4.4,2.55,2.55,0,0,0,2.37,0l2.53-1.49a1,1,0,0,0,.38-.36.87.87,0,0,0-.41-.42,2.57,2.57,0,0,0-2.38,0l-2.5,1.51A.9.9,0,0,0,84.85,94.71Z" style="fill: #141d30"/>
            </g>
            <path d="M106.67,89.88,95,96.62c-.5.29-.92.06-.92-.53h0A2,2,0,0,1,95,94.51l11.68-6.74c.5-.29.91-.06.91.53h0A2,2,0,0,1,106.67,89.88Z" style="fill: url(#linear-gradient-14)"/>
            <g>
              <path d="M83.45,179.11a2.12,2.12,0,0,0,.88,1.93l-4.39-2.55a2.13,2.13,0,0,1-.88-1.94l0-2.21,4.39,2.54Z" style="fill: #cbd2db"/>
              <polygon points="78.85 99.62 83.24 102.18 83.25 105.37 78.86 102.83 78.85 99.62" style="fill: #cbd2db"/>
              <polygon points="83.25 105.37 83.44 176.88 79.04 174.34 78.86 102.83 83.25 105.37" style="fill: #cbd2db"/>
              <polygon points="80.99 104.07 83.25 105.37 83.44 176.88 80.99 175.47 80.99 104.07" style="fill: url(#linear-gradient-15)"/>
            </g>
          </g>
          <g>
            <g>
              <g style="opacity: 0.9;mix-blend-mode: screen">
                <g style="opacity: 0.4">
                  <polygon points="116.89 91.16 116.89 144.47 44.05 187.31 44.05 133.99 116.89 91.16" style="fill: #89d6f2"/>
                </g>
              </g>
              <path d="M117.69,89.75v55.19L43.25,188.71V133.53l74.44-43.78Zm.59-1-.89.53L43,133l-.3.17v56.57l.89-.52L118,145.46l.29-.18V88.71Z" style="fill: #89d6f2"/>
            </g>
            <polygon points="67.3 126.72 67.3 145.09 48.84 155.82 48.84 137.46 67.3 126.72" style="fill: #89d6f2;opacity: 0.8"/>
            <polygon points="67.3 150.02 67.3 168.38 48.84 179.12 48.84 160.76 67.3 150.02" style="fill: url(#linear-gradient-16)"/>
            <polygon points="88.92 114.16 88.92 132.53 70.46 143.26 70.46 124.9 88.92 114.16" style="fill: #89d6f2;opacity: 0.8"/>
            <polygon points="110.94 101.81 110.94 106.26 93.44 116.43 93.44 111.99 110.94 101.81" style="fill: #89d6f2;opacity: 0.8"/>
            <polygon points="110.94 109.18 110.94 113.62 93.44 123.8 93.44 119.36 110.94 109.18" style="fill: url(#linear-gradient-17)"/>
            <polygon points="110.94 116.55 110.94 120.99 93.44 131.16 93.44 126.72 110.94 116.55" style="fill: #89d6f2;opacity: 0.8"/>
            <polygon points="88.92 137.46 88.92 155.82 70.46 166.56 70.46 148.19 88.92 137.46" style="fill: #89d6f2;opacity: 0.8"/>
            <g style="opacity: 0.6000000000000001">
              <g>
                <path d="M76.68,149.48c.45-.26.82,0,.82.47l0,7a1.84,1.84,0,0,1-.82,1.43c-.45.26-.82.05-.83-.47v-6l-.58.51a1.91,1.91,0,0,1-.3.22c-.39.23-.73,0-.73-.4a1.66,1.66,0,0,1,.56-1.14l1.07-1a4.69,4.69,0,0,1,.78-.61Z" style="fill: #00709e"/>
                <path d="M83.66,145.57c.4-.23.74,0,.74.42a1.62,1.62,0,0,1-.73,1.26l-2.56,1.47L81,150.28a5.07,5.07,0,0,1,1-.73c1.49-.86,2.65-.71,2.66,1.25a5.6,5.6,0,0,1-2.82,4.67,3.17,3.17,0,0,1-2.38.55c-.2-.05-.34-.22-.34-.54a1.79,1.79,0,0,1,.79-1.38.52.52,0,0,1,.45-.08,1.89,1.89,0,0,0,1.44-.27,2.33,2.33,0,0,0,1.22-1.91v0c0-.74-.56-.86-1.34-.41a10.86,10.86,0,0,0-1.15.89.89.89,0,0,1-.76.05c-.23-.05-.32-.26-.3-.6l.14-3a1.62,1.62,0,0,1,.73-1.24Z" style="fill: #00709e"/>
              </g>
            </g>
            <g style="opacity: 0.6000000000000001">
              <g>
                <path d="M55.06,139.1c.46-.26.83-.06.83.46l0,7a1.8,1.8,0,0,1-.82,1.41c-.46.26-.83.06-.83-.46l0-6-.58.51-.29.22c-.39.22-.72,0-.72-.4a1.64,1.64,0,0,1,.54-1.14l1.08-1a4.68,4.68,0,0,1,.77-.61Z" style="fill: #00709e"/>
                <path d="M60.33,136.06c1.57-.91,2.61-.45,2.61,1.18,0,1.47-.64,2.56-2,4.53l-1.23,1.81,2.63-1.52c.41-.24.73-.05.73.41a1.57,1.57,0,0,1-.72,1.24l-4.11,2.37c-.52.3-.9.19-.9-.38a2.23,2.23,0,0,1,.43-1.21l2.14-3.27c.94-1.43,1.31-2.12,1.3-2.84s-.42-.89-1-.55A3.41,3.41,0,0,0,59,139.3a1.58,1.58,0,0,1-.56.6c-.43.24-.77,0-.77-.43a1.66,1.66,0,0,1,.2-.71A6.18,6.18,0,0,1,60.33,136.06Z" style="fill: #00709e"/>
              </g>
            </g>
            <g style="opacity: 0.6000000000000001">
              <g>
                <path d="M76.73,126.44c.45-.26.82,0,.82.47l0,7a1.8,1.8,0,0,1-.82,1.42c-.46.26-.82,0-.82-.47l0-6-.59.52a1.7,1.7,0,0,1-.28.21c-.39.23-.73,0-.73-.4a1.63,1.63,0,0,1,.55-1.14l1.07-1a5.9,5.9,0,0,1,.77-.61Z" style="fill: #00709e"/>
                <path d="M83.73,122.52c.49-.28.85-.16.85.36a2.59,2.59,0,0,1-.5,1.36l-1.47,2.48c1-.4,2-.35,2,1.26a5.32,5.32,0,0,1-2.72,4.44,2.87,2.87,0,0,1-2.51.46.55.55,0,0,1-.28-.53,1.82,1.82,0,0,1,.79-1.38.59.59,0,0,1,.53-.07,1.58,1.58,0,0,0,1.49-.21A2.07,2.07,0,0,0,83,129c0-.74-.56-.81-1.49-.28l-.26.15c-.39.23-.72,0-.72-.4a2,2,0,0,1,.36-1L82.38,125l-2.33,1.34c-.39.22-.71,0-.71-.41a1.57,1.57,0,0,1,.71-1.23Z" style="fill: #00709e"/>
              </g>
            </g>
            <g>
              <path d="M54.72,162.33c.45-.26.82-.05.82.47l0,7a1.78,1.78,0,0,1-.82,1.42c-.45.26-.81.05-.82-.47v-6l-.59.52a1.94,1.94,0,0,1-.29.21c-.39.23-.73.05-.73-.4a1.65,1.65,0,0,1,.55-1.13l1.07-1a4.21,4.21,0,0,1,.78-.61Z" style="fill: #fff"/>
              <path d="M62.85,163c.38-.22.68,0,.68.39a1.45,1.45,0,0,1-.68,1.16l-.4.23v1.05a1.68,1.68,0,0,1-.79,1.36c-.45.26-.79.07-.8-.44v-1l-3.11,1.8c-.45.25-.82.1-.82-.41a2.75,2.75,0,0,1,.39-1.27l3.27-6.29a2.65,2.65,0,0,1,1-1.24c.44-.26.8-.07.8.45l0,4.49Zm-2,1.15v-2.71l-2,3.87,2-1.16" style="fill: #fff"/>
            </g>
            <g>
              <path d="M112.72,127.91v12.28a1.12,1.12,0,0,1-.55,1l-16.42,9.65a1.13,1.13,0,0,1-1.7-1V137.56a1.12,1.12,0,0,1,.55-1L111,126.94A1.12,1.12,0,0,1,112.72,127.91Z" style="fill: url(#linear-gradient-18)"/>
              <path d="M104.18,133.17a.35.35,0,0,1,.36,0l4.11,2.34c.2.11.2.49,0,.83l-4.09,7.09a1,1,0,0,1-.36.37.35.35,0,0,1-.36,0l-.47-.27c-.2-.11-.2-.5,0-.84l2.54-4.26-6.08,3.51c-.28.16-.5,0-.5-.29v-.78a1.1,1.1,0,0,1,.5-.87l6.07-3.51-2.55-1.31c-.21-.11-.22-.48,0-.83l.46-.81A1,1,0,0,1,104.18,133.17Z" style="fill: #fff"/>
            </g>
          </g>
          <g>
            <path d="M116.84,179.59l.25.51c2-1.58,8-.42,8.19,2.56.22,4.86-8.49,4.51-11.47,4.36-2.49-.13-6-.78-3.83-4.11C111.14,181.1,115,180.66,116.84,179.59Z" style="fill: #015866;opacity: 0.1"/>
            <path d="M102.85,141l.19.31a7.48,7.48,0,0,0,1.55.71c.45-.05.13-.76.2-1.1a.43.43,0,0,1,.41-.33s.13.47.23.72.43.84.43.84l.13,1.22.76.71-1,1.15-.88-.59s-1.52-.73-1.67-1.1S102,141.14,102.85,141Z" style="fill: #f7c3b7"/>
            <g>
              <path d="M123.85,132.89s.61,4.19,1.74,11.33c.27,1.71-3.13,2.8-3.13,2.8l.07-4.6Z" style="fill: #ffde73"/>
              <path d="M123.33,136.63a43.44,43.44,0,0,0,1.77,8.87,7.39,7.39,0,0,1-2.64,1.52l.07-4.6Z" style="opacity: 0.05"/>
              <path d="M111.47,183.24c.24,0,2.28.41,2.28.41l2.71.57.22,1.42c-.27,1-1.57.8-1.88.78s-3.64-1.13-3.64-1.13a2.93,2.93,0,0,1-1.09-.76C109.37,183.32,111.27,183.23,111.47,183.24Z" style="fill: #183f42"/>
              <path d="M120.92,180.74l1.21.39,2.5,1.19.08,1.32c-.25,1.2-1.91.52-2.21.42s-2.36-1.4-2.36-1.4a1.9,1.9,0,0,1-1.29-1.24C118.46,180.08,120.73,180.68,120.92,180.74Z" style="fill: #183f42"/>
              <path d="M123,149.77a12.9,12.9,0,0,1,.52,6.52l-.1,12.7,1.22,13.33c-2.4,1.61-3.17-1.15-3.17-1.15l-2.61-12.1-3.72-17.39,7.56-2.78Z" style="fill: #007887"/>
              <path d="M122.11,156.82c.3.06-.48.77-.2.7-2.94,4.1-2.31,8.41-1.83,13.43a76.06,76.06,0,0,0,1.44,10.37l-.06-.15-2.61-12.1L116,155.9c1.76.36,3.55.6,5.33.93A1.83,1.83,0,0,0,122.11,156.82Z" style="opacity: 0.15"/>
              <path d="M117.24,152.69l5.83,4-3.42,2.34s-2.34,9.74-2.16,10.5-.67,15.17-.92,15.32a2,2,0,0,1-2.7-1.2l-.81-15.09c0-4,1.24-17.75,1.24-17.75Z" style="fill: #007887"/>
              <path d="M116.19,152c.13.4-1.25,1.22-1.4,17a117.89,117.89,0,0,0,.53,15.95v0a1.73,1.73,0,0,1-1.45-1.34l-.81-15.09c0-4,1.24-17.75,1.24-17.75Z" style="opacity: 0.15"/>
              <path d="M117.06,133.12a32.62,32.62,0,0,1,5.41-1.07c2.29.71,1.88,4,2,4.57s-1.75,10.9-1.75,10.9l.79,3.95s.73-.08-3.28.8-6.12-.33-6.12-.33l.36-4.79.32-5.35a7,7,0,0,1-1.68-2.66c-.15-.61.24-1.33,1.3-2.75C114.85,135.78,115.23,133.65,117.06,133.12Z" style="fill: #ffde73"/>
              <path d="M106.91,143.59c2,.73,2.45.75,3.75,1.17,1.14-2.62,4.44-10,5.08-10.56,3.36-2.76,3.45,1.7,2.37,3.91-.64,1.32-2.88,5.29-4.22,7.7,0,0-1.69,2.18-1.82,2.4-.9.95-6.66-2.85-6.66-2.85A3.22,3.22,0,0,1,106.91,143.59Z" style="fill: #ffde73"/>
              <path d="M121.78,132.13c0,1.2-3.44,1.65-3.43.45l-.83-4.43,4,0Z" style="fill: #f6b6a8"/>
              <path d="M122.75,125.17l-.41,3.37c0,1.82-3.29,2.79-3.29,2.79-1.75,0-3-.85-3-2.7l.06-4.66Z" style="fill: #f6b6a8"/>
              <path d="M117.67,121.69c1-.43,4.64-.52,5.21,2,2.1,9.4.66,10.92.66,10.92s-3.09.88-3.89.23c-1.1-.89-2.7-6.5-2.68-7.92s-.88-1.65-.88-1.65C113.92,123.74,116.21,122.31,117.67,121.69Z" style="fill: #8d654e"/>
              <path d="M117.84,127.19c.09.8-.45,1.67-1.09,1.37l0-1.54S117.71,126.11,117.84,127.19Z" style="fill: #f6b6a8"/>
            </g>
          </g>
        </g>
      </g>
    </g>
  </g>
</svg>
