<svg xmlns="http://www.w3.org/2000/svg" xmlns:xlink="http://www.w3.org/1999/xlink" viewBox="0 0 407 266">
  <defs>
    <linearGradient id="linear-gradient" x1="91.98" y1="171.49" x2="103.54" y2="171.49" gradientUnits="userSpaceOnUse">
      <stop offset="0" stop-color="#a9b9d5"/>
      <stop offset="1" stop-color="#95a9c8"/>
    </linearGradient>
    <linearGradient id="linear-gradient-2" x1="177.75" y1="33.54" x2="282.21" y2="238.56" gradientTransform="matrix(1.05, -0.01, -0.01, 0.97, -40.89, 51.67)" gradientUnits="userSpaceOnUse">
      <stop offset="0" stop-color="#a4d8c8"/>
      <stop offset="0.98" stop-color="#12a0c6"/>
    </linearGradient>
    <linearGradient id="linear-gradient-3" x1="115.8" y1="150.6" x2="123.27" y2="236.49" gradientUnits="userSpaceOnUse">
      <stop offset="0" stop-color="#a9c3d7"/>
      <stop offset="1" stop-color="#fff"/>
    </linearGradient>
    <linearGradient id="linear-gradient-4" x1="97.38" y1="168.66" x2="111.52" y2="168.66" xlink:href="#linear-gradient"/>
    <clipPath id="clip-path">
      <path id="SVGID" d="M92,169.71l6.15,3.57c1.38.81,3.3.7,5.41-.52l-6.16-3.58C95.27,170.4,93.36,170.51,92,169.71Z" style="fill: url(#linear-gradient)"/>
    </clipPath>
    <linearGradient id="linear-gradient-6" x1="96.68" y1="171.15" x2="103.54" y2="171.15" xlink:href="#linear-gradient"/>
    <linearGradient id="linear-gradient-7" x1="94.74" y1="171.65" x2="102.83" y2="171.65" xlink:href="#linear-gradient"/>
    <linearGradient id="linear-gradient-8" x1="91.98" y1="171.75" x2="100.89" y2="171.75" xlink:href="#linear-gradient"/>
    <clipPath id="clip-path-2">
      <path id="SVGID-2" data-name="SVGID" d="M103.48,154.64l-6.15-3.58a16.72,16.72,0,0,0-5.76,6.09,16.52,16.52,0,0,0-2.38,8c0,.12,0,.23,0,.34l6.15,3.58v-.34a16.28,16.28,0,0,1,2.38-8A16.46,16.46,0,0,1,103.48,154.64Z" style="fill: #fafbfb"/>
    </clipPath>
    <linearGradient id="linear-gradient-9" x1="89.71" y1="158.56" x2="102.08" y2="158.56" xlink:href="#linear-gradient"/>
    <linearGradient id="linear-gradient-10" x1="118.16" y1="155.31" x2="123.15" y2="155.31" xlink:href="#linear-gradient"/>
    <linearGradient id="linear-gradient-11" x1="123.14" y1="156.39" x2="131.89" y2="156.39" xlink:href="#linear-gradient"/>
    <linearGradient id="linear-gradient-12" x1="136.06" y1="161.12" x2="156.61" y2="161.12" xlink:href="#linear-gradient"/>
    <clipPath id="clip-path-3">
      <path id="SVGID-3" data-name="SVGID" d="M124.59,114.79l-4.71,2.74c-2.36,1.37-3.82,4.28-3.83,8.41,0,8.33,5.83,18.47,13.08,22.65l4.7-2.73c-7.24-4.18-13.1-14.32-13.07-22.65C120.77,119.07,122.23,116.16,124.59,114.79Z" style="fill: none"/>
    </clipPath>
    <linearGradient id="linear-gradient-13" x1="120.62" y1="142.96" x2="133.83" y2="142.96" xlink:href="#linear-gradient"/>
    <linearGradient id="linear-gradient-14" x1="117.75" y1="135.87" x2="125.32" y2="135.87" xlink:href="#linear-gradient"/>
    <linearGradient id="linear-gradient-15" x1="116.05" y1="124.6" x2="124.59" y2="124.6" xlink:href="#linear-gradient"/>
    <clipPath id="clip-path-4">
      <path id="SVGID-4" data-name="SVGID" d="M138.46,149.51l4.71-2.74c-2.39,1.39-5.69,1.19-9.34-.91l-4.7,2.73C132.77,150.7,136.08,150.89,138.46,149.51Z" style="fill: none"/>
    </clipPath>
    <linearGradient id="linear-gradient-16" x1="135.51" y1="148.58" x2="143.17" y2="148.58" xlink:href="#linear-gradient"/>
    <linearGradient id="linear-gradient-17" x1="129.13" y1="148.13" x2="140.22" y2="148.13" xlink:href="#linear-gradient"/>
    <clipPath id="clip-path-5">
      <path id="SVGID-5" data-name="SVGID" d="M118.4,104.16l-4.7,2.73c4-2.3,9.47-2,15.54,1.53l4.71-2.74C127.88,102.18,122.38,101.85,118.4,104.16Z" style="fill: #fafbfb"/>
    </clipPath>
    <clipPath id="clip-path-6">
      <path id="SVGID-6" data-name="SVGID" d="M144.64,160.14l4.71-2.73c3.92-2.28,6.35-7.13,6.37-14,0-13.87-9.71-30.75-21.77-37.72l-4.71,2.74c12.07,7,21.82,23.85,21.78,37.71C151,153,148.57,157.86,144.64,160.14Z" style="fill: #fafbfb"/>
    </clipPath>
    <linearGradient id="linear-gradient-18" x1="101.79" y1="151.6" x2="152.51" y2="151.6" xlink:href="#linear-gradient"/>
    <clipPath id="clip-path-7">
      <path id="SVGID-7" data-name="SVGID" d="M86.52,153.76v1a.79.79,0,0,0,.45.64v-1A.75.75,0,0,1,86.52,153.76Z" style="fill: #186d7d"/>
    </clipPath>
    <clipPath id="clip-path-8">
      <path id="SVGID-8" data-name="SVGID" d="M117.25,155.16v-1a.78.78,0,0,1-.46.64v1A.78.78,0,0,0,117.25,155.16Z" style="fill: #186d7d"/>
    </clipPath>
    <clipPath id="clip-path-9">
      <path id="SVGID-9" data-name="SVGID" d="M101.1,162.61v1a2.46,2.46,0,0,0,2.21,0v-1A2.44,2.44,0,0,1,101.1,162.61Z" style="fill: #186d7d"/>
    </clipPath>
    <clipPath id="clip-path-10">
      <path id="SVGID-10" data-name="SVGID" d="M140.2,142v-1a.83.83,0,0,1-.5.7v1A.82.82,0,0,0,140.2,142Z" style="fill: #186d7d"/>
    </clipPath>
    <clipPath id="clip-path-11">
      <path id="SVGID-11" data-name="SVGID" d="M103.18,144.3v1a.85.85,0,0,0,.5.69v-1A.85.85,0,0,1,103.18,144.3Z" style="fill: #186d7d"/>
    </clipPath>
    <clipPath id="clip-path-12">
      <path id="SVGID-12" data-name="SVGID" d="M117.6,153.09v1a2.63,2.63,0,0,0,2.41,0v-1A2.67,2.67,0,0,1,117.6,153.09Z" style="fill: #186d7d"/>
    </clipPath>
    <clipPath id="clip-path-13">
      <path id="SVGID-13" data-name="SVGID" d="M126.32,130.6v1a.79.79,0,0,0,.45.64v-1A.76.76,0,0,1,126.32,130.6Z" style="fill: #186d7d"/>
    </clipPath>
    <clipPath id="clip-path-14">
      <path id="SVGID-14" data-name="SVGID" d="M149,136.73v-1a.79.79,0,0,1-.47.65v1A.8.8,0,0,0,149,136.73Z" style="fill: #186d7d"/>
    </clipPath>
    <clipPath id="clip-path-15">
      <path id="SVGID-15" data-name="SVGID" d="M140.89,139.45v1a2.46,2.46,0,0,0,2.21,0v-1A2.46,2.46,0,0,1,140.89,139.45Z" style="fill: #186d7d"/>
    </clipPath>
    <linearGradient id="linear-gradient-19" x1="-8228.14" y1="126" x2="-8214.95" y2="142.7" gradientTransform="matrix(-0.87, -0.5, -0.5, 0.87, -6924.36, -4093.16)" gradientUnits="userSpaceOnUse">
      <stop offset="0" stop-color="#aadde5"/>
      <stop offset="1" stop-color="#0f0f10"/>
    </linearGradient>
    <linearGradient id="linear-gradient-20" x1="144.64" y1="144.72" x2="155.72" y2="144.72" xlink:href="#linear-gradient"/>
    <radialGradient id="radial-gradient" cx="3260.63" cy="-349.81" r="6.06" gradientTransform="matrix(0.87, 0.5, 0, 1, -2694.58, -1166.37)" gradientUnits="userSpaceOnUse">
      <stop offset="0.09" stop-color="#3d5eaa"/>
      <stop offset="0.29" stop-color="#2a4176"/>
      <stop offset="0.52" stop-color="#182543"/>
      <stop offset="0.71" stop-color="#0b111f"/>
      <stop offset="0.87" stop-color="#030508"/>
      <stop offset="0.97"/>
    </radialGradient>
    <radialGradient id="radial-gradient-2" cx="3260.63" cy="-349.81" r="1.24" gradientTransform="matrix(0.87, 0.5, 0, 1, -2694.58, -1166.37)" gradientUnits="userSpaceOnUse">
      <stop offset="0.22" stop-color="#dae4f4"/>
      <stop offset="0.28" stop-color="#c2cbd9"/>
      <stop offset="0.48" stop-color="#7e848d"/>
      <stop offset="0.65" stop-color="#484b50"/>
      <stop offset="0.79" stop-color="#212225"/>
      <stop offset="0.9" stop-color="#09090a"/>
      <stop offset="0.97"/>
    </radialGradient>
    <radialGradient id="radial-gradient-3" cx="3254.58" cy="-347.65" r="6.06" xlink:href="#radial-gradient"/>
    <radialGradient id="radial-gradient-4" cx="3254.58" cy="-347.65" r="1.24" xlink:href="#radial-gradient-2"/>
    <radialGradient id="radial-gradient-5" cx="3265.72" cy="-348.44" r="6.06" xlink:href="#radial-gradient"/>
    <radialGradient id="radial-gradient-6" cx="3265.72" cy="-348.44" r="1.24" xlink:href="#radial-gradient-2"/>
    <linearGradient id="linear-gradient-21" x1="299.21" y1="159.44" x2="305.02" y2="226.21" gradientUnits="userSpaceOnUse">
      <stop offset="0" stop-color="#fff"/>
      <stop offset="1" stop-color="#a9c3d7"/>
    </linearGradient>
  </defs>
  <title>isohero-ncommand</title>
  <g style="isolation: isolate">
    <g id="arte">
      <g>
        <path d="M198,239c-53,0-126,37.89-156.62-19.94C26.51,191,33.61,148.17,60.66,127.7,141.34,66.64,240.43,89,268.12,95.87c81.81,20.2,106.74,68.88,105.05,101.64C369.71,264.3,272.56,239,198,239Z" style="fill: url(#linear-gradient-2)"/>
        <g>
          <g>
            <g style="mix-blend-mode: multiply">
              <path d="M191.26,185.57,124.4,146.38a6,6,0,0,0-5.46,0l-72,42.17c-1.5.87-1.49,2.29,0,3.16l66.86,39.19a6,6,0,0,0,5.46,0l72-42.17C192.78,187.86,192.77,186.44,191.26,185.57Z" style="fill: url(#linear-gradient-3)"/>
            </g>
            <g style="isolation: isolate">
              <path d="M191.26,160.39,124.4,121.2a6,6,0,0,0-5.46,0l-72,42.17c-1.5.87-1.49,2.28,0,3.16l66.86,39.18a6,6,0,0,0,5.46,0l72-42.16C192.78,162.67,192.77,161.26,191.26,160.39Z" style="fill: #b8e3f0"/>
              <path d="M191.28,163.55l-72,42.16a6,6,0,0,1-5.46,0L47,166.53a1.94,1.94,0,0,1-1.14-1.59v3.59A1.94,1.94,0,0,0,47,170.12l66.86,39.19a6,6,0,0,0,5.45,0l72-42.17a1.91,1.91,0,0,0,1.12-1.57V162A1.91,1.91,0,0,1,191.28,163.55Z" style="fill: #95d4ec"/>
            </g>
          </g>
          <g>
            <g style="isolation: isolate">
              <polygon points="111.52 168.15 105.37 164.57 97.38 169.18 103.53 172.76 111.52 168.15" style="fill: url(#linear-gradient-4)"/>
              <g>
                <path id="SVGID-16" data-name="SVGID" d="M92,169.71l6.15,3.57c1.38.81,3.3.7,5.41-.52l-6.16-3.58C95.27,170.4,93.36,170.51,92,169.71Z" style="fill: url(#linear-gradient)"/>
                <g style="clip-path: url(#clip-path)">
                  <g style="isolation: isolate">
                    <path d="M103.54,172.76l-6.16-3.58a7.88,7.88,0,0,1-.7.37l6.15,3.58.71-.37Z" style="fill: url(#linear-gradient-6)"/>
                    <path d="M102.83,173.13l-6.15-3.58a7,7,0,0,1-1.94.61l6.15,3.58a6.87,6.87,0,0,0,1.94-.61Z" style="fill: url(#linear-gradient-7)"/>
                    <path d="M100.89,173.74l-6.15-3.58a4.14,4.14,0,0,1-2.76-.45l6.15,3.57a4.14,4.14,0,0,0,2.76.46Z" style="fill: url(#linear-gradient-8)"/>
                  </g>
                </g>
              </g>
              <polygon points="95.35 169.08 89.2 165.5 89.22 174.54 95.37 178.12 95.35 169.08" style="fill: #fafbfb"/>
              <polygon points="108.22 151.91 102.06 148.33 97.33 151.06 103.48 154.64 108.22 151.91" style="fill: #fff"/>
              <g style="isolation: isolate">
                <path id="SVGID-17" data-name="SVGID" d="M103.48,154.64l-6.15-3.58a16.72,16.72,0,0,0-5.76,6.09,16.52,16.52,0,0,0-2.38,8c0,.12,0,.23,0,.34l6.15,3.58v-.34a16.28,16.28,0,0,1,2.38-8A16.46,16.46,0,0,1,103.48,154.64Z" style="fill: #fafbfb"/>
                <g style="clip-path: url(#clip-path-2)">
                  <g style="isolation: isolate">
                    <path d="M103.48,154.64l-6.15-3.58a13.42,13.42,0,0,0-1.4,1l6.15,3.57a13.3,13.3,0,0,1,1.4-1Z" style="fill: #fff"/>
                    <path d="M102.08,155.59,95.93,152a17.86,17.86,0,0,0-4.36,5.13,18.83,18.83,0,0,0-1.86,4.39l6.15,3.57a18.63,18.63,0,0,1,1.87-4.38,17.73,17.73,0,0,1,4.35-5.14Z" style="fill: url(#linear-gradient-9)"/>
                    <path d="M95.86,165.11l-6.15-3.57a14.5,14.5,0,0,0-.48,2.66l6.15,3.58a14.6,14.6,0,0,1,.48-2.67Z" style="fill: #fafbfb"/>
                    <path d="M95.38,167.78l-6.15-3.58c0,.33,0,.65,0,1,0,.12,0,.23,0,.34l6.15,3.58v-.34c0-.32,0-.64,0-1Z" style="fill: #fafbfb"/>
                  </g>
                </g>
              </g>
              <path d="M103.48,154.64a16.46,16.46,0,0,0-5.75,6.09,16.28,16.28,0,0,0-2.38,8v.34l0,9,8.17-4.72,8-4.61v-.64l-8,4.61c-4.2,2.42-7.62.47-7.63-4.35a16.7,16.7,0,0,1,7.58-13.12l4.73-2.74v-.64Z" style="fill: #cbd2db"/>
            </g>
            <g style="isolation: isolate">
              <polygon points="123.15 151.81 123.14 155.92 118.16 158.82 118.17 154.7 123.15 151.81" style="fill: url(#linear-gradient-10)"/>
              <polygon points="118.17 154.7 118.16 158.82 109 153.53 109.02 149.42 118.17 154.7" style="fill: #fafbfb"/>
              <polygon points="131.89 156.86 131.88 160.97 123.14 155.92 123.15 151.81 131.89 156.86" style="fill: url(#linear-gradient-11)"/>
              <polygon points="136.07 165.04 136.06 169.15 126.9 163.86 126.91 159.75 136.07 165.04" style="fill: #fafbfb"/>
              <polygon points="136.07 165.04 141.05 162.14 151.63 155.99 156.61 153.1 156.6 157.21 151.62 160.1 141.03 166.26 136.06 169.15 136.07 165.04" style="fill: url(#linear-gradient-12)"/>
              <polygon points="156.61 153.1 151.63 155.99 141.05 162.14 136.07 165.04 126.91 159.75 131.89 156.86 123.15 151.81 118.17 154.7 109.02 149.42 113.99 146.52 124.58 140.37 129.56 137.48 156.61 153.1" style="fill: #fafbfb"/>
            </g>
            <g style="isolation: isolate">
              <g style="isolation: isolate">
                <g style="clip-path: url(#clip-path-3)">
                  <g>
                    <path d="M129.13,148.59l4.7-2.73a26.16,26.16,0,0,1-8.51-8.53l-4.7,2.73a25.87,25.87,0,0,0,8.51,8.53Z" style="fill: url(#linear-gradient-13)"/>
                    <path d="M120.62,140.06l4.7-2.73a31.89,31.89,0,0,1-2.86-5.65l-4.71,2.73a31.28,31.28,0,0,0,2.87,5.65Z" style="opacity: 0;fill: url(#linear-gradient-14)"/>
                    <path d="M117.75,134.41l4.71-2.73a23.76,23.76,0,0,1-1.7-8.47c0-4.14,1.47-7,3.83-8.42l-4.71,2.74c-2.36,1.37-3.82,4.28-3.83,8.41a23.72,23.72,0,0,0,1.7,8.47Z" style="fill: url(#linear-gradient-15)"/>
                  </g>
                </g>
              </g>
              <g style="isolation: isolate">
                <g style="clip-path: url(#clip-path-4)">
                  <g>
                    <path d="M138.46,149.51l4.71-2.74a6.6,6.6,0,0,1-2.95.87l-4.71,2.74a6.73,6.73,0,0,0,3-.87Z" style="fill: url(#linear-gradient-16)"/>
                    <path d="M135.51,150.38l4.71-2.74a11.51,11.51,0,0,1-6.39-1.78l-4.7,2.73a11.48,11.48,0,0,0,6.38,1.79Z" style="fill: url(#linear-gradient-17)"/>
                  </g>
                </g>
              </g>
              <g>
                <path id="SVGID-18" data-name="SVGID" d="M118.4,104.16l-4.7,2.73c4-2.3,9.47-2,15.54,1.53l4.71-2.74C127.88,102.18,122.38,101.85,118.4,104.16Z" style="fill: #fafbfb"/>
                <g style="clip-path: url(#clip-path-5)">
                  <g>
                    <path d="M129.24,108.42l4.71-2.74c-3.86-2.22-7.48-3.17-10.63-3l-4.71,2.74a19.13,19.13,0,0,1,10.63,3Z" style="fill: #fafbfb"/>
                    <path d="M118.61,105.45l4.71-2.74a11.08,11.08,0,0,0-4.92,1.45l-4.7,2.73a11,11,0,0,1,4.91-1.44Z" style="fill: #fafbfb"/>
                  </g>
                </g>
              </g>
              <g>
                <path id="SVGID-19" data-name="SVGID" d="M144.64,160.14l4.71-2.73c3.92-2.28,6.35-7.13,6.37-14,0-13.87-9.71-30.75-21.77-37.72l-4.71,2.74c12.07,7,21.82,23.85,21.78,37.71C151,153,148.57,157.86,144.64,160.14Z" style="fill: #fafbfb"/>
                <g style="clip-path: url(#clip-path-6)">
                  <g style="isolation: isolate">
                    <path d="M143.41,122.62l4.71-2.73A43.41,43.41,0,0,0,134,105.68l-4.71,2.74c5.42,3.12,10.37,8.25,14.17,14.2Z" style="fill: #fafbfb"/>
                  </g>
                </g>
              </g>
              <path d="M107.33,120.91c0-13.87,9.85-19.46,21.91-12.49a35.6,35.6,0,0,1,6.47,4.85c-2.28,1.68-4.39,3.48-6.58,5.12-7.21-4.1-13.06-.74-13.08,7.55s5.83,18.47,13.08,22.65a13.32,13.32,0,0,0,4.33,1.66c-.14,1.53-.26,3.07-.36,4.6l-18.23-10.53C110.23,137,107.3,128.51,107.33,120.91Z" style="fill: #fff"/>
            </g>
            <g>
              <g>
                <g style="isolation: isolate">
                  <polygon points="85.47 155.53 85.48 157.97 101.8 167.46 101.79 165.02 85.47 155.53" style="fill: #fafbfb"/>
                  <polygon points="101.79 165.02 101.8 167.46 152.51 138.17 152.5 135.73 101.79 165.02" style="fill: url(#linear-gradient-18)"/>
                  <polygon points="85.47 155.53 101.79 165.02 152.5 135.73 136.18 126.24 85.47 155.53" style="fill: #fff"/>
                </g>
                <g style="isolation: isolate">
                  <g>
                    <path id="SVGID-20" data-name="SVGID" d="M86.52,153.76v1a.79.79,0,0,0,.45.64v-1A.75.75,0,0,1,86.52,153.76Z" style="fill: #186d7d"/>
                    <g style="clip-path: url(#clip-path-7)">
                      <g style="isolation: isolate">
                        <path d="M86.52,153.76v1a.63.63,0,0,0,.16.41v-1a.6.6,0,0,1-.17-.4Z" style="fill: #186d7d"/>
                        <path d="M86.69,154.16v1a1.18,1.18,0,0,0,.29.23v-1a1,1,0,0,1-.29-.23Z" style="fill: #186d7d"/>
                      </g>
                    </g>
                  </g>
                  <g>
                    <path id="SVGID-21" data-name="SVGID" d="M117.25,155.16v-1a.78.78,0,0,1-.46.64v1A.78.78,0,0,0,117.25,155.16Z" style="fill: #186d7d"/>
                    <g style="clip-path: url(#clip-path-8)">
                      <path d="M116.78,154.83v1a.78.78,0,0,0,.47-.64v-1a.78.78,0,0,1-.46.64Z" style="fill: #186d7d"/>
                    </g>
                  </g>
                  <polygon points="86.98 154.39 86.98 155.37 101.1 163.58 101.1 162.61 86.98 154.39" style="fill: #186d7d"/>
                  <polygon points="103.31 162.61 103.31 163.58 116.78 155.81 116.78 154.83 103.31 162.61" style="fill: #186d7d"/>
                  <g>
                    <path id="SVGID-22" data-name="SVGID" d="M101.1,162.61v1a2.46,2.46,0,0,0,2.21,0v-1A2.44,2.44,0,0,1,101.1,162.61Z" style="fill: #186d7d"/>
                    <g style="clip-path: url(#clip-path-9)">
                      <g style="isolation: isolate">
                        <path d="M101.1,162.61v1a2.12,2.12,0,0,0,.77.25v-1a2.11,2.11,0,0,1-.77-.24Z" style="fill: #186d7d"/>
                        <path d="M101.87,162.85v1a2.39,2.39,0,0,0,1.44-.25v-1a2.43,2.43,0,0,1-1.43.24Z" style="fill: #186d7d"/>
                      </g>
                    </g>
                  </g>
                  <path d="M87,153.11a.68.68,0,0,0,0,1.28l14.12,8.22a2.44,2.44,0,0,0,2.2,0l13.48-7.78a.68.68,0,0,0,0-1.28l-14.12-8.21a2.4,2.4,0,0,0-2.21,0Z" style="fill: #078fa9"/>
                </g>
              </g>
              <g style="isolation: isolate">
                <g>
                  <path id="SVGID-23" data-name="SVGID" d="M140.2,142v-1a.83.83,0,0,1-.5.7v1A.82.82,0,0,0,140.2,142Z" style="fill: #186d7d"/>
                  <g style="clip-path: url(#clip-path-10)">
                    <path d="M139.7,141.71v1a.82.82,0,0,0,.5-.7v-1a.83.83,0,0,1-.5.7Z" style="fill: #186d7d"/>
                  </g>
                </g>
                <g>
                  <path id="SVGID-24" data-name="SVGID" d="M103.18,144.3v1a.85.85,0,0,0,.5.69v-1A.85.85,0,0,1,103.18,144.3Z" style="fill: #186d7d"/>
                  <g style="clip-path: url(#clip-path-11)">
                    <g style="isolation: isolate">
                      <path d="M103.18,144.3v1a.68.68,0,0,0,.18.44v-1a.68.68,0,0,1-.18-.44Z" style="fill: #186d7d"/>
                      <path d="M103.36,144.74v1a1.19,1.19,0,0,0,.32.25v-1a1.35,1.35,0,0,1-.31-.25Z" style="fill: #186d7d"/>
                    </g>
                  </g>
                </g>
                <polygon points="103.67 144.99 103.68 145.96 117.6 154.06 117.6 153.09 103.67 144.99" style="fill: #186d7d"/>
                <polygon points="120 153.09 120.01 154.06 139.7 142.69 139.7 141.71 120 153.09" style="fill: #186d7d"/>
                <g>
                  <path id="SVGID-25" data-name="SVGID" d="M117.6,153.09v1a2.63,2.63,0,0,0,2.41,0v-1A2.67,2.67,0,0,1,117.6,153.09Z" style="fill: #186d7d"/>
                  <g style="clip-path: url(#clip-path-12)">
                    <g style="isolation: isolate">
                      <path d="M117.6,153.09v1a2.24,2.24,0,0,0,.84.27v-1a2.24,2.24,0,0,1-.84-.26Z" style="fill: #186d7d"/>
                      <path d="M118.44,153.35v1a2.58,2.58,0,0,0,1.57-.27v-1a2.61,2.61,0,0,1-1.56.26Z" style="fill: #186d7d"/>
                    </g>
                  </g>
                </g>
                <path d="M103.68,143.59a.74.74,0,0,0,0,1.4l13.93,8.1a2.67,2.67,0,0,0,2.4,0l19.7-11.38a.73.73,0,0,0,0-1.39l-13.93-8.1a2.67,2.67,0,0,0-2.4,0Z" style="fill: #078fa9"/>
              </g>
              <g style="isolation: isolate">
                <g>
                  <path id="SVGID-26" data-name="SVGID" d="M126.32,130.6v1a.79.79,0,0,0,.45.64v-1A.76.76,0,0,1,126.32,130.6Z" style="fill: #186d7d"/>
                  <g style="clip-path: url(#clip-path-13)">
                    <g style="isolation: isolate">
                      <path d="M126.32,130.6v1a.59.59,0,0,0,.17.41v-1a.58.58,0,0,1-.16-.4Z" style="fill: #186d7d"/>
                      <path d="M126.48,131v1a1.11,1.11,0,0,0,.28.23v-1a1.4,1.4,0,0,1-.29-.23Z" style="fill: #186d7d"/>
                    </g>
                  </g>
                </g>
                <g>
                  <path id="SVGID-27" data-name="SVGID" d="M149,136.73v-1a.79.79,0,0,1-.47.65v1A.8.8,0,0,0,149,136.73Z" style="fill: #186d7d"/>
                  <g style="clip-path: url(#clip-path-14)">
                    <path d="M148.52,136.4v1a.8.8,0,0,0,.46-.64v-1a.79.79,0,0,1-.47.65Z" style="fill: #186d7d"/>
                  </g>
                </g>
                <polygon points="126.77 131.23 126.77 132.21 140.89 140.42 140.89 139.45 126.77 131.23" style="fill: #186d7d"/>
                <polygon points="143.1 139.45 143.1 140.42 148.53 137.37 148.53 136.4 143.1 139.45" style="fill: #186d7d"/>
                <g>
                  <path id="SVGID-28" data-name="SVGID" d="M140.89,139.45v1a2.46,2.46,0,0,0,2.21,0v-1A2.46,2.46,0,0,1,140.89,139.45Z" style="fill: #186d7d"/>
                  <g style="clip-path: url(#clip-path-15)">
                    <g style="isolation: isolate">
                      <path d="M140.89,139.45v1a2.11,2.11,0,0,0,.78.25v-1a2.1,2.1,0,0,1-.78-.24Z" style="fill: #186d7d"/>
                      <path d="M141.67,139.69v1a2.36,2.36,0,0,0,1.43-.25v-1a2.43,2.43,0,0,1-1.43.24Z" style="fill: #186d7d"/>
                    </g>
                  </g>
                </g>
                <path d="M126.78,130c-.61.36-.62.93,0,1.28l14.12,8.22a2.46,2.46,0,0,0,2.21,0l5.42-3c.62-.36.62-.93,0-1.28l-14.12-8.22a2.46,2.46,0,0,0-2.21,0Z" style="fill: #078fa9"/>
              </g>
            </g>
            <g>
              <g>
                <g>
                  <path d="M91.09,153.44s0,0,0,0c.75-1.43,1.71-1.17,2.08-1l1.6.7a4.5,4.5,0,0,0,2.41.27c2.33-1.84,5.79-5.64,6.48-6.17s1.77-1.45,3.14-2.56c.49-.41,1-.83,1.56-1.26.75-.59,1.53-1.18,2.28-1.72a25,25,0,0,1,7.92-4.35,3.41,3.41,0,0,0,.45,2.94c2.42,4.67,4.64,3.78,4.64,3.78-1.91,4.08-7.86,6.63-7.86,6.63h0c-1.8,1-3.66,2-5.06,2.72a16,16,0,0,1-4.6,3.6,14.21,14.21,0,0,1-1.55.74h0a4.4,4.4,0,0,1-.48.18c-.76.3-1.52.53-2.45.84a3.54,3.54,0,0,0-.35.23l-.11.1c-.29.32-.39.81-.75,1.06a1.64,1.64,0,0,1-.85.2l-1.66.06a3.51,3.51,0,0,1-.92,0,1.68,1.68,0,0,1-.64-.32,2.65,2.65,0,0,1-.51-.55,6.48,6.48,0,0,1-.63-1.33.88.88,0,0,1-.07-.67.7.7,0,0,1,.31-.28c.72-.36,1.57,0,2.35.18a5.68,5.68,0,0,0,2.21.11,72.25,72.25,0,0,0,7.45-6.45c.41-.38,6.35-6,6.88-6.43-.26.15-5.87,4.79-6.12,4.94-2,1.15-3.5,2.63-5.66,3.39a12.54,12.54,0,0,0-2.88,1.91c-.86.8-.72,1-1.65,1.66a1.88,1.88,0,0,1-1.37.42c-.89-.15-1-.82-2.39-1.26-.54-.16-1.26-.38-2-.54S90.65,154.34,91.09,153.44Z" style="fill: #fcddcc"/>
                  <path d="M96.36,156.5a.86.86,0,0,0,1,0c2.92-4.27,8.36-4.27,11.08-8,.5-.67-.74-2.36-1.58-3.94l1.54-1.24c.75-.59,1.53-1.18,2.28-1.72a25,25,0,0,1,7.92-4.35,3.41,3.41,0,0,0,.45,2.94c2.42,4.67,4.64,3.78,4.64,3.78-1.91,4.08-7.86,6.63-7.86,6.63-1.8,1-3.66,2-5.06,2.72a16,16,0,0,1-4.6,3.6,14.21,14.21,0,0,1-1.55.74h0a4.4,4.4,0,0,1-.48.18c-.76.3-1.52.53-2.45.84a3.54,3.54,0,0,0-.35.23l-.11.1c-.29.32-.39.81-.75,1.06a1.64,1.64,0,0,1-.85.2l-1.66.06a3.51,3.51,0,0,1-.92,0,1.68,1.68,0,0,1-.64-.32,2.65,2.65,0,0,1-.51-.55,5.09,5.09,0,0,1-.46-.9,9.58,9.58,0,0,1,1.73,1.25,2.05,2.05,0,0,0,2.53,0c.77-.39,1.35-1.36,2.13-1.75,2.92-1.36,6.8-2.53,8.36-5.64.19,0,.77.39.77.2.57-1.51-.51-2.65-1.11-3.78,1.87-1.76,4.23-4,4.55-4.25-.26.15-5.87,4.79-6.12,4.94-2,1.15-3.5,2.63-5.66,3.39a12.54,12.54,0,0,0-2.88,1.91c-.86.8-.72,1-1.65,1.66a1.88,1.88,0,0,1-1.37.42c-.89-.15-1-.82-2.39-1.26-.54-.16-1.26-.38-2-.54a2.24,2.24,0,0,1-1.15-.68A12.35,12.35,0,0,1,96.36,156.5Z" style="fill: #f4c1a5"/>
                  <path d="M118.36,133.2h0l8.6-2.8a1.72,1.72,0,1,1,.94,3.31L120,135.82a31.11,31.11,0,0,0-1.85-2.54Z" style="fill: #f4c1a5"/>
                  <path d="M130,141a7.29,7.29,0,0,0-3.75,1.47,10.3,10.3,0,0,0-1.6,1.54,25.59,25.59,0,0,1-2.42,2.35.38.38,0,0,1-.25.14.49.49,0,0,1-.21-.08,6,6,0,0,1-2.1-3.8c-.24-1-1.6-1.79-2.7-2.55a5.91,5.91,0,0,1-1.07-.93l2-1.58a49,49,0,0,0,7.57-4.67c.56-.59.92-2.55,2.31-2.51a8.66,8.66,0,0,1,3.25,1.74c1.8,1.82,4.07,3.16,4.24,5.59.12,1.72-2.92,2.95-4.44,3.18l-.17,0Z" style="fill: #fcddcc"/>
                  <path d="M124.67,144.05a10.3,10.3,0,0,1,1.6-1.54A7.29,7.29,0,0,1,130,141l.62-.08.17,0a4.5,4.5,0,0,0,.22-.55,2.88,2.88,0,0,0,.09-.4c.65-.7,1.79-2.09,1.1-3-.41-.51-.82-.18-1.16.19s-.49.54-.73.81a6.75,6.75,0,0,1-1.6-.66,3.18,3.18,0,0,1-1-.7.86.86,0,0,0-.3.75,2.13,2.13,0,0,0,.84,1.5,3.47,3.47,0,0,0,.79.46,19,19,0,0,1-2.23,1.77,2.49,2.49,0,0,1-1,.51c-.87.18-1.66-.49-2.29-1.11-.31,0-.44.43-.37.73a2.45,2.45,0,0,1,.15.91.91.91,0,0,1-.85.65,2.72,2.72,0,0,1-1.11-.25,3.87,3.87,0,0,1-2-1.26,3.71,3.71,0,0,0-.36-.52,2.11,2.11,0,0,0-.76-.43l-1.07-.41c-.06,0-.15,0-.2,0a.16.16,0,0,0,0,.12l-1.56.12c1.11.76,1.32,3.24,1.56,4.28.34,1.45,3.57,1.15,4.8,2a.49.49,0,0,0,.21.08.38.38,0,0,0,.25-.14A25.59,25.59,0,0,0,124.67,144.05Z" style="fill: #f4c1a5"/>
                  <path d="M131.76,134.63a1.82,1.82,0,0,0,1.38.42,20.79,20.79,0,0,0,2.48-1.93l-3-1.73s-1.09.83-1.41,1.16S131.06,134.12,131.76,134.63Z" style="fill: #f4c1a5"/>
                  <path d="M126.77,131.8a3.19,3.19,0,0,0-.4.75,1.67,1.67,0,0,0-.12.58,2.18,2.18,0,0,0,.25.92,1.84,1.84,0,0,0,.87,1.07,2.15,2.15,0,0,1-.76-.1,1.93,1.93,0,0,1-.66-.48,3,3,0,0,1-.66-1,1.44,1.44,0,0,1,0-1.15Z" style="fill: #f4c1a5"/>
                  <path d="M120.75,140.14a.31.31,0,1,1,.11-.43A.32.32,0,0,1,120.75,140.14Z" style="fill: #f4c1a5"/>
                  <g>
                    <g>
                      <path d="M131.52,132.15a1.88,1.88,0,0,0,.74,1.25,3.74,3.74,0,0,0,1.87.79,7.73,7.73,0,0,0,3-.79l.28-.18c1.49-1.08.67-2.58.5-4.17s-1.54-2.69-3.22-1.32S131.38,130.68,131.52,132.15Z" style="fill: #fcddcc"/>
                      <path d="M133.54,128.7c.08.09,1.82-1.62,2.49-.13.48,1,1.83,1.57,1.74,2.07s-1.4,1.23-1.91,1.59c-.25.18.26.45.4.52s0,.13,0,.36c-.17.61-1.66.95-1.94,1.09a4,4,0,0,0,1.51,0l.23,0a3.32,3.32,0,0,0,.81-.1,6.36,6.36,0,0,0,1.68-.6c2.51-1.4,1.29-3.21,1.29-3.21a3.68,3.68,0,0,0-2.36-3.5C135.39,126.06,133.4,128.56,133.54,128.7Z" style="fill: #414141"/>
                    </g>
                    <path d="M135.25,133.07c0,.33.41.62.94.64s1-.23,1-.56-.41-.61-.95-.64S135.26,132.74,135.25,133.07Z" style="fill: #fcddcc"/>
                    <path d="M135.76,133.09c0,.16.2.29.45.3s.46-.1.46-.26-.19-.29-.44-.3S135.77,132.94,135.76,133.09Z" style="fill: #f4c1a5"/>
                  </g>
                </g>
                <path d="M127.94,147.25l-7.3,4.13c-.46.32-.86.72-1.36,1a3.91,3.91,0,0,1-1.89.34.74.74,0,0,1-.21,0,.22.22,0,0,1-.13-.17c0-.1.11-.16.2-.2-.17-.08-.57-.17-.62-.31s0-.13.21-.22a4.58,4.58,0,0,1,1.12-.11,1,1,0,0,0,.83-.73,1.08,1.08,0,0,0-.59.08,1.39,1.39,0,0,1-.42.14.32.32,0,0,1-.36-.2c-.07-.22,1.51-.92,2.43-1.08a1.42,1.42,0,0,0,.41-.13,46.65,46.65,0,0,0,6.21-5.06,62.26,62.26,0,0,0,5.15-7.49,2.27,2.27,0,0,1,2.87-.76,1.47,1.47,0,0,1,.57.44c.49.73-.05,2.3-.75,3.21a68.85,68.85,0,0,1-5.83,6.68A3.79,3.79,0,0,1,127.94,147.25Z" style="fill: #fcddcc"/>
                <path d="M127.94,147.25l-7.3,4.13c-.46.32-.86.72-1.36,1a3.91,3.91,0,0,1-1.89.34.74.74,0,0,1-.21,0,.22.22,0,0,1-.13-.17c0-.1.11-.16.2-.2-.17-.08-.57-.17-.62-.31a1.14,1.14,0,0,1,.41,0c.18,0,.35.14.53.2a2,2,0,0,0,1.75-.33,2.58,2.58,0,0,0,1-1.55,1.12,1.12,0,0,1,.38.46,61.86,61.86,0,0,0,6.7-4.1,1.39,1.39,0,0,0,.67-.83,1.08,1.08,0,0,1,0-.36c.09-.18.31-.23.5-.29a4.12,4.12,0,0,0,1.82-1.31,27.38,27.38,0,0,0,3.79-5.09c.28-.47.58-1.19.18-1.67-.12-.14-.7-.38-.56-.62s.39-.1.69-.09a1.47,1.47,0,0,1,.57.44c.49.73-.05,2.3-.75,3.21a68.85,68.85,0,0,1-5.83,6.68A3.79,3.79,0,0,1,127.94,147.25Z" style="fill: #f4c1a5"/>
                <path d="M106.66,139.15a12.19,12.19,0,0,1,1.61-.58c-.51,0-1.87.48-1.79.21,0-.08.13-.13.22-.18l1.52-.71a6.5,6.5,0,0,1,.94-.33l1-.29a12.4,12.4,0,0,1,1.44-.34l6.48-3.59h0l.09,0a31.11,31.11,0,0,1,1.85,2.54l-.7.19-6.63,2.28-.56.45c-.1.17-.21.34-.32.51-.22.32-.62.56-.85.88-.07.09-.2.42-.4.45a.33.33,0,0,1-.13,0c-.63-.31-.07-.7.14-.95.08-.1.11-.22.18-.32l-1.31.51c-.25.1-1.48.62-1.73.41s.08-.21.17-.26a10.67,10.67,0,0,1,1.4-.67l-1.29.48c-.2.08-1,.34-1.23.13a.1.1,0,0,1,0-.17,6.43,6.43,0,0,1,1.19-.49l-.85.24a.8.8,0,0,1-.57,0C106.34,139.34,106.55,139.2,106.66,139.15Z" style="fill: #f4c1a5"/>
              </g>
              <path d="M122.64,146.05s-2.93.24-5.33-5.07c-.56-1.23-.91-2.26-.44-3-3.4.84-7.67,4.53-9.15,5.21-.2,1.84,1.56,4.55,2.32,5.05.76-.4,3.5-2.89,3.84-3.12-1.38,1-2.11,2.12-3.51,3.07-.16.33,0,.48.17.82.4,1,2.7,3.7,3.63,3.86C114.17,152.82,121.11,148.38,122.64,146.05Z" style="fill: #cbd2db"/>
            </g>
            <path d="M142.29,141.09c0-8.32-5.83-18.46-13.08-22.65l-.08,0c2.19-1.64,4.3-3.44,6.58-5.12,8.9,8.31,15.34,21.59,15.31,32.86,0,7.61-3,12.73-7.66,14.64l-10.26-5.92c.1-1.53.22-3.07.36-4.6C138.59,151.15,142.27,147.67,142.29,141.09Z" style="fill: #fff"/>
            <ellipse cx="129.24" cy="133.73" rx="10.84" ry="18.78" transform="translate(-49.55 82.54) rotate(-30)" style="opacity: 0.5;mix-blend-mode: screen;fill: url(#linear-gradient-19)"/>
            <path d="M144.64,160.14l4.71-2.73c3.92-2.28,6.35-7.13,6.37-14a39.54,39.54,0,0,0-2.83-14.1L148.18,132a39.56,39.56,0,0,1,2.84,14.1c0,6.89-2.45,11.73-6.38,14Z" style="fill: url(#linear-gradient-20)"/>
            <path d="M148.18,132l4.71-2.73a52.65,52.65,0,0,0-4.77-9.41l-4.71,2.73a52.33,52.33,0,0,1,4.77,9.41Z" style="fill: #fafbfb"/>
            <g>
              <path d="M129.91,114.59a1.74,1.74,0,0,0-.78-1.36c-.43-.25-.79,0-.79.45a1.75,1.75,0,0,0,.79,1.37C129.56,115.3,129.91,115.09,129.91,114.59Z" style="fill: #4368b0"/>
              <path d="M134.37,117.17a11.59,11.59,0,0,0-5.24-9.09c-2.9-1.67-5.25-.31-5.25,3a11.57,11.57,0,0,0,5.25,9.08C132,121.87,134.37,120.51,134.37,117.17Z" style="mix-blend-mode: screen;fill: url(#radial-gradient)"/>
              <path d="M130.2,114.76a2.37,2.37,0,0,0-1.07-1.86c-.59-.34-1.07-.06-1.07.62a2.37,2.37,0,0,0,1.07,1.86C129.72,115.72,130.2,115.44,130.2,114.76Z" style="mix-blend-mode: color-dodge;fill: url(#radial-gradient-2)"/>
            </g>
            <g>
              <path d="M124.67,113.72a1.72,1.72,0,0,0-.79-1.35c-.43-.26-.79-.06-.79.45a1.75,1.75,0,0,0,.79,1.36C124.31,114.43,124.67,114.23,124.67,113.72Z" style="fill: #4368b0"/>
              <path d="M129.13,116.3a11.59,11.59,0,0,0-5.25-9.08c-2.89-1.68-5.24-.32-5.24,3a11.62,11.62,0,0,0,5.24,9.09C126.78,121,129.13,119.64,129.13,116.3Z" style="mix-blend-mode: screen;fill: url(#radial-gradient-3)"/>
              <path d="M125,113.89a2.35,2.35,0,0,0-1.07-1.86c-.59-.34-1.07-.06-1.07.62a2.37,2.37,0,0,0,1.07,1.86C124.48,114.85,125,114.57,125,113.89Z" style="mix-blend-mode: color-dodge;fill: url(#radial-gradient-4)"/>
            </g>
            <g>
              <path d="M134.32,118.51a1.74,1.74,0,0,0-.79-1.36c-.43-.26-.79-.05-.79.45a1.77,1.77,0,0,0,.79,1.37C134,119.22,134.32,119,134.32,118.51Z" style="fill: #4368b0"/>
              <path d="M138.78,121.08a11.59,11.59,0,0,0-5.25-9.08c-2.89-1.67-5.24-.32-5.24,3a11.6,11.6,0,0,0,5.24,9.08C136.43,125.78,138.78,124.43,138.78,121.08Z" style="mix-blend-mode: screen;fill: url(#radial-gradient-5)"/>
              <path d="M134.6,118.67a2.34,2.34,0,0,0-1.07-1.85c-.59-.35-1.07-.07-1.07.62a2.4,2.4,0,0,0,1.07,1.86C134.13,119.64,134.6,119.36,134.6,118.67Z" style="mix-blend-mode: color-dodge;fill: url(#radial-gradient-6)"/>
            </g>
          </g>
        </g>
        <g>
          <g style="mix-blend-mode: multiply">
            <path d="M357.08,189.52,301.2,156.77a6,6,0,0,0-5.45,0l-49.29,28.57c-1.5.88-1.49,2.29,0,3.16l55.88,32.75a6,6,0,0,0,5.45,0l49.29-28.57C358.6,191.81,358.6,190.39,357.08,189.52Z" style="fill: url(#linear-gradient-21)"/>
          </g>
          <g style="isolation: isolate">
            <path d="M357.08,164.34,301.2,131.59a6,6,0,0,0-5.45,0l-49.29,28.57c-1.5.87-1.49,2.29,0,3.16l55.88,32.75a6,6,0,0,0,5.45,0L357.1,167.5C358.6,166.62,358.6,165.21,357.08,164.34Z" style="fill: #b8e3f0"/>
            <path d="M357.1,167.5l-49.29,28.57a6,6,0,0,1-5.45,0l-55.88-32.75a1.94,1.94,0,0,1-1.14-1.59v3.59a1.93,1.93,0,0,0,1.14,1.59l55.88,32.75a6,6,0,0,0,5.45,0l49.29-28.57a1.9,1.9,0,0,0,1.12-1.57v-3.59A1.91,1.91,0,0,1,357.1,167.5Z" style="fill: #95d4ec"/>
          </g>
        </g>
        <g>
          <g style="isolation: isolate">
            <path d="M264.14,64.61,264,118.27a4.75,4.75,0,0,0,2.16,3.73l69.75,40.28c1.2.69,2.17.13,2.18-1.24l.15-53.66a4.75,4.75,0,0,0-2.16-3.73L266.31,63.37C265.12,62.68,264.15,63.24,264.14,64.61Zm6,56.77.15-52.76,61.75,35.65L331.91,157Z" style="fill: #edf2f2"/>
            <path d="M268,62.38l69.76,40.27a4.77,4.77,0,0,1,2.16,3.74l-.15,53.66a1.49,1.49,0,0,1-.63,1.38l-1.71,1a1.56,1.56,0,0,0,.63-1.39l.15-53.66a4.75,4.75,0,0,0-2.16-3.73L266.31,63.37a1.54,1.54,0,0,0-1.54-.15l1.72-1A1.5,1.5,0,0,1,268,62.38Z" style="fill: #007887"/>
            <polygon points="332.06 104.27 331.91 157.03 270.16 121.38 270.31 68.62 332.06 104.27" style="fill: #007887"/>
          </g>
          <g>
            <polygon points="332.06 104.1 332.06 157.28 269.84 121.55 269.99 68.37 332.06 104.1" style="fill: #4caeb2"/>
            <polygon points="332.06 104.1 332.06 109.65 269.84 73.93 269.99 68.37 332.06 104.1" style="fill: #308d8d"/>
            <g>
              <polygon points="290.56 124.85 290.56 126.42 273.89 116.8 273.89 115.23 290.56 124.85" style="fill: #cbe8ea"/>
              <g>
                <g>
                  <polygon points="275.91 99.93 275.89 102.45 278.07 103.73 278.06 105.15 274.63 103.15 274.66 99.2 275.91 99.93" style="fill: #fff"/>
                  <polygon points="278.21 85.7 278.2 87.12 276.02 85.85 276 88.38 274.76 87.65 274.79 83.7 278.21 85.7" style="fill: #fff"/>
                  <polygon points="288.01 91.42 291.44 93.42 291.41 97.38 290.16 96.65 290.18 94.12 288 92.85 288.01 91.42" style="fill: #fff"/>
                  <polygon points="290.05 110.73 290.07 108.2 291.31 108.93 291.28 112.88 287.86 110.88 287.87 109.45 290.05 110.73" style="fill: #fff"/>
                </g>
                <g>
                  <path d="M279.64,97.56l.15.62.1.37.09.37c.07.25.13.5.19.75l.2.74.24,1,.17-.75.12-.57.12-.57.11-.57.06-.29.06-.29.12-.57.05-.29.06-.29.06-.29.13.46.12.39.12.38.12.39.12.39.06.2.15.08.56.32.56.31,1.12.63,1.12.62,1.11.62,1.12.61.56.31.34.18c-1.57,2.68-5.63,3.31-5.84,3.34-.21-.28-4.25-5.58-5.81-10l.85.52Z" style="fill: #fff"/>
                  <path d="M279.85,90.87A7.36,7.36,0,0,1,283,96.73c0-2.22,1.45-3.19,3.21-2.17a7.37,7.37,0,0,1,3.19,5.86,4.32,4.32,0,0,1-.48,2l-.44-.26-.56-.34-1.11-.68-1.12-.68-1.12-.67-1.12-.66-.56-.34-.4-.23-.06-.2-.11-.38-.11-.39c0-.13-.07-.26-.1-.39l-.23-.77-.22-.77-.33-1.1-.16.87-.06.29-.05.29-.11.58-.06.29-.05.29-.11.58-.05.29,0,.29-.1.58-.07.41c-.05-.18-.11-.36-.16-.54l-.11-.37-.11-.37-.23-.75,0-.14-.09,0-1.7-1-.94-.54a8.09,8.09,0,0,1-.47-2.49C276.65,90.82,278.08,89.85,279.85,90.87Z" style="fill: #fff"/>
                </g>
              </g>
            </g>
          </g>
        </g>
        <g>
          <g>
            <path d="M314,141.84c-.14-.15.14-.24.21-.42.16-.4,0-.82.58-1.32.07-.07.13-.18.22-.2.36-.11.46.07.47.33.6-.25,1.55-1.58,1.71-1,.07.27-.91,1-1.07,1.18,0,0,.32-.21.36-.25s.48-.34.56-.08-.08.32-.22.44-.25.22-.2.2.44-.33.53,0c0,.12,0,.21-.11.29l-.22.21c.26-.1.47.15.23.37a5,5,0,0,1-2.18,1.15s0,0,0,0,0,0,0,0a.24.24,0,0,0-.06-.09c-.06-.09-.09-.05-.15-.14S314.17,142,314,141.84Z" style="fill: #fcd4be"/>
            <path d="M304.5,148.06c.46-1.11,4.71-3.55,4.71-3.55.66-.48,2.83-2,4.57-3.24a2.55,2.55,0,0,1,1.8,1.62,34.52,34.52,0,0,0-2.32,2.82,10.44,10.44,0,0,1-2.06,1.74h-.05l-1.47,1.13c-1.49.92-3,1.9-4.72,1.9A2.92,2.92,0,0,1,304.5,148.06Z" style="fill: #cbd2db"/>
            <path d="M309.92,146.33v.15l0,1.33a1.7,1.7,0,0,1-.32.36h-.1c-1-.1-2.17-.31-2.17-1a0,0,0,0,0,0,0l.05-1h.12l1.74.15Z" style="fill: #fcd4be"/>
            <path d="M307,147a5.56,5.56,0,0,0-.07,1.69c.05.55.14-.23.65,0a2.79,2.79,0,0,0,1.62.09,1,1,0,0,0,.66-.32c.21-.22.21-1.13,0-1.14a7.48,7.48,0,0,0-.82,0,3.11,3.11,0,0,1-1.32-.22C307.42,146.93,307.31,146.65,307,147Z" style="fill: #f7f9fc"/>
            <path d="M304.63,178.66s-.17,1.43.32,1.85a1.63,1.63,0,0,0,1.19-.16c.36-.16.73-.47,1.1-.59a2.46,2.46,0,0,0,1.63-1.64c.76-1.54-.94-.82-2-.19A5.58,5.58,0,0,1,304.63,178.66Z" style="fill: #16181d"/>
            <path d="M308.48,168.19c-.09.82-.26,1.63-.39,2.44-.08.46,0,.82-.14,1.28-.16.94-.12,5.29-.12,6.78,0,.3-3.25,1.26-3.33.82a33.73,33.73,0,0,1-.15-5.3c.12-1,.37-10.31.31-10.93-.1-1,0-2.67.83-3.2,1.27-.79,2.88,1,3.22,1.73C309.22,162.91,308.9,164.51,308.48,168.19Z" style="fill: #0b7c91"/>
            <path d="M308.63,180.62s-.53,1.33-.16,1.87a1.7,1.7,0,0,0,1.19.18c.39,0,.82-.25,1.21-.26a2.33,2.33,0,0,0,2-1.11c1.12-1.27-.69-1.06-1.9-.76A5.48,5.48,0,0,1,308.63,180.62Z" style="fill: #16181d"/>
            <path d="M312.35,168.22h0c-1,8.11-.65,7-.67,12.79,0,.47-.12.38-1.56.6a3.24,3.24,0,0,1-.93.06c-.94-.12-1.07-.82-1.1-1.57s-.24-10.3,1.92-10.31A11.33,11.33,0,0,0,312.35,168.22Z" style="fill: #078fa9"/>
            <path d="M312.57,162.75c-.09,2.06-.1,4-.22,5.47h0a6.1,6.1,0,0,1-.85,2.92c-.33.75-.29,1.3-.71,1.67a1,1,0,0,1-1.18.05c-.37-.22-.86,1.55-1,1.12a18.78,18.78,0,0,1-.19-2.27c-.17-3.56-1.69-5.92-1.36-8.83C307.08,162.73,312.57,162.75,312.57,162.75Z" style="fill: #078fa9"/>
            <path d="M313.44,150.17s-.09.56-.2,1.36l0,.14c-.17,1.18-.39,2.82-.49,4,0,.39-.06.73-.07,1,0,1.28-.15,12.62-.09,13.75a.56.56,0,0,1-.28.54,3.91,3.91,0,0,1-.57.3,4.18,4.18,0,0,1-1,.29,6.4,6.4,0,0,1-.81.1,14,14,0,0,1-3.42-.14,4.84,4.84,0,0,1-2.2-.94.62.62,0,0,1-.24-.47h0c0-1.21.24-10.87.95-13.66.55-2.17-.8-6-.75-7.25.05-1,.43-2.32,2.71-2l3,.69C310.58,148.19,313.19,148.66,313.44,150.17Z" style="fill: #eaeef1"/>
            <path d="M310.81,145.45a2.07,2.07,0,0,1-.9,1,1.25,1.25,0,0,1-.47.16h-.09a.84.84,0,0,1-.47-.07c-.27-.14-1.28,0-1.38-.26a.65.65,0,0,1-.05-.2,10.25,10.25,0,0,1,.54-2.63,3,3,0,0,1,1-1.74,4.12,4.12,0,0,1,1.51-.85l.28.33.23.28a9.36,9.36,0,0,0,0,2A4.6,4.6,0,0,1,310.81,145.45Z" style="fill: #fcd4be"/>
            <path d="M311,143.49a9.36,9.36,0,0,1,0-2l-.23-.28-.09.43a6.89,6.89,0,0,1,0,3.16,2.31,2.31,0,0,1-.5,1.1,1,1,0,0,1-1.1.31l.06,0a.79.79,0,0,1,.25.37,1.22,1.22,0,0,1,.07.38v.24a1,1,0,0,1,.34,0h0v-.79a2.07,2.07,0,0,0,.9-1A4.6,4.6,0,0,0,311,143.49Z" style="fill: #fcd4be"/>
            <path d="M311.41,141.35c-.06.4-.4.37-.61.72s-.26.75-.5,1.15c-.09.14-.45,1.51-.86,1.27-.6-.35.09,1.27-1,1.86a2.05,2.05,0,0,1-.92,0,.6.6,0,0,1-.31-.21v0a12,12,0,0,1-1.71-2,3.86,3.86,0,0,1-.26-1.62,2.71,2.71,0,0,1,.58-1.36,3.08,3.08,0,0,1,1.06-1,4.4,4.4,0,0,1,2.59-.36l.34,0q.29.06.57.15l.25.13c.81.45.8.92.81,1A2.34,2.34,0,0,1,311.41,141.35Z" style="fill: #2b130d"/>
            <path d="M309.39,144.41a.55.55,0,1,1-.86-.24A.65.65,0,0,1,309.39,144.41Z" style="fill: #fcd4be"/>
            <path d="M309.68,147.53a3.08,3.08,0,0,1,.54.16.53.53,0,0,1,.25.36,9.23,9.23,0,0,1-2.71-.25,2.46,2.46,0,0,1-1.3-.65c-.24-.4,1.24,0,1.39.08.6.16,1.23.17,1.83.3Z" style="fill: #fcfcfb"/>
          </g>
          <path d="M314.78,162.89l.81-.1c.06.49.1.79.1.79l.3.36c.19.32.27.69.45,1,.06.09.28.37.25.49a.15.15,0,0,1-.06.05c-.36.12-.52-.23-.65-.51,0,.14.06.29.1.43s.25,1,0,1.07-.15-.13-.18-.2a6.91,6.91,0,0,1-.3-1c.05.3.11.58.17.87,0,.13.1.66-.11.69a.13.13,0,0,1-.13-.09,3.63,3.63,0,0,1-.19-.82c0,.18,0,.36.05.54s0,.25-.09.29-.2-.1-.22-.19a6.32,6.32,0,0,1-.2-1.07c0,.22,0,.78,0,1,0,0,0,0,0,0s0,.06-.09,0a.3.3,0,0,1-.1-.19l-.32-1.07a2.86,2.86,0,0,1-.11-.64c0-.22-.05-.39-.08-.61s0-.28,0-.46h0s-.07-.17-.17-.47A7.1,7.1,0,0,1,314.78,162.89Z" style="fill: #fcd4be"/>
          <path d="M311.5,149.69a1.05,1.05,0,0,1,1.34-.48,1.5,1.5,0,0,1,.6.88l1.42,6.42c.16.81.89,4.76,1.27,6.86a2.52,2.52,0,0,1-2.23.93c-.69-1.8-1.55-3.94-1.85-4.63a11.06,11.06,0,0,1-.7-2.61l0-.05-.4-1.81C310.76,153.3,310.48,151.33,311.5,149.69Z" style="fill: #fcfcfb"/>
        </g>
        <g>
          <g>
            <polygon points="359.88 73.86 359.77 112.07 328.06 93.76 328.17 55.55 359.88 73.86" style="fill: #89d6f2;opacity: 0.5"/>
            <path d="M332.88,85.7a5.29,5.29,0,0,0,2.39,4.14c1.26.72,2.29.2,2.4-1.15l8.4,4.85c.12,1,.39,3,.38,3.07a.85.85,0,0,0,0,.42,3,3,0,0,1-.14.68L346,98c-.06.21.19.35.2.36l.91.5s.21.06.2-.29c0-.11-.19-.87-.2-1.13,0-.08.14-.22,0-.53a9.16,9.16,0,0,1,0-1.67,5.37,5.37,0,0,0,.13-2.45,4.16,4.16,0,0,1,.05-.69c.06-.22.5-3.39.51-3.91V87.08a.74.74,0,0,0,.21.17.68.68,0,0,0,.26.1s0,.57,0,1.09.43,4.2.48,4.47a5.31,5.31,0,0,1,.05.75,6.8,6.8,0,0,0,.11,2.59,10.79,10.79,0,0,1,0,1.7c-.11.2,0,.51,0,.58,0,.24-.2.79-.2.89a.62.62,0,0,0,.19.52l.92.56s.25.14.19-.13l-.27-.59a5.65,5.65,0,0,1-.14-.84c.06-.08,0-.3,0-.42s.42-2.62.47-3.08-.05-1.51,0-1.88c0-.17,0-.93,0-1.09s0-.79.12-1.53a10.73,10.73,0,0,0,0-2.43c0-.65-.26-2.54-.27-2.82a6.28,6.28,0,0,0-.13-1.38,10.77,10.77,0,0,1,.19-2.23,9.85,9.85,0,0,1,.51,1.57c0,.11.15.78.17.9.07.36,1,3.51,1.09,3.68a.91.91,0,0,0,0,.54l.11.65.14,1.16a.17.17,0,0,0,.08.13c.05,0,.08,0,.08-.06l-.06-.86.07.07.23,1.2a.18.18,0,0,0,.08.14c.08,0,.11,0,.1-.07l-.15-1.07.09,0,.29,1.26a.18.18,0,0,0,.09.13c.08,0,.1,0,.09-.08l-.23-1.26H353l.41,1.16a.19.19,0,0,0,.08.11c.09,0,.11,0,.09-.1l-.44-1.44,0-.23a4.65,4.65,0,0,1,.29.43.8.8,0,0,0,.28.38c.09,0,.14,0,.14,0s-.42-.89-.62-1.29a2.57,2.57,0,0,0-.54-.75c0-.09-.39-2.73-.53-3.38a7.44,7.44,0,0,0-.43-1.43,10.66,10.66,0,0,1-.31-1.35,8.24,8.24,0,0,1-.13-1.09,4.3,4.3,0,0,0-.51-1.72,2.36,2.36,0,0,0-.81-.75,11.69,11.69,0,0,1-1-1.28l-.06-.69a4.38,4.38,0,0,0,.59-1.46,2.41,2.41,0,0,0-1-2c-.82-.47-1.3-.27-1.4,0a2.79,2.79,0,0,0-.23.56.39.39,0,0,0,0,.19s-.31.41-.33.43-.07,0,.06.17l.15.12,0,.15.12.22-.07,0,.11.27A.45.45,0,0,0,347,76l.36.21,0,.35a3.59,3.59,0,0,1-.95.17c-.15-.08-.61-.33-.84-.2a.57.57,0,0,0-.14.13l-7.73-4.46a5.29,5.29,0,0,0-2.38-3.91c-1.32-.76-2.4-.15-2.4,1.37a5.28,5.28,0,0,0,2.39,4.14c1.25.72,2.29.2,2.39-1.16l7.51,4.34a1.51,1.51,0,0,0-.16.68,4,4,0,0,1-.14.93,4.7,4.7,0,0,1-.32,1,2.78,2.78,0,0,0-.43.93c-.14.49-.52,2.7-.55,2.76a.54.54,0,0,0-.36,0L337.67,80a5.34,5.34,0,0,0-2.36-3.74c-1.32-.76-2.4-.14-2.4,1.38a5.23,5.23,0,0,0,2.39,4.13c1.3.76,2.37.16,2.4-1.32l5.21,3-.46.42a.33.33,0,0,0,.14.15.23.23,0,0,0,.28,0s.25-.12.29-.09l0,.14-.46,1a.17.17,0,0,0,0,.16c.08.06.11.06.13,0l.41-.69.07.09-.24,1a.2.2,0,0,0,.07.17c.07.05.11,0,.12,0l.29-.92.09.06-.16.89a.2.2,0,0,0,.08.17c.06,0,.1,0,.11,0l.23-.94H344l-.06.79a.19.19,0,0,0,.07.15c.05,0,.09,0,.09,0l.14-1,.12-.53a.88.88,0,0,0,0-.54c.05-.1,1-2.13,1.11-2.4l.17-.71a3.5,3.5,0,0,1,.51-1,12.66,12.66,0,0,1,.18,2.45,5.36,5.36,0,0,0-.14,1.22,21,21,0,0,0-.28,2.5,10.6,10.6,0,0,0,0,2.45c.07.82.12,1.52.12,1.67s0,.89,0,1.09c.06.43-.05,1.36,0,1.88l-8.34-4.77a5.35,5.35,0,0,0-2.38-3.91C334,83.57,332.89,84.18,332.88,85.7Zm4.43-5.5c0,1.27-.91,1.79-2,1.15a4.44,4.44,0,0,1-2-3.47c0-1.27.91-1.79,2-1.15A4.4,4.4,0,0,1,337.31,80.2Zm0-8c0,1.27-.91,1.78-2,1.14a4.39,4.39,0,0,1-2-3.47c0-1.27.9-1.79,2-1.15A4.44,4.44,0,0,1,337.34,72.16Zm-4.07,13.76c0-1.27.91-1.79,2-1.15a4.43,4.43,0,0,1,2,3.47c0,1.28-.91,1.79-2,1.15A4.44,4.44,0,0,1,333.27,85.92Z" style="fill: #89d6f2"/>
          </g>
          <g>
            <g style="opacity: 0.8">
              <polygon points="348.66 119.35 348.54 159.96 301.48 132 301.6 91.39 348.66 119.35" style="fill: #89d6f2;opacity: 0.5"/>
            </g>
            <g>
              <polygon points="342.42 136.75 342.42 138.13 308.27 118.42 308.28 117.03 342.42 136.75" style="fill: #89d6f2"/>
              <polygon points="342.4 145.66 342.39 147.04 316.61 132.15 316.61 130.77 342.4 145.66" style="fill: #89d6f2"/>
              <polygon points="342.41 141.2 342.41 142.59 316.62 127.7 316.62 126.31 342.41 141.2" style="fill: #89d6f2"/>
              <path d="M312.66,112.89l.92-7c0-.18.17-.24.34-.14a.73.73,0,0,1,.34.53l1.07,9.28,1.05-2.91c0-.13.16-.17.33-.08a.75.75,0,0,1,.3.39l1.07,3,5,2.9.91-7c0-.18.17-.25.34-.14a.73.73,0,0,1,.34.53l1.07,9.28,1.05-2.92c.05-.12.16-.16.33-.07a.67.67,0,0,1,.3.39l1.07,3,4.68,2.71.91-7c0-.19.17-.25.34-.15a.74.74,0,0,1,.34.54l1.07,9.28,1.05-2.92c0-.13.17-.16.33-.08a.7.7,0,0,1,.3.39l1.07,3.05,3.83,2.21v.79l-4.05-2.33a.79.79,0,0,1-.3-.4l-.79-2.26-1.25,3.47c-.05.13-.18.17-.36.06a.77.77,0,0,1-.31-.52l-.92-8-.62,4.72c0,.18-.17.24-.35.14l-5.18-3a.72.72,0,0,1-.31-.39l-.79-2.26L326,123.52c0,.14-.17.17-.35.07a.79.79,0,0,1-.31-.52l-.93-8-.61,4.72c0,.18-.17.24-.34.15l-5.55-3.2a.78.78,0,0,1-.3-.4l-.8-2.26-1.24,3.47c0,.13-.19.16-.37.06a.82.82,0,0,1-.3-.52l-.93-8.05-.61,4.72c0,.18-.18.24-.35.15l-4.66-2.7v-.79Z" style="fill: #89d6f2"/>
            </g>
          </g>
        </g>
        <g>
          <line x1="303.11" y1="60.28" x2="303.11" y2="60.28" style="fill: none;stroke: #00709e;stroke-linecap: round;stroke-linejoin: round;stroke-width: 1.71115823833577px"/>
          <path d="M303.11,56V29.09a1.83,1.83,0,0,0-1.83-1.83H106.59a1.84,1.84,0,0,0-1.84,1.83V78.5" style="fill: none;stroke: #00709e;stroke-linecap: round;stroke-linejoin: round;stroke-width: 1.71115823833577px;stroke-dasharray: 0,4.290718078613281"/>
          <line x1="104.75" y1="80.65" x2="104.75" y2="80.65" style="fill: none;stroke: #00709e;stroke-linecap: round;stroke-linejoin: round;stroke-width: 1.71115823833577px"/>
          <rect x="297.55" y="59.42" width="11.12" height="1.71" style="fill: #00709e"/>
          <polygon points="97.75 74.98 99.01 73.81 104.75 79.99 110.5 73.81 111.75 74.98 104.75 82.5 97.75 74.98" style="fill: #00709e"/>
        </g>
        <g>
          <g>
            <path d="M196.57,37.48a8.2,8.2,0,1,1,0-16.4,8,8,0,0,1,1.47.13,10.23,10.23,0,0,1,18.38,4.6,5.87,5.87,0,0,1-.51,11.66H196.57Z" style="fill: #89d6f2"/>
            <path d="M206.29,17.54A9.71,9.71,0,0,1,216,26.26,5.37,5.37,0,0,1,215.51,37H196.57a7.7,7.7,0,0,1,0-15.39,8,8,0,0,1,1.7.18,9.72,9.72,0,0,1,8-4.23m0-1a10.75,10.75,0,0,0-8.47,4.14A8.71,8.71,0,1,0,196.57,38h19.85v-.07a6.37,6.37,0,0,0,.44-12.54,10.69,10.69,0,0,0-10.57-8.86Z" style="fill: #89d6f2"/>
            <path d="M206.29,18.55A8.69,8.69,0,0,1,215,26.37l.08.83.84.07a4.35,4.35,0,0,1-.4,8.69h-.06l-1,0v0H196.57A6.68,6.68,0,1,1,198,22.76l.67.15.39-.56a8.72,8.72,0,0,1,7.19-3.8m0-1a9.72,9.72,0,0,0-8,4.23,8,8,0,0,0-1.7-.18,7.7,7.7,0,0,0,0,15.39h18.94A5.37,5.37,0,0,0,216,26.26a9.71,9.71,0,0,0-9.67-8.72Z" style="fill: #00394b"/>
          </g>
          <g style="opacity: 0.1">
            <path d="M216.72,34.55H198.87a7.26,7.26,0,0,1-7.26-7.26,23.89,23.89,0,0,1,.6-4.42A7.7,7.7,0,0,0,196.47,37h18.94a5.37,5.37,0,0,0,5.26-4.33A5,5,0,0,1,216.72,34.55Z"/>
          </g>
        </g>
      </g>
    </g>
  </g>
</svg>
