<svg xmlns="http://www.w3.org/2000/svg" xmlns:xlink="http://www.w3.org/1999/xlink" viewBox="0 0 407 266">
  <defs>
    <linearGradient id="linear-gradient" x1="2013" y1="172.86" x2="2024.56" y2="172.86" gradientTransform="matrix(-1, 0, 0, 1, 2143.77, 0)" gradientUnits="userSpaceOnUse">
      <stop offset="0" stop-color="#a9b9d5"/>
      <stop offset="1" stop-color="#95a9c8"/>
    </linearGradient>
    <linearGradient id="linear-gradient-2" x1="-29.64" y1="132.95" x2="-26.29" y2="132.95" gradientTransform="translate(333.91)" xlink:href="#linear-gradient"/>
    <linearGradient id="linear-gradient-3" x1="2147.2" y1="2402.18" x2="2247.86" y2="2599.73" gradientTransform="matrix(-1.04, -0.08, 0.09, -0.96, 2276.86, 2749.55)" gradientUnits="userSpaceOnUse">
      <stop offset="0" stop-color="#a4d8c8"/>
      <stop offset="0.98" stop-color="#12a0c6"/>
    </linearGradient>
    <linearGradient id="linear-gradient-4" x1="99.25" y1="149.48" x2="106.72" y2="235.37" gradientUnits="userSpaceOnUse">
      <stop offset="0" stop-color="#a9c3d7"/>
      <stop offset="1" stop-color="#fff"/>
    </linearGradient>
    <linearGradient id="linear-gradient-5" x1="2018.41" y1="170.03" x2="2032.55" y2="170.03" xlink:href="#linear-gradient"/>
    <clipPath id="clip-path">
      <path id="SVGID" d="M130.77,171.07l-6.15,3.58c-1.39.8-3.3.69-5.41-.53l6.15-3.57C127.47,171.77,129.39,171.88,130.77,171.07Z" style="fill: url(#linear-gradient)"/>
    </clipPath>
    <linearGradient id="linear-gradient-7" x1="2017.7" y1="172.52" x2="2024.56" y2="172.52" xlink:href="#linear-gradient"/>
    <linearGradient id="linear-gradient-8" x1="2015.76" y1="173.01" x2="2023.86" y2="173.01" xlink:href="#linear-gradient"/>
    <linearGradient id="linear-gradient-9" x1="2013" y1="173.12" x2="2021.92" y2="173.12" xlink:href="#linear-gradient"/>
    <clipPath id="clip-path-2">
      <path id="SVGID-2" data-name="SVGID" d="M119.26,156l6.15-3.58a18,18,0,0,1,8.14,14.1v.34l-6.16,3.57c0-.11,0-.22,0-.34A18,18,0,0,0,119.26,156Z" style="fill: #fafbfb"/>
    </clipPath>
    <linearGradient id="linear-gradient-10" x1="2010.74" y1="159.93" x2="2023.1" y2="159.93" xlink:href="#linear-gradient"/>
    <linearGradient id="linear-gradient-11" x1="2039.19" y1="156.68" x2="2044.18" y2="156.68" xlink:href="#linear-gradient"/>
    <linearGradient id="linear-gradient-12" x1="2044.16" y1="157.76" x2="2052.91" y2="157.76" xlink:href="#linear-gradient"/>
    <linearGradient id="linear-gradient-13" x1="2057.08" y1="162.49" x2="2077.64" y2="162.49" xlink:href="#linear-gradient"/>
    <clipPath id="clip-path-3">
      <path id="SVGID-3" data-name="SVGID" d="M98.16,116.16l4.71,2.74c2.35,1.36,3.81,4.27,3.83,8.41,0,8.33-5.84,18.47-13.08,22.65l-4.71-2.73C96.16,143,102,132.9,102,124.58,102,120.44,100.52,117.53,98.16,116.16Z" style="fill: none"/>
    </clipPath>
    <linearGradient id="linear-gradient-14" x1="2041.64" y1="144.33" x2="2054.86" y2="144.33" xlink:href="#linear-gradient"/>
    <linearGradient id="linear-gradient-15" x1="2038.78" y1="137.24" x2="2046.35" y2="137.24" xlink:href="#linear-gradient"/>
    <linearGradient id="linear-gradient-16" x1="2037.08" y1="125.97" x2="2045.61" y2="125.97" xlink:href="#linear-gradient"/>
    <clipPath id="clip-path-4">
      <path id="SVGID-4" data-name="SVGID" d="M84.28,150.88l-4.7-2.74c2.38,1.39,5.69,1.19,9.33-.91L93.62,150C90,152.07,86.67,152.26,84.28,150.88Z" style="fill: none"/>
    </clipPath>
    <linearGradient id="linear-gradient-17" x1="2056.54" y1="149.94" x2="2064.2" y2="149.94" xlink:href="#linear-gradient"/>
    <linearGradient id="linear-gradient-18" x1="2050.15" y1="149.49" x2="2061.24" y2="149.49" xlink:href="#linear-gradient"/>
    <clipPath id="clip-path-5">
      <path id="SVGID-5" data-name="SVGID" d="M104.34,105.53l4.71,2.73c-4-2.31-9.47-2-15.55,1.52l-4.7-2.73C94.87,103.54,100.37,103.22,104.34,105.53Z" style="fill: #fafbfb"/>
    </clipPath>
    <clipPath id="clip-path-6">
      <path id="SVGID-6" data-name="SVGID" d="M78.1,161.51l-4.7-2.74c-3.92-2.27-6.36-7.12-6.38-14C67,130.9,76.73,114,88.8,107.05l4.7,2.73c-12.06,7-21.81,23.85-21.77,37.72C71.75,154.38,74.18,159.23,78.1,161.51Z" style="fill: #fafbfb"/>
    </clipPath>
    <linearGradient id="linear-gradient-19" x1="2022.82" y1="152.96" x2="2073.54" y2="152.96" xlink:href="#linear-gradient"/>
    <clipPath id="clip-path-7">
      <path id="SVGID-7" data-name="SVGID" d="M136.22,155.12v1a.76.76,0,0,1-.45.63v-1A.79.79,0,0,0,136.22,155.12Z" style="fill: #186d7d"/>
    </clipPath>
    <clipPath id="clip-path-8">
      <path id="SVGID-8" data-name="SVGID" d="M105.5,156.53v-1a.8.8,0,0,0,.46.65v1A.78.78,0,0,1,105.5,156.53Z" style="fill: #186d7d"/>
    </clipPath>
    <clipPath id="clip-path-9">
      <path id="SVGID-9" data-name="SVGID" d="M121.65,164v1a2.46,2.46,0,0,1-2.21,0v-1A2.4,2.4,0,0,0,121.65,164Z" style="fill: #186d7d"/>
    </clipPath>
    <clipPath id="clip-path-10">
      <path id="SVGID-10" data-name="SVGID" d="M82.54,143.36v-1a.85.85,0,0,0,.51.7v1A.87.87,0,0,1,82.54,143.36Z" style="fill: #186d7d"/>
    </clipPath>
    <clipPath id="clip-path-11">
      <path id="SVGID-11" data-name="SVGID" d="M119.57,145.66v1a.83.83,0,0,1-.49.69v-1A.85.85,0,0,0,119.57,145.66Z" style="fill: #186d7d"/>
    </clipPath>
    <clipPath id="clip-path-12">
      <path id="SVGID-12" data-name="SVGID" d="M105.15,154.45v1a2.69,2.69,0,0,1-2.41,0v-1A2.63,2.63,0,0,0,105.15,154.45Z" style="fill: #186d7d"/>
    </clipPath>
    <clipPath id="clip-path-13">
      <path id="SVGID-13" data-name="SVGID" d="M96.43,132v1a.75.75,0,0,1-.46.63v-1A.79.79,0,0,0,96.43,132Z" style="fill: #186d7d"/>
    </clipPath>
    <clipPath id="clip-path-14">
      <path id="SVGID-14" data-name="SVGID" d="M73.76,138.1v-1a.77.77,0,0,0,.46.64v1A.78.78,0,0,1,73.76,138.1Z" style="fill: #186d7d"/>
    </clipPath>
    <clipPath id="clip-path-15">
      <path id="SVGID-15" data-name="SVGID" d="M81.86,140.81v1a2.44,2.44,0,0,1-2.2,0v-1A2.4,2.4,0,0,0,81.86,140.81Z" style="fill: #186d7d"/>
    </clipPath>
    <linearGradient id="linear-gradient-20" x1="-9295.17" y1="127.37" x2="-9281.97" y2="144.07" gradientTransform="translate(4855.1 8112.07) rotate(60)" gradientUnits="userSpaceOnUse">
      <stop offset="0" stop-color="#aadde5"/>
      <stop offset="1" stop-color="#0f0f10"/>
    </linearGradient>
    <linearGradient id="linear-gradient-21" x1="2065.67" y1="146.09" x2="2076.75" y2="146.09" xlink:href="#linear-gradient"/>
    <linearGradient id="linear-gradient-22" x1="302.97" y1="158.33" x2="308.62" y2="223.36" gradientUnits="userSpaceOnUse">
      <stop offset="0" stop-color="#fff"/>
      <stop offset="1" stop-color="#a9c3d7"/>
    </linearGradient>
    <linearGradient id="linear-gradient-23" x1="10301.61" y1="121.74" x2="10397.46" y2="172.91" gradientTransform="matrix(-1, 0, 0, 1, 10644.9, 0)" gradientUnits="userSpaceOnUse">
      <stop offset="0.01" stop-color="#e3e7f0"/>
      <stop offset="0.27" stop-color="#dee3ee"/>
      <stop offset="0.6" stop-color="#cfd7e7"/>
      <stop offset="0.95" stop-color="#b7c4db"/>
      <stop offset="1" stop-color="#b3c1d9"/>
    </linearGradient>
    <linearGradient id="linear-gradient-24" x1="2258.48" y1="142.98" x2="2260.13" y2="142.98" gradientTransform="matrix(-1, 0, 0, 1, 2559.46, 0)" gradientUnits="userSpaceOnUse">
      <stop offset="0.01" stop-color="#e3e7f0"/>
      <stop offset="1" stop-color="#b3c1d9"/>
    </linearGradient>
    <linearGradient id="linear-gradient-25" x1="10291.02" y1="171.78" x2="10395.99" y2="171.78" gradientTransform="matrix(-1, 0, 0, 1, 10644.9, 0)" xlink:href="#linear-gradient"/>
    <linearGradient id="linear-gradient-26" x1="10286.51" y1="131" x2="10350.86" y2="131" gradientTransform="matrix(-1, 0, 0, 1, 10644.9, 0)" xlink:href="#linear-gradient"/>
    <linearGradient id="linear-gradient-27" x1="2212.6" y1="164.56" x2="2294.24" y2="164.56" gradientTransform="matrix(-1, 0, 0, 1, 2559.46, 0)" xlink:href="#linear-gradient-23"/>
    <linearGradient id="linear-gradient-28" x1="10307.25" y1="127.57" x2="10351.1" y2="144.58" gradientTransform="matrix(-1, 0, 0, 1, 10644.9, 0)" gradientUnits="userSpaceOnUse">
      <stop offset="0" stop-color="#091e32"/>
      <stop offset="1" stop-color="#004b6b"/>
    </linearGradient>
    <linearGradient id="linear-gradient-29" x1="2206.96" y1="132.75" x2="2263.38" y2="132.75" gradientTransform="matrix(-1, 0, 0, 1, 2559.46, 0)" xlink:href="#linear-gradient-23"/>
    <linearGradient id="linear-gradient-30" x1="-28.07" y1="132.13" x2="-23.98" y2="132.13" gradientTransform="translate(333.91)" xlink:href="#linear-gradient"/>
    <clipPath id="clip-path-16">
      <path id="SVGID-16" data-name="SVGID" d="M304.27,132.43l1.78,1a1.57,1.57,0,0,0,1.57-.15l-1.78-1A1.52,1.52,0,0,1,304.27,132.43Z" style="fill: url(#linear-gradient-2)"/>
    </clipPath>
    <linearGradient id="linear-gradient-32" x1="-28.28" y1="132.85" x2="-26.29" y2="132.85" gradientTransform="translate(333.91)" xlink:href="#linear-gradient"/>
    <linearGradient id="linear-gradient-33" x1="-28.84" y1="133" x2="-26.5" y2="133" gradientTransform="translate(333.91)" xlink:href="#linear-gradient"/>
    <linearGradient id="linear-gradient-34" x1="-29.64" y1="133.03" x2="-27.06" y2="133.03" gradientTransform="translate(333.91)" xlink:href="#linear-gradient"/>
    <clipPath id="clip-path-17">
      <path id="SVGID-17" data-name="SVGID" d="M307.61,128.07l-1.79-1a4.77,4.77,0,0,0-1.67,1.77,4.82,4.82,0,0,0-.69,2.32.38.38,0,0,0,0,.1l1.78,1v-.1a4.67,4.67,0,0,1,.69-2.32A4.74,4.74,0,0,1,307.61,128.07Z" style="fill: #fafbfb"/>
    </clipPath>
    <linearGradient id="linear-gradient-35" x1="-30.3" y1="129.21" x2="-26.71" y2="129.21" gradientTransform="translate(333.91)" xlink:href="#linear-gradient"/>
    <linearGradient id="linear-gradient-36" x1="-22.05" y1="128.26" x2="-20.61" y2="128.26" gradientTransform="translate(333.91)" xlink:href="#linear-gradient"/>
    <linearGradient id="linear-gradient-37" x1="-20.61" y1="128.57" x2="-18.07" y2="128.57" gradientTransform="translate(333.91)" xlink:href="#linear-gradient"/>
    <linearGradient id="linear-gradient-38" x1="-16.86" y1="129.95" x2="-10.91" y2="129.95" gradientTransform="translate(333.91)" xlink:href="#linear-gradient"/>
    <clipPath id="clip-path-18">
      <path id="SVGID-18" data-name="SVGID" d="M313.72,116.52l-1.36.79a2.64,2.64,0,0,0-1.11,2.44,8.37,8.37,0,0,0,3.79,6.57l1.36-.8a8.36,8.36,0,0,1-3.79-6.56A2.67,2.67,0,0,1,313.72,116.52Z" style="fill: none"/>
    </clipPath>
    <linearGradient id="linear-gradient-39" x1="-21.34" y1="124.68" x2="-17.51" y2="124.68" gradientTransform="translate(333.91)" xlink:href="#linear-gradient"/>
    <linearGradient id="linear-gradient-40" x1="-22.17" y1="122.63" x2="-19.98" y2="122.63" gradientTransform="translate(333.91)" xlink:href="#linear-gradient"/>
    <linearGradient id="linear-gradient-41" x1="-22.66" y1="119.36" x2="-20.19" y2="119.36" gradientTransform="translate(333.91)" xlink:href="#linear-gradient"/>
    <clipPath id="clip-path-19">
      <path id="SVGID-19" data-name="SVGID" d="M317.74,126.58l1.37-.79a2.7,2.7,0,0,1-2.71-.27l-1.36.8A2.67,2.67,0,0,0,317.74,126.58Z" style="fill: none"/>
    </clipPath>
    <linearGradient id="linear-gradient-42" x1="-17.02" y1="126.31" x2="-14.8" y2="126.31" gradientTransform="translate(333.91)" xlink:href="#linear-gradient"/>
    <linearGradient id="linear-gradient-43" x1="-18.87" y1="126.18" x2="-15.66" y2="126.18" gradientTransform="translate(333.91)" xlink:href="#linear-gradient"/>
    <clipPath id="clip-path-20">
      <path id="SVGID-20" data-name="SVGID" d="M311.93,113.44l-1.36.79c1.15-.67,2.74-.58,4.5.44l1.37-.79C314.68,112.86,313.08,112.77,311.93,113.44Z" style="fill: #fafbfb"/>
    </clipPath>
    <clipPath id="clip-path-21">
      <path id="SVGID-21" data-name="SVGID" d="M319.54,129.66l1.36-.79c1.14-.66,1.84-2.07,1.85-4.06a13.93,13.93,0,0,0-6.31-10.93l-1.37.79a13.9,13.9,0,0,1,6.31,10.93C321.38,127.6,320.67,129,319.54,129.66Z" style="fill: #fafbfb"/>
    </clipPath>
    <linearGradient id="linear-gradient-44" x1="-26.8" y1="127.19" x2="-12.1" y2="127.19" gradientTransform="translate(333.91)" xlink:href="#linear-gradient"/>
    <clipPath id="clip-path-22">
      <path id="SVGID-22" data-name="SVGID" d="M302.69,127.81v.28a.22.22,0,0,0,.13.19V128A.23.23,0,0,1,302.69,127.81Z" style="fill: #186d7d"/>
    </clipPath>
    <clipPath id="clip-path-23">
      <path id="SVGID-23" data-name="SVGID" d="M311.59,127.94a.22.22,0,0,1-.13.18v.29" style="fill: #186d7d"/>
    </clipPath>
    <clipPath id="clip-path-24">
      <path id="SVGID-24" data-name="SVGID" d="M306.91,130.38v.28a.72.72,0,0,0,.64,0v-.28A.72.72,0,0,1,306.91,130.38Z" style="fill: #186d7d"/>
    </clipPath>
    <clipPath id="clip-path-25">
      <path id="SVGID-25" data-name="SVGID" d="M318.25,124.4v-.28c0,.07-.05.14-.15.2v.28A.24.24,0,0,0,318.25,124.4Z" style="fill: #186d7d"/>
    </clipPath>
    <clipPath id="clip-path-26">
      <path id="SVGID-26" data-name="SVGID" d="M307.52,125.07v.28a.25.25,0,0,0,.14.2v-.28A.26.26,0,0,1,307.52,125.07Z" style="fill: #186d7d"/>
    </clipPath>
    <clipPath id="clip-path-27">
      <path id="SVGID-27" data-name="SVGID" d="M312.39,127.9v-.28a.76.76,0,0,1-.69,0" style="fill: #186d7d"/>
    </clipPath>
    <clipPath id="clip-path-28">
      <path id="SVGID-28" data-name="SVGID" d="M314.22,121.1v.28c0,.07,0,.13.14.19v-.29A.23.23,0,0,1,314.22,121.1Z" style="fill: #186d7d"/>
    </clipPath>
    <clipPath id="clip-path-29">
      <path id="SVGID-29" data-name="SVGID" d="M320.79,122.88v-.29a.22.22,0,0,1-.13.19v.28C320.75,123,320.8,122.94,320.79,122.88Z" style="fill: #186d7d"/>
    </clipPath>
    <clipPath id="clip-path-30">
      <path id="SVGID-30" data-name="SVGID" d="M318.45,123.66V124a.72.72,0,0,0,.64,0v-.29A.66.66,0,0,1,318.45,123.66Z" style="fill: #186d7d"/>
    </clipPath>
    <linearGradient id="linear-gradient-45" x1="-14.38" y1="125.19" x2="-11.16" y2="125.19" gradientTransform="translate(333.91)" xlink:href="#linear-gradient"/>
  </defs>
  <title>isohero-nmonitor</title>
  <g style="isolation: isolate">
    <g id="arte">
      <g>
        <path d="M215.09,87.83c58.7,10.23,144,6.51,157.23,60.51,10.79,43.93-59.38,129.79-243.67,93.19C46,225.12,28.93,173.38,33.37,140.88,42.41,74.6,124.09,72,215.09,87.83Z" style="fill: url(#linear-gradient-3)"/>
        <g>
          <g>
            <g style="mix-blend-mode: multiply">
              <path d="M174.71,184.45l-66.87-39.19a6,6,0,0,0-5.45,0l-72,42.17c-1.5.87-1.5,2.29,0,3.16l66.87,39.19a6,6,0,0,0,5.45,0l72-42.17C176.23,186.74,176.22,185.32,174.71,184.45Z" style="fill: url(#linear-gradient-4)"/>
            </g>
            <g style="isolation: isolate">
              <path d="M174.71,159.27l-66.87-39.19a6,6,0,0,0-5.45,0l-72,42.17c-1.5.87-1.5,2.28,0,3.16l66.87,39.18a6,6,0,0,0,5.45,0l72-42.17C176.23,161.55,176.22,160.14,174.71,159.27Z" style="fill: #b8e3f0"/>
              <path d="M174.73,162.42l-72,42.17a6,6,0,0,1-5.45,0L30.4,165.41a1.91,1.91,0,0,1-1.13-1.59v3.59A1.91,1.91,0,0,0,30.39,169l66.87,39.19a6,6,0,0,0,5.45,0l72-42.17a1.93,1.93,0,0,0,1.12-1.57v-3.59A1.92,1.92,0,0,1,174.73,162.42Z" style="fill: #95d4ec"/>
            </g>
          </g>
          <g>
            <g style="isolation: isolate">
              <polygon points="111.23 169.51 117.38 165.94 125.36 170.55 119.21 174.13 111.23 169.51" style="fill: url(#linear-gradient-5)"/>
              <g>
                <path id="SVGID-31" data-name="SVGID" d="M130.77,171.07l-6.15,3.58c-1.39.8-3.3.69-5.41-.53l6.15-3.57C127.47,171.77,129.39,171.88,130.77,171.07Z" style="fill: url(#linear-gradient)"/>
                <g style="clip-path: url(#clip-path)">
                  <g style="isolation: isolate">
                    <path d="M119.21,174.12l6.15-3.57c.24.14.48.26.71.37l-6.15,3.57c-.24-.11-.47-.23-.71-.37Z" style="fill: url(#linear-gradient-7)"/>
                    <path d="M119.92,174.49l6.15-3.57a6.77,6.77,0,0,0,1.94.61l-6.15,3.58a7.14,7.14,0,0,1-1.94-.62Z" style="fill: url(#linear-gradient-8)"/>
                    <path d="M121.86,175.11l6.15-3.58a4.14,4.14,0,0,0,2.76-.46l-6.15,3.58a4.22,4.22,0,0,1-2.76.46Z" style="fill: url(#linear-gradient-9)"/>
                  </g>
                </g>
              </g>
              <polygon points="127.39 170.44 133.55 166.87 133.53 175.91 127.37 179.49 127.39 170.44" style="fill: #fafbfb"/>
              <polygon points="114.53 153.28 120.68 149.7 125.42 152.43 119.26 156.01 114.53 153.28" style="fill: #fff"/>
              <g style="isolation: isolate">
                <path id="SVGID-32" data-name="SVGID" d="M119.26,156l6.15-3.58a18,18,0,0,1,8.14,14.1v.34l-6.16,3.57c0-.11,0-.22,0-.34A18,18,0,0,0,119.26,156Z" style="fill: #fafbfb"/>
                <g style="clip-path: url(#clip-path-2)">
                  <g style="isolation: isolate">
                    <path d="M119.26,156l6.15-3.58a13.93,13.93,0,0,1,1.41.95L120.67,157a11.24,11.24,0,0,0-1.41-1Z" style="fill: #fff"/>
                    <path d="M120.67,157l6.15-3.58a17.73,17.73,0,0,1,4.35,5.14A19,19,0,0,1,133,162.9l-6.15,3.58a18.83,18.83,0,0,0-1.86-4.39,17.68,17.68,0,0,0-4.35-5.13Z" style="fill: url(#linear-gradient-10)"/>
                    <path d="M126.88,166.48,133,162.9a14.64,14.64,0,0,1,.49,2.67l-6.16,3.58a14.45,14.45,0,0,0-.48-2.67Z" style="fill: #fafbfb"/>
                    <path d="M127.36,169.15l6.16-3.58q0,.48,0,1v.34l-6.16,3.57c0-.11,0-.22,0-.34,0-.31,0-.63,0-.95Z" style="fill: #fafbfb"/>
                  </g>
                </g>
              </g>
              <path d="M119.26,156a18,18,0,0,1,8.14,14.09c0,.12,0,.23,0,.34l0,9.05-8.16-4.72-8-4.61v-.65l8,4.61c4.19,2.42,7.61.48,7.63-4.34a16.75,16.75,0,0,0-7.58-13.13l-4.73-2.73v-.64Z" style="fill: #cbd2db"/>
            </g>
            <g style="isolation: isolate">
              <polygon points="99.6 153.18 99.61 157.29 104.59 160.18 104.57 156.07 99.6 153.18" style="fill: url(#linear-gradient-11)"/>
              <polygon points="104.57 156.07 104.59 160.18 113.74 154.9 113.73 150.78 104.57 156.07" style="fill: #fafbfb"/>
              <polygon points="90.86 158.22 90.87 162.34 99.61 157.29 99.6 153.18 90.86 158.22" style="fill: url(#linear-gradient-12)"/>
              <polygon points="86.68 166.4 86.69 170.51 95.85 165.23 95.83 161.12 86.68 166.4" style="fill: #fafbfb"/>
              <polygon points="86.68 166.4 81.7 163.51 71.11 157.36 66.14 154.47 66.15 158.58 71.13 161.47 81.71 167.62 86.69 170.51 86.68 166.4" style="fill: url(#linear-gradient-13)"/>
              <polygon points="66.14 154.47 71.11 157.36 81.7 163.51 86.68 166.4 95.83 161.12 90.86 158.22 99.6 153.18 104.57 156.07 113.73 150.78 108.75 147.89 98.17 141.74 93.19 138.85 66.14 154.47" style="fill: #fafbfb"/>
            </g>
            <g style="isolation: isolate">
              <g style="isolation: isolate">
                <g style="clip-path: url(#clip-path-3)">
                  <g>
                    <path d="M93.62,150l-4.71-2.73a26.06,26.06,0,0,0,8.51-8.53l4.71,2.73A26.06,26.06,0,0,1,93.62,150Z" style="fill: url(#linear-gradient-14)"/>
                    <path d="M102.13,141.43l-4.71-2.73a31.36,31.36,0,0,0,2.87-5.66l4.7,2.74a31.89,31.89,0,0,1-2.86,5.65Z" style="opacity: 0;fill: url(#linear-gradient-15)"/>
                    <path d="M105,135.78l-4.7-2.74a23.67,23.67,0,0,0,1.7-8.46c0-4.14-1.47-7-3.83-8.42l4.71,2.74c2.35,1.36,3.81,4.27,3.83,8.41a24,24,0,0,1-1.71,8.47Z" style="fill: url(#linear-gradient-16)"/>
                  </g>
                </g>
              </g>
              <g style="isolation: isolate">
                <g style="clip-path: url(#clip-path-4)">
                  <g>
                    <path d="M84.28,150.88l-4.7-2.74a6.6,6.6,0,0,0,3,.87l4.71,2.74a6.77,6.77,0,0,1-3-.87Z" style="fill: url(#linear-gradient-17)"/>
                    <path d="M87.24,151.75,82.53,149a11.54,11.54,0,0,0,6.38-1.78L93.62,150a11.58,11.58,0,0,1-6.38,1.79Z" style="fill: url(#linear-gradient-18)"/>
                  </g>
                </g>
              </g>
              <g>
                <path id="SVGID-33" data-name="SVGID" d="M104.34,105.53l4.71,2.73c-4-2.31-9.47-2-15.55,1.52l-4.7-2.73C94.87,103.54,100.37,103.22,104.34,105.53Z" style="fill: #fafbfb"/>
                <g style="clip-path: url(#clip-path-5)">
                  <g>
                    <path d="M93.5,109.78l-4.7-2.73a19.13,19.13,0,0,1,10.63-3l4.7,2.73c-3.15-.2-6.77.75-10.63,3Z" style="fill: #fafbfb"/>
                    <path d="M104.13,106.81l-4.7-2.73a10.91,10.91,0,0,1,4.91,1.45l4.71,2.73a11.21,11.21,0,0,0-4.92-1.45Z" style="fill: #fafbfb"/>
                  </g>
                </g>
              </g>
              <g>
                <path id="SVGID-34" data-name="SVGID" d="M78.1,161.51l-4.7-2.74c-3.92-2.27-6.36-7.12-6.38-14C67,130.9,76.73,114,88.8,107.05l4.7,2.73c-12.06,7-21.81,23.85-21.77,37.72C71.75,154.38,74.18,159.23,78.1,161.51Z" style="fill: #fafbfb"/>
                <g style="clip-path: url(#clip-path-6)">
                  <g style="isolation: isolate">
                    <path d="M79.33,124l-4.7-2.74c3.81-6,8.75-11.07,14.17-14.2l4.7,2.73A43.41,43.41,0,0,0,79.33,124Z" style="fill: #fafbfb"/>
                  </g>
                </g>
              </g>
              <path d="M115.42,122.27c0-13.86-9.85-19.45-21.92-12.49A35.6,35.6,0,0,0,87,114.64c2.28,1.68,4.39,3.48,6.58,5.12,7.2-4.11,13-.74,13.08,7.55S100.86,145.78,93.62,150a13.37,13.37,0,0,1-4.34,1.66c.15,1.53.26,3.06.36,4.6l18.24-10.53C112.52,138.4,115.44,129.88,115.42,122.27Z" style="fill: #fff"/>
            </g>
            <g>
              <g>
                <g style="isolation: isolate">
                  <polygon points="137.28 156.9 137.27 159.34 120.95 168.83 120.95 166.39 137.28 156.9" style="fill: #fafbfb"/>
                  <polygon points="120.95 166.39 120.95 168.83 70.23 139.54 70.24 137.1 120.95 166.39" style="fill: url(#linear-gradient-19)"/>
                  <polygon points="137.28 156.9 120.95 166.39 70.24 137.1 86.56 127.61 137.28 156.9" style="fill: #fff"/>
                </g>
                <g style="isolation: isolate">
                  <g>
                    <path id="SVGID-35" data-name="SVGID" d="M136.22,155.12v1a.76.76,0,0,1-.45.63v-1A.79.79,0,0,0,136.22,155.12Z" style="fill: #186d7d"/>
                    <g style="clip-path: url(#clip-path-7)">
                      <g style="isolation: isolate">
                        <path d="M136.22,155.12v1a.55.55,0,0,1-.17.4v-1a.63.63,0,0,0,.16-.41Z" style="fill: #186d7d"/>
                        <path d="M136.06,155.53v1a.81.81,0,0,1-.28.23v-1a1.4,1.4,0,0,0,.29-.23Z" style="fill: #186d7d"/>
                      </g>
                    </g>
                  </g>
                  <g>
                    <path id="SVGID-36" data-name="SVGID" d="M105.5,156.53v-1a.8.8,0,0,0,.46.65v1A.78.78,0,0,1,105.5,156.53Z" style="fill: #186d7d"/>
                    <g style="clip-path: url(#clip-path-8)">
                      <path d="M106,156.2v1a.78.78,0,0,1-.46-.64v-1a.8.8,0,0,0,.46.65Z" style="fill: #186d7d"/>
                    </g>
                  </g>
                  <polygon points="135.77 155.76 135.77 156.73 121.65 164.95 121.65 163.97 135.77 155.76" style="fill: #186d7d"/>
                  <polygon points="119.44 163.97 119.44 164.95 105.96 157.17 105.97 156.2 119.44 163.97" style="fill: #186d7d"/>
                  <g>
                    <path id="SVGID-37" data-name="SVGID" d="M121.65,164v1a2.46,2.46,0,0,1-2.21,0v-1A2.4,2.4,0,0,0,121.65,164Z" style="fill: #186d7d"/>
                    <g style="clip-path: url(#clip-path-9)">
                      <g style="isolation: isolate">
                        <path d="M121.65,164v1a1.93,1.93,0,0,1-.78.24v-1a2.11,2.11,0,0,0,.78-.25Z" style="fill: #186d7d"/>
                        <path d="M120.87,164.22v1a2.43,2.43,0,0,1-1.43-.24v-1a2.36,2.36,0,0,0,1.43.25Z" style="fill: #186d7d"/>
                      </g>
                    </g>
                  </g>
                  <path d="M135.76,154.48a.68.68,0,0,1,0,1.28L121.65,164a2.4,2.4,0,0,1-2.21,0L106,156.2a.68.68,0,0,1,0-1.28l14.12-8.22a2.46,2.46,0,0,1,2.21,0Z" style="fill: #078fa9"/>
                </g>
              </g>
              <g style="isolation: isolate">
                <g>
                  <path id="SVGID-38" data-name="SVGID" d="M82.54,143.36v-1a.85.85,0,0,0,.51.7v1A.87.87,0,0,1,82.54,143.36Z" style="fill: #186d7d"/>
                  <g style="clip-path: url(#clip-path-10)">
                    <path d="M83.05,143.08v1a.87.87,0,0,1-.5-.7v-1a.85.85,0,0,0,.51.7Z" style="fill: #186d7d"/>
                  </g>
                </g>
                <g>
                  <path id="SVGID-39" data-name="SVGID" d="M119.57,145.66v1a.83.83,0,0,1-.49.69v-1A.85.85,0,0,0,119.57,145.66Z" style="fill: #186d7d"/>
                  <g style="clip-path: url(#clip-path-11)">
                    <g style="isolation: isolate">
                      <path d="M119.57,145.66v1a.68.68,0,0,1-.18.44v-1a.62.62,0,0,0,.19-.44Z" style="fill: #186d7d"/>
                      <path d="M119.38,146.1v1a1.35,1.35,0,0,1-.31.25v-1a1,1,0,0,0,.31-.25Z" style="fill: #186d7d"/>
                    </g>
                  </g>
                </g>
                <polygon points="119.07 146.35 119.07 147.33 105.15 155.43 105.15 154.45 119.07 146.35" style="fill: #186d7d"/>
                <polygon points="102.74 154.45 102.74 155.43 83.04 144.06 83.05 143.08 102.74 154.45" style="fill: #186d7d"/>
                <g>
                  <path id="SVGID-40" data-name="SVGID" d="M105.15,154.45v1a2.69,2.69,0,0,1-2.41,0v-1A2.63,2.63,0,0,0,105.15,154.45Z" style="fill: #186d7d"/>
                  <g style="clip-path: url(#clip-path-12)">
                    <g style="isolation: isolate">
                      <path d="M105.15,154.45v1a2.12,2.12,0,0,1-.85.26v-1a2.3,2.3,0,0,0,.85-.27Z" style="fill: #186d7d"/>
                      <path d="M104.3,154.72v1a2.63,2.63,0,0,1-1.56-.26v-1a2.56,2.56,0,0,0,1.56.27Z" style="fill: #186d7d"/>
                    </g>
                  </g>
                </g>
                <path d="M119.06,145c.67.39.67,1,0,1.39l-13.92,8.1a2.63,2.63,0,0,1-2.41,0L83.05,143.08a.73.73,0,0,1,0-1.39L97,133.59a2.63,2.63,0,0,1,2.41,0Z" style="fill: #078fa9"/>
              </g>
              <g style="isolation: isolate">
                <g>
                  <path id="SVGID-41" data-name="SVGID" d="M96.43,132v1a.75.75,0,0,1-.46.63v-1A.79.79,0,0,0,96.43,132Z" style="fill: #186d7d"/>
                  <g style="clip-path: url(#clip-path-13)">
                    <g style="isolation: isolate">
                      <path d="M96.43,132v1a.6.6,0,0,1-.17.4v-1a.64.64,0,0,0,.17-.41Z" style="fill: #186d7d"/>
                      <path d="M96.26,132.37v1a1,1,0,0,1-.29.23v-1a1.11,1.11,0,0,0,.28-.23Z" style="fill: #186d7d"/>
                    </g>
                  </g>
                </g>
                <g>
                  <path id="SVGID-42" data-name="SVGID" d="M73.76,138.1v-1a.77.77,0,0,0,.46.64v1A.78.78,0,0,1,73.76,138.1Z" style="fill: #186d7d"/>
                  <g style="clip-path: url(#clip-path-14)">
                    <path d="M74.22,137.76v1a.78.78,0,0,1-.46-.64v-1a.77.77,0,0,0,.46.64Z" style="fill: #186d7d"/>
                  </g>
                </g>
                <polygon points="95.98 132.6 95.97 133.57 81.85 141.79 81.86 140.81 95.98 132.6" style="fill: #186d7d"/>
                <polygon points="79.65 140.81 79.65 141.79 74.22 138.74 74.22 137.76 79.65 140.81" style="fill: #186d7d"/>
                <g>
                  <path id="SVGID-43" data-name="SVGID" d="M81.86,140.81v1a2.44,2.44,0,0,1-2.2,0v-1A2.4,2.4,0,0,0,81.86,140.81Z" style="fill: #186d7d"/>
                  <g style="clip-path: url(#clip-path-15)">
                    <g style="isolation: isolate">
                      <path d="M81.86,140.81v1a1.93,1.93,0,0,1-.77.24v-1a2.11,2.11,0,0,0,.78-.25Z" style="fill: #186d7d"/>
                      <path d="M81.08,141.06v1a2.43,2.43,0,0,1-1.43-.24v-1a2.36,2.36,0,0,0,1.43.25Z" style="fill: #186d7d"/>
                    </g>
                  </g>
                </g>
                <path d="M96,131.32a.68.68,0,0,1,0,1.28l-14.12,8.21a2.4,2.4,0,0,1-2.21,0l-5.43-3.05a.67.67,0,0,1,0-1.27l14.12-8.22a2.44,2.44,0,0,1,2.2,0Z" style="fill: #078fa9"/>
              </g>
            </g>
            <path d="M80.46,142.46c0-8.33,5.83-18.47,13.07-22.65l.09,0c-2.19-1.64-4.3-3.44-6.58-5.12C78.14,123,71.7,136.22,71.73,147.5c0,7.61,3,12.72,7.65,14.64l10.26-5.92c-.1-1.54-.21-3.07-.36-4.6C84.16,152.52,80.47,149,80.46,142.46Z" style="fill: #fff"/>
            <ellipse cx="93.5" cy="135.09" rx="18.78" ry="10.84" transform="translate(-70.24 148.52) rotate(-60)" style="opacity: 0.5;mix-blend-mode: screen;fill: url(#linear-gradient-20)"/>
            <path d="M78.1,161.51l-4.7-2.74c-3.92-2.27-6.36-7.12-6.38-14a39.64,39.64,0,0,1,2.84-14.1l4.7,2.74a39.76,39.76,0,0,0-2.83,14.1c0,6.88,2.45,11.73,6.37,14Z" style="fill: url(#linear-gradient-21)"/>
            <path d="M74.56,133.4l-4.7-2.74a52.66,52.66,0,0,1,4.77-9.41l4.7,2.74a53,53,0,0,0-4.77,9.41Z" style="fill: #fafbfb"/>
            <path d="M92.83,116a1.75,1.75,0,0,1,.79-1.36c.43-.25.79,0,.79.45a1.75,1.75,0,0,1-.79,1.37C93.19,116.67,92.83,116.46,92.83,116Z" style="fill: #ec1845"/>
            <path d="M98.08,115.09a1.74,1.74,0,0,1,.78-1.36c.44-.25.79,0,.79.45a1.73,1.73,0,0,1-.79,1.37C98.43,115.8,98.08,115.59,98.08,115.09Z" style="fill: #ec1845"/>
            <path d="M88.43,119.87a1.74,1.74,0,0,1,.78-1.36c.44-.25.79-.05.79.46a1.72,1.72,0,0,1-.79,1.36C88.78,120.58,88.43,120.38,88.43,119.87Z" style="fill: #ec1845"/>
          </g>
        </g>
        <g>
          <line x1="92.83" y1="37.34" x2="92.83" y2="37.34" style="fill: none;stroke: #00709e;stroke-linecap: round;stroke-linejoin: round;stroke-width: 1.88751888275147px"/>
          <path d="M92.83,32.6V30.15a2,2,0,0,1,2-2H303.23a2,2,0,0,1,2,2V80.92" style="fill: none;stroke: #00709e;stroke-linecap: round;stroke-linejoin: round;stroke-width: 1.88751888275147px;stroke-dasharray: 0,4.742550373077393"/>
          <line x1="305.25" y1="83.3" x2="305.25" y2="83.3" style="fill: none;stroke: #00709e;stroke-linecap: round;stroke-linejoin: round;stroke-width: 1.88751888275147px"/>
          <polygon points="297.54 77.04 298.92 75.75 305.25 82.57 311.59 75.75 312.97 77.04 305.25 85.34 297.54 77.04" style="fill: #00709e"/>
        </g>
        <g>
          <g>
            <path d="M190.79,36.32a8.2,8.2,0,1,1,0-16.4,8,8,0,0,1,1.47.13,10.23,10.23,0,0,1,18.38,4.6,5.87,5.87,0,0,1-.51,11.66H190.79Z" style="fill: #89d6f2"/>
            <path d="M200.51,16.38a9.71,9.71,0,0,1,9.67,8.72,5.37,5.37,0,0,1-.45,10.72H190.79a7.7,7.7,0,0,1,0-15.39,8,8,0,0,1,1.7.18,9.72,9.72,0,0,1,8-4.23m0-1A10.75,10.75,0,0,0,192,19.5a8.71,8.71,0,1,0-1.25,17.33h19.85v-.07a6.38,6.38,0,0,0,.44-12.54,10.69,10.69,0,0,0-10.57-8.86Z" style="fill: #89d6f2"/>
            <path d="M200.51,17.39a8.67,8.67,0,0,1,8.66,7.82l.09.83.84.07a4.35,4.35,0,0,1-.4,8.69h-.06l-1,0v0H190.79a6.68,6.68,0,1,1,0-13.36,6.62,6.62,0,0,1,1.47.16l.67.15.39-.56a8.72,8.72,0,0,1,7.19-3.8m0-1a9.72,9.72,0,0,0-8,4.23,8,8,0,0,0-1.7-.18,7.7,7.7,0,0,0,0,15.39h18.94a5.37,5.37,0,0,0,.45-10.72,9.71,9.71,0,0,0-9.67-8.72Z" style="fill: #00394b"/>
          </g>
          <g style="opacity: 0.1">
            <path d="M210.94,33.39H193.09a7.26,7.26,0,0,1-7.26-7.26,23.89,23.89,0,0,1,.6-4.42,7.7,7.7,0,0,0,4.26,14.11h18.93a5.38,5.38,0,0,0,5.27-4.33A5,5,0,0,1,210.94,33.39Z"/>
          </g>
        </g>
        <g>
          <line x1="92.83" y1="93.59" x2="92.83" y2="93.59" style="fill: none;stroke: #004b6b;stroke-linecap: round;stroke-linejoin: round;stroke-width: 1.88751888275147px"/>
          <line x1="92.83" y1="88.52" x2="92.83" y2="75.85" style="fill: none;stroke: #004b6b;stroke-linecap: round;stroke-linejoin: round;stroke-width: 1.88751888275147px;stroke-dasharray: 0,5.069686412811279"/>
          <line x1="92.83" y1="73.31" x2="92.83" y2="73.31" style="fill: none;stroke: #004b6b;stroke-linecap: round;stroke-linejoin: round;stroke-width: 1.88751888275147px"/>
          <rect x="86.7" y="92.65" width="12.27" height="1.89" style="fill: #004b6b"/>
        </g>
        <g>
          <path d="M90.69,47.28,81.94,62.43a2,2,0,0,0,1.71,3h17.49a2,2,0,0,0,1.72-3L94.11,47.28A2,2,0,0,0,90.69,47.28Z" style="fill: #ede845"/>
          <path d="M87.56,55.84l-4.06,6.6c-.33.73.09,1.64.74,1.64h16.18c.66,0,1.07-.91.74-1.64l-.24-.54s-7.4.08-9.11.08C85.91,62,87.56,55.84,87.56,55.84Z" style="opacity: 0.15"/>
          <path d="M91.61,48.78,83.76,62.47a.91.91,0,0,0,.79,1.36h15.69a.91.91,0,0,0,.79-1.36L93.18,48.78A.91.91,0,0,0,91.61,48.78Z" style="fill: none;stroke: #003a4b;stroke-miterlimit: 10"/>
          <text transform="translate(90.54 62.15)" style="font-size: 12px;fill: #003a4b;font-family: GothamRounded-Bold, Gotham Rounded;font-weight: 700">!</text>
        </g>
        <g style="mix-blend-mode: multiply">
          <path d="M358,190.45l-58.57-34.18a6.27,6.27,0,0,0-5.69,0l-40.84,24.25c-1.56.91-1.56,2.38,0,3.3L311.5,218a6.27,6.27,0,0,0,5.69,0L358,193.75C359.6,192.84,359.59,191.36,358,190.45Z" style="fill: url(#linear-gradient-22)"/>
        </g>
        <g>
          <g>
            <path d="M353.58,124.43,296.1,91.05c-1.57-.91-2.86-.19-2.86,1.61L293,134a6.38,6.38,0,0,0,2.83,4.93l57.48,33.38c1.57.92,2.85.19,2.86-1.61l.22-41.28A6.31,6.31,0,0,0,353.58,124.43Z" style="fill: url(#linear-gradient-23)"/>
            <rect x="299.33" y="141.85" width="1.65" height="2.27" style="fill: url(#linear-gradient-24)"/>
            <path d="M353.88,173.57h-1.53v1.67l-57.14-33.19a6.23,6.23,0,0,0-5.67,0L248.9,162.9v3.65h0a2.09,2.09,0,0,0,1.17,1.57l57.49,33.38a6.32,6.32,0,0,0,5.67,0l39.47-22.79a2,2,0,0,0,1.16-1.55h0Z" style="fill: url(#linear-gradient-25)"/>
            <path d="M352.71,175.19,313.24,198a6.35,6.35,0,0,1-5.67,0l-57.49-33.39c-1.56-.91-1.57-2.39,0-3.29l39.46-22.78a6.17,6.17,0,0,1,5.67,0l5.77,3.35-1.09.63,41.74,24.09,1-.56,10.1,5.87C354.27,172.8,354.28,174.28,352.71,175.19Z" style="fill: #fff"/>
            <path d="M295.26,90.17l.81-.47a2,2,0,0,1,2,.2l57.48,33.39a6.31,6.31,0,0,1,2.81,4.92l-.2,41.28a2,2,0,0,1-.84,1.82l-2,1.18a2,2,0,0,0,.83-1.82l.21-41.28a6.3,6.3,0,0,0-2.82-4.93L296.07,91.08a2,2,0,0,0-2-.22Z" style="fill: url(#linear-gradient-26)"/>
            <g>
              <path d="M345.34,181a2.33,2.33,0,0,1-.95,1.83c-.53.3-1,0-1-.73a2.31,2.31,0,0,1,1-1.83C344.91,180,345.34,180.3,345.34,181Z" style="fill: #30302f"/>
              <path d="M343.54,182.31a2.27,2.27,0,0,0,1-1.82,2,2,0,0,0,0-.25c.48-.22.86.1.86.77a2.33,2.33,0,0,1-.95,1.83c-.47.26-.85,0-.94-.49Z" style="fill: #5c6a7c"/>
              <path d="M344.12,182.69a2.31,2.31,0,0,0,1-1.83,1,1,0,0,0-.22-.68c.29.06.48.35.48.83a2.33,2.33,0,0,1-.95,1.83.57.57,0,0,1-.74-.05A.65.65,0,0,0,344.12,182.69Z" style="fill: #f2f2f2"/>
            </g>
            <g>
              <path d="M342,183a2.31,2.31,0,0,1-1,1.83c-.53.3-1,0-1-.73a2.31,2.31,0,0,1,1-1.83C341.53,182,342,182.27,342,183Z" style="fill: #30302f"/>
              <path d="M340.15,184.29a2.31,2.31,0,0,0,1-1.84,1.94,1.94,0,0,0,0-.24c.49-.22.87.1.87.77a2.31,2.31,0,0,1-1,1.83c-.46.27-.85.05-.94-.49Z" style="fill: #5c6a7c"/>
              <path d="M340.74,184.66a2.33,2.33,0,0,0,.95-1.83.94.94,0,0,0-.22-.68c.29.06.49.35.49.83a2.31,2.31,0,0,1-1,1.83.56.56,0,0,1-.74-.05A.69.69,0,0,0,340.74,184.66Z" style="fill: #f2f2f2"/>
            </g>
            <path d="M346.75,173.64a3.68,3.68,0,0,1-1.69,1.75L324.9,187.11a8.22,8.22,0,0,1-7.37.3L266.5,158l-.06,0a2.39,2.39,0,0,1-1.09-1.18c-.4-1,.18-2.16,1.68-3L287.2,142a8.19,8.19,0,0,1,7.37-.31l51,29.43a2.53,2.53,0,0,1,1.07,1.06A1.75,1.75,0,0,1,346.75,173.64Z" style="fill: url(#linear-gradient-27)"/>
            <path d="M346.75,173.64a3.68,3.68,0,0,1-1.69,1.75L324.9,187.11a8.22,8.22,0,0,1-7.37.3L266.5,158l-.06,0a2.39,2.39,0,0,1-1.09-1.18A3.66,3.66,0,0,1,267,155l20.17-11.72a8.22,8.22,0,0,1,7.37-.31l51,29.44a2.57,2.57,0,0,1,1.07,1.05A1.42,1.42,0,0,1,346.75,173.64Z" style="fill: #f2f2f2"/>
            <g>
              <polygon points="294.5 149.77 290.5 152.07 294.62 154.48 298.62 152.18 294.5 149.77" style="fill: #5c6a7c"/>
              <polygon points="288.13 151.72 284.15 154.01 288.27 156.41 292.26 154.13 288.13 151.72" style="fill: #5c6a7c"/>
              <polygon points="282.39 148.68 277.78 151.32 275.12 152.84 273.79 153.61 280.74 157.67 284.73 155.39 282.59 154.14 287.2 151.47 282.39 148.68" style="fill: #5c6a7c"/>
              <polygon points="292.78 154.42 288.78 156.72 292.91 159.12 296.88 156.83 292.78 154.42" style="fill: #5c6a7c"/>
              <polygon points="272.86 154.14 268.87 156.44 277.37 161.41 281.36 159.11 272.86 154.14" style="fill: #5c6a7c"/>
              <polygon points="281.77 159.35 277.78 161.63 284.22 165.4 288.22 163.1 281.77 159.35" style="fill: #5c6a7c"/>
              <polygon points="294.49 161.09 290.48 163.38 294.62 165.78 298.6 163.49 294.49 161.09" style="fill: #5c6a7c"/>
              <polygon points="292.43 142.9 288.44 145.2 292.57 147.6 296.56 145.31 292.43 142.9" style="fill: #5c6a7c"/>
              <polygon points="297.33 145.76 293.34 148.05 297.46 150.47 301.46 148.18 297.33 145.76" style="fill: #5c6a7c"/>
              <polygon points="287.54 145.71 283.55 148 289.93 151.74 293.93 149.44 287.54 145.71" style="fill: #5c6a7c"/>
              <polygon points="302.24 148.63 298.25 150.93 302.37 153.33 306.36 151.04 302.24 148.63" style="fill: #5c6a7c"/>
              <polygon points="307.15 151.5 303.15 153.8 307.28 156.19 311.27 153.91 307.15 151.5" style="fill: #5c6a7c"/>
              <polygon points="299.19 152.51 295.19 154.79 299.32 157.22 303.3 154.91 299.19 152.51" style="fill: #5c6a7c"/>
              <polygon points="312.06 154.37 308.05 156.65 312.18 159.07 316.18 156.77 312.06 154.37" style="fill: #5c6a7c"/>
              <polygon points="303.88 155.25 299.89 157.54 304.01 159.94 308 157.66 303.88 155.25" style="fill: #5c6a7c"/>
              <polygon points="285.26 155.69 281.27 157.99 285.39 160.4 289.38 158.1 285.26 155.69" style="fill: #5c6a7c"/>
              <polygon points="316.96 157.22 312.97 159.53 317.09 161.93 321.09 159.64 316.96 157.22" style="fill: #5c6a7c"/>
              <polygon points="297.41 157.14 293.42 159.42 297.54 161.83 301.52 159.53 297.41 157.14" style="fill: #5c6a7c"/>
              <polygon points="308.57 157.99 304.58 160.27 308.7 162.69 312.69 160.4 308.57 157.99" style="fill: #5c6a7c"/>
              <polygon points="289.9 158.41 285.91 160.69 290.02 163.1 294.03 160.82 289.9 158.41" style="fill: #5c6a7c"/>
              <polygon points="302.04 159.83 298.05 162.13 302.17 164.54 306.17 162.25 302.04 159.83" style="fill: #5c6a7c"/>
              <polygon points="321.87 160.1 317.87 162.39 321.99 164.79 326 162.5 321.87 160.1" style="fill: #5c6a7c"/>
              <polygon points="313.26 160.73 309.27 163.02 313.39 165.42 317.38 163.13 313.26 160.73" style="fill: #5c6a7c"/>
              <polygon points="306.68 162.55 302.69 164.84 306.81 167.25 310.81 164.95 306.68 162.55" style="fill: #5c6a7c"/>
              <polygon points="326.77 162.97 322.79 165.25 326.91 167.66 330.89 165.37 326.77 162.97" style="fill: #5c6a7c"/>
              <polygon points="317.96 163.47 313.96 165.75 318.08 168.17 322.08 165.87 317.96 163.47" style="fill: #5c6a7c"/>
              <polygon points="299.27 163.88 295.29 166.17 299.4 168.58 303.39 166.28 299.27 163.88" style="fill: #5c6a7c"/>
              <polygon points="311.32 165.25 307.33 167.54 311.45 169.96 315.45 167.66 311.32 165.25" style="fill: #5c6a7c"/>
              <polygon points="331.69 165.82 327.69 168.12 331.81 170.53 335.8 168.23 331.69 165.82" style="fill: #5c6a7c"/>
              <polygon points="322.65 166.21 318.64 168.5 322.78 170.91 326.77 168.61 322.65 166.21" style="fill: #5c6a7c"/>
              <polygon points="303.86 166.56 299.86 168.85 303.98 171.25 307.98 168.96 303.86 166.56" style="fill: #5c6a7c"/>
              <polygon points="315.96 167.96 311.97 170.26 316.09 172.66 320.09 170.38 315.96 167.96" style="fill: #5c6a7c"/>
              <polygon points="308.49 169.26 304.5 171.56 308.63 173.96 312.61 171.67 308.49 169.26" style="fill: #5c6a7c"/>
              <polygon points="338.44 169.78 334.45 172.07 338.59 174.48 342.57 172.19 338.44 169.78" style="fill: #5c6a7c"/>
              <polygon points="320.59 170.67 316.59 172.96 320.72 175.37 324.71 173.08 320.59 170.67" style="fill: #5c6a7c"/>
              <polygon points="288.63 163.35 284.64 165.65 302.74 176.22 306.73 173.92 288.63 163.35" style="fill: #5c6a7c"/>
              <polygon points="313.07 171.94 309.08 174.23 313.2 176.64 317.2 174.35 313.07 171.94" style="fill: #5c6a7c"/>
              <polygon points="327.54 169.07 323.55 171.35 333.7 177.29 337.69 175 327.54 169.07" style="fill: #5c6a7c"/>
              <polygon points="325.24 173.39 321.25 175.67 328.81 180.1 332.8 177.8 325.24 173.39" style="fill: #5c6a7c"/>
              <polygon points="307.32 174.26 303.33 176.56 309.77 180.32 313.76 178.03 307.32 174.26" style="fill: #5c6a7c"/>
              <polygon points="317.76 174.68 313.79 176.97 323.93 182.9 327.92 180.6 317.76 174.68" style="fill: #5c6a7c"/>
              <polygon points="314.28 178.33 310.28 180.63 319.02 185.72 323 183.43 314.28 178.33" style="fill: #5c6a7c"/>
            </g>
            <g>
              <path d="M294.62,178.2a2.6,2.6,0,0,1-1.12,1.08l-3.57,2.14a5.84,5.84,0,0,1-5.26.22l-9.28-5.35a2,2,0,0,1-.74-.71c-.42-.75,0-1.67,1.12-2.33l3.57-2.13a5.87,5.87,0,0,1,5.26-.22l9.28,5.35A1.42,1.42,0,0,1,294.62,178.2Z" style="fill: #7c92b7"/>
              <path d="M294.62,178.2a2.6,2.6,0,0,1-1.12,1.08l-3.57,2.14a5.84,5.84,0,0,1-5.26.22l-9.28-5.35a2,2,0,0,1-.74-.71,2.67,2.67,0,0,1,1.12-1.09l3.57-2.14a5.8,5.8,0,0,1,5.26-.21l9.28,5.35A1.82,1.82,0,0,1,294.62,178.2Z" style="fill: #f2f2f2"/>
            </g>
            <path d="M325,111.14a2.47,2.47,0,0,0,1,2c.57.34,1,0,1-.78a2.5,2.5,0,0,0-1-2C325.42,110,325,110.37,325,111.14Z" style="fill: #0b7c91"/>
            <polygon points="296.08 135.38 352.51 168.56 352.51 130.12 296.08 96.95 296.08 135.38" style="fill: url(#linear-gradient-28)"/>
            <polygon points="299.25 133.13 325.88 148.8 325.88 117.14 299.25 101.47 299.25 133.13" style="fill: #b8e3f0"/>
            <polygon points="328.28 138.99 349.6 151.5 349.6 131.08 328.28 118.57 328.28 138.99" style="fill: #ede845"/>
            <polygon points="328.28 142.55 349.6 155.06 349.6 153.18 328.28 140.67 328.28 142.55" style="fill: #fff;opacity: 0.5"/>
            <polygon points="328.28 144.56 334.54 148.25 334.54 147.47 328.28 143.78 328.28 144.56" style="fill: #fff;opacity: 0.5"/>
            <polygon points="328.28 145.92 334.54 149.61 334.54 148.83 328.28 145.14 328.28 145.92" style="fill: #fff;opacity: 0.5"/>
            <polygon points="328.28 147.35 334.54 151.04 334.54 150.26 328.28 146.57 328.28 147.35" style="fill: #fff;opacity: 0.5"/>
            <polygon points="328.28 148.64 334.54 152.33 334.54 151.55 328.28 147.86 328.28 148.64" style="fill: #fff;opacity: 0.5"/>
            <polygon points="328.28 150.04 334.54 153.74 334.54 152.96 328.28 149.27 328.28 150.04" style="fill: #fff;opacity: 0.5"/>
            <polygon points="335.35 148.64 341.61 152.33 341.61 151.55 335.35 147.86 335.35 148.64" style="fill: #fff;opacity: 0.5"/>
            <polygon points="335.35 150 349.6 158.38 349.6 157.6 335.35 149.22 335.35 150" style="fill: #fff;opacity: 0.5"/>
            <polygon points="335.35 151.43 349.6 159.85 349.6 159.07 335.35 150.65 335.35 151.43" style="fill: #fff;opacity: 0.5"/>
            <polygon points="335.35 152.72 349.6 161.12 349.6 160.34 335.35 151.94 335.35 152.72" style="fill: #fff;opacity: 0.5"/>
            <polygon points="335.35 154.12 344.83 159.73 344.83 158.95 335.35 153.34 335.35 154.12" style="fill: #fff;opacity: 0.5"/>
            <polygon points="297.05 97.51 297.05 134.86 352.51 167.47 352.51 168.56 296.08 135.38 296.08 96.95 297.05 97.51" style="fill: url(#linear-gradient-29)"/>
            <polygon points="352.51 168.56 296.08 135.38 297.05 134.86 352.51 167.47 352.51 168.56" style="fill: #f2f2f2"/>
            <g>
              <polygon points="346.55 181.78 350.21 179.7 350.21 177.12 346.55 179.2 346.55 181.78" style="fill: #f2f2f2"/>
              <polygon points="349.46 179.27 346.7 180.83 346.7 181.52 350.06 179.62 350.06 179.62 349.46 179.27" style="fill: #5c6a7c"/>
              <g>
                <polygon points="346.7 179.28 346.7 180.83 349.46 179.27 349.46 177.72 349.32 177.81 346.7 179.28" style="fill: #30302f"/>
                <polygon points="346.7 179.52 346.7 180.61 349.32 179.14 349.32 178.04 346.7 179.52" style="fill: #30273b"/>
                <polygon points="350.06 178.93 350.06 177.38 349.46 177.72 349.46 179.27 350.06 179.62 350.06 178.93" style="fill: #414141"/>
              </g>
            </g>
            <g>
              <g style="isolation: isolate">
                <polygon points="309.94 131.98 308.15 130.95 305.84 132.28 307.62 133.32 309.94 131.98" style="fill: url(#linear-gradient-30)"/>
                <g>
                  <path id="SVGID-44" data-name="SVGID" d="M304.27,132.43l1.78,1a1.57,1.57,0,0,0,1.57-.15l-1.78-1A1.52,1.52,0,0,1,304.27,132.43Z" style="fill: url(#linear-gradient-2)"/>
                  <g style="clip-path: url(#clip-path-16)">
                    <g style="isolation: isolate">
                      <path d="M307.62,133.32l-1.78-1-.21.11,1.79,1,.2-.11Z" style="fill: url(#linear-gradient-32)"/>
                      <path d="M307.42,133.43l-1.79-1a2.14,2.14,0,0,1-.56.18l1.78,1a1.93,1.93,0,0,0,.57-.17Z" style="fill: url(#linear-gradient-33)"/>
                      <path d="M306.85,133.6l-1.78-1a1.18,1.18,0,0,1-.8-.14l1.78,1a1.19,1.19,0,0,0,.8.13Z" style="fill: url(#linear-gradient-34)"/>
                    </g>
                  </g>
                </g>
                <polygon points="305.25 132.25 303.46 131.22 303.47 133.84 305.25 134.87 305.25 132.25" style="fill: #fafbfb"/>
                <polygon points="308.98 127.28 307.19 126.24 305.82 127.03 307.61 128.07 308.98 127.28" style="fill: #fff"/>
                <g style="isolation: isolate">
                  <path id="SVGID-45" data-name="SVGID" d="M307.61,128.07l-1.79-1a4.77,4.77,0,0,0-1.67,1.77,4.82,4.82,0,0,0-.69,2.32.38.38,0,0,0,0,.1l1.78,1v-.1a4.67,4.67,0,0,1,.69-2.32A4.74,4.74,0,0,1,307.61,128.07Z" style="fill: #fafbfb"/>
                  <g style="clip-path: url(#clip-path-17)">
                    <g style="isolation: isolate">
                      <path d="M307.61,128.07l-1.79-1a3.32,3.32,0,0,0-.41.28l1.79,1a3.62,3.62,0,0,1,.41-.27Z" style="fill: #fff"/>
                      <path d="M307.2,128.34l-1.79-1a5.18,5.18,0,0,0-1.26,1.49,5.39,5.39,0,0,0-.54,1.27l1.79,1a5.32,5.32,0,0,1,.54-1.27,5.16,5.16,0,0,1,1.26-1.49Z" style="fill: url(#linear-gradient-35)"/>
                      <path d="M305.4,131.1l-1.79-1a4.31,4.31,0,0,0-.14.77l1.79,1a3.78,3.78,0,0,1,.14-.78Z" style="fill: #fafbfb"/>
                      <path d="M305.26,131.88l-1.79-1c0,.09,0,.19,0,.28a.38.38,0,0,0,0,.1l1.78,1v-.1a2.44,2.44,0,0,1,0-.27Z" style="fill: #fafbfb"/>
                    </g>
                  </g>
                </g>
                <path d="M307.61,128.07a4.74,4.74,0,0,0-1.67,1.76,4.67,4.67,0,0,0-.69,2.32v2.72l2.37-1.36,2.32-1.34V132l-2.31,1.34c-1.21.7-2.21.14-2.21-1.26a4.83,4.83,0,0,1,2.2-3.8l1.37-.8v-.18Z" style="fill: #cbd2db"/>
              </g>
              <g style="isolation: isolate">
                <polygon points="313.31 127.25 313.3 128.44 311.86 129.28 311.86 128.09 313.31 127.25" style="fill: url(#linear-gradient-36)"/>
                <polygon points="311.86 128.09 311.86 129.28 309.2 127.75 309.21 126.55 311.86 128.09" style="fill: #fafbfb"/>
                <polygon points="315.84 128.71 315.83 129.9 313.3 128.44 313.31 127.25 315.84 128.71" style="fill: url(#linear-gradient-37)"/>
                <polygon points="317.05 131.08 317.05 132.27 314.39 130.74 314.4 129.55 317.05 131.08" style="fill: #fafbfb"/>
                <polygon points="317.05 131.08 318.49 130.24 321.56 128.46 323 127.62 323 128.81 321.56 129.65 318.49 131.43 317.05 132.27 317.05 131.08" style="fill: url(#linear-gradient-38)"/>
                <polygon points="323 127.62 321.56 128.46 318.49 130.24 317.05 131.08 314.4 129.55 315.84 128.71 313.31 127.25 311.86 128.09 309.21 126.55 310.65 125.72 313.72 123.93 315.16 123.09 323 127.62" style="fill: #fafbfb"/>
              </g>
              <g style="isolation: isolate">
                <g style="isolation: isolate">
                  <g style="clip-path: url(#clip-path-18)">
                    <g>
                      <path d="M315,126.32l1.36-.8a7.44,7.44,0,0,1-2.46-2.47l-1.37.79a7.6,7.6,0,0,0,2.47,2.48Z" style="fill: url(#linear-gradient-39)"/>
                      <path d="M312.57,123.84l1.37-.79a8.15,8.15,0,0,1-.83-1.64l-1.37.79a9.35,9.35,0,0,0,.83,1.64Z" style="opacity: 0;fill: url(#linear-gradient-40)"/>
                      <path d="M311.74,122.2l1.37-.79a6.83,6.83,0,0,1-.5-2.45,2.67,2.67,0,0,1,1.11-2.44l-1.36.79a2.64,2.64,0,0,0-1.11,2.44,7,7,0,0,0,.49,2.45Z" style="fill: url(#linear-gradient-41)"/>
                    </g>
                  </g>
                </g>
                <g style="isolation: isolate">
                  <g style="clip-path: url(#clip-path-19)">
                    <g>
                      <path d="M317.74,126.58l1.37-.79a2,2,0,0,1-.86.25l-1.36.79a1.87,1.87,0,0,0,.85-.25Z" style="fill: url(#linear-gradient-42)"/>
                      <path d="M316.89,126.83l1.36-.79a3.35,3.35,0,0,1-1.85-.52l-1.36.8a3.34,3.34,0,0,0,1.85.51Z" style="fill: url(#linear-gradient-43)"/>
                    </g>
                  </g>
                </g>
                <g>
                  <path id="SVGID-46" data-name="SVGID" d="M311.93,113.44l-1.36.79c1.15-.67,2.74-.58,4.5.44l1.37-.79C314.68,112.86,313.08,112.77,311.93,113.44Z" style="fill: #fafbfb"/>
                  <g style="clip-path: url(#clip-path-20)">
                    <g>
                      <path d="M315.07,114.67l1.37-.79a5.51,5.51,0,0,0-3.08-.86l-1.37.79a5.51,5.51,0,0,1,3.08.86Z" style="fill: #fafbfb"/>
                      <path d="M312,113.81l1.37-.79a3.1,3.1,0,0,0-1.43.42l-1.36.79a3.1,3.1,0,0,1,1.42-.42Z" style="fill: #fafbfb"/>
                    </g>
                  </g>
                </g>
                <g>
                  <path id="SVGID-47" data-name="SVGID" d="M319.54,129.66l1.36-.79c1.14-.66,1.84-2.07,1.85-4.06a13.93,13.93,0,0,0-6.31-10.93l-1.37.79a13.9,13.9,0,0,1,6.31,10.93C321.38,127.6,320.67,129,319.54,129.66Z" style="fill: #fafbfb"/>
                  <g style="clip-path: url(#clip-path-21)">
                    <g style="isolation: isolate">
                      <path d="M319.18,118.79l1.36-.8a12.48,12.48,0,0,0-4.1-4.11l-1.37.79a12.54,12.54,0,0,1,4.11,4.12Z" style="fill: #fafbfb"/>
                    </g>
                  </g>
                </g>
                <path d="M308.72,118.29c0-4,2.85-5.64,6.35-3.62a10.61,10.61,0,0,1,1.88,1.41c-.67.48-1.28,1-1.91,1.48-2.09-1.19-3.78-.21-3.79,2.19a8.37,8.37,0,0,0,3.79,6.57,4,4,0,0,0,1.25.48c0,.44-.07.88-.1,1.33l-5.28-3A13.07,13.07,0,0,1,308.72,118.29Z" style="fill: #fff"/>
              </g>
              <g>
                <g>
                  <g style="isolation: isolate">
                    <polygon points="302.38 128.33 302.39 129.03 307.12 131.78 307.12 131.08 302.38 128.33" style="fill: #fafbfb"/>
                    <polygon points="307.12 131.08 307.12 131.78 321.82 123.29 321.81 122.59 307.12 131.08" style="fill: url(#linear-gradient-44)"/>
                    <polygon points="302.38 128.33 307.12 131.08 321.81 122.59 317.08 119.84 302.38 128.33" style="fill: #fff"/>
                  </g>
                  <g style="isolation: isolate">
                    <g>
                      <path id="SVGID-48" data-name="SVGID" d="M302.69,127.81v.28a.22.22,0,0,0,.13.19V128A.23.23,0,0,1,302.69,127.81Z" style="fill: #186d7d"/>
                      <g style="clip-path: url(#clip-path-22)">
                        <g style="isolation: isolate">
                          <path d="M302.69,127.81v.28a.21.21,0,0,0,.05.12v-.28a.21.21,0,0,1-.05-.12Z" style="fill: #186d7d"/>
                          <path d="M302.74,127.93v.28a.27.27,0,0,0,.08.07V128l-.08-.07Z" style="fill: #186d7d"/>
                        </g>
                      </g>
                    </g>
                    <g>
                      <path id="SVGID-49" data-name="SVGID" d="M311.59,127.94a.22.22,0,0,1-.13.18v.29" style="fill: #186d7d"/>
                      <g style="clip-path: url(#clip-path-23)">
                        <path d="M311.46,128.12v.29a.23.23,0,0,0,.13-.19v-.28a.22.22,0,0,1-.13.18Z" style="fill: #186d7d"/>
                      </g>
                    </g>
                    <polygon points="302.82 128 302.82 128.28 306.92 130.66 306.91 130.38 302.82 128" style="fill: #186d7d"/>
                    <polyline points="311.46 128.41 311.46 128.12 307.55 130.38 307.55 130.66" style="fill: #186d7d"/>
                    <g>
                      <path id="SVGID-50" data-name="SVGID" d="M306.91,130.38v.28a.72.72,0,0,0,.64,0v-.28A.72.72,0,0,1,306.91,130.38Z" style="fill: #186d7d"/>
                      <g style="clip-path: url(#clip-path-24)">
                        <g style="isolation: isolate">
                          <path d="M306.91,130.38v.28a.62.62,0,0,0,.23.07v-.28a.88.88,0,0,1-.23-.07Z" style="fill: #186d7d"/>
                          <path d="M307.14,130.45v.28a.7.7,0,0,0,.41-.07v-.28a.7.7,0,0,1-.41.07Z" style="fill: #186d7d"/>
                        </g>
                      </g>
                    </g>
                    <path d="M302.82,127.63c-.17.1-.18.26,0,.37l4.09,2.38a.72.72,0,0,0,.64,0l3.91-2.26a.19.19,0,0,0,0-.37l-4.09-2.38a.72.72,0,0,0-.64,0Z" style="fill: #078fa9"/>
                  </g>
                </g>
                <g style="isolation: isolate">
                  <g>
                    <path id="SVGID-51" data-name="SVGID" d="M318.25,124.4v-.28c0,.07-.05.14-.15.2v.28A.24.24,0,0,0,318.25,124.4Z" style="fill: #186d7d"/>
                    <g style="clip-path: url(#clip-path-25)">
                      <path d="M318.1,124.32v.28a.24.24,0,0,0,.15-.2v-.28c0,.07-.05.14-.15.2Z" style="fill: #186d7d"/>
                    </g>
                  </g>
                  <g>
                    <path id="SVGID-52" data-name="SVGID" d="M307.52,125.07v.28a.25.25,0,0,0,.14.2v-.28A.26.26,0,0,1,307.52,125.07Z" style="fill: #186d7d"/>
                    <g style="clip-path: url(#clip-path-26)">
                      <g style="isolation: isolate">
                        <path d="M307.52,125.07v.28a.21.21,0,0,0,.05.13v-.28a.24.24,0,0,1-.05-.13Z" style="fill: #186d7d"/>
                        <path d="M307.57,125.2v.28a.22.22,0,0,0,.09.07v-.28a.35.35,0,0,1-.09-.07Z" style="fill: #186d7d"/>
                      </g>
                    </g>
                  </g>
                  <g>
                    <path id="SVGID-53" data-name="SVGID" d="M312.39,127.9v-.28a.76.76,0,0,1-.69,0" style="fill: #186d7d"/>
                    <g style="clip-path: url(#clip-path-27)">
                      <g style="isolation: isolate">
                        <path d="M311.7,127.62v.28a.62.62,0,0,0,.24.08v-.29a.61.61,0,0,1-.24-.07Z" style="fill: #186d7d"/>
                      </g>
                    </g>
                  </g>
                  <path d="M307.66,124.87a.21.21,0,0,0,0,.4l4,2.35a.76.76,0,0,0,.69,0l5.71-3.3c.2-.11.2-.29,0-.4l-4-2.35a.78.78,0,0,0-.7,0Z" style="fill: #078fa9"/>
                </g>
                <g style="isolation: isolate">
                  <g>
                    <path id="SVGID-54" data-name="SVGID" d="M314.22,121.1v.28c0,.07,0,.13.14.19v-.29A.23.23,0,0,1,314.22,121.1Z" style="fill: #186d7d"/>
                    <g style="clip-path: url(#clip-path-28)">
                      <g style="isolation: isolate">
                        <path d="M314.22,121.1v.28a.21.21,0,0,0,0,.12v-.28a.21.21,0,0,1,0-.12Z" style="fill: #186d7d"/>
                        <path d="M314.27,121.22v.28a.35.35,0,0,0,.09.07v-.29l-.08-.06Z" style="fill: #186d7d"/>
                      </g>
                    </g>
                  </g>
                  <g>
                    <path id="SVGID-55" data-name="SVGID" d="M320.79,122.88v-.29a.22.22,0,0,1-.13.19v.28C320.75,123,320.8,122.94,320.79,122.88Z" style="fill: #186d7d"/>
                    <g style="clip-path: url(#clip-path-29)">
                      <path d="M320.66,122.78v.28c.09,0,.14-.12.13-.18v-.29a.22.22,0,0,1-.13.19Z" style="fill: #186d7d"/>
                    </g>
                  </g>
                  <polygon points="314.36 121.28 314.36 121.56 318.45 123.95 318.45 123.66 314.36 121.28" style="fill: #186d7d"/>
                  <polygon points="319.09 123.66 319.09 123.95 320.66 123.06 320.66 122.78 319.09 123.66" style="fill: #186d7d"/>
                  <g>
                    <path id="SVGID-56" data-name="SVGID" d="M318.45,123.66V124a.72.72,0,0,0,.64,0v-.29A.66.66,0,0,1,318.45,123.66Z" style="fill: #186d7d"/>
                    <g style="clip-path: url(#clip-path-30)">
                      <g style="isolation: isolate">
                        <path d="M318.45,123.66V124a.71.71,0,0,0,.22.07v-.29a.52.52,0,0,1-.22-.07Z" style="fill: #186d7d"/>
                        <path d="M318.67,123.73V124a.81.81,0,0,0,.42-.07v-.29a.66.66,0,0,1-.42.07Z" style="fill: #186d7d"/>
                      </g>
                    </g>
                  </g>
                  <path d="M314.36,120.91a.2.2,0,0,0,0,.37l4.1,2.38a.66.66,0,0,0,.64,0l1.57-.88a.19.19,0,0,0,0-.37L316.57,120a.72.72,0,0,0-.64,0Z" style="fill: #078fa9"/>
                </g>
              </g>
              <path d="M318.85,124.14a8.34,8.34,0,0,0-3.79-6.56l0,0c.63-.47,1.24-1,1.91-1.48a14.1,14.1,0,0,1,4.43,9.52c0,2.21-.86,3.69-2.22,4.25l-3-1.72c0-.45.06-.89.1-1.33C317.78,127.06,318.85,126.05,318.85,124.14Z" style="fill: #fff"/>
              <path d="M319.54,129.66l1.36-.79c1.14-.66,1.84-2.07,1.85-4.06a11.73,11.73,0,0,0-.82-4.09l-1.37.79a11.29,11.29,0,0,1,.82,4.09c0,2-.71,3.4-1.84,4.06Z" style="fill: url(#linear-gradient-45)"/>
              <path d="M320.56,121.51l1.37-.79a16.31,16.31,0,0,0-1.39-2.73l-1.36.8a15.12,15.12,0,0,1,1.38,2.72Z" style="fill: #fafbfb"/>
              <path d="M315.27,116.46a.5.5,0,0,0-.23-.39c-.13-.08-.23,0-.23.13a.49.49,0,0,0,.23.39C315.16,116.67,315.27,116.61,315.27,116.46Z" style="fill: #ec1845"/>
              <path d="M313.75,116.21a.54.54,0,0,0-.23-.4c-.13-.07-.23,0-.23.13a.49.49,0,0,0,.23.4A.14.14,0,0,0,313.75,116.21Z" style="fill: #ec1845"/>
              <path d="M316.54,117.59a.51.51,0,0,0-.22-.39c-.13-.07-.23,0-.23.13a.49.49,0,0,0,.23.4C316.44,117.8,316.54,117.74,316.54,117.59Z" style="fill: #ec1845"/>
            </g>
            <g>
              <g style="isolation: isolate">
                <path d="M342.35,138.58c.53,1.39-.15,2.34-1.22,1.72l-6.27-3.62c-1.08-.62-1.75-2.35-1.21-3.12l3.15-4.43c.27-.38.74-.37,1.22-.1a3,3,0,0,1,1.21,1.5Zm-.46,1.07a1,1,0,0,0,0-.94l-3.18-8.24a1.76,1.76,0,0,0-.7-.89c-.3-.17-.57-.14-.71.07l-3.21,4.56a1,1,0,0,0,0,.94,1.83,1.83,0,0,0,.71.87l6.38,3.69c.3.17.57.15.71-.06" style="fill: #fff"/>
                <path d="M338,135.76a1,1,0,0,1,.47.81h0c0,.31-.2.43-.48.27a1,1,0,0,1-.47-.82h0C337.56,135.71,337.76,135.6,338,135.76Z" style="fill: #003a4b"/>
                <path d="M341.9,138.71a1,1,0,0,1,0,.94c-.14.21-.41.23-.71.06L334.8,136a1.83,1.83,0,0,1-.71-.87,1,1,0,0,1,0-.94l3.21-4.56c.14-.21.41-.24.71-.07a1.76,1.76,0,0,1,.7.89Zm-.31.56a.61.61,0,0,0,0-.53l-3.17-8.24A1.06,1.06,0,0,0,338,130a.29.29,0,0,0-.4,0l-3.21,4.56a.6.6,0,0,0,0,.53,1.06,1.06,0,0,0,.4.5l6.39,3.69c.16.09.32.08.4,0" style="fill: #003a4b"/>
                <path d="M338.31,132.53a.49.49,0,0,1,.23.45l-.25,2.23c0,.16-.11.21-.25.13a.5.5,0,0,1-.25-.42l-.23-2.51c0-.19.07-.28.22-.19Z" style="fill: #003a4b"/>
              </g>
              <path d="M338.42,130.5l3.17,8.24a.61.61,0,0,1,0,.53c-.08.12-.24.13-.4,0l-6.39-3.69a1.06,1.06,0,0,1-.4-.5.6.6,0,0,1,0-.53l3.21-4.56a.29.29,0,0,1,.4,0A1.06,1.06,0,0,1,338.42,130.5Zm.12,2.48a.49.49,0,0,0-.23-.45l-.53-.31c-.15-.09-.24,0-.22.19l.23,2.51a.5.5,0,0,0,.25.42c.14.08.23,0,.25-.13l.25-2.23m0,3.6h0a1,1,0,0,0-.47-.81c-.28-.16-.48,0-.48.26h0a1,1,0,0,0,.47.82c.28.16.48,0,.48-.27" style="fill: #fff"/>
            </g>
          </g>
          <g>
            <polygon points="317.96 198.2 319.32 197.42 319.32 194.86 317.96 195.64 317.96 198.2" style="fill: #f2f2f2"/>
            <polygon points="318.58 197 318.11 197.26 318.11 197.94 319.17 197.34 319.17 197.34 318.58 197" style="fill: #4b4e58"/>
            <g>
              <polygon points="318.11 195.73 318.11 197.26 318.58 197 318.58 195.46 318.43 195.55 318.11 195.73" style="fill: #393c41"/>
              <polygon points="318.11 195.96 318.11 197.04 318.43 196.86 318.43 195.78 318.11 195.96" style="fill: #1b2029"/>
              <polygon points="319.17 196.66 319.17 195.12 318.58 195.46 318.58 197 319.17 197.34 319.17 196.66" style="fill: #1b2029"/>
            </g>
          </g>
          <g>
            <polygon points="320 197.13 321.36 196.35 321.36 193.79 320 194.57 320 197.13" style="fill: #f2f2f2"/>
            <polygon points="320.62 195.92 320.15 196.19 320.15 196.87 321.21 196.26 321.21 196.26 320.62 195.92" style="fill: #4b4e58"/>
            <g>
              <polygon points="320.15 194.66 320.15 196.19 320.62 195.92 320.62 194.39 320.47 194.47 320.15 194.66" style="fill: #393c41"/>
              <polygon points="320.15 194.89 320.15 195.97 320.47 195.79 320.47 194.7 320.15 194.89" style="fill: #1b2029"/>
              <polygon points="321.21 195.58 321.21 194.05 320.62 194.39 320.62 195.92 321.21 196.26 321.21 195.58" style="fill: #1b2029"/>
            </g>
          </g>
        </g>
      </g>
    </g>
  </g>
</svg>
