<svg xmlns="http://www.w3.org/2000/svg" xmlns:xlink="http://www.w3.org/1999/xlink" viewBox="0 0 357 266">
  <defs>
    <linearGradient id="linear-gradient" x1="-544.09" y1="163.84" x2="-530.19" y2="163.84" gradientTransform="matrix(-1, 0, 0, 1, -418.23, 0)" gradientUnits="userSpaceOnUse">
      <stop offset="0" stop-color="#a9b9d5"/>
      <stop offset="1" stop-color="#95a9c8"/>
    </linearGradient>
    <linearGradient id="linear-gradient-2" x1="-46.23" y1="103.54" x2="-44.08" y2="103.54" gradientTransform="translate(333.91)" xlink:href="#linear-gradient"/>
    <linearGradient id="linear-gradient-3" x1="-322.97" y1="2527.01" x2="-226.38" y2="2716.58" gradientTransform="matrix(-1.13, 0.03, 0, -0.97, -122.38, 2687.12)" gradientUnits="userSpaceOnUse">
      <stop offset="0" stop-color="#a4d8c8"/>
      <stop offset="0.98" stop-color="#12a0c6"/>
    </linearGradient>
    <linearGradient id="linear-gradient-4" x1="84.63" y1="138.73" x2="93.6" y2="241.97" gradientUnits="userSpaceOnUse">
      <stop offset="0" stop-color="#fff"/>
      <stop offset="1" stop-color="#a9c3d7"/>
    </linearGradient>
    <linearGradient id="linear-gradient-5" x1="-537.59" y1="160.44" x2="-520.59" y2="160.44" xlink:href="#linear-gradient"/>
    <clipPath id="clip-path">
      <path id="SVGID" d="M125.86,161.7l-7.4,4.29c-1.66,1-4,.84-6.49-.63l7.39-4.29C121.9,162.53,124.2,162.66,125.86,161.7Z" style="fill: url(#linear-gradient)"/>
    </clipPath>
    <linearGradient id="linear-gradient-7" x1="-538.43" y1="163.44" x2="-530.19" y2="163.44" xlink:href="#linear-gradient"/>
    <linearGradient id="linear-gradient-8" x1="-540.77" y1="164.03" x2="-531.04" y2="164.03" xlink:href="#linear-gradient"/>
    <linearGradient id="linear-gradient-9" x1="-544.09" y1="164.15" x2="-533.37" y2="164.15" xlink:href="#linear-gradient"/>
    <clipPath id="clip-path-2">
      <path id="SVGID-2" data-name="SVGID" d="M112,143.58l7.39-4.29a21.62,21.62,0,0,1,9.78,16.94v.41l-7.4,4.3c0-.14,0-.27,0-.41A21.66,21.66,0,0,0,112,143.58Z" style="fill: #fafbfb"/>
    </clipPath>
    <linearGradient id="linear-gradient-10" x1="-546.81" y1="148.3" x2="-531.95" y2="148.3" xlink:href="#linear-gradient"/>
    <linearGradient id="linear-gradient-11" x1="-512.61" y1="144.39" x2="-506.62" y2="144.39" xlink:href="#linear-gradient"/>
    <linearGradient id="linear-gradient-12" x1="-506.63" y1="145.69" x2="-496.11" y2="145.69" xlink:href="#linear-gradient"/>
    <linearGradient id="linear-gradient-13" x1="-491.1" y1="151.38" x2="-466.4" y2="151.38" xlink:href="#linear-gradient"/>
    <clipPath id="clip-path-3">
      <path id="SVGID-3" data-name="SVGID" d="M86.66,95.69,92.32,99c2.83,1.64,4.59,5.14,4.6,10.11,0,10-7,22.2-15.72,27.23L75.54,133c8.71-5,15.75-17.22,15.72-27.23C91.25,100.83,89.49,97.33,86.66,95.69Z" style="fill: none"/>
    </clipPath>
    <linearGradient id="linear-gradient-14" x1="-509.66" y1="129.55" x2="-493.77" y2="129.55" xlink:href="#linear-gradient"/>
    <linearGradient id="linear-gradient-15" x1="-513.1" y1="121.02" x2="-504" y2="121.02" xlink:href="#linear-gradient"/>
    <linearGradient id="linear-gradient-16" x1="-515.15" y1="107.48" x2="-504.89" y2="107.48" xlink:href="#linear-gradient"/>
    <clipPath id="clip-path-4">
      <path id="SVGID-4" data-name="SVGID" d="M70,137.42l-5.66-3.29c2.87,1.66,6.84,1.43,11.22-1.1l5.66,3.29C76.82,138.85,72.85,139.08,70,137.42Z" style="fill: none"/>
    </clipPath>
    <linearGradient id="linear-gradient-17" x1="-491.76" y1="136.29" x2="-482.55" y2="136.29" xlink:href="#linear-gradient"/>
    <linearGradient id="linear-gradient-18" x1="-499.43" y1="135.75" x2="-486.1" y2="135.75" xlink:href="#linear-gradient"/>
    <clipPath id="clip-path-5">
      <path id="SVGID-5" data-name="SVGID" d="M94.09,82.9l5.66,3.29C95,83.42,88.36,83.81,81.06,88l-5.65-3.29C82.71,80.52,89.32,80.13,94.09,82.9Z" style="fill: #fafbfb"/>
    </clipPath>
    <clipPath id="clip-path-6">
      <path id="SVGID-6" data-name="SVGID" d="M62.55,150.2l-5.66-3.29c-4.71-2.74-7.63-8.56-7.66-16.84,0-16.67,11.68-37,26.18-45.34L81.06,88c-14.5,8.38-26.22,28.67-26.17,45.34C54.91,141.63,57.84,147.46,62.55,150.2Z" style="fill: #fafbfb"/>
    </clipPath>
    <linearGradient id="linear-gradient-19" x1="-532.29" y1="139.93" x2="-471.32" y2="139.93" xlink:href="#linear-gradient"/>
    <clipPath id="clip-path-7">
      <path id="SVGID-7" data-name="SVGID" d="M132.41,142.52v1.18a.93.93,0,0,1-.54.76v-1.17A.93.93,0,0,0,132.41,142.52Z" style="fill: #186d7d"/>
    </clipPath>
    <clipPath id="clip-path-8">
      <path id="SVGID-8" data-name="SVGID" d="M95.49,144.21V143a.93.93,0,0,0,.55.77V145A.91.91,0,0,1,95.49,144.21Z" style="fill: #186d7d"/>
    </clipPath>
    <clipPath id="clip-path-9">
      <path id="SVGID-9" data-name="SVGID" d="M114.9,153.16v1.17a2.88,2.88,0,0,1-2.65,0v-1.17A3,3,0,0,0,114.9,153.16Z" style="fill: #186d7d"/>
    </clipPath>
    <clipPath id="clip-path-10">
      <path id="SVGID-10" data-name="SVGID" d="M67.89,128.38V127.2a1,1,0,0,0,.6.85v1.17A1,1,0,0,1,67.89,128.38Z" style="fill: #186d7d"/>
    </clipPath>
    <clipPath id="clip-path-11">
      <path id="SVGID-11" data-name="SVGID" d="M112.39,131.15v1.17a1,1,0,0,1-.59.83V132A1,1,0,0,0,112.39,131.15Z" style="fill: #186d7d"/>
    </clipPath>
    <clipPath id="clip-path-12">
      <path id="SVGID-12" data-name="SVGID" d="M95.06,141.72v1.17a3.2,3.2,0,0,1-2.89,0v-1.17A3.2,3.2,0,0,0,95.06,141.72Z" style="fill: #186d7d"/>
    </clipPath>
    <clipPath id="clip-path-13">
      <path id="SVGID-13" data-name="SVGID" d="M84.58,114.68v1.18a.93.93,0,0,1-.55.76v-1.17A.93.93,0,0,0,84.58,114.68Z" style="fill: #186d7d"/>
    </clipPath>
    <clipPath id="clip-path-14">
      <path id="SVGID-14" data-name="SVGID" d="M57.33,122.05v-1.17a1,1,0,0,0,.56.78v1.17A1,1,0,0,1,57.33,122.05Z" style="fill: #186d7d"/>
    </clipPath>
    <clipPath id="clip-path-15">
      <path id="SVGID-15" data-name="SVGID" d="M67.06,125.32v1.17a2.88,2.88,0,0,1-2.65,0v-1.17A2.94,2.94,0,0,0,67.06,125.32Z" style="fill: #186d7d"/>
    </clipPath>
    <linearGradient id="linear-gradient-20" x1="-9308.84" y1="109.16" x2="-9292.98" y2="129.24" gradientTransform="translate(4834.46 8114.52) rotate(60)" gradientUnits="userSpaceOnUse">
      <stop offset="0" stop-color="#aadde5"/>
      <stop offset="1" stop-color="#0f0f10"/>
    </linearGradient>
    <linearGradient id="linear-gradient-21" x1="-480.78" y1="131.66" x2="-467.46" y2="131.66" xlink:href="#linear-gradient"/>
    <radialGradient id="radial-gradient" cx="2666.96" cy="-499.21" r="7.28" gradientTransform="matrix(-0.87, 0.5, 0, 1, 2390.79, -739.37)" gradientUnits="userSpaceOnUse">
      <stop offset="0.09" stop-color="#3d5eaa"/>
      <stop offset="0.29" stop-color="#2a4176"/>
      <stop offset="0.52" stop-color="#182543"/>
      <stop offset="0.71" stop-color="#0b111f"/>
      <stop offset="0.87" stop-color="#030508"/>
      <stop offset="0.97"/>
    </radialGradient>
    <radialGradient id="radial-gradient-2" cx="2666.96" cy="-499.21" r="1.49" gradientTransform="matrix(-0.87, 0.5, 0, 1, 2390.79, -739.37)" gradientUnits="userSpaceOnUse">
      <stop offset="0.22" stop-color="#dae4f4"/>
      <stop offset="0.28" stop-color="#c2cbd9"/>
      <stop offset="0.48" stop-color="#7e848d"/>
      <stop offset="0.65" stop-color="#484b50"/>
      <stop offset="0.79" stop-color="#212225"/>
      <stop offset="0.9" stop-color="#09090a"/>
      <stop offset="0.97"/>
    </radialGradient>
    <radialGradient id="radial-gradient-3" cx="2659.68" cy="-496.62" r="7.28" xlink:href="#radial-gradient"/>
    <radialGradient id="radial-gradient-4" cx="2659.68" cy="-496.61" r="1.49" xlink:href="#radial-gradient-2"/>
    <radialGradient id="radial-gradient-5" cx="2673.07" cy="-497.56" r="7.28" xlink:href="#radial-gradient"/>
    <radialGradient id="radial-gradient-6" cx="2673.07" cy="-497.56" r="1.49" xlink:href="#radial-gradient-2"/>
    <linearGradient id="linear-gradient-22" x1="283.96" y1="145.38" x2="289.72" y2="211.6" xlink:href="#linear-gradient-4"/>
    <linearGradient id="linear-gradient-23" x1="7754.41" y1="103.67" x2="7850.26" y2="154.84" gradientTransform="matrix(-1, 0, 0, 1, 8082.9, 0)" gradientUnits="userSpaceOnUse">
      <stop offset="0.01" stop-color="#e3e7f0"/>
      <stop offset="0.27" stop-color="#dee3ee"/>
      <stop offset="0.6" stop-color="#cfd7e7"/>
      <stop offset="0.95" stop-color="#b7c4db"/>
      <stop offset="1" stop-color="#b3c1d9"/>
    </linearGradient>
    <linearGradient id="linear-gradient-24" x1="-288.72" y1="124.92" x2="-287.07" y2="124.92" gradientTransform="matrix(-1, 0, 0, 1, -2.54, 0)" gradientUnits="userSpaceOnUse">
      <stop offset="0.01" stop-color="#e3e7f0"/>
      <stop offset="1" stop-color="#b3c1d9"/>
    </linearGradient>
    <linearGradient id="linear-gradient-25" x1="7743.82" y1="153.71" x2="7848.79" y2="153.71" gradientTransform="matrix(-1, 0, 0, 1, 8082.9, 0)" xlink:href="#linear-gradient"/>
    <linearGradient id="linear-gradient-26" x1="7739.31" y1="112.93" x2="7803.66" y2="112.93" gradientTransform="matrix(-1, 0, 0, 1, 8082.9, 0)" xlink:href="#linear-gradient"/>
    <linearGradient id="linear-gradient-27" x1="-334.6" y1="146.49" x2="-252.96" y2="146.49" gradientTransform="matrix(-1, 0, 0, 1, -2.54, 0)" xlink:href="#linear-gradient-23"/>
    <linearGradient id="linear-gradient-28" x1="7760.05" y1="109.51" x2="7803.91" y2="126.51" gradientTransform="matrix(-1, 0, 0, 1, 8082.9, 0)" gradientUnits="userSpaceOnUse">
      <stop offset="0" stop-color="#091e32"/>
      <stop offset="1" stop-color="#004b6b"/>
    </linearGradient>
    <linearGradient id="linear-gradient-29" x1="-340.24" y1="114.69" x2="-283.82" y2="114.69" gradientTransform="matrix(-1, 0, 0, 1, -2.54, 0)" xlink:href="#linear-gradient-23"/>
    <linearGradient id="linear-gradient-30" x1="-45.22" y1="103.01" x2="-42.59" y2="103.01" gradientTransform="translate(333.91)" xlink:href="#linear-gradient"/>
    <clipPath id="clip-path-16">
      <path id="SVGID-16" data-name="SVGID" d="M287.68,103.2l1.15.67a1,1,0,0,0,1-.1l-1.14-.66A1,1,0,0,1,287.68,103.2Z" style="fill: url(#linear-gradient-2)"/>
    </clipPath>
    <linearGradient id="linear-gradient-32" x1="-45.36" y1="103.47" x2="-44.08" y2="103.47" gradientTransform="translate(333.91)" xlink:href="#linear-gradient"/>
    <linearGradient id="linear-gradient-33" x1="-45.72" y1="103.57" x2="-44.21" y2="103.57" gradientTransform="translate(333.91)" xlink:href="#linear-gradient"/>
    <linearGradient id="linear-gradient-34" x1="-46.23" y1="103.59" x2="-44.57" y2="103.59" gradientTransform="translate(333.91)" xlink:href="#linear-gradient"/>
    <clipPath id="clip-path-17">
      <path id="SVGID-17" data-name="SVGID" d="M289.82,100.39l-1.14-.66a3,3,0,0,0-1.08,1.13,3.17,3.17,0,0,0-.44,1.5v.06l1.15.67V103a3.06,3.06,0,0,1,.44-1.49A3.2,3.2,0,0,1,289.82,100.39Z" style="fill: #fafbfb"/>
    </clipPath>
    <linearGradient id="linear-gradient-35" x1="-46.65" y1="101.13" x2="-44.35" y2="101.13" gradientTransform="translate(333.91)" xlink:href="#linear-gradient"/>
    <linearGradient id="linear-gradient-36" x1="-41.35" y1="100.52" x2="-40.42" y2="100.52" gradientTransform="translate(333.91)" xlink:href="#linear-gradient"/>
    <linearGradient id="linear-gradient-37" x1="-40.42" y1="100.72" x2="-38.79" y2="100.72" gradientTransform="translate(333.91)" xlink:href="#linear-gradient"/>
    <linearGradient id="linear-gradient-38" x1="-38.01" y1="101.6" x2="-34.18" y2="101.6" gradientTransform="translate(333.91)" xlink:href="#linear-gradient"/>
    <clipPath id="clip-path-18">
      <path id="SVGID-18" data-name="SVGID" d="M293.76,93l-.88.51a1.71,1.71,0,0,0-.71,1.57,5.36,5.36,0,0,0,2.44,4.23l.87-.51a5.35,5.35,0,0,1-2.43-4.23A1.71,1.71,0,0,1,293.76,93Z" style="fill: none"/>
    </clipPath>
    <linearGradient id="linear-gradient-39" x1="-40.89" y1="98.22" x2="-38.43" y2="98.22" gradientTransform="translate(333.91)" xlink:href="#linear-gradient"/>
    <linearGradient id="linear-gradient-40" x1="-41.43" y1="96.89" x2="-40.01" y2="96.89" gradientTransform="translate(333.91)" xlink:href="#linear-gradient"/>
    <linearGradient id="linear-gradient-41" x1="-41.74" y1="94.79" x2="-40.15" y2="94.79" gradientTransform="translate(333.91)" xlink:href="#linear-gradient"/>
    <clipPath id="clip-path-19">
      <path id="SVGID-19" data-name="SVGID" d="M296.35,99.44l.88-.51a1.74,1.74,0,0,1-1.75-.17l-.87.51A1.73,1.73,0,0,0,296.35,99.44Z" style="fill: none"/>
    </clipPath>
    <linearGradient id="linear-gradient-42" x1="-38.11" y1="99.26" x2="-36.69" y2="99.26" gradientTransform="translate(333.91)" xlink:href="#linear-gradient"/>
    <linearGradient id="linear-gradient-43" x1="-39.3" y1="99.18" x2="-37.24" y2="99.18" gradientTransform="translate(333.91)" xlink:href="#linear-gradient"/>
    <clipPath id="clip-path-20">
      <path id="SVGID-20" data-name="SVGID" d="M292.61,91l-.88.51a2.88,2.88,0,0,1,2.9.28l.88-.51A2.88,2.88,0,0,0,292.61,91Z" style="fill: #fafbfb"/>
    </clipPath>
    <clipPath id="clip-path-21">
      <path id="SVGID-21" data-name="SVGID" d="M297.5,101.42l.88-.51a2.86,2.86,0,0,0,1.19-2.61,9,9,0,0,0-4.06-7l-.88.51a9,9,0,0,1,4.06,7A2.86,2.86,0,0,1,297.5,101.42Z" style="fill: #fafbfb"/>
    </clipPath>
    <linearGradient id="linear-gradient-44" x1="-44.4" y1="99.83" x2="-34.94" y2="99.83" gradientTransform="translate(333.91)" xlink:href="#linear-gradient"/>
    <clipPath id="clip-path-22">
      <path id="SVGID-22" data-name="SVGID" d="M286.66,100.23v.18a.15.15,0,0,0,.09.12v-.18A.15.15,0,0,1,286.66,100.23Z" style="fill: #186d7d"/>
    </clipPath>
    <clipPath id="clip-path-23">
      <path id="SVGID-23" data-name="SVGID" d="M292.39,100.31a.15.15,0,0,1-.09.12v.18" style="fill: #186d7d"/>
    </clipPath>
    <clipPath id="clip-path-24">
      <path id="SVGID-24" data-name="SVGID" d="M289.38,101.88v.18a.43.43,0,0,0,.41,0v-.18A.43.43,0,0,1,289.38,101.88Z" style="fill: #186d7d"/>
    </clipPath>
    <clipPath id="clip-path-25">
      <path id="SVGID-25" data-name="SVGID" d="M296.67,98v-.19a.15.15,0,0,1-.09.13v.19A.17.17,0,0,0,296.67,98Z" style="fill: #186d7d"/>
    </clipPath>
    <clipPath id="clip-path-26">
      <path id="SVGID-26" data-name="SVGID" d="M289.77,98.47v.18a.17.17,0,0,0,.09.13v-.19A.15.15,0,0,1,289.77,98.47Z" style="fill: #186d7d"/>
    </clipPath>
    <clipPath id="clip-path-27">
      <path id="SVGID-27" data-name="SVGID" d="M292.91,100.29v-.19a.45.45,0,0,1-.45,0" style="fill: #186d7d"/>
    </clipPath>
    <clipPath id="clip-path-28">
      <path id="SVGID-28" data-name="SVGID" d="M294.08,95.91v.18a.14.14,0,0,0,.09.12V96A.15.15,0,0,1,294.08,95.91Z" style="fill: #186d7d"/>
    </clipPath>
    <clipPath id="clip-path-29">
      <path id="SVGID-29" data-name="SVGID" d="M298.31,97.05v-.18a.14.14,0,0,1-.09.12v.18A.14.14,0,0,0,298.31,97.05Z" style="fill: #186d7d"/>
    </clipPath>
    <clipPath id="clip-path-30">
      <path id="SVGID-30" data-name="SVGID" d="M296.8,97.56v.18a.43.43,0,0,0,.41,0v-.18A.43.43,0,0,1,296.8,97.56Z" style="fill: #186d7d"/>
    </clipPath>
    <linearGradient id="linear-gradient-45" x1="-36.41" y1="98.54" x2="-34.35" y2="98.54" gradientTransform="translate(333.91)" xlink:href="#linear-gradient"/>
    <linearGradient id="linear-gradient-46" x1="-13429.69" y1="27.68" x2="-13417.34" y2="64" gradientTransform="matrix(-1, 0, 0, 1, -13270.35, 0)" gradientUnits="userSpaceOnUse">
      <stop offset="0" stop-color="#52c7ea"/>
      <stop offset="0.29" stop-color="#3dc5ee"/>
      <stop offset="1" stop-color="#26aee4"/>
    </linearGradient>
    <linearGradient id="linear-gradient-47" x1="-13432.84" y1="28.75" x2="-13420.49" y2="65.07" xlink:href="#linear-gradient-46"/>
    <linearGradient id="linear-gradient-48" x1="-13436.65" y1="30.04" x2="-13424.3" y2="66.37" gradientTransform="matrix(-1, 0, 0, 1, -13270.35, 0)" gradientUnits="userSpaceOnUse">
      <stop offset="0" stop-color="#00709e"/>
      <stop offset="1" stop-color="#029adc"/>
    </linearGradient>
    <linearGradient id="linear-gradient-49" x1="-13429.69" y1="60.08" x2="-13417.34" y2="96.4" xlink:href="#linear-gradient-46"/>
    <linearGradient id="linear-gradient-50" x1="-13432.84" y1="61.15" x2="-13420.49" y2="97.47" xlink:href="#linear-gradient-46"/>
    <linearGradient id="linear-gradient-51" x1="-13436.65" y1="62.44" x2="-13424.3" y2="98.77" xlink:href="#linear-gradient-48"/>
    <linearGradient id="linear-gradient-52" x1="-13429.69" y1="92.48" x2="-13417.34" y2="128.8" xlink:href="#linear-gradient-46"/>
    <linearGradient id="linear-gradient-53" x1="-13432.84" y1="93.55" x2="-13420.49" y2="129.87" xlink:href="#linear-gradient-46"/>
    <linearGradient id="linear-gradient-54" x1="-13436.65" y1="94.84" x2="-13424.3" y2="131.17" xlink:href="#linear-gradient-48"/>
    <linearGradient id="linear-gradient-55" x1="-13429.69" y1="124.88" x2="-13417.34" y2="161.2" xlink:href="#linear-gradient-46"/>
    <linearGradient id="linear-gradient-56" x1="-13432.84" y1="125.95" x2="-13420.49" y2="162.27" xlink:href="#linear-gradient-46"/>
    <linearGradient id="linear-gradient-57" x1="-13436.65" y1="127.24" x2="-13424.3" y2="163.57" xlink:href="#linear-gradient-48"/>
    <linearGradient id="linear-gradient-58" x1="-13429.69" y1="157.28" x2="-13417.34" y2="193.6" xlink:href="#linear-gradient-46"/>
    <linearGradient id="linear-gradient-59" x1="-13432.84" y1="158.35" x2="-13420.49" y2="194.67" xlink:href="#linear-gradient-46"/>
    <linearGradient id="linear-gradient-60" x1="-13436.65" y1="159.64" x2="-13424.3" y2="195.97" xlink:href="#linear-gradient-48"/>
    <linearGradient id="linear-gradient-61" x1="-13429.69" y1="189.68" x2="-13417.34" y2="226" xlink:href="#linear-gradient-46"/>
    <linearGradient id="linear-gradient-62" x1="-13432.84" y1="190.75" x2="-13420.49" y2="227.07" xlink:href="#linear-gradient-46"/>
    <linearGradient id="linear-gradient-63" x1="-13436.65" y1="192.04" x2="-13424.3" y2="228.37" xlink:href="#linear-gradient-48"/>
  </defs>
  <title>isohero-nsensor</title>
  <g style="isolation: isolate">
    <g id="arte">
      <g>
        <path d="M186.88,73.07C248.24,77,335.63,65,354.38,115.19c15.27,40.88-48.81,129.86-241.89,113.27C25.89,221,3.43,173.31,4.92,141.83,8,77.64,91.75,67,186.88,73.07Z" style="fill: url(#linear-gradient-3)"/>
        <g>
          <polygon points="0 159.66 0 85.83 91.21 34.61 90.99 105.95 0 159.66" style="fill: #d6eef3"/>
          <polygon points="176.2 156.1 176.2 82.27 90.99 34.61 90.21 106.95 176.2 156.1" style="fill: #95ccd5"/>
          <g>
            <g style="mix-blend-mode: multiply">
              <path d="M175.33,180.76,95,133.66a7.22,7.22,0,0,0-6.56,0L1.85,184.35c-1.8,1.05-1.79,2.74,0,3.79l80.38,47.11a7.2,7.2,0,0,0,6.55,0l86.55-50.69C177.16,183.51,177.15,181.81,175.33,180.76Z" style="mix-blend-mode: multiply;fill: url(#linear-gradient-4)"/>
            </g>
            <g style="isolation: isolate">
              <path d="M175.33,150.49,95,103.39a7.22,7.22,0,0,0-6.56,0L1.85,154.08c-1.8,1-1.79,2.74,0,3.79L82.25,205a7.2,7.2,0,0,0,6.55,0l86.55-50.69C177.16,153.24,177.15,151.54,175.33,150.49Z" style="fill: #b8e3f0"/>
              <path d="M175.35,154.29,88.8,205a7.2,7.2,0,0,1-6.55,0L1.87,157.87A2.32,2.32,0,0,1,.5,156v4.32a2.34,2.34,0,0,0,1.37,1.91L82.23,209.3a7.22,7.22,0,0,0,6.56,0l86.55-50.69a2.29,2.29,0,0,0,1.35-1.89V152.4A2.29,2.29,0,0,1,175.35,154.29Z" style="fill: #95d4ec"/>
            </g>
          </g>
          <g>
            <g style="isolation: isolate">
              <polygon points="102.37 159.82 109.76 155.52 119.36 161.06 111.97 165.36 102.37 159.82" style="fill: url(#linear-gradient-5)"/>
              <g>
                <path id="SVGID-31" data-name="SVGID" d="M125.86,161.7l-7.4,4.29c-1.66,1-4,.84-6.49-.63l7.39-4.29C121.9,162.53,124.2,162.66,125.86,161.7Z" style="fill: url(#linear-gradient)"/>
                <g style="clip-path: url(#clip-path)">
                  <g style="isolation: isolate">
                    <path d="M112,165.36l7.39-4.29c.29.16.57.31.85.44l-7.4,4.3a8.59,8.59,0,0,1-.84-.45Z" style="fill: url(#linear-gradient-7)"/>
                    <path d="M112.81,165.81l7.4-4.3a8.42,8.42,0,0,0,2.33.73l-7.4,4.3a8.53,8.53,0,0,1-2.33-.73Z" style="fill: url(#linear-gradient-8)"/>
                    <path d="M115.14,166.54l7.4-4.3a5,5,0,0,0,3.32-.54l-7.4,4.29a5,5,0,0,1-3.32.55Z" style="fill: url(#linear-gradient-9)"/>
                  </g>
                </g>
              </g>
              <polygon points="121.8 160.94 129.2 156.64 129.17 167.51 121.78 171.81 121.8 160.94" style="fill: #fafbfb"/>
              <polygon points="106.34 140.3 113.73 136 119.42 139.29 112.03 143.58 106.34 140.3" style="fill: #fff"/>
              <g style="isolation: isolate">
                <path id="SVGID-32" data-name="SVGID" d="M112,143.58l7.39-4.29a21.62,21.62,0,0,1,9.78,16.94v.41l-7.4,4.3c0-.14,0-.27,0-.41A21.66,21.66,0,0,0,112,143.58Z" style="fill: #fafbfb"/>
                <g style="clip-path: url(#clip-path-2)">
                  <g style="isolation: isolate">
                    <path d="M112,143.58l7.39-4.29a14.74,14.74,0,0,1,1.69,1.14l-7.39,4.3a17.41,17.41,0,0,0-1.69-1.15Z" style="fill: #fff"/>
                    <path d="M113.72,144.73l7.39-4.3a21.31,21.31,0,0,1,5.23,6.17,22.44,22.44,0,0,1,2.24,5.28l-7.39,4.29A23,23,0,0,0,119,150.9a21.33,21.33,0,0,0-5.23-6.17Z" style="fill: url(#linear-gradient-10)"/>
                    <path d="M121.19,156.17l7.39-4.29a17,17,0,0,1,.58,3.2l-7.4,4.3a17.08,17.08,0,0,0-.57-3.21Z" style="fill: #fafbfb"/>
                    <path d="M121.76,159.38l7.4-4.3a11.14,11.14,0,0,1,0,1.15v.41l-7.4,4.3c0-.14,0-.27,0-.41a11.18,11.18,0,0,0,0-1.15Z" style="fill: #fafbfb"/>
                  </g>
                </g>
              </g>
              <path d="M112,143.58a21.66,21.66,0,0,1,9.78,16.95c0,.14,0,.27,0,.41l0,10.87L112,166.14l-9.6-5.54v-.78l9.6,5.54c5,2.91,9.15.57,9.16-5.22s-4.07-12.87-9.11-15.78l-5.68-3.28v-.78Z" style="fill: #cbd2db"/>
            </g>
            <g style="isolation: isolate">
              <polygon points="88.39 140.18 88.4 145.13 94.39 148.6 94.37 143.66 88.39 140.18" style="fill: url(#linear-gradient-11)"/>
              <polygon points="94.37 143.66 94.39 148.6 105.39 142.25 105.38 137.31 94.37 143.66" style="fill: #fafbfb"/>
              <polygon points="77.88 146.25 77.9 151.19 88.4 145.13 88.39 140.18 77.88 146.25" style="fill: url(#linear-gradient-12)"/>
              <polygon points="72.86 156.08 72.87 161.02 83.88 154.67 83.87 149.73 72.86 156.08" style="fill: #fafbfb"/>
              <polygon points="72.86 156.08 66.88 152.6 54.15 145.21 48.17 141.73 48.18 146.68 54.16 150.15 66.89 157.55 72.87 161.02 72.86 156.08" style="fill: url(#linear-gradient-13)"/>
              <polygon points="48.17 141.73 54.15 145.21 66.88 152.6 72.86 156.08 83.87 149.73 77.88 146.25 88.39 140.18 94.37 143.66 105.38 137.31 99.39 133.83 86.67 126.43 80.69 122.96 48.17 141.73" style="fill: #fafbfb"/>
            </g>
            <g style="isolation: isolate">
              <g style="isolation: isolate">
                <g style="clip-path: url(#clip-path-3)">
                  <g>
                    <path d="M81.2,136.32,75.54,133a31.3,31.3,0,0,0,10.23-10.25l5.66,3.28A31.33,31.33,0,0,1,81.2,136.32Z" style="fill: url(#linear-gradient-14)"/>
                    <path d="M91.43,126.06l-5.66-3.28a37.47,37.47,0,0,0,3.45-6.8l5.65,3.29a37.66,37.66,0,0,1-3.44,6.79Z" style="opacity: 0;fill: url(#linear-gradient-15)"/>
                    <path d="M94.87,119.27,89.22,116a28.58,28.58,0,0,0,2-10.18c0-5-1.77-8.47-4.6-10.11L92.32,99c2.83,1.64,4.59,5.14,4.6,10.11a28.38,28.38,0,0,1-2,10.18Z" style="fill: url(#linear-gradient-16)"/>
                  </g>
                </g>
              </g>
              <g style="isolation: isolate">
                <g style="clip-path: url(#clip-path-4)">
                  <g>
                    <path d="M70,137.42l-5.66-3.29a8,8,0,0,0,3.55,1l5.66,3.29a8.08,8.08,0,0,1-3.55-1Z" style="fill: url(#linear-gradient-17)"/>
                    <path d="M73.53,138.46l-5.66-3.29A13.73,13.73,0,0,0,75.54,133l5.66,3.29a13.92,13.92,0,0,1-7.67,2.14Z" style="fill: url(#linear-gradient-18)"/>
                  </g>
                </g>
              </g>
              <g>
                <path id="SVGID-33" data-name="SVGID" d="M94.09,82.9l5.66,3.29C95,83.42,88.36,83.81,81.06,88l-5.65-3.29C82.71,80.52,89.32,80.13,94.09,82.9Z" style="fill: #fafbfb"/>
                <g style="clip-path: url(#clip-path-5)">
                  <g>
                    <path d="M81.06,88l-5.65-3.29c4.63-2.67,9-3.8,12.77-3.57l5.66,3.29c-3.79-.24-8.14.9-12.78,3.57Z" style="fill: #fafbfb"/>
                    <path d="M93.84,84.45l-5.66-3.29a13.37,13.37,0,0,1,5.91,1.74l5.66,3.29a13.37,13.37,0,0,0-5.91-1.74Z" style="fill: #fafbfb"/>
                  </g>
                </g>
              </g>
              <g>
                <path id="SVGID-34" data-name="SVGID" d="M62.55,150.2l-5.66-3.29c-4.71-2.74-7.63-8.56-7.66-16.84,0-16.67,11.68-37,26.18-45.34L81.06,88c-14.5,8.38-26.22,28.67-26.17,45.34C54.91,141.63,57.84,147.46,62.55,150.2Z" style="fill: #fafbfb"/>
                <g style="clip-path: url(#clip-path-6)">
                  <g style="isolation: isolate">
                    <path d="M64,105.1l-5.65-3.29c4.57-7.16,10.52-13.32,17-17.08L81.06,88c-6.5,3.76-12.45,9.92-17,17.08Z" style="fill: #fafbfb"/>
                  </g>
                </g>
              </g>
              <path d="M107.41,103c0-16.67-11.84-23.39-26.35-15a43.4,43.4,0,0,0-7.77,5.84C76,95.88,78.57,98,81.2,100c8.66-4.94,15.69-.9,15.72,9.07s-7,22.2-15.72,27.23a16.21,16.21,0,0,1-5.21,2c.17,1.84.31,3.68.43,5.53l21.92-12.66C103.92,122.42,107.44,112.18,107.41,103Z" style="fill: #fff"/>
            </g>
            <g>
              <g>
                <g style="isolation: isolate">
                  <polygon points="133.68 144.66 133.67 147.59 114.05 159 114.06 156.06 133.68 144.66" style="fill: #fafbfb"/>
                  <polygon points="114.06 156.06 114.05 159 53.09 123.79 53.1 120.86 114.06 156.06" style="fill: url(#linear-gradient-19)"/>
                  <polygon points="133.68 144.66 114.06 156.06 53.1 120.86 72.72 109.45 133.68 144.66" style="fill: #fff"/>
                </g>
                <g style="isolation: isolate">
                  <g>
                    <path id="SVGID-35" data-name="SVGID" d="M132.41,142.52v1.18a.93.93,0,0,1-.54.76v-1.17A.93.93,0,0,0,132.41,142.52Z" style="fill: #186d7d"/>
                    <g style="clip-path: url(#clip-path-7)">
                      <g style="isolation: isolate">
                        <path d="M132.41,142.52v1.18a.75.75,0,0,1-.2.48V143a.7.7,0,0,0,.2-.49Z" style="fill: #186d7d"/>
                        <path d="M132.21,143v1.17a1.38,1.38,0,0,1-.34.28v-1.17a1.41,1.41,0,0,0,.34-.28Z" style="fill: #186d7d"/>
                      </g>
                    </g>
                  </g>
                  <g>
                    <path id="SVGID-36" data-name="SVGID" d="M95.49,144.21V143a.93.93,0,0,0,.55.77V145A.91.91,0,0,1,95.49,144.21Z" style="fill: #186d7d"/>
                    <g style="clip-path: url(#clip-path-8)">
                      <path d="M96,143.81V145a.91.91,0,0,1-.55-.77V143a.93.93,0,0,0,.55.77Z" style="fill: #186d7d"/>
                    </g>
                  </g>
                  <polygon points="131.87 143.29 131.87 144.46 114.89 154.33 114.9 153.16 131.87 143.29" style="fill: #186d7d"/>
                  <polygon points="112.24 153.16 112.24 154.33 96.04 144.98 96.04 143.81 112.24 153.16" style="fill: #186d7d"/>
                  <g>
                    <path id="SVGID-37" data-name="SVGID" d="M114.9,153.16v1.17a2.88,2.88,0,0,1-2.65,0v-1.17A3,3,0,0,0,114.9,153.16Z" style="fill: #186d7d"/>
                    <g style="clip-path: url(#clip-path-9)">
                      <g style="isolation: isolate">
                        <path d="M114.9,153.16v1.17a2.48,2.48,0,0,1-.93.3v-1.18a2.53,2.53,0,0,0,.94-.29Z" style="fill: #186d7d"/>
                        <path d="M114,153.45v1.18a2.91,2.91,0,0,1-1.72-.3v-1.17a2.83,2.83,0,0,0,1.72.29Z" style="fill: #186d7d"/>
                      </g>
                    </g>
                  </g>
                  <path d="M131.86,141.75a.81.81,0,0,1,0,1.54l-17,9.87a3,3,0,0,1-2.66,0L96,143.81a.81.81,0,0,1,0-1.53l17-9.88a2.94,2.94,0,0,1,2.65,0Z" style="fill: #078fa9"/>
                </g>
              </g>
              <g style="isolation: isolate">
                <g>
                  <path id="SVGID-38" data-name="SVGID" d="M67.89,128.38V127.2a1,1,0,0,0,.6.85v1.17A1,1,0,0,1,67.89,128.38Z" style="fill: #186d7d"/>
                  <g style="clip-path: url(#clip-path-10)">
                    <path d="M68.49,128.05v1.17a1,1,0,0,1-.6-.84V127.2a1,1,0,0,0,.6.85Z" style="fill: #186d7d"/>
                  </g>
                </g>
                <g>
                  <path id="SVGID-39" data-name="SVGID" d="M112.39,131.15v1.17a1,1,0,0,1-.59.83V132A1,1,0,0,0,112.39,131.15Z" style="fill: #186d7d"/>
                  <g style="clip-path: url(#clip-path-11)">
                    <g style="isolation: isolate">
                      <path d="M112.39,131.15v1.17a.78.78,0,0,1-.22.53v-1.17a.79.79,0,0,0,.22-.53Z" style="fill: #186d7d"/>
                      <path d="M112.17,131.68v1.17a1.42,1.42,0,0,1-.37.3V132a1.42,1.42,0,0,0,.37-.3Z" style="fill: #186d7d"/>
                    </g>
                  </g>
                </g>
                <polygon points="111.8 131.98 111.8 133.15 95.06 142.89 95.06 141.72 111.8 131.98" style="fill: #186d7d"/>
                <polygon points="92.17 141.72 92.17 142.89 68.49 129.22 68.49 128.05 92.17 141.72" style="fill: #186d7d"/>
                <g>
                  <path id="SVGID-40" data-name="SVGID" d="M95.06,141.72v1.17a3.2,3.2,0,0,1-2.89,0v-1.17A3.2,3.2,0,0,0,95.06,141.72Z" style="fill: #186d7d"/>
                  <g style="clip-path: url(#clip-path-12)">
                    <g style="isolation: isolate">
                      <path d="M95.06,141.72v1.17a2.72,2.72,0,0,1-1,.32V142a2.92,2.92,0,0,0,1-.32Z" style="fill: #186d7d"/>
                      <path d="M94.05,142v1.17a3.16,3.16,0,0,1-1.87-.32v-1.17a3.18,3.18,0,0,0,1.88.32Z" style="fill: #186d7d"/>
                    </g>
                  </g>
                </g>
                <path d="M111.79,130.31a.88.88,0,0,1,0,1.67l-16.74,9.74a3.2,3.2,0,0,1-2.89,0L68.49,128.05a.89.89,0,0,1,0-1.68l16.73-9.73a3.14,3.14,0,0,1,2.89,0Z" style="fill: #078fa9"/>
              </g>
              <g style="isolation: isolate">
                <g>
                  <path id="SVGID-41" data-name="SVGID" d="M84.58,114.68v1.18a.93.93,0,0,1-.55.76v-1.17A.93.93,0,0,0,84.58,114.68Z" style="fill: #186d7d"/>
                  <g style="clip-path: url(#clip-path-13)">
                    <g style="isolation: isolate">
                      <path d="M84.58,114.68v1.18a.75.75,0,0,1-.2.48v-1.17a.75.75,0,0,0,.2-.49Z" style="fill: #186d7d"/>
                      <path d="M84.38,115.17v1.17a1.27,1.27,0,0,1-.35.28v-1.17a1.64,1.64,0,0,0,.34-.28Z" style="fill: #186d7d"/>
                    </g>
                  </g>
                </g>
                <g>
                  <path id="SVGID-42" data-name="SVGID" d="M57.33,122.05v-1.17a1,1,0,0,0,.56.78v1.17A1,1,0,0,1,57.33,122.05Z" style="fill: #186d7d"/>
                  <g style="clip-path: url(#clip-path-14)">
                    <path d="M57.89,121.66v1.17a1,1,0,0,1-.55-.78v-1.17a1,1,0,0,0,.56.78Z" style="fill: #186d7d"/>
                  </g>
                </g>
                <polygon points="84.04 115.45 84.03 116.62 67.06 126.49 67.06 125.32 84.04 115.45" style="fill: #186d7d"/>
                <polygon points="64.41 125.32 64.41 126.49 57.88 122.83 57.89 121.66 64.41 125.32" style="fill: #186d7d"/>
                <g>
                  <path id="SVGID-43" data-name="SVGID" d="M67.06,125.32v1.17a2.88,2.88,0,0,1-2.65,0v-1.17A2.94,2.94,0,0,0,67.06,125.32Z" style="fill: #186d7d"/>
                  <g style="clip-path: url(#clip-path-15)">
                    <g style="isolation: isolate">
                      <path d="M67.06,125.32v1.17a2.54,2.54,0,0,1-.93.3v-1.18a2.48,2.48,0,0,0,.93-.29Z" style="fill: #186d7d"/>
                      <path d="M66.13,125.61v1.18a2.89,2.89,0,0,1-1.72-.3v-1.17a2.83,2.83,0,0,0,1.72.29Z" style="fill: #186d7d"/>
                    </g>
                  </g>
                </g>
                <path d="M84,113.91a.82.82,0,0,1,0,1.54l-17,9.87a2.94,2.94,0,0,1-2.65,0l-6.52-3.66c-.74-.43-.74-1.12,0-1.54l17-9.87a2.88,2.88,0,0,1,2.65,0Z" style="fill: #078fa9"/>
              </g>
            </g>
            <path d="M65.38,127.3c0-10,7-22.2,15.72-27.23l.1,0c-2.63-2-5.17-4.14-7.91-6.16-10.69,10-18.44,25.94-18.4,39.5,0,9.14,3.59,15.29,9.2,17.6l12.33-7.12c-.12-1.85-.26-3.69-.43-5.53C69.83,139.39,65.4,135.21,65.38,127.3Z" style="fill: #fff"/>
            <ellipse cx="81.06" cy="118.45" rx="22.58" ry="13.03" transform="translate(-62.04 129.43) rotate(-60)" style="opacity: 0.5;mix-blend-mode: screen;fill: url(#linear-gradient-20)"/>
            <path d="M62.55,150.2l-5.66-3.29c-4.71-2.74-7.63-8.56-7.66-16.84a47.81,47.81,0,0,1,3.41-16.95l5.66,3.29a47.73,47.73,0,0,0-3.41,17c0,8.27,3,14.1,7.66,16.84Z" style="fill: url(#linear-gradient-21)"/>
            <path d="M58.3,116.41l-5.66-3.29a63.29,63.29,0,0,1,5.74-11.31L64,105.1a63.25,63.25,0,0,0-5.73,11.31Z" style="fill: #fafbfb"/>
            <g>
              <path d="M80.26,95.44a2.08,2.08,0,0,1,.94-1.63c.52-.3,1-.06,1,.54a2.11,2.11,0,0,1-1,1.65C80.68,96.3,80.26,96.05,80.26,95.44Z" style="fill: #4368b0"/>
              <path d="M74.9,98.54a13.94,13.94,0,0,1,6.3-10.92c3.48-2,6.31-.38,6.31,3.64a14,14,0,0,1-6.31,10.92C77.72,104.19,74.9,102.56,74.9,98.54Z" style="mix-blend-mode: screen;fill: url(#radial-gradient)"/>
              <path d="M79.92,95.64a2.84,2.84,0,0,1,1.28-2.23c.71-.41,1.29-.08,1.29.75a2.85,2.85,0,0,1-1.29,2.23C80.49,96.8,79.91,96.47,79.92,95.64Z" style="mix-blend-mode: color-dodge;fill: url(#radial-gradient-2)"/>
            </g>
            <g>
              <path d="M86.56,94.4a2.09,2.09,0,0,1,1-1.63c.52-.31.94-.06.94.54A2.08,2.08,0,0,1,87.51,95C87,95.26,86.56,95,86.56,94.4Z" style="fill: #4368b0"/>
              <path d="M81.2,97.5a13.92,13.92,0,0,1,6.31-10.92c3.48-2,6.3-.38,6.3,3.64a13.94,13.94,0,0,1-6.3,10.92C84,103.15,81.2,101.52,81.2,97.5Z" style="mix-blend-mode: screen;fill: url(#radial-gradient-3)"/>
              <path d="M86.22,94.6a2.83,2.83,0,0,1,1.29-2.23c.71-.41,1.28-.08,1.28.75a2.84,2.84,0,0,1-1.28,2.23C86.79,95.76,86.22,95.42,86.22,94.6Z" style="mix-blend-mode: color-dodge;fill: url(#radial-gradient-4)"/>
            </g>
            <g>
              <path d="M75,100.15a2.07,2.07,0,0,1,1-1.63c.52-.31,1-.07,1,.54a2.09,2.09,0,0,1-1,1.64C75.39,101,75,100.75,75,100.15Z" style="fill: #4368b0"/>
              <path d="M69.6,103.25a13.92,13.92,0,0,1,6.31-10.92c3.48-2,6.3-.38,6.3,3.64a14,14,0,0,1-6.3,10.92C72.42,108.89,69.6,107.27,69.6,103.25Z" style="mix-blend-mode: screen;fill: url(#radial-gradient-5)"/>
              <path d="M74.62,100.35a2.85,2.85,0,0,1,1.29-2.23c.71-.41,1.28-.08,1.28.75a2.84,2.84,0,0,1-1.28,2.23C75.2,101.51,74.62,101.17,74.62,100.35Z" style="mix-blend-mode: color-dodge;fill: url(#radial-gradient-6)"/>
            </g>
          </g>
        </g>
        <g>
          <line x1="311.14" y1="71.68" x2="311.14" y2="71.68" style="fill: none;stroke: #00709e;stroke-linecap: round;stroke-linejoin: round;stroke-width: 1.5412067623138426px"/>
          <path d="M311.14,67.84V24.58c0-2.53-1.36-4.58-3.05-4.58H161.63c-1.68,0-3,2.05-3,4.58v7.5" style="fill: none;stroke: #00709e;stroke-linecap: round;stroke-linejoin: round;stroke-width: 1.5412067623138426px;stroke-dasharray: 0,3.8405051231384277"/>
          <line x1="158.58" y1="34" x2="158.58" y2="34" style="fill: none;stroke: #00709e;stroke-linecap: round;stroke-linejoin: round;stroke-width: 1.5412067623138426px"/>
          <polygon points="317.45 66.57 316.32 65.52 311.15 71.09 305.97 65.52 304.84 66.57 311.15 73.35 317.45 66.57" style="fill: #00709e"/>
        </g>
        <g>
          <g>
            <path d="M226.15,30.48a8.2,8.2,0,0,1,0-16.4,8,8,0,0,1,1.47.13A10.23,10.23,0,0,1,246,18.81a5.87,5.87,0,0,1-.51,11.66H226.15Z" style="fill: #89d6f2"/>
            <path d="M235.87,10.54a9.71,9.71,0,0,1,9.67,8.72A5.37,5.37,0,0,1,245.09,30H226.15a7.7,7.7,0,0,1,0-15.39,8,8,0,0,1,1.7.18,9.72,9.72,0,0,1,8-4.23m0-1a10.75,10.75,0,0,0-8.47,4.14A8.71,8.71,0,1,0,226.15,31H246v-.07a6.37,6.37,0,0,0,.44-12.54,10.69,10.69,0,0,0-10.57-8.86Z" style="fill: #89d6f2"/>
            <path d="M235.87,11.55a8.69,8.69,0,0,1,8.67,7.82l.08.83.84.07a4.35,4.35,0,0,1-.4,8.69H245l-1,0v0H226.15a6.68,6.68,0,1,1,1.47-13.2l.67.15.39-.56a8.72,8.72,0,0,1,7.19-3.8m0-1a9.72,9.72,0,0,0-8,4.23,8,8,0,0,0-1.7-.18,7.7,7.7,0,0,0,0,15.39h18.94a5.37,5.37,0,0,0,.45-10.72,9.71,9.71,0,0,0-9.67-8.72Z" style="fill: #00394b"/>
          </g>
          <g style="opacity: 0.1">
            <path d="M246.3,27.55H228.45a7.26,7.26,0,0,1-7.26-7.26,23.89,23.89,0,0,1,.6-4.42A7.7,7.7,0,0,0,226.05,30H245a5.37,5.37,0,0,0,5.26-4.33A5,5,0,0,1,246.3,27.55Z"/>
          </g>
        </g>
        <g>
          <g style="mix-blend-mode: multiply">
            <path d="M337.74,179.52l-57.37-36.1a7.22,7.22,0,0,0-6.56,0L235.26,166.1c-1.81,1.05-1.8,2.75,0,3.8L292.66,206a7.27,7.27,0,0,0,6.55,0l38.55-22.69C339.57,182.27,339.56,180.57,337.74,179.52Z" style="mix-blend-mode: multiply;fill: url(#linear-gradient-22)"/>
          </g>
          <g>
            <path d="M338.78,106.36,281.3,73c-1.57-.91-2.86-.19-2.87,1.62l-.21,41.28a6.35,6.35,0,0,0,2.83,4.93l57.48,33.39c1.57.91,2.85.18,2.86-1.62l.21-41.28A6.28,6.28,0,0,0,338.78,106.36Z" style="fill: url(#linear-gradient-23)"/>
            <rect x="284.53" y="123.78" width="1.65" height="2.27" style="fill: url(#linear-gradient-24)"/>
            <path d="M339.08,155.5h-1.53v1.68L280.41,124a6.17,6.17,0,0,0-5.67,0L234.1,144.83v3.66h0a2.08,2.08,0,0,0,1.17,1.56l57.49,33.39a6.35,6.35,0,0,0,5.67,0l39.47-22.78a2.06,2.06,0,0,0,1.16-1.56h0Z" style="fill: url(#linear-gradient-25)"/>
            <path d="M337.91,157.12,298.44,179.9a6.29,6.29,0,0,1-5.67,0l-57.49-33.39c-1.56-.91-1.57-2.39,0-3.29l39.46-22.78a6.17,6.17,0,0,1,5.67,0l5.77,3.35-1.09.63,41.74,24.09,1-.55,10.1,5.86C339.47,154.73,339.48,156.21,337.91,157.12Z" style="fill: #fff"/>
            <path d="M280.46,72.1c.25-.16.53-.31.81-.47a2,2,0,0,1,2,.2l57.48,33.39a6.31,6.31,0,0,1,2.81,4.92l-.21,41.28a2,2,0,0,1-.83,1.82l-2,1.18a2,2,0,0,0,.83-1.82l.21-41.28a6.28,6.28,0,0,0-2.83-4.93L281.27,73a2,2,0,0,0-2-.21Z" style="fill: url(#linear-gradient-26)"/>
            <g>
              <path d="M330.54,162.94a2.33,2.33,0,0,1-1,1.83c-.53.3-1,0-1-.72a2.31,2.31,0,0,1,1-1.84C330.11,161.91,330.54,162.23,330.54,162.94Z" style="fill: #30302f"/>
              <path d="M328.74,164.25a2.3,2.3,0,0,0,.95-1.83,1.77,1.77,0,0,0,0-.24c.48-.22.86.09.86.76a2.33,2.33,0,0,1-1,1.83c-.47.27-.85,0-.94-.48Z" style="fill: #5c6a7c"/>
              <path d="M329.32,164.62a2.28,2.28,0,0,0,1-1.83,1,1,0,0,0-.22-.68c.29.06.48.35.48.83a2.33,2.33,0,0,1-1,1.83.56.56,0,0,1-.74-.05A.65.65,0,0,0,329.32,164.62Z" style="fill: #f2f2f2"/>
            </g>
            <g>
              <path d="M327.16,164.91a2.31,2.31,0,0,1-1,1.83c-.53.3-1,0-1-.73a2.27,2.27,0,0,1,1-1.82C326.73,163.88,327.16,164.2,327.16,164.91Z" style="fill: #30302f"/>
              <path d="M325.35,166.22a2.31,2.31,0,0,0,1-1.83,1.66,1.66,0,0,0,0-.24c.49-.22.87.09.87.76a2.31,2.31,0,0,1-1,1.83c-.46.27-.85,0-.94-.48Z" style="fill: #5c6a7c"/>
              <path d="M325.93,166.59a2.28,2.28,0,0,0,1-1.83,1,1,0,0,0-.22-.68c.29.06.49.35.49.83a2.31,2.31,0,0,1-1,1.83.56.56,0,0,1-.74-.05A.65.65,0,0,0,325.93,166.59Z" style="fill: #f2f2f2"/>
            </g>
            <path d="M332,155.57a3.68,3.68,0,0,1-1.69,1.75L310.1,169a8.22,8.22,0,0,1-7.37.3l-51-29.43-.06,0a2.42,2.42,0,0,1-1.09-1.17c-.4-1,.18-2.17,1.68-3l20.17-11.72a8.2,8.2,0,0,1,7.36-.31l51,29.43a2.65,2.65,0,0,1,1.07,1.06A1.75,1.75,0,0,1,332,155.57Z" style="fill: url(#linear-gradient-27)"/>
            <path d="M332,155.57a3.68,3.68,0,0,1-1.69,1.75L310.1,169a8.22,8.22,0,0,1-7.37.3l-51-29.43-.06,0a2.42,2.42,0,0,1-1.09-1.17,3.58,3.58,0,0,1,1.68-1.76l20.17-11.72a8.2,8.2,0,0,1,7.36-.31l51,29.44a2.57,2.57,0,0,1,1.07,1A1.42,1.42,0,0,1,332,155.57Z" style="fill: #f2f2f2"/>
            <g>
              <polygon points="279.7 131.71 275.7 134 279.82 136.41 283.81 134.11 279.7 131.71" style="fill: #5c6a7c"/>
              <polygon points="273.33 133.65 269.35 135.94 273.47 138.34 277.46 136.06 273.33 133.65" style="fill: #5c6a7c"/>
              <polygon points="267.59 130.61 262.98 133.25 260.32 134.77 258.99 135.54 265.94 139.6 269.93 137.32 267.79 136.07 272.4 133.4 267.59 130.61" style="fill: #5c6a7c"/>
              <polygon points="277.98 136.35 273.98 138.65 278.11 141.05 282.08 138.76 277.98 136.35" style="fill: #5c6a7c"/>
              <polygon points="258.06 136.07 254.07 138.37 262.57 143.34 266.56 141.04 258.06 136.07" style="fill: #5c6a7c"/>
              <polygon points="266.97 141.28 262.98 143.57 269.42 147.33 273.42 145.03 266.97 141.28" style="fill: #5c6a7c"/>
              <polygon points="279.68 143.02 275.68 145.31 279.81 147.71 283.8 145.43 279.68 143.02" style="fill: #5c6a7c"/>
              <polygon points="277.63 124.83 273.64 127.13 277.76 129.53 281.75 127.24 277.63 124.83" style="fill: #5c6a7c"/>
              <polygon points="282.53 127.69 278.54 129.99 282.66 132.4 286.66 130.11 282.53 127.69" style="fill: #5c6a7c"/>
              <polygon points="272.74 127.64 268.75 129.93 275.13 133.67 279.12 131.37 272.74 127.64" style="fill: #5c6a7c"/>
              <polygon points="287.44 130.56 283.44 132.86 287.57 135.26 291.56 132.97 287.44 130.56" style="fill: #5c6a7c"/>
              <polygon points="292.35 133.43 288.36 135.73 292.48 138.13 296.47 135.84 292.35 133.43" style="fill: #5c6a7c"/>
              <polygon points="284.39 134.44 280.39 136.73 284.52 139.15 288.5 136.85 284.39 134.44" style="fill: #5c6a7c"/>
              <polygon points="297.26 136.3 293.25 138.59 297.38 141 301.38 138.7 297.26 136.3" style="fill: #5c6a7c"/>
              <polygon points="289.08 137.18 285.09 139.48 289.21 141.88 293.2 139.59 289.08 137.18" style="fill: #5c6a7c"/>
              <polygon points="270.46 137.62 266.47 139.92 270.59 142.34 274.58 140.03 270.46 137.62" style="fill: #5c6a7c"/>
              <polygon points="302.16 139.16 298.17 141.46 302.29 143.87 306.29 141.57 302.16 139.16" style="fill: #5c6a7c"/>
              <polygon points="282.61 139.07 278.62 141.35 282.73 143.76 286.72 141.47 282.61 139.07" style="fill: #5c6a7c"/>
              <polygon points="293.77 139.92 289.78 142.21 293.9 144.62 297.89 142.34 293.77 139.92" style="fill: #5c6a7c"/>
              <polygon points="275.1 140.34 271.11 142.63 275.22 145.03 279.23 142.75 275.1 140.34" style="fill: #5c6a7c"/>
              <polygon points="287.24 141.77 283.25 144.06 287.36 146.47 291.37 144.18 287.24 141.77" style="fill: #5c6a7c"/>
              <polygon points="307.06 142.03 303.07 144.32 307.19 146.72 311.2 144.44 307.06 142.03" style="fill: #5c6a7c"/>
              <polygon points="298.46 142.66 294.47 144.95 298.59 147.35 302.58 145.06 298.46 142.66" style="fill: #5c6a7c"/>
              <polygon points="291.88 144.48 287.89 146.77 292.01 149.18 296.01 146.88 291.88 144.48" style="fill: #5c6a7c"/>
              <polygon points="311.97 144.9 307.98 147.19 312.11 149.59 316.09 147.31 311.97 144.9" style="fill: #5c6a7c"/>
              <polygon points="303.16 145.4 299.16 147.68 303.28 150.1 307.28 147.8 303.16 145.4" style="fill: #5c6a7c"/>
              <polygon points="284.47 145.82 280.48 148.1 284.6 150.51 288.59 148.22 284.47 145.82" style="fill: #5c6a7c"/>
              <polygon points="296.52 147.18 292.53 149.48 296.65 151.89 300.65 149.59 296.52 147.18" style="fill: #5c6a7c"/>
              <polygon points="316.88 147.76 312.89 150.05 317.01 152.46 321 150.17 316.88 147.76" style="fill: #5c6a7c"/>
              <polygon points="307.85 148.14 303.84 150.43 307.98 152.84 311.97 150.54 307.85 148.14" style="fill: #5c6a7c"/>
              <polygon points="289.06 148.49 285.06 150.78 289.18 153.19 293.18 150.89 289.06 148.49" style="fill: #5c6a7c"/>
              <polygon points="301.16 149.9 297.17 152.19 301.29 154.59 305.29 152.31 301.16 149.9" style="fill: #5c6a7c"/>
              <polygon points="293.69 151.2 289.7 153.49 293.83 155.89 297.81 153.6 293.69 151.2" style="fill: #5c6a7c"/>
              <polygon points="323.64 151.72 319.65 154.01 323.79 156.41 327.77 154.13 323.64 151.72" style="fill: #5c6a7c"/>
              <polygon points="305.79 152.6 301.79 154.9 305.92 157.3 309.91 155.01 305.79 152.6" style="fill: #5c6a7c"/>
              <polygon points="273.83 145.28 269.84 147.58 287.94 158.15 291.93 155.85 273.83 145.28" style="fill: #5c6a7c"/>
              <polygon points="298.27 153.87 294.28 156.17 298.4 158.57 302.4 156.29 298.27 153.87" style="fill: #5c6a7c"/>
              <polygon points="312.74 151 308.75 153.28 318.9 159.22 322.88 156.94 312.74 151" style="fill: #5c6a7c"/>
              <polygon points="310.44 155.32 306.45 157.61 314.01 162.03 318 159.73 310.44 155.32" style="fill: #5c6a7c"/>
              <polygon points="292.52 156.19 288.53 158.5 294.97 162.25 298.96 159.96 292.52 156.19" style="fill: #5c6a7c"/>
              <polygon points="302.96 156.61 298.99 158.91 309.13 164.83 313.12 162.54 302.96 156.61" style="fill: #5c6a7c"/>
              <polygon points="299.48 160.26 295.48 162.56 304.22 167.65 308.2 165.36 299.48 160.26" style="fill: #5c6a7c"/>
            </g>
            <g>
              <path d="M279.82,160.13a2.73,2.73,0,0,1-1.12,1.09l-3.57,2.13a5.84,5.84,0,0,1-5.26.22l-9.28-5.35a2,2,0,0,1-.74-.71c-.42-.75,0-1.67,1.12-2.33l3.57-2.13a5.87,5.87,0,0,1,5.26-.22l9.28,5.35A1.42,1.42,0,0,1,279.82,160.13Z" style="fill: #7c92b7"/>
              <path d="M279.82,160.13a2.73,2.73,0,0,1-1.12,1.09l-3.57,2.13a5.84,5.84,0,0,1-5.26.22l-9.28-5.35a2,2,0,0,1-.74-.71,2.73,2.73,0,0,1,1.12-1.09l3.57-2.14a5.87,5.87,0,0,1,5.26-.21l9.28,5.35A1.88,1.88,0,0,1,279.82,160.13Z" style="fill: #f2f2f2"/>
            </g>
            <path d="M310.16,93.07a2.47,2.47,0,0,0,1,2c.57.33,1,0,1-.79a2.53,2.53,0,0,0-1-2C310.62,92,310.16,92.3,310.16,93.07Z" style="fill: #0b7c91"/>
            <polygon points="281.28 117.31 337.7 150.49 337.7 112.06 281.28 78.88 281.28 117.31" style="fill: url(#linear-gradient-28)"/>
            <polygon points="282.25 79.44 282.25 116.79 337.7 149.41 337.7 150.49 281.28 117.31 281.28 78.88 282.25 79.44" style="fill: url(#linear-gradient-29)"/>
            <polygon points="337.7 150.49 281.28 117.31 282.25 116.79 337.7 149.41 337.7 150.49" style="fill: #f2f2f2"/>
            <g>
              <polygon points="331.75 163.71 335.41 161.64 335.41 159.05 331.75 161.13 331.75 163.71" style="fill: #f2f2f2"/>
              <polygon points="334.67 161.21 331.9 162.77 331.9 163.45 335.26 161.55 335.26 161.55 334.67 161.21" style="fill: #5c6a7c"/>
              <g>
                <polygon points="331.9 161.22 331.9 162.77 334.66 161.21 334.66 159.66 334.51 159.74 331.9 161.22" style="fill: #30302f"/>
                <polygon points="331.9 161.45 331.9 162.55 334.51 161.07 334.51 159.97 331.9 161.45" style="fill: #30273b"/>
                <polygon points="335.26 160.86 335.26 159.31 334.67 159.66 334.67 161.21 335.26 161.55 335.26 160.86" style="fill: #414141"/>
              </g>
            </g>
            <g>
              <polygon points="284.45 103.65 301.58 113.73 301.58 93.37 284.45 83.28 284.45 103.65" style="fill: #b8e3f0"/>
              <g>
                <g style="isolation: isolate">
                  <polygon points="291.32 102.91 290.18 102.25 288.69 103.11 289.83 103.77 291.32 102.91" style="fill: url(#linear-gradient-30)"/>
                  <g>
                    <path id="SVGID-44" data-name="SVGID" d="M287.68,103.2l1.15.67a1,1,0,0,0,1-.1l-1.14-.66A1,1,0,0,1,287.68,103.2Z" style="fill: url(#linear-gradient-2)"/>
                    <g style="clip-path: url(#clip-path-16)">
                      <g style="isolation: isolate">
                        <path d="M289.83,103.77l-1.14-.66-.13.07,1.14.66.13-.07Z" style="fill: url(#linear-gradient-32)"/>
                        <path d="M289.7,103.84l-1.14-.66a1.92,1.92,0,0,1-.37.11l1.15.67a1.27,1.27,0,0,0,.36-.12Z" style="fill: url(#linear-gradient-33)"/>
                        <path d="M289.34,104l-1.15-.67a.73.73,0,0,1-.51-.09l1.15.67a.73.73,0,0,0,.51.09Z" style="fill: url(#linear-gradient-34)"/>
                      </g>
                    </g>
                  </g>
                  <polygon points="288.31 103.09 287.16 102.42 287.17 104.11 288.31 104.77 288.31 103.09" style="fill: #fafbfb"/>
                  <polygon points="290.71 99.89 289.56 99.22 288.68 99.73 289.82 100.39 290.71 99.89" style="fill: #fff"/>
                  <g style="isolation: isolate">
                    <path id="SVGID-45" data-name="SVGID" d="M289.82,100.39l-1.14-.66a3,3,0,0,0-1.08,1.13,3.17,3.17,0,0,0-.44,1.5v.06l1.15.67V103a3.06,3.06,0,0,1,.44-1.49A3.2,3.2,0,0,1,289.82,100.39Z" style="fill: #fafbfb"/>
                    <g style="clip-path: url(#clip-path-17)">
                      <g style="isolation: isolate">
                        <path d="M289.82,100.39l-1.14-.66a1.51,1.51,0,0,0-.26.18l1.14.66.26-.18Z" style="fill: #fff"/>
                        <path d="M289.56,100.57l-1.14-.66a3.21,3.21,0,0,0-.82,1,3.57,3.57,0,0,0-.34.82l1.14.67a4.13,4.13,0,0,1,.35-.82,3.52,3.52,0,0,1,.81-1Z" style="fill: url(#linear-gradient-35)"/>
                        <path d="M288.4,102.35l-1.14-.67a2.29,2.29,0,0,0-.09.5l1.14.66a4.63,4.63,0,0,1,.09-.49Z" style="fill: #fafbfb"/>
                        <path d="M288.31,102.84l-1.14-.66a1.09,1.09,0,0,0,0,.18v.06l1.15.67v-.25Z" style="fill: #fafbfb"/>
                      </g>
                    </g>
                  </g>
                  <path d="M289.82,100.39a3.2,3.2,0,0,0-1.07,1.14,3.06,3.06,0,0,0-.44,1.49v1.75l1.52-.88,1.49-.86v-.12l-1.49.86c-.78.45-1.42.09-1.42-.81a3.09,3.09,0,0,1,1.42-2.44l.88-.51v-.12Z" style="fill: #cbd2db"/>
                </g>
                <g style="isolation: isolate">
                  <polygon points="293.49 99.87 293.49 100.63 292.56 101.17 292.56 100.41 293.49 99.87" style="fill: url(#linear-gradient-36)"/>
                  <polygon points="292.56 100.41 292.56 101.17 290.85 100.19 290.86 99.42 292.56 100.41" style="fill: #fafbfb"/>
                  <polygon points="295.12 100.81 295.12 101.58 293.49 100.63 293.49 99.87 295.12 100.81" style="fill: url(#linear-gradient-37)"/>
                  <polygon points="295.9 102.33 295.9 103.1 294.19 102.11 294.19 101.35 295.9 102.33" style="fill: #fafbfb"/>
                  <polygon points="295.9 102.33 296.83 101.79 298.8 100.65 299.73 100.11 299.73 100.87 298.8 101.41 296.83 102.56 295.9 103.1 295.9 102.33" style="fill: url(#linear-gradient-38)"/>
                  <polygon points="299.73 100.11 298.8 100.65 296.83 101.79 295.9 102.33 294.19 101.35 295.12 100.81 293.49 99.87 292.56 100.41 290.86 99.42 291.78 98.88 293.76 97.73 294.69 97.19 299.73 100.11" style="fill: #fafbfb"/>
                </g>
                <g style="isolation: isolate">
                  <g style="isolation: isolate">
                    <g style="clip-path: url(#clip-path-18)">
                      <g>
                        <path d="M294.61,99.27l.87-.51a4.9,4.9,0,0,1-1.58-1.59l-.88.51a4.92,4.92,0,0,0,1.59,1.59Z" style="fill: url(#linear-gradient-39)"/>
                        <path d="M293,97.68l.88-.51a5.57,5.57,0,0,1-.54-1.06l-.87.51a6.17,6.17,0,0,0,.53,1.06Z" style="opacity: 0;fill: url(#linear-gradient-40)"/>
                        <path d="M292.49,96.62l.87-.51a4.31,4.31,0,0,1-.31-1.58,1.71,1.71,0,0,1,.71-1.57l-.88.51a1.71,1.71,0,0,0-.71,1.57,4.33,4.33,0,0,0,.32,1.58Z" style="fill: url(#linear-gradient-41)"/>
                      </g>
                    </g>
                  </g>
                  <g style="isolation: isolate">
                    <g style="clip-path: url(#clip-path-19)">
                      <g>
                        <path d="M296.35,99.44l.88-.51a1.3,1.3,0,0,1-.56.16l-.87.51a1.26,1.26,0,0,0,.55-.16Z" style="fill: url(#linear-gradient-42)"/>
                        <path d="M295.8,99.6l.87-.51a2.18,2.18,0,0,1-1.19-.33l-.87.51a2.14,2.14,0,0,0,1.19.33Z" style="fill: url(#linear-gradient-43)"/>
                      </g>
                    </g>
                  </g>
                  <g>
                    <path id="SVGID-46" data-name="SVGID" d="M292.61,91l-.88.51a2.88,2.88,0,0,1,2.9.28l.88-.51A2.88,2.88,0,0,0,292.61,91Z" style="fill: #fafbfb"/>
                    <g style="clip-path: url(#clip-path-20)">
                      <g>
                        <path d="M294.63,91.77l.88-.51a3.61,3.61,0,0,0-2-.55l-.87.51a3.6,3.6,0,0,1,2,.55Z" style="fill: #fafbfb"/>
                        <path d="M292.65,91.22l.87-.51a2,2,0,0,0-.91.27l-.88.51a2,2,0,0,1,.92-.27Z" style="fill: #fafbfb"/>
                      </g>
                    </g>
                  </g>
                  <g>
                    <path id="SVGID-47" data-name="SVGID" d="M297.5,101.42l.88-.51a2.86,2.86,0,0,0,1.19-2.61,9,9,0,0,0-4.06-7l-.88.51a9,9,0,0,1,4.06,7A2.86,2.86,0,0,1,297.5,101.42Z" style="fill: #fafbfb"/>
                    <g style="clip-path: url(#clip-path-21)">
                      <g style="isolation: isolate">
                        <path d="M297.27,94.42l.88-.51a8.15,8.15,0,0,0-2.64-2.65l-.88.51a8.15,8.15,0,0,1,2.64,2.65Z" style="fill: #fafbfb"/>
                      </g>
                    </g>
                  </g>
                  <path d="M290.54,94.1c0-2.58,1.84-3.62,4.09-2.33a6.78,6.78,0,0,1,1.2.91c-.42.31-.81.65-1.22,1-1.35-.77-2.44-.14-2.44,1.4a5.36,5.36,0,0,0,2.44,4.23,2.63,2.63,0,0,0,.81.31c0,.28-.05.57-.07.85l-3.4-2A8.45,8.45,0,0,1,290.54,94.1Z" style="fill: #fff"/>
                </g>
                <g>
                  <g>
                    <g style="isolation: isolate">
                      <polygon points="286.47 100.56 286.47 101.02 289.51 102.79 289.51 102.33 286.47 100.56" style="fill: #fafbfb"/>
                      <polygon points="289.51 102.33 289.51 102.79 298.97 97.32 298.97 96.87 289.51 102.33" style="fill: url(#linear-gradient-44)"/>
                      <polygon points="286.47 100.56 289.51 102.33 298.97 96.87 295.92 95.1 286.47 100.56" style="fill: #fff"/>
                    </g>
                    <g style="isolation: isolate">
                      <g>
                        <path id="SVGID-48" data-name="SVGID" d="M286.66,100.23v.18a.15.15,0,0,0,.09.12v-.18A.15.15,0,0,1,286.66,100.23Z" style="fill: #186d7d"/>
                        <g style="clip-path: url(#clip-path-22)">
                          <g style="isolation: isolate">
                            <path d="M286.66,100.23v.18a.13.13,0,0,0,0,.08v-.18a.13.13,0,0,1,0-.08Z" style="fill: #186d7d"/>
                            <path d="M286.69,100.31v.18l.06,0v-.18l-.06,0Z" style="fill: #186d7d"/>
                          </g>
                        </g>
                      </g>
                      <g>
                        <path id="SVGID-49" data-name="SVGID" d="M292.39,100.31a.15.15,0,0,1-.09.12v.18" style="fill: #186d7d"/>
                        <g style="clip-path: url(#clip-path-23)">
                          <path d="M292.3,100.43v.18a.14.14,0,0,0,.08-.12v-.18a.15.15,0,0,1-.09.12Z" style="fill: #186d7d"/>
                        </g>
                      </g>
                      <polygon points="286.75 100.35 286.75 100.53 289.38 102.06 289.38 101.88 286.75 100.35" style="fill: #186d7d"/>
                      <polyline points="292.31 100.61 292.31 100.43 289.79 101.88 289.79 102.06" style="fill: #186d7d"/>
                      <g>
                        <path id="SVGID-50" data-name="SVGID" d="M289.38,101.88v.18a.43.43,0,0,0,.41,0v-.18A.43.43,0,0,1,289.38,101.88Z" style="fill: #186d7d"/>
                        <g style="clip-path: url(#clip-path-24)">
                          <g style="isolation: isolate">
                            <path d="M289.38,101.88v.18a.34.34,0,0,0,.14,0v-.18l-.14-.05Z" style="fill: #186d7d"/>
                            <path d="M289.52,101.93v.18a.47.47,0,0,0,.27,0v-.18a.47.47,0,0,1-.27.05Z" style="fill: #186d7d"/>
                          </g>
                        </g>
                      </g>
                      <path d="M286.75,100.11c-.12.07-.12.17,0,.24l2.63,1.53a.43.43,0,0,0,.41,0l2.51-1.45c.12-.07.12-.17,0-.24l-2.64-1.53a.43.43,0,0,0-.41,0Z" style="fill: #078fa9"/>
                    </g>
                  </g>
                  <g style="isolation: isolate">
                    <g>
                      <path id="SVGID-51" data-name="SVGID" d="M296.67,98v-.19a.15.15,0,0,1-.09.13v.19A.17.17,0,0,0,296.67,98Z" style="fill: #186d7d"/>
                      <g style="clip-path: url(#clip-path-25)">
                        <path d="M296.58,98v.19a.17.17,0,0,0,.09-.13v-.19a.15.15,0,0,1-.09.13Z" style="fill: #186d7d"/>
                      </g>
                    </g>
                    <g>
                      <path id="SVGID-52" data-name="SVGID" d="M289.77,98.47v.18a.17.17,0,0,0,.09.13v-.19A.15.15,0,0,1,289.77,98.47Z" style="fill: #186d7d"/>
                      <g style="clip-path: url(#clip-path-26)">
                        <g style="isolation: isolate">
                          <path d="M289.77,98.47v.18a.13.13,0,0,0,0,.08v-.18a.16.16,0,0,1,0-.08Z" style="fill: #186d7d"/>
                          <path d="M289.8,98.55v.18l.06,0v-.19l-.06,0Z" style="fill: #186d7d"/>
                        </g>
                      </g>
                    </g>
                    <g>
                      <path id="SVGID-53" data-name="SVGID" d="M292.91,100.29v-.19a.45.45,0,0,1-.45,0" style="fill: #186d7d"/>
                      <g style="clip-path: url(#clip-path-27)">
                        <g style="isolation: isolate">
                          <path d="M292.46,100.1v.19l.15,0v-.19a.27.27,0,0,1-.15-.05Z" style="fill: #186d7d"/>
                        </g>
                      </g>
                    </g>
                    <path d="M289.86,98.33c-.12.08-.12.19,0,.26l2.6,1.51a.45.45,0,0,0,.45,0L296.58,98c.12-.07.12-.18,0-.26L294,96.21a.51.51,0,0,0-.45,0Z" style="fill: #078fa9"/>
                  </g>
                  <g style="isolation: isolate">
                    <g>
                      <path id="SVGID-54" data-name="SVGID" d="M294.08,95.91v.18a.14.14,0,0,0,.09.12V96A.15.15,0,0,1,294.08,95.91Z" style="fill: #186d7d"/>
                      <g style="clip-path: url(#clip-path-28)">
                        <g style="isolation: isolate">
                          <path d="M294.08,95.91v.18a.13.13,0,0,0,0,.08V96a.13.13,0,0,1,0-.08Z" style="fill: #186d7d"/>
                          <path d="M294.11,96v.18l.06,0V96s0,0-.06,0Z" style="fill: #186d7d"/>
                        </g>
                      </g>
                    </g>
                    <g>
                      <path id="SVGID-55" data-name="SVGID" d="M298.31,97.05v-.18a.14.14,0,0,1-.09.12v.18A.14.14,0,0,0,298.31,97.05Z" style="fill: #186d7d"/>
                      <g style="clip-path: url(#clip-path-29)">
                        <path d="M298.22,97v.18a.14.14,0,0,0,.09-.12v-.18a.14.14,0,0,1-.09.12Z" style="fill: #186d7d"/>
                      </g>
                    </g>
                    <polygon points="294.17 96.03 294.17 96.21 296.8 97.74 296.8 97.56 294.17 96.03" style="fill: #186d7d"/>
                    <polygon points="297.21 97.56 297.21 97.74 298.22 97.17 298.22 96.99 297.21 97.56" style="fill: #186d7d"/>
                    <g>
                      <path id="SVGID-56" data-name="SVGID" d="M296.8,97.56v.18a.43.43,0,0,0,.41,0v-.18A.43.43,0,0,1,296.8,97.56Z" style="fill: #186d7d"/>
                      <g style="clip-path: url(#clip-path-30)">
                        <g style="isolation: isolate">
                          <path d="M296.8,97.56v.18a.33.33,0,0,0,.15.05v-.18a.34.34,0,0,1-.14,0Z" style="fill: #186d7d"/>
                          <path d="M296.94,97.61v.18a.38.38,0,0,0,.26-.05v-.18a.47.47,0,0,1-.27,0Z" style="fill: #186d7d"/>
                        </g>
                      </g>
                    </g>
                    <path d="M294.17,95.79c-.12.07-.12.17,0,.24l2.63,1.53a.43.43,0,0,0,.41,0l1-.57c.12-.06.12-.17,0-.24l-2.64-1.53a.49.49,0,0,0-.41,0Z" style="fill: #078fa9"/>
                  </g>
                </g>
                <path d="M297.06,97.87a5.38,5.38,0,0,0-2.44-4.23h0c.41-.31.8-.65,1.22-1a9.1,9.1,0,0,1,2.86,6.13,2.72,2.72,0,0,1-1.43,2.73l-1.91-1.11c0-.28,0-.57.07-.85C296.37,99.74,297.06,99.1,297.06,97.87Z" style="fill: #fff"/>
                <path d="M297.5,101.42l.88-.51a2.86,2.86,0,0,0,1.19-2.61,7.38,7.38,0,0,0-.53-2.63l-.88.51a7.38,7.38,0,0,1,.53,2.63,2.86,2.86,0,0,1-1.19,2.61Z" style="fill: url(#linear-gradient-45)"/>
                <path d="M298.16,96.18l.88-.51a10,10,0,0,0-.89-1.76l-.88.51a9.38,9.38,0,0,1,.89,1.76Z" style="fill: #fafbfb"/>
                <path d="M294.75,92.93a.33.33,0,0,0-.14-.26c-.08,0-.15,0-.15.09a.32.32,0,0,0,.15.25C294.69,93.06,294.75,93,294.75,92.93Z" style="fill: #ec1845"/>
                <path d="M293.78,92.76a.33.33,0,0,0-.15-.25c-.08-.05-.15,0-.15.09a.33.33,0,0,0,.15.25C293.71,92.9,293.78,92.86,293.78,92.76Z" style="fill: #ec1845"/>
                <path d="M295.57,93.66a.33.33,0,0,0-.14-.26c-.08,0-.15,0-.15.09a.32.32,0,0,0,.15.25C295.51,93.79,295.57,93.75,295.57,93.66Z" style="fill: #ec1845"/>
              </g>
            </g>
            <g>
              <polygon points="305.19 108.97 305.14 126.54 303.1 125.36 303.15 107.78 305.19 108.97" style="fill: #029adc"/>
              <polygon points="307.92 111.21 307.87 128.12 305.83 126.94 305.88 110.03 307.92 111.21" style="fill: #029adc"/>
              <polygon points="310.66 107.37 310.6 129.69 308.55 128.51 308.62 106.19 310.66 107.37" style="fill: #029adc"/>
              <polygon points="313.35 120.44 313.32 131.26 311.28 130.09 311.31 119.26 313.35 120.44" style="fill: #029adc"/>
              <polygon points="315.96 102.55 315.87 132.74 314.01 131.66 314.09 101.47 315.96 102.55" style="fill: #db055d"/>
              <polygon points="318.83 114.13 318.77 134.41 316.73 133.23 316.79 112.95 318.83 114.13" style="fill: #029adc"/>
              <polygon points="321.54 121.78 321.5 135.99 319.46 134.81 319.5 120.6 321.54 121.78" style="fill: #029adc"/>
              <polygon points="324.26 125.39 324.23 137.56 322.19 136.38 322.22 124.21 324.26 125.39" style="fill: #029adc"/>
              <polygon points="326.98 129.67 326.95 139.13 324.91 137.96 324.94 128.49 326.98 129.67" style="fill: #029adc"/>
              <polygon points="329.72 125.16 329.68 140.71 327.64 139.53 327.68 123.98 329.72 125.16" style="fill: #029adc"/>
              <polygon points="332.46 122.67 332.41 142.28 330.36 141.1 330.42 121.49 332.46 122.67" style="fill: #029adc"/>
              <polygon points="335.14 139.8 335.13 143.86 333.09 142.68 333.1 138.62 335.14 139.8" style="fill: #029adc"/>
            </g>
            <g>
              <polygon points="298.08 120.83 298.08 122.21 284.36 114.28 284.36 112.91 298.08 120.83" style="fill: #89d6f2"/>
              <polygon points="292.42 115.11 292.41 116.49 284.37 111.84 284.37 110.46 292.42 115.11" style="fill: #89d6f2"/>
              <polygon points="299.69 114.41 299.69 115.78 284.38 106.95 284.38 105.57 299.69 114.41" style="fill: #89d6f2"/>
              <polygon points="294.56 113.89 294.55 115.27 284.37 109.39 284.38 108.01 294.56 113.89" style="fill: #89d6f2"/>
            </g>
          </g>
          <g>
            <polygon points="303.16 180.13 304.51 179.35 304.51 176.79 303.16 177.57 303.16 180.13" style="fill: #f2f2f2"/>
            <polygon points="303.78 178.93 303.31 179.19 303.31 179.88 304.37 179.27 304.37 179.27 303.78 178.93" style="fill: #4b4e58"/>
            <g>
              <polygon points="303.31 177.66 303.31 179.19 303.78 178.93 303.78 177.39 303.63 177.48 303.31 177.66" style="fill: #393c41"/>
              <polygon points="303.31 177.89 303.31 178.98 303.63 178.79 303.63 177.71 303.31 177.89" style="fill: #1b2029"/>
              <polygon points="304.37 178.59 304.37 177.05 303.78 177.39 303.78 178.93 304.37 179.27 304.37 178.59" style="fill: #1b2029"/>
            </g>
          </g>
          <g>
            <polygon points="305.2 179.06 306.56 178.28 306.56 175.72 305.2 176.5 305.2 179.06" style="fill: #f2f2f2"/>
            <polygon points="305.82 177.86 305.35 178.12 305.35 178.81 306.41 178.2 306.41 178.2 305.82 177.86" style="fill: #4b4e58"/>
            <g>
              <polygon points="305.35 176.59 305.35 178.12 305.82 177.86 305.82 176.32 305.67 176.41 305.35 176.59" style="fill: #393c41"/>
              <polygon points="305.35 176.82 305.35 177.91 305.67 177.72 305.67 176.64 305.35 176.82" style="fill: #1b2029"/>
              <polygon points="306.41 177.52 306.41 175.98 305.82 176.32 305.82 177.86 306.41 178.2 306.41 177.52" style="fill: #1b2029"/>
            </g>
          </g>
        </g>
        <g>
          <g>
            <g style="opacity: 0.9">
              <polygon points="151.04 44.74 149.58 43.89 149.64 63.59 151.09 64.43 151.04 44.74" style="opacity: 0.8;fill: url(#linear-gradient-46)"/>
              <polygon points="168.18 34.85 166.72 34 149.58 43.89 151.04 44.74 168.18 34.85" style="opacity: 0.5;fill: url(#linear-gradient-47)"/>
              <polygon points="151.04 44.74 151.09 64.43 168.23 54.54 168.18 34.85 151.04 44.74" style="fill: url(#linear-gradient-48)"/>
            </g>
            <g>
              <path d="M163.26,42.53c1.07-.62,2-.13,2,1.1A4.26,4.26,0,0,1,163.27,47c-1.07.62-2,.12-2-1.11A4.27,4.27,0,0,1,163.26,42.53Zm0,3a1.41,1.41,0,0,0,.64-1.12c0-.41-.29-.57-.64-.37a1.43,1.43,0,0,0-.65,1.12c0,.41.29.58.65.37" style="fill: #fafbfb"/>
              <path d="M160,47v3.88a2.14,2.14,0,0,1,.65,1.7,6.43,6.43,0,0,1-2.9,5c-1.61.93-2.93.18-2.93-1.67a5.7,5.7,0,0,1,.64-2.46V49.62a5,5,0,0,1,2.26-3.91C159,45,160,45.56,160,47Zm-2.25,9.13a3.58,3.58,0,0,0,1.62-2.8,1,1,0,0,0-.66-1.1V47.75c0-.62-.44-.86-1-.55a2.11,2.11,0,0,0-1,1.67v4.48a3.4,3.4,0,0,0-.65,1.85c0,1,.74,1.45,1.63.93" style="fill: #fafbfb"/>
              <path d="M158.1,53c.38-.06.64.19.65.68a2.13,2.13,0,0,1-1,1.67c-.54.31-1,.06-1-.55a2.07,2.07,0,0,1,.64-1.42l0-4.91a.71.71,0,0,1,.33-.56c.18-.11.32,0,.32.18Z" style="fill: #fafbfb"/>
            </g>
          </g>
          <g>
            <g style="opacity: 0.9">
              <polygon points="151.04 77.14 149.58 76.29 149.64 95.99 151.09 96.83 151.04 77.14" style="opacity: 0.8;fill: url(#linear-gradient-49)"/>
              <polygon points="168.18 67.25 166.72 66.4 149.58 76.29 151.04 77.14 168.18 67.25" style="opacity: 0.5;fill: url(#linear-gradient-50)"/>
              <polygon points="151.04 77.14 151.09 96.83 168.23 86.94 168.18 67.25 151.04 77.14" style="fill: url(#linear-gradient-51)"/>
            </g>
            <path d="M160.61,77c1,3.14,3,2.93,3,5.54a7.84,7.84,0,0,1-3.56,6.2c-2,1.14-3.56.2-3.57-2.08,0-2.59,2-4.76,3-9a1.37,1.37,0,0,1,.59-.86C160.28,76.65,160.53,76.68,160.61,77Zm-.56,10.25a.7.7,0,0,0,.32-.56c0-.2-.14-.29-.32-.18-.9.51-1.62.09-1.62-.93,0-.21-.15-.29-.33-.18a.71.71,0,0,0-.33.56c0,1.43,1,2,2.28,1.29" style="fill: #fff"/>
          </g>
          <g>
            <g style="opacity: 0.9">
              <polygon points="151.04 109.54 149.58 108.69 149.64 128.39 151.09 129.23 151.04 109.54" style="opacity: 0.8;fill: url(#linear-gradient-52)"/>
              <polygon points="168.18 99.65 166.72 98.8 149.58 108.69 151.04 109.54 168.18 99.65" style="opacity: 0.5;fill: url(#linear-gradient-53)"/>
              <polygon points="151.04 109.54 151.09 129.23 168.23 119.34 168.18 99.65 151.04 109.54" style="fill: url(#linear-gradient-54)"/>
            </g>
            <g>
              <path d="M158.08,116.4c1-.57,1.88-.27,2,.78a4.22,4.22,0,0,1-1.92,3.65c-.95.54-1.74.22-1.92-.71a.67.67,0,0,1,.32-.61l.66-.39c.14-.07.27-.06.31.06s.33.32.62.16a1.39,1.39,0,0,0,.64-1.25c-.05-.33-.36-.41-.68-.22l-2.88,1.66c-.18.11-.33,0-.33-.18v-.75a.74.74,0,0,1,.33-.56Z" style="fill: #fff"/>
              <path d="M155.23,117.29c-.18.11-.32,0-.32-.17v-.75a.74.74,0,0,1,.33-.57l6.77-3.9a1.5,1.5,0,0,0,.67-1c.07-.51-.25-.73-.64-.5a1.41,1.41,0,0,0-.62.87.71.71,0,0,1-.3.41l-.67.38c-.2.12-.36,0-.32-.24A4.32,4.32,0,0,1,162,108.9a2.67,2.67,0,0,1,.42-.2,1.06,1.06,0,0,1,1.48.86,4.08,4.08,0,0,1-1.89,3.8Z" style="fill: #fff"/>
              <path d="M163,113.55c1.43-.82,2.56,0,2.22,2a5.3,5.3,0,0,1-1.71,2.91,4.59,4.59,0,0,1-.5.35c-1,.56-1.82.31-2.13-.52a.67.67,0,0,1,.31-.67l.68-.39c.12-.07.24-.08.3,0,.16.25.48.29.84.08a2.13,2.13,0,0,0,1-1.67c0-.62-.44-.87-1-.56l-2.36,1.36a1.41,1.41,0,0,0-.82-1Z" style="fill: #fff"/>
            </g>
          </g>
          <g>
            <g style="opacity: 0.9">
              <polygon points="151.04 141.94 149.58 141.09 149.64 160.79 151.09 161.63 151.04 141.94" style="opacity: 0.8;fill: url(#linear-gradient-55)"/>
              <polygon points="168.18 132.05 166.72 131.2 149.58 141.09 151.04 141.94 168.18 132.05" style="opacity: 0.5;fill: url(#linear-gradient-56)"/>
              <polygon points="151.04 141.94 151.09 161.63 168.23 151.74 168.18 132.05 151.04 141.94" style="fill: url(#linear-gradient-57)"/>
            </g>
            <path d="M160.85,141.16c.32-.19.55,0,.47.42l-.85,3.52,2.34-1.35c.37-.21.6.12.42.59l-3.55,9.14a1.09,1.09,0,0,1-.42.53c-.31.17-.54,0-.48-.42l.93-5.07-2.41,1.39c-.29.17-.52,0-.48-.35l.63-6a1.07,1.07,0,0,1,.48-.76Z" style="fill: #fff"/>
          </g>
          <g>
            <g style="opacity: 0.9">
              <polygon points="151.04 174.34 149.58 173.49 149.64 193.19 151.09 194.03 151.04 174.34" style="opacity: 0.8;fill: url(#linear-gradient-58)"/>
              <polygon points="168.18 164.45 166.72 163.6 149.58 173.49 151.04 174.34 168.18 164.45" style="opacity: 0.5;fill: url(#linear-gradient-59)"/>
              <polygon points="151.04 174.34 151.09 194.03 168.23 184.14 168.18 164.45 151.04 174.34" style="fill: url(#linear-gradient-60)"/>
            </g>
            <g>
              <path d="M166.36,178.54c.09-.06.16,0,.16.09V182a.36.36,0,0,1-.16.28l-1,.56c-.09.05-.16,0-.16-.09v-3.35a.36.36,0,0,1,.16-.28Z" style="fill: #fff"/>
              <path d="M164.42,179.66c.08,0,.16,0,.16.1v3.34a.37.37,0,0,1-.16.28l-1,.57c-.08.05-.16,0-.16-.1V180.5a.32.32,0,0,1,.15-.28Z" style="fill: #fff"/>
              <path d="M163.42,175.33c.72.16,1.15.84,1.15,1.86v.7a.39.39,0,0,1-.16.28l-1,.56c-.09.05-.16,0-.16-.09v-.7c0-.64-.27-1.08-.73-1.19a1.62,1.62,0,0,1-1.23-1.77v-1.55a.38.38,0,0,1,.17-.28l1-.56c.09-.05.16,0,.16.09v1.46A1.11,1.11,0,0,0,163.42,175.33Z" style="fill: #fff"/>
              <path d="M164.75,173.29c1.11.21,1.76,1.25,1.76,2.78v.7a.36.36,0,0,1-.16.28l-1,.56c-.09,0-.17,0-.17-.09v-.7c0-1.18-.52-2-1.37-2.11-.38-.06-.58-.44-.58-1v-1.45a.36.36,0,0,1,.16-.28l1-.56a.1.1,0,0,1,.16.09V173C164.56,173.17,164.63,173.27,164.75,173.29Z" style="fill: #fff"/>
              <path d="M162.31,180.87c.18-.1.32,0,.32.19v3a.7.7,0,0,1-.32.56l-7.77,4.49c-.54.31-1,.06-1-.55v-1.49a2.16,2.16,0,0,1,1-1.69Zm-.64,3v-1.49l-3.57,2.06v1.49l3.56-2.06" style="fill: #fff"/>
            </g>
          </g>
          <g>
            <g style="opacity: 0.9">
              <polygon points="151.04 206.74 149.58 205.89 149.64 225.59 151.09 226.43 151.04 206.74" style="opacity: 0.8;fill: url(#linear-gradient-61)"/>
              <polygon points="168.18 196.85 166.72 196 149.58 205.89 151.04 206.74 168.18 196.85" style="opacity: 0.5;fill: url(#linear-gradient-62)"/>
              <polygon points="151.04 206.74 151.09 226.43 168.23 216.54 168.18 196.85 151.04 206.74" style="fill: url(#linear-gradient-63)"/>
            </g>
            <g>
              <path d="M166.21,213.27c.18-.11.32,0,.32.19v.74a.69.69,0,0,1-.32.55l-2.91,1.69,0-8.94-2,1.13v-1.49l2.27-1.31c.54-.31,1-.05,1,.59l0,7.78Z" style="fill: #fff"/>
              <path d="M160,206.39c.34-.2.64,0,.64.4l0,11.15-6.8,3.93a.2.2,0,0,1-.33-.19v-.74a.7.7,0,0,1,.32-.56l1.62-.94,0-8.5a1.46,1.46,0,0,1,.49-1l3.88-3.4A.88.88,0,0,1,160,206.39Zm-1.12,7.36a1.27,1.27,0,0,0,.48-1c0-.41-.22-.63-.49-.47a1.27,1.27,0,0,0-.48,1c0,.41.22.61.49.46" style="fill: #fff"/>
            </g>
          </g>
        </g>
      </g>
    </g>
  </g>
</svg>
