<svg xmlns="http://www.w3.org/2000/svg" xmlns:xlink="http://www.w3.org/1999/xlink" viewBox="0 0 327 266">
  <defs>
    <linearGradient id="linear-gradient" x1="3198.23" y1="2241" x2="3279.86" y2="2401.19" gradientTransform="matrix(-0.94, -0.14, 0.14, -1.15, 2893.65, 3276.47)" gradientUnits="userSpaceOnUse">
      <stop offset="0" stop-color="#a4d8c8"/>
      <stop offset="0.98" stop-color="#12a0c6"/>
    </linearGradient>
    <linearGradient id="linear-gradient-2" x1="64.84" y1="140.71" x2="71.17" y2="213.41" gradientTransform="translate(-4.9)" gradientUnits="userSpaceOnUse">
      <stop offset="0" stop-color="#fff"/>
      <stop offset="1" stop-color="#a8c2d6"/>
    </linearGradient>
    <linearGradient id="linear-gradient-3" x1="2820.33" y1="138.61" x2="2827.49" y2="138.61" gradientTransform="matrix(-1, 0, 0, 1, 2874.31, 0)" gradientUnits="userSpaceOnUse">
      <stop offset="0" stop-color="#a9b9d5"/>
      <stop offset="1" stop-color="#95a9c8"/>
    </linearGradient>
    <linearGradient id="linear-gradient-4" x1="2816.16" y1="155.5" x2="2821.4" y2="155.5" xlink:href="#linear-gradient-3"/>
    <linearGradient id="linear-gradient-5" x1="2803.58" y1="132.13" x2="2826.93" y2="132.13" xlink:href="#linear-gradient-3"/>
    <linearGradient id="linear-gradient-6" x1="2774.97" y1="101.39" x2="2860.44" y2="101.39" xlink:href="#linear-gradient-3"/>
    <linearGradient id="linear-gradient-7" x1="2851.78" y1="96.22" x2="2860.03" y2="96.22" gradientTransform="matrix(-1, 0, 0, 1, 2874.31, 0)" gradientUnits="userSpaceOnUse">
      <stop offset="0.01" stop-color="#e3e7f0"/>
      <stop offset="0.27" stop-color="#dee3ee"/>
      <stop offset="0.6" stop-color="#cfd7e7"/>
      <stop offset="0.95" stop-color="#b7c4db"/>
      <stop offset="1" stop-color="#b3c1d9"/>
    </linearGradient>
    <linearGradient id="linear-gradient-8" x1="2821.32" y1="155.21" x2="2809.71" y2="44.89" gradientTransform="matrix(-1, 0, 0, 1, 2874.31, 0)" gradientUnits="userSpaceOnUse">
      <stop offset="0" stop-color="#52c7ea"/>
      <stop offset="0.29" stop-color="#3dc5ee"/>
      <stop offset="1" stop-color="#26aee4"/>
    </linearGradient>
    <linearGradient id="linear-gradient-9" x1="2776.4" y1="102.42" x2="2855.13" y2="102.42" xlink:href="#linear-gradient-3"/>
    <linearGradient id="linear-gradient-10" x1="3981" y1="144.59" x2="3986.67" y2="209.87" gradientTransform="matrix(-1, 0, 0, 1, 4247.02, 0)" gradientUnits="userSpaceOnUse">
      <stop offset="0" stop-color="#fff"/>
      <stop offset="1" stop-color="#a9c3d7"/>
    </linearGradient>
  </defs>
  <title>isohero-nspeech</title>
  <g style="isolation: isolate">
    <g id="arte">
      <g>
        <path d="M222.65,54.94C270.21,60.52,332.33,96,326.33,141c-13.61,102.11-110,42-201,67C60,226,10.33,180.7,16,141.94,27.55,62.91,137,44.88,222.65,54.94Z" style="fill: url(#linear-gradient)"/>
        <g>
          <g style="mix-blend-mode: multiply">
            <path d="M124.34,169.92,68.46,137.17a6,6,0,0,0-5.46,0L1.13,172.73c-1.5.87-1.49,2.29,0,3.16L57,208.64a6,6,0,0,0,5.45,0l61.87-35.56C125.86,172.21,125.85,170.8,124.34,169.92Z" style="fill: url(#linear-gradient-2)"/>
          </g>
          <g style="isolation: isolate">
            <path d="M124.34,144.74,68.46,112A6,6,0,0,0,63,112L1.13,147.55c-1.5.87-1.49,2.28,0,3.16L57,183.46a6,6,0,0,0,5.45,0l61.87-35.56C125.86,147,125.85,145.61,124.34,144.74Z" style="fill: #b8e3ef"/>
            <path d="M124.35,147.9,62.48,183.46a6,6,0,0,1-5.45,0L1.15,150.71A1.94,1.94,0,0,1,0,149.12v3.59a1.94,1.94,0,0,0,1.14,1.59L57,187.05a6,6,0,0,0,5.45,0l61.87-35.56a1.9,1.9,0,0,0,1.12-1.57v-3.59A1.9,1.9,0,0,1,124.35,147.9Z" style="fill: #95d3eb"/>
          </g>
        </g>
        <g>
          <g>
            <g>
              <g>
                <path d="M52.93,153.82l-3.22-2.69a8,8,0,0,1-2.89-6.19V123.4h1v21.54a7,7,0,0,0,2.52,5.4l3.62,3Z" style="fill: url(#linear-gradient-3)"/>
                <polygon points="58.15 157.21 58.13 157.21 58.13 157.93 52.94 153.82 52.91 153.79 53.44 153.49 53.54 153.57 58.15 157.21" style="fill: #fafbfb"/>
                <polygon points="58.15 157.21 58.13 157.21 58.13 157.93 52.94 153.82 52.91 153.79 52.91 153.06 53.26 153.34 53.44 153.49 53.54 153.57 58.15 157.21" style="fill: url(#linear-gradient-4)"/>
                <path d="M84.05,142.39,58.14,157.21l-4.6-3.64-.1-.08-.18-.15h0l-.31-.26L50,150.64l-.1-.09a6.9,6.9,0,0,1-2.52-5.31V124.36l.47-.25L64,115.2,69.68,110h1v21.54c0,.13,0,.26,0,.38a7,7,0,0,0,2.51,5,3.56,3.56,0,0,0,.36.25C75,138.12,79.43,140.23,84.05,142.39Z" style="fill: #fff"/>
                <path d="M70.72,131.9,47.38,145.24V125.92c1.64-1.62,2.86-2.7,3-2.52.38.45,15.28-3.69,20.31-4.38v12.5C70.71,131.65,70.71,131.78,70.72,131.9Z" style="fill: url(#linear-gradient-5)"/>
              </g>
              <polygon points="58.15 157.21 84.05 142.39 84.05 143.12 58.13 157.93 58.15 157.21" style="fill: #fafbfb"/>
              <path d="M73.59,137.17,50,150.64l-.1-.09a6.9,6.9,0,0,1-2.52-5.31L70.72,131.9a7,7,0,0,0,2.51,5A3.56,3.56,0,0,0,73.59,137.17Z" style="fill: #cbd2db"/>
            </g>
            <g>
              <path d="M99.34,47.28l-.56.11h0l-1.17.23c0,.13.05.26.07.39a7.07,7.07,0,0,1,.07,1.06l-.12,12.28-.28,41.89c0,3.27-2,7.06-4.51,8.46L17.53,155l-.14.07L18,157.2l-2.56-1.51a3.63,3.63,0,0,1-1.53-3.05c0-.19,0-.38,0-.57L14.28,98V97.9a11.24,11.24,0,0,1,2.38-6.54,7.46,7.46,0,0,1,2.12-1.92L94.08,46.1a2.89,2.89,0,0,1,2.82-.25h0L99,47.1Z" style="fill: url(#linear-gradient-6)"/>
              <path d="M99,47.1l-.24.29h0l-1.1.62L19.23,92.58l-2.57-1.22a7.46,7.46,0,0,1,2.12-1.92L94.08,46.1a2.89,2.89,0,0,1,2.82-.25h0Z" style="fill: #fff"/>
              <path d="M22.53,94.2l-2.8,6.89L14.28,98V97.9a11.24,11.24,0,0,1,2.38-6.54Z" style="fill: url(#linear-gradient-7)"/>
              <path d="M100.91,50.92l0,5.4h0l-.06,6.87-.29,41.89c0,3.26-2,7-4.52,8.46L68.42,129.19,38.78,146l-.69.41L20.7,156.88c-2,1.15-3.7.34-4.25-1.78a6,6,0,0,1-.16-1c0-.19,0-.37,0-.57l0-6.16.11-15.88.24-32.13c0-3.27,2.05-7.06,4.51-8.46L52.27,73.25l.06,0L63,66.91l13.46-8h0L92,50.08l4.51-2.55c1.65-.94,3.07-.57,3.84.75A5.32,5.32,0,0,1,100.91,50.92Z" style="fill: #fafbfb"/>
              <g>
                <polygon points="19.18 97.84 19.18 153 42.6 139.32 42.9 139.15 63.34 127.2 63.76 126.95 64.95 126.26 67.88 124.55 68.33 124.28 69.25 123.75 70 123.3 72.22 122.01 75.71 119.97 78.04 118.61 79.99 117.47 82.71 115.88 84.9 114.6 86.64 113.58 88.57 112.46 97.91 107 97.91 51.83 70.29 67.97 69.59 68.38 68.14 69.22 67.24 69.75 66.82 70 66.48 70.2 61.95 72.85 59.97 74 56.49 76.03 55.2 76.79 55.02 76.89 49.38 80.19 47.49 81.29 42.34 84.3 39.97 85.69 36.87 87.5 19.18 97.84" style="fill: url(#linear-gradient-8)"/>
                <polygon points="96.79 52.48 96.79 106.39 19.18 151.75 19.18 153 97.91 107 97.91 51.83 96.79 52.48" style="fill: url(#linear-gradient-9)"/>
                <polygon points="19.18 153 97.91 107 96.79 106.39 19.18 151.75 19.18 153" style="fill: #fff"/>
              </g>
            </g>
          </g>
          <g style="opacity: 0.6000000000000001">
            <g style="opacity: 0.4">
              <polygon points="95.24 55.3 95.24 106.11 23.88 147.31 23.88 96.5 95.24 55.3" style="fill: #004b6b"/>
            </g>
          </g>
          <polygon points="62.74 82 91.7 65.18 91.7 61.95 62.74 78.77 62.74 82" style="fill: #89d6f2"/>
          <polygon points="28.88 112.86 57.84 96.03 57.84 81.33 28.88 98.16 28.88 112.86" style="fill: #89d6f2"/>
          <polygon points="62.74 88.2 91.7 71.37 91.7 68.15 62.74 84.97 62.74 88.2" style="fill: #89d6f2"/>
          <polygon points="62.74 94.39 91.7 77.57 91.7 74.34 62.74 91.17 62.74 94.39" style="fill: #89d6f2"/>
          <polygon points="62.74 100.59 91.7 83.77 91.7 80.54 62.74 97.36 62.74 100.59" style="fill: #89d6f2"/>
          <polygon points="62.74 106.79 91.7 89.96 91.7 86.74 62.74 103.56 62.74 106.79" style="fill: #89d6f2"/>
          <polygon points="62.74 112.98 91.7 96.16 91.7 92.93 62.74 109.76 62.74 112.98" style="fill: #89d6f2"/>
          <polygon points="62.74 119.18 83.45 107.11 83.45 103.88 62.74 115.95 62.74 119.18" style="fill: #89d6f2"/>
        </g>
        <g>
          <g>
            <g style="mix-blend-mode: multiply">
              <path d="M208.5,169.19l47.58-27.88a6,6,0,0,1,5.45,0l57,33.35c1.5.87,1.5,2.29,0,3.16L270.93,205.7a6,6,0,0,1-5.45,0l-57-33.35C207,171.48,207,170.06,208.5,169.19Z" style="fill: url(#linear-gradient-10)"/>
            </g>
            <g style="isolation: isolate">
              <path d="M208.5,144l47.58-27.88a6,6,0,0,1,5.45,0l57,33.35c1.5.87,1.5,2.29,0,3.16l-47.58,27.88a6,6,0,0,1-5.45,0l-57-33.35C207,146.29,207,144.88,208.5,144Z" style="fill: #b8e3f0"/>
              <path d="M208.48,147.17l57,33.35a6,6,0,0,0,5.45,0l47.58-27.88a1.94,1.94,0,0,0,1.14-1.59v3.59a1.93,1.93,0,0,1-1.14,1.59l-47.58,27.88a6,6,0,0,1-5.45,0l-57-33.35a1.9,1.9,0,0,1-1.12-1.57V145.6A1.91,1.91,0,0,0,208.48,147.17Z" style="fill: #95d4ec"/>
            </g>
          </g>
          <g>
            <path d="M256.27,151.49a9.35,9.35,0,0,0,1.5-.7,3.87,3.87,0,0,1,2.59-.21,2.17,2.17,0,0,1,1.11.27,14.36,14.36,0,0,0,2.15.53,18.3,18.3,0,0,0,2.72.5,6.37,6.37,0,0,1,1.56.21,4.6,4.6,0,0,1,1.5.64c.65.43.64,1,.8,1.72a3.31,3.31,0,0,1,0,1.5,4.17,4.17,0,0,1-.77.86,3.11,3.11,0,0,1-.93.71,5.05,5.05,0,0,1-2.38.59,60.46,60.46,0,0,1-6.14-.6,13.87,13.87,0,0,1-2.86-.53c-.81-.28-1.53-.68-2.32-1s-1.52-.19-1.73-1a1.81,1.81,0,0,1,.22-1.45A4.83,4.83,0,0,1,256.27,151.49Z" style="fill: #015866;opacity: 0.1"/>
            <path d="M255.36,116.76l1.08.54a2.46,2.46,0,0,1,.46,1.84l-.1.72-.17,1.13.21,1.12s.05.73-.53.56l-.3-.88.05.73s.48.94-.34,1l-.13-.24a.48.48,0,0,1-.56.27,7.09,7.09,0,0,1-.63-2.22.65.65,0,0,1-.52.14l.09-2.41Z" style="fill: #df9877"/>
            <path d="M257,117.76l-.28.83a2.36,2.36,0,0,1-2.21-.69l.22-.84A3,3,0,0,0,257,117.76Z" style="fill: #edf3f3"/>
            <path d="M257.17,96.85c.72-1.28,4.3-2.22,4.3-2.22S260,109,260,109l-3.08,9.28s-2.62,0-2.88-.75l2-8.82S255.73,99.38,257.17,96.85Z" style="fill: #fff"/>
            <path d="M257.17,96.85c.72-1.28,4.3-2.22,4.3-2.22S260,109,260,109l-3.08,9.28s-2.62,0-2.88-.75l2-8.82S255.73,99.38,257.17,96.85Z" style="fill: #edf3f3"/>
            <g>
              <g>
                <path d="M254.89,151.92l2.78-2.78h3l.31,2.11a1.27,1.27,0,0,1-.65,1.11l-1.24.37a7.46,7.46,0,0,0-2.22,1.11,3.87,3.87,0,0,1-2.91.57c-.67-.22-1-.35-.75-1A3.31,3.31,0,0,1,254.89,151.92Z" style="fill: #183f42"/>
                <path d="M263.8,154.16l2.18-2.93h2.93l.23,2a1.25,1.25,0,0,1-.64,1.09l-2.93,2.43a2.79,2.79,0,0,1-2.16.66,1.55,1.55,0,0,1-1.43-1.15l0-.11C262.13,155.45,263.28,154.69,263.8,154.16Z" style="fill: #183f42"/>
                <path d="M257.59,113.8l4.36,1.49.55,6.66-1,12.32L261,149.58a3.57,3.57,0,0,1-3.92-.15l-.41-16.4s.15-8.91.41-11.82C257.51,116.36,257.59,113.8,257.59,113.8Z" style="fill: #183f42"/>
                <path d="M257.37,128.38c.1,2.87,0,5.85.3,8.76.11,4.43.24,8.45.61,12.86a3.32,3.32,0,0,1-1.19-.57l-.41-16.4s.15-8.76.4-11.75C257.13,123.65,257.29,126,257.37,128.38Z" style="opacity: 0.07"/>
                <path d="M269.3,123.29l-.51,12.15.35,16.16s-2.12,1.55-3.58-.06l-2.09-16.08L262,122.14l-1.78-6.25,8.83-.41S269.56,117,269.3,123.29Z" style="fill: #183f42"/>
                <path d="M257.52,99c0-1.87,1-3.11,2.27-3.41,3.5-.83,4-1.56,6-.8a24.1,24.1,0,0,1,5,2.76l-1.41,5.06-.87,7.52.61,6.38c-4.47,3.6-11.77.14-11.77.14s.06-5.6.21-7.7a31.4,31.4,0,0,0-.13-3.21C256.68,102.44,257.49,101.25,257.52,99Z" style="fill: #ffde73"/>
                <path d="M269.3,123.29l-.51,12.15.35,16.16a3.86,3.86,0,0,1-.68.38c0-.68-.09-1.35-.15-2,0-5-.18-9.62-.26-14.65,0-2.41-.11-4.79-.23-7.17a31.91,31.91,0,0,0-.14-10c0-.16,0-.32,0-.49a1.94,1.94,0,0,0-.25-1.06c-.05-.33-.11-.66-.16-1l1.71-.08S269.56,117,269.3,123.29Z" style="opacity: 0.07"/>
                <path d="M263,124.65c.53,2.47,1.13,7.83,1.54,10.32a9,9,0,0,0,.15,2.25,2.14,2.14,0,0,0,.07.48c1.28,4.91,1.63,9.56,2.32,14.57a2.06,2.06,0,0,1-1.48-.73l-2.09-16.08-1.22-10.68-1.11-1.34S262.89,124.33,263,124.65Z" style="opacity: 0.07"/>
                <path d="M256.83,98.57c.26-1.85.91-2.69,2.19-3.06.19-.05,1.46-.58,1.46-.55,0,.59-.23,7.33.28,9.83,0,0-2.82,20.15-1.58,28.28-2.95-.51-3.15-1.4-3.15-1.4s.63-20,.79-22.06C256.88,108.73,256.38,101.81,256.83,98.57Z" style="fill: #edf3f3"/>
                <path d="M261.59,105.23c.87-1.28,3.63-10.65,4.24-10.43a24.1,24.1,0,0,1,5,2.76l-1.41,5.06.33,8.73.52,20.49c-2.18,1.76-6.11,1.82-8.93,1.34C260.14,125.05,262.14,113.35,261.59,105.23Z" style="fill: #edf3f3"/>
                <path d="M269.57,108.56c0-.15.06-.3.1-.44l.12,3.23.52,20.49a8.12,8.12,0,0,1-4.09,1.49C269.78,126,269.58,116,269.57,108.56Z" style="opacity: 0.06"/>
                <path d="M272.79,120.32l.71,3.41-.39,1.21-.9.68s-.49.78-.55.86a.34.34,0,0,1-.62-.22l0-.37,0-1.12-.38-1.19h0l0-.13.09,1c.05.91-.62.88-.62.88l-.28-3,.67-2.27Z" style="fill: #df9877"/>
                <g>
                  <path d="M265.83,94.8a2.19,2.19,0,0,1-4.38,0V91.22h4.06Z" style="fill: #df9877"/>
                  <path d="M265.57,92a2.4,2.4,0,0,0-.07.62c.05,1.63-1.61,3.93-3.41,2.78a1.76,1.76,0,0,1-.63-1.68V91.22h4.06Z" style="opacity: 0.07"/>
                  <path d="M266.31,91.81c0,1.83-2.19,2.7-3.27,2.85a2.47,2.47,0,0,1-2.7-2.68V87.29l6.34,1.13Z" style="fill: #df9877"/>
                  <g>
                    <path d="M261.14,85.4c2.51-1.58,4.68-.66,6.18,1.23.73.92.23,2.77,0,3.64a6.7,6.7,0,0,1-1.63,3l-.19-3.12-.37.62-.53-.38s.23-1.33.22-1.55c0-.75-4.49-.86-4.49-.86S258.39,87.12,261.14,85.4Z" style="fill: #574539"/>
                    <path d="M265.72,93.62l1,1.49A5.16,5.16,0,0,1,263,98.36l-.54-1.69A3.46,3.46,0,0,0,265.72,93.62Z" style="fill: #f5f5f5"/>
                    <path d="M262.5,96.67a6.56,6.56,0,0,0-1.33,1.19s-.57-2.68.28-3.53A2.68,2.68,0,0,0,262.5,96.67Z" style="fill: #f5f5f5"/>
                  </g>
                </g>
                <path d="M273,119.3l-.07,1.25a2.67,2.67,0,0,1-2.37-.27l-.06-1.07S270.9,119.67,273,119.3Z" style="fill: #edf3f3"/>
                <path d="M269.26,97c2.66-.25,3.05,4.16,3.05,4.16l1.16,8.62L273.32,120a3.54,3.54,0,0,1-3.2-.22l-.57-9.32-1.8-8.42S267.7,97.16,269.26,97Z" style="fill: #edf3f3"/>
                <path d="M271.24,98.37c0-.1,0-.19.06-.29a7.68,7.68,0,0,1,1,3.09l1.16,8.62L273.32,120a3.09,3.09,0,0,1-2.07.16c.85-3.7,1.66-7.41,1.19-11.23C272,105.58,271.93,102.34,271.24,98.37Z" style="opacity: 0.06"/>
              </g>
              <path d="M266.59,90.36c.1.8-.44,1.69-1.08,1.39l-.07-1.45S266.45,89.27,266.59,90.36Z" style="fill: #df9877"/>
            </g>
            <path d="M258.48,96.68a8.35,8.35,0,0,1,2.06-1.78l.73-.32a10.34,10.34,0,0,0-.64,2.2c-.31,1.49.14,8.07.14,8.07a23.19,23.19,0,0,0-2.64-6.38l1.05-1.62Z" style="opacity: 0.06"/>
            <path d="M258.92,96.52a8,8,0,0,1,1.62-1.62l.73-.32a10.34,10.34,0,0,0-.64,2.2c-.31,1.49.14,8.07.14,8.07a41,41,0,0,0-2.2-6.54l1.05-1.62Z" style="fill: #fff"/>
            <path d="M266.32,94.46a8.13,8.13,0,0,0,1.05,1c.39.26.46,2.38.46,2.38l-.79,0,0,1.75c-1.79.62-5.49,5.67-5.49,5.67a27.81,27.81,0,0,1,3.28-6.9A10.74,10.74,0,0,0,266.32,94.46Z" style="opacity: 0.06"/>
            <path d="M266.32,94.46a8.13,8.13,0,0,0,1.05,1c.39.26.17,2.28.17,2.28l-.79,0,.05,1.75c-1.8.62-5.21,5.77-5.21,5.77a27.81,27.81,0,0,1,3.28-6.9A10.74,10.74,0,0,0,266.32,94.46Z" style="fill: #fff"/>
            <path d="M267.32,105.58v3.5s-2.23,1.14-3.54-.22l.17-3.28Z" style="fill: #f6fbfb"/>
            <path d="M265.93,93.94l.34.19c.1.1,1,1.3-.13,4.53a10.14,10.14,0,0,0-.74,5l-.27.06c0-.08-.43-1.91.75-5.2S265.94,94,265.93,93.94Z" style="fill: #183f42"/>
            <path d="M261.46,94.31l-.15.19c-.1,0-2.06.51-2,4.37l-.23,0C259.19,94.16,261.42,94.38,261.46,94.31Z" style="fill: #183f42"/>
            <path d="M265.21,102.78a.91.91,0,1,1-.92.91A.91.91,0,0,1,265.21,102.78Z" style="fill: #b3b3b4"/>
            <path d="M264.54,103.69a.67.67,0,1,0,.67-.67A.67.67,0,0,0,264.54,103.69Zm.28,0a.39.39,0,1,1,.77,0,.39.39,0,0,1-.77,0Z" style="fill: #787877"/>
            <path d="M257.89,99.75a1.71,1.71,0,0,1,1.3-.86,1,1,0,0,1,1.07.33c.94,1.16-.36,4.92-.72,5.88a.18.18,0,0,1,0,.17l-.15.39a.22.22,0,0,1-.28.09.21.21,0,0,1-.13-.26l.15-.38a.2.2,0,0,1,.19-.1c.35-1,1.6-4.61.74-5.66a.86.86,0,0,0-.87-.26,1.55,1.55,0,0,0-1.15.76c-.68,1.21,0,3.44.22,4.17a.18.18,0,0,1,.16.11l.13.39a.21.21,0,0,1-.15.25.21.21,0,0,1-.27-.11l-.13-.39a.18.18,0,0,1,.06-.18C257.83,103.33,257.15,101,257.89,99.75Z" style="fill: #a6a6a5"/>
            <path d="M259.19,98.89a1,1,0,0,1,1.07.33,2.62,2.62,0,0,1,.31,1.77l-.2,0a2.34,2.34,0,0,0-.28-1.59.86.86,0,0,0-.87-.26,1.55,1.55,0,0,0-1.15.76,2.84,2.84,0,0,0-.29,1.31l-.21.11a3.09,3.09,0,0,1,.32-1.52A1.71,1.71,0,0,1,259.19,98.89Z" style="fill: #183f42"/>
            <path d="M263.52,93a9.3,9.3,0,0,1-2.11-.55c-.16-.22-.33-.57-.21-.66C262.41,90.89,263.52,93,263.52,93Z" style="fill: #574539"/>
            <path d="M261.49,91.83c.09.12,0,.41-.24.56a5.12,5.12,0,0,1-1.57-.15S260.69,90.64,261.49,91.83Z" style="fill: #574539"/>
            <path d="M260.64,92.86a1,1,0,0,0,.67.46,3.23,3.23,0,0,0,1-.23,3.55,3.55,0,0,0,1.56-.75c.37-.28.54-1.17.81-2.31l.61.64s-.11,2.71-1.41,3.73a2.82,2.82,0,0,1-2.72.83c-.62-.23-1.3-1-1.27-2.91l.42-2S260.23,92.34,260.64,92.86Z" style="fill: #574539"/>
          </g>
          <g>
            <path d="M263.51,41.71l56,32.35,0,29.2L268.47,73.77l-4.94,1.62Z" style="fill: #f2c94d;opacity: 0.8"/>
            <path d="M277.92,57.14l12.28,7.09v2.56l-12.28-7.08Z" style="fill: #fff;isolation: isolate"/>
            <path d="M277.92,62.27l22.17,12.8v2.57l-22.16-12.8Z" style="fill: #fff;isolation: isolate"/>
            <path d="M277.93,67.41,306.6,84v2.57L277.93,70Z" style="fill: #fff;isolation: isolate"/>
            <path d="M274.9,58.07c0,2.41-1.42,3.53-3.18,2.52s-3.18-3.79-3.18-6.19,1.42-3.54,3.18-2.52S274.9,55.66,274.9,58.07Z" style="fill: #fff;isolation: isolate"/>
          </g>
        </g>
        <g>
          <path d="M36.05,125.06c0,6.26,3.7,9.2,8.27,6.56s8.28-9.85,8.28-16.11-3.7-9.2-8.27-6.56S36.05,118.8,36.05,125.06Z" style="fill: #f2c94d"/>
          <g style="opacity: 0.6000000000000001">
            <g>
              <path d="M45,123c-1.18.68-2.14.13-2.15-1.23v-4.11A4.73,4.73,0,0,1,44.94,114c1.18-.68,2.15-.13,2.15,1.23l-1.91,1.1a.45.45,0,0,0-.23.34v.41c0,.12.11.15.23.07l1.91-1.1v.83L45.19,118a.49.49,0,0,0-.24.34v.41c0,.11.11.15.24.07l1.91-1.1v.82l-1.91,1.11A.44.44,0,0,0,45,120v.41c0,.11.11.14.23.07l1.91-1.11A4.69,4.69,0,0,1,45,123Z" style="fill: #231f20"/>
              <path d="M48.53,116.86c.2-.12.36,0,.36.2v1.23a8.79,8.79,0,0,1-3.38,6.44v.86l1.25-.72c.2-.11.36,0,.36.21v.41a.78.78,0,0,1-.36.61l-3.57,2.07c-.2.11-.36,0-.36-.21v-.41a.78.78,0,0,1,.36-.61l1.25-.73v-.88c-2,.83-3.4-.4-3.41-2.7v-1a.79.79,0,0,1,.36-.62l.36-.2c.19-.12.35,0,.35.2v1.09c0,1.71,1.09,2.62,2.58,1.93a1.51,1.51,0,0,0,.28-.15,6.31,6.31,0,0,0,2.86-4.94v-1.23a.79.79,0,0,1,.36-.62Z" style="fill: #231f20"/>
            </g>
          </g>
        </g>
        <g>
          <line x1="194.72" y1="146.98" x2="194.72" y2="146.98" style="fill: none;stroke: #00709e;stroke-linecap: round;stroke-linejoin: round;stroke-width: 1.88751888275147px"/>
          <line x1="189.94" y1="146.98" x2="139.72" y2="146.98" style="fill: none;stroke: #00709e;stroke-linecap: round;stroke-linejoin: round;stroke-width: 1.88751888275147px;stroke-dasharray: 0,4.783016681671143"/>
          <line x1="137.32" y1="146.98" x2="137.32" y2="146.98" style="fill: none;stroke: #00709e;stroke-linecap: round;stroke-linejoin: round;stroke-width: 1.88751888275147px"/>
          <rect x="193.78" y="140.84" width="1.89" height="12.27" style="fill: #00709e"/>
          <polygon points="143.58 139.26 144.87 140.64 138.05 146.98 144.87 153.31 143.58 154.7 135.28 146.98 143.58 139.26" style="fill: #00709e"/>
        </g>
      </g>
    </g>
  </g>
</svg>
