<svg xmlns="http://www.w3.org/2000/svg" xmlns:xlink="http://www.w3.org/1999/xlink" viewBox="0 0 322 266">
  <defs>
    <linearGradient id="linear-gradient" x1="-15099.83" y1="98.29" x2="-15092.43" y2="98.29" gradientTransform="matrix(-1, 0, 0, 1, -15056.23, 0)" gradientUnits="userSpaceOnUse">
      <stop offset="0.01" stop-color="#e3e7f0"/>
      <stop offset="1" stop-color="#b3c1d9"/>
    </linearGradient>
    <linearGradient id="linear-gradient-2" x1="47.87" y1="-52.59" x2="146.01" y2="140.02" gradientTransform="matrix(0.96, 0, 0, 0.92, 66.57, 122.71)" gradientUnits="userSpaceOnUse">
      <stop offset="0" stop-color="#a4d8c8"/>
      <stop offset="0.98" stop-color="#12a0c6"/>
    </linearGradient>
    <linearGradient id="linear-gradient-3" x1="245.09" y1="159.89" x2="252.56" y2="245.78" gradientUnits="userSpaceOnUse">
      <stop offset="0" stop-color="#fff"/>
      <stop offset="1" stop-color="#a9c3d7"/>
    </linearGradient>
    <clipPath id="clip-path">
      <path id="SVGID" d="M228.55,140.37l-.82-.48a.71.71,0,0,1,.29.65,2.21,2.21,0,0,1-1,1.74l.82.48a2.23,2.23,0,0,0,1-1.75A.69.69,0,0,0,228.55,140.37Z" style="fill: none"/>
    </clipPath>
    <clipPath id="clip-path-2">
      <path id="SVGID-2" data-name="SVGID" d="M226.3,142.35l.81.48a.71.71,0,0,0,.72-.07l-.82-.48A.69.69,0,0,1,226.3,142.35Z" style="fill: none"/>
    </clipPath>
    <clipPath id="clip-path-3">
      <path id="SVGID-3" data-name="SVGID" d="M229.14,138.9l-.82-.47a1.31,1.31,0,0,0-1.32.12l.82.48A1.32,1.32,0,0,1,229.14,138.9Z" style="fill: none"/>
    </clipPath>
    <clipPath id="clip-path-4">
      <path id="SVGID-4" data-name="SVGID" d="M227.82,139l-.82-.48a4.12,4.12,0,0,0-1.84,3.2l.82.48A4.06,4.06,0,0,1,227.82,139Z" style="fill: none"/>
    </clipPath>
    <clipPath id="clip-path-5">
      <path id="SVGID-5" data-name="SVGID" d="M232.85,148v-.45a.28.28,0,0,1-.16.23v.45A.26.26,0,0,0,232.85,148Z" style="fill: none"/>
    </clipPath>
    <clipPath id="clip-path-6">
      <path id="SVGID-6" data-name="SVGID" d="M221.28,150.32v.45a.27.27,0,0,0,.16.23v-.45A.29.29,0,0,1,221.28,150.32Z" style="fill: #b8bdc6"/>
    </clipPath>
    <clipPath id="clip-path-7">
      <path id="SVGID-7" data-name="SVGID" d="M224.29,152.21v.45a.83.83,0,0,0,.78,0v-.45A.83.83,0,0,1,224.29,152.21Z" style="fill: #b8bdc6"/>
    </clipPath>
    <linearGradient id="linear-gradient-4" x1="218.13" y1="139.29" x2="234.64" y2="139.29" gradientUnits="userSpaceOnUse">
      <stop offset="0" stop-color="#0997af"/>
      <stop offset="0.29" stop-color="#0d8eab"/>
      <stop offset="1" stop-color="#0076a0"/>
    </linearGradient>
    <linearGradient id="linear-gradient-5" x1="227.83" y1="134.29" x2="233.09" y2="134.29" xlink:href="#linear-gradient-4"/>
    <linearGradient id="linear-gradient-6" x1="227.83" y1="134.85" x2="233.09" y2="134.85" xlink:href="#linear-gradient-4"/>
    <linearGradient id="linear-gradient-7" x1="227.83" y1="135.38" x2="233.09" y2="135.38" xlink:href="#linear-gradient-4"/>
    <linearGradient id="linear-gradient-8" x1="227.83" y1="136.61" x2="230.6" y2="136.61" xlink:href="#linear-gradient-4"/>
    <linearGradient id="linear-gradient-9" x1="64.52" y1="172.87" x2="70.2" y2="238.15" xlink:href="#linear-gradient-3"/>
    <clipPath id="clip-path-8">
      <path id="SVGID-8" data-name="SVGID" d="M73.38,75.71l4.39,2.55a2.12,2.12,0,0,0-2.14.21l-4.39-2.55A2.1,2.1,0,0,1,73.38,75.71Z" style="fill: #fafbfb"/>
    </clipPath>
    <clipPath id="clip-path-9">
      <path id="SVGID-9" data-name="SVGID" d="M40.59,102.18l-4.4-2.56a6.65,6.65,0,0,1,3-5.21L43.6,97A6.66,6.66,0,0,0,40.59,102.18Z" style="fill: url(#linear-gradient)"/>
    </clipPath>
    <linearGradient id="linear-gradient-11" x1="-15110.39" y1="194.44" x2="-15118.98" y2="95.11" gradientTransform="matrix(-1, 0, 0, 1, -15056.23, 0)" gradientUnits="userSpaceOnUse">
      <stop offset="0" stop-color="#52c7ea"/>
      <stop offset="0.29" stop-color="#3dc5ee"/>
      <stop offset="1" stop-color="#26aee4"/>
    </linearGradient>
    <linearGradient id="linear-gradient-12" x1="-15108.68" y1="90.61" x2="-15105.01" y2="90.61" gradientTransform="matrix(-1, 0, 0, 1, -15056.23, 0)" gradientUnits="userSpaceOnUse">
      <stop offset="0" stop-color="#a9b9d5"/>
      <stop offset="1" stop-color="#95a9c8"/>
    </linearGradient>
    <linearGradient id="linear-gradient-13" x1="-15104.21" y1="93.66" x2="-15098.34" y2="93.66" xlink:href="#linear-gradient-12"/>
    <linearGradient id="linear-gradient-14" x1="-15121.16" y1="92.2" x2="-15107.65" y2="92.2" xlink:href="#linear-gradient-12"/>
    <linearGradient id="linear-gradient-15" x1="-15094.09" y1="141.47" x2="-15130.92" y2="119.92" gradientTransform="matrix(-1, 0, 0, 1, -15056.23, 0)" xlink:href="#linear-gradient-4"/>
    <linearGradient id="linear-gradient-16" x1="6.19" y1="164.57" x2="24.65" y2="164.57" xlink:href="#linear-gradient-4"/>
    <linearGradient id="linear-gradient-17" x1="50.79" y1="116.49" x2="68.28" y2="116.49" xlink:href="#linear-gradient-4"/>
    <linearGradient id="linear-gradient-18" x1="51.4" y1="138.87" x2="70.07" y2="138.87" xlink:href="#linear-gradient-4"/>
  </defs>
  <title>isohero-nagenda</title>
  <g style="isolation: isolate">
    <g id="arte">
      <g>
        <path d="M125.23,252.8C68,251.44,27.39,223.9,11.17,196.39-4.06,170.55-5.27,94.44,125.41,90.13,261.26,85.64,318.76,125,317.29,156,314.29,219.4,205.49,254.72,125.23,252.8Z" style="fill: url(#linear-gradient-2)"/>
        <g>
          <line x1="59.01" y1="59.15" x2="59.01" y2="59.15" style="fill: none;stroke: #00709e;stroke-linecap: round;stroke-linejoin: round;stroke-width: 1.88751888275147px"/>
          <path d="M59,54.45V26.89a2,2,0,0,1,2-2H244.34a2,2,0,0,1,2,2v57.8" style="fill: none;stroke: #00709e;stroke-linecap: round;stroke-linejoin: round;stroke-width: 1.88751888275147px;stroke-dasharray: 0,4.701045036315918"/>
          <line x1="246.37" y1="87.04" x2="246.37" y2="87.04" style="fill: none;stroke: #00709e;stroke-linecap: round;stroke-linejoin: round;stroke-width: 1.88751888275147px"/>
          <rect x="52.87" y="58.2" width="12.27" height="1.89" style="fill: #00709e"/>
          <polygon points="238.65 80.79 240.03 79.5 246.37 86.32 252.7 79.5 254.09 80.79 246.37 89.09 238.65 80.79" style="fill: #00709e"/>
        </g>
        <g>
          <g>
            <path d="M142.83,33.07a8.2,8.2,0,0,1,0-16.4,8.11,8.11,0,0,1,1.47.13,10.23,10.23,0,0,1,18.37,4.6,5.87,5.87,0,0,1-.5,11.66H142.83Z" style="fill: #89d6f2"/>
            <path d="M152.55,13.12a9.73,9.73,0,0,1,9.67,8.73,5.36,5.36,0,0,1-.46,10.71H142.83a7.7,7.7,0,1,1,0-15.39,7.81,7.81,0,0,1,1.69.19,9.7,9.7,0,0,1,8-4.24m0-1a10.75,10.75,0,0,0-8.47,4.14,8.71,8.71,0,1,0-1.25,17.33h19.84v-.07A6.38,6.38,0,0,0,163.12,21a10.7,10.7,0,0,0-10.57-8.86Z" style="fill: #89d6f2"/>
            <path d="M152.55,14.14A8.67,8.67,0,0,1,161.21,22l.09.84.83.07a4.35,4.35,0,0,1-.39,8.69h-.06l-1,0v0H142.83a6.68,6.68,0,1,1,1.47-13.2l.67.15.39-.57a8.71,8.71,0,0,1,7.19-3.79m0-1a9.7,9.7,0,0,0-8,4.24,7.81,7.81,0,0,0-1.69-.19,7.7,7.7,0,1,0,0,15.39h18.93a5.36,5.36,0,0,0,.46-10.71,9.73,9.73,0,0,0-9.67-8.73Z" style="fill: #00394b"/>
          </g>
          <g style="opacity: 0.1">
            <path d="M163,30.13H145.12a7.26,7.26,0,0,1-7.25-7.25,23.06,23.06,0,0,1,.6-4.42,7.69,7.69,0,0,0,4.26,14.1h18.93a5.38,5.38,0,0,0,5.27-4.32A5.07,5.07,0,0,1,163,30.13Z"/>
          </g>
        </g>
        <g>
          <g>
            <g style="mix-blend-mode: multiply">
              <path d="M320.55,194.86l-66.86-39.19a6,6,0,0,0-5.45,0l-72,42.17c-1.5.87-1.49,2.29,0,3.16l66.86,39.19a6,6,0,0,0,5.46,0l72-42.17C322.07,197.15,322.07,195.73,320.55,194.86Z" style="fill: url(#linear-gradient-3)"/>
            </g>
            <g style="isolation: isolate">
              <path d="M320.55,169.68l-66.86-39.19a6,6,0,0,0-5.45,0l-72,42.17c-1.5.87-1.49,2.29,0,3.16L243.11,215a6,6,0,0,0,5.46,0l72-42.17C322.07,172,322.07,170.55,320.55,169.68Z" style="fill: #b8e3f0"/>
              <path d="M320.57,172.84l-72,42.17a6,6,0,0,1-5.46,0l-66.86-39.19a1.94,1.94,0,0,1-1.14-1.59v3.59a1.93,1.93,0,0,0,1.14,1.59L243.1,218.6a6,6,0,0,0,5.46,0l72-42.17a1.9,1.9,0,0,0,1.12-1.57v-3.59A1.91,1.91,0,0,1,320.57,172.84Z" style="fill: #95d4ec"/>
            </g>
          </g>
          <g>
            <g style="opacity: 0.7000000000000001;mix-blend-mode: multiply">
              <polygon points="199.12 177.75 199.12 181.57 223.3 196.06 288.03 157.46 252.98 137 199.12 177.75" style="fill: #d3dff1"/>
              <path d="M269.62,189.09l-11.44,6.61a4.94,4.94,0,0,1-4.91,0l-11.45-6.61a4.92,4.92,0,0,1,0-8.51L253.27,174a4.94,4.94,0,0,1,4.91,0l11.44,6.61A4.91,4.91,0,0,1,269.62,189.09Z" style="fill: #d3dff1"/>
            </g>
            <g>
              <g>
                <g>
                  <g style="isolation: isolate">
                    <polygon points="222.09 191.1 220.23 190.02 220.22 166.37 222.07 167.44 222.09 191.1" style="fill: #f7f9fc"/>
                    <polygon points="222.07 167.44 220.22 166.37 221.92 165.38 223.78 166.46 222.07 167.44" style="fill: #1a1c1e"/>
                    <polygon points="223.78 166.46 223.8 190.12 222.09 191.1 222.07 167.44 223.78 166.46" style="fill: #d6dfe8"/>
                  </g>
                  <g style="isolation: isolate">
                    <polygon points="220.4 190.11 199.45 177.75 199.43 159.17 220.4 169.19 220.4 190.11" style="fill: #f7f9fc"/>
                    <polygon points="201.29 160.25 199.43 159.17 201.13 158.19 202.99 159.26 201.29 160.25" style="fill: #1a1c1e"/>
                  </g>
                </g>
                <g>
                  <g style="isolation: isolate">
                    <polygon points="276.7 136.04 276.71 156.54 278.57 157.62 278.56 136.04 276.7 136.04" style="fill: #f7f9fc"/>
                    <polygon points="278.56 136.04 278.57 157.62 280.28 156.63 280.26 136.04 278.56 136.04" style="fill: #d6dfe8"/>
                  </g>
                  <g style="isolation: isolate">
                    <polygon points="255.92 136.04 255.93 144.26 276.88 156.63 276.88 136.04 255.92 136.04" style="fill: #f7f9fc"/>
                  </g>
                </g>
                <g style="isolation: isolate">
                  <polygon points="218.84 173.7 197.16 161.1 197.16 159.15 218.83 171.75 218.84 173.7" style="fill: #004b6b"/>
                  <polygon points="218.83 171.75 197.16 159.15 261.15 121.81 282.83 134.41 218.83 171.75" style="fill: #00709e"/>
                  <polygon points="282.83 134.41 282.84 136.37 218.84 173.7 218.83 171.75 282.83 134.41" style="fill: #004b6b"/>
                </g>
              </g>
              <g>
                <g style="isolation: isolate">
                  <polygon points="236.26 142.26 236.26 142.53 236.67 142.77 236.67 142.49 236.26 142.26" style="fill: #90908f"/>
                  <polygon points="237.07 142.73 237.07 143 237.48 143.24 237.48 142.96 237.07 142.73" style="fill: #90908f"/>
                  <polygon points="237.92 143.22 237.92 143.49 238.33 143.73 238.33 143.46 237.92 143.22" style="fill: #90908f"/>
                  <polygon points="238.73 143.69 238.73 143.96 239.13 144.2 239.13 143.93 238.73 143.69" style="fill: #90908f"/>
                  <polygon points="231.06 143.15 231.06 143.42 232.47 144.24 232.46 143.97 231.06 143.15" style="fill: #90908f"/>
                  <polygon points="233.24 144 233.24 144.28 236.26 142.53 236.26 142.26 233.24 144" style="fill: #90908f"/>
                  <polygon points="233.24 144 233.24 144.28 233.65 144.51 233.65 144.24 233.24 144" style="fill: #727173"/>
                  <polygon points="233.65 144.24 233.65 144.51 236.67 142.77 236.67 142.49 233.65 144.24" style="fill: #727273"/>
                  <polygon points="233.24 144 233.65 144.24 236.67 142.49 236.26 142.26 233.24 144" style="fill: #d6dfe8"/>
                  <polygon points="239.53 144.16 239.54 144.43 239.94 144.67 239.94 144.4 239.53 144.16" style="fill: #90908f"/>
                  <polygon points="231.06 143.15 231.05 144.78 232.46 143.97 231.06 143.15" style="fill: #d6dfe8"/>
                  <polygon points="231.05 144.78 231.05 145.06 232.47 144.24 232.46 143.97 231.05 144.78" style="fill: #727273"/>
                  <polygon points="232.6 145.31 232.6 145.58 237.07 143 237.07 142.73 232.6 145.31" style="fill: #90908f"/>
                  <polygon points="233.01 145.54 233.01 145.82 237.48 143.24 237.48 142.96 233.01 145.54" style="fill: #727273"/>
                  <polygon points="232.6 145.31 232.6 145.58 233.01 145.82 233.01 145.54 232.6 145.31" style="fill: #727173"/>
                  <polygon points="233.45 145.8 233.45 146.07 237.92 143.49 237.92 143.22 233.45 145.8" style="fill: #90908f"/>
                  <polygon points="233.85 146.04 233.85 146.31 238.33 143.73 238.33 143.46 233.85 146.04" style="fill: #727273"/>
                  <polygon points="233.45 145.8 233.45 146.07 233.85 146.31 233.85 146.04 233.45 145.8" style="fill: #727173"/>
                  <polygon points="233.45 145.8 233.85 146.04 238.33 143.46 237.92 143.22 233.45 145.8" style="fill: #d6dfe8"/>
                  <polygon points="234.26 146.27 234.26 146.54 238.73 143.96 238.73 143.69 234.26 146.27" style="fill: #90908f"/>
                  <polygon points="234.66 146.51 234.66 146.78 239.13 144.2 239.13 143.93 234.66 146.51" style="fill: #727273"/>
                  <polygon points="234.26 146.27 234.26 146.54 234.66 146.78 234.66 146.51 234.26 146.27" style="fill: #727173"/>
                  <polygon points="235.06 146.74 235.06 147.01 239.54 144.43 239.53 144.16 235.06 146.74" style="fill: #90908f"/>
                  <polygon points="235.06 146.74 235.06 147.01 235.47 147.25 235.47 146.98 235.06 146.74" style="fill: #727173"/>
                  <polygon points="235.47 146.98 235.47 147.25 239.94 144.67 239.94 144.4 235.47 146.98" style="fill: #727273"/>
                  <path d="M231.06,143.15l3.7-2.14,6.79,3.94-5.12,3-5.38-3.13,1.41-.82Zm2.79,2.89,4.48-2.58-.41-.24-4.47,2.58.4.24Zm1.62.94,4.47-2.58-.4-.24-4.48,2.58.41.24ZM233,145.55l4.47-2.59-.41-.23-4.47,2.58.41.24Zm1.65,1,4.47-2.58-.4-.24-4.47,2.58.4.24Zm1.6-4.25-3,1.74.41.24,3-1.75-.41-.23Z" style="fill: #f7f9fc"/>
                  <polygon points="232.6 145.31 233.01 145.54 237.48 142.96 237.07 142.73 232.6 145.31" style="fill: #d6dfe8"/>
                  <polygon points="234.26 146.27 234.66 146.51 239.13 143.93 238.73 143.69 234.26 146.27" style="fill: #d6dfe8"/>
                  <polygon points="235.06 146.74 235.47 146.98 239.94 144.4 239.53 144.16 235.06 146.74" style="fill: #d6dfe8"/>
                  <polygon points="231.05 144.78 231.05 145.06 236.43 148.18 236.43 147.91 231.05 144.78" style="fill: #d6dfe8"/>
                  <polygon points="236.43 147.91 236.43 148.18 241.55 145.22 241.55 144.95 236.43 147.91" style="fill: #d6dfe8"/>
                </g>
                <g style="isolation: isolate">
                  <polygon points="236.26 141.97 236.26 142.24 236.67 142.48 236.67 142.2 236.26 141.97" style="fill: #90908f"/>
                  <polygon points="237.07 142.44 237.07 142.71 237.48 142.95 237.48 142.67 237.07 142.44" style="fill: #90908f"/>
                  <polygon points="237.92 142.93 237.92 143.2 238.33 143.44 238.33 143.17 237.92 142.93" style="fill: #90908f"/>
                  <polygon points="238.73 143.4 238.73 143.67 239.13 143.91 239.13 143.64 238.73 143.4" style="fill: #90908f"/>
                  <polygon points="231.06 142.86 231.06 143.13 232.47 143.95 232.46 143.68 231.06 142.86" style="fill: #90908f"/>
                  <polygon points="233.24 143.71 233.24 143.99 236.26 142.24 236.26 141.97 233.24 143.71" style="fill: #90908f"/>
                  <polygon points="233.24 143.71 233.24 143.99 233.65 144.22 233.65 143.95 233.24 143.71" style="fill: #727173"/>
                  <polygon points="233.65 143.95 233.65 144.22 236.67 142.48 236.67 142.2 233.65 143.95" style="fill: #727273"/>
                  <polygon points="233.24 143.71 233.65 143.95 236.67 142.2 236.26 141.97 233.24 143.71" style="fill: #d6dfe8"/>
                  <polygon points="239.53 143.87 239.54 144.14 239.94 144.38 239.94 144.1 239.53 143.87" style="fill: #90908f"/>
                  <polygon points="231.06 142.86 231.05 144.49 232.46 143.68 231.06 142.86" style="fill: #d6dfe8"/>
                  <polygon points="231.05 144.49 231.05 144.77 232.47 143.95 232.46 143.68 231.05 144.49" style="fill: #727273"/>
                  <polygon points="232.6 145.02 232.6 145.29 237.07 142.71 237.07 142.44 232.6 145.02" style="fill: #90908f"/>
                  <polygon points="233.01 145.26 233.01 145.53 237.48 142.95 237.48 142.67 233.01 145.26" style="fill: #727273"/>
                  <polygon points="232.6 145.02 232.6 145.29 233.01 145.53 233.01 145.26 232.6 145.02" style="fill: #727173"/>
                  <polygon points="233.45 145.51 233.45 145.79 237.92 143.2 237.92 142.93 233.45 145.51" style="fill: #90908f"/>
                  <polygon points="233.85 145.75 233.85 146.02 238.33 143.44 238.33 143.17 233.85 145.75" style="fill: #727273"/>
                  <polygon points="233.45 145.51 233.45 145.79 233.85 146.02 233.85 145.75 233.45 145.51" style="fill: #727173"/>
                  <polygon points="233.45 145.51 233.85 145.75 238.33 143.17 237.92 142.93 233.45 145.51" style="fill: #d6dfe8"/>
                  <polygon points="234.26 145.98 234.26 146.25 238.73 143.67 238.73 143.4 234.26 145.98" style="fill: #90908f"/>
                  <polygon points="234.66 146.22 234.66 146.49 239.13 143.91 239.13 143.64 234.66 146.22" style="fill: #727273"/>
                  <polygon points="234.26 145.98 234.26 146.25 234.66 146.49 234.66 146.22 234.26 145.98" style="fill: #727173"/>
                  <polygon points="235.06 146.45 235.06 146.72 239.54 144.14 239.53 143.87 235.06 146.45" style="fill: #90908f"/>
                  <polygon points="235.06 146.45 235.06 146.72 235.47 146.96 235.47 146.69 235.06 146.45" style="fill: #727173"/>
                  <polygon points="235.47 146.69 235.47 146.96 239.94 144.38 239.94 144.1 235.47 146.69" style="fill: #727273"/>
                  <path d="M231.06,142.86l3.7-2.14,6.79,3.94-5.12,3-5.38-3.13,1.41-.81Zm2.79,2.89,4.48-2.58-.41-.24-4.47,2.58.4.24Zm1.62.94,4.47-2.58-.4-.24-4.48,2.58.41.24ZM233,145.26l4.47-2.59-.41-.23L232.6,145l.41.24Zm1.65,1,4.47-2.58-.4-.24L234.26,146l.4.24Zm1.6-4.25-3,1.74.41.24,3-1.75-.41-.23Z" style="fill: #f7f9fc"/>
                  <polygon points="232.6 145.02 233.01 145.26 237.48 142.67 237.07 142.44 232.6 145.02" style="fill: #d6dfe8"/>
                  <polygon points="234.26 145.98 234.66 146.22 239.13 143.64 238.73 143.4 234.26 145.98" style="fill: #d6dfe8"/>
                  <polygon points="235.06 146.45 235.47 146.69 239.94 144.1 239.53 143.87 235.06 146.45" style="fill: #d6dfe8"/>
                  <polygon points="231.05 144.49 231.05 144.77 236.43 147.89 236.43 147.62 231.05 144.49" style="fill: #d6dfe8"/>
                  <polygon points="236.43 147.62 236.43 147.89 241.55 144.94 241.55 144.66 236.43 147.62" style="fill: #d6dfe8"/>
                </g>
                <g style="isolation: isolate">
                  <polygon points="236.26 141.68 236.26 141.95 236.67 142.19 236.67 141.91 236.26 141.68" style="fill: #90908f"/>
                  <polygon points="237.07 142.15 237.07 142.42 237.48 142.66 237.48 142.38 237.07 142.15" style="fill: #90908f"/>
                  <polygon points="237.92 142.64 237.92 142.91 238.33 143.15 238.33 142.88 237.92 142.64" style="fill: #90908f"/>
                  <polygon points="238.73 143.11 238.73 143.38 239.13 143.62 239.13 143.35 238.73 143.11" style="fill: #90908f"/>
                  <polygon points="231.06 142.57 231.06 142.84 232.47 143.66 232.46 143.39 231.06 142.57" style="fill: #90908f"/>
                  <polygon points="233.24 143.42 233.24 143.7 236.26 141.95 236.26 141.68 233.24 143.42" style="fill: #90908f"/>
                  <polygon points="233.24 143.42 233.24 143.7 233.65 143.93 233.65 143.66 233.24 143.42" style="fill: #727173"/>
                  <polygon points="233.65 143.66 233.65 143.93 236.67 142.19 236.67 141.91 233.65 143.66" style="fill: #727273"/>
                  <polygon points="233.24 143.42 233.65 143.66 236.67 141.91 236.26 141.68 233.24 143.42" style="fill: #d6dfe8"/>
                  <polygon points="239.53 143.58 239.54 143.85 239.94 144.09 239.94 143.82 239.53 143.58" style="fill: #90908f"/>
                  <polygon points="231.06 142.57 231.05 144.2 232.46 143.39 231.06 142.57" style="fill: #d6dfe8"/>
                  <polygon points="231.05 144.2 231.05 144.48 232.47 143.66 232.46 143.39 231.05 144.2" style="fill: #727273"/>
                  <polygon points="232.6 144.73 232.6 145 237.07 142.42 237.07 142.15 232.6 144.73" style="fill: #90908f"/>
                  <polygon points="233.01 144.97 233.01 145.24 237.48 142.66 237.48 142.38 233.01 144.97" style="fill: #727273"/>
                  <polygon points="232.6 144.73 232.6 145 233.01 145.24 233.01 144.97 232.6 144.73" style="fill: #727173"/>
                  <polygon points="233.45 145.22 233.45 145.5 237.92 142.91 237.92 142.64 233.45 145.22" style="fill: #90908f"/>
                  <polygon points="233.85 145.46 233.85 145.73 238.33 143.15 238.33 142.88 233.85 145.46" style="fill: #727273"/>
                  <polygon points="233.45 145.22 233.45 145.5 233.85 145.73 233.85 145.46 233.45 145.22" style="fill: #727173"/>
                  <polygon points="233.45 145.22 233.85 145.46 238.33 142.88 237.92 142.64 233.45 145.22" style="fill: #d6dfe8"/>
                  <polygon points="234.26 145.69 234.26 145.97 238.73 143.38 238.73 143.11 234.26 145.69" style="fill: #90908f"/>
                  <polygon points="234.66 145.93 234.66 146.2 239.13 143.62 239.13 143.35 234.66 145.93" style="fill: #727273"/>
                  <polygon points="234.26 145.69 234.26 145.97 234.66 146.2 234.66 145.93 234.26 145.69" style="fill: #727173"/>
                  <polygon points="235.06 146.16 235.06 146.43 239.54 143.85 239.53 143.58 235.06 146.16" style="fill: #90908f"/>
                  <polygon points="235.06 146.16 235.06 146.43 235.47 146.67 235.47 146.4 235.06 146.16" style="fill: #727173"/>
                  <polygon points="235.47 146.4 235.47 146.67 239.94 144.09 239.94 143.82 235.47 146.4" style="fill: #727273"/>
                  <path d="M231.06,142.57l3.7-2.14,6.79,3.94-5.12,3-5.38-3.13,1.41-.81Zm2.79,2.89,4.48-2.58-.41-.24-4.47,2.58.4.24Zm1.62.94,4.47-2.58-.4-.24-4.48,2.58.41.24ZM233,145l4.47-2.59-.41-.23-4.47,2.58.41.24Zm1.65,1,4.47-2.58-.4-.24-4.47,2.58.4.24Zm1.6-4.25-3,1.74.41.24,3-1.75-.41-.23Z" style="fill: #f7f9fc"/>
                  <polygon points="232.6 144.73 233.01 144.97 237.48 142.38 237.07 142.15 232.6 144.73" style="fill: #d6dfe8"/>
                  <polygon points="234.26 145.69 234.66 145.93 239.13 143.35 238.73 143.11 234.26 145.69" style="fill: #d6dfe8"/>
                  <polygon points="235.06 146.16 235.47 146.4 239.94 143.82 239.53 143.58 235.06 146.16" style="fill: #d6dfe8"/>
                  <polygon points="231.05 144.2 231.05 144.48 236.43 147.6 236.43 147.33 231.05 144.2" style="fill: #d6dfe8"/>
                  <polygon points="236.43 147.33 236.43 147.6 241.55 144.65 241.55 144.37 236.43 147.33" style="fill: #d6dfe8"/>
                </g>
              </g>
              <g>
                <path d="M249.6,149.65a.47.47,0,0,1-.27.38l-.48.27v-.6l-1-.56-.94.55.54.31.4-.24.42.25-.4.23-1-.55v0l-.45-.27a1.3,1.3,0,0,0-.17-.38l.31-.18v-.62l-1-.55-.21.12v-.25l-1-.55-.21.12v-.24l-1-.56-.93.54v.15l-.13-.07-.94.54v.15l-.13-.08-.94.54v.15l-.13-.07-.94.54v.15l-.12-.08-.94.55v.15l-.13-.08-.94.54v.15l-.13-.07-.94.54v.15l-.13-.08-.93.54v.15l-.13-.07-.94.54V152l-.13-.07-.94.54v.15l-.13-.08-.94.54v.15l-.13-.07-.93.54v.15l-.13-.08-.94.54h0v.16l-.13-.08-.94.54v.56l-.48-.28-.94.54v.57l-.44-.26a.45.45,0,0,1-.27-.38v.62a.45.45,0,0,0,.27.38l5.45,3.17a1.44,1.44,0,0,0,1.31,0l15.9-9.18a.47.47,0,0,0,.27-.38Z" style="fill: #c1c1c1"/>
                <g>
                  <path d="M249.33,149.27l-5.45-3.17a1.44,1.44,0,0,0-1.31,0l-15.9,9.18a.4.4,0,0,0,0,.76l5.45,3.17a1.44,1.44,0,0,0,1.31,0l15.9-9.18A.4.4,0,0,0,249.33,149.27Z" style="fill: #fff"/>
                  <path d="M232.77,159a1,1,0,0,0,.45-.1l15.9-9.18,0,0,0,0-5.45-3.17a1,1,0,0,0-.44-.1,1,1,0,0,0-.45.1l-15.9,9.18,0,0,0,0,5.45,3.17A1,1,0,0,0,232.77,159Z" style="fill: #4d4e4e;opacity: 0.6000000000000001;mix-blend-mode: multiply"/>
                  <g>
                    <polygon points="243.04 146.71 243.95 147.24 243.06 147.75 242.16 147.22 243.04 146.71" style="fill: #f7f9fc"/>
                    <polygon points="242.04 147.29 242.94 147.82 242.05 148.33 241.15 147.81 242.04 147.29" style="fill: #f7f9fc"/>
                    <polygon points="241.03 147.88 241.93 148.4 241.04 148.91 240.14 148.39 241.03 147.88" style="fill: #f7f9fc"/>
                    <polygon points="243.14 147.94 244.04 148.46 243.16 148.97 242.25 148.45 243.14 147.94" style="fill: #f7f9fc"/>
                    <polygon points="245.25 148 246.15 148.52 245.27 149.03 244.37 148.51 245.25 148" style="fill: #f7f9fc"/>
                    <polygon points="240.02 148.46 240.92 148.98 240.04 149.49 239.14 148.97 240.02 148.46" style="fill: #f7f9fc"/>
                    <polygon points="244.24 148.58 245.15 149.1 244.26 149.61 243.36 149.09 244.24 148.58" style="fill: #f7f9fc"/>
                    <polygon points="239.01 149.04 239.92 149.56 239.03 150.07 238.13 149.55 239.01 149.04" style="fill: #f7f9fc"/>
                    <polygon points="243.24 149.16 244.14 149.68 243.25 150.19 242.35 149.67 243.24 149.16" style="fill: #f7f9fc"/>
                    <polygon points="238.01 149.62 238.91 150.15 238.02 150.66 237.12 150.13 238.01 149.62" style="fill: #f7f9fc"/>
                    <polygon points="240.69 149.35 241.6 149.87 239.13 151.3 238.22 150.78 240.69 149.35" style="fill: #f7f9fc"/>
                    <polygon points="235.99 150.78 236.89 151.31 236.01 151.82 235.11 151.3 235.99 150.78" style="fill: #f7f9fc"/>
                    <polygon points="238.1 150.84 239 151.37 238.12 151.88 237.22 151.36 238.1 150.84" style="fill: #f7f9fc"/>
                    <polygon points="241.88 150.04 242.92 150.64 243.52 150.99 243.82 151.17 242.33 152.03 241.43 151.5 241.89 151.24 240.84 150.63 241.88 150.04" style="fill: #f7f9fc"/>
                    <polygon points="234.98 151.37 235.88 151.89 235 152.4 234.1 151.88 234.98 151.37" style="fill: #f7f9fc"/>
                    <polygon points="237.09 151.43 238 151.95 237.11 152.46 236.21 151.94 237.09 151.43" style="fill: #f7f9fc"/>
                    <polygon points="238.53 151.88 239.43 152.4 238.54 152.91 237.64 152.39 238.53 151.88" style="fill: #f7f9fc"/>
                    <polygon points="233.97 151.95 234.88 152.47 233.99 152.98 233.09 152.46 233.97 151.95" style="fill: #f7f9fc"/>
                    <polygon points="236.09 152.01 236.99 152.53 236.1 153.04 235.2 152.52 236.09 152.01" style="fill: #f7f9fc"/>
                    <polygon points="237.53 152.45 238.43 152.98 237.55 153.49 236.65 152.97 237.53 152.45" style="fill: #f7f9fc"/>
                    <polygon points="232.97 152.53 233.87 153.05 232.99 153.57 232.08 153.04 232.97 152.53" style="fill: #f7f9fc"/>
                    <polygon points="235.08 152.59 235.98 153.11 235.09 153.63 234.19 153.1 235.08 152.59" style="fill: #f7f9fc"/>
                    <polygon points="241.91 152.49 242.81 153.01 241.05 154.03 240.15 153.5 241.91 152.49" style="fill: #f7f9fc"/>
                    <polygon points="236.53 153.03 237.44 153.55 236.55 154.06 235.65 153.54 236.53 153.03" style="fill: #f7f9fc"/>
                    <polygon points="231.96 153.11 232.86 153.64 231.98 154.15 231.07 153.62 231.96 153.11" style="fill: #f7f9fc"/>
                    <polygon points="234.07 153.17 234.97 153.69 234.09 154.21 233.19 153.68 234.07 153.17" style="fill: #f7f9fc"/>
                    <polygon points="235.54 153.6 236.44 154.13 235.55 154.64 234.65 154.11 235.54 153.6" style="fill: #f7f9fc"/>
                    <polygon points="230.95 153.69 231.85 154.22 230.97 154.73 230.07 154.2 230.95 153.69" style="fill: #f7f9fc"/>
                    <polygon points="233.06 153.75 233.97 154.28 233.08 154.79 232.18 154.26 233.06 153.75" style="fill: #f7f9fc"/>
                    <polygon points="234.54 154.18 235.44 154.7 234.56 155.21 233.66 154.69 234.54 154.18" style="fill: #f7f9fc"/>
                    <polygon points="229.95 154.28 230.85 154.8 229.96 155.31 229.06 154.79 229.95 154.28" style="fill: #f7f9fc"/>
                    <polygon points="232.06 154.34 232.96 154.86 232.07 155.37 231.17 154.85 232.06 154.34" style="fill: #f7f9fc"/>
                    <polygon points="233.55 154.75 234.45 155.28 233.56 155.79 232.66 155.26 233.55 154.75" style="fill: #f7f9fc"/>
                    <polygon points="228.61 155.05 229.51 155.57 228.62 156.08 227.72 155.56 228.61 155.05" style="fill: #f7f9fc"/>
                    <polygon points="232.55 155.33 233.45 155.85 232.57 156.36 231.67 155.84 232.55 155.33" style="fill: #f7f9fc"/>
                    <polygon points="240.04 153.57 240.94 154.09 236.62 156.59 235.72 156.06 240.04 153.57" style="fill: #f7f9fc"/>
                    <polygon points="231.01 154.94 231.91 155.47 229.73 156.72 228.82 156.2 231.01 154.94" style="fill: #f7f9fc"/>
                    <polygon points="231.55 155.91 232.45 156.43 230.83 157.37 229.93 156.84 231.55 155.91" style="fill: #f7f9fc"/>
                    <polygon points="235.58 156.14 236.48 156.67 234.98 157.53 234.08 157.01 235.58 156.14" style="fill: #f7f9fc"/>
                    <polygon points="233.9 157.11 234.8 157.64 233.04 158.65 232.14 158.13 233.9 157.11" style="fill: #f7f9fc"/>
                    <polygon points="244.15 147.35 245.05 147.88 244.16 148.39 243.26 147.87 244.15 147.35" style="fill: #f7f9fc"/>
                    <polygon points="242.13 148.52 243.03 149.04 242.15 149.55 241.25 149.03 242.13 148.52" style="fill: #f7f9fc"/>
                    <polygon points="247.34 149.34 248.24 149.87 247.35 150.38 246.45 149.85 247.34 149.34" style="fill: #f7f9fc"/>
                    <polygon points="246.33 149.92 246.46 149.99 247.24 150.44 246.35 150.96 245.45 150.43 245.54 150.38 246.33 149.92" style="fill: #f7f9fc"/>
                    <polygon points="245.36 149.34 245.48 149.41 246.26 149.87 245.38 150.38 244.47 149.85 244.57 149.8 245.36 149.34" style="fill: #f7f9fc"/>
                    <polygon points="237 150.2 237.9 150.73 237.01 151.24 236.11 150.71 237 150.2" style="fill: #f7f9fc"/>
                    <polygon points="245.36 150.48 246.26 151.01 245.38 151.52 244.47 150.99 245.36 150.48" style="fill: #f7f9fc"/>
                    <polygon points="240.52 150.73 241.42 151.25 240.53 151.76 239.63 151.24 240.52 150.73" style="fill: #f7f9fc"/>
                    <polygon points="239.52 151.3 240.42 151.83 239.54 152.34 238.64 151.81 239.52 151.3" style="fill: #f7f9fc"/>
                    <polygon points="243.92 151.33 244.82 151.85 243 152.91 242.09 152.38 243.92 151.33" style="fill: #f7f9fc"/>
                    <polygon points="234.22 155.64 235.12 156.17 234.24 156.68 233.33 156.15 234.22 155.64 234.22 155.64" style="fill: #f7f9fc"/>
                    <polygon points="234.32 155.59 235.2 155.07 236.11 155.6 235.22 156.11 234.32 155.59 234.32 155.59" style="fill: #f7f9fc"/>
                    <polygon points="235.31 155.01 236.2 154.5 237.1 155.02 236.22 155.53 235.31 155.01 235.31 155.01" style="fill: #f7f9fc"/>
                    <polygon points="236.3 154.44 237.18 153.93 238.09 154.46 237.2 154.97 236.3 154.44 236.3 154.44" style="fill: #f7f9fc"/>
                    <polygon points="237.33 153.85 238.21 153.34 239.12 153.86 238.23 154.37 237.33 153.85 237.33 153.85" style="fill: #f7f9fc"/>
                    <polygon points="238.31 153.28 239.2 152.77 240.1 153.29 239.22 153.8 238.31 153.28 238.31 153.28" style="fill: #f7f9fc"/>
                    <polygon points="239.31 152.71 240.19 152.19 241.1 152.72 240.21 153.23 239.31 152.71 239.31 152.71" style="fill: #f7f9fc"/>
                    <polygon points="240.29 152.14 241.18 151.63 242.08 152.15 241.19 152.66 240.29 152.14 240.29 152.14" style="fill: #f7f9fc"/>
                    <polygon points="231.03 157.48 233.21 156.22 234.11 156.75 231.93 158.01 231.03 157.48 231.03 157.48" style="fill: #f7f9fc"/>
                  </g>
                </g>
              </g>
              <g>
                <g style="isolation: isolate">
                  <polygon points="245.78 143 236.08 136.86 236.05 126.37 245.75 132.51 245.78 143" style="fill: #1c2024"/>
                  <polygon points="245.75 132.51 236.05 126.37 240.93 123.54 250.63 129.68 245.75 132.51" style="fill: #29313b"/>
                  <polygon points="250.63 129.68 250.66 140.17 245.78 143 245.75 132.51 250.63 129.68" style="fill: #1a1c1e"/>
                  <polygon points="250.28 131.28 246.13 133.69 246.13 138.43 250.28 136.02 250.28 131.28" style="fill: #0f0f10"/>
                  <polygon points="250 131.89 246.41 133.97 246.41 135.73 250 133.64 250 131.89" style="fill: #1c2024"/>
                </g>
                <g>
                  <polygon points="250.07 137.37 250.07 137.94 249.57 138.23 249.57 137.66 250.07 137.37" style="fill: #29313b"/>
                  <path d="M246.68,139.36c.12-.08.23,0,.23.13a.55.55,0,0,1-.23.4c-.13.07-.23,0-.23-.14A.49.49,0,0,1,246.68,139.36Z" style="fill: #1f2527"/>
                  <g>
                    <polygon points="249.49 137.7 249.49 138.27 249 138.56 249 137.99 249.49 137.7" style="fill: #29313b"/>
                    <polygon points="248.92 138.03 248.92 138.61 248.43 138.89 248.42 138.32 248.92 138.03" style="fill: #29313b"/>
                    <polygon points="249.49 137.03 249.49 137.6 249 137.89 249 137.32 249.49 137.03" style="fill: #29313b"/>
                    <polygon points="248.34 138.37 248.34 138.94 247.85 139.23 247.85 138.66 248.34 138.37" style="fill: #29313b"/>
                    <polygon points="248.92 137.37 248.92 137.94 248.42 138.22 248.42 137.66 248.92 137.37" style="fill: #29313b"/>
                    <polygon points="247.77 138.7 247.77 139.27 247.28 139.56 247.28 138.99 247.77 138.7" style="fill: #29313b"/>
                    <polygon points="248.34 137.7 248.34 138.27 247.85 138.56 247.85 137.99 248.34 137.7" style="fill: #29313b"/>
                    <polygon points="247.77 138.03 247.77 138.6 247.27 138.89 247.27 138.32 247.77 138.03" style="fill: #29313b"/>
                    <path d="M246.67,138.64c.13-.07.23,0,.23.13a.51.51,0,0,1-.22.4c-.13.07-.23,0-.23-.13A.51.51,0,0,1,246.67,138.64Z" style="fill: #29313b"/>
                    <path d="M250.28,136.34l-4.15,2.41v1.68l4.15-2.41Zm-3.61,2.3c.13-.07.23,0,.23.13a.51.51,0,0,1-.22.4c-.13.07-.23,0-.23-.13A.51.51,0,0,1,246.67,138.64Zm0,1.25c-.13.07-.23,0-.23-.14a.49.49,0,0,1,.23-.39c.12-.08.23,0,.23.13A.55.55,0,0,1,246.68,139.89Zm.59-1.57.5-.29v.57l-.5.29Zm0,1.24V139l.5-.29v.57Zm.57-1.57.49-.29v.57l-.49.29Zm0,1.24v-.57l.49-.29v.57Zm.57-1.57.5-.29v.57l-.5.28Zm0,1.23v-.57l.5-.28v.57Zm.58-1.57.49-.29v.58l-.49.28Zm0,1.24V138l.49-.29v.57Zm.57-1.57.49-.29v.57l-.5.29Zm0,.67.5-.29v.57l-.5.29Z" style="fill: #29313b"/>
                  </g>
                  <polygon points="250.06 136.7 250.07 137.27 249.57 137.56 249.57 136.99 250.06 136.7" style="fill: #29313b"/>
                </g>
                <g style="isolation: isolate">
                  <g style="isolation: isolate">
                    <path d="M248.73,139.8l-.18-.11a.35.35,0,0,1,.35,0l.18.11a.35.35,0,0,0-.35,0Z" style="fill: #181c1e"/>
                  </g>
                  <g style="isolation: isolate">
                    <path d="M248.39,141l-.19-.11a.34.34,0,0,1-.14-.32,1.1,1.1,0,0,1,.49-.85l.18.11a1.08,1.08,0,0,0-.49.85.38.38,0,0,0,.15.32Z" style="fill: #181c1e"/>
                  </g>
                  <path d="M248.73,139.8c.28-.16.5,0,.5.28a1.1,1.1,0,0,1-.49.85c-.27.16-.49,0-.5-.28A1.08,1.08,0,0,1,248.73,139.8Z" style="fill: #1c2024"/>
                </g>
              </g>
              <g>
                <g style="isolation: isolate">
                  <g style="clip-path: url(#clip-path)">
                    <g>
                      <path d="M228.55,140.37l-.82-.48a.6.6,0,0,1,.22.27l.82.47a.52.52,0,0,0-.22-.26Z" style="fill: #1c2024"/>
                      <path d="M228.77,140.63l-.82-.47a.91.91,0,0,1,.07.35l.82.47a1,1,0,0,0-.07-.35Z" style="fill: #1c2024"/>
                      <path d="M228.84,141l-.82-.47v0a2.23,2.23,0,0,1-.64,1.45l.82.48a2.23,2.23,0,0,0,.64-1.46v0Z" style="fill: #1c2024"/>
                      <path d="M228.2,142.47l-.82-.48a1.63,1.63,0,0,1-.33.27l.81.48a1.76,1.76,0,0,0,.34-.27Z" style="fill: #1c2024"/>
                      <path d="M227.86,142.74l-.81-.48,0,0,.82.48,0,0Z" style="fill: #1c2024"/>
                    </g>
                  </g>
                </g>
                <g style="isolation: isolate">
                  <g style="clip-path: url(#clip-path-2)">
                    <path d="M227.83,142.76l-.82-.48a.69.69,0,0,1-.71.07l.81.48a.71.71,0,0,0,.72-.07Z" style="fill: #1c2024"/>
                  </g>
                </g>
                <g style="isolation: isolate">
                  <g style="clip-path: url(#clip-path-3)">
                    <path d="M229.14,138.9l-.82-.47a1.31,1.31,0,0,0-1.32.12l.82.48a1.32,1.32,0,0,1,1.32-.13Z" style="fill: #1c2024"/>
                  </g>
                </g>
                <g style="isolation: isolate">
                  <g style="clip-path: url(#clip-path-4)">
                    <g>
                      <path d="M227.82,139l-.82-.48-.05,0,.82.47,0,0Z" style="fill: #1c2024"/>
                      <path d="M227.77,139.06l-.82-.47a3.12,3.12,0,0,0-.61.49l.81.48a2.9,2.9,0,0,1,.62-.5Z" style="fill: #1c2024"/>
                      <path d="M227.15,139.56l-.81-.48a4.14,4.14,0,0,0-1.18,2.67l.82.48a4.08,4.08,0,0,1,1.17-2.67Z" style="fill: #1c2024"/>
                    </g>
                  </g>
                </g>
                <g>
                  <g style="isolation: isolate">
                    <g style="isolation: isolate">
                      <g style="clip-path: url(#clip-path-5)">
                        <path d="M232.69,147.81v.45a.26.26,0,0,0,.16-.23v-.45a.28.28,0,0,1-.16.23Z" style="fill: #b8bdc6"/>
                      </g>
                    </g>
                    <g style="isolation: isolate">
                      <path id="SVGID-10" data-name="SVGID" d="M221.28,150.32v.45a.27.27,0,0,0,.16.23v-.45A.29.29,0,0,1,221.28,150.32Z" style="fill: #b8bdc6"/>
                      <g style="clip-path: url(#clip-path-6)">
                        <path d="M221.28,150.32v.45a.27.27,0,0,0,.16.23v-.45a.29.29,0,0,1-.16-.23Z" style="fill: #b8bdc6"/>
                      </g>
                    </g>
                    <polygon points="221.44 150.55 221.44 151 224.29 152.66 224.28 152.21 221.44 150.55" style="fill: #b8bdc6"/>
                    <polygon points="225.07 152.21 225.07 152.66 232.69 148.26 232.69 147.81 225.07 152.21" style="fill: #b8bdc6"/>
                    <g style="isolation: isolate">
                      <path id="SVGID-11" data-name="SVGID" d="M224.29,152.21v.45a.83.83,0,0,0,.78,0v-.45A.83.83,0,0,1,224.29,152.21Z" style="fill: #b8bdc6"/>
                      <g style="clip-path: url(#clip-path-7)">
                        <path d="M224.29,152.21v.45a.83.83,0,0,0,.78,0v-.45a.83.83,0,0,1-.78,0Z" style="fill: #b8bdc6"/>
                      </g>
                    </g>
                    <path d="M221.44,150.09a.25.25,0,0,0,0,.46l2.85,1.66a.83.83,0,0,0,.78,0l7.62-4.4a.24.24,0,0,0,0-.45l-2.85-1.67a.89.89,0,0,0-.78,0Z" style="fill: #f7f9fc"/>
                  </g>
                  <g>
                    <polygon points="224.94 139.87 223.93 139.28 223.96 149.53 224.97 150.12 224.94 139.87" style="fill: #1c2024"/>
                    <path d="M229.49,137.23l0,10.25L225,150.12l0-10.25a5,5,0,0,1,2.28-3.94C228.46,135.2,229.49,135.79,229.49,137.23Zm-2.28,3.3a2.72,2.72,0,0,0,1.24-2.16c0-.79-.56-1.1-1.25-.71a2.77,2.77,0,0,0-1.24,2.15c0,.79.56,1.11,1.25.72Z" style="fill: #1a1c1e"/>
                  </g>
                </g>
                <path d="M216.8,136.48l17.28-10a.62.62,0,0,1,.61-.06l.85.51a.58.58,0,0,0-.6.06l-.82.47.84.49a.37.37,0,0,1,.15.33l0,10.9.69.4-6.77,3.94.73.42a6.87,6.87,0,0,1-1.82.9c-1,.42-1.86,1-2.8,1.5s-2,1-3,1.46l-1,.46v-.18l-4.31,2.46V151a.59.59,0,0,0,.25.54l-.86-.5a.61.61,0,0,1-.25-.55v-1.71L216,138A1.86,1.86,0,0,1,216.8,136.48Z" style="fill: #f7f9fc"/>
                <path d="M217,137.83a1.84,1.84,0,0,1,.55-.73l.15-.11,9.89-5.71,6.58-3.8h0l.82-.47c.47-.27.85-.05.85.49l0,10.86v1.71a1.89,1.89,0,0,1-.85,1.48l-17.29,10c-.47.27-.85.05-.85-.49V143.3l0-4.84A1.65,1.65,0,0,1,217,137.83Z" style="fill: #d3dff1"/>
                <polygon points="218.13 138.01 234.64 128.3 234.64 140.58 218.13 150.29 218.13 138.01" style="fill: url(#linear-gradient-4)"/>
                <polygon points="233.69 130.11 224.49 135.42 224.49 140.69 233.69 135.38 233.69 130.11" style="fill: #f7f9fc"/>
                <polygon points="233.69 136.36 224.49 141.67 224.49 142.68 233.69 137.37 233.69 136.36" style="fill: #f7f9fc"/>
                <polygon points="231.22 132.41 227.81 134.37 227.81 134.87 231.22 132.91 231.22 132.41" style="fill: #fcb912"/>
                <polygon points="233.09 132.63 227.83 135.63 227.83 135.95 233.09 132.95 233.09 132.63" style="fill: url(#linear-gradient-5)"/>
                <polygon points="233.09 133.19 227.83 136.18 227.83 136.5 233.09 133.51 233.09 133.19" style="fill: url(#linear-gradient-6)"/>
                <polygon points="233.09 133.72 227.83 136.72 227.83 137.04 233.09 134.04 233.09 133.72" style="fill: url(#linear-gradient-7)"/>
                <polygon points="230.6 135.66 227.83 137.24 227.83 137.56 230.6 135.98 230.6 135.66" style="fill: url(#linear-gradient-8)"/>
                <polygon points="233.69 138.44 224.49 143.75 224.49 144.76 233.69 139.45 233.69 138.44" style="fill: #f7f9fc"/>
                <polygon points="218.13 149.94 234.33 140.41 234.33 128.48 234.64 128.3 234.64 140.58 218.13 150.29 218.13 149.94" style="fill: #b3b2b3"/>
                <g>
                  <path d="M220.16,138.41c.18-.11.33,0,.33.19v2.8a.71.71,0,0,1-.33.57c-.18.11-.33,0-.33-.19v-2.4l-.23.19-.12.1c-.15.09-.28,0-.29-.17a.69.69,0,0,1,.22-.45l.43-.39a3.78,3.78,0,0,1,.31-.25Z" style="fill: #fff"/>
                  <path d="M223.41,138.69c.16-.09.28,0,.28.16a.56.56,0,0,1-.28.46l-.15.1v.42a.71.71,0,0,1-.32.55c-.18.1-.32,0-.32-.19v-.42l-1.25.72c-.18.11-.32,0-.32-.16a1,1,0,0,1,.15-.51l1.31-2.51a1.09,1.09,0,0,1,.42-.51c.18-.1.32,0,.32.19v1.79Zm-.79.46v-1.08l-.81,1.55.81-.47" style="fill: #fff"/>
                </g>
                <g>
                  <path d="M220.52,142.24c.1-.05.18,0,.18.1v1.6a.39.39,0,0,1-.18.31c-.1.06-.18,0-.18-.1v0a1,1,0,0,1-.39.46c-.3.17-.58.07-.58-.42h0a1.27,1.27,0,0,1,.57-1.08.32.32,0,0,1,.4,0v-.53A.38.38,0,0,1,220.52,142.24Zm-.16,1.37h0c0-.24-.15-.31-.31-.22a.71.71,0,0,0-.31.58h0c0,.24.14.32.31.22a.71.71,0,0,0,.31-.58" style="fill: #fff"/>
                  <path d="M222.2,142.49a.36.36,0,0,1-.16.29l-.71.41c0,.17.14.2.3.11a.78.78,0,0,0,.26-.25L222,143c.08-.05.14,0,.14.08l-.05.15a1.39,1.39,0,0,1-.44.43c-.38.22-.66.07-.66-.37h0a1.36,1.36,0,0,1,.62-1.12C222,141.9,222.2,142.18,222.2,142.49Zm-.88.45.54-.32c0-.17-.11-.24-.27-.15a.63.63,0,0,0-.27.47" style="fill: #fff"/>
                  <path d="M223.34,141.16c.1-.06.17,0,.17.06h0a.48.48,0,0,1-.08.25l-.58,1.08.52-.3c.08,0,.15,0,.15.08a.34.34,0,0,1-.15.26l-.81.46c-.1.06-.17,0-.17-.07h0a.45.45,0,0,1,.08-.25l.59-1.09-.51.29c-.08.05-.15,0-.15-.07a.34.34,0,0,1,.15-.26Z" style="fill: #fff"/>
                </g>
                <g>
                  <path d="M226.89,137.43a.32.32,0,0,1-.16.32l-.38.23v.82a.36.36,0,0,1-.16.28l-.22.13c-.1.06-.17,0-.17-.1v-.82l-.38.22c-.11.07-.19,0-.17-.13l.33-1.71a.38.38,0,0,1,.16-.24l.07,0a.67.67,0,0,0,.26-.09,1.16,1.16,0,0,0,.25-.2l.07,0c.08,0,.15,0,.17,0Z" style="fill: #fcb912"/>
                  <path d="M226.07,136.11c-.24.14-.44,0-.44-.25a1,1,0,0,1,.44-.76c.24-.14.44,0,.44.25A1,1,0,0,1,226.07,136.11Z" style="fill: #fcb912"/>
                </g>
              </g>
              <g>
                <g style="isolation: isolate">
                  <polygon points="202.81 158.01 202.81 158.15 210.37 162.56 210.37 162.43 202.81 158.01" style="fill: #d6dfe8"/>
                  <polygon points="210.37 162.43 210.37 162.56 216.1 159.24 216.1 159.1 210.37 162.43" style="fill: #d6dfe8"/>
                  <polygon points="202.81 158.01 210.37 162.43 216.1 159.1 208.54 154.69 202.81 158.01" style="fill: #eaeaea"/>
                </g>
                <g style="isolation: isolate">
                  <polygon points="197.84 157.54 197.84 157.68 205.39 162.09 205.39 161.95 197.84 157.54" style="fill: #d6dfe8"/>
                  <polygon points="205.39 161.95 205.39 162.09 211.12 158.76 211.12 158.63 205.39 161.95" style="fill: #d6dfe8"/>
                  <polygon points="197.84 157.54 205.39 161.95 211.12 158.63 203.57 154.22 197.84 157.54" style="fill: #eaeaea"/>
                </g>
                <g style="isolation: isolate">
                  <polygon points="202.81 157.54 202.81 157.68 210.37 162.09 210.37 161.95 202.81 157.54" style="fill: #d6dfe8"/>
                  <polygon points="210.37 161.95 210.37 162.09 216.1 158.76 216.1 158.62 210.37 161.95" style="fill: #d6dfe8"/>
                  <polygon points="202.81 157.54 210.37 161.95 216.1 158.62 208.54 154.21 202.81 157.54" style="fill: #f3f4f1"/>
                </g>
                <g>
                  <g style="isolation: isolate">
                    <polygon points="198.99 157.22 198.99 157.63 206.54 162.04 206.54 161.63 198.99 157.22" style="fill: #ec9e21"/>
                    <polygon points="206.54 161.63 206.54 162.04 212.27 158.72 212.27 158.31 206.54 161.63" style="fill: #d29229"/>
                    <polygon points="198.99 157.22 206.54 161.63 212.27 158.31 204.72 153.9 198.99 157.22" style="fill: #9a6c29"/>
                  </g>
                  <g style="isolation: isolate">
                    <polygon points="197.84 157.54 197.84 157.68 205.39 162.09 205.39 161.95 197.84 157.54" style="fill: #d6dfe8"/>
                    <polygon points="205.39 161.95 205.39 162.09 211.12 158.76 211.12 158.63 205.39 161.95" style="fill: #d6dfe8"/>
                    <polygon points="197.84 157.54 205.39 161.95 211.12 158.63 203.57 154.22 197.84 157.54" style="fill: #eaeaea"/>
                  </g>
                  <g style="isolation: isolate">
                    <polygon points="198.73 157.44 198.73 157.57 206.29 161.99 206.28 161.85 198.73 157.44" style="fill: #d6dfe8"/>
                    <polygon points="206.28 161.85 206.29 161.99 212.02 158.66 212.02 158.52 206.28 161.85" style="fill: #d6dfe8"/>
                    <polygon points="198.73 157.44 206.28 161.85 212.02 158.52 204.46 154.11 198.73 157.44" style="fill: #e2e2e2"/>
                  </g>
                  <g style="isolation: isolate">
                    <polygon points="197.83 156.5 197.83 156.64 205.38 161.05 205.38 160.91 197.83 156.5" style="fill: #d6dfe8"/>
                    <polygon points="205.38 160.91 205.38 161.05 211.11 157.72 211.11 157.59 205.38 160.91" style="fill: #d6dfe8"/>
                    <polygon points="197.83 156.5 205.38 160.91 211.11 157.59 203.56 153.17 197.83 156.5" style="fill: #f3f4f1"/>
                  </g>
                  <g style="isolation: isolate">
                    <polygon points="198.99 156.44 198.99 156.85 206.54 161.26 206.54 160.85 198.99 156.44" style="fill: #ec9e21"/>
                    <polygon points="206.54 160.85 206.54 161.26 211.96 158.12 211.97 158.52 212.27 158.72 212.27 157.94 212.27 157.53 206.54 160.85" style="fill: #d29229"/>
                    <polygon points="198.99 156.44 206.54 160.85 212.27 157.53 204.72 153.12 198.99 156.44" style="fill: #fcb912"/>
                  </g>
                </g>
              </g>
              <g>
                <g>
                  <path d="M248.63,180s.68,2.27,0,3.07a3,3,0,0,1-2.11.08c-.67-.15-1.39-.55-2.05-.64a5.74,5.74,0,0,1-3.91-2.39c-1.72-2.28,1.4-1.6,3.44-.88A16.61,16.61,0,0,0,248.63,180Z" style="fill: #0f0f10"/>
                  <path d="M248.63,179.46s.68,2.27,0,3.08a3,3,0,0,1-2.11.07c-.67-.14-1.39-.54-2.05-.64a5.69,5.69,0,0,1-3.91-2.38c-1.72-2.28,1.4-1.6,3.44-.88A16.4,16.4,0,0,0,248.63,179.46Z" style="fill: #15171c"/>
                  <path d="M243.43,170.06l0,7.87v1.81a5.56,5.56,0,0,0,.73.6,6.8,6.8,0,0,0,2.51,1.06,3,3,0,0,0,2-.94l0-10.4Z" style="fill: #111216"/>
                </g>
                <g>
                  <g>
                    <g>
                      <polygon points="252.35 178.84 254.5 194.56 253.6 194.04 251.52 178.84 252.35 178.84" style="fill: #0f0f10"/>
                      <polygon points="241.56 174.73 242.55 174.73 240.57 186.92 239.66 186.4 241.56 174.73" style="fill: #0f0f10"/>
                    </g>
                    <polygon points="253.19 178.84 255.28 194.12 254.5 194.56 252.35 178.84 253.19 178.84" style="fill: #29313b"/>
                    <polygon points="242.55 174.73 243.25 174.73 241.34 186.47 240.57 186.92 242.55 174.73" style="fill: #29313b"/>
                    <polygon points="263.77 174.07 265.69 188.12 264.79 187.6 262.94 174.07 263.77 174.07" style="fill: #0f0f10"/>
                    <polygon points="264.6 174.07 266.46 187.67 265.69 188.12 263.77 174.07 264.6 174.07" style="fill: #29313b"/>
                  </g>
                  <g style="isolation: isolate">
                    <path d="M260.39,171.28l2.06,1.19,2.75.1v2h0a.78.78,0,0,1-.39.59l-11.59,6.69-.94.55a.8.8,0,0,1-.79,0L250,181.6V171.28Z" style="fill: #0f0f10"/>
                    <path d="M255.56,166.43a.64.64,0,0,0,.24.22l9,5.23a.79.79,0,0,1,0,1.37l-12.53,7.24a.77.77,0,0,1-.79,0l-10.1-5.86Z" style="fill: #29313b"/>
                    <path d="M241.37,174.6v1.93c.14.1,9.63,5.63,9.63,5.63v-1.94h0Z" style="fill: #0f0f10"/>
                  </g>
                </g>
                <g>
                  <path d="M229.08,184.48a5.71,5.71,0,0,0,3.91,2.39c.66.09,1.38.49,2,.64a2.92,2.92,0,0,0,2.1-.08,1.52,1.52,0,0,0,.33-.94,6.89,6.89,0,0,0-.27-2.13,16.16,16.16,0,0,1-4.68-.76,14,14,0,0,0-1.55-.46C229.28,182.72,227.76,182.74,229.08,184.48Z" style="fill: #0f0f10"/>
                  <path d="M229.08,184a5.68,5.68,0,0,0,3.91,2.39c.66.09,1.38.5,2,.64a3,3,0,0,0,2.1-.07,1.57,1.57,0,0,0,.33-.95,7,7,0,0,0-.27-2.13,16.16,16.16,0,0,1-4.68-.76,14,14,0,0,0-1.55-.46C229.28,182.23,227.76,182.25,229.08,184Z" style="fill: #15171c"/>
                  <path d="M231,182.65a3.1,3.1,0,0,0,.45,1.22,2.77,2.77,0,0,0,.51.62,4.24,4.24,0,0,0,1.34.72,9.19,9.19,0,0,0,4.2.79,7,7,0,0,0-.27-2.13,16.16,16.16,0,0,1-4.68-.76A14,14,0,0,0,231,182.65Z" style="fill: #121416;opacity: 0.4;mix-blend-mode: multiply"/>
                  <g>
                    <path d="M243.56,164.4a5.8,5.8,0,0,1,5.26,0l11.23,5.25a43.4,43.4,0,0,0-6.23,3.77l-10.28-6C242.09,166.59,242.1,165.23,243.56,164.4Z" style="fill: #111216"/>
                    <path d="M239.4,171.15l2.28,1.57,1.65,1.13c2.12,1.43,4.55,3.06,5.82,3.83l0,0a5.46,5.46,0,0,0,5.91-.07c1.12-.87,1.62-2.33.8-4.24l-6.06-2.83-5.17-2.42a13.87,13.87,0,0,0-1.7-.72,18.8,18.8,0,0,0-2.85.37h0a4.75,4.75,0,0,0-.72.32,2.89,2.89,0,0,0-.54.39,1.76,1.76,0,0,0-.5.76C238.17,169.92,238.51,170.63,239.4,171.15Z" style="fill: #16181d"/>
                  </g>
                  <path d="M260.84,171.05l-11.5-6.4a18.82,18.82,0,0,0-7.49,9c.19.13,6.89,4.05,8.16,4.83,2.81,1.36,3.66.22,5.1-.9a3.22,3.22,0,0,0,1-3.8A33.08,33.08,0,0,1,260.84,171.05Z" style="fill: #eaf0f4"/>
                  <path d="M243.16,167.49a16.25,16.25,0,0,0-3-.77,2.88,2.88,0,0,0-1.48.36,1.93,1.93,0,0,0-.7.56,4.69,4.69,0,0,0-.91,1.85l-4.49,13.93-.07.22a4.29,4.29,0,0,0,2.11,1.79,5,5,0,0,0,3.3,0L242,172.69l.62-3.22C243,168.3,243.65,167.84,243.16,167.49Z" style="fill: #16181d"/>
                  <path d="M249.2,177.7c2.16,1.4,6.23,1.11,8.75-.29l.36-.21.13-.09c1-.67,1.58-1.54,1.79-3.53a11.47,11.47,0,0,0-.21-3H249.56l-.31,6.14Z" style="fill: #eaf0f4"/>
                  <g>
                    <g>
                      <path d="M243,150c.14-.37.82-.47,1-.5l1.44-.18,1.48.48,1,1.51-.88.42a1.44,1.44,0,0,1-.59-.12L245,152.73a.39.39,0,1,1-.46-.63l.6-.45c-.83,0-1.87.1-2.06.09C242.51,151.7,242.89,150.27,243,150Z" style="fill: #fbc79f"/>
                      <path d="M245.66,152.94h0c.37,0,8.1.56,10.72-.68a1.68,1.68,0,0,0,.81-.73s-.47-.49-.83-.92-.83-1-.9-1v-1.51l-1.82.21-.95.11-.3,0-6.07.7a14.53,14.53,0,0,0-.62,3.27C245.68,152.71,245.66,152.92,245.66,152.94Z" style="fill: #eaf0f4"/>
                      <path d="M250.53,152.52h0c.37,0,8.1.56,10.73-.68a1.74,1.74,0,0,0,.81-.74s.14-2.12-.74-2.88a3.1,3.1,0,0,0-2.81-.38l-1,.11-.3,0-6.07.7a15.74,15.74,0,0,0-.62,3.27C250.55,152.28,250.53,152.5,250.53,152.52Z" style="fill: #16181d"/>
                      <path d="M252.37,146.41v.26l0,2.3a3.61,3.61,0,0,0,.55.63h0l.18,0c1.68-.18,3.76-.54,3.76-1.77l0,0-.08-1.76-.21,0-3,.27Z" style="fill: #fbc79f"/>
                      <path d="M250.82,144.88a3.57,3.57,0,0,0,1.55,1.79l0,2.3a3.61,3.61,0,0,0,.55.63h0l.18,0c0-.13,0-.26,0-.39,0-.53-.12-1.06-.1-1.59a2.48,2.48,0,0,1,.12-.66,1.45,1.45,0,0,1,.44-.64l.11-.08a1.77,1.77,0,0,1-1.92-.53,4.14,4.14,0,0,1-.87-1.9,12.16,12.16,0,0,1,0-5.5l-.15-.74-.4.48a15.82,15.82,0,0,1,0,3.44A7.86,7.86,0,0,0,250.82,144.88Z" style="fill: #f4c1a5"/>
                      <path d="M257.45,147.5c.26.25.15,2.57.12,2.93-.08.95-.24-.4-1.13,0a4.92,4.92,0,0,1-2.82.15,1.74,1.74,0,0,1-1.13-.55c-.37-.39-.37-2-.05-2a13.66,13.66,0,0,1,1.43,0,5.32,5.32,0,0,0,2.3-.39C256.69,147.45,256.89,147,257.45,147.5Z" style="fill: #d6e1e7"/>
                      <path d="M247.61,164.36c0,2.23-.31,8.4-.42,10.35a1,1,0,0,0,.49.95,7.35,7.35,0,0,0,2.72,1,13.63,13.63,0,0,0,1.41.17,23.93,23.93,0,0,0,5.92-.24,8.48,8.48,0,0,0,3.84-1.63,1.05,1.05,0,0,0,.4-.82h0c0-2.11-1.06-7.93-1.07-10.2,0-3.89,1.4-10.42,1.3-12.59-.08-1.82-.74-4-4.69-3.53L252.3,149c-1.09.61-5.62,1.42-6.05,4,0,0,.15,1,.35,2.36.3,2.06.71,5.06.9,7.2C247.56,163.31,247.6,163.91,247.61,164.36Z" style="fill: #eaf0f4"/>
                      <path d="M250.82,144.88a3.57,3.57,0,0,0,1.55,1.79,2.64,2.64,0,0,0,.82.27l.16,0a1.41,1.41,0,0,0,.81-.13c.48-.24,2.23.07,2.41-.45a1.8,1.8,0,0,0,.08-.35c.2-1.33-.72-3.32-.93-4.57a5.31,5.31,0,0,0-1.81-3A7.28,7.28,0,0,0,251.3,137l-.48.59-.4.48a15.82,15.82,0,0,1,0,3.44A7.86,7.86,0,0,0,250.82,144.88Z" style="fill: #fbc79f"/>
                      <path d="M249.78,137.75c.09.7.68.65,1.05,1.25s.45,1.3.87,2c.16.26.24.87,1,.45,1-.61.39,4,2.31,5a3.39,3.39,0,0,0,1.61-.05,1.07,1.07,0,0,0,.53-.37l0,0a21.09,21.09,0,0,0,3-3.43,6.69,6.69,0,0,0,.45-2.82,4.51,4.51,0,0,0-1-2.35,5.12,5.12,0,0,0-1.85-1.7,7.78,7.78,0,0,0-4.49-.63l-.58.1c-.34.07-.67.16-1,.26l-.43.23c-1.41.78-1.39,1.59-1.4,1.65A3.4,3.4,0,0,0,249.78,137.75Z" style="fill: #2b130d"/>
                      <path d="M252.65,141.44a.9.9,0,1,0,1.39-.39A1,1,0,0,0,252.65,141.44Z" style="fill: #fbc79f"/>
                    </g>
                    <path d="M247.19,174.71a1,1,0,0,0,.49.95,7.35,7.35,0,0,0,2.72,1,12.1,12.1,0,0,0-1-2.57,5.71,5.71,0,0,1,.77-4.75,16.86,16.86,0,0,1,3.39-3.62,5.74,5.74,0,0,1-4,.2c0-1.88-1.25-4.5-.44-6.19-.46.15,3.71-3.38,2.62-6.83-.36-1.12-3.57,1.21-5.12,2.51.3,2.06.71,5.06.9,7.2.06.68.1,1.28.11,1.73C247.64,166.59,247.3,172.76,247.19,174.71Z" style="fill: #eaf0f4;opacity: 0.6000000000000001;mix-blend-mode: multiply"/>
                    <path d="M259.79,140.14a6.15,6.15,0,0,1-2.1,5,1.62,1.62,0,0,0-.55.67.53.53,0,0,0,0,.13,21.09,21.09,0,0,0,3-3.43,6.69,6.69,0,0,0,.45-2.82,4.51,4.51,0,0,0-1-2.35,5.12,5.12,0,0,0-1.85-1.7,7.78,7.78,0,0,0-4.49-.63,10.61,10.61,0,0,1,3.52.65A5.4,5.4,0,0,1,259.79,140.14Z" style="fill: #2b130d;opacity: 0.30000000000000004;mix-blend-mode: screen"/>
                    <path d="M240.93,162.18a2,2,0,0,0,.64.77,2.89,2.89,0,0,0,2.16.72h.06l7.37-7.49h0c.77-1,1.2-3.52-.47-4.87a3.65,3.65,0,0,0-1.11-.59,2.43,2.43,0,0,0-2.63,1.08l-5,6.44-.28.36-.28.36,0,.06-.35.45,0,0c0,.11-.07.23-.11.35A3.57,3.57,0,0,0,240.93,162.18Z" style="fill: #fff"/>
                    <g>
                      <path d="M235.27,157.24a.43.43,0,0,0,.61.1h0a.43.43,0,0,0,.1-.6l-1.39-1.94a.43.43,0,0,0-.61-.1h0a.43.43,0,0,0-.1.6Z" style="fill: #fbc79f"/>
                      <path d="M236.16,157.31l-1.27-1.58-1.31-.94c-.13-.08-.75-.51-1.14-.32s-1.65,1-1.26,1.41,2.65,2.24,2.65,2.24c.15.15.41.74.56.79l1,.32Z" style="fill: #fbc79f"/>
                    </g>
                    <path d="M233.27,158.68h0c.3.23,6.55,4.81,9.43,5.17a1.73,1.73,0,0,0,1.08-.19s-.14-.67-.22-1.21-.17-1.29-.2-1.37l.81-1.28-1.65-.79-.87-.42-.27-.13-5.5-2.66a15.36,15.36,0,0,0-2.27,2.44C233.41,158.49,233.28,158.66,233.27,158.68Z" style="fill: #fff"/>
                    <path d="M241.38,159a7.86,7.86,0,0,0,.11,1.19,5.05,5.05,0,0,0,.37-1.33c.28.29.56.58.87.85.11.1.27.21.41.14-.2-.26-.4-.53-.61-.79l-.59-.78-.28.36-.27-.13C241.38,158.62,241.38,158.78,241.38,159Z" style="fill: #eaf0f4;opacity: 0.6000000000000001;mix-blend-mode: multiply"/>
                    <path d="M233.27,158.68h0c.3.23,6.55,4.81,9.43,5.17a1.73,1.73,0,0,0,1.08-.19l7.37-7.49h0c.77-1,1.2-3.52-.47-4.87a3.52,3.52,0,0,1,.51,1.51,3.68,3.68,0,0,1-.3,1.3,11.9,11.9,0,0,1-1.76,3.46,11.32,11.32,0,0,1-1.3,1.29l-3.21,2.86a3.74,3.74,0,0,1-1,.7l-.08,0a3.22,3.22,0,0,1-1.87,0c-.26-.07-.52-.15-.77-.24-2.59-.93-4.77-2.93-7.31-3.94C233.41,158.49,233.28,158.66,233.27,158.68Z" style="fill: #eaf0f4;opacity: 0.6000000000000001;mix-blend-mode: multiply"/>
                  </g>
                </g>
                <path d="M265.9,154.19a.79.79,0,0,0-1.17-.58l-9.37,5.18a.79.79,0,0,0-.39.74l-.51,3.33H266Z" style="fill: #151515"/>
                <polygon points="266.51 154.52 265.61 153.68 264.29 154.44 265.56 155.2 266.51 154.52" style="fill: #151515"/>
                <polygon points="255 159.27 250.78 180.51 252.06 181.51 265.23 167.42 266.03 162.86 255 159.27" style="fill: #0f0f10"/>
                <path d="M252.28,180.71s2.65-14.65,3.59-20.08a1.59,1.59,0,0,1,.49-.94l9.37-5.17a.79.79,0,0,1,1.17.57l-1.7,18.06S252.3,181,252.28,180.71Z" style="fill: #1a1c1e"/>
              </g>
            </g>
          </g>
        </g>
        <g>
          <g>
            <g style="mix-blend-mode: multiply">
              <path d="M122,197.47,74.46,169.59a6,6,0,0,0-5.46,0L12,202.94c-1.5.87-1.5,2.28,0,3.16L59.61,234a6,6,0,0,0,5.45,0l57-33.35C123.56,199.75,123.55,198.34,122,197.47Z" style="fill: url(#linear-gradient-9)"/>
            </g>
            <g style="isolation: isolate">
              <path d="M122,172.28,74.46,144.41a6,6,0,0,0-5.46,0L12,177.75c-1.5.88-1.5,2.29,0,3.16l47.59,27.88a6,6,0,0,0,5.45,0l57-33.35C123.56,174.57,123.55,173.16,122,172.28Z" style="fill: #b8e3f0"/>
              <path d="M122.06,175.44l-57,33.35a6,6,0,0,1-5.45,0L12,180.91a1.9,1.9,0,0,1-1.13-1.59v3.6A1.91,1.91,0,0,0,12,184.51L59.6,212.38a6,6,0,0,0,5.45,0l57-33.35a1.92,1.92,0,0,0,1.12-1.56v-3.6A1.9,1.9,0,0,1,122.06,175.44Z" style="fill: #95d4ec"/>
            </g>
          </g>
          <g>
            <g style="isolation: isolate">
              <g>
                <path id="SVGID-12" data-name="SVGID" d="M73.38,75.71l4.39,2.55a2.12,2.12,0,0,0-2.14.21l-4.39-2.55A2.1,2.1,0,0,1,73.38,75.71Z" style="fill: #fafbfb"/>
                <g style="clip-path: url(#clip-path-8)">
                  <g style="isolation: isolate">
                    <path d="M75.63,78.47l-4.39-2.55a2.86,2.86,0,0,1,.91-.37l4.39,2.55a3.23,3.23,0,0,0-.91.37Z" style="fill: #fafbfb"/>
                    <path d="M76.54,78.1l-4.39-2.55a1.78,1.78,0,0,1,1.18.13l4.39,2.55a1.78,1.78,0,0,0-1.18-.13Z" style="fill: #fafbfb"/>
                    <path d="M77.72,78.23l-4.39-2.55,0,0,4.39,2.55,0,0Z" style="fill: #fafbfb"/>
                  </g>
                </g>
              </g>
              <polygon points="43.6 96.96 39.21 94.41 71.24 75.92 75.63 78.47 43.6 96.96" style="fill: #fff"/>
              <g>
                <path id="SVGID-13" data-name="SVGID" d="M40.59,102.18l-4.4-2.56a6.65,6.65,0,0,1,3-5.21L43.6,97A6.66,6.66,0,0,0,40.59,102.18Z" style="fill: url(#linear-gradient)"/>
                <g style="clip-path: url(#clip-path-9)">
                  <path d="M39.21,94.41a5.3,5.3,0,0,0-1.46,1.28,7,7,0,0,0-1,1.65,5.7,5.7,0,0,0-.54,2.28l4.4,2.56a5.49,5.49,0,0,1,.53-2.28,7.06,7.06,0,0,1,1-1.66A5.47,5.47,0,0,1,43.6,97Z" style="fill: #cbd2db"/>
                </g>
              </g>
              <g>
                <path d="M78.87,157.13a6.66,6.66,0,0,1-3,5.21l-32,18.49c-1.66,1-3,.19-3-1.72l0-2.45,38.07-22Z" style="fill: #f0f4fa"/>
                <polygon points="40.6 105.37 40.78 176.66 78.85 154.68 78.78 125.98 78.7 94.73 78.67 83.39 40.6 105.37" style="fill: url(#linear-gradient-11)"/>
                <path d="M40.59,102.18a6.66,6.66,0,0,1,3-5.22l32-18.49c1.66-1,3-.18,3,1.73v3.19l-38.07,22Z" style="fill: #f0f4fa"/>
              </g>
            </g>
            <g>
              <path d="M48.78,90.66a1,1,0,0,0,.53.7,2.9,2.9,0,0,0,2.6,0A1.18,1.18,0,0,0,52.3,91c.28-.4.15-.85-.39-1.17a2.9,2.9,0,0,0-2.6,0A.85.85,0,0,0,48.78,90.66Z" style="fill: url(#linear-gradient-12)"/>
              <path d="M48.78,90.66a1,1,0,0,0,.53.7,2.9,2.9,0,0,0,2.6,0A1.18,1.18,0,0,0,52.3,91a.93.93,0,0,0-.53-.71,2.9,2.9,0,0,0-2.6,0A1.33,1.33,0,0,0,48.78,90.66Z" style="fill: #141d30"/>
            </g>
            <g>
              <path d="M42.19,94.71a1,1,0,0,0,.4.4,2.57,2.57,0,0,0,2.38,0l2.53-1.49a1.1,1.1,0,0,0,.38-.36c.21-.36.09-.76-.39-1a2.57,2.57,0,0,0-2.38,0L42.6,93.74C42.14,94,42,94.38,42.19,94.71Z" style="fill: url(#linear-gradient-13)"/>
              <path d="M42.19,94.71a1,1,0,0,0,.4.4,2.57,2.57,0,0,0,2.38,0l2.53-1.49a1.1,1.1,0,0,0,.38-.36,1,1,0,0,0-.41-.42,2.57,2.57,0,0,0-2.38,0l-2.51,1.51A1,1,0,0,0,42.19,94.71Z" style="fill: #141d30"/>
            </g>
            <path d="M64,89.88,52.33,96.62c-.5.29-.91.06-.91-.53h0a2,2,0,0,1,.91-1.58L64,87.77c.51-.29.92-.06.92.53h0A2,2,0,0,1,64,89.88Z" style="fill: url(#linear-gradient-14)"/>
            <g>
              <path d="M40.8,179.11a2.12,2.12,0,0,0,.88,1.93l-4.39-2.55a2.13,2.13,0,0,1-.88-1.94l0-2.21,4.39,2.54Z" style="fill: #cbd2db"/>
              <polygon points="36.2 99.62 40.59 102.18 40.6 105.37 36.2 102.83 36.2 99.62" style="fill: #cbd2db"/>
              <polygon points="40.6 105.37 40.78 176.88 36.39 174.34 36.2 102.83 40.6 105.37" style="fill: #cbd2db"/>
              <polygon points="38.34 104.07 40.6 105.37 40.78 176.88 38.34 175.47 38.34 104.07" style="fill: url(#linear-gradient-15)"/>
            </g>
          </g>
          <g>
            <g>
              <g style="opacity: 0.9;mix-blend-mode: screen">
                <g style="opacity: 0.4">
                  <polygon points="74.23 91.16 74.23 144.47 1.39 187.31 1.39 133.99 74.23 91.16" style="fill: #89d6f2"/>
                </g>
              </g>
              <path d="M75,89.75v55.19L.59,188.71V133.53L75,89.75Zm.6-1-.89.53L.3,133l-.3.17v56.57l.89-.52,74.44-43.77.3-.18V88.71Z" style="fill: #89d6f2"/>
            </g>
            <polygon points="24.65 126.72 24.65 145.09 6.19 155.82 6.19 137.46 24.65 126.72" style="fill: #89d6f2;opacity: 0.8"/>
            <polygon points="24.65 150.02 24.65 168.38 6.19 179.12 6.19 160.76 24.65 150.02" style="fill: url(#linear-gradient-16)"/>
            <polygon points="46.27 114.16 46.27 132.53 27.81 143.26 27.81 124.9 46.27 114.16" style="fill: #89d6f2;opacity: 0.8"/>
            <polygon points="68.28 101.81 68.28 106.26 50.79 116.43 50.79 111.99 68.28 101.81" style="fill: #89d6f2;opacity: 0.8"/>
            <polygon points="68.28 109.18 68.28 113.62 50.79 123.8 50.79 119.36 68.28 109.18" style="fill: url(#linear-gradient-17)"/>
            <polygon points="68.28 116.55 68.28 120.99 50.79 131.16 50.79 126.72 68.28 116.55" style="fill: #89d6f2;opacity: 0.8"/>
            <polygon points="46.27 137.46 46.27 155.82 27.81 166.56 27.81 148.19 46.27 137.46" style="fill: #89d6f2;opacity: 0.8"/>
            <g style="opacity: 0.6000000000000001">
              <g>
                <path d="M34,149.48c.46-.27.82,0,.82.47l0,7a1.79,1.79,0,0,1-.81,1.41c-.46.27-.83,0-.83-.47v-6l-.59.51a1.85,1.85,0,0,1-.29.22c-.39.23-.73,0-.73-.4a1.69,1.69,0,0,1,.55-1.14l1.07-1a5.3,5.3,0,0,1,.78-.61Z" style="fill: #00709e"/>
                <path d="M41,145.57a.45.45,0,0,1,.74.42,1.63,1.63,0,0,1-.74,1.26l-2.55,1.47-.08,1.55a5.76,5.76,0,0,1,1-.72c1.49-.86,2.65-.71,2.66,1.26a5.59,5.59,0,0,1-2.82,4.66,3.15,3.15,0,0,1-2.37.55c-.2-.05-.34-.22-.34-.54a1.75,1.75,0,0,1,.79-1.38.49.49,0,0,1,.45-.08,1.89,1.89,0,0,0,1.44-.27,2.3,2.3,0,0,0,1.21-1.91v0c0-.74-.55-.87-1.34-.41a10.4,10.4,0,0,0-1.14.89.9.9,0,0,1-.76.05c-.23-.06-.32-.26-.31-.6l.15-3a1.62,1.62,0,0,1,.73-1.24Z" style="fill: #00709e"/>
              </g>
            </g>
            <g style="opacity: 0.6000000000000001">
              <g>
                <path d="M12.41,139.1c.46-.26.83-.06.83.46l0,7a1.8,1.8,0,0,1-.82,1.41c-.46.26-.83.06-.83-.46l0-6L11,142a2.77,2.77,0,0,1-.29.22c-.39.22-.72,0-.72-.4a1.58,1.58,0,0,1,.54-1.14l1.07-1a5.14,5.14,0,0,1,.78-.61Z" style="fill: #00709e"/>
                <path d="M17.68,136.06c1.56-.91,2.61-.45,2.61,1.18,0,1.47-.64,2.57-2,4.54l-1.23,1.8,2.64-1.52c.4-.23.73-.05.73.41a1.6,1.6,0,0,1-.72,1.24l-4.11,2.37c-.52.3-.9.19-.91-.38a2.17,2.17,0,0,1,.44-1.21l2.14-3.27c.94-1.43,1.31-2.12,1.3-2.84s-.42-.89-1-.55a3.47,3.47,0,0,0-1.23,1.47,1.62,1.62,0,0,1-.57.6c-.42.24-.76,0-.76-.43a1.66,1.66,0,0,1,.2-.71A6.12,6.12,0,0,1,17.68,136.06Z" style="fill: #00709e"/>
              </g>
            </g>
            <g style="opacity: 0.6000000000000001">
              <g>
                <path d="M34.07,126.44c.45-.26.83,0,.83.47l0,7a1.82,1.82,0,0,1-.82,1.42c-.46.26-.82,0-.82-.47l0-6-.59.51a3.25,3.25,0,0,1-.29.23c-.39.22-.72,0-.73-.41A1.67,1.67,0,0,1,32.2,128l1.07-1a5.89,5.89,0,0,1,.78-.61Z" style="fill: #00709e"/>
                <path d="M41.08,122.52c.49-.28.84-.17.85.35a2.62,2.62,0,0,1-.5,1.36L40,126.72c1-.4,2-.35,2,1.26a5.3,5.3,0,0,1-2.71,4.44,2.85,2.85,0,0,1-2.51.46.54.54,0,0,1-.28-.53,1.78,1.78,0,0,1,.79-1.38.59.59,0,0,1,.53-.07,1.58,1.58,0,0,0,1.48-.21A2,2,0,0,0,40.36,129c0-.74-.55-.81-1.48-.28l-.26.15a.44.44,0,0,1-.72-.41,1.9,1.9,0,0,1,.36-1L39.72,125l-2.32,1.34a.44.44,0,0,1-.72-.41,1.59,1.59,0,0,1,.71-1.23Z" style="fill: #00709e"/>
              </g>
            </g>
            <g>
              <path d="M12.07,162.33c.45-.26.82-.05.82.47l0,7a1.78,1.78,0,0,1-.82,1.42c-.45.26-.82.05-.82-.47l0-6-.58.51-.29.21c-.39.23-.73.05-.73-.4a1.65,1.65,0,0,1,.55-1.13l1.07-1a4.21,4.21,0,0,1,.78-.61Z" style="fill: #fff"/>
              <path d="M20.19,163.05c.38-.23.69-.05.69.38a1.45,1.45,0,0,1-.68,1.16l-.4.23v1.05a1.73,1.73,0,0,1-.8,1.37c-.44.25-.79.06-.79-.45v-1l-3.12,1.8c-.44.25-.81.1-.81-.41a2.75,2.75,0,0,1,.39-1.27l3.27-6.29a2.6,2.6,0,0,1,1-1.24c.44-.26.8-.07.8.45l0,4.49Zm-2,1.14v-2.71l-2,3.87,2-1.16" style="fill: #fff"/>
            </g>
            <g>
              <path d="M70.07,127.91v12.28a1.11,1.11,0,0,1-.56,1l-16.42,9.65a1.13,1.13,0,0,1-1.69-1V137.56a1.12,1.12,0,0,1,.55-1l16.42-9.65A1.13,1.13,0,0,1,70.07,127.91Z" style="fill: url(#linear-gradient-18)"/>
              <path d="M61.53,133.16a.34.34,0,0,1,.35,0L66,135.47c.2.11.2.49,0,.83l-4.09,7.09a1,1,0,0,1-.35.37.37.37,0,0,1-.36,0l-.48-.27c-.19-.11-.19-.5,0-.84l2.54-4.25-6.07,3.5c-.28.16-.51,0-.51-.29v-.77a1.15,1.15,0,0,1,.51-.89l6.06-3.5-2.55-1.31c-.21-.11-.21-.48,0-.83l.47-.81A1.1,1.1,0,0,1,61.53,133.16Z" style="fill: #fff"/>
            </g>
          </g>
          <g>
            <path d="M74.18,179.59l.26.51c2-1.58,8-.42,8.19,2.56.22,4.86-8.49,4.51-11.47,4.36-2.49-.13-6-.78-3.84-4.11C68.48,181.1,72.36,180.66,74.18,179.59Z" style="fill: #015866;opacity: 0.1"/>
            <path d="M60.19,141l.19.31a7.76,7.76,0,0,0,1.56.71c.44-.05.12-.76.2-1.1a.42.42,0,0,1,.41-.33s.12.47.22.72.43.84.43.84l.14,1.22.76.71-1,1.15-.88-.59s-1.52-.73-1.67-1.1S59.33,141.14,60.19,141Z" style="fill: #f7c3b7"/>
            <g>
              <path d="M81.19,132.89s.62,4.19,1.75,11.33c.27,1.71-3.14,2.8-3.14,2.8l.07-4.6Z" style="fill: #ffde73"/>
              <path d="M80.68,136.63a43.44,43.44,0,0,0,1.77,8.87A7.48,7.48,0,0,1,79.8,147l.07-4.6Z" style="opacity: 0.05"/>
              <path d="M68.82,183.24c.23,0,2.28.41,2.28.41l2.71.57.22,1.42c-.27,1-1.57.8-1.89.78s-3.63-1.13-3.63-1.13a3.08,3.08,0,0,1-1.1-.76C66.72,183.32,68.62,183.23,68.82,183.24Z" style="fill: #183f42"/>
              <path d="M78.27,180.74l1.21.39,2.5,1.19.07,1.32c-.25,1.2-1.9.52-2.21.42s-2.35-1.4-2.35-1.4a1.87,1.87,0,0,1-1.29-1.24C75.81,180.08,78.08,180.68,78.27,180.74Z" style="fill: #183f42"/>
              <path d="M80.34,149.77a12.9,12.9,0,0,1,.52,6.52l-.1,12.7L82,182.32c-2.41,1.61-3.17-1.15-3.17-1.15l-2.61-12.1-3.72-17.39L80,148.9Z" style="fill: #007887"/>
              <path d="M79.45,156.82c.31.06-.48.77-.2.7-2.94,4.1-2.31,8.41-1.82,13.43a77.59,77.59,0,0,0,1.43,10.37l0-.15-2.61-12.1L73.38,155.9c1.77.36,3.56.6,5.34.93A1.78,1.78,0,0,0,79.45,156.82Z" style="opacity: 0.15"/>
              <path d="M74.59,152.69l5.82,4L77,159.07s-2.35,9.74-2.16,10.5-.67,15.17-.92,15.32a2,2,0,0,1-2.7-1.2l-.81-15.09c0-4,1.24-17.75,1.24-17.75Z" style="fill: #007887"/>
              <path d="M73.54,152c.13.4-1.25,1.22-1.41,17A116.29,116.29,0,0,0,72.67,185v0a1.72,1.72,0,0,1-1.45-1.34l-.81-15.09c0-4,1.24-17.75,1.24-17.75Z" style="opacity: 0.15"/>
              <path d="M74.4,133.12a32.83,32.83,0,0,1,5.42-1.07c2.28.71,1.87,4,2,4.57S80,147.52,80,147.52l.8,3.95s.73-.08-3.28.8-6.13-.33-6.13-.33l.36-4.79.33-5.35a7,7,0,0,1-1.68-2.66c-.15-.61.24-1.33,1.3-2.75C72.19,135.78,72.58,133.65,74.4,133.12Z" style="fill: #ffde73"/>
              <path d="M64.26,143.59c1.95.73,2.45.75,3.74,1.17,1.14-2.62,4.45-10,5.09-10.56,3.36-2.76,3.44,1.7,2.37,3.91-.65,1.32-2.88,5.29-4.23,7.7,0,0-1.68,2.18-1.82,2.4-.89.95-6.65-2.85-6.65-2.85A3.22,3.22,0,0,1,64.26,143.59Z" style="fill: #ffde73"/>
              <path d="M79.13,132.13c0,1.2-3.45,1.65-3.43.45l-.84-4.43,4,0Z" style="fill: #f6b6a8"/>
              <path d="M80.09,125.17l-.4,3.37c0,1.82-3.29,2.79-3.29,2.79-1.76,0-3-.85-3-2.7l.06-4.66Z" style="fill: #f6b6a8"/>
              <path d="M75,121.69c1-.43,4.65-.52,5.22,2,2.1,9.4.65,10.92.65,10.92s-3.08.88-3.88.23c-1.1-.89-2.7-6.5-2.69-7.92s-.87-1.65-.87-1.65C71.26,123.74,73.56,122.31,75,121.69Z" style="fill: #8d654e"/>
              <path d="M75.18,127.19c.09.8-.45,1.67-1.09,1.37l0-1.54S75.06,126.11,75.18,127.19Z" style="fill: #f6b6a8"/>
            </g>
          </g>
        </g>
      </g>
    </g>
  </g>
</svg>
