<svg xmlns="http://www.w3.org/2000/svg" xmlns:xlink="http://www.w3.org/1999/xlink" viewBox="0 0 324 266">
  <defs>
    <linearGradient id="linear-gradient" x1="-18097.29" y1="98.43" x2="-18091.46" y2="98.43" gradientTransform="matrix(-1, 0, 0, 1, -18066.2, 0)" gradientUnits="userSpaceOnUse">
      <stop offset="0.01" stop-color="#e3e7f0"/>
      <stop offset="1" stop-color="#b3c1d9"/>
    </linearGradient>
    <linearGradient id="linear-gradient-2" x1="-20736.07" y1="76.34" x2="-20730.24" y2="76.34" gradientTransform="translate(21011.25)" xlink:href="#linear-gradient"/>
    <linearGradient id="linear-gradient-3" x1="70.85" y1="238.98" x2="154.93" y2="404" gradientTransform="matrix(1, 0.05, -0.05, 1.08, 65.38, -197.17)" gradientUnits="userSpaceOnUse">
      <stop offset="0" stop-color="#a4d8c8"/>
      <stop offset="0.98" stop-color="#12a0c6"/>
    </linearGradient>
    <linearGradient id="linear-gradient-4" x1="57.45" y1="161.31" x2="63.12" y2="226.59" gradientUnits="userSpaceOnUse">
      <stop offset="0" stop-color="#fff"/>
      <stop offset="1" stop-color="#a9c3d7"/>
    </linearGradient>
    <linearGradient id="linear-gradient-5" x1="3138.13" y1="161.31" x2="3143.81" y2="226.59" gradientTransform="matrix(-1, 0, 0, 1, 3393.02, 0)" xlink:href="#linear-gradient-4"/>
    <clipPath id="clip-path">
      <path id="SVGID" d="M54.54,80.66l3.46,2a1.65,1.65,0,0,0-1.69.16l-3.46-2A1.65,1.65,0,0,1,54.54,80.66Z" style="fill: #fafbfb"/>
    </clipPath>
    <clipPath id="clip-path-2">
      <path id="SVGID-2" data-name="SVGID" d="M28.72,101.49l-3.46-2a5.26,5.26,0,0,1,2.37-4.1l3.46,2A5.24,5.24,0,0,0,28.72,101.49Z" style="fill: url(#linear-gradient)"/>
    </clipPath>
    <linearGradient id="linear-gradient-7" x1="-18105.6" y1="174.12" x2="-18112.36" y2="95.93" gradientTransform="matrix(-1, 0, 0, 1, -18066.2, 0)" gradientUnits="userSpaceOnUse">
      <stop offset="0" stop-color="#52c7ea"/>
      <stop offset="0.29" stop-color="#3dc5ee"/>
      <stop offset="1" stop-color="#26aee4"/>
    </linearGradient>
    <linearGradient id="linear-gradient-8" x1="-18120.87" y1="82.55" x2="-18117.99" y2="82.55" gradientTransform="matrix(-1, 0, 0, 1, -18066.2, 0)" gradientUnits="userSpaceOnUse">
      <stop offset="0" stop-color="#a9b9d5"/>
      <stop offset="1" stop-color="#95a9c8"/>
    </linearGradient>
    <linearGradient id="linear-gradient-9" x1="-18117.36" y1="84.96" x2="-18112.73" y2="84.96" xlink:href="#linear-gradient-8"/>
    <linearGradient id="linear-gradient-10" x1="-18114.08" y1="93.63" x2="-18103.45" y2="93.63" xlink:href="#linear-gradient-8"/>
    <linearGradient id="linear-gradient-11" x1="-18092.77" y1="132.42" x2="-18121.77" y2="115.46" gradientTransform="matrix(-1, 0, 0, 1, -18066.2, 0)" gradientUnits="userSpaceOnUse">
      <stop offset="0" stop-color="#0997af"/>
      <stop offset="0.29" stop-color="#0d8eab"/>
      <stop offset="1" stop-color="#0076a0"/>
    </linearGradient>
    <linearGradient id="linear-gradient-12" x1="2888.86" y1="142.66" x2="2912.82" y2="142.66" gradientTransform="matrix(-1, 0, 0, 1, 2945.05, 0)" xlink:href="#linear-gradient-11"/>
    <linearGradient id="linear-gradient-13" x1="2896.94" y1="104.01" x2="2910.73" y2="104.01" gradientTransform="matrix(-1, 0, 0, 1, 2945.05, 0)" xlink:href="#linear-gradient-8"/>
    <linearGradient id="linear-gradient-14" x1="2890.63" y1="107.86" x2="2910.73" y2="107.86" gradientTransform="matrix(-1, 0, 0, 1, 2945.05, 0)" xlink:href="#linear-gradient-8"/>
    <linearGradient id="linear-gradient-15" x1="2890.4" y1="111.27" x2="2910.5" y2="111.27" gradientTransform="matrix(-1, 0, 0, 1, 2945.05, 0)" xlink:href="#linear-gradient-8"/>
    <linearGradient id="linear-gradient-16" x1="2890.4" y1="114.66" x2="2910.5" y2="114.66" gradientTransform="matrix(-1, 0, 0, 1, 2945.05, 0)" xlink:href="#linear-gradient-8"/>
    <linearGradient id="linear-gradient-17" x1="2890.4" y1="117.61" x2="2910.5" y2="117.61" gradientTransform="matrix(-1, 0, 0, 1, 2945.05, 0)" xlink:href="#linear-gradient-8"/>
    <clipPath id="clip-path-3">
      <path id="SVGID-3" data-name="SVGID" d="M251.73,58.56l-3.45,2a1.68,1.68,0,0,1,1.69.16l3.45-2A1.68,1.68,0,0,0,251.73,58.56Z" style="fill: #fafbfb"/>
    </clipPath>
    <clipPath id="clip-path-4">
      <path id="SVGID-4" data-name="SVGID" d="M277.55,79.39l3.46-2a5.24,5.24,0,0,0-2.37-4.1l-3.46,2A5.24,5.24,0,0,1,277.55,79.39Z" style="fill: url(#linear-gradient-2)"/>
    </clipPath>
    <linearGradient id="linear-gradient-19" x1="-20744.38" y1="152.02" x2="-20751.14" y2="73.83" gradientTransform="translate(21011.25)" xlink:href="#linear-gradient-7"/>
    <linearGradient id="linear-gradient-20" x1="-20743.03" y1="70.29" x2="-20740.15" y2="70.29" gradientTransform="translate(21011.25)" xlink:href="#linear-gradient-8"/>
    <linearGradient id="linear-gradient-21" x1="-20739.52" y1="72.69" x2="-20734.89" y2="72.69" gradientTransform="translate(21011.25)" xlink:href="#linear-gradient-8"/>
    <linearGradient id="linear-gradient-22" x1="-20752.86" y1="71.54" x2="-20742.23" y2="71.54" gradientTransform="translate(21011.25)" xlink:href="#linear-gradient-8"/>
    <linearGradient id="linear-gradient-23" x1="-20731.55" y1="110.32" x2="-20760.54" y2="93.36" gradientTransform="translate(21011.25)" xlink:href="#linear-gradient-11"/>
    <linearGradient id="linear-gradient-24" x1="250.08" y1="120.57" x2="274.05" y2="120.57" gradientTransform="matrix(1, 0, 0, 1, 0, 0)" xlink:href="#linear-gradient-11"/>
    <linearGradient id="linear-gradient-25" x1="251.85" y1="78.92" x2="265.65" y2="78.92" gradientTransform="matrix(1, 0, 0, 1, 0, 0)" xlink:href="#linear-gradient-8"/>
    <linearGradient id="linear-gradient-26" x1="251.85" y1="85.76" x2="271.96" y2="85.76" gradientTransform="matrix(1, 0, 0, 1, 0, 0)" xlink:href="#linear-gradient-8"/>
    <linearGradient id="linear-gradient-27" x1="251.63" y1="89.17" x2="271.73" y2="89.17" gradientTransform="matrix(1, 0, 0, 1, 0, 0)" xlink:href="#linear-gradient-8"/>
    <linearGradient id="linear-gradient-28" x1="251.63" y1="92.56" x2="271.73" y2="92.56" gradientTransform="matrix(1, 0, 0, 1, 0, 0)" xlink:href="#linear-gradient-8"/>
    <linearGradient id="linear-gradient-29" x1="251.63" y1="95.51" x2="271.73" y2="95.51" gradientTransform="matrix(1, 0, 0, 1, 0, 0)" xlink:href="#linear-gradient-8"/>
    <linearGradient id="linear-gradient-30" x1="251.63" y1="101.32" x2="271.73" y2="101.32" gradientTransform="matrix(1, 0, 0, 1, 0, 0)" xlink:href="#linear-gradient-8"/>
    <linearGradient id="linear-gradient-31" x1="251.63" y1="105.31" x2="271.73" y2="105.31" gradientTransform="matrix(1, 0, 0, 1, 0, 0)" xlink:href="#linear-gradient-8"/>
    <linearGradient id="linear-gradient-32" x1="251.63" y1="106.66" x2="262.79" y2="106.66" gradientTransform="matrix(1, 0, 0, 1, 0, 0)" xlink:href="#linear-gradient-8"/>
  </defs>
  <title>isohero-ndoctor</title>
  <g style="isolation: isolate">
    <g id="arte">
      <g>
        <path d="M106.66,243.59c-33.55-4.74-95.69-33-104.33-68.34C-22.89,72.13,163.63,92,227.63,82.88c53.89-7.68,99.46,26.76,96.45,63.11C317.93,220.12,177.49,253.59,106.66,243.59Z" style="fill: url(#linear-gradient-3)"/>
        <g>
          <g style="mix-blend-mode: multiply">
            <path d="M115,185.91,67.38,158a6,6,0,0,0-5.45,0l-57,33.35c-1.5.87-1.49,2.28,0,3.16l47.58,27.87a6,6,0,0,0,5.46,0l57-33.35C116.49,188.19,116.48,186.78,115,185.91Z" style="fill: url(#linear-gradient-4)"/>
          </g>
          <g style="isolation: isolate">
            <path d="M115,160.72,67.38,132.85a6,6,0,0,0-5.45,0l-57,33.34c-1.5.88-1.49,2.29,0,3.16l47.58,27.88a6,6,0,0,0,5.46,0l57-33.35C116.49,163,116.48,161.6,115,160.72Z" style="fill: #b8e3f0"/>
            <path d="M115,163.88,58,197.23a6,6,0,0,1-5.46,0L5,169.35a1.93,1.93,0,0,1-1.14-1.59v3.6A1.94,1.94,0,0,0,4.94,173l47.58,27.87a6,6,0,0,0,5.46,0l57-33.35a1.94,1.94,0,0,0,1.12-1.56v-3.6A1.94,1.94,0,0,1,115,163.88Z" style="fill: #95d4ec"/>
          </g>
        </g>
        <g>
          <g style="mix-blend-mode: multiply">
            <path d="M197.36,185.91,245,158a6,6,0,0,1,5.45,0l57,33.35c1.5.87,1.49,2.28,0,3.16L259.8,222.41a6,6,0,0,1-5.46,0l-57-33.35C195.84,188.19,195.85,186.78,197.36,185.91Z" style="fill: url(#linear-gradient-5)"/>
          </g>
          <g style="isolation: isolate">
            <path d="M197.36,160.72,245,132.85a6,6,0,0,1,5.45,0l57,33.34c1.5.88,1.49,2.29,0,3.16L259.8,197.23a6,6,0,0,1-5.46,0l-57-33.35C195.84,163,195.85,161.6,197.36,160.72Z" style="fill: #b8e3f0"/>
            <path d="M197.35,163.88l57,33.35a6,6,0,0,0,5.46,0l47.58-27.88a1.93,1.93,0,0,0,1.14-1.59v3.6a1.94,1.94,0,0,1-1.14,1.59l-47.58,27.87a6,6,0,0,1-5.46,0l-57-33.35a1.9,1.9,0,0,1-1.12-1.56l0-3.6A1.93,1.93,0,0,0,197.35,163.88Z" style="fill: #95d4ec"/>
          </g>
        </g>
        <g>
          <g>
            <g style="isolation: isolate">
              <g>
                <path id="SVGID-5" data-name="SVGID" d="M54.54,80.66l3.46,2a1.65,1.65,0,0,0-1.69.16l-3.46-2A1.65,1.65,0,0,1,54.54,80.66Z" style="fill: #fafbfb"/>
                <g style="clip-path: url(#clip-path)">
                  <g style="isolation: isolate">
                    <path d="M56.31,82.83l-3.46-2a2.36,2.36,0,0,1,.72-.29l3.45,2a2.42,2.42,0,0,0-.71.29Z" style="fill: #fafbfb"/>
                    <path d="M57,82.54l-3.45-2a1.43,1.43,0,0,1,.93.1l3.45,2a1.37,1.37,0,0,0-.93-.1Z" style="fill: #fafbfb"/>
                    <path d="M58,82.64l-3.45-2,0,0,3.46,2,0,0Z" style="fill: #fafbfb"/>
                  </g>
                </g>
              </g>
              <polygon points="31.09 97.39 27.64 95.38 52.85 80.82 56.31 82.83 31.09 97.39" style="fill: #fff"/>
              <g>
                <path id="SVGID-6" data-name="SVGID" d="M28.72,101.49l-3.46-2a5.26,5.26,0,0,1,2.37-4.1l3.46,2A5.24,5.24,0,0,0,28.72,101.49Z" style="fill: url(#linear-gradient)"/>
                <g style="clip-path: url(#clip-path-2)">
                  <path d="M27.63,95.38a4.64,4.64,0,0,0-1.15,1,6.21,6.21,0,0,0-.8,1.31,4.58,4.58,0,0,0-.42,1.79l3.46,2a4.41,4.41,0,0,1,.42-1.79,5.82,5.82,0,0,1,.8-1.31,4.47,4.47,0,0,1,1.15-1Z" style="fill: #cbd2db"/>
                </g>
              </g>
              <g>
                <path d="M58.86,144.75a5.24,5.24,0,0,1-2.37,4.1L31.27,163.41c-1.3.75-2.38.14-2.38-1.36l0-1.92,30-17.31Z" style="fill: #f0f4fa"/>
                <polygon points="28.73 104.01 28.87 160.13 58.84 142.82 58.79 120.23 58.72 95.63 58.7 86.7 28.73 104.01" style="fill: url(#linear-gradient-7)"/>
                <path d="M28.72,101.49a5.24,5.24,0,0,1,2.37-4.1L56.31,82.83c1.3-.76,2.38-.15,2.38,1.36V86.7L28.73,104Z" style="fill: #f0f4fa"/>
              </g>
            </g>
            <g>
              <path d="M51.79,82.59a.73.73,0,0,0,.41.56,2.31,2.31,0,0,0,2,0,.89.89,0,0,0,.3-.27c.23-.31.13-.67-.3-.92a2.31,2.31,0,0,0-2,0A.66.66,0,0,0,51.79,82.59Z" style="fill: url(#linear-gradient-8)"/>
              <path d="M51.79,82.59a.73.73,0,0,0,.41.56,2.31,2.31,0,0,0,2,0,.89.89,0,0,0,.3-.27.7.7,0,0,0-.42-.55,2.23,2.23,0,0,0-2,0A1,1,0,0,0,51.79,82.59Z" style="fill: #141d30"/>
            </g>
            <g>
              <path d="M46.6,85.78a.78.78,0,0,0,.31.32,2,2,0,0,0,1.87,0l2-1.17a.84.84,0,0,0,.3-.29c.18-.28.08-.59-.3-.82a2,2,0,0,0-1.88,0l-2,1.19C46.56,85.23,46.45,85.52,46.6,85.78Z" style="fill: url(#linear-gradient-9)"/>
              <path d="M46.6,85.78a.78.78,0,0,0,.31.32,2,2,0,0,0,1.87,0l2-1.17a.84.84,0,0,0,.3-.29.72.72,0,0,0-.32-.33,2,2,0,0,0-1.87,0l-2,1.18A.86.86,0,0,0,46.6,85.78Z" style="fill: #141d30"/>
            </g>
            <path d="M47.16,91.81,38,97.12c-.4.23-.72,0-.72-.42h0A1.57,1.57,0,0,1,38,95.46l9.19-5.31c.4-.23.72,0,.72.41h0A1.59,1.59,0,0,1,47.16,91.81Z" style="fill: url(#linear-gradient-10)"/>
            <g>
              <path d="M28.89,162.05a1.67,1.67,0,0,0,.69,1.52l-3.45-2a1.65,1.65,0,0,1-.7-1.52V158.3l3.45,2Z" style="fill: #cbd2db"/>
              <polygon points="25.26 99.48 28.72 101.49 28.73 104 25.27 102.01 25.26 99.48" style="fill: #cbd2db"/>
              <polygon points="28.73 104 28.88 160.29 25.42 158.3 25.27 102.01 28.73 104" style="fill: #cbd2db"/>
              <polygon points="26.95 102.98 28.73 104 28.88 160.29 26.95 159.18 26.95 102.98" style="fill: url(#linear-gradient-11)"/>
            </g>
          </g>
          <g>
            <polygon points="56.19 91.5 56.19 127.81 32.22 141.68 32.22 105.37 56.19 91.5" style="fill: #fff;opacity: 0.8"/>
            <polygon points="56.19 130.16 56.19 141.29 32.22 155.16 32.22 144.04 56.19 130.16" style="opacity: 0.5;fill: url(#linear-gradient-12)"/>
            <polygon points="48.11 98.24 48.11 101.75 34.32 109.77 34.32 106.27 48.11 98.24" style="opacity: 0.4;fill: url(#linear-gradient-13)"/>
            <polygon points="54.42 101.06 54.42 102.81 34.32 114.66 34.32 112.91 54.42 101.06" style="opacity: 0.4;fill: url(#linear-gradient-14)"/>
            <polygon points="54.64 104.47 54.64 106.22 34.54 118.07 34.54 116.31 54.64 104.47" style="opacity: 0.4;fill: url(#linear-gradient-15)"/>
            <polygon points="54.64 107.86 54.64 109.61 34.54 121.46 34.54 119.7 54.64 107.86" style="opacity: 0.4;fill: url(#linear-gradient-16)"/>
            <polygon points="54.64 110.81 54.64 112.56 34.54 124.41 34.54 122.65 54.64 110.81" style="opacity: 0.4;fill: url(#linear-gradient-17)"/>
            <path d="M41.91,140.22a.69.69,0,0,1,.25-.09l7-.54a.28.28,0,0,1,.23.1c.13.17,0,.53-.25.81l-7,7.55a.84.84,0,0,1-.24.19c-.3.18-.55.09-.55-.17v-2.81a.52.52,0,0,1,.23-.37l5.68-3.75-5.66,2.8c-.14.06-.23,0-.23-.11V141a.69.69,0,0,1,.06-.26A1.13,1.13,0,0,1,41.91,140.22Z" style="fill: #fff"/>
          </g>
        </g>
        <g>
          <g>
            <g style="isolation: isolate">
              <g>
                <path id="SVGID-7" data-name="SVGID" d="M251.73,58.56l-3.45,2a1.68,1.68,0,0,1,1.69.16l3.45-2A1.68,1.68,0,0,0,251.73,58.56Z" style="fill: #fafbfb"/>
                <g style="clip-path: url(#clip-path-3)">
                  <g style="isolation: isolate">
                    <path d="M250,60.73l3.45-2a2.37,2.37,0,0,0-.71-.28l-3.46,2a2.78,2.78,0,0,1,.72.29Z" style="fill: #fafbfb"/>
                    <path d="M249.25,60.44l3.46-2a1.31,1.31,0,0,0-.93.1l-3.46,2a1.43,1.43,0,0,1,.93-.1Z" style="fill: #fafbfb"/>
                    <path d="M248.32,60.54l3.46-2-.05,0-3.45,2,0,0Z" style="fill: #fafbfb"/>
                  </g>
                </g>
              </g>
              <polygon points="275.18 75.29 278.64 73.28 253.42 58.72 249.97 60.73 275.18 75.29" style="fill: #fff"/>
              <g>
                <path id="SVGID-8" data-name="SVGID" d="M277.55,79.39l3.46-2a5.24,5.24,0,0,0-2.37-4.1l-3.46,2A5.24,5.24,0,0,1,277.55,79.39Z" style="fill: url(#linear-gradient-2)"/>
                <g style="clip-path: url(#clip-path-4)">
                  <path d="M278.64,73.28a4.33,4.33,0,0,1,1.15,1,5.75,5.75,0,0,1,.8,1.3,4.58,4.58,0,0,1,.42,1.79l-3.46,2a4.41,4.41,0,0,0-.42-1.79,5.75,5.75,0,0,0-.8-1.3,4.18,4.18,0,0,0-1.15-1Z" style="fill: #cbd2db"/>
                </g>
              </g>
              <g>
                <path d="M247.41,122.65a5.26,5.26,0,0,0,2.37,4.1L275,141.31c1.31.76,2.38.15,2.38-1.36l0-1.92-30-17.3Z" style="fill: #f0f4fa"/>
                <polygon points="277.54 81.91 277.4 138.03 247.43 120.73 247.49 98.13 247.55 73.53 247.57 64.61 277.54 81.91" style="fill: url(#linear-gradient-19)"/>
                <path d="M277.55,79.39a5.24,5.24,0,0,0-2.37-4.1L250,60.73c-1.31-.75-2.39-.14-2.39,1.36v2.52l30,17.3Z" style="fill: #f0f4fa"/>
              </g>
            </g>
            <g>
              <path d="M271.1,70.33a.76.76,0,0,1-.41.55,2.31,2.31,0,0,1-2.05,0,.91.91,0,0,1-.31-.26c-.22-.31-.12-.67.31-.92a2.25,2.25,0,0,1,2.05,0A.69.69,0,0,1,271.1,70.33Z" style="fill: url(#linear-gradient-20)"/>
              <path d="M271.1,70.33a.76.76,0,0,1-.41.55,2.31,2.31,0,0,1-2.05,0,.91.91,0,0,1-.31-.26.74.74,0,0,1,.42-.56,2.29,2.29,0,0,1,2,0A.93.93,0,0,1,271.1,70.33Z" style="fill: #141d30"/>
            </g>
            <g>
              <path d="M276.29,73.52a.8.8,0,0,1-.32.31,2,2,0,0,1-1.87,0l-2-1.17a.76.76,0,0,1-.3-.29c-.17-.28-.07-.59.31-.81a2,2,0,0,1,1.87,0l2,1.18C276.33,73,276.44,73.26,276.29,73.52Z" style="fill: url(#linear-gradient-21)"/>
              <path d="M276.29,73.52a.8.8,0,0,1-.32.31,2,2,0,0,1-1.87,0l-2-1.17a.76.76,0,0,1-.3-.29.77.77,0,0,1,.32-.33,2.08,2.08,0,0,1,1.88,0l2,1.19A.78.78,0,0,1,276.29,73.52Z" style="fill: #141d30"/>
            </g>
            <path d="M259.11,69.71,268.3,75c.4.23.72,0,.72-.41h0a1.59,1.59,0,0,0-.72-1.25l-9.19-5.31c-.4-.23-.72,0-.72.42h0A1.57,1.57,0,0,0,259.11,69.71Z" style="fill: url(#linear-gradient-22)"/>
            <g>
              <path d="M277.38,140a1.63,1.63,0,0,1-.69,1.52l3.46-2a1.68,1.68,0,0,0,.69-1.53V136.2l-3.45,2Z" style="fill: #cbd2db"/>
              <polygon points="281.01 77.39 277.55 79.39 277.54 81.91 281 79.91 281.01 77.39" style="fill: #cbd2db"/>
              <polygon points="277.54 81.91 277.4 138.2 280.85 136.2 281 79.91 277.54 81.91" style="fill: #cbd2db"/>
              <polygon points="279.32 80.88 277.54 81.91 277.4 138.2 279.32 137.09 279.32 80.88" style="fill: url(#linear-gradient-23)"/>
            </g>
          </g>
          <g>
            <polygon points="250.08 69.4 250.08 105.71 274.05 119.59 274.05 83.27 250.08 69.4" style="fill: #fff;opacity: 0.8"/>
            <polygon points="250.08 108.07 250.08 119.19 274.05 133.07 274.05 121.94 250.08 108.07" style="fill: url(#linear-gradient-24)"/>
            <polygon points="251.85 73.15 251.85 76.66 265.65 84.68 265.65 81.17 251.85 73.15" style="opacity: 0.4;fill: url(#linear-gradient-25)"/>
            <polygon points="251.85 78.96 251.85 80.71 271.96 92.56 271.96 90.81 251.85 78.96" style="opacity: 0.4;fill: url(#linear-gradient-26)"/>
            <polygon points="251.63 82.37 251.63 84.12 271.73 95.97 271.73 94.22 251.63 82.37" style="opacity: 0.4;fill: url(#linear-gradient-27)"/>
            <polygon points="251.63 85.76 251.63 87.51 271.73 99.36 271.73 97.61 251.63 85.76" style="opacity: 0.4;fill: url(#linear-gradient-28)"/>
            <polygon points="251.63 88.71 251.63 90.46 271.73 102.31 271.73 100.56 251.63 88.71" style="opacity: 0.4;fill: url(#linear-gradient-29)"/>
            <polygon points="251.63 94.52 251.63 96.27 271.73 108.12 271.73 106.37 251.63 94.52" style="opacity: 0.4;fill: url(#linear-gradient-30)"/>
            <polygon points="251.63 98.52 251.63 100.27 271.73 112.11 271.73 110.36 251.63 98.52" style="opacity: 0.4;fill: url(#linear-gradient-31)"/>
            <polygon points="251.63 102.51 251.63 104.26 262.79 110.81 262.79 109.05 251.63 102.51" style="opacity: 0.4;fill: url(#linear-gradient-32)"/>
            <path d="M258.62,114.8a1.33,1.33,0,0,1,.24.19l7,7.56a1.41,1.41,0,0,1,.23.35c.13.32,0,.56-.26.53l-7-.53a.69.69,0,0,1-.25-.09A1.15,1.15,0,0,1,258,122v-2.8c0-.12.1-.17.23-.11L264,121.9l-5.66-3.74a.51.51,0,0,1-.23-.38V115a.38.38,0,0,1,.05-.19C258.22,114.67,258.42,114.68,258.62,114.8Z" style="fill: #fff"/>
          </g>
          <g>
            <path d="M252.76,173.23a4.51,4.51,0,0,0-.82-.48c-.95-.41-1.94-.78-2.9-1.18-1.16-.49-2.36-.85-3.52-1.32-.46-.18-.75-.29-.72.66-1.7,0-3.35-.32-5,.12-.86.24-2.19.47-2.63,1.37a2,2,0,0,0-.21,1.17c.1.79,1.11,1.36,1.69,1.81a10.07,10.07,0,0,0,1.51,1,15.2,15.2,0,0,0,2.16.56c1.46.46,3,.6,4.47,1a4.39,4.39,0,0,0,2.13,0c.91-.19,1.9.06,2.82-.07a8,8,0,0,0,1.65-.47c.41-.15,1-.17,1.34-.49a1.83,1.83,0,0,0,.36-1.37C255,174.35,253.6,173.79,252.76,173.23Z" style="fill: #015866;opacity: 0.1"/>
            <path d="M253.68,174h-2.94l-4.76.86-.15,2.25c.62,1.51,2.52,1,2.52,1l6.33-1.88A1.28,1.28,0,0,0,253.68,174Z" style="fill: #809aa1"/>
            <path d="M234.61,120.2a50.86,50.86,0,0,0-2.34,14.29c0,1.86,5.28,2.08,5.28,2.08l-1.21-4.08Z" style="fill: #fff"/>
            <path d="M235.61,127.29a28.8,28.8,0,0,0-2.65,8.23c1.43.92,4.59,1,4.59,1l-1.21-4.08Z" style="opacity: 0.05"/>
            <path d="M243.9,170.25l-2.84.36-3.61.35-.28,3.1c.7,1.36,2.86.63,2.86.63l5-2.45C245.83,171.71,244.87,170.13,243.9,170.25Z" style="fill: #809aa1"/>
            <path d="M236.4,137.43s-.56,4.14-.67,5.67c-.13,1.88.81,5.68,1.05,8.82.3,3.78.47,6.82.47,6.82l.23,12.76a3.19,3.19,0,0,0,2.82.64c.71-.11,1.46-.5,1.5-1.23l.14-11.4.22-7.72,3.09,8.57.7,14.93a4.56,4.56,0,0,0,3.1.28,1.53,1.53,0,0,0,1.28-1.52l.08-14.05-2.88-19.85C246.7,141.16,237.67,138.16,236.4,137.43Z" style="fill: #183f42"/>
            <path d="M240.67,163.68c0,2.95-.09,6-1.19,8.51a4,4,0,0,0,.82-.05c.71-.11,1.46-.5,1.5-1.23l.14-11.4.22-7.72c-.52-.58-1.11-.57-2.09-1C241.63,154.81,240.64,159.4,240.67,163.68Z" style="fill: #183f42"/>
            <path d="M236.4,137.43s-.56,4.14-.67,5.67a7.71,7.71,0,0,0,0,1.33,2.88,2.88,0,0,1,2.19.07c4.82,2.09,9,4.85,9.89,10.36,1.15,6.85.32,13.57,2,20.3a1.54,1.54,0,0,0,.48-1.11l.08-14.05-2.88-19.85C246.7,141.16,237.67,138.16,236.4,137.43Z" style="fill: #183f42"/>
            <path d="M248,131.11c.19-2.29,2.06-8.08.48-9.21-1.36-1-1.27-1.7-6.45-3.47a10.54,10.54,0,0,0-5.58.16,2.75,2.75,0,0,0-2.09,2.46c-.38,2.06,1.2,13,1.3,14.84s-.75,16.29-.75,16.29a23.32,23.32,0,0,0,11.25,2,5.8,5.8,0,0,0,3.94-2S247.73,134.54,248,131.11Z" style="fill: #fff"/>
            <path d="M248,131.12c.1-1.22.67-3.4.95-5.36-3.11,2.38-2.94,6.68-2.64,10.23.24,2.95.51,5.86.5,8.83,0,2.8-.14,6.56-1.44,9.42.26,0,.53,0,.79-.06a5.8,5.8,0,0,0,3.94-2S247.73,134.54,248,131.12Z" style="opacity: 0.05"/>
            <g>
              <path d="M238.8,118.79c.13,1.2,3.69,1.5,3.56.3l.73-3.86-4.35,0Z" style="fill: #f6b6a8"/>
              <path d="M238.78,117.73l-.28.92c.24,1.55,4.56,1.69,4.43.49l-.18-1.25A7.84,7.84,0,0,1,238.78,117.73Z" style="fill: #fff"/>
              <path d="M243,109.93l-6.41,2.23.93,3.28c.3,1.8,3.7,2.26,3.7,2.26,1.74-.29,2.87-1.31,2.56-3.15Z" style="fill: #f6b6a8"/>
              <path d="M241.11,107.91c-1.08-.27-4.65.2-4.87,2.83a7.45,7.45,0,0,0,2.17,6.36s1.55.81,2.25.05c1-1.06,2.2-2.72,2-4.12s.62-1.78.62-1.78C245.16,109.36,242.65,108.29,241.11,107.91Z" style="fill: #cb9649"/>
              <path d="M241.79,113.4c0,.81.71,1.59,1.3,1.19l-.26-1.53S241.75,112.3,241.79,113.4Z" style="fill: #f6b6a8"/>
            </g>
            <g>
              <path d="M267.91,119.36l-4.33,2-2.4,1.28v2.3l1.91-.7c.44.28,2-.41,2-.41a.64.64,0,0,0,.37.41l.9-1.16a3.54,3.54,0,0,0-.33-1.93l1.74-.94C268.28,119.63,267.91,119.36,267.91,119.36Z" style="fill: #f6b6a8"/>
              <path d="M261.39,122.34l-6.16,2.6a2.22,2.22,0,0,1-1.95,0c-3.72-2.15-5.27-3.43-5.9-3.78a3.12,3.12,0,0,0-2.82-.27c-2.43,1-2.2,5.76.39,6.53,1.72.51,6.67,2.09,8.92,2.57a2.54,2.54,0,0,0,1.95-.36l6.88-4.5s.18-.19,0-1.22A2.26,2.26,0,0,0,261.39,122.34Z" style="fill: #fff"/>
              <path d="M262.69,123.75c-2.61,1.8-6,4-9.21,4.47a20.3,20.3,0,0,1-6.32-.12c2.19.67,5.12,1.55,6.71,1.89a2.54,2.54,0,0,0,1.95-.36l6.88-4.5s.18-.19,0-1.22C262.72,123.85,262.7,123.8,262.69,123.75Z" style="opacity: 0.05"/>
            </g>
          </g>
        </g>
        <g>
          <g>
            <path d="M52.17,118.13c.21-.23-.23-.37-.34-.66-.24-.62-.06-1.28-.9-2.06-.11-.1-.2-.27-.34-.31-.56-.18-.71.12-.74.52-.93-.4-2.42-2.47-2.66-1.59-.12.42,1.42,1.52,1.67,1.84a5.72,5.72,0,0,0-.57-.39c-.26-.19-.74-.53-.87-.13s.13.49.34.69c.05,0,.39.34.32.31-.27-.12-.69-.51-.84,0a.47.47,0,0,0,.19.45s.3.31.34.33c-.4-.16-.74.23-.36.57a7.76,7.76,0,0,0,3.4,1.8s0,0,.07,0,0-.06,0-.07l.09-.14c.1-.14.15-.09.24-.22C51.47,118.8,51.94,118.39,52.17,118.13Z" style="fill: #fcd4be"/>
            <path d="M67.05,127.84c-.73-1.73-7.36-5.54-7.36-5.54-1-.75-4.42-3.13-7.13-5.06a4,4,0,0,0-2.81,2.53,48.48,48.48,0,0,1,3.61,4.41,17.14,17.14,0,0,0,3.22,2.71l.08,0,2.3,1.76c2.32,1.43,4.68,3,7.36,3C66.32,131.63,67.78,129.57,67.05,127.84Z" style="fill: #cbd2db"/>
            <path d="M58.59,125.14v.24l0,2.07a3.38,3.38,0,0,0,.49.57h.17c1.51-.16,3.39-.49,3.38-1.6,0,0,0,0,0,0l-.08-1.58-.18,0-2.71.24Z" style="fill: #fcd4be"/>
            <path d="M63.16,126.13a8.8,8.8,0,0,1,.1,2.63c-.07.85-.21-.36-1,0a4.36,4.36,0,0,1-2.53.14,1.53,1.53,0,0,1-1-.5c-.34-.35-.34-1.76,0-1.79s1,0,1.28,0a4.74,4.74,0,0,0,2.07-.35C62.48,126.08,62.66,125.63,63.16,126.13Z" style="fill: #f7f9fc"/>
            <path d="M66.85,175.61s.26,2.23-.5,2.88a2.53,2.53,0,0,1-1.87-.25c-.57-.24-1.14-.73-1.71-.92-1.67-.55-2-1.42-2.55-2.55-1.18-2.41,1.47-1.29,3.16-.3A8.78,8.78,0,0,0,66.85,175.61Z" style="fill: #16181d"/>
            <path d="M60.83,159.26c.14,1.28.41,2.54.61,3.81.12.72.08,1.28.21,2,.25,1.46.19,8.25.19,10.57,0,.48,5.07,2,5.21,1.29a54.08,54.08,0,0,0,.23-8.28c-.19-1.53-.58-16.09-.48-17.05.16-1.56,0-4.17-1.3-5-2-1.24-4.49,1.5-5,2.7C59.68,151,60.18,153.51,60.83,159.26Z" style="fill: #0b7c91"/>
            <path d="M60.6,178.66s.82,2.08.25,2.91a2.49,2.49,0,0,1-1.86.29c-.61-.07-1.29-.38-1.88-.4-1.76-.06-2.28-.8-3.1-1.74-1.75-2,1.08-1.65,3-1.18A8.49,8.49,0,0,0,60.6,178.66Z" style="fill: #16181d"/>
            <path d="M54.79,159.31h0c1.58,12.66,1,11,1.05,20,0,.73.18.59,2.43.94a5.5,5.5,0,0,0,1.46.09c1.46-.18,1.67-1.28,1.7-2.46s.39-16.07-3-16.08C57.87,161.77,55.23,159.67,54.79,159.31Z" style="fill: #078fa9"/>
            <path d="M54.44,150.76c.14,3.23.16,6.32.35,8.55h0a9.46,9.46,0,0,0,1.33,4.56c.51,1.17.44,2,1.1,2.6a1.58,1.58,0,0,0,1.85.09c.57-.34,1.33,2.41,1.54,1.75a29.81,29.81,0,0,0,.3-3.55c.26-5.56,2.64-9.23,2.12-13.79C63,150.74,54.44,150.76,54.44,150.76Z" style="fill: #078fa9"/>
            <path d="M53.09,131.14s.14.86.32,2.11l0,.23c.27,1.84.61,4.4.78,6.25.05.61.09,1.14.09,1.55,0,2,.24,19.7.15,21.46a.93.93,0,0,0,.43.85,9.68,9.68,0,0,0,.89.47,7.21,7.21,0,0,0,1.56.45,11.09,11.09,0,0,0,1.27.15,21.06,21.06,0,0,0,5.32-.22A7.54,7.54,0,0,0,67.37,163a.94.94,0,0,0,.37-.74h0c0-1.89-.38-17-1.48-21.32-.86-3.39,1.25-9.36,1.17-11.31-.08-1.64-.67-3.63-4.22-3.17l-4.68,1.06C57.55,128,53.48,128.77,53.09,131.14Z" style="fill: #eaeef1"/>
            <path d="M57.2,123.77a3.23,3.23,0,0,0,1.39,1.61,2.4,2.4,0,0,0,.74.25l.15,0a1.38,1.38,0,0,0,.72-.12c.43-.23,2,0,2.16-.41a1.57,1.57,0,0,0,.08-.31c.17-1.2-.65-3-.84-4.11A4.75,4.75,0,0,0,60,118a6.45,6.45,0,0,0-2.35-1.33l-.43.52-.36.43a14.6,14.6,0,0,1,0,3.1A7.17,7.17,0,0,0,57.2,123.77Z" style="fill: #fcd4be"/>
            <path d="M56.85,120.71a14.6,14.6,0,0,0,0-3.1l.36-.43.13.67a10.85,10.85,0,0,0,0,4.94,3.63,3.63,0,0,0,.78,1.71,1.6,1.6,0,0,0,1.72.48l-.09.07a1.19,1.19,0,0,0-.4.58,2.36,2.36,0,0,0-.11.59c0,.12,0,.25,0,.37a1.63,1.63,0,0,0-.54,0l-.07,0,0-1.23a3.23,3.23,0,0,1-1.39-1.61A7.17,7.17,0,0,1,56.85,120.71Z" style="fill: #fcd4be"/>
            <path d="M56.26,117.36c.09.63.62.59,1,1.13s.4,1.17.78,1.79c.14.23.7,2.36,1.34,2,.94-.55-.14,2,1.59,2.9a3.2,3.2,0,0,0,1.44,0,.89.89,0,0,0,.48-.33l0,0a19.48,19.48,0,0,0,2.66-3.08,6.2,6.2,0,0,0,.41-2.54A4.2,4.2,0,0,0,65,117a4.77,4.77,0,0,0-1.66-1.53,7,7,0,0,0-4-.56c-.18,0-.36,0-.52.09a9.12,9.12,0,0,0-.9.23l-.39.2c-1.27.71-1.25,1.44-1.26,1.49S56.25,117.26,56.26,117.36Z" style="fill: #2b130d"/>
            <path d="M59.41,122.15a.86.86,0,1,0,1.3,1,.86.86,0,1,0-1.3-1Z" style="fill: #fcd4be"/>
            <path d="M59,127a5.35,5.35,0,0,0-.84.25.74.74,0,0,0-.38.55,14.84,14.84,0,0,0,4.23-.39,3.8,3.8,0,0,0,2-1c.38-.63-1.93,0-2.17.12-.93.26-1.92.27-2.86.48Z" style="fill: #fcfcfb"/>
          </g>
          <path d="M51,151l-1.26-.16c-.09.75-.15,1.23-.15,1.23s-.42.49-.47.56c-.29.49-.42,1.07-.71,1.57-.09.14-.44.58-.39.76a.14.14,0,0,0,.11.08c.55.19.81-.35,1-.79,0,.22-.1.45-.15.68s-.39,1.6-.07,1.66c.16,0,.24-.21.29-.32a11.85,11.85,0,0,0,.47-1.57c-.09.47-.18.91-.27,1.36,0,.21-.15,1,.17,1.08a.2.2,0,0,0,.2-.14,6,6,0,0,0,.3-1.28c0,.28-.05.56-.08.85,0,.13,0,.38.14.45s.31-.16.35-.3a9.28,9.28,0,0,0,.31-1.67,14.23,14.23,0,0,0,.06,1.5,0,0,0,0,0,0,0c0,.08.06.11.14.05a.47.47,0,0,0,.16-.29c.19-.65.31-1,.5-1.68a6.63,6.63,0,0,0,.18-1c0-.34.06-.61.11-.95,0-.19,0-.44,0-.72h0l.27-.74A10.8,10.8,0,0,0,51,151Z" style="fill: #fcd4be"/>
          <path d="M56.12,130.39a1.66,1.66,0,0,0-2.1-.76,2.39,2.39,0,0,0-.93,1.37l-2.22,10c-.24,1.25-1.39,7.41-2,10.7a4,4,0,0,0,3.49,1.45c1.07-2.81,2.42-6.15,2.89-7.23a16.63,16.63,0,0,0,1.08-4.07.19.19,0,0,0,0-.08l.62-2.83C57.27,136,57.7,133,56.12,130.39Z" style="fill: #fcfcfb"/>
        </g>
        <g>
          <line x1="192.82" y1="20.68" x2="192.82" y2="20.68" style="fill: none;stroke: #00709e;stroke-linecap: round;stroke-linejoin: round;stroke-width: 1.88751888275147px"/>
          <path d="M197.45,20.68h65.81a2,2,0,0,1,2,2V48.65" style="fill: none;stroke: #00709e;stroke-linecap: round;stroke-linejoin: round;stroke-width: 1.88751888275147px;stroke-dasharray: 0,4.630367279052734"/>
          <line x1="265.29" y1="50.96" x2="265.29" y2="50.96" style="fill: none;stroke: #00709e;stroke-linecap: round;stroke-linejoin: round;stroke-width: 1.88751888275147px"/>
          <rect x="259.15" y="50.02" width="12.27" height="1.89" style="fill: #00709e"/>
        </g>
        <g>
          <line x1="49.93" y1="65.96" x2="49.93" y2="65.96" style="fill: none;stroke: #00709e;stroke-linecap: round;stroke-linejoin: round;stroke-width: 1.88751888275147px"/>
          <path d="M49.93,61.25V22.71a2,2,0,0,1,2-2h64.23" style="fill: none;stroke: #00709e;stroke-linecap: round;stroke-linejoin: round;stroke-width: 1.88751888275147px;stroke-dasharray: 0,4.7086567878723145"/>
          <line x1="118.53" y1="20.68" x2="118.53" y2="20.68" style="fill: none;stroke: #00709e;stroke-linecap: round;stroke-linejoin: round;stroke-width: 1.88751888275147px"/>
          <rect x="43.79" y="65.02" width="12.27" height="1.89" style="fill: #00709e"/>
        </g>
        <g>
          <line x1="171.57" y1="28.83" x2="139.13" y2="28.83" style="fill: none;stroke: #029adc;stroke-linecap: round;stroke-linejoin: round;stroke-width: 2px"/>
          <polygon points="164.95 20.66 163.58 22.12 170.81 28.83 163.58 35.55 164.95 37.01 173.74 28.83 164.95 20.66" style="fill: #029adc"/>
        </g>
        <g>
          <line x1="139.3" y1="15.83" x2="171.74" y2="15.83" style="fill: none;stroke: #029adc;stroke-linecap: round;stroke-linejoin: round;stroke-width: 2px"/>
          <polygon points="145.93 24.01 147.29 22.55 140.07 15.84 147.29 9.12 145.93 7.66 137.13 15.84 145.93 24.01" style="fill: #029adc"/>
        </g>
      </g>
    </g>
  </g>
</svg>
