<svg xmlns="http://www.w3.org/2000/svg" xmlns:xlink="http://www.w3.org/1999/xlink" viewBox="0 0 407 266">
  <defs>
    <linearGradient id="linear-gradient" x1="2372.23" y1="2494.17" x2="2466.34" y2="2678.88" gradientTransform="matrix(-0.96, -0.04, 0.04, -1, 2420.44, 2824.16)" gradientUnits="userSpaceOnUse">
      <stop offset="0" stop-color="#a4d8c8"/>
      <stop offset="0.98" stop-color="#12a0c6"/>
    </linearGradient>
    <linearGradient id="linear-gradient-2" x1="112.22" y1="136.41" x2="118.02" y2="203.19" gradientUnits="userSpaceOnUse">
      <stop offset="0" stop-color="#fff"/>
      <stop offset="1" stop-color="#a8c2d6"/>
    </linearGradient>
    <linearGradient id="linear-gradient-3" x1="128.82" y1="127.56" x2="134.91" y2="127.56" gradientUnits="userSpaceOnUse">
      <stop offset="0" stop-color="#a9b9d5"/>
      <stop offset="1" stop-color="#95a9c8"/>
    </linearGradient>
    <linearGradient id="linear-gradient-4" x1="125.29" y1="141.9" x2="129.73" y2="141.9" xlink:href="#linear-gradient-3"/>
    <linearGradient id="linear-gradient-5" x1="114.6" y1="122.05" x2="134.43" y2="122.05" xlink:href="#linear-gradient-3"/>
    <linearGradient id="linear-gradient-6" x1="90.29" y1="95.94" x2="162.89" y2="95.94" xlink:href="#linear-gradient-3"/>
    <linearGradient id="linear-gradient-7" x1="155.54" y1="91.55" x2="162.55" y2="91.55" gradientUnits="userSpaceOnUse">
      <stop offset="0.01" stop-color="#e3e7f0"/>
      <stop offset="0.27" stop-color="#dee3ee"/>
      <stop offset="0.6" stop-color="#cfd7e7"/>
      <stop offset="0.95" stop-color="#b7c4db"/>
      <stop offset="1" stop-color="#b3c1d9"/>
    </linearGradient>
    <linearGradient id="linear-gradient-8" x1="129.67" y1="141.66" x2="119.8" y2="47.95" gradientUnits="userSpaceOnUse">
      <stop offset="0" stop-color="#52c7ea"/>
      <stop offset="0.29" stop-color="#3dc5ee"/>
      <stop offset="1" stop-color="#26aee4"/>
    </linearGradient>
    <linearGradient id="linear-gradient-9" x1="91.51" y1="96.81" x2="158.38" y2="96.81" xlink:href="#linear-gradient-3"/>
  </defs>
  <title>isohero-nreport</title>
  <g style="isolation: isolate">
    <g id="arte">
      <g>
        <path d="M227.23,50.83c56.69-8.31,115.34,3.64,130.46,34.34,14.2,28.83,6.49,134.14-124.26,132.55C97.5,216.06,41.59,170.55,44.29,136.82,49.8,68,142.71,63.23,227.23,50.83Z" style="fill: url(#linear-gradient)"/>
        <g>
          <g>
            <g style="mix-blend-mode: multiply">
              <path d="M170.09,166.49l-55.88-32.74a6,6,0,0,0-5.45,0L59.47,162.32c-1.5.87-1.5,2.28,0,3.16l55.88,32.74a6,6,0,0,0,5.45,0l49.29-28.57C171.61,168.78,171.6,167.37,170.09,166.49Z" style="fill: url(#linear-gradient-2)"/>
            </g>
            <g style="isolation: isolate">
              <path d="M170.09,141.31l-55.88-32.75a6,6,0,0,0-5.45,0L59.47,137.13c-1.5.88-1.5,2.29,0,3.16L115.37,173a6,6,0,0,0,5.45,0l49.29-28.57C171.61,143.6,171.6,142.18,170.09,141.31Z" style="fill: #b8e3ef"/>
              <path d="M170.11,144.47,120.82,173a6,6,0,0,1-5.45,0L59.49,140.29a1.93,1.93,0,0,1-1.14-1.59v3.6a1.94,1.94,0,0,0,1.14,1.59l55.88,32.74a6,6,0,0,0,5.45,0l49.29-28.57a1.92,1.92,0,0,0,1.12-1.57V142.9A1.92,1.92,0,0,1,170.11,144.47Z" style="fill: #95d3eb"/>
            </g>
          </g>
          <g>
            <g>
              <g>
                <g>
                  <path d="M129.71,140.48l2.74-2.29a6.85,6.85,0,0,0,2.46-5.26v-18.3H134v18.3a6,6,0,0,1-2.14,4.59l-3.08,2.58Z" style="fill: url(#linear-gradient-3)"/>
                  <polygon points="125.28 143.36 125.3 143.36 125.3 143.97 129.71 140.48 129.73 140.45 129.29 140.19 129.2 140.27 125.28 143.36" style="fill: #fafbfb"/>
                  <polygon points="125.28 143.36 125.3 143.36 125.3 143.97 129.71 140.48 129.73 140.45 129.73 139.83 129.44 140.07 129.29 140.19 129.2 140.27 125.28 143.36" style="fill: url(#linear-gradient-4)"/>
                  <path d="M103.28,130.77l22,12.59,3.91-3.09.09-.08.15-.12h0l.26-.23,2.47-2.07.09-.07a5.87,5.87,0,0,0,2.14-4.51V115.46l-.4-.22-13.67-7.56-4.88-4.44h-.87v18.29c0,.12,0,.23,0,.33a5.94,5.94,0,0,1-2.13,4.26,3,3,0,0,1-.3.21C110.94,127.14,107.21,128.94,103.28,130.77Z" style="fill: #fff"/>
                  <path d="M114.6,121.86l19.83,11.33V116.78c-1.39-1.38-2.43-2.3-2.56-2.15-.33.39-13-3.13-17.26-3.71v10.61C114.61,121.65,114.61,121.76,114.6,121.86Z" style="fill: url(#linear-gradient-5)"/>
                </g>
                <polygon points="125.28 143.36 103.28 130.77 103.28 131.39 125.3 143.97 125.28 143.36" style="fill: #fafbfb"/>
                <path d="M112.17,126.33l20,11.44.09-.07a5.87,5.87,0,0,0,2.14-4.51L114.6,121.86a5.94,5.94,0,0,1-2.13,4.26A3,3,0,0,1,112.17,126.33Z" style="fill: #cbd2db"/>
              </g>
              <g>
                <path d="M90.29,50l.48.09h0l1,.2-.06.33a6.37,6.37,0,0,0-.06.9l.1,10.43L92,97.51c0,2.78,1.74,6,3.83,7.19l64,36.81.11.06-.49,1.78,2.18-1.28a3.1,3.1,0,0,0,1.29-2.6c0-.15,0-.32,0-.48l-.34-45.93V93a9.6,9.6,0,0,0-2-5.56,6.27,6.27,0,0,0-1.81-1.63L94.76,49a2.44,2.44,0,0,0-2.39-.22h0l-1.81,1.07Z" style="fill: url(#linear-gradient-6)"/>
                <path d="M90.56,49.83l.21.24h0l.93.53,66.63,37.86,2.19-1a6.27,6.27,0,0,0-1.81-1.63L94.76,49a2.44,2.44,0,0,0-2.39-.22h0Z" style="fill: #fff"/>
                <path d="M155.54,89.84l2.38,5.85,4.63-2.63V93a9.6,9.6,0,0,0-2-5.56Z" style="fill: url(#linear-gradient-7)"/>
                <path d="M89,53.07l0,4.59h0l.06,5.83.24,35.58c0,2.78,1.74,6,3.84,7.19l23.42,13.28,25.17,14.27.59.35,14.77,8.91a2.25,2.25,0,0,0,3.61-1.52,5.24,5.24,0,0,0,.14-.88v-.49l0-5.23-.1-13.49-.2-27.28c0-2.79-1.74-6-3.84-7.19L130.28,72l-.05,0-9-5.36-11.43-6.79h0l-13.22-7.5-3.82-2.17c-1.4-.79-2.61-.48-3.27.64A4.53,4.53,0,0,0,89,53.07Z" style="fill: #fafbfb"/>
                <g>
                  <polygon points="158.38 92.92 158.38 139.78 138.49 128.16 138.24 128.01 120.88 117.86 120.52 117.66 119.5 117.06 117.02 115.61 116.64 115.39 115.86 114.93 115.21 114.56 113.33 113.46 110.36 111.72 108.38 110.57 106.73 109.6 104.42 108.25 102.56 107.16 101.08 106.3 99.44 105.34 91.51 100.7 91.51 53.84 114.97 67.56 115.56 67.9 116.79 68.62 117.56 69.07 117.92 69.28 118.21 69.44 122.06 71.7 123.73 72.67 126.69 74.4 127.78 75.04 127.94 75.13 132.73 77.93 134.34 78.87 138.71 81.43 140.72 82.6 143.36 84.14 158.38 92.92" style="fill: url(#linear-gradient-8)"/>
                  <polygon points="92.46 54.4 92.46 100.19 158.38 138.71 158.38 139.78 91.51 100.7 91.51 53.84 92.46 54.4" style="fill: url(#linear-gradient-9)"/>
                  <polygon points="158.38 139.78 91.51 100.7 92.46 100.19 158.38 138.71 158.38 139.78" style="fill: #fff"/>
                </g>
              </g>
            </g>
            <g style="opacity: 0.6000000000000001;mix-blend-mode: screen">
              <g style="opacity: 0.4">
                <polygon points="93.78 56.79 93.78 99.95 154.4 134.95 154.4 91.78 93.78 56.79" style="fill: #fff"/>
              </g>
            </g>
            <g>
              <polygon points="121.6 80.85 102.11 69.6 102.11 65.96 121.6 77.21 121.6 80.85" style="fill: #fff"/>
              <polygon points="119.35 78.47 103.28 69.17 103.28 68.13 119.35 77.43 119.35 78.47" style="opacity: 0.5"/>
              <polygon points="121.6 86.73 102.11 75.48 102.11 71.84 121.6 83.09 121.6 86.73" style="fill: #fff"/>
              <polygon points="118.77 83.84 103.28 74.9 103.28 73.87 118.77 82.81 118.77 83.84" style="opacity: 0.15"/>
              <polygon points="121.6 92.61 102.11 81.36 102.11 77.72 121.6 88.97 121.6 92.61" style="fill: #fff"/>
              <polygon points="119.35 90.07 103.28 80.77 103.28 79.74 119.35 89.04 119.35 90.07" style="opacity: 0.5"/>
              <polygon points="121.6 98.49 102.11 87.24 102.11 83.6 121.6 94.86 121.6 98.49" style="fill: #fff"/>
              <polygon points="114.32 93 103.28 86.61 103.28 85.58 114.32 91.97 114.32 93" style="opacity: 0.5"/>
              <polygon points="121.6 104.52 102.11 93.27 102.11 89.63 121.6 100.88 121.6 104.52" style="fill: #fff"/>
              <polygon points="115.69 99.89 103.28 92.73 103.28 91.7 115.69 98.86 115.69 99.89" style="opacity: 0.15"/>
              <path d="M98.88,64a4.15,4.15,0,0,1,1.26,1.26c1.08,2.26.09,3.48-1.27,2.7a4.25,4.25,0,0,1-1.25-1.26C96.54,64.43,97.53,63.2,98.88,64Z" style="fill: #fff"/>
              <g style="opacity: 0.5">
                <path d="M98.88,65a2.13,2.13,0,0,1,.62.62c.53,1.1,0,1.7-.62,1.32a2.13,2.13,0,0,1-.62-.62C97.73,65.21,98.22,64.61,98.88,65Z"/>
              </g>
              <path d="M98.88,69.86a4.15,4.15,0,0,1,1.26,1.26c1.08,2.26.09,3.48-1.27,2.7a4.13,4.13,0,0,1-1.25-1.26C96.54,70.31,97.53,69.08,98.88,69.86Z" style="fill: #fff"/>
              <path d="M98.88,75.74A4.15,4.15,0,0,1,100.14,77c1.08,2.26.09,3.48-1.27,2.7a4,4,0,0,1-1.25-1.26C96.54,76.19,97.53,75,98.88,75.74Z" style="fill: #fff"/>
              <g style="opacity: 0.5">
                <path d="M98.88,76.75a2.13,2.13,0,0,1,.62.62c.53,1.1,0,1.7-.62,1.32a2,2,0,0,1-.62-.61C97.73,77,98.22,76.37,98.88,76.75Z"/>
              </g>
              <path d="M98.88,81.63a4,4,0,0,1,1.26,1.25c1.08,2.26.09,3.48-1.27,2.7a4,4,0,0,1-1.25-1.26C96.54,82.07,97.53,80.85,98.88,81.63Z" style="fill: #fff"/>
              <g style="opacity: 0.5">
                <path d="M98.88,82.63a2.13,2.13,0,0,1,.62.62c.53,1.11,0,1.7-.62,1.32a2,2,0,0,1-.62-.61C97.73,82.85,98.22,82.25,98.88,82.63Z"/>
              </g>
              <path d="M98.88,87.51a4,4,0,0,1,1.26,1.25c1.08,2.26.09,3.48-1.27,2.7a4,4,0,0,1-1.25-1.26C96.54,88,97.53,86.73,98.88,87.51Z" style="fill: #fff"/>
              <polygon points="121.6 110.47 102.11 99.22 102.11 95.58 121.6 106.84 121.6 110.47" style="fill: #fff"/>
              <polygon points="120.26 108.43 103.28 98.61 103.28 97.58 120.26 107.4 120.26 108.43" style="opacity: 0.15"/>
              <path d="M98.88,93.46a4.15,4.15,0,0,1,1.26,1.26c1.08,2.26.09,3.48-1.27,2.7a4.25,4.25,0,0,1-1.25-1.26C96.54,93.91,97.53,92.68,98.88,93.46Z" style="fill: #fff"/>
            </g>
            <g>
              <polygon points="150.14 127.12 125.54 112.83 125.54 107.35 150.14 121.64 150.14 127.12" style="fill: #fff"/>
              <polygon points="150.14 99.51 125.54 85.22 125.54 79.74 150.14 94.03 150.14 99.51" style="fill: #fff"/>
              <polygon points="150.14 106.59 125.54 92.3 125.54 86.82 150.14 101.11 150.14 106.59" style="fill: #fff"/>
              <polygon points="150.14 113.49 125.54 99.2 125.54 93.72 150.14 108.01 150.14 113.49" style="fill: #fff"/>
              <polygon points="150.14 120.43 125.54 106.14 125.54 100.65 150.14 114.94 150.14 120.43" style="fill: #fff"/>
              <g style="opacity: 0.5">
                <path d="M148.27,95a.68.68,0,0,1,.21.23c.1.2.09.4,0,.45l-1.14.52a.25.25,0,0,1-.2,0,.51.51,0,0,1-.18-.18l-1.14-1.85c-.12-.19-.13-.4,0-.48a.18.18,0,0,1,.21,0,.57.57,0,0,1,.19.19l1,1.54,1-.44A.23.23,0,0,1,148.27,95Z"/>
              </g>
              <g style="opacity: 0.5">
                <path d="M148.26,101.93a.7.7,0,0,1,.22.23c.1.19.09.4,0,.45l-1.14.52a.21.21,0,0,1-.19,0,.53.53,0,0,1-.19-.2l-1.14-1.84c-.12-.19-.13-.4,0-.47a.2.2,0,0,1,.21,0,.61.61,0,0,1,.19.2l1,1.53,1-.43A.17.17,0,0,1,148.26,101.93Z"/>
              </g>
              <g style="opacity: 0.5">
                <path d="M148.27,108.88a.64.64,0,0,1,.21.22c.1.2.09.4,0,.45l-1.14.52a.19.19,0,0,1-.19,0,.53.53,0,0,1-.19-.2L145.79,108c-.12-.18-.13-.39,0-.47a.2.2,0,0,1,.21,0,.61.61,0,0,1,.19.2l1,1.54,1-.44A.2.2,0,0,1,148.27,108.88Z"/>
              </g>
              <g style="opacity: 0.5">
                <path d="M148.26,115.87a.61.61,0,0,1,.22.23c.1.19.09.4,0,.44l-1.14.53a.21.21,0,0,1-.19,0,.53.53,0,0,1-.19-.2L145.79,115c-.12-.19-.13-.4,0-.47a.18.18,0,0,1,.21,0,.57.57,0,0,1,.19.19l1,1.54,1-.44A.2.2,0,0,1,148.26,115.87Z"/>
              </g>
              <g style="opacity: 0.5">
                <path d="M148.27,122.52a.6.6,0,0,1,.21.23c.1.2.09.4,0,.44l-1.14.53a.19.19,0,0,1-.19,0,.57.57,0,0,1-.19-.19l-1.14-1.85c-.12-.19-.13-.4,0-.48a.18.18,0,0,1,.21,0,.57.57,0,0,1,.19.19l1,1.54,1-.44A.23.23,0,0,1,148.27,122.52Z"/>
              </g>
            </g>
          </g>
          <g>
            <g>
              <path d="M99.24,103c-.13-.15.15-.23.22-.42.15-.4,0-.82.58-1.32.07-.06.12-.18.21-.2.36-.11.46.08.48.33.6-.25,1.55-1.58,1.7-1,.08.28-.91,1-1.07,1.18,0,0,.32-.21.37-.25s.47-.34.56-.08-.09.32-.22.44-.25.22-.21.2.45-.33.54,0a.31.31,0,0,1-.12.29,2.09,2.09,0,0,1-.22.2c.26-.1.48.15.23.37a4.89,4.89,0,0,1-2.18,1.15s0,0,0,0,0,0,0,0l-.06-.09c-.06-.09-.09-.06-.16-.15S99.39,103.18,99.24,103Z" style="fill: #fcd4bd"/>
              <path d="M89.71,109.23c.47-1.11,4.72-3.55,4.72-3.55.66-.48,2.83-2,4.57-3.24a2.56,2.56,0,0,1,1.79,1.62,33.7,33.7,0,0,0-2.31,2.82,10.74,10.74,0,0,1-2.06,1.74h0l-1.48,1.14c-1.48.91-3,1.9-4.71,1.89A2.91,2.91,0,0,1,89.71,109.23Z" style="fill: #cbd2da"/>
              <path d="M95.13,107.5v.15l0,1.33a1.82,1.82,0,0,1-.31.36h-.11c-1-.1-2.17-.31-2.17-1a0,0,0,0,0,0,0l.06-1h.11l1.74.15Z" style="fill: #fcd4bd"/>
              <path d="M92.2,108.13a5.57,5.57,0,0,0-.06,1.69c0,.55.13-.23.64,0a2.83,2.83,0,0,0,1.63.09,1,1,0,0,0,.65-.32c.21-.22.21-1.13,0-1.14a7.67,7.67,0,0,0-.83,0,3.14,3.14,0,0,1-1.32-.22C92.64,108.1,92.52,107.82,92.2,108.13Z" style="fill: #f6f8fc"/>
              <path d="M89.84,139.83s-.17,1.44.32,1.85a1.63,1.63,0,0,0,1.19-.16c.37-.16.74-.47,1.1-.59a2.42,2.42,0,0,0,1.63-1.64c.76-1.53-.94-.82-2-.19A5.41,5.41,0,0,1,89.84,139.83Z" style="fill: #16181d"/>
              <path d="M93.7,129.36c-.1.82-.27,1.63-.4,2.44-.08.47,0,.82-.13,1.29-.16.93-.12,5.28-.12,6.77,0,.3-3.25,1.27-3.34.82a33.92,33.92,0,0,1-.14-5.3c.11-1,.36-10.31.3-10.93-.1-1,0-2.67.83-3.2,1.28-.79,2.88,1,3.23,1.74C94.43,124.08,94.11,125.68,93.7,129.36Z" style="fill: #0c7c90"/>
              <path d="M93.84,141.79s-.52,1.33-.16,1.87a1.61,1.61,0,0,0,1.19.18c.39-.05.83-.24,1.21-.26a2.36,2.36,0,0,0,2-1.11c1.12-1.27-.7-1.06-1.91-.76A5.48,5.48,0,0,1,93.84,141.79Z" style="fill: #16181d"/>
              <path d="M97.57,129.39h0c-1,8.11-.64,7-.67,12.79,0,.47-.12.38-1.56.6a3.24,3.24,0,0,1-.93.06c-.93-.12-1.07-.81-1.09-1.57S93.06,131,95.22,131A11.39,11.39,0,0,0,97.57,129.39Z" style="fill: #0d8ea8"/>
              <path d="M97.79,123.92c-.09,2.06-.1,4-.22,5.47h0a6,6,0,0,1-.85,2.92c-.32.75-.28,1.3-.7,1.67a1,1,0,0,1-1.19,0c-.36-.22-.85,1.55-1,1.12a18.79,18.79,0,0,1-.18-2.27c-.17-3.56-1.7-5.91-1.37-8.83C92.3,123.91,97.79,123.92,97.79,123.92Z" style="fill: #0d8ea8"/>
              <path d="M98.65,111.34s-.08.56-.2,1.36c0,0,0,.09,0,.14-.17,1.18-.39,2.82-.5,4,0,.39-.06.73-.06,1,0,1.28-.16,12.62-.09,13.75a.6.6,0,0,1-.28.54,5.3,5.3,0,0,1-.57.3,4.12,4.12,0,0,1-1,.29,6.18,6.18,0,0,1-.81.1,13.42,13.42,0,0,1-3.41-.14,4.91,4.91,0,0,1-2.21-.93.65.65,0,0,1-.23-.48h0c0-1.22.24-10.88,1-13.66.55-2.17-.81-6-.75-7.25,0-1,.42-2.33,2.7-2l3,.68C95.79,109.36,98.4,109.83,98.65,111.34Z" style="fill: #e9ecee"/>
              <path d="M96,106.62a2,2,0,0,1-.89,1,1.36,1.36,0,0,1-.48.16l-.09,0a.9.9,0,0,1-.46-.08c-.28-.14-1.29,0-1.39-.26a1.17,1.17,0,0,1,0-.2,10.25,10.25,0,0,1,.54-2.63,3.06,3.06,0,0,1,1-1.74,4,4,0,0,1,1.5-.85l.28.33.23.28a9.36,9.36,0,0,0,0,2A4.45,4.45,0,0,1,96,106.62Z" style="fill: #fcd4bd"/>
              <path d="M96.24,104.66a9.36,9.36,0,0,1,0-2L96,102.4l-.08.43A7.22,7.22,0,0,1,96,106a2.34,2.34,0,0,1-.51,1.09,1,1,0,0,1-1.1.31l.06,0a.84.84,0,0,1,.25.37,1.23,1.23,0,0,1,.08.38,1.93,1.93,0,0,1,0,.24,1,1,0,0,1,.34,0h0l0-.79a2,2,0,0,0,.89-1A4.45,4.45,0,0,0,96.24,104.66Z" style="fill: #fcd4bd"/>
              <path d="M96.62,102.52c-.05.4-.39.37-.61.72s-.25.75-.5,1.15c-.09.14-.44,1.51-.85,1.27-.61-.35.08,1.27-1,1.86a2.09,2.09,0,0,1-.93,0,.57.57,0,0,1-.3-.21l0,0a12.08,12.08,0,0,1-1.71-2,3.86,3.86,0,0,1-.26-1.62,2.57,2.57,0,0,1,.59-1.35,2.85,2.85,0,0,1,1.06-1,4.38,4.38,0,0,1,2.59-.36l.33,0c.19,0,.39.09.58.15l.24.13c.82.45.8.92.81,1A2.34,2.34,0,0,1,96.62,102.52Z" style="fill: #2b140f"/>
              <path d="M94.6,105.58a.63.63,0,0,1,0,.89.64.64,0,0,1-.85-.24.65.65,0,0,1,0-.89A.64.64,0,0,1,94.6,105.58Z" style="fill: #fcd4bd"/>
              <path d="M94.9,108.7a2.52,2.52,0,0,1,.53.17.44.44,0,0,1,.25.35A9.26,9.26,0,0,1,93,109a2.42,2.42,0,0,1-1.29-.65c-.25-.4,1.23,0,1.39.08.59.16,1.23.17,1.83.3Z" style="fill: #fcfdfc"/>
            </g>
            <path d="M100,124.07l.81-.1c.06.48.09.79.09.79a4.35,4.35,0,0,1,.3.35c.19.32.27.69.46,1,0,.09.28.37.25.49a.13.13,0,0,1-.07,0c-.35.12-.52-.23-.64-.51,0,.14.06.29.09.43s.25,1,0,1.07-.15-.13-.18-.2a8.41,8.41,0,0,1-.3-1c.06.3.12.58.17.87,0,.13.1.66-.1.69a.14.14,0,0,1-.14-.09,4.27,4.27,0,0,1-.19-.82c0,.18,0,.36,0,.54s0,.25-.09.29-.19-.1-.22-.19a6.39,6.39,0,0,1-.2-1.06,7.39,7.39,0,0,1,0,1,0,0,0,0,1,0,0s0,.06-.09,0a.34.34,0,0,1-.11-.18c-.12-.42-.19-.67-.32-1.08a4.76,4.76,0,0,1-.11-.64c0-.22,0-.39-.07-.6s0-.29,0-.46h0s-.06-.18-.17-.48A7.25,7.25,0,0,1,100,124.07Z" style="fill: #fcd4bd"/>
            <path d="M96.71,110.87a1.05,1.05,0,0,1,1.35-.49,1.53,1.53,0,0,1,.59.88l1.43,6.43c.15.8.89,4.75,1.27,6.85a2.55,2.55,0,0,1-2.24.93c-.68-1.8-1.55-3.94-1.85-4.63a10.58,10.58,0,0,1-.69-2.61s0,0,0,0l-.4-1.81C96,114.47,95.7,112.5,96.71,110.87Z" style="fill: #fcfdfc"/>
          </g>
          <g>
            <line x1="183.09" y1="142.32" x2="183.09" y2="142.32" style="fill: none;stroke: #00709e;stroke-linecap: round;stroke-linejoin: round;stroke-width: 1.88751888275147px"/>
            <line x1="187.73" y1="142.32" x2="255.04" y2="142.32" style="fill: none;stroke: #00709e;stroke-linecap: round;stroke-linejoin: round;stroke-width: 1.88751888275147px;stroke-dasharray: 0,4.642050266265869"/>
            <line x1="257.36" y1="142.32" x2="257.36" y2="142.32" style="fill: none;stroke: #00709e;stroke-linecap: round;stroke-linejoin: round;stroke-width: 1.88751888275147px"/>
            <rect x="182.14" y="136.19" width="1.89" height="12.27" style="fill: #00709e"/>
            <polygon points="251.1 150.04 249.82 148.66 256.63 142.32 249.82 135.99 251.1 134.6 259.4 142.32 251.1 150.04" style="fill: #00709e"/>
          </g>
          <g>
            <rect x="281.46" y="83.51" width="58.28" height="78.75" style="fill: #fff;opacity: 0.5"/>
            <rect x="278.36" y="86.85" width="58.28" height="78.75" style="fill: #fff;opacity: 0.5"/>
            <rect x="275.36" y="90.85" width="58.28" height="78.75" style="fill: #fff;opacity: 0.5"/>
            <rect x="272.36" y="94.85" width="58.28" height="78.75" style="fill: #fff;stroke: #004b6b;stroke-miterlimit: 10;stroke-opacity: 0.2"/>
            <g>
              <rect x="276.54" y="100.24" width="23.41" height="2.69" style="fill: #89d6f2"/>
              <rect x="276.54" y="104.23" width="14.27" height="2.69" style="fill: #89d6f2"/>
              <rect x="276.54" y="115.05" width="49.87" height="1.6" style="fill: #89d6f2"/>
              <rect x="276.54" y="117.95" width="49.87" height="1.6" style="fill: #89d6f2"/>
              <rect x="276.54" y="120.85" width="49.87" height="1.6" style="fill: #89d6f2"/>
              <rect x="276.54" y="123.76" width="49.87" height="1.6" style="fill: #89d6f2"/>
              <rect x="276.54" y="126.66" width="49.87" height="1.6" style="fill: #89d6f2"/>
              <rect x="276.54" y="129.56" width="49.87" height="1.6" style="fill: #89d6f2"/>
              <rect x="276.54" y="132.47" width="49.87" height="1.6" style="fill: #89d6f2"/>
              <rect x="276.54" y="135.37" width="28.42" height="1.6" style="fill: #89d6f2"/>
              <rect x="306.87" y="160.61" width="19.54" height="1.6" style="fill: #89d6f2"/>
              <rect x="318.04" y="163.16" width="8.36" height="1.09" style="fill: #89d6f2"/>
            </g>
            <path d="M305.94,157.33a13.75,13.75,0,0,0,9.21-3,12.22,12.22,0,0,0,1.74-1.71,4.45,4.45,0,0,0,1-2.07,2.26,2.26,0,0,0-.66-2,1.75,1.75,0,0,0-2-.11,17.19,17.19,0,0,0-4.08,2.64,4.14,4.14,0,0,0-1.23,1.88,2.09,2.09,0,0,0,.55,2,2.87,2.87,0,0,0,2,.89,4.25,4.25,0,0,0,2.2-.61,11.12,11.12,0,0,0,3.26-3.54l.48.34a2.35,2.35,0,0,0,.83,3.36,2.44,2.44,0,0,0,3.24-1.53l.27.05a2,2,0,0,0,1.07,2,2,2,0,0,0,2.28-.39,2.1,2.1,0,0,1-2.35.53,2.18,2.18,0,0,1-1.28-2.14l.28,0a2.76,2.76,0,0,1-3.7,1.87A2.69,2.69,0,0,1,317.6,154a2.77,2.77,0,0,1,.36-2.33l.48.34a11.11,11.11,0,0,1-3.41,3.79,4.85,4.85,0,0,1-2.56.72A3.6,3.6,0,0,1,310,155.4a2.84,2.84,0,0,1-.75-2.64,4.58,4.58,0,0,1,1.45-2.24,17.75,17.75,0,0,1,4.32-2.74,3.14,3.14,0,0,1,1.35-.29,2.08,2.08,0,0,1,1.34.54,2.85,2.85,0,0,1,.83,2.58,5,5,0,0,1-1.22,2.32,12.71,12.71,0,0,1-1.87,1.73A13.31,13.31,0,0,1,305.94,157.33Z" style="fill: #004b6b"/>
          </g>
        </g>
      </g>
    </g>
  </g>
</svg>
