<svg xmlns="http://www.w3.org/2000/svg" xmlns:xlink="http://www.w3.org/1999/xlink" viewBox="0 0 407 266">
  <defs>
    <linearGradient id="linear-gradient" x1="3152.87" y1="2246.71" x2="3234.5" y2="2406.91" gradientTransform="matrix(-0.94, -0.14, 0.14, -1.15, 2893.65, 3276.47)" gradientUnits="userSpaceOnUse">
      <stop offset="0" stop-color="#a4d8c8"/>
      <stop offset="0.98" stop-color="#12a0c6"/>
    </linearGradient>
    <linearGradient id="linear-gradient-2" x1="108.51" y1="140.71" x2="114.83" y2="213.41" gradientTransform="translate(-4.9)" gradientUnits="userSpaceOnUse">
      <stop offset="0" stop-color="#fff"/>
      <stop offset="1" stop-color="#a8c2d6"/>
    </linearGradient>
    <linearGradient id="linear-gradient-3" x1="2776.66" y1="138.61" x2="2783.82" y2="138.61" gradientTransform="matrix(-1, 0, 0, 1, 2874.31, 0)" gradientUnits="userSpaceOnUse">
      <stop offset="0" stop-color="#a9b9d5"/>
      <stop offset="1" stop-color="#95a9c8"/>
    </linearGradient>
    <linearGradient id="linear-gradient-4" x1="2772.49" y1="155.5" x2="2777.73" y2="155.5" xlink:href="#linear-gradient-3"/>
    <linearGradient id="linear-gradient-5" x1="2759.91" y1="132.13" x2="2783.26" y2="132.13" xlink:href="#linear-gradient-3"/>
    <linearGradient id="linear-gradient-6" x1="2731.3" y1="101.39" x2="2816.77" y2="101.39" xlink:href="#linear-gradient-3"/>
    <linearGradient id="linear-gradient-7" x1="2808.11" y1="96.22" x2="2816.36" y2="96.22" gradientTransform="matrix(-1, 0, 0, 1, 2874.31, 0)" gradientUnits="userSpaceOnUse">
      <stop offset="0.01" stop-color="#e3e7f0"/>
      <stop offset="0.27" stop-color="#dee3ee"/>
      <stop offset="0.6" stop-color="#cfd7e7"/>
      <stop offset="0.95" stop-color="#b7c4db"/>
      <stop offset="1" stop-color="#b3c1d9"/>
    </linearGradient>
    <linearGradient id="linear-gradient-8" x1="2777.65" y1="155.21" x2="2766.04" y2="44.89" gradientTransform="matrix(-1, 0, 0, 1, 2874.31, 0)" gradientUnits="userSpaceOnUse">
      <stop offset="0" stop-color="#52c7ea"/>
      <stop offset="0.29" stop-color="#3dc5ee"/>
      <stop offset="1" stop-color="#26aee4"/>
    </linearGradient>
    <linearGradient id="linear-gradient-9" x1="2732.73" y1="102.42" x2="2811.46" y2="102.42" xlink:href="#linear-gradient-3"/>
    <linearGradient id="linear-gradient-10" x1="3937.33" y1="144.59" x2="3943" y2="209.87" gradientTransform="matrix(-1, 0, 0, 1, 4247.02, 0)" gradientUnits="userSpaceOnUse">
      <stop offset="0" stop-color="#fff"/>
      <stop offset="1" stop-color="#a9c3d7"/>
    </linearGradient>
  </defs>
  <title>isohero-nspeech</title>
  <g style="isolation: isolate">
    <g id="arte">
      <g>
        <path d="M266.32,54.94C313.88,60.52,376,96,370,141c-13.61,102.11-110,42-201,67C103.68,226,54,180.7,59.67,141.94,71.22,62.91,180.65,44.88,266.32,54.94Z" style="fill: url(#linear-gradient)"/>
        <g>
          <g style="mix-blend-mode: multiply">
            <path d="M168,169.92l-55.88-32.75a6,6,0,0,0-5.45,0L44.8,172.73c-1.5.87-1.49,2.29,0,3.16l55.88,32.75a6,6,0,0,0,5.45,0L168,173.08C169.52,172.21,169.52,170.8,168,169.92Z" style="fill: url(#linear-gradient-2)"/>
          </g>
          <g style="isolation: isolate">
            <path d="M168,144.74,112.12,112a6,6,0,0,0-5.45,0L44.8,147.55c-1.5.87-1.49,2.28,0,3.16l55.88,32.75a6,6,0,0,0,5.45,0L168,147.9C169.52,147,169.52,145.61,168,144.74Z" style="fill: #b8e3ef"/>
            <path d="M168,147.9l-61.87,35.56a6,6,0,0,1-5.45,0L44.82,150.71a1.94,1.94,0,0,1-1.14-1.59v3.59a1.94,1.94,0,0,0,1.14,1.59l55.88,32.75a6,6,0,0,0,5.45,0L168,151.49a1.9,1.9,0,0,0,1.12-1.57v-3.59A1.9,1.9,0,0,1,168,147.9Z" style="fill: #95d3eb"/>
          </g>
        </g>
        <g>
          <g>
            <g>
              <g>
                <path d="M96.6,153.82l-3.22-2.69a8,8,0,0,1-2.89-6.19V123.4h1v21.54a7,7,0,0,0,2.52,5.4l3.62,3Z" style="fill: url(#linear-gradient-3)"/>
                <polygon points="101.81 157.21 101.8 157.21 101.8 157.93 96.61 153.82 96.58 153.79 97.1 153.49 97.21 153.57 101.81 157.21" style="fill: #fafbfb"/>
                <polygon points="101.81 157.21 101.8 157.21 101.8 157.93 96.61 153.82 96.58 153.79 96.58 153.06 96.93 153.34 97.1 153.49 97.21 153.57 101.81 157.21" style="fill: url(#linear-gradient-4)"/>
                <path d="M127.72,142.39l-25.91,14.82-4.6-3.64-.11-.08-.17-.15h-.05l-.3-.26-2.91-2.44-.1-.09A6.94,6.94,0,0,1,91,145.24V124.36l.47-.25,16.1-8.91,5.74-5.22h1v21.54c0,.13,0,.26,0,.38a7,7,0,0,0,2.51,5c.09.07.21.16.35.25C118.71,138.12,123.09,140.23,127.72,142.39Z" style="fill: #fff"/>
                <path d="M114.39,131.9,91,145.24V125.92c1.65-1.62,2.87-2.7,3-2.52.38.45,15.28-3.69,20.31-4.38v12.5C114.38,131.65,114.38,131.78,114.39,131.9Z" style="fill: url(#linear-gradient-5)"/>
              </g>
              <polygon points="101.81 157.21 127.72 142.39 127.72 143.12 101.8 157.93 101.81 157.21" style="fill: #fafbfb"/>
              <path d="M117.25,137.17,93.67,150.64l-.1-.09A6.94,6.94,0,0,1,91,145.24l23.35-13.34a7,7,0,0,0,2.51,5C117,137,117.11,137.08,117.25,137.17Z" style="fill: #cbd2db"/>
            </g>
            <g>
              <path d="M143,47.28l-.56.11h0l-1.17.23c0,.13,0,.26.07.39a8.7,8.7,0,0,1,.07,1.06l-.12,12.28L141,103.24c0,3.27-2,7.06-4.51,8.46L61.19,155l-.13.07.58,2.09-2.56-1.51a3.63,3.63,0,0,1-1.53-3.05c0-.19,0-.38,0-.57L58,98V97.9a11.23,11.23,0,0,1,2.37-6.54,7.63,7.63,0,0,1,2.13-1.92l75.3-43.34a2.89,2.89,0,0,1,2.82-.25h0l2.12,1.26Z" style="fill: url(#linear-gradient-6)"/>
              <path d="M142.69,47.1l-.24.29h0l-1.1.62L62.9,92.58l-2.58-1.22a7.63,7.63,0,0,1,2.13-1.92l75.3-43.34a2.89,2.89,0,0,1,2.82-.25h0Z" style="fill: #fff"/>
              <path d="M66.2,94.2l-2.8,6.89L58,98V97.9a11.23,11.23,0,0,1,2.37-6.54Z" style="fill: url(#linear-gradient-7)"/>
              <path d="M144.58,50.92l-.05,5.4h0l-.07,6.87-.28,41.89c0,3.26-2,7-4.52,8.46l-27.58,15.64L82.45,146l-.69.41L64.37,156.88c-2,1.15-3.7.34-4.25-1.78a6,6,0,0,1-.16-1c0-.19,0-.37,0-.57l0-6.16.12-15.88.23-32.13c0-3.27,2.06-7.06,4.52-8.46L95.93,73.25l.07,0,10.62-6.31,13.46-8h0l15.56-8.83,4.51-2.55c1.64-.94,3.07-.57,3.84.75A5.43,5.43,0,0,1,144.58,50.92Z" style="fill: #fafbfb"/>
              <g>
                <polygon points="62.85 97.84 62.85 153 86.27 139.32 86.56 139.15 107.01 127.2 107.43 126.95 108.62 126.26 111.55 124.55 112 124.28 112.91 123.75 113.67 123.3 115.89 122.01 119.38 119.97 121.71 118.61 123.66 117.47 126.38 115.88 128.56 114.6 130.31 113.58 132.24 112.46 141.58 107 141.58 51.83 113.95 67.97 113.26 68.38 111.81 69.22 110.91 69.75 110.48 70 110.15 70.2 105.61 72.85 103.64 74 100.16 76.03 98.87 76.79 98.69 76.89 93.05 80.19 91.16 81.29 86.01 84.3 83.64 85.69 80.54 87.5 62.85 97.84" style="fill: url(#linear-gradient-8)"/>
                <polygon points="140.46 52.48 140.46 106.39 62.85 151.75 62.85 153 141.58 107 141.58 51.83 140.46 52.48" style="fill: url(#linear-gradient-9)"/>
                <polygon points="62.85 153 141.58 107 140.46 106.39 62.85 151.75 62.85 153" style="fill: #fff"/>
              </g>
            </g>
          </g>
          <g style="opacity: 0.6000000000000001">
            <g style="opacity: 0.4">
              <polygon points="138.91 55.3 138.91 106.11 67.54 147.31 67.54 96.5 138.91 55.3" style="fill: #004b6b"/>
            </g>
          </g>
          <polygon points="106.41 82 135.37 65.18 135.37 61.95 106.41 78.77 106.41 82" style="fill: #89d6f2"/>
          <polygon points="72.55 112.86 101.51 96.03 101.51 81.33 72.55 98.16 72.55 112.86" style="fill: #89d6f2"/>
          <polygon points="106.41 88.2 135.37 71.37 135.37 68.15 106.41 84.97 106.41 88.2" style="fill: #89d6f2"/>
          <polygon points="106.41 94.39 135.37 77.57 135.37 74.34 106.41 91.17 106.41 94.39" style="fill: #89d6f2"/>
          <polygon points="106.41 100.59 135.37 83.77 135.37 80.54 106.41 97.36 106.41 100.59" style="fill: #89d6f2"/>
          <polygon points="106.41 106.79 135.37 89.96 135.37 86.74 106.41 103.56 106.41 106.79" style="fill: #89d6f2"/>
          <polygon points="106.41 112.98 135.37 96.16 135.37 92.93 106.41 109.76 106.41 112.98" style="fill: #89d6f2"/>
          <polygon points="106.41 119.18 127.12 107.11 127.12 103.88 106.41 115.95 106.41 119.18" style="fill: #89d6f2"/>
        </g>
        <g>
          <g>
            <g style="mix-blend-mode: multiply">
              <path d="M252.17,169.19l47.58-27.88a6,6,0,0,1,5.45,0l57,33.35c1.5.87,1.49,2.29,0,3.16L314.6,205.7a6,6,0,0,1-5.45,0l-57-33.35C250.65,171.48,250.65,170.06,252.17,169.19Z" style="fill: url(#linear-gradient-10)"/>
            </g>
            <g style="isolation: isolate">
              <path d="M252.17,144l47.58-27.88a6,6,0,0,1,5.45,0l57,33.35c1.5.87,1.49,2.29,0,3.16L314.6,180.52a6,6,0,0,1-5.45,0l-57-33.35C250.65,146.29,250.65,144.88,252.17,144Z" style="fill: #b8e3f0"/>
              <path d="M252.15,147.17l57,33.35a6,6,0,0,0,5.45,0l47.58-27.88a1.94,1.94,0,0,0,1.14-1.59v3.59a1.93,1.93,0,0,1-1.14,1.59l-47.58,27.88a6,6,0,0,1-5.45,0l-57-33.35a1.9,1.9,0,0,1-1.12-1.57V145.6A1.91,1.91,0,0,0,252.15,147.17Z" style="fill: #95d4ec"/>
            </g>
          </g>
          <g>
            <path d="M299.94,151.49a9.24,9.24,0,0,0,1.49-.7,3.91,3.91,0,0,1,2.6-.21,2.11,2.11,0,0,1,1.1.27,14.8,14.8,0,0,0,2.16.53,18.3,18.3,0,0,0,2.72.5,6.37,6.37,0,0,1,1.56.21,4.46,4.46,0,0,1,1.49.64c.66.43.65,1,.81,1.72a3.31,3.31,0,0,1,0,1.5,4.17,4.17,0,0,1-.77.86,3.11,3.11,0,0,1-.93.71,5.05,5.05,0,0,1-2.38.59,60.46,60.46,0,0,1-6.14-.6,13.87,13.87,0,0,1-2.86-.53c-.81-.28-1.53-.68-2.32-1s-1.52-.19-1.73-1a1.78,1.78,0,0,1,.22-1.45A4.83,4.83,0,0,1,299.94,151.49Z" style="fill: #015866;opacity: 0.1"/>
            <path d="M299,116.76l1.08.54a2.5,2.5,0,0,1,.46,1.84l-.1.72L300.3,121l.2,1.12s.06.73-.53.56l-.29-.88.05.73s.48.94-.34,1l-.14-.24a.47.47,0,0,1-.55.27,7.25,7.25,0,0,1-.64-2.22.63.63,0,0,1-.51.14l.09-2.41Z" style="fill: #df9877"/>
            <path d="M300.69,117.76l-.28.83a2.36,2.36,0,0,1-2.21-.69l.23-.84A3,3,0,0,0,300.69,117.76Z" style="fill: #edf3f3"/>
            <path d="M300.83,96.85c.73-1.28,4.31-2.22,4.31-2.22S303.65,109,303.65,109l-3.08,9.28s-2.62,0-2.89-.75l2-8.82S299.4,99.38,300.83,96.85Z" style="fill: #fff"/>
            <path d="M300.83,96.85c.73-1.28,4.31-2.22,4.31-2.22S303.65,109,303.65,109l-3.08,9.28s-2.62,0-2.89-.75l2-8.82S299.4,99.38,300.83,96.85Z" style="fill: #edf3f3"/>
            <g>
              <g>
                <path d="M298.56,151.92l2.78-2.78h3l.31,2.11a1.27,1.27,0,0,1-.65,1.11l-1.24.37a7.34,7.34,0,0,0-2.22,1.11,3.89,3.89,0,0,1-2.92.57c-.66-.22-1-.35-.74-1A3.26,3.26,0,0,1,298.56,151.92Z" style="fill: #183f42"/>
                <path d="M307.47,154.16l2.18-2.93h2.93l.23,2a1.25,1.25,0,0,1-.64,1.09l-2.93,2.43a2.79,2.79,0,0,1-2.16.66,1.56,1.56,0,0,1-1.44-1.15l0-.11C305.8,155.45,307,154.69,307.47,154.16Z" style="fill: #183f42"/>
                <path d="M301.25,113.8l4.37,1.49.55,6.66-1,12.32-.47,15.31a3.59,3.59,0,0,1-3.93-.15l-.4-16.4s.15-8.91.4-11.82C301.18,116.36,301.25,113.8,301.25,113.8Z" style="fill: #183f42"/>
                <path d="M301,128.38c.1,2.87,0,5.85.29,8.76.12,4.43.25,8.45.62,12.86a3.44,3.44,0,0,1-1.2-.57l-.4-16.4s.15-8.76.4-11.75C300.79,123.65,301,126,301,128.38Z" style="opacity: 0.07"/>
                <path d="M313,123.29l-.51,12.15.35,16.16s-2.12,1.55-3.58-.06l-2.09-16.08-1.52-13.32-1.79-6.25,8.84-.41S313.23,117,313,123.29Z" style="fill: #183f42"/>
                <path d="M301.19,99c0-1.87,1-3.11,2.27-3.41,3.5-.83,4-1.56,6-.8a24.1,24.1,0,0,1,5,2.76l-1.41,5.06-.87,7.52.61,6.38c-4.47,3.6-11.77.14-11.77.14s.06-5.6.21-7.7a31.4,31.4,0,0,0-.13-3.21C300.35,102.44,301.16,101.25,301.19,99Z" style="fill: #ffde73"/>
                <path d="M313,123.29l-.51,12.15.35,16.16a3.86,3.86,0,0,1-.68.38c0-.68-.09-1.35-.15-2,0-5-.18-9.62-.26-14.65,0-2.41-.11-4.79-.23-7.17a32.52,32.52,0,0,0-.14-10c0-.16,0-.32,0-.49a1.94,1.94,0,0,0-.25-1.06c-.06-.33-.11-.66-.16-1l1.71-.08S313.23,117,313,123.29Z" style="opacity: 0.07"/>
                <path d="M306.63,124.65c.53,2.47,1.13,7.83,1.54,10.32a8.56,8.56,0,0,0,.15,2.25,2.14,2.14,0,0,0,.07.48c1.28,4.91,1.63,9.56,2.31,14.57a2.06,2.06,0,0,1-1.47-.73l-2.09-16.08-1.22-10.68-1.11-1.34S306.56,124.33,306.63,124.65Z" style="opacity: 0.07"/>
                <path d="M300.5,98.57c.26-1.85.91-2.69,2.18-3.06.2-.05,1.47-.58,1.47-.55,0,.59-.23,7.33.27,9.83,0,0-2.81,20.15-1.57,28.28-3-.51-3.15-1.4-3.15-1.4s.63-20,.79-22.06C300.55,108.73,300.05,101.81,300.5,98.57Z" style="fill: #edf3f3"/>
                <path d="M305.26,105.23c.87-1.28,3.63-10.65,4.24-10.43a24.1,24.1,0,0,1,5,2.76l-1.41,5.06.33,8.73.52,20.49c-2.18,1.76-6.11,1.82-8.93,1.34C303.81,125.05,305.81,113.35,305.26,105.23Z" style="fill: #edf3f3"/>
                <path d="M313.23,108.56c0-.15.07-.3.1-.44l.13,3.23.52,20.49a8.12,8.12,0,0,1-4.09,1.49C313.44,126,313.25,116,313.23,108.56Z" style="opacity: 0.06"/>
                <path d="M316.45,120.32l.71,3.41-.39,1.21-.89.68s-.49.78-.55.86a.35.35,0,0,1-.63-.22l.06-.37,0-1.12-.37-1.19h0l0-.13.09,1c0,.91-.63.88-.63.88l-.27-3,.67-2.27Z" style="fill: #df9877"/>
                <g>
                  <path d="M309.5,94.8a2.19,2.19,0,1,1-4.38,0V91.22h4.05Z" style="fill: #df9877"/>
                  <path d="M309.24,92a2.4,2.4,0,0,0-.07.62c0,1.63-1.62,3.93-3.41,2.78a1.76,1.76,0,0,1-.64-1.68V91.22h4.05Z" style="opacity: 0.07"/>
                  <path d="M310,91.81c0,1.83-2.2,2.7-3.27,2.85A2.47,2.47,0,0,1,304,92V87.29l6.34,1.13Z" style="fill: #df9877"/>
                  <g>
                    <path d="M304.81,85.4c2.51-1.58,4.68-.66,6.18,1.23.73.92.23,2.77,0,3.64a6.66,6.66,0,0,1-1.64,3l-.19-3.12-.36.62-.53-.38s.23-1.33.22-1.55c0-.75-4.49-.86-4.49-.86S302.06,87.12,304.81,85.4Z" style="fill: #574539"/>
                    <path d="M309.39,93.62l1,1.49a5.16,5.16,0,0,1-3.64,3.25l-.54-1.69A3.46,3.46,0,0,0,309.39,93.62Z" style="fill: #f5f5f5"/>
                    <path d="M306.17,96.67a6.56,6.56,0,0,0-1.33,1.19s-.57-2.68.28-3.53A2.68,2.68,0,0,0,306.17,96.67Z" style="fill: #f5f5f5"/>
                  </g>
                </g>
                <path d="M316.63,119.3l-.07,1.25a2.69,2.69,0,0,1-2.38-.27l-.05-1.07S314.57,119.67,316.63,119.3Z" style="fill: #edf3f3"/>
                <path d="M312.93,97c2.66-.25,3.05,4.16,3.05,4.16l1.16,8.62L317,120a3.54,3.54,0,0,1-3.2-.22l-.57-9.32-1.8-8.42S311.37,97.16,312.93,97Z" style="fill: #edf3f3"/>
                <path d="M314.9,98.37a1,1,0,0,1,.07-.29,7.68,7.68,0,0,1,1,3.09l1.16,8.62L317,120a3.11,3.11,0,0,1-2.07.16c.84-3.7,1.66-7.41,1.19-11.23C315.69,105.58,315.6,102.34,314.9,98.37Z" style="opacity: 0.06"/>
              </g>
              <path d="M310.25,90.36c.11.8-.43,1.69-1.08,1.39l-.06-1.45S310.12,89.27,310.25,90.36Z" style="fill: #df9877"/>
            </g>
            <path d="M302.14,96.68a8.51,8.51,0,0,1,2.07-1.78l.72-.32a11.16,11.16,0,0,0-.64,2.2c-.3,1.49.15,8.07.15,8.07a23,23,0,0,0-2.65-6.38l1-1.62Z" style="opacity: 0.06"/>
            <path d="M302.59,96.52a8,8,0,0,1,1.62-1.62l.72-.32a11.16,11.16,0,0,0-.64,2.2c-.3,1.49.15,8.07.15,8.07a41,41,0,0,0-2.2-6.54l1.05-1.62Z" style="fill: #fff"/>
            <path d="M310,94.46a8.92,8.92,0,0,0,1,1c.4.26.47,2.38.47,2.38l-.79,0,0,1.75c-1.79.62-5.49,5.67-5.49,5.67a27.46,27.46,0,0,1,3.28-6.9A10.64,10.64,0,0,0,310,94.46Z" style="opacity: 0.06"/>
            <path d="M310,94.46a8.92,8.92,0,0,0,1,1c.4.26.18,2.28.18,2.28l-.79,0,.05,1.75c-1.8.62-5.21,5.77-5.21,5.77a27.46,27.46,0,0,1,3.28-6.9A10.64,10.64,0,0,0,310,94.46Z" style="fill: #fff"/>
            <path d="M311,105.58v3.5s-2.23,1.14-3.54-.22l.17-3.28Z" style="fill: #f6fbfb"/>
            <path d="M309.6,93.94l.34.19c.1.1,1,1.3-.13,4.53a10.14,10.14,0,0,0-.74,5l-.27.06c0-.08-.44-1.91.75-5.2S309.61,94,309.6,93.94Z" style="fill: #183f42"/>
            <path d="M305.13,94.31l-.16.19c-.09,0-2.05.51-2,4.37l-.23,0C302.86,94.16,305.09,94.38,305.13,94.31Z" style="fill: #183f42"/>
            <path d="M308.88,102.78a.91.91,0,1,1-.92.91A.91.91,0,0,1,308.88,102.78Z" style="fill: #b3b3b4"/>
            <path d="M308.21,103.69a.67.67,0,1,0,.67-.67A.67.67,0,0,0,308.21,103.69Zm.28,0a.39.39,0,1,1,.77,0,.39.39,0,0,1-.77,0Z" style="fill: #787877"/>
            <path d="M301.56,99.75a1.71,1.71,0,0,1,1.29-.86,1,1,0,0,1,1.07.33c.95,1.16-.36,4.92-.71,5.88a.21.21,0,0,1,0,.17l-.15.39a.23.23,0,0,1-.28.09.21.21,0,0,1-.13-.26l.15-.38a.2.2,0,0,1,.19-.1c.35-1,1.6-4.61.74-5.66a.86.86,0,0,0-.87-.26,1.55,1.55,0,0,0-1.15.76c-.69,1.21,0,3.44.22,4.17a.19.19,0,0,1,.16.11l.13.39a.22.22,0,0,1-.15.25.2.2,0,0,1-.27-.11l-.13-.39a.18.18,0,0,1,.06-.18C301.5,103.33,300.82,101,301.56,99.75Z" style="fill: #a6a6a5"/>
            <path d="M302.85,98.89a1,1,0,0,1,1.07.33,2.56,2.56,0,0,1,.32,1.77l-.2,0a2.34,2.34,0,0,0-.28-1.59.86.86,0,0,0-.87-.26,1.55,1.55,0,0,0-1.15.76,2.72,2.72,0,0,0-.29,1.31l-.22.11a3.1,3.1,0,0,1,.33-1.52A1.71,1.71,0,0,1,302.85,98.89Z" style="fill: #183f42"/>
            <path d="M307.19,93a9.3,9.3,0,0,1-2.11-.55c-.16-.22-.33-.57-.21-.66C306.08,90.89,307.19,93,307.19,93Z" style="fill: #574539"/>
            <path d="M305.16,91.83c.09.12,0,.41-.24.56a5.12,5.12,0,0,1-1.57-.15S304.36,90.64,305.16,91.83Z" style="fill: #574539"/>
            <path d="M304.31,92.86a1,1,0,0,0,.67.46,3.29,3.29,0,0,0,1-.23,3.6,3.6,0,0,0,1.56-.75c.37-.28.54-1.17.81-2.31l.61.64s-.11,2.71-1.41,3.73a2.83,2.83,0,0,1-2.72.83c-.62-.23-1.3-1-1.27-2.91l.42-2S303.89,92.34,304.31,92.86Z" style="fill: #574539"/>
          </g>
          <g>
            <path d="M307.18,41.71l56,32.35,0,29.2L312.14,73.77l-4.94,1.62Z" style="fill: #f2c94d;opacity: 0.8"/>
            <path d="M321.59,57.14l12.28,7.09v2.56l-12.28-7.08Z" style="fill: #fff;isolation: isolate"/>
            <path d="M321.59,62.27l22.17,12.8v2.57l-22.17-12.8Z" style="fill: #fff;isolation: isolate"/>
            <path d="M321.6,67.41,350.27,84v2.57L321.6,70Z" style="fill: #fff;isolation: isolate"/>
            <path d="M318.57,58.07c0,2.41-1.42,3.53-3.18,2.52s-3.18-3.79-3.18-6.19,1.42-3.54,3.18-2.52S318.57,55.66,318.57,58.07Z" style="fill: #fff;isolation: isolate"/>
          </g>
        </g>
        <g>
          <path d="M79.72,125.06c0,6.26,3.7,9.2,8.27,6.56s8.28-9.85,8.28-16.11-3.7-9.2-8.27-6.56S79.72,118.8,79.72,125.06Z" style="fill: #f2c94d"/>
          <g style="opacity: 0.6000000000000001">
            <g>
              <path d="M92.2,116.86c.19-.12.35,0,.36.2v1.23a8.77,8.77,0,0,1-3.39,6.44v.86l1.25-.72c.2-.11.36,0,.36.21v.41a.78.78,0,0,1-.36.61l-3.57,2.07c-.2.11-.36,0-.36-.21v-.41a.79.79,0,0,1,.35-.61l1.25-.73v-.88c-2,.83-3.4-.4-3.41-2.7v-1a.79.79,0,0,1,.36-.62l.35-.2c.2-.12.36,0,.36.2v1.09c0,1.71,1.09,2.62,2.58,1.93a1.91,1.91,0,0,0,.28-.15,6.31,6.31,0,0,0,2.86-4.94v-1.23a.79.79,0,0,1,.36-.62Z" style="fill: #231f20"/>
              <path d="M88.63,123c-1.18.68-2.15.13-2.15-1.23v-4.11A4.73,4.73,0,0,1,88.61,114c1.18-.68,2.15-.13,2.15,1.23l-1.91,1.1a.47.47,0,0,0-.24.34v.41c0,.12.11.15.23.07l1.91-1.1v.83l-1.9,1.1a.49.49,0,0,0-.24.34v.41c0,.11.11.15.24.07l1.91-1.1v.82l-1.91,1.11a.45.45,0,0,0-.24.34v.41c0,.11.1.14.23.07l1.91-1.11A4.71,4.71,0,0,1,88.63,123Z" style="fill: #231f20"/>
            </g>
          </g>
        </g>
        <g>
          <line x1="238.39" y1="146.98" x2="238.39" y2="146.98" style="fill: none;stroke: #00709e;stroke-linecap: round;stroke-linejoin: round;stroke-width: 1.88751888275147px"/>
          <line x1="233.61" y1="146.98" x2="183.38" y2="146.98" style="fill: none;stroke: #00709e;stroke-linecap: round;stroke-linejoin: round;stroke-width: 1.88751888275147px;stroke-dasharray: 0,4.783016681671143"/>
          <line x1="180.99" y1="146.98" x2="180.99" y2="146.98" style="fill: none;stroke: #00709e;stroke-linecap: round;stroke-linejoin: round;stroke-width: 1.88751888275147px"/>
          <rect x="237.45" y="140.84" width="1.89" height="12.27" style="fill: #00709e"/>
          <polygon points="187.25 139.26 188.53 140.64 181.72 146.98 188.53 153.31 187.25 154.7 178.95 146.98 187.25 139.26" style="fill: #00709e"/>
        </g>
      </g>
    </g>
  </g>
</svg>
