<svg xmlns="http://www.w3.org/2000/svg" xmlns:xlink="http://www.w3.org/1999/xlink" viewBox="0 0 344 266">
  <defs>
    <linearGradient id="linear-gradient" x1="2042.26" y1="172.86" x2="2053.82" y2="172.86" gradientTransform="matrix(-1, 0, 0, 1, 2143.77, 0)" gradientUnits="userSpaceOnUse">
      <stop offset="0" stop-color="#a9b9d5"/>
      <stop offset="1" stop-color="#95a9c8"/>
    </linearGradient>
    <linearGradient id="linear-gradient-2" x1="-58.9" y1="132.95" x2="-55.55" y2="132.95" gradientTransform="translate(333.91)" xlink:href="#linear-gradient"/>
    <linearGradient id="linear-gradient-3" x1="2175.07" y1="2399.8" x2="2275.73" y2="2597.35" gradientTransform="matrix(-1.04, -0.08, 0.09, -0.96, 2276.86, 2749.55)" gradientUnits="userSpaceOnUse">
      <stop offset="0" stop-color="#a4d8c8"/>
      <stop offset="0.98" stop-color="#12a0c6"/>
    </linearGradient>
    <linearGradient id="linear-gradient-4" x1="69.99" y1="149.48" x2="77.46" y2="235.37" gradientUnits="userSpaceOnUse">
      <stop offset="0" stop-color="#a9c3d7"/>
      <stop offset="1" stop-color="#fff"/>
    </linearGradient>
    <linearGradient id="linear-gradient-5" x1="2047.67" y1="170.03" x2="2061.8" y2="170.03" xlink:href="#linear-gradient"/>
    <clipPath id="clip-path">
      <path id="SVGID" d="M101.51,171.07l-6.15,3.58c-1.38.8-3.3.69-5.4-.53l6.15-3.57C98.22,171.77,100.13,171.88,101.51,171.07Z" style="fill: url(#linear-gradient)"/>
    </clipPath>
    <linearGradient id="linear-gradient-7" x1="2046.96" y1="172.52" x2="2053.82" y2="172.52" xlink:href="#linear-gradient"/>
    <linearGradient id="linear-gradient-8" x1="2045.02" y1="173.01" x2="2053.11" y2="173.01" xlink:href="#linear-gradient"/>
    <linearGradient id="linear-gradient-9" x1="2042.26" y1="173.12" x2="2051.17" y2="173.12" xlink:href="#linear-gradient"/>
    <clipPath id="clip-path-2">
      <path id="SVGID-2" data-name="SVGID" d="M90,156l6.15-3.58a18,18,0,0,1,8.14,14.1c0,.11,0,.23,0,.34l-6.15,3.57c0-.11,0-.22,0-.34A18,18,0,0,0,90,156Z" style="fill: #fafbfb"/>
    </clipPath>
    <linearGradient id="linear-gradient-10" x1="2039.99" y1="159.93" x2="2052.36" y2="159.93" xlink:href="#linear-gradient"/>
    <linearGradient id="linear-gradient-11" x1="2068.44" y1="156.68" x2="2073.43" y2="156.68" xlink:href="#linear-gradient"/>
    <linearGradient id="linear-gradient-12" x1="2073.42" y1="157.76" x2="2082.17" y2="157.76" xlink:href="#linear-gradient"/>
    <linearGradient id="linear-gradient-13" x1="2086.34" y1="162.49" x2="2106.89" y2="162.49" xlink:href="#linear-gradient"/>
    <clipPath id="clip-path-3">
      <path id="SVGID-3" data-name="SVGID" d="M68.91,116.16l4.7,2.74c2.36,1.36,3.82,4.27,3.83,8.41,0,8.33-5.83,18.47-13.08,22.65l-4.7-2.73c7.24-4.19,13.1-14.33,13.07-22.65C72.72,120.44,71.26,117.53,68.91,116.16Z" style="fill: none"/>
    </clipPath>
    <linearGradient id="linear-gradient-14" x1="2070.9" y1="144.33" x2="2084.12" y2="144.33" xlink:href="#linear-gradient"/>
    <linearGradient id="linear-gradient-15" x1="2068.03" y1="137.24" x2="2075.61" y2="137.24" xlink:href="#linear-gradient"/>
    <linearGradient id="linear-gradient-16" x1="2066.33" y1="125.97" x2="2074.87" y2="125.97" xlink:href="#linear-gradient"/>
    <clipPath id="clip-path-4">
      <path id="SVGID-4" data-name="SVGID" d="M55,150.88l-4.71-2.74c2.39,1.39,5.69,1.19,9.34-.91l4.7,2.73C60.72,152.07,57.41,152.26,55,150.88Z" style="fill: none"/>
    </clipPath>
    <linearGradient id="linear-gradient-17" x1="2085.79" y1="149.94" x2="2093.45" y2="149.94" xlink:href="#linear-gradient"/>
    <linearGradient id="linear-gradient-18" x1="2079.41" y1="149.49" x2="2090.5" y2="149.49" xlink:href="#linear-gradient"/>
    <clipPath id="clip-path-5">
      <path id="SVGID-5" data-name="SVGID" d="M75.09,105.53l4.7,2.73c-4-2.31-9.47-2-15.54,1.52l-4.71-2.73C65.61,103.54,71.11,103.22,75.09,105.53Z" style="fill: #fafbfb"/>
    </clipPath>
    <clipPath id="clip-path-6">
      <path id="SVGID-6" data-name="SVGID" d="M48.85,161.51l-4.71-2.74c-3.92-2.27-6.35-7.12-6.37-14,0-13.86,9.71-30.75,21.77-37.71l4.71,2.73c-12.07,7-21.81,23.85-21.78,37.72C42.49,154.38,44.93,159.23,48.85,161.51Z" style="fill: #fafbfb"/>
    </clipPath>
    <linearGradient id="linear-gradient-19" x1="2052.07" y1="152.96" x2="2102.79" y2="152.96" xlink:href="#linear-gradient"/>
    <clipPath id="clip-path-7">
      <path id="SVGID-7" data-name="SVGID" d="M107,155.12v1a.76.76,0,0,1-.45.63v-1A.78.78,0,0,0,107,155.12Z" style="fill: #186d7d"/>
    </clipPath>
    <clipPath id="clip-path-8">
      <path id="SVGID-8" data-name="SVGID" d="M76.25,156.53v-1a.78.78,0,0,0,.46.65v1A.76.76,0,0,1,76.25,156.53Z" style="fill: #186d7d"/>
    </clipPath>
    <clipPath id="clip-path-9">
      <path id="SVGID-9" data-name="SVGID" d="M92.39,164v1a2.46,2.46,0,0,1-2.21,0v-1A2.38,2.38,0,0,0,92.39,164Z" style="fill: #186d7d"/>
    </clipPath>
    <clipPath id="clip-path-10">
      <path id="SVGID-10" data-name="SVGID" d="M53.29,143.36v-1a.86.86,0,0,0,.5.7v1A.85.85,0,0,1,53.29,143.36Z" style="fill: #186d7d"/>
    </clipPath>
    <clipPath id="clip-path-11">
      <path id="SVGID-11" data-name="SVGID" d="M90.31,145.66v1a.85.85,0,0,1-.5.69v-1A.83.83,0,0,0,90.31,145.66Z" style="fill: #186d7d"/>
    </clipPath>
    <clipPath id="clip-path-12">
      <path id="SVGID-12" data-name="SVGID" d="M75.89,154.45v1a2.69,2.69,0,0,1-2.41,0v-1A2.61,2.61,0,0,0,75.89,154.45Z" style="fill: #186d7d"/>
    </clipPath>
    <clipPath id="clip-path-13">
      <path id="SVGID-13" data-name="SVGID" d="M67.17,132v1a.76.76,0,0,1-.45.63v-1A.79.79,0,0,0,67.17,132Z" style="fill: #186d7d"/>
    </clipPath>
    <clipPath id="clip-path-14">
      <path id="SVGID-14" data-name="SVGID" d="M44.5,138.1v-1a.75.75,0,0,0,.46.64v1A.8.8,0,0,1,44.5,138.1Z" style="fill: #186d7d"/>
    </clipPath>
    <clipPath id="clip-path-15">
      <path id="SVGID-15" data-name="SVGID" d="M52.6,140.81v1a2.46,2.46,0,0,1-2.21,0v-1A2.4,2.4,0,0,0,52.6,140.81Z" style="fill: #186d7d"/>
    </clipPath>
    <linearGradient id="linear-gradient-20" x1="-9324.42" y1="127.37" x2="-9311.23" y2="144.07" gradientTransform="translate(4840.47 8137.41) rotate(60)" gradientUnits="userSpaceOnUse">
      <stop offset="0" stop-color="#aadde5"/>
      <stop offset="1" stop-color="#0f0f10"/>
    </linearGradient>
    <linearGradient id="linear-gradient-21" x1="2094.93" y1="146.09" x2="2106" y2="146.09" xlink:href="#linear-gradient"/>
    <linearGradient id="linear-gradient-22" x1="273.71" y1="158.33" x2="279.37" y2="223.36" gradientUnits="userSpaceOnUse">
      <stop offset="0" stop-color="#fff"/>
      <stop offset="1" stop-color="#a9c3d7"/>
    </linearGradient>
    <linearGradient id="linear-gradient-23" x1="10330.86" y1="121.74" x2="10426.71" y2="172.91" gradientTransform="matrix(-1, 0, 0, 1, 10644.9, 0)" gradientUnits="userSpaceOnUse">
      <stop offset="0.01" stop-color="#e3e7f0"/>
      <stop offset="0.27" stop-color="#dee3ee"/>
      <stop offset="0.6" stop-color="#cfd7e7"/>
      <stop offset="0.95" stop-color="#b7c4db"/>
      <stop offset="1" stop-color="#b3c1d9"/>
    </linearGradient>
    <linearGradient id="linear-gradient-24" x1="2287.74" y1="142.98" x2="2289.39" y2="142.98" gradientTransform="matrix(-1, 0, 0, 1, 2559.46, 0)" gradientUnits="userSpaceOnUse">
      <stop offset="0.01" stop-color="#e3e7f0"/>
      <stop offset="1" stop-color="#b3c1d9"/>
    </linearGradient>
    <linearGradient id="linear-gradient-25" x1="10320.27" y1="171.78" x2="10425.25" y2="171.78" gradientTransform="matrix(-1, 0, 0, 1, 10644.9, 0)" xlink:href="#linear-gradient"/>
    <linearGradient id="linear-gradient-26" x1="10315.77" y1="131" x2="10380.12" y2="131" gradientTransform="matrix(-1, 0, 0, 1, 10644.9, 0)" xlink:href="#linear-gradient"/>
    <linearGradient id="linear-gradient-27" x1="2241.85" y1="164.56" x2="2323.49" y2="164.56" gradientTransform="matrix(-1, 0, 0, 1, 2559.46, 0)" xlink:href="#linear-gradient-23"/>
    <linearGradient id="linear-gradient-28" x1="10336.5" y1="127.57" x2="10380.36" y2="144.58" gradientTransform="matrix(-1, 0, 0, 1, 10644.9, 0)" gradientUnits="userSpaceOnUse">
      <stop offset="0" stop-color="#091e32"/>
      <stop offset="1" stop-color="#004b6b"/>
    </linearGradient>
    <linearGradient id="linear-gradient-29" x1="2236.21" y1="132.75" x2="2292.64" y2="132.75" gradientTransform="matrix(-1, 0, 0, 1, 2559.46, 0)" xlink:href="#linear-gradient-23"/>
    <linearGradient id="linear-gradient-30" x1="-57.33" y1="132.13" x2="-53.23" y2="132.13" gradientTransform="translate(333.91)" xlink:href="#linear-gradient"/>
    <clipPath id="clip-path-16">
      <path id="SVGID-16" data-name="SVGID" d="M275,132.43l1.79,1a1.55,1.55,0,0,0,1.56-.15l-1.78-1A1.52,1.52,0,0,1,275,132.43Z" style="fill: url(#linear-gradient-2)"/>
    </clipPath>
    <linearGradient id="linear-gradient-32" x1="-57.53" y1="132.85" x2="-55.55" y2="132.85" gradientTransform="translate(333.91)" xlink:href="#linear-gradient"/>
    <linearGradient id="linear-gradient-33" x1="-58.1" y1="133" x2="-55.75" y2="133" gradientTransform="translate(333.91)" xlink:href="#linear-gradient"/>
    <linearGradient id="linear-gradient-34" x1="-58.9" y1="133.03" x2="-56.31" y2="133.03" gradientTransform="translate(333.91)" xlink:href="#linear-gradient"/>
    <clipPath id="clip-path-17">
      <path id="SVGID-17" data-name="SVGID" d="M278.35,128.07l-1.78-1a5.24,5.24,0,0,0-2.36,4.09v.1l1.78,1v-.1a5.2,5.2,0,0,1,2.36-4.08Z" style="fill: #fafbfb"/>
    </clipPath>
    <linearGradient id="linear-gradient-35" x1="-59.55" y1="129.21" x2="-55.97" y2="129.21" gradientTransform="translate(333.91)" xlink:href="#linear-gradient"/>
    <linearGradient id="linear-gradient-36" x1="-51.31" y1="128.26" x2="-49.86" y2="128.26" gradientTransform="translate(333.91)" xlink:href="#linear-gradient"/>
    <linearGradient id="linear-gradient-37" x1="-49.86" y1="128.57" x2="-47.33" y2="128.57" gradientTransform="translate(333.91)" xlink:href="#linear-gradient"/>
    <linearGradient id="linear-gradient-38" x1="-46.12" y1="129.95" x2="-40.16" y2="129.95" gradientTransform="translate(333.91)" xlink:href="#linear-gradient"/>
    <clipPath id="clip-path-18">
      <path id="SVGID-18" data-name="SVGID" d="M284.47,116.52l-1.37.79a2.69,2.69,0,0,0-1.11,2.44,8.4,8.4,0,0,0,3.79,6.57l1.37-.8a8.34,8.34,0,0,1-3.79-6.56A2.63,2.63,0,0,1,284.47,116.52Z" style="fill: none"/>
    </clipPath>
    <linearGradient id="linear-gradient-39" x1="-50.6" y1="124.68" x2="-46.76" y2="124.68" gradientTransform="translate(333.91)" xlink:href="#linear-gradient"/>
    <linearGradient id="linear-gradient-40" x1="-51.43" y1="122.63" x2="-49.23" y2="122.63" gradientTransform="translate(333.91)" xlink:href="#linear-gradient"/>
    <linearGradient id="linear-gradient-41" x1="-51.92" y1="119.36" x2="-49.45" y2="119.36" gradientTransform="translate(333.91)" xlink:href="#linear-gradient"/>
    <clipPath id="clip-path-19">
      <path id="SVGID-19" data-name="SVGID" d="M288.49,126.58l1.36-.79a2.68,2.68,0,0,1-2.7-.27l-1.37.8A2.69,2.69,0,0,0,288.49,126.58Z" style="fill: none"/>
    </clipPath>
    <linearGradient id="linear-gradient-42" x1="-46.28" y1="126.31" x2="-44.06" y2="126.31" gradientTransform="translate(333.91)" xlink:href="#linear-gradient"/>
    <linearGradient id="linear-gradient-43" x1="-48.13" y1="126.18" x2="-44.91" y2="126.18" gradientTransform="translate(333.91)" xlink:href="#linear-gradient"/>
    <clipPath id="clip-path-20">
      <path id="SVGID-20" data-name="SVGID" d="M282.67,113.44l-1.36.79c1.15-.67,2.75-.58,4.51.44l1.36-.79C285.42,112.86,283.83,112.77,282.67,113.44Z" style="fill: #fafbfb"/>
    </clipPath>
    <clipPath id="clip-path-21">
      <path id="SVGID-21" data-name="SVGID" d="M290.28,129.66l1.36-.79c1.14-.66,1.85-2.07,1.85-4.06a13.9,13.9,0,0,0-6.31-10.93l-1.36.79a13.93,13.93,0,0,1,6.31,10.93C292.12,127.6,291.42,129,290.28,129.66Z" style="fill: #fafbfb"/>
    </clipPath>
    <linearGradient id="linear-gradient-44" x1="-56.05" y1="127.19" x2="-41.35" y2="127.19" gradientTransform="translate(333.91)" xlink:href="#linear-gradient"/>
    <clipPath id="clip-path-22">
      <path id="SVGID-22" data-name="SVGID" d="M273.43,127.81v.28a.23.23,0,0,0,.14.19V128C273.48,127.94,273.43,127.88,273.43,127.81Z" style="fill: #186d7d"/>
    </clipPath>
    <clipPath id="clip-path-23">
      <path id="SVGID-23" data-name="SVGID" d="M282.34,127.94a.23.23,0,0,1-.14.18v.29" style="fill: #186d7d"/>
    </clipPath>
    <clipPath id="clip-path-24">
      <path id="SVGID-24" data-name="SVGID" d="M277.66,130.38v.28a.72.72,0,0,0,.64,0v-.28A.72.72,0,0,1,277.66,130.38Z" style="fill: #186d7d"/>
    </clipPath>
    <clipPath id="clip-path-25">
      <path id="SVGID-25" data-name="SVGID" d="M289,124.4v-.28a.26.26,0,0,1-.14.2v.28A.25.25,0,0,0,289,124.4Z" style="fill: #186d7d"/>
    </clipPath>
    <clipPath id="clip-path-26">
      <path id="SVGID-26" data-name="SVGID" d="M278.26,125.07v.28a.24.24,0,0,0,.15.2v-.28A.26.26,0,0,1,278.26,125.07Z" style="fill: #186d7d"/>
    </clipPath>
    <clipPath id="clip-path-27">
      <path id="SVGID-27" data-name="SVGID" d="M283.14,127.9v-.28a.78.78,0,0,1-.7,0" style="fill: #186d7d"/>
    </clipPath>
    <clipPath id="clip-path-28">
      <path id="SVGID-28" data-name="SVGID" d="M285,121.1v.28a.23.23,0,0,0,.13.19v-.29A.21.21,0,0,1,285,121.1Z" style="fill: #186d7d"/>
    </clipPath>
    <clipPath id="clip-path-29">
      <path id="SVGID-29" data-name="SVGID" d="M291.54,122.88v-.29a.23.23,0,0,1-.14.19v.28A.24.24,0,0,0,291.54,122.88Z" style="fill: #186d7d"/>
    </clipPath>
    <clipPath id="clip-path-30">
      <path id="SVGID-30" data-name="SVGID" d="M289.19,123.66V124a.72.72,0,0,0,.64,0v-.29A.66.66,0,0,1,289.19,123.66Z" style="fill: #186d7d"/>
    </clipPath>
    <linearGradient id="linear-gradient-45" x1="-43.63" y1="125.19" x2="-40.42" y2="125.19" gradientTransform="translate(333.91)" xlink:href="#linear-gradient"/>
  </defs>
  <title>isohero-nmonitor</title>
  <g style="isolation: isolate">
    <g id="arte">
      <g>
        <path d="M185.84,87.83c58.69,10.23,144,6.51,157.22,60.51,10.8,43.93-59.37,129.79-243.66,93.19C16.74,225.12-.32,173.38,4.11,140.88,13.15,74.6,94.84,72,185.84,87.83Z" style="fill: url(#linear-gradient-3)"/>
        <g>
          <g>
            <g style="mix-blend-mode: multiply">
              <path d="M145.45,184.45,78.59,145.26a6,6,0,0,0-5.45,0l-72,42.17c-1.5.87-1.49,2.29,0,3.16L68,229.78a6,6,0,0,0,5.46,0l72-42.17C147,186.74,147,185.32,145.45,184.45Z" style="fill: url(#linear-gradient-4)"/>
            </g>
            <g style="isolation: isolate">
              <path d="M145.45,159.27,78.59,120.08a6,6,0,0,0-5.45,0l-72,42.17c-1.5.87-1.49,2.28,0,3.16L68,204.59a6,6,0,0,0,5.46,0l72-42.17C147,161.55,147,160.14,145.45,159.27Z" style="fill: #b8e3f0"/>
              <path d="M145.47,162.42l-72,42.17a6,6,0,0,1-5.46,0L1.15,165.41A1.94,1.94,0,0,1,0,163.82v3.59A1.94,1.94,0,0,0,1.14,169L68,208.19a6,6,0,0,0,5.46,0l72-42.17a1.91,1.91,0,0,0,1.12-1.57v-3.59A1.9,1.9,0,0,1,145.47,162.42Z" style="fill: #95d4ec"/>
            </g>
          </g>
          <g>
            <g style="isolation: isolate">
              <polygon points="81.97 169.51 88.12 165.94 96.11 170.55 89.95 174.13 81.97 169.51" style="fill: url(#linear-gradient-5)"/>
              <g>
                <path id="SVGID-31" data-name="SVGID" d="M101.51,171.07l-6.15,3.58c-1.38.8-3.3.69-5.4-.53l6.15-3.57C98.22,171.77,100.13,171.88,101.51,171.07Z" style="fill: url(#linear-gradient)"/>
                <g style="clip-path: url(#clip-path)">
                  <g style="isolation: isolate">
                    <path d="M90,174.12l6.15-3.57a7.88,7.88,0,0,0,.7.37l-6.15,3.57a7.88,7.88,0,0,1-.7-.37Z" style="fill: url(#linear-gradient-7)"/>
                    <path d="M90.66,174.49l6.15-3.57a7,7,0,0,0,1.94.61l-6.15,3.58a7.36,7.36,0,0,1-1.94-.62Z" style="fill: url(#linear-gradient-8)"/>
                    <path d="M92.6,175.11l6.15-3.58a4.14,4.14,0,0,0,2.76-.46l-6.15,3.58a4.2,4.2,0,0,1-2.76.46Z" style="fill: url(#linear-gradient-9)"/>
                  </g>
                </g>
              </g>
              <polygon points="98.14 170.44 104.29 166.87 104.27 175.91 98.12 179.49 98.14 170.44" style="fill: #fafbfb"/>
              <polygon points="85.28 153.28 91.43 149.7 96.16 152.43 90.01 156.01 85.28 153.28" style="fill: #fff"/>
              <g style="isolation: isolate">
                <path id="SVGID-32" data-name="SVGID" d="M90,156l6.15-3.58a18,18,0,0,1,8.14,14.1c0,.11,0,.23,0,.34l-6.15,3.57c0-.11,0-.22,0-.34A18,18,0,0,0,90,156Z" style="fill: #fafbfb"/>
                <g style="clip-path: url(#clip-path-2)">
                  <g style="isolation: isolate">
                    <path d="M90,156l6.15-3.58a15.15,15.15,0,0,1,1.41.95L91.41,157a11.92,11.92,0,0,0-1.4-1Z" style="fill: #fff"/>
                    <path d="M91.41,157l6.16-3.58a18,18,0,0,1,4.35,5.14,19,19,0,0,1,1.86,4.38l-6.15,3.58a19.27,19.27,0,0,0-1.86-4.39A17.86,17.86,0,0,0,91.41,157Z" style="fill: url(#linear-gradient-10)"/>
                    <path d="M97.63,166.48l6.15-3.58a14.6,14.6,0,0,1,.48,2.67l-6.15,3.58a14.45,14.45,0,0,0-.48-2.67Z" style="fill: #fafbfb"/>
                    <path d="M98.11,169.15l6.15-3.58c0,.32,0,.64,0,1,0,.11,0,.23,0,.34l-6.15,3.57c0-.11,0-.22,0-.34,0-.31,0-.63,0-.95Z" style="fill: #fafbfb"/>
                  </g>
                </g>
              </g>
              <path d="M90,156a18,18,0,0,1,8.14,14.09c0,.12,0,.23,0,.34l0,9.05L90,174.77l-8-4.61v-.65l8,4.61c4.19,2.42,7.61.48,7.62-4.34A16.69,16.69,0,0,0,90,156.65l-4.73-2.73v-.64Z" style="fill: #cbd2db"/>
            </g>
            <g style="isolation: isolate">
              <polygon points="70.34 153.18 70.35 157.29 75.33 160.18 75.32 156.07 70.34 153.18" style="fill: url(#linear-gradient-11)"/>
              <polygon points="75.32 156.07 75.33 160.18 84.49 154.9 84.47 150.78 75.32 156.07" style="fill: #fafbfb"/>
              <polygon points="61.6 158.22 61.61 162.34 70.35 157.29 70.34 153.18 61.6 158.22" style="fill: url(#linear-gradient-12)"/>
              <polygon points="57.42 166.4 57.43 170.51 66.59 165.23 66.58 161.12 57.42 166.4" style="fill: #fafbfb"/>
              <polygon points="57.42 166.4 52.44 163.51 41.86 157.36 36.88 154.47 36.89 158.58 41.87 161.47 52.46 167.62 57.43 170.51 57.42 166.4" style="fill: url(#linear-gradient-13)"/>
              <polygon points="36.88 154.47 41.86 157.36 52.44 163.51 57.42 166.4 66.58 161.12 61.6 158.22 70.34 153.18 75.32 156.07 84.47 150.78 79.5 147.89 68.91 141.74 63.93 138.85 36.88 154.47" style="fill: #fafbfb"/>
            </g>
            <g style="isolation: isolate">
              <g style="isolation: isolate">
                <g style="clip-path: url(#clip-path-3)">
                  <g>
                    <path d="M64.36,150l-4.7-2.73a26.16,26.16,0,0,0,8.51-8.53l4.7,2.73A26,26,0,0,1,64.36,150Z" style="fill: url(#linear-gradient-14)"/>
                    <path d="M72.87,141.43l-4.7-2.73A32,32,0,0,0,71,133l4.71,2.74a31.28,31.28,0,0,1-2.87,5.65Z" style="opacity: 0;fill: url(#linear-gradient-15)"/>
                    <path d="M75.74,135.78,71,133a23.67,23.67,0,0,0,1.7-8.46c0-4.14-1.47-7-3.82-8.42l4.7,2.74c2.36,1.36,3.82,4.27,3.83,8.41a23.76,23.76,0,0,1-1.7,8.47Z" style="fill: url(#linear-gradient-16)"/>
                  </g>
                </g>
              </g>
              <g style="isolation: isolate">
                <g style="clip-path: url(#clip-path-4)">
                  <g>
                    <path d="M55,150.88l-4.71-2.74a6.64,6.64,0,0,0,3,.87L58,151.75a6.73,6.73,0,0,1-2.95-.87Z" style="fill: url(#linear-gradient-17)"/>
                    <path d="M58,151.75,53.27,149a11.6,11.6,0,0,0,6.39-1.78l4.7,2.73A11.56,11.56,0,0,1,58,151.75Z" style="fill: url(#linear-gradient-18)"/>
                  </g>
                </g>
              </g>
              <g>
                <path id="SVGID-33" data-name="SVGID" d="M75.09,105.53l4.7,2.73c-4-2.31-9.47-2-15.54,1.52l-4.71-2.73C65.61,103.54,71.11,103.22,75.09,105.53Z" style="fill: #fafbfb"/>
                <g style="clip-path: url(#clip-path-5)">
                  <g>
                    <path d="M64.25,109.78l-4.71-2.73a19.15,19.15,0,0,1,10.63-3l4.71,2.73a19.21,19.21,0,0,0-10.63,3Z" style="fill: #fafbfb"/>
                    <path d="M74.88,106.81l-4.71-2.73a11,11,0,0,1,4.92,1.45l4.7,2.73a11.17,11.17,0,0,0-4.91-1.45Z" style="fill: #fafbfb"/>
                  </g>
                </g>
              </g>
              <g>
                <path id="SVGID-34" data-name="SVGID" d="M48.85,161.51l-4.71-2.74c-3.92-2.27-6.35-7.12-6.37-14,0-13.86,9.71-30.75,21.77-37.71l4.71,2.73c-12.07,7-21.81,23.85-21.78,37.72C42.49,154.38,44.93,159.23,48.85,161.51Z" style="fill: #fafbfb"/>
                <g style="clip-path: url(#clip-path-6)">
                  <g style="isolation: isolate">
                    <path d="M50.08,124l-4.71-2.74a43.47,43.47,0,0,1,14.17-14.2l4.71,2.73C58.83,112.91,53.89,118,50.08,124Z" style="fill: #fafbfb"/>
                  </g>
                </g>
              </g>
              <path d="M86.17,122.27c0-13.86-9.86-19.45-21.92-12.49a35.66,35.66,0,0,0-6.47,4.86c2.28,1.68,4.39,3.48,6.58,5.12,7.21-4.11,13.06-.74,13.08,7.55S71.61,145.78,64.36,150A13.32,13.32,0,0,1,60,151.62c.14,1.53.26,3.06.36,4.6l18.23-10.53C83.26,138.4,86.19,129.88,86.17,122.27Z" style="fill: #fff"/>
            </g>
            <g>
              <g>
                <g style="isolation: isolate">
                  <polygon points="108.02 156.9 108.01 159.34 91.69 168.83 91.7 166.39 108.02 156.9" style="fill: #fafbfb"/>
                  <polygon points="91.7 166.39 91.69 168.83 40.98 139.54 40.99 137.1 91.7 166.39" style="fill: url(#linear-gradient-19)"/>
                  <polygon points="108.02 156.9 91.7 166.39 40.99 137.1 57.31 127.61 108.02 156.9" style="fill: #fff"/>
                </g>
                <g style="isolation: isolate">
                  <g>
                    <path id="SVGID-35" data-name="SVGID" d="M107,155.12v1a.76.76,0,0,1-.45.63v-1A.78.78,0,0,0,107,155.12Z" style="fill: #186d7d"/>
                    <g style="clip-path: url(#clip-path-7)">
                      <g style="isolation: isolate">
                        <path d="M107,155.12v1a.58.58,0,0,1-.16.4v-1a.64.64,0,0,0,.17-.41Z" style="fill: #186d7d"/>
                        <path d="M106.8,155.53v1a.85.85,0,0,1-.29.23v-1a1.18,1.18,0,0,0,.29-.23Z" style="fill: #186d7d"/>
                      </g>
                    </g>
                  </g>
                  <g>
                    <path id="SVGID-36" data-name="SVGID" d="M76.25,156.53v-1a.78.78,0,0,0,.46.65v1A.76.76,0,0,1,76.25,156.53Z" style="fill: #186d7d"/>
                    <g style="clip-path: url(#clip-path-8)">
                      <path d="M76.71,156.2v1a.76.76,0,0,1-.46-.64v-1a.78.78,0,0,0,.46.65Z" style="fill: #186d7d"/>
                    </g>
                  </g>
                  <polygon points="106.51 155.76 106.51 156.73 92.39 164.95 92.39 163.97 106.51 155.76" style="fill: #186d7d"/>
                  <polygon points="90.19 163.97 90.18 164.95 76.71 157.17 76.71 156.2 90.19 163.97" style="fill: #186d7d"/>
                  <g>
                    <path id="SVGID-37" data-name="SVGID" d="M92.39,164v1a2.46,2.46,0,0,1-2.21,0v-1A2.38,2.38,0,0,0,92.39,164Z" style="fill: #186d7d"/>
                    <g style="clip-path: url(#clip-path-9)">
                      <g style="isolation: isolate">
                        <path d="M92.39,164v1a1.93,1.93,0,0,1-.77.24v-1a2.12,2.12,0,0,0,.77-.25Z" style="fill: #186d7d"/>
                        <path d="M91.62,164.22v1a2.47,2.47,0,0,1-1.44-.24v-1a2.36,2.36,0,0,0,1.43.25Z" style="fill: #186d7d"/>
                      </g>
                    </g>
                  </g>
                  <path d="M106.51,154.48a.68.68,0,0,1,0,1.28L92.39,164a2.38,2.38,0,0,1-2.2,0L76.71,156.2c-.61-.36-.62-.93,0-1.28l14.12-8.22a2.46,2.46,0,0,1,2.21,0Z" style="fill: #078fa9"/>
                </g>
              </g>
              <g style="isolation: isolate">
                <g>
                  <path id="SVGID-38" data-name="SVGID" d="M53.29,143.36v-1a.86.86,0,0,0,.5.7v1A.85.85,0,0,1,53.29,143.36Z" style="fill: #186d7d"/>
                  <g style="clip-path: url(#clip-path-10)">
                    <path d="M53.79,143.08v1a.85.85,0,0,1-.5-.7v-1a.86.86,0,0,0,.5.7Z" style="fill: #186d7d"/>
                  </g>
                </g>
                <g>
                  <path id="SVGID-39" data-name="SVGID" d="M90.31,145.66v1a.85.85,0,0,1-.5.69v-1A.83.83,0,0,0,90.31,145.66Z" style="fill: #186d7d"/>
                  <g style="clip-path: url(#clip-path-11)">
                    <g style="isolation: isolate">
                      <path d="M90.31,145.66v1a.68.68,0,0,1-.18.44v-1a.66.66,0,0,0,.18-.44Z" style="fill: #186d7d"/>
                      <path d="M90.13,146.1v1a1.42,1.42,0,0,1-.32.25v-1a1.13,1.13,0,0,0,.31-.25Z" style="fill: #186d7d"/>
                    </g>
                  </g>
                </g>
                <polygon points="89.82 146.35 89.81 147.33 75.89 155.43 75.89 154.45 89.82 146.35" style="fill: #186d7d"/>
                <polygon points="73.49 154.45 73.48 155.43 53.79 144.06 53.79 143.08 73.49 154.45" style="fill: #186d7d"/>
                <g>
                  <path id="SVGID-40" data-name="SVGID" d="M75.89,154.45v1a2.69,2.69,0,0,1-2.41,0v-1A2.61,2.61,0,0,0,75.89,154.45Z" style="fill: #186d7d"/>
                  <g style="clip-path: url(#clip-path-12)">
                    <g style="isolation: isolate">
                      <path d="M75.89,154.45v1a2.07,2.07,0,0,1-.84.26v-1a2.24,2.24,0,0,0,.84-.27Z" style="fill: #186d7d"/>
                      <path d="M75.05,154.72v1a2.65,2.65,0,0,1-1.57-.26v-1a2.54,2.54,0,0,0,1.56.27Z" style="fill: #186d7d"/>
                    </g>
                  </g>
                </g>
                <path d="M89.81,145c.66.39.67,1,0,1.39l-13.93,8.1a2.61,2.61,0,0,1-2.4,0l-19.7-11.37a.73.73,0,0,1,0-1.39l13.93-8.1a2.61,2.61,0,0,1,2.4,0Z" style="fill: #078fa9"/>
              </g>
              <g style="isolation: isolate">
                <g>
                  <path id="SVGID-41" data-name="SVGID" d="M67.17,132v1a.76.76,0,0,1-.45.63v-1A.79.79,0,0,0,67.17,132Z" style="fill: #186d7d"/>
                  <g style="clip-path: url(#clip-path-13)">
                    <g style="isolation: isolate">
                      <path d="M67.17,132v1a.55.55,0,0,1-.17.4v-1a.63.63,0,0,0,.16-.41Z" style="fill: #186d7d"/>
                      <path d="M67,132.37v1a.93.93,0,0,1-.28.23v-1a1.18,1.18,0,0,0,.29-.23Z" style="fill: #186d7d"/>
                    </g>
                  </g>
                </g>
                <g>
                  <path id="SVGID-42" data-name="SVGID" d="M44.5,138.1v-1a.75.75,0,0,0,.46.64v1A.8.8,0,0,1,44.5,138.1Z" style="fill: #186d7d"/>
                  <g style="clip-path: url(#clip-path-14)">
                    <path d="M45,137.76v1a.8.8,0,0,1-.46-.64v-1a.75.75,0,0,0,.46.64Z" style="fill: #186d7d"/>
                  </g>
                </g>
                <polygon points="66.72 132.6 66.72 133.57 52.6 141.79 52.6 140.81 66.72 132.6" style="fill: #186d7d"/>
                <polygon points="50.39 140.81 50.39 141.79 44.96 138.74 44.97 137.76 50.39 140.81" style="fill: #186d7d"/>
                <g>
                  <path id="SVGID-43" data-name="SVGID" d="M52.6,140.81v1a2.46,2.46,0,0,1-2.21,0v-1A2.4,2.4,0,0,0,52.6,140.81Z" style="fill: #186d7d"/>
                  <g style="clip-path: url(#clip-path-15)">
                    <g style="isolation: isolate">
                      <path d="M52.6,140.81v1a1.93,1.93,0,0,1-.78.24v-1a2.12,2.12,0,0,0,.77-.25Z" style="fill: #186d7d"/>
                      <path d="M51.83,141.06v1a2.43,2.43,0,0,1-1.43-.24v-1a2.39,2.39,0,0,0,1.44.25Z" style="fill: #186d7d"/>
                    </g>
                  </g>
                </g>
                <path d="M66.71,131.32a.67.67,0,0,1,0,1.28L52.6,140.81a2.4,2.4,0,0,1-2.21,0L45,137.76c-.62-.35-.62-.92,0-1.27l14.12-8.22a2.46,2.46,0,0,1,2.21,0Z" style="fill: #078fa9"/>
              </g>
            </g>
            <path d="M51.2,142.46c0-8.33,5.83-18.47,13.08-22.65l.08,0c-2.19-1.64-4.3-3.44-6.58-5.12C48.89,123,42.44,136.22,42.47,147.5c0,7.61,3,12.72,7.66,14.64l10.26-5.92c-.1-1.54-.22-3.07-.36-4.6C54.91,152.52,51.22,149,51.2,142.46Z" style="fill: #fff"/>
            <ellipse cx="64.25" cy="135.09" rx="18.78" ry="10.84" transform="translate(-84.87 123.19) rotate(-60)" style="opacity: 0.5;mix-blend-mode: screen;fill: url(#linear-gradient-20)"/>
            <path d="M48.85,161.51l-4.71-2.74c-3.92-2.27-6.35-7.12-6.37-14a39.84,39.84,0,0,1,2.83-14.1l4.71,2.74a39.56,39.56,0,0,0-2.84,14.1c0,6.88,2.46,11.73,6.38,14Z" style="fill: url(#linear-gradient-21)"/>
            <path d="M45.31,133.4l-4.71-2.74a53.33,53.33,0,0,1,4.77-9.41L50.08,124a52.33,52.33,0,0,0-4.77,9.41Z" style="fill: #fafbfb"/>
            <path d="M63.58,116a1.74,1.74,0,0,1,.78-1.36c.43-.25.79,0,.79.45a1.75,1.75,0,0,1-.79,1.37C63.93,116.67,63.58,116.46,63.58,116Z" style="fill: #ec1845"/>
            <path d="M68.82,115.09a1.75,1.75,0,0,1,.79-1.36c.43-.25.79,0,.79.45a1.75,1.75,0,0,1-.79,1.37C69.18,115.8,68.82,115.59,68.82,115.09Z" style="fill: #ec1845"/>
            <path d="M59.17,119.87a1.75,1.75,0,0,1,.79-1.36c.43-.25.79-.05.79.46a1.75,1.75,0,0,1-.79,1.36C59.53,120.58,59.17,120.38,59.17,119.87Z" style="fill: #ec1845"/>
          </g>
        </g>
        <g>
          <line x1="63.58" y1="37.34" x2="63.58" y2="37.34" style="fill: none;stroke: #00709e;stroke-linecap: round;stroke-linejoin: round;stroke-width: 1.88751888275147px"/>
          <path d="M63.58,32.6V30.15a2,2,0,0,1,2-2H274a2,2,0,0,1,2,2V80.92" style="fill: none;stroke: #00709e;stroke-linecap: round;stroke-linejoin: round;stroke-width: 1.88751888275147px;stroke-dasharray: 0,4.742550373077393"/>
          <line x1="276" y1="83.3" x2="276" y2="83.3" style="fill: none;stroke: #00709e;stroke-linecap: round;stroke-linejoin: round;stroke-width: 1.88751888275147px"/>
          <polygon points="268.28 77.04 269.66 75.75 276 82.57 282.33 75.75 283.72 77.04 276 85.34 268.28 77.04" style="fill: #00709e"/>
        </g>
        <g>
          <g>
            <path d="M161.54,36.32a8.2,8.2,0,1,1,0-16.4,8.11,8.11,0,0,1,1.47.13,10.23,10.23,0,0,1,18.37,4.6,5.87,5.87,0,0,1-.5,11.66H161.54Z" style="fill: #89d6f2"/>
            <path d="M171.26,16.38a9.72,9.72,0,0,1,9.67,8.72,5.37,5.37,0,0,1-.46,10.72H161.54a7.7,7.7,0,1,1,0-15.39,7.88,7.88,0,0,1,1.69.18,9.72,9.72,0,0,1,8-4.23m0-1a10.74,10.74,0,0,0-8.47,4.14,8.86,8.86,0,0,0-1.25-.09,8.71,8.71,0,1,0,0,17.42h19.84v-.07a6.38,6.38,0,0,0,.45-12.54,10.71,10.71,0,0,0-10.57-8.86Z" style="fill: #89d6f2"/>
            <path d="M171.26,17.39a8.68,8.68,0,0,1,8.66,7.82L180,26l.84.07a4.35,4.35,0,0,1-.39,8.69h-.06l-1,0v0H161.54A6.68,6.68,0,1,1,163,21.6l.67.15.38-.56a8.72,8.72,0,0,1,7.2-3.8m0-1a9.72,9.72,0,0,0-8,4.23,7.88,7.88,0,0,0-1.69-.18,7.7,7.7,0,1,0,0,15.39h18.93a5.37,5.37,0,0,0,.46-10.72,9.72,9.72,0,0,0-9.67-8.72Z" style="fill: #00394b"/>
          </g>
          <g style="opacity: 0.1">
            <path d="M181.69,33.39H163.83a7.26,7.26,0,0,1-7.26-7.26,23.89,23.89,0,0,1,.6-4.42,7.7,7.7,0,0,0,4.26,14.11h18.94a5.36,5.36,0,0,0,5.26-4.33A5,5,0,0,1,181.69,33.39Z"/>
          </g>
        </g>
        <g>
          <line x1="63.58" y1="93.59" x2="63.58" y2="93.59" style="fill: none;stroke: #004b6b;stroke-linecap: round;stroke-linejoin: round;stroke-width: 1.88751888275147px"/>
          <line x1="63.58" y1="88.52" x2="63.58" y2="75.85" style="fill: none;stroke: #004b6b;stroke-linecap: round;stroke-linejoin: round;stroke-width: 1.88751888275147px;stroke-dasharray: 0,5.069686412811279"/>
          <line x1="63.58" y1="73.31" x2="63.58" y2="73.31" style="fill: none;stroke: #004b6b;stroke-linecap: round;stroke-linejoin: round;stroke-width: 1.88751888275147px"/>
          <rect x="57.44" y="92.65" width="12.27" height="1.89" style="fill: #004b6b"/>
        </g>
        <g>
          <path d="M61.43,47.28,52.68,62.43a2,2,0,0,0,1.71,3h17.5a2,2,0,0,0,1.71-3L64.85,47.28A2,2,0,0,0,61.43,47.28Z" style="fill: #ede845"/>
          <path d="M58.31,55.84l-4.06,6.6c-.33.73.08,1.64.74,1.64H71.16c.66,0,1.07-.91.74-1.64l-.24-.54s-7.39.08-9.11.08C56.65,62,58.31,55.84,58.31,55.84Z" style="opacity: 0.15"/>
          <path d="M62.35,48.78,54.51,62.47a.91.91,0,0,0,.78,1.36H71a.91.91,0,0,0,.78-1.36L63.93,48.78A.92.92,0,0,0,62.35,48.78Z" style="fill: none;stroke: #003a4b;stroke-miterlimit: 10"/>
          <text transform="translate(61.28 62.15)" style="font-size: 12px;fill: #003a4b;font-family: GothamRounded-Bold, Gotham Rounded;font-weight: 700">!</text>
        </g>
        <g style="mix-blend-mode: multiply">
          <path d="M328.76,190.45l-58.57-34.18a6.27,6.27,0,0,0-5.69,0l-40.84,24.25c-1.57.91-1.56,2.38,0,3.3L282.24,218a6.29,6.29,0,0,0,5.7,0l40.83-24.24C330.34,192.84,330.33,191.36,328.76,190.45Z" style="fill: url(#linear-gradient-22)"/>
        </g>
        <g>
          <g>
            <path d="M324.32,124.43,266.84,91.05c-1.56-.91-2.86-.19-2.86,1.61L263.76,134a6.36,6.36,0,0,0,2.84,4.93l57.47,33.38c1.58.92,2.85.19,2.87-1.61l.21-41.28A6.31,6.31,0,0,0,324.32,124.43Z" style="fill: url(#linear-gradient-23)"/>
            <rect x="270.08" y="141.85" width="1.65" height="2.27" style="fill: url(#linear-gradient-24)"/>
            <path d="M324.62,173.57H323.1v1.67L266,142.05a6.23,6.23,0,0,0-5.67,0L219.65,162.9v3.65h0a2.06,2.06,0,0,0,1.16,1.57l57.49,33.38a6.32,6.32,0,0,0,5.67,0l39.48-22.79a2.05,2.05,0,0,0,1.16-1.55h0Z" style="fill: url(#linear-gradient-25)"/>
            <path d="M323.46,175.19,284,198a6.38,6.38,0,0,1-5.68,0l-57.49-33.39c-1.56-.91-1.57-2.39,0-3.29l39.46-22.78a6.17,6.17,0,0,1,5.67,0l5.78,3.35-1.09.63,41.74,24.09,1-.56,10.1,5.87C325,172.8,325,174.28,323.46,175.19Z" style="fill: #fff"/>
            <path d="M266,90.17l.81-.47a2,2,0,0,1,2,.2l57.48,33.39a6.28,6.28,0,0,1,2.81,4.92l-.2,41.28a2,2,0,0,1-.84,1.82l-2,1.18a2,2,0,0,0,.83-1.82l.22-41.28a6.28,6.28,0,0,0-2.83-4.93L266.81,91.08a2,2,0,0,0-2-.22Z" style="fill: url(#linear-gradient-26)"/>
            <g>
              <path d="M316.09,181a2.31,2.31,0,0,1-1,1.83c-.53.3-1,0-1-.73a2.31,2.31,0,0,1,1-1.83C315.66,180,316.09,180.3,316.09,181Z" style="fill: #30302f"/>
              <path d="M314.28,182.31a2.27,2.27,0,0,0,1-1.82,2,2,0,0,0,0-.25c.49-.22.87.1.87.77a2.31,2.31,0,0,1-1,1.83c-.46.26-.85,0-.94-.49Z" style="fill: #5c6a7c"/>
              <path d="M314.86,182.69a2.31,2.31,0,0,0,1-1.83.94.94,0,0,0-.22-.68c.29.06.49.35.49.83a2.31,2.31,0,0,1-1,1.83.58.58,0,0,1-.74-.05A.65.65,0,0,0,314.86,182.69Z" style="fill: #f2f2f2"/>
            </g>
            <g>
              <path d="M312.7,183a2.33,2.33,0,0,1-.95,1.83c-.53.3-1,0-1-.73a2.31,2.31,0,0,1,1-1.83C312.27,182,312.7,182.27,312.7,183Z" style="fill: #30302f"/>
              <path d="M310.9,184.29a2.33,2.33,0,0,0,1-1.84,1.93,1.93,0,0,0,0-.24c.48-.22.86.1.86.77a2.33,2.33,0,0,1-.95,1.83c-.47.27-.86.05-.94-.49Z" style="fill: #5c6a7c"/>
              <path d="M311.48,184.66a2.31,2.31,0,0,0,1-1.83,1,1,0,0,0-.22-.68c.29.06.48.35.48.83a2.33,2.33,0,0,1-.95,1.83.56.56,0,0,1-.74-.05A.65.65,0,0,0,311.48,184.66Z" style="fill: #f2f2f2"/>
            </g>
            <path d="M317.49,173.64a3.66,3.66,0,0,1-1.68,1.75l-20.17,11.72a8.22,8.22,0,0,1-7.37.3l-51-29.44-.06,0a2.39,2.39,0,0,1-1.09-1.18c-.4-1,.19-2.16,1.69-3L257.94,142a8.19,8.19,0,0,1,7.37-.31l51,29.43a2.62,2.62,0,0,1,1.08,1.06A1.78,1.78,0,0,1,317.49,173.64Z" style="fill: url(#linear-gradient-27)"/>
            <path d="M317.49,173.64a3.66,3.66,0,0,1-1.68,1.75l-20.17,11.72a8.22,8.22,0,0,1-7.37.3l-51-29.44-.06,0a2.39,2.39,0,0,1-1.09-1.18,3.64,3.64,0,0,1,1.69-1.75l20.16-11.72a8.22,8.22,0,0,1,7.37-.31l51,29.44a2.67,2.67,0,0,1,1.08,1.05A1.34,1.34,0,0,1,317.49,173.64Z" style="fill: #f2f2f2"/>
            <g>
              <polygon points="265.25 149.77 261.25 152.07 265.37 154.48 269.36 152.18 265.25 149.77" style="fill: #5c6a7c"/>
              <polygon points="258.87 151.72 254.89 154.01 259.01 156.41 263 154.13 258.87 151.72" style="fill: #5c6a7c"/>
              <polygon points="253.14 148.68 248.52 151.32 245.87 152.84 244.53 153.61 251.48 157.67 255.47 155.39 253.33 154.14 257.95 151.47 253.14 148.68" style="fill: #5c6a7c"/>
              <polygon points="263.52 154.42 259.52 156.72 263.65 159.12 267.63 156.83 263.52 154.42" style="fill: #5c6a7c"/>
              <polygon points="243.6 154.14 239.62 156.44 248.11 161.41 252.1 159.11 243.6 154.14" style="fill: #5c6a7c"/>
              <polygon points="252.51 159.35 248.52 161.63 254.97 165.4 258.96 163.1 252.51 159.35" style="fill: #5c6a7c"/>
              <polygon points="265.23 161.09 261.23 163.38 265.36 165.78 269.34 163.49 265.23 161.09" style="fill: #5c6a7c"/>
              <polygon points="263.17 142.9 259.19 145.2 263.31 147.6 267.3 145.31 263.17 142.9" style="fill: #5c6a7c"/>
              <polygon points="268.08 145.76 264.09 148.05 268.21 150.47 272.2 148.18 268.08 145.76" style="fill: #5c6a7c"/>
              <polygon points="258.29 145.71 254.29 148 260.68 151.74 264.67 149.44 258.29 145.71" style="fill: #5c6a7c"/>
              <polygon points="272.98 148.63 268.99 150.93 273.11 153.33 277.11 151.04 272.98 148.63" style="fill: #5c6a7c"/>
              <polygon points="277.89 151.5 273.9 153.8 278.02 156.19 282.01 153.91 277.89 151.5" style="fill: #5c6a7c"/>
              <polygon points="269.93 152.51 265.94 154.79 270.07 157.22 274.05 154.91 269.93 152.51" style="fill: #5c6a7c"/>
              <polygon points="282.8 154.37 278.8 156.65 282.92 159.07 286.92 156.77 282.8 154.37" style="fill: #5c6a7c"/>
              <polygon points="274.63 155.25 270.64 157.54 274.76 159.94 278.75 157.66 274.63 155.25" style="fill: #5c6a7c"/>
              <polygon points="256 155.69 252.01 157.99 256.14 160.4 260.12 158.1 256 155.69" style="fill: #5c6a7c"/>
              <polygon points="287.71 157.22 283.72 159.53 287.83 161.93 291.83 159.64 287.71 157.22" style="fill: #5c6a7c"/>
              <polygon points="268.15 157.14 264.16 159.42 268.28 161.83 272.27 159.53 268.15 157.14" style="fill: #5c6a7c"/>
              <polygon points="279.32 157.99 275.33 160.27 279.44 162.69 283.44 160.4 279.32 157.99" style="fill: #5c6a7c"/>
              <polygon points="260.64 158.41 256.65 160.69 260.76 163.1 264.77 160.82 260.64 158.41" style="fill: #5c6a7c"/>
              <polygon points="272.79 159.83 268.8 162.13 272.91 164.54 276.91 162.25 272.79 159.83" style="fill: #5c6a7c"/>
              <polygon points="292.61 160.1 288.62 162.39 292.74 164.79 296.74 162.5 292.61 160.1" style="fill: #5c6a7c"/>
              <polygon points="284.01 160.73 280.01 163.02 284.13 165.42 288.13 163.13 284.01 160.73" style="fill: #5c6a7c"/>
              <polygon points="277.43 162.55 273.44 164.84 277.56 167.25 281.55 164.95 277.43 162.55" style="fill: #5c6a7c"/>
              <polygon points="297.51 162.97 293.53 165.25 297.65 167.66 301.64 165.37 297.51 162.97" style="fill: #5c6a7c"/>
              <polygon points="288.7 163.47 284.7 165.75 288.82 168.17 292.82 165.87 288.7 163.47" style="fill: #5c6a7c"/>
              <polygon points="270.01 163.88 266.03 166.17 270.15 168.58 274.14 166.28 270.01 163.88" style="fill: #5c6a7c"/>
              <polygon points="282.06 165.25 278.08 167.54 282.19 169.96 286.19 167.66 282.06 165.25" style="fill: #5c6a7c"/>
              <polygon points="302.43 165.82 298.43 168.12 302.55 170.53 306.55 168.23 302.43 165.82" style="fill: #5c6a7c"/>
              <polygon points="293.39 166.21 289.38 168.5 293.52 170.91 297.51 168.61 293.39 166.21" style="fill: #5c6a7c"/>
              <polygon points="274.61 166.56 270.6 168.85 274.73 171.25 278.73 168.96 274.61 166.56" style="fill: #5c6a7c"/>
              <polygon points="286.7 167.96 282.71 170.26 286.83 172.66 290.83 170.38 286.7 167.96" style="fill: #5c6a7c"/>
              <polygon points="279.23 169.26 275.25 171.56 279.37 173.96 283.35 171.67 279.23 169.26" style="fill: #5c6a7c"/>
              <polygon points="309.19 169.78 305.2 172.07 309.33 174.48 313.31 172.19 309.19 169.78" style="fill: #5c6a7c"/>
              <polygon points="291.33 170.67 287.34 172.96 291.46 175.37 295.45 173.08 291.33 170.67" style="fill: #5c6a7c"/>
              <polygon points="259.37 163.35 255.38 165.65 273.49 176.22 277.47 173.92 259.37 163.35" style="fill: #5c6a7c"/>
              <polygon points="283.81 171.94 279.82 174.23 283.95 176.64 287.95 174.35 283.81 171.94" style="fill: #5c6a7c"/>
              <polygon points="298.28 169.07 294.29 171.35 304.44 177.29 308.43 175 298.28 169.07" style="fill: #5c6a7c"/>
              <polygon points="295.99 173.39 292 175.67 299.55 180.1 303.55 177.8 295.99 173.39" style="fill: #5c6a7c"/>
              <polygon points="278.06 174.26 274.07 176.56 280.51 180.32 284.5 178.03 278.06 174.26" style="fill: #5c6a7c"/>
              <polygon points="288.5 174.68 284.53 176.97 294.67 182.9 298.66 180.6 288.5 174.68" style="fill: #5c6a7c"/>
              <polygon points="285.02 178.33 281.02 180.63 289.76 185.72 293.75 183.43 285.02 178.33" style="fill: #5c6a7c"/>
            </g>
            <g>
              <path d="M265.37,178.2a2.72,2.72,0,0,1-1.12,1.08l-3.58,2.14a5.82,5.82,0,0,1-5.25.22l-9.28-5.35a2.07,2.07,0,0,1-.75-.71c-.41-.75,0-1.67,1.13-2.33l3.57-2.13a5.85,5.85,0,0,1,5.25-.22l9.28,5.35A1.41,1.41,0,0,1,265.37,178.2Z" style="fill: #7c92b7"/>
              <path d="M265.37,178.2a2.72,2.72,0,0,1-1.12,1.08l-3.58,2.14a5.82,5.82,0,0,1-5.25.22l-9.28-5.35a2.07,2.07,0,0,1-.75-.71,2.77,2.77,0,0,1,1.13-1.09l3.57-2.14a5.78,5.78,0,0,1,5.25-.21l9.28,5.35A1.85,1.85,0,0,1,265.37,178.2Z" style="fill: #f2f2f2"/>
            </g>
            <path d="M295.7,111.14a2.5,2.5,0,0,0,1,2c.57.34,1,0,1-.78a2.5,2.5,0,0,0-1-2C296.17,110,295.7,110.37,295.7,111.14Z" style="fill: #0b7c91"/>
            <polygon points="266.82 135.38 323.25 168.56 323.25 130.12 266.82 96.95 266.82 135.38" style="fill: url(#linear-gradient-28)"/>
            <polygon points="269.99 133.13 296.62 148.8 296.62 117.14 269.99 101.47 269.99 133.13" style="fill: #b8e3f0"/>
            <polygon points="299.02 138.99 320.34 151.5 320.34 131.08 299.02 118.57 299.02 138.99" style="fill: #ede845"/>
            <polygon points="299.02 142.55 320.34 155.06 320.34 153.18 299.02 140.67 299.02 142.55" style="fill: #fff;opacity: 0.5"/>
            <polygon points="299.02 144.56 305.28 148.25 305.28 147.47 299.02 143.78 299.02 144.56" style="fill: #fff;opacity: 0.5"/>
            <polygon points="299.02 145.92 305.28 149.61 305.28 148.83 299.02 145.14 299.02 145.92" style="fill: #fff;opacity: 0.5"/>
            <polygon points="299.02 147.35 305.28 151.04 305.28 150.26 299.02 146.57 299.02 147.35" style="fill: #fff;opacity: 0.5"/>
            <polygon points="299.02 148.64 305.28 152.33 305.28 151.55 299.02 147.86 299.02 148.64" style="fill: #fff;opacity: 0.5"/>
            <polygon points="299.02 150.04 305.28 153.74 305.28 152.96 299.02 149.27 299.02 150.04" style="fill: #fff;opacity: 0.5"/>
            <polygon points="306.09 148.64 312.36 152.33 312.36 151.55 306.09 147.86 306.09 148.64" style="fill: #fff;opacity: 0.5"/>
            <polygon points="306.09 150 320.34 158.38 320.34 157.6 306.09 149.22 306.09 150" style="fill: #fff;opacity: 0.5"/>
            <polygon points="306.09 151.43 320.34 159.85 320.34 159.07 306.09 150.65 306.09 151.43" style="fill: #fff;opacity: 0.5"/>
            <polygon points="306.09 152.72 320.34 161.12 320.34 160.34 306.09 151.94 306.09 152.72" style="fill: #fff;opacity: 0.5"/>
            <polygon points="306.09 154.12 315.58 159.73 315.58 158.95 306.09 153.34 306.09 154.12" style="fill: #fff;opacity: 0.5"/>
            <polygon points="267.79 97.51 267.79 134.86 323.25 167.47 323.25 168.56 266.82 135.38 266.82 96.95 267.79 97.51" style="fill: url(#linear-gradient-29)"/>
            <polygon points="323.25 168.56 266.82 135.38 267.79 134.86 323.25 167.47 323.25 168.56" style="fill: #f2f2f2"/>
            <g>
              <polygon points="317.3 181.78 320.95 179.7 320.95 177.12 317.3 179.2 317.3 181.78" style="fill: #f2f2f2"/>
              <polygon points="320.21 179.27 317.45 180.83 317.45 181.52 320.8 179.62 320.8 179.62 320.21 179.27" style="fill: #5c6a7c"/>
              <g>
                <polygon points="317.45 179.28 317.45 180.83 320.21 179.27 320.21 177.72 320.06 177.81 317.45 179.28" style="fill: #30302f"/>
                <polygon points="317.45 179.52 317.45 180.61 320.06 179.14 320.06 178.04 317.45 179.52" style="fill: #30273b"/>
                <polygon points="320.8 178.93 320.8 177.38 320.21 177.72 320.21 179.27 320.8 179.62 320.8 178.93" style="fill: #414141"/>
              </g>
            </g>
            <g>
              <g style="isolation: isolate">
                <polygon points="280.68 131.98 278.9 130.95 276.58 132.28 278.36 133.32 280.68 131.98" style="fill: url(#linear-gradient-30)"/>
                <g>
                  <path id="SVGID-44" data-name="SVGID" d="M275,132.43l1.79,1a1.55,1.55,0,0,0,1.56-.15l-1.78-1A1.52,1.52,0,0,1,275,132.43Z" style="fill: url(#linear-gradient-2)"/>
                  <g style="clip-path: url(#clip-path-16)">
                    <g style="isolation: isolate">
                      <path d="M278.36,133.32l-1.78-1-.2.11,1.78,1,.2-.11Z" style="fill: url(#linear-gradient-32)"/>
                      <path d="M278.16,133.43l-1.78-1a2.33,2.33,0,0,1-.57.18l1.79,1a1.87,1.87,0,0,0,.56-.17Z" style="fill: url(#linear-gradient-33)"/>
                      <path d="M277.6,133.6l-1.79-1a1.2,1.2,0,0,1-.8-.14l1.79,1a1.17,1.17,0,0,0,.8.13Z" style="fill: url(#linear-gradient-34)"/>
                    </g>
                  </g>
                </g>
                <polygon points="275.99 132.25 274.21 131.22 274.21 133.84 276 134.87 275.99 132.25" style="fill: #fafbfb"/>
                <polygon points="279.72 127.28 277.94 126.24 276.57 127.03 278.35 128.07 279.72 127.28" style="fill: #fff"/>
                <g style="isolation: isolate">
                  <path id="SVGID-45" data-name="SVGID" d="M278.35,128.07l-1.78-1a5.24,5.24,0,0,0-2.36,4.09v.1l1.78,1v-.1a5.2,5.2,0,0,1,2.36-4.08Z" style="fill: #fafbfb"/>
                  <g style="clip-path: url(#clip-path-17)">
                    <g style="isolation: isolate">
                      <path d="M278.35,128.07l-1.78-1a2.71,2.71,0,0,0-.41.28l1.78,1a4.81,4.81,0,0,1,.41-.27Z" style="fill: #fff"/>
                      <path d="M277.94,128.34l-1.78-1a5.58,5.58,0,0,0-1.8,2.76l1.78,1a5.77,5.77,0,0,1,.54-1.27,5.32,5.32,0,0,1,1.26-1.49Z" style="fill: url(#linear-gradient-35)"/>
                      <path d="M276.14,131.1l-1.78-1a4.31,4.31,0,0,0-.14.77l1.78,1a4.59,4.59,0,0,1,.14-.78Z" style="fill: #fafbfb"/>
                      <path d="M276,131.88l-1.78-1a2.62,2.62,0,0,0,0,.28v.1l1.78,1v-.1a2.44,2.44,0,0,1,0-.27Z" style="fill: #fafbfb"/>
                    </g>
                  </g>
                </g>
                <path d="M278.35,128.07a5.2,5.2,0,0,0-2.36,4.08v2.72l2.36-1.36,2.32-1.34V132l-2.32,1.34c-1.21.7-2.2.14-2.21-1.26a4.86,4.86,0,0,1,2.2-3.8l1.37-.8v-.18Z" style="fill: #cbd2db"/>
              </g>
              <g style="isolation: isolate">
                <polygon points="284.05 127.25 284.05 128.44 282.6 129.28 282.61 128.09 284.05 127.25" style="fill: url(#linear-gradient-36)"/>
                <polygon points="282.61 128.09 282.6 129.28 279.95 127.75 279.95 126.55 282.61 128.09" style="fill: #fafbfb"/>
                <polygon points="286.58 128.71 286.58 129.9 284.05 128.44 284.05 127.25 286.58 128.71" style="fill: url(#linear-gradient-37)"/>
                <polygon points="287.79 131.08 287.79 132.27 285.14 130.74 285.14 129.55 287.79 131.08" style="fill: #fafbfb"/>
                <polygon points="287.79 131.08 289.24 130.24 292.31 128.46 293.75 127.62 293.75 128.81 292.3 129.65 289.23 131.43 287.79 132.27 287.79 131.08" style="fill: url(#linear-gradient-38)"/>
                <polygon points="293.75 127.62 292.31 128.46 289.24 130.24 287.79 131.08 285.14 129.55 286.58 128.71 284.05 127.25 282.61 128.09 279.95 126.55 281.39 125.72 284.46 123.93 285.91 123.09 293.75 127.62" style="fill: #fafbfb"/>
              </g>
              <g style="isolation: isolate">
                <g style="isolation: isolate">
                  <g style="clip-path: url(#clip-path-18)">
                    <g>
                      <path d="M285.78,126.32l1.37-.8a7.38,7.38,0,0,1-2.47-2.47l-1.36.79a7.57,7.57,0,0,0,2.46,2.48Z" style="fill: url(#linear-gradient-39)"/>
                      <path d="M283.32,123.84l1.36-.79a9.35,9.35,0,0,1-.83-1.64l-1.36.79a8.15,8.15,0,0,0,.83,1.64Z" style="opacity: 0;fill: url(#linear-gradient-40)"/>
                      <path d="M282.49,122.2l1.36-.79a6.6,6.6,0,0,1-.49-2.45,2.63,2.63,0,0,1,1.11-2.44l-1.37.79a2.69,2.69,0,0,0-1.11,2.44,6.83,6.83,0,0,0,.5,2.45Z" style="fill: url(#linear-gradient-41)"/>
                    </g>
                  </g>
                </g>
                <g style="isolation: isolate">
                  <g style="clip-path: url(#clip-path-19)">
                    <g>
                      <path d="M288.49,126.58l1.36-.79a2,2,0,0,1-.85.25l-1.37.79a1.88,1.88,0,0,0,.86-.25Z" style="fill: url(#linear-gradient-42)"/>
                      <path d="M287.63,126.83,289,126a3.35,3.35,0,0,1-1.85-.52l-1.37.8a3.34,3.34,0,0,0,1.85.51Z" style="fill: url(#linear-gradient-43)"/>
                    </g>
                  </g>
                </g>
                <g>
                  <path id="SVGID-46" data-name="SVGID" d="M282.67,113.44l-1.36.79c1.15-.67,2.75-.58,4.51.44l1.36-.79C285.42,112.86,283.83,112.77,282.67,113.44Z" style="fill: #fafbfb"/>
                  <g style="clip-path: url(#clip-path-20)">
                    <g>
                      <path d="M285.82,114.67l1.36-.79a5.51,5.51,0,0,0-3.08-.86l-1.36.79a5.51,5.51,0,0,1,3.08.86Z" style="fill: #fafbfb"/>
                      <path d="M282.74,113.81l1.36-.79a3.1,3.1,0,0,0-1.43.42l-1.36.79a3.1,3.1,0,0,1,1.43-.42Z" style="fill: #fafbfb"/>
                    </g>
                  </g>
                </g>
                <g>
                  <path id="SVGID-47" data-name="SVGID" d="M290.28,129.66l1.36-.79c1.14-.66,1.85-2.07,1.85-4.06a13.9,13.9,0,0,0-6.31-10.93l-1.36.79a13.93,13.93,0,0,1,6.31,10.93C292.12,127.6,291.42,129,290.28,129.66Z" style="fill: #fafbfb"/>
                  <g style="clip-path: url(#clip-path-21)">
                    <g style="isolation: isolate">
                      <path d="M289.92,118.79l1.37-.8a12.6,12.6,0,0,0-4.11-4.11l-1.36.79a12.51,12.51,0,0,1,4.1,4.12Z" style="fill: #fafbfb"/>
                    </g>
                  </g>
                </g>
                <path d="M279.46,118.29c0-4,2.86-5.64,6.36-3.62a10.2,10.2,0,0,1,1.87,1.41c-.66.48-1.27,1-1.91,1.48-2.09-1.19-3.78-.21-3.79,2.19a8.4,8.4,0,0,0,3.79,6.57,4,4,0,0,0,1.26.48c0,.44-.08.88-.11,1.33l-5.28-3A13.25,13.25,0,0,1,279.46,118.29Z" style="fill: #fff"/>
              </g>
              <g>
                <g>
                  <g style="isolation: isolate">
                    <polygon points="273.13 128.33 273.13 129.03 277.86 131.78 277.86 131.08 273.13 128.33" style="fill: #fafbfb"/>
                    <polygon points="277.86 131.08 277.86 131.78 292.56 123.29 292.56 122.59 277.86 131.08" style="fill: url(#linear-gradient-44)"/>
                    <polygon points="273.13 128.33 277.86 131.08 292.56 122.59 287.83 119.84 273.13 128.33" style="fill: #fff"/>
                  </g>
                  <g style="isolation: isolate">
                    <g>
                      <path id="SVGID-48" data-name="SVGID" d="M273.43,127.81v.28a.23.23,0,0,0,.14.19V128C273.48,127.94,273.43,127.88,273.43,127.81Z" style="fill: #186d7d"/>
                      <g style="clip-path: url(#clip-path-22)">
                        <g style="isolation: isolate">
                          <path d="M273.43,127.81v.28a.21.21,0,0,0,.05.12v-.28a.21.21,0,0,1-.05-.12Z" style="fill: #186d7d"/>
                          <path d="M273.48,127.93v.28a.22.22,0,0,0,.09.07V128l-.08-.07Z" style="fill: #186d7d"/>
                        </g>
                      </g>
                    </g>
                    <g>
                      <path id="SVGID-49" data-name="SVGID" d="M282.34,127.94a.23.23,0,0,1-.14.18v.29" style="fill: #186d7d"/>
                      <g style="clip-path: url(#clip-path-23)">
                        <path d="M282.2,128.12v.29c.09-.06.14-.12.14-.19v-.28a.23.23,0,0,1-.14.18Z" style="fill: #186d7d"/>
                      </g>
                    </g>
                    <polygon points="273.56 128 273.57 128.28 277.66 130.66 277.66 130.38 273.56 128" style="fill: #186d7d"/>
                    <polyline points="282.2 128.41 282.2 128.12 278.3 130.38 278.3 130.66" style="fill: #186d7d"/>
                    <g>
                      <path id="SVGID-50" data-name="SVGID" d="M277.66,130.38v.28a.72.72,0,0,0,.64,0v-.28A.72.72,0,0,1,277.66,130.38Z" style="fill: #186d7d"/>
                      <g style="clip-path: url(#clip-path-24)">
                        <g style="isolation: isolate">
                          <path d="M277.66,130.38v.28a.52.52,0,0,0,.22.07v-.28a.71.71,0,0,1-.22-.07Z" style="fill: #186d7d"/>
                          <path d="M277.88,130.45v.28a.72.72,0,0,0,.42-.07v-.28a.74.74,0,0,1-.42.07Z" style="fill: #186d7d"/>
                        </g>
                      </g>
                    </g>
                    <path d="M273.57,127.63c-.18.1-.18.26,0,.37l4.1,2.38a.72.72,0,0,0,.64,0l3.9-2.26a.2.2,0,0,0,0-.37l-4.1-2.38a.72.72,0,0,0-.64,0Z" style="fill: #078fa9"/>
                  </g>
                </g>
                <g style="isolation: isolate">
                  <g>
                    <path id="SVGID-51" data-name="SVGID" d="M289,124.4v-.28a.26.26,0,0,1-.14.2v.28A.25.25,0,0,0,289,124.4Z" style="fill: #186d7d"/>
                    <g style="clip-path: url(#clip-path-25)">
                      <path d="M288.85,124.32v.28a.25.25,0,0,0,.14-.2v-.28a.26.26,0,0,1-.14.2Z" style="fill: #186d7d"/>
                    </g>
                  </g>
                  <g>
                    <path id="SVGID-52" data-name="SVGID" d="M278.26,125.07v.28a.24.24,0,0,0,.15.2v-.28A.26.26,0,0,1,278.26,125.07Z" style="fill: #186d7d"/>
                    <g style="clip-path: url(#clip-path-26)">
                      <g style="isolation: isolate">
                        <path d="M278.26,125.07v.28a.21.21,0,0,0,.05.13v-.28a.24.24,0,0,1-.05-.13Z" style="fill: #186d7d"/>
                        <path d="M278.31,125.2v.28l.1.07v-.28l-.09-.07Z" style="fill: #186d7d"/>
                      </g>
                    </g>
                  </g>
                  <g>
                    <path id="SVGID-53" data-name="SVGID" d="M283.14,127.9v-.28a.78.78,0,0,1-.7,0" style="fill: #186d7d"/>
                    <g style="clip-path: url(#clip-path-27)">
                      <g style="isolation: isolate">
                        <path d="M282.44,127.62v.28a.67.67,0,0,0,.25.08v-.29a.66.66,0,0,1-.25-.07Z" style="fill: #186d7d"/>
                      </g>
                    </g>
                  </g>
                  <path d="M278.41,124.87c-.2.11-.2.29,0,.4l4,2.35a.78.78,0,0,0,.7,0l5.71-3.3a.21.21,0,0,0,0-.4l-4-2.35a.76.76,0,0,0-.69,0Z" style="fill: #078fa9"/>
                </g>
                <g style="isolation: isolate">
                  <g>
                    <path id="SVGID-54" data-name="SVGID" d="M285,121.1v.28a.23.23,0,0,0,.13.19v-.29A.21.21,0,0,1,285,121.1Z" style="fill: #186d7d"/>
                    <g style="clip-path: url(#clip-path-28)">
                      <g style="isolation: isolate">
                        <path d="M285,121.1v.28a.16.16,0,0,0,0,.12v-.28a.16.16,0,0,1,0-.12Z" style="fill: #186d7d"/>
                        <path d="M285,121.22v.28l.08.07v-.29a.28.28,0,0,1-.08-.06Z" style="fill: #186d7d"/>
                      </g>
                    </g>
                  </g>
                  <g>
                    <path id="SVGID-55" data-name="SVGID" d="M291.54,122.88v-.29a.23.23,0,0,1-.14.19v.28A.24.24,0,0,0,291.54,122.88Z" style="fill: #186d7d"/>
                    <g style="clip-path: url(#clip-path-29)">
                      <path d="M291.4,122.78v.28a.24.24,0,0,0,.13-.18v-.29a.23.23,0,0,1-.14.19Z" style="fill: #186d7d"/>
                    </g>
                  </g>
                  <polygon points="285.1 121.28 285.1 121.56 289.19 123.95 289.19 123.66 285.1 121.28" style="fill: #186d7d"/>
                  <polygon points="289.83 123.66 289.83 123.95 291.4 123.06 291.4 122.78 289.83 123.66" style="fill: #186d7d"/>
                  <g>
                    <path id="SVGID-56" data-name="SVGID" d="M289.19,123.66V124a.72.72,0,0,0,.64,0v-.29A.66.66,0,0,1,289.19,123.66Z" style="fill: #186d7d"/>
                    <g style="clip-path: url(#clip-path-30)">
                      <g style="isolation: isolate">
                        <path d="M289.19,123.66V124a.78.78,0,0,0,.23.07v-.29a.56.56,0,0,1-.23-.07Z" style="fill: #186d7d"/>
                        <path d="M289.42,123.73V124a.79.79,0,0,0,.41-.07v-.29a.63.63,0,0,1-.41.07Z" style="fill: #186d7d"/>
                      </g>
                    </g>
                  </g>
                  <path d="M285.1,120.91a.19.19,0,0,0,0,.37l4.09,2.38a.66.66,0,0,0,.64,0l1.57-.88a.2.2,0,0,0,0-.37l-4.1-2.38a.72.72,0,0,0-.64,0Z" style="fill: #078fa9"/>
                </g>
              </g>
              <path d="M289.6,124.14a8.36,8.36,0,0,0-3.79-6.56l0,0c.64-.47,1.25-1,1.91-1.48a14.07,14.07,0,0,1,4.44,9.52c0,2.21-.87,3.69-2.22,4.25l-3-1.72c0-.45.07-.89.11-1.33C288.52,127.06,289.59,126.05,289.6,124.14Z" style="fill: #fff"/>
              <path d="M290.28,129.66l1.36-.79c1.14-.66,1.85-2.07,1.85-4.06a11.51,11.51,0,0,0-.82-4.09l-1.36.79a11.73,11.73,0,0,1,.82,4.09c0,2-.71,3.4-1.85,4.06Z" style="fill: url(#linear-gradient-45)"/>
              <path d="M291.31,121.51l1.36-.79a15.54,15.54,0,0,0-1.38-2.73l-1.37.8a15.85,15.85,0,0,1,1.39,2.72Z" style="fill: #fafbfb"/>
              <path d="M286,116.46a.48.48,0,0,0-.23-.39c-.12-.08-.23,0-.23.13a.52.52,0,0,0,.23.39C285.91,116.67,286,116.61,286,116.46Z" style="fill: #ec1845"/>
              <path d="M284.49,116.21a.51.51,0,0,0-.23-.4.14.14,0,0,0-.23.13.52.52,0,0,0,.23.4C284.39,116.41,284.49,116.35,284.49,116.21Z" style="fill: #ec1845"/>
              <path d="M287.29,117.59a.52.52,0,0,0-.23-.39c-.13-.07-.23,0-.23.13a.49.49,0,0,0,.23.4C287.18,117.8,287.29,117.74,287.29,117.59Z" style="fill: #ec1845"/>
            </g>
            <g>
              <path d="M309.06,132.53a.46.46,0,0,1,.22.45l-.24,2.23c0,.16-.12.21-.26.13a.57.57,0,0,1-.25-.42l-.23-2.51c0-.19.07-.28.22-.19Z" style="fill: #003a4b"/>
              <path d="M312.64,138.71a1.05,1.05,0,0,1,0,.94c-.15.21-.42.23-.71.06L305.55,136a1.85,1.85,0,0,1-.72-.89,1,1,0,0,1,0-.94l3.21-4.55c.15-.22.41-.24.71-.07a1.77,1.77,0,0,1,.71.89Zm-.31.56a.57.57,0,0,0,0-.53l-3.17-8.24a1,1,0,0,0-.4-.49c-.16-.09-.32-.1-.41,0l-3.21,4.56a.58.58,0,0,0,0,.53,1,1,0,0,0,.4.5l6.38,3.68c.16.1.32.09.4,0" style="fill: #003a4b"/>
              <path d="M308.78,135.76a1,1,0,0,1,.48.81h0c0,.31-.21.42-.48.27a1,1,0,0,1-.48-.82h0C308.31,135.71,308.51,135.6,308.78,135.76Z" style="fill: #003a4b"/>
              <path d="M309.16,130.5l3.17,8.24a.57.57,0,0,1,0,.53c-.08.12-.24.13-.4,0l-6.38-3.68a1,1,0,0,1-.4-.5.58.58,0,0,1,0-.53l3.21-4.56c.09-.12.25-.11.41,0A1,1,0,0,1,309.16,130.5Zm.12,2.48a.46.46,0,0,0-.22-.45l-.54-.31c-.15-.09-.24,0-.22.19l.23,2.51a.57.57,0,0,0,.25.42c.14.08.24,0,.26-.13l.24-2.23m0,3.6h0a1,1,0,0,0-.48-.81c-.27-.16-.47,0-.48.26h0a1,1,0,0,0,.48.82c.27.15.48,0,.48-.27" style="fill: #fff"/>
              <path d="M313.09,138.58c.54,1.39-.14,2.34-1.22,1.72l-6.27-3.62c-1.08-.62-1.75-2.35-1.21-3.12l3.15-4.43c.28-.38.75-.37,1.22-.1a3,3,0,0,1,1.21,1.5Zm-.45,1.07a1.05,1.05,0,0,0,0-.94l-3.17-8.24a1.77,1.77,0,0,0-.71-.89c-.3-.17-.56-.15-.71.07l-3.21,4.55a1,1,0,0,0,0,.94,1.85,1.85,0,0,0,.72.89l6.38,3.68c.29.17.56.15.71-.06" style="fill: #fff"/>
            </g>
          </g>
          <g>
            <polygon points="288.7 198.2 290.06 197.42 290.06 194.86 288.7 195.64 288.7 198.2" style="fill: #f2f2f2"/>
            <polygon points="289.32 197 288.85 197.26 288.85 197.94 289.91 197.34 289.91 197.34 289.32 197" style="fill: #4b4e58"/>
            <g>
              <polygon points="288.85 195.73 288.85 197.26 289.32 197 289.32 195.46 289.17 195.55 288.85 195.73" style="fill: #393c41"/>
              <polygon points="288.85 195.96 288.85 197.04 289.17 196.86 289.17 195.78 288.85 195.96" style="fill: #1b2029"/>
              <polygon points="289.91 196.66 289.91 195.12 289.32 195.46 289.32 197 289.91 197.34 289.91 196.66" style="fill: #1b2029"/>
            </g>
          </g>
          <g>
            <polygon points="290.75 197.13 292.1 196.35 292.1 193.79 290.75 194.57 290.75 197.13" style="fill: #f2f2f2"/>
            <polygon points="291.36 195.92 290.89 196.19 290.89 196.87 291.95 196.26 291.95 196.26 291.36 195.92" style="fill: #4b4e58"/>
            <g>
              <polygon points="290.89 194.66 290.89 196.19 291.36 195.92 291.36 194.39 291.21 194.47 290.89 194.66" style="fill: #393c41"/>
              <polygon points="290.89 194.89 290.89 195.97 291.21 195.79 291.21 194.7 290.89 194.89" style="fill: #1b2029"/>
              <polygon points="291.95 195.58 291.95 194.05 291.36 194.39 291.36 195.92 291.95 196.26 291.95 195.58" style="fill: #1b2029"/>
            </g>
          </g>
        </g>
      </g>
    </g>
  </g>
</svg>
