<svg id="Layer_1" data-name="Layer 1" xmlns="http://www.w3.org/2000/svg" xmlns:xlink="http://www.w3.org/1999/xlink" viewBox="0 0 600 768">
  <defs>
    <clipPath id="clip-path">
      <path id="SVGID" d="M118.65,378.23c11-14.44,32.1-30.16,64.95-5.83,12.75,9.44,25.61,16.43,35.74,17.08a28,28,0,0,0,10-1.68l0,0a24.19,24.19,0,0,0,11.78-8.32c12.77-17.63,12.95-45.11,32.65-54.95l-5.54-16.38-28.36-7.88-34.5-6.57-38.2,8.21-30.4,19.72-16.43,26.7Z" style="fill: none"/>
    </clipPath>
    <clipPath id="clip-path-2">
      <path id="SVGID-2" data-name="SVGID" d="M130.43,427.27c6.47-14,26.09-43.92,67.78-16.33C247.64,443.65,261,380.61,262,375.52c5-23.66,14.11-33.87,21.12-38.27l11.43,36.93-2.87,35.33-9.86,19.3L267.46,447.3l-27.93,24.23-42.31,3.29-32.86-9.45-25.05-18.48Z" style="fill: none"/>
    </clipPath>
  </defs>
  <title>isovert-ness</title>
  <rect x="-35.5" y="-13.5" width="661" height="798" style="fill: #041e33"/>
  <g>
    <g style="opacity: 0.5">
      <g>
        <line x1="479.35" y1="594.28" x2="479.35" y2="594.28" style="fill: none;stroke: #4fc3f7;stroke-linecap: round;stroke-linejoin: round;stroke-width: 4px"/>
        <path d="M468.85,594.28H423.67a21.38,21.38,0,0,1-21.38-21.38V195.1a21.38,21.38,0,0,1,21.38-21.38H474.1" style="fill: none;stroke: #4fc3f7;stroke-linecap: round;stroke-linejoin: round;stroke-width: 4px;stroke-dasharray: 0,10.496439933776855"/>
        <line x1="479.35" y1="173.72" x2="479.35" y2="173.72" style="fill: none;stroke: #4fc3f7;stroke-linecap: round;stroke-linejoin: round;stroke-width: 4px"/>
        <rect x="477.35" y="581.28" width="4" height="26" style="fill: #4fc3f7"/>
        <rect x="477.35" y="160.72" width="4" height="26" style="fill: #4fc3f7"/>
      </g>
      <g>
        <line x1="322.02" y1="384" x2="322.02" y2="384" style="fill: none;stroke: #4fc3f7;stroke-linecap: round;stroke-linejoin: round;stroke-width: 4px"/>
        <line x1="329.74" y1="384" x2="379.9" y2="384" style="fill: none;stroke: #4fc3f7;stroke-linecap: round;stroke-linejoin: round;stroke-width: 4px;stroke-dasharray: 0,7.717519283294678"/>
        <line x1="383.76" y1="384" x2="383.76" y2="384" style="fill: none;stroke: #4fc3f7;stroke-linecap: round;stroke-linejoin: round;stroke-width: 4px"/>
        <polygon points="370.51 400.36 367.78 397.43 382.23 384 367.78 370.57 370.51 367.64 388.1 384 370.51 400.36" style="fill: #4fc3f7"/>
      </g>
    </g>
    <g>
      <g style="clip-path: url(#clip-path)">
        <g>
          <g>
            <g style="opacity: 0.17">
              <path d="M172,445.06c26.61,0,52.09-23.39,50.86-50.86S200.54,343.34,172,343.34c-26.6,0-52.08,23.4-50.85,50.86s22.34,50.86,50.85,50.86Z" style="fill: #029adc"/>
            </g>
            <g style="opacity: 0.17">
              <path d="M183.22,464c26.61,0,52.09-23.39,50.86-50.85s-22.34-50.86-50.86-50.86c-26.6,0-52.08,23.39-50.85,50.86S154.71,464,183.22,464Z" style="fill: #029adc"/>
            </g>
            <g style="opacity: 0.17">
              <path d="M206,471.07c26.6,0,52.08-23.39,50.85-50.86S234.52,369.36,206,369.36c-26.61,0-52.09,23.39-50.86,50.85s22.34,50.86,50.86,50.86Z" style="fill: #029adc"/>
            </g>
            <g style="opacity: 0.17">
              <path d="M220.24,468.22c26.61,0,52.09-23.39,50.86-50.85s-22.35-50.86-50.86-50.86c-26.6,0-52.08,23.39-50.85,50.86s22.34,50.85,50.85,50.85Z" style="fill: #029adc"/>
            </g>
            <g style="opacity: 0.17">
              <path d="M238.75,445.44c26.61,0,52.09-23.39,50.86-50.85s-22.35-50.86-50.86-50.86c-26.6,0-52.08,23.39-50.85,50.86s22.34,50.85,50.85,50.85Z" style="fill: #029adc"/>
            </g>
            <g style="opacity: 0.17">
              <path d="M238.75,426.93c26.61,0,52.09-23.39,50.86-50.85s-22.35-50.86-50.86-50.86c-26.6,0-52.08,23.39-50.85,50.86s22.34,50.85,50.85,50.85Z" style="fill: #029adc"/>
            </g>
            <g style="opacity: 0.17">
              <path d="M223.09,408.42c26.6,0,52.09-23.39,50.86-50.85s-22.35-50.86-50.86-50.86c-26.6,0-52.09,23.39-50.86,50.86s22.35,50.85,50.86,50.85Z" style="fill: #029adc"/>
            </g>
            <g style="opacity: 0.17">
              <path d="M181.69,408.23c26.6,0,52.09-23.39,50.86-50.86s-22.35-50.85-50.86-50.85c-26.6,0-52.09,23.39-50.86,50.85s22.35,50.86,50.86,50.86Z" style="fill: #029adc"/>
            </g>
            <g style="opacity: 0.17">
              <path d="M203.16,399.31c26.6,0,52.09-23.4,50.85-50.86s-22.34-50.86-50.85-50.86c-26.61,0-52.09,23.39-50.86,50.86s22.35,50.86,50.86,50.86Z" style="fill: #029adc"/>
            </g>
            <g style="opacity: 0.17">
              <path d="M233.06,409.85c26.6,0,52.09-23.4,50.86-50.86s-22.35-50.86-50.86-50.86c-26.6,0-52.09,23.39-50.86,50.86s22.35,50.86,50.86,50.86Z" style="fill: #029adc"/>
            </g>
            <g style="opacity: 0.17">
              <path d="M172.68,421.05c26.6,0,52.09-23.4,50.86-50.86s-22.35-50.86-50.86-50.86c-26.6,0-52.09,23.39-50.86,50.86s22.35,50.86,50.86,50.86Z" style="fill: #029adc"/>
            </g>
          </g>
          <g>
            <g style="opacity: 0.17">
              <path d="M188.92,448.29c26.6,0,52.09-23.39,50.86-50.86s-22.35-50.85-50.86-50.85c-26.6,0-52.09,23.39-50.86,50.85s22.35,50.86,50.86,50.86Z" style="fill: #029adc"/>
            </g>
            <g style="opacity: 0.17">
              <path d="M220.24,449.71c26.61,0,52.09-23.39,50.86-50.85S248.75,348,220.24,348c-26.6,0-52.08,23.39-50.85,50.86s22.34,50.85,50.85,50.85Z" style="fill: #029adc"/>
            </g>
            <g style="opacity: 0.17">
              <path d="M227.36,429.78c26.61,0,52.09-23.39,50.86-50.86s-22.35-50.85-50.86-50.85c-26.6,0-52.09,23.39-50.86,50.85s22.35,50.86,50.86,50.86Z" style="fill: #029adc"/>
            </g>
            <g style="opacity: 0.17">
              <path d="M203.16,418.39c26.6,0,52.09-23.39,50.85-50.86s-22.34-50.86-50.85-50.86c-26.61,0-52.09,23.4-50.86,50.86s22.35,50.86,50.86,50.86Z" style="fill: #029adc"/>
            </g>
            <g style="opacity: 0.17">
              <path d="M186.07,426.93c26.6,0,52.09-23.39,50.86-50.85s-22.35-50.86-50.86-50.86c-26.6,0-52.09,23.39-50.86,50.86s22.35,50.85,50.86,50.85Z" style="fill: #029adc"/>
            </g>
            <g style="opacity: 0.17">
              <path d="M176.1,439.75c26.61,0,52.09-23.39,50.86-50.86S204.62,338,176.1,338c-26.6,0-52.08,23.39-50.85,50.86s22.34,50.86,50.85,50.86Z" style="fill: #029adc"/>
            </g>
            <g style="opacity: 0.17">
              <path d="M198.89,442.6c26.6,0,52.08-23.4,50.85-50.86s-22.34-50.86-50.85-50.86c-26.61,0-52.09,23.39-50.86,50.86s22.34,50.86,50.86,50.86Z" style="fill: #029adc"/>
            </g>
            <g style="opacity: 0.17">
              <path d="M221.67,438.32c26.6,0,52.08-23.39,50.85-50.85s-22.34-50.86-50.85-50.86c-26.61,0-52.09,23.39-50.86,50.86s22.35,50.85,50.86,50.85Z" style="fill: #029adc"/>
            </g>
            <g style="opacity: 0.17">
              <path d="M218.82,419.81c26.6,0,52.09-23.39,50.86-50.85s-22.35-50.86-50.86-50.86c-26.6,0-52.09,23.39-50.86,50.86s22.35,50.85,50.86,50.85Z" style="fill: #029adc"/>
            </g>
            <g style="opacity: 0.17">
              <path d="M188.92,425.51c26.6,0,52.09-23.39,50.86-50.86s-22.35-50.86-50.86-50.86c-26.6,0-52.09,23.4-50.86,50.86s22.35,50.86,50.86,50.86Z" style="fill: #029adc"/>
            </g>
            <g style="opacity: 0.17">
              <path d="M203.05,453.79c26.6,0,52.09-23.39,50.86-50.85s-22.35-50.86-50.86-50.86c-26.6,0-52.09,23.39-50.86,50.86s22.35,50.85,50.86,50.85Z" style="fill: #029adc"/>
            </g>
          </g>
          <g>
            <g style="opacity: 0.17">
              <path d="M204.58,436.9c26.6,0,52.09-23.39,50.86-50.86s-22.35-50.86-50.86-50.86c-26.6,0-52.09,23.4-50.86,50.86s22.35,50.86,50.86,50.86Z" style="fill: #fff"/>
            </g>
            <g style="opacity: 0.17">
              <path d="M198.89,439.75c26.6,0,52.08-23.39,50.85-50.86S227.4,338,198.89,338c-26.61,0-52.09,23.39-50.86,50.86s22.34,50.86,50.86,50.86Z" style="fill: #fff"/>
            </g>
            <g style="opacity: 0.17">
              <path d="M217.4,444c26.6,0,52.08-23.39,50.85-50.86S245.91,342.3,217.4,342.3c-26.61,0-52.09,23.4-50.86,50.86S188.88,444,217.4,444Z" style="fill: #fff"/>
            </g>
            <g style="opacity: 0.17">
              <path d="M206,433.34c26.6,0,52.08-23.39,50.85-50.86S234.52,331.63,206,331.63c-26.61,0-52.09,23.39-50.86,50.85s22.34,50.86,50.86,50.86Z" style="fill: #fff"/>
            </g>
          </g>
        </g>
      </g>
      <g style="clip-path: url(#clip-path-2)">
        <g>
          <g>
            <g style="opacity: 0.17">
              <path d="M172,445.06c26.61,0,52.09-23.39,50.86-50.86S200.54,343.34,172,343.34c-26.6,0-52.08,23.4-50.85,50.86s22.34,50.86,50.85,50.86Z" style="fill: #029adc"/>
            </g>
            <g style="opacity: 0.17">
              <path d="M183.22,464c26.61,0,52.09-23.39,50.86-50.85s-22.34-50.86-50.86-50.86c-26.6,0-52.08,23.39-50.85,50.86S154.71,464,183.22,464Z" style="fill: #029adc"/>
            </g>
            <g style="opacity: 0.17">
              <path d="M206,471.07c26.6,0,52.08-23.39,50.85-50.86S234.52,369.36,206,369.36c-26.61,0-52.09,23.39-50.86,50.85s22.34,50.86,50.86,50.86Z" style="fill: #029adc"/>
            </g>
            <g style="opacity: 0.17">
              <path d="M220.24,468.22c26.61,0,52.09-23.39,50.86-50.85s-22.35-50.86-50.86-50.86c-26.6,0-52.08,23.39-50.85,50.86s22.34,50.85,50.85,50.85Z" style="fill: #029adc"/>
            </g>
            <g style="opacity: 0.17">
              <path d="M238.75,445.44c26.61,0,52.09-23.39,50.86-50.85s-22.35-50.86-50.86-50.86c-26.6,0-52.08,23.39-50.85,50.86s22.34,50.85,50.85,50.85Z" style="fill: #029adc"/>
            </g>
            <g style="opacity: 0.17">
              <path d="M238.75,426.93c26.61,0,52.09-23.39,50.86-50.85s-22.35-50.86-50.86-50.86c-26.6,0-52.08,23.39-50.85,50.86s22.34,50.85,50.85,50.85Z" style="fill: #029adc"/>
            </g>
            <g style="opacity: 0.17">
              <path d="M223.09,408.42c26.6,0,52.09-23.39,50.86-50.85s-22.35-50.86-50.86-50.86c-26.6,0-52.09,23.39-50.86,50.86s22.35,50.85,50.86,50.85Z" style="fill: #029adc"/>
            </g>
            <g style="opacity: 0.17">
              <path d="M181.69,408.23c26.6,0,52.09-23.39,50.86-50.86s-22.35-50.85-50.86-50.85c-26.6,0-52.09,23.39-50.86,50.85s22.35,50.86,50.86,50.86Z" style="fill: #029adc"/>
            </g>
            <g style="opacity: 0.17">
              <path d="M203.16,399.31c26.6,0,52.09-23.4,50.85-50.86s-22.34-50.86-50.85-50.86c-26.61,0-52.09,23.39-50.86,50.86s22.35,50.86,50.86,50.86Z" style="fill: #029adc"/>
            </g>
            <g style="opacity: 0.17">
              <path d="M233.06,409.85c26.6,0,52.09-23.4,50.86-50.86s-22.35-50.86-50.86-50.86c-26.6,0-52.09,23.39-50.86,50.86s22.35,50.86,50.86,50.86Z" style="fill: #029adc"/>
            </g>
            <g style="opacity: 0.17">
              <path d="M172.68,421.05c26.6,0,52.09-23.4,50.86-50.86s-22.35-50.86-50.86-50.86c-26.6,0-52.09,23.39-50.86,50.86s22.35,50.86,50.86,50.86Z" style="fill: #029adc"/>
            </g>
          </g>
          <g>
            <g style="opacity: 0.17">
              <path d="M188.92,448.29c26.6,0,52.09-23.39,50.86-50.86s-22.35-50.85-50.86-50.85c-26.6,0-52.09,23.39-50.86,50.85s22.35,50.86,50.86,50.86Z" style="fill: #029adc"/>
            </g>
            <g style="opacity: 0.17">
              <path d="M220.24,449.71c26.61,0,52.09-23.39,50.86-50.85S248.75,348,220.24,348c-26.6,0-52.08,23.39-50.85,50.86s22.34,50.85,50.85,50.85Z" style="fill: #029adc"/>
            </g>
            <g style="opacity: 0.17">
              <path d="M227.36,429.78c26.61,0,52.09-23.39,50.86-50.86s-22.35-50.85-50.86-50.85c-26.6,0-52.09,23.39-50.86,50.85s22.35,50.86,50.86,50.86Z" style="fill: #029adc"/>
            </g>
            <g style="opacity: 0.17">
              <path d="M203.16,418.39c26.6,0,52.09-23.39,50.85-50.86s-22.34-50.86-50.85-50.86c-26.61,0-52.09,23.4-50.86,50.86s22.35,50.86,50.86,50.86Z" style="fill: #029adc"/>
            </g>
            <g style="opacity: 0.17">
              <path d="M186.07,426.93c26.6,0,52.09-23.39,50.86-50.85s-22.35-50.86-50.86-50.86c-26.6,0-52.09,23.39-50.86,50.86s22.35,50.85,50.86,50.85Z" style="fill: #029adc"/>
            </g>
            <g style="opacity: 0.17">
              <path d="M176.1,439.75c26.61,0,52.09-23.39,50.86-50.86S204.62,338,176.1,338c-26.6,0-52.08,23.39-50.85,50.86s22.34,50.86,50.85,50.86Z" style="fill: #029adc"/>
            </g>
            <g style="opacity: 0.17">
              <path d="M198.89,442.6c26.6,0,52.08-23.4,50.85-50.86s-22.34-50.86-50.85-50.86c-26.61,0-52.09,23.39-50.86,50.86s22.34,50.86,50.86,50.86Z" style="fill: #029adc"/>
            </g>
            <g style="opacity: 0.17">
              <path d="M221.67,438.32c26.6,0,52.08-23.39,50.85-50.85s-22.34-50.86-50.85-50.86c-26.61,0-52.09,23.39-50.86,50.86s22.35,50.85,50.86,50.85Z" style="fill: #029adc"/>
            </g>
            <g style="opacity: 0.17">
              <path d="M218.82,419.81c26.6,0,52.09-23.39,50.86-50.85s-22.35-50.86-50.86-50.86c-26.6,0-52.09,23.39-50.86,50.86s22.35,50.85,50.86,50.85Z" style="fill: #029adc"/>
            </g>
            <g style="opacity: 0.17">
              <path d="M188.92,425.51c26.6,0,52.09-23.39,50.86-50.86s-22.35-50.86-50.86-50.86c-26.6,0-52.09,23.4-50.86,50.86s22.35,50.86,50.86,50.86Z" style="fill: #029adc"/>
            </g>
            <g style="opacity: 0.17">
              <path d="M203.05,453.79c26.6,0,52.09-23.39,50.86-50.85s-22.35-50.86-50.86-50.86c-26.6,0-52.09,23.39-50.86,50.86s22.35,50.85,50.86,50.85Z" style="fill: #029adc"/>
            </g>
          </g>
          <g>
            <g style="opacity: 0.17">
              <path d="M204.58,436.9c26.6,0,52.09-23.39,50.86-50.86s-22.35-50.86-50.86-50.86c-26.6,0-52.09,23.4-50.86,50.86s22.35,50.86,50.86,50.86Z" style="fill: #fff"/>
            </g>
            <g style="opacity: 0.17">
              <path d="M198.89,439.75c26.6,0,52.08-23.39,50.85-50.86S227.4,338,198.89,338c-26.61,0-52.09,23.39-50.86,50.86s22.34,50.86,50.86,50.86Z" style="fill: #fff"/>
            </g>
            <g style="opacity: 0.17">
              <path d="M217.4,444c26.6,0,52.08-23.39,50.85-50.86S245.91,342.3,217.4,342.3c-26.61,0-52.09,23.4-50.86,50.86S188.88,444,217.4,444Z" style="fill: #fff"/>
            </g>
            <g style="opacity: 0.17">
              <path d="M206,433.34c26.6,0,52.08-23.39,50.85-50.86S234.52,331.63,206,331.63c-26.61,0-52.09,23.39-50.86,50.85s22.34,50.86,50.86,50.86Z" style="fill: #fff"/>
            </g>
          </g>
        </g>
      </g>
    </g>
  </g>
</svg>
