<svg id="Layer_1" data-name="Layer 1" xmlns="http://www.w3.org/2000/svg" xmlns:xlink="http://www.w3.org/1999/xlink" viewBox="0 0 1000 444">
  <defs>
    <linearGradient id="linear-gradient" x1="528" y1="221.5" x2="590" y2="221.5" gradientUnits="userSpaceOnUse">
      <stop offset="0" stop-color="#ffc46b"/>
      <stop offset="1" stop-color="#ff7a2f"/>
    </linearGradient>
    <linearGradient id="linear-gradient-2" x1="396" y1="221.5" x2="434" y2="221.5" gradientUnits="userSpaceOnUse">
      <stop offset="0" stop-color="#ffc46b"/>
      <stop offset="1" stop-color="#fec272"/>
    </linearGradient>
  </defs>
  <title>sobre-transformacao-curva</title>
  <circle cx="171" cy="200" r="134" style="fill: none;stroke: #000;stroke-miterlimit: 10;stroke-width: 60px;opacity: 0.1"/>
  <g>
    <polyline points="217.97 39.65 233.43 81.87 193.16 101.88" style="fill: none;stroke: #f2f7fd;stroke-linecap: square;stroke-miterlimit: 10;stroke-width: 13px"/>
    <polyline points="25.52 281.16 40.67 238.81 84.42 249.22" style="fill: none;stroke: #f2f7fd;stroke-linecap: square;stroke-miterlimit: 10;stroke-width: 13px"/>
    <polyline points="296.19 311 251.26 309.29 248.02 264.43" style="fill: none;stroke: #f2f7fd;stroke-linecap: square;stroke-miterlimit: 10;stroke-width: 13px"/>
  </g>
  <g>
    <g>
      <path d="M88.48,16.35A72.64,72.64,0,0,0,21,113.56a2.68,2.68,0,0,0,2.53,1.78,3.34,3.34,0,0,0,.92-.15A2.69,2.69,0,0,0,26,111.74,67.23,67.23,0,0,1,136.29,40.92l.42.38-8.12.09a2.74,2.74,0,0,0-2.68,2.74,2.71,2.71,0,0,0,2.71,2.67h0l14.63-.18A2.73,2.73,0,0,0,146,43.89l-.18-14.63a2.7,2.7,0,0,0-2.7-2.68h0a2.74,2.74,0,0,0-2.68,2.74l.09,8.12-.41-.39A72.13,72.13,0,0,0,88.48,16.35Z" style="fill: #041e33"/>
      <path d="M32.69,134.07l.18,14.63a2.71,2.71,0,0,0,2.71,2.68h0a2.73,2.73,0,0,0,2.67-2.74l-.08-8.11.41.38A72.65,72.65,0,0,0,157.73,64.38a2.7,2.7,0,1,0-5.09,1.81A67.24,67.24,0,0,1,42.39,137.05l-.42-.39,8.12-.09a2.71,2.71,0,0,0,0-5.41h0l-14.63.18A2.7,2.7,0,0,0,32.69,134.07Z" style="fill: #041e33"/>
      <g>
        <path d="M119.46,81.84l5.06-3.42a.42.42,0,0,0,.12-.45l-3.3-7.22a.42.42,0,0,0-.45-.18l-5.68,1.57a5.86,5.86,0,0,1-1.6.21,6,6,0,0,1-4.46-2A29.13,29.13,0,0,0,105.61,67a6,6,0,0,1-2.17-5.83l1.13-6a.39.39,0,0,0-.24-.42L96.84,52a.38.38,0,0,0-.48.18l-2.94,5.12a6,6,0,0,1-5.56,3,25.65,25.65,0,0,0-5,.15,6,6,0,0,1-5.71-2.59l-3.39-5a.32.32,0,0,0-.3-.15.22.22,0,0,0-.14,0l-6.87,3.13L67.78,61a3.23,3.23,0,0,1-.19,2.23,6,6,0,0,1-2,5,25.54,25.54,0,0,0-3.36,3.6,6.41,6.41,0,0,1-4.72,2.38,6.75,6.75,0,0,1-1.13-.12L50.51,73h0a.57.57,0,0,0-.42.26L47.68,79.6a3,3,0,0,0,1.4,1.78l5.2,3a3.3,3.3,0,0,1,1.64,3,31.7,31.7,0,0,0,.18,5.35,3.39,3.39,0,0,1-.27,1.76,6,6,0,0,1-2.59,5.62l-4.47,3,1.59,3.47L52,110.29a3.2,3.2,0,0,0,.64.9l5-1.34a5.56,5.56,0,0,1,1.55-.21,6,6,0,0,1,2.75.67,3.27,3.27,0,0,1,2.72,1.08A34.06,34.06,0,0,0,68.64,115a3.28,3.28,0,0,1,1.22,3.21l-.26,1.38a6.89,6.89,0,0,1-.09,1.19l-.8,4.2a3.06,3.06,0,0,0,2,2.6l3.74,1.4,2.13.79s0,0,0,0l3-5.2a6.08,6.08,0,0,1,5.5-3,27,27,0,0,0,4.67-.15,6,6,0,0,1,3.44.64,3.33,3.33,0,0,1,3,1.44l3.42,5a3.65,3.65,0,0,0,.29.37l6.64-3a.32.32,0,0,0,.18-.41l-1.55-5.74a6,6,0,0,1,1.78-6,29.43,29.43,0,0,0,3.36-3.56,6,6,0,0,1,4.7-2.29,8,8,0,0,1,1.1.11l6,1.13a.42.42,0,0,0,.42-.23l2.79-7.5a.37.37,0,0,0-.18-.47l-5.14-3a6,6,0,0,1-3-5.53,30.87,30.87,0,0,0-.14-4.9A6,6,0,0,1,119.46,81.84ZM103.05,93.72a14.55,14.55,0,1,1-8.83-18.58A14.54,14.54,0,0,1,103.05,93.72Z" style="fill: #a4d7f0"/>
        <path d="M126.15,68.49l3.3,7.22a5.8,5.8,0,0,1,.51,2,3.06,3.06,0,0,0,.17-2.87l-1.66-3.62-1.67-3.63a3,3,0,0,0-3.16-1.74A5.62,5.62,0,0,1,126.15,68.49Z" style="fill: #029adc;opacity: 0.4"/>
        <path d="M109,60.29l-.36,1.92a.56.56,0,0,0,.24.6,38.23,38.23,0,0,1,4.16,3.92.65.65,0,0,0,.62.21l.72-.2a1.7,1.7,0,0,1-.24-.22,31.67,31.67,0,0,0-3.87-3.63A3.38,3.38,0,0,1,109,60.29Z" style="fill: #029adc;opacity: 0.4"/>
        <path d="M78.07,49.81l3.39,5a.71.71,0,0,0,.63.24L83,55a3.19,3.19,0,0,1-.61-.66L79,49.3A3,3,0,0,0,76.05,48,5.81,5.81,0,0,1,78.07,49.81Z" style="fill: #029adc;opacity: 0.4"/>
        <path d="M129.51,96.49l-5.14-3a3.36,3.36,0,0,1-1.64-3,33.52,33.52,0,0,0-.09-4.37l-.23.16a.64.64,0,0,0-.24.59,37.14,37.14,0,0,1,.18,5.77.7.7,0,0,0,.29.57l5.15,3a5.76,5.76,0,0,1,2.87,4.76l.25-.66A3.22,3.22,0,0,0,129.51,96.49Z" style="fill: #029adc;opacity: 0.4"/>
        <path d="M110.86,117.3c-.12.11-.22.23-.35.34a.67.67,0,0,0-.21.62l1.55,5.74a5.84,5.84,0,0,1,.18,1,3,3,0,0,0,.29-2.28Z" style="fill: #029adc;opacity: 0.4"/>
        <path d="M106.14,49.72a5.74,5.74,0,0,1,3.73,5.75l.34-1.8a3.09,3.09,0,0,0-1.93-3.45l-3.75-1.4-3.74-1.39a3.26,3.26,0,0,0-1.3-.19Z" style="fill: #029adc;opacity: 0.4"/>
      </g>
      <path d="M83.54,105.11a17.25,17.25,0,0,0,11.57-32.5,17.61,17.61,0,0,0-5.77-1,17.26,17.26,0,0,0-5.8,33.51ZM78.16,84.89A11.84,11.84,0,0,1,89.34,77a12.21,12.21,0,0,1,4,.69,11.85,11.85,0,0,1-4,23,12.53,12.53,0,0,1-4-.68A11.85,11.85,0,0,1,78.16,84.89Z" style="fill: #041e33"/>
      <path d="M61.06,66.49a.7.7,0,0,1-.59.24l-5.92-1.16a6.09,6.09,0,0,0-1-.09A5.85,5.85,0,0,0,48.13,69s0,.09-.06.12l-2.8,7.5a5.75,5.75,0,0,0,2.53,7l5.2,3a.66.66,0,0,1,.3.56,34,34,0,0,0,.21,5.8.63.63,0,0,1-.24.6l-5,3.38a5.75,5.75,0,0,0-2,7.14l3.3,7.23a5.74,5.74,0,0,0,5.24,3.36,5,5,0,0,0,1.48-.21L62.1,113a.59.59,0,0,1,.6.21,35.51,35.51,0,0,0,4.25,4,.65.65,0,0,1,.24.59l-1.13,5.92a5.74,5.74,0,0,0,3.65,6.48l7.5,2.79a5.86,5.86,0,0,0,2,.36,5.79,5.79,0,0,0,5-2.88l3-5.21a.67.67,0,0,1,.59-.29h0a38.84,38.84,0,0,0,5.5-.18.63.63,0,0,1,.6.24l3.42,5a5.74,5.74,0,0,0,4.75,2.53,5.81,5.81,0,0,0,2.38-.51l7.23-3.3a5.7,5.7,0,0,0,3.15-6.72l-1.55-5.74a.67.67,0,0,1,.21-.62,32.89,32.89,0,0,0,3.93-4.19.6.6,0,0,1,.59-.24l6,1.13a6.44,6.44,0,0,0,1.07.09,5.8,5.8,0,0,0,5.41-3.75l2.8-7.49a5.76,5.76,0,0,0-2.53-7l-5.15-3a.7.7,0,0,1-.29-.57,37.14,37.14,0,0,0-.18-5.77.64.64,0,0,1,.24-.59l5.05-3.42a5.74,5.74,0,0,0,2-7.14l-3.3-7.22a5.72,5.72,0,0,0-5.23-3.36,5.46,5.46,0,0,0-1.52.21l-5.71,1.6a.65.65,0,0,1-.62-.21,38.23,38.23,0,0,0-4.16-3.92.56.56,0,0,1-.24-.6l1.13-6a5.76,5.76,0,0,0-3.66-6.49l-7.49-2.79a5.9,5.9,0,0,0-2-.36,5.79,5.79,0,0,0-5,2.89l-3,5.11a.66.66,0,0,1-.6.3h0a33,33,0,0,0-6,.18.71.71,0,0,1-.63-.24l-3.39-5a5.79,5.79,0,0,0-7.13-2l-7.23,3.3a5.71,5.71,0,0,0-3.15,6.72l1.55,5.83a.61.61,0,0,1-.21.6A39.56,39.56,0,0,0,61.06,66.49Zm4.22,3.33a25.54,25.54,0,0,1,3.36-3.6,6,6,0,0,0,1.79-6l-1.55-5.83a.33.33,0,0,1,.18-.41l7.23-3.3a.22.22,0,0,1,.14,0,.32.32,0,0,1,.3.15l3.39,5a6,6,0,0,0,5.71,2.59,25.65,25.65,0,0,1,5-.15,6,6,0,0,0,5.56-3l2.94-5.12a.38.38,0,0,1,.48-.18l7.49,2.8a.39.39,0,0,1,.24.42l-1.13,6A6,6,0,0,0,108.61,65a28.41,28.41,0,0,1,3.54,3.33,6,6,0,0,0,4.46,2,5.86,5.86,0,0,0,1.6-.21l5.68-1.57a.42.42,0,0,1,.45.18l3.3,7.22a.42.42,0,0,1-.12.45l-5.06,3.42a6,6,0,0,0-2.58,5.65,30.87,30.87,0,0,1,.14,4.9,6,6,0,0,0,3,5.53l5.14,3a.37.37,0,0,1,.18.47l-2.79,7.5a.42.42,0,0,1-.42.23l-6-1.13a8,8,0,0,0-1.1-.11,6,6,0,0,0-4.7,2.29,29.43,29.43,0,0,1-3.36,3.56,6,6,0,0,0-1.78,6l1.55,5.74a.32.32,0,0,1-.18.41l-7.23,3.31a.27.27,0,0,1-.15,0,.31.31,0,0,1-.29-.15L98.44,122a6.07,6.07,0,0,0-5.68-2.59,27,27,0,0,1-4.67.15,6.08,6.08,0,0,0-5.5,3l-3,5.2a.38.38,0,0,1-.48.18l-7.49-2.8a.37.37,0,0,1-.24-.41l1.13-5.92a6,6,0,0,0-2.2-5.86,27.29,27.29,0,0,1-3.6-3.36,6,6,0,0,0-4.46-2,5.56,5.56,0,0,0-1.55.21l-5.82,1.54a.43.43,0,0,1-.45-.17L51.13,102a.42.42,0,0,1,.12-.45l5-3.39a6,6,0,0,0,2.59-5.67,33.49,33.49,0,0,1-.18-4.91,6,6,0,0,0-3-5.47l-5.2-3a.36.36,0,0,1-.18-.47l2.76-7.41a.57.57,0,0,1,.42-.26h0l5.92,1.13a6.75,6.75,0,0,0,1.13.12A6.41,6.41,0,0,0,65.28,69.82Z" style="fill: #041e33"/>
    </g>
    <g style="opacity: 0.7000000000000001">
      <path d="M49.19,180.86a6.2,6.2,0,0,1,3.59.89A3,3,0,0,1,54,184.4a3.61,3.61,0,0,1-.35,1.64,2.83,2.83,0,0,1-1,1.1,4.62,4.62,0,0,1-1.58.62A11,11,0,0,1,49,188H47.8v4.11H46.24V181.13a8.81,8.81,0,0,1,1.47-.21C48.25,180.88,48.74,180.86,49.19,180.86Zm.13,1.36c-.67,0-1.17,0-1.52.05v4.35H49a8.87,8.87,0,0,0,1.44-.1,3.12,3.12,0,0,0,1.08-.36,1.65,1.65,0,0,0,.68-.68,2.21,2.21,0,0,0,.24-1.1,2.11,2.11,0,0,0-.24-1.06,2,2,0,0,0-.68-.66,2.91,2.91,0,0,0-1-.34A6.4,6.4,0,0,0,49.32,182.22Z" style="fill: #041e33"/>
      <path d="M61.4,187.42c.17.21.38.49.64.84s.53.73.81,1.15.55.86.83,1.32a13.08,13.08,0,0,1,.69,1.33H62.68c-.22-.4-.45-.82-.7-1.23s-.5-.81-.76-1.19-.51-.74-.76-1.07-.48-.62-.68-.86H57.52v4.34H56V181.13a8.81,8.81,0,0,1,1.47-.21c.53,0,1-.06,1.48-.06a6.06,6.06,0,0,1,3.56.88,3,3,0,0,1,1.22,2.62,3.12,3.12,0,0,1-.58,1.89A3.46,3.46,0,0,1,61.4,187.42ZM59,182.22c-.66,0-1.16,0-1.52.05v4.17h1.11a10.58,10.58,0,0,0,1.44-.08,3.27,3.27,0,0,0,1.08-.3,1.66,1.66,0,0,0,.68-.63,2.11,2.11,0,0,0,.24-1.08,2.05,2.05,0,0,0-.24-1,1.79,1.79,0,0,0-.65-.66,2.72,2.72,0,0,0-1-.33A6.33,6.33,0,0,0,59,182.22Z" style="fill: #041e33"/>
      <path d="M65.41,186.51a6.7,6.7,0,0,1,.43-2.51A5.11,5.11,0,0,1,67,182.18a4.89,4.89,0,0,1,1.69-1.1,5.87,5.87,0,0,1,2.06-.36,5.65,5.65,0,0,1,2,.36,4.85,4.85,0,0,1,1.68,1.1A5.23,5.23,0,0,1,75.58,184a7.71,7.71,0,0,1,0,5,5.23,5.23,0,0,1-1.14,1.82,4.69,4.69,0,0,1-1.68,1.09,5.45,5.45,0,0,1-2,.37,5.66,5.66,0,0,1-2.06-.37A4.73,4.73,0,0,1,67,190.84,5.11,5.11,0,0,1,65.84,189,6.7,6.7,0,0,1,65.41,186.51Zm1.63,0a6.18,6.18,0,0,0,.26,1.83,4,4,0,0,0,.73,1.4,3.24,3.24,0,0,0,1.15.89,3.91,3.91,0,0,0,3,0,3.21,3.21,0,0,0,1.14-.89,4,4,0,0,0,.73-1.4,6.57,6.57,0,0,0,0-3.66,4,4,0,0,0-.73-1.4,3.1,3.1,0,0,0-1.14-.89,3.91,3.91,0,0,0-3,0,3.13,3.13,0,0,0-1.15.89,4,4,0,0,0-.73,1.4A6.18,6.18,0,0,0,67,186.51Z" style="fill: #041e33"/>
      <path d="M83.08,192.3a5.81,5.81,0,0,1-2.13-.38,4.6,4.6,0,0,1-1.65-1.12A5,5,0,0,1,78.24,189a7.24,7.24,0,0,1-.38-2.47,6.77,6.77,0,0,1,.42-2.47,5.5,5.5,0,0,1,1.15-1.82,4.9,4.9,0,0,1,1.68-1.12,5.38,5.38,0,0,1,2-.38,6.73,6.73,0,0,1,2.19.32,4.39,4.39,0,0,1,.67.25l.35.19-.45,1.28a2.24,2.24,0,0,0-.41-.2c-.18-.08-.39-.15-.62-.23a6.89,6.89,0,0,0-.75-.18,4.57,4.57,0,0,0-.83-.07,4,4,0,0,0-1.58.3,3.28,3.28,0,0,0-1.2.88,4,4,0,0,0-.76,1.4,6.26,6.26,0,0,0-.26,1.85,6.45,6.45,0,0,0,.23,1.81,3.92,3.92,0,0,0,.7,1.4,3,3,0,0,0,1.16.9,3.87,3.87,0,0,0,1.62.32,6,6,0,0,0,1.78-.22,9.24,9.24,0,0,0,1-.4l.4,1.28a2.39,2.39,0,0,1-.4.2,6.21,6.21,0,0,1-.72.23,9.19,9.19,0,0,1-1,.19A9.57,9.57,0,0,1,83.08,192.3Z" style="fill: #041e33"/>
      <path d="M88.23,192.06V181H95v1.33H89.78v3.3h4.64v1.29H89.78v3.84H95.4v1.33Z" style="fill: #041e33"/>
      <path d="M99.94,191c1.62,0,2.43-.56,2.43-1.67a1.61,1.61,0,0,0-.22-.87,1.9,1.9,0,0,0-.58-.62,3.73,3.73,0,0,0-.84-.46c-.31-.13-.65-.26-1-.38a9.9,9.9,0,0,1-1.15-.48,4,4,0,0,1-1-.62A2.74,2.74,0,0,1,97,185a2.89,2.89,0,0,1-.23-1.2,2.79,2.79,0,0,1,1-2.27,4.22,4.22,0,0,1,2.74-.81,7.42,7.42,0,0,1,1.83.21,4.46,4.46,0,0,1,1.21.47l-.5,1.27a4,4,0,0,0-1-.41,5.43,5.43,0,0,0-1.54-.2,3.1,3.1,0,0,0-.83.1,2.31,2.31,0,0,0-.68.28,1.5,1.5,0,0,0-.45.49,1.59,1.59,0,0,0,0,1.45,1.77,1.77,0,0,0,.49.54,4.77,4.77,0,0,0,.75.42c.28.13.59.26.93.38s.92.39,1.32.58a4.09,4.09,0,0,1,1,.69,2.68,2.68,0,0,1,.68.95,3.34,3.34,0,0,1,.24,1.34,2.62,2.62,0,0,1-1.06,2.24,5,5,0,0,1-3,.78,7.55,7.55,0,0,1-1.21-.09,8.69,8.69,0,0,1-1-.21,6,6,0,0,1-.75-.25l-.49-.23.47-1.28a6.73,6.73,0,0,0,1.12.46A5.74,5.74,0,0,0,99.94,191Z" style="fill: #041e33"/>
      <path d="M108.45,191c1.62,0,2.43-.56,2.43-1.67a1.7,1.7,0,0,0-.21-.87,2,2,0,0,0-.59-.62,3.73,3.73,0,0,0-.84-.46c-.31-.13-.65-.26-1-.38a9.9,9.9,0,0,1-1.15-.48,3.74,3.74,0,0,1-.94-.62,2.62,2.62,0,0,1-.64-.86,2.89,2.89,0,0,1-.23-1.2,2.79,2.79,0,0,1,1-2.27,4.24,4.24,0,0,1,2.74-.81,7.42,7.42,0,0,1,1.83.21,4.46,4.46,0,0,1,1.21.47l-.5,1.27a4,4,0,0,0-1-.41,5.43,5.43,0,0,0-1.54-.2,3.1,3.1,0,0,0-.83.1,2.15,2.15,0,0,0-.67.28,1.51,1.51,0,0,0-.45,1.94,1.91,1.91,0,0,0,.49.54,5.27,5.27,0,0,0,.75.42c.28.13.59.26.93.38s.92.39,1.32.58a4.09,4.09,0,0,1,1,.69,2.68,2.68,0,0,1,.68.95,3.34,3.34,0,0,1,.24,1.34,2.62,2.62,0,0,1-1.06,2.24,5,5,0,0,1-3,.78,7.55,7.55,0,0,1-1.21-.09,9.2,9.2,0,0,1-1-.21,6,6,0,0,1-.75-.25l-.48-.23.46-1.28a7.12,7.12,0,0,0,1.12.46A5.78,5.78,0,0,0,108.45,191Z" style="fill: #041e33"/>
      <path d="M113.94,186.51a6.91,6.91,0,0,1,.42-2.51,5.25,5.25,0,0,1,1.15-1.82,4.93,4.93,0,0,1,1.7-1.1,5.87,5.87,0,0,1,2.06-.36,5.65,5.65,0,0,1,2,.36,4.91,4.91,0,0,1,1.67,1.1,5.4,5.4,0,0,1,1.15,1.82,7.71,7.71,0,0,1,0,5,5.4,5.4,0,0,1-1.15,1.82,4.74,4.74,0,0,1-1.67,1.09,5.45,5.45,0,0,1-2,.37,5.66,5.66,0,0,1-2.06-.37,4.77,4.77,0,0,1-1.7-1.09,5.25,5.25,0,0,1-1.15-1.82A6.91,6.91,0,0,1,113.94,186.51Zm1.63,0a6.18,6.18,0,0,0,.26,1.83,4.12,4.12,0,0,0,.72,1.4,3.28,3.28,0,0,0,1.16.89,3.56,3.56,0,0,0,1.52.31,3.5,3.5,0,0,0,1.52-.31,3.33,3.33,0,0,0,1.15-.89,4.13,4.13,0,0,0,.73-1.4,6.82,6.82,0,0,0,0-3.66,4.13,4.13,0,0,0-.73-1.4,3.22,3.22,0,0,0-1.15-.89,3.5,3.5,0,0,0-1.52-.31,3.56,3.56,0,0,0-1.52.31,3.17,3.17,0,0,0-1.16.89,4.12,4.12,0,0,0-.72,1.4A6.18,6.18,0,0,0,115.57,186.51Z" style="fill: #041e33"/>
      <path d="M129.25,191c1.62,0,2.43-.56,2.43-1.67a1.7,1.7,0,0,0-.21-.87,2,2,0,0,0-.59-.62,3.73,3.73,0,0,0-.84-.46c-.31-.13-.65-.26-1-.38a9.9,9.9,0,0,1-1.15-.48,3.74,3.74,0,0,1-.94-.62,2.62,2.62,0,0,1-.64-.86,2.89,2.89,0,0,1-.23-1.2,2.79,2.79,0,0,1,1-2.27,4.24,4.24,0,0,1,2.74-.81,7.42,7.42,0,0,1,1.83.21,4.46,4.46,0,0,1,1.21.47l-.5,1.27a4,4,0,0,0-1-.41,5.43,5.43,0,0,0-1.54-.2,3.1,3.1,0,0,0-.83.1,2.15,2.15,0,0,0-.67.28,1.51,1.51,0,0,0-.45,1.94,1.91,1.91,0,0,0,.49.54,5.27,5.27,0,0,0,.75.42c.28.13.59.26.93.38s.92.39,1.32.58a4.09,4.09,0,0,1,1,.69,2.68,2.68,0,0,1,.68.95,3.34,3.34,0,0,1,.24,1.34,2.62,2.62,0,0,1-1.06,2.24,5,5,0,0,1-3,.78,7.55,7.55,0,0,1-1.21-.09,9.2,9.2,0,0,1-1-.21,6,6,0,0,1-.75-.25l-.48-.23.46-1.28a7.12,7.12,0,0,0,1.12.46A5.74,5.74,0,0,0,129.25,191Z" style="fill: #041e33"/>
    </g>
  </g>
  <g>
    <g>
      <rect x="102" y="296.29" width="61" height="60.71" rx="5.92" style="fill: #a4d7f0"/>
      <path d="M204.88,322.87h-34v-4.81H180a2.12,2.12,0,1,0,0-4.23h-9.19V309h6.38a8.83,8.83,0,0,0,6.29-2.6l13.91-13.91a6.62,6.62,0,1,0-3-3l-13.91,13.91a4.64,4.64,0,0,1-3.3,1.37h-6.38v-4.67A11.17,11.17,0,0,0,159.68,289H155V270.24a6.64,6.64,0,1,0-4.23,0V289H146v-9.18a2.12,2.12,0,1,0-4.23,0V289h-4.81v-34a2.12,2.12,0,0,0-4.23,0v34h-4.81v-9.18a2.12,2.12,0,1,0-4.23,0V289h-4.81v-6.37a8.84,8.84,0,0,0-2.61-6.29l-13.91-13.92a6.66,6.66,0,1,0-3,3l13.91,13.92a4.64,4.64,0,0,1,1.37,3.3V289H110a11.41,11.41,0,0,0-2.79.35,2.12,2.12,0,1,0,1.06,4.1,7.13,7.13,0,0,1,1.73-.22h49.73a6.93,6.93,0,0,1,6.92,6.93v49.73a7.19,7.19,0,0,1-.21,1.73,2.11,2.11,0,0,0,1.52,2.57,1.93,1.93,0,0,0,.53.07,2.1,2.1,0,0,0,2-1.59,10.81,10.81,0,0,0,.35-2.78v-4.67h18.73a6.64,6.64,0,1,0,0-4.23H170.83v-4.81H180a2.12,2.12,0,1,0,0-4.23h-9.19V327.1h34a2.12,2.12,0,1,0,0-4.23Zm-6.22-38a2.41,2.41,0,0,1,4.11,1.7,2.41,2.41,0,1,1-4.81,0A2.38,2.38,0,0,1,198.66,284.86ZM98.09,261.14a2.41,2.41,0,0,1-3.4-3.41,2.41,2.41,0,0,1,3.4,0A2.41,2.41,0,0,1,98.09,261.14Zm54.81,5.22a2.41,2.41,0,1,1,2.4-2.41A2.41,2.41,0,0,1,152.9,266.36Zm42.94,74.3a2.41,2.41,0,1,1-2.4,2.4A2.41,2.41,0,0,1,195.84,340.66Z" style="fill: #041e33"/>
      <path d="M177.93,385.84a6.65,6.65,0,0,0-7.64-1.25l-13.91-13.91a4.64,4.64,0,0,1-1.37-3.3V361h4.67a11.41,11.41,0,0,0,2.79-.35,2.12,2.12,0,0,0-1.06-4.1,6.67,6.67,0,0,1-1.73.22H110a6.93,6.93,0,0,1-6.92-6.92V300.12a7.13,7.13,0,0,1,.21-1.73,2.11,2.11,0,1,0-4.09-1.06,10.94,10.94,0,0,0-.35,2.79v4.67H80.08a6.64,6.64,0,1,0,0,4.22H98.8v4.82H89.61a2.12,2.12,0,1,0,0,4.23H98.8v4.81h-34a2.12,2.12,0,1,0,0,4.23H98.8v4.81H89.61a2.12,2.12,0,1,0,0,4.23H98.8V341H92.42a8.84,8.84,0,0,0-6.29,2.61l-13.91,13.9a6.62,6.62,0,1,0,3,3l13.91-13.9a4.6,4.6,0,0,1,3.3-1.37H98.8v4.67A11.16,11.16,0,0,0,110,361h4.67v18.72a6.64,6.64,0,1,0,4.23,0V361h4.81v9.19a2.12,2.12,0,0,0,4.23,0V361h4.81v34.05a2.12,2.12,0,1,0,4.23,0V361h4.81v9.19a2.12,2.12,0,0,0,4.23,0V361h4.81v6.38a8.84,8.84,0,0,0,2.61,6.29l13.91,13.91a6.63,6.63,0,1,0,10.63-1.74ZM73.79,309.31a2.41,2.41,0,1,1,2.4-2.41A2.41,2.41,0,0,1,73.79,309.31ZM71,365.11a2.42,2.42,0,0,1-1.7.7,2.41,2.41,0,0,1-2.41-2.4A2.42,2.42,0,0,1,69.27,361a2.41,2.41,0,0,1,2.4,2.41A2.42,2.42,0,0,1,71,365.11ZM119.14,386a2.41,2.41,0,1,1-2.41-2.41A2.41,2.41,0,0,1,119.14,386Zm55.8,6.22a2.4,2.4,0,1,1,0-3.4A2.4,2.4,0,0,1,174.94,392.23Z" style="fill: #041e33"/>
    </g>
    <g style="opacity: 0.7000000000000001">
      <path d="M94.4,416v1.35H90.92v9.74H89.36v-9.74H85.88V416Z" style="fill: #041e33"/>
      <path d="M96,427.06V416h6.77v1.33H97.59v3.3h4.64v1.29H97.59v3.84h5.61v1.33Z" style="fill: #041e33"/>
      <path d="M109.49,427.3a5.81,5.81,0,0,1-2.13-.38,4.6,4.6,0,0,1-1.65-1.12,5.17,5.17,0,0,1-1.06-1.82,7.49,7.49,0,0,1-.38-2.47,6.76,6.76,0,0,1,.43-2.47,5.32,5.32,0,0,1,1.14-1.82,4.9,4.9,0,0,1,1.68-1.12,5.38,5.38,0,0,1,2-.38,7.76,7.76,0,0,1,1.24.09,7.57,7.57,0,0,1,1,.23,4.65,4.65,0,0,1,.66.25l.36.19-.45,1.28a2.81,2.81,0,0,0-.42-.2c-.18-.08-.38-.15-.61-.23a6.56,6.56,0,0,0-.76-.18,4.47,4.47,0,0,0-.82-.07,4,4,0,0,0-1.58.3,3.28,3.28,0,0,0-1.2.88,3.85,3.85,0,0,0-.76,1.4,5.94,5.94,0,0,0-.27,1.85,6.84,6.84,0,0,0,.23,1.81,4.09,4.09,0,0,0,.7,1.4,3.11,3.11,0,0,0,1.16.9,3.9,3.9,0,0,0,1.62.32,6,6,0,0,0,1.78-.22,9.56,9.56,0,0,0,1.06-.4l.4,1.28a2.88,2.88,0,0,1-.4.2c-.2.08-.44.15-.72.23a9.35,9.35,0,0,1-2.26.27Z" style="fill: #041e33"/>
      <path d="M122.24,427.06c-.23-.39-.5-.84-.81-1.33s-.63-1-1-1.53-.72-1.06-1.1-1.6-.75-1.07-1.12-1.58-.74-1-1.09-1.43-.68-.84-1-1.19v8.66h-1.52V416h1.23c.51.54,1,1.16,1.61,1.87s1.14,1.44,1.7,2.19,1.09,1.49,1.58,2.21.92,1.38,1.26,1.94V416h1.52v11.09Z" style="fill: #041e33"/>
      <path d="M125.84,421.51a6.7,6.7,0,0,1,.43-2.51,5.11,5.11,0,0,1,1.15-1.82,4.89,4.89,0,0,1,1.69-1.1,5.87,5.87,0,0,1,2.06-.36,5.61,5.61,0,0,1,2,.36,4.85,4.85,0,0,1,1.68,1.1A5.23,5.23,0,0,1,136,419a7.71,7.71,0,0,1,0,5,5.23,5.23,0,0,1-1.14,1.82,4.69,4.69,0,0,1-1.68,1.09,5.41,5.41,0,0,1-2,.37,5.66,5.66,0,0,1-2.06-.37,4.73,4.73,0,0,1-1.69-1.09,5.11,5.11,0,0,1-1.15-1.82A6.7,6.7,0,0,1,125.84,421.51Zm1.63,0a6.18,6.18,0,0,0,.26,1.83,4,4,0,0,0,.73,1.4,3.24,3.24,0,0,0,1.15.89,3.91,3.91,0,0,0,3,0,3.21,3.21,0,0,0,1.14-.89,4,4,0,0,0,.73-1.4,6.57,6.57,0,0,0,0-3.66,4,4,0,0,0-.73-1.4,3.1,3.1,0,0,0-1.14-.89,3.91,3.91,0,0,0-3,0,3.13,3.13,0,0,0-1.15.89,4,4,0,0,0-.73,1.4A6.18,6.18,0,0,0,127.47,421.51Z" style="fill: #041e33"/>
      <path d="M145.41,425.72v1.34h-6.67V416h1.55v9.75Z" style="fill: #041e33"/>
      <path d="M145.87,421.51a6.91,6.91,0,0,1,.43-2.51,5.11,5.11,0,0,1,1.15-1.82,4.93,4.93,0,0,1,1.7-1.1,5.82,5.82,0,0,1,2-.36,5.71,5.71,0,0,1,2,.36,4.91,4.91,0,0,1,1.67,1.1A5.23,5.23,0,0,1,156,419a7.54,7.54,0,0,1,0,5,5.23,5.23,0,0,1-1.14,1.82,4.74,4.74,0,0,1-1.67,1.09,5.5,5.5,0,0,1-2,.37,5.61,5.61,0,0,1-2-.37,4.77,4.77,0,0,1-1.7-1.09A5.11,5.11,0,0,1,146.3,424,6.91,6.91,0,0,1,145.87,421.51Zm1.64,0a6.18,6.18,0,0,0,.25,1.83,4.13,4.13,0,0,0,.73,1.4,3.24,3.24,0,0,0,1.15.89,3.61,3.61,0,0,0,1.53.31,3.56,3.56,0,0,0,1.52-.31,3.21,3.21,0,0,0,1.14-.89,4,4,0,0,0,.73-1.4,6.57,6.57,0,0,0,0-3.66,4,4,0,0,0-.73-1.4,3.1,3.1,0,0,0-1.14-.89,3.56,3.56,0,0,0-1.52-.31,3.61,3.61,0,0,0-1.53.31,3.13,3.13,0,0,0-1.15.89,4.13,4.13,0,0,0-.73,1.4A6.18,6.18,0,0,0,147.51,421.51Z" style="fill: #041e33"/>
      <path d="M165.54,421.6h1.55v5.19c-.13,0-.31.09-.55.14s-.52.11-.83.16-.66.1-1,.14a10.56,10.56,0,0,1-1.13,0,5.61,5.61,0,0,1-2.13-.38,4.6,4.6,0,0,1-1.65-1.12A5,5,0,0,1,158.7,424a7.39,7.39,0,0,1-.38-2.46,6.56,6.56,0,0,1,.43-2.47,5.32,5.32,0,0,1,1.14-1.82,4.85,4.85,0,0,1,1.69-1.12,5.44,5.44,0,0,1,2.07-.38,8.92,8.92,0,0,1,1.34.09,7.91,7.91,0,0,1,1,.23,5.6,5.6,0,0,1,.68.25l.36.19-.5,1.3a4.19,4.19,0,0,0-1.23-.5,5.93,5.93,0,0,0-1.57-.2,3.81,3.81,0,0,0-1.54.3,3.25,3.25,0,0,0-1.19.88,4.18,4.18,0,0,0-.76,1.4,5.94,5.94,0,0,0-.27,1.85,6.84,6.84,0,0,0,.23,1.81,3.94,3.94,0,0,0,.71,1.4,3.11,3.11,0,0,0,1.16.9,4,4,0,0,0,1.64.32,7.61,7.61,0,0,0,1.15-.07,4.54,4.54,0,0,0,.68-.14Z" style="fill: #041e33"/>
      <path d="M169.52,416h1.55v11.09h-1.55Z" style="fill: #041e33"/>
      <path d="M181.23,427.06c-.18-.48-.35-.95-.51-1.42l-.49-1.41h-5l-1,2.83h-1.61c.42-1.17.82-2.26,1.2-3.26s.74-1.94,1.09-2.84.72-1.75,1.07-2.56.72-1.63,1.1-2.43h1.43c.38.8.75,1.61,1.1,2.43s.71,1.67,1.06,2.56.73,1.85,1.1,2.84l1.2,3.26ZM179.78,423q-.51-1.4-1-2.7c-.33-.87-.68-1.7-1-2.5-.37.8-.72,1.63-1.06,2.5s-.67,1.77-1,2.7Z" style="fill: #041e33"/>
    </g>
  </g>
  <g>
    <g style="opacity: 0.7000000000000001">
      <path d="M271,246.86a6.2,6.2,0,0,1,3.59.89,3,3,0,0,1,1.25,2.65,3.61,3.61,0,0,1-.34,1.64,2.83,2.83,0,0,1-1,1.1,4.62,4.62,0,0,1-1.58.62,11,11,0,0,1-2.09.19h-1.24v4.11H268V247.13a8.81,8.81,0,0,1,1.47-.21C270,246.88,270.51,246.86,271,246.86Zm.12,1.36c-.66,0-1.16,0-1.52.05v4.35h1.17a9,9,0,0,0,1.44-.1,3.12,3.12,0,0,0,1.08-.36,1.71,1.71,0,0,0,.68-.68,2.21,2.21,0,0,0,.24-1.1,2,2,0,0,0-.25-1.06,1.93,1.93,0,0,0-.67-.66,2.91,2.91,0,0,0-1-.34A6.51,6.51,0,0,0,271.08,248.22Z" style="fill: #041e33"/>
      <path d="M277.74,258.06V247h6.77v1.33h-5.22v3.3h4.64v1.29h-4.64v3.84h5.62v1.33Z" style="fill: #041e33"/>
      <path d="M289.45,257c1.62,0,2.43-.56,2.43-1.67a1.7,1.7,0,0,0-.21-.87,2,2,0,0,0-.59-.62,3.73,3.73,0,0,0-.84-.46c-.31-.13-.65-.26-1-.38a9.9,9.9,0,0,1-1.15-.48,3.74,3.74,0,0,1-.94-.62,2.62,2.62,0,0,1-.64-.86,2.89,2.89,0,0,1-.23-1.2,2.79,2.79,0,0,1,1-2.27,4.24,4.24,0,0,1,2.74-.81,7.42,7.42,0,0,1,1.83.21,4.46,4.46,0,0,1,1.21.47l-.5,1.27a4,4,0,0,0-1-.41,5.43,5.43,0,0,0-1.54-.2,3.1,3.1,0,0,0-.83.1,2.15,2.15,0,0,0-.67.28,1.51,1.51,0,0,0-.45,1.94,1.91,1.91,0,0,0,.49.54,5.27,5.27,0,0,0,.75.42c.28.13.59.26.93.38s.92.39,1.32.58a4.09,4.09,0,0,1,1,.69,2.68,2.68,0,0,1,.68.95,3.34,3.34,0,0,1,.24,1.34,2.62,2.62,0,0,1-1.06,2.24,5,5,0,0,1-3,.78,7.55,7.55,0,0,1-1.21-.09,9.2,9.2,0,0,1-1-.21,6,6,0,0,1-.75-.25l-.48-.23.46-1.28a7.12,7.12,0,0,0,1.12.46A5.78,5.78,0,0,0,289.45,257Z" style="fill: #041e33"/>
      <path d="M298,257c1.62,0,2.43-.56,2.43-1.67a1.7,1.7,0,0,0-.21-.87,2,2,0,0,0-.59-.62,3.73,3.73,0,0,0-.84-.46c-.31-.13-.64-.26-1-.38a9.9,9.9,0,0,1-1.15-.48,3.74,3.74,0,0,1-.94-.62A2.46,2.46,0,0,1,295,251a2.73,2.73,0,0,1-.24-1.2,2.77,2.77,0,0,1,1-2.27,4.19,4.19,0,0,1,2.73-.81,7.42,7.42,0,0,1,1.83.21,4.33,4.33,0,0,1,1.21.47l-.49,1.27a4.32,4.32,0,0,0-1-.41,5.55,5.55,0,0,0-1.55-.2,3.15,3.15,0,0,0-.83.1,2.15,2.15,0,0,0-.67.28,1.53,1.53,0,0,0-.46.49,1.59,1.59,0,0,0,0,1.45,1.81,1.81,0,0,0,.5.54,4.65,4.65,0,0,0,.74.42,9.64,9.64,0,0,0,.94.38c.48.2.92.39,1.32.58a4.28,4.28,0,0,1,1,.69,2.81,2.81,0,0,1,.68.95,3.34,3.34,0,0,1,.24,1.34,2.63,2.63,0,0,1-1.07,2.24,5,5,0,0,1-3,.78,7.55,7.55,0,0,1-1.21-.09,9.77,9.77,0,0,1-1-.21,5.29,5.29,0,0,1-.74-.25l-.49-.23.46-1.28a7.12,7.12,0,0,0,1.12.46A5.78,5.78,0,0,0,298,257Z" style="fill: #041e33"/>
      <path d="M303.45,252.51a6.91,6.91,0,0,1,.42-2.51,5.27,5.27,0,0,1,1.16-1.82,4.89,4.89,0,0,1,1.69-1.1,5.87,5.87,0,0,1,2.06-.36,5.65,5.65,0,0,1,2,.36,4.81,4.81,0,0,1,1.67,1.1,5.25,5.25,0,0,1,1.15,1.82,7.71,7.71,0,0,1,0,5,5.25,5.25,0,0,1-1.15,1.82,4.65,4.65,0,0,1-1.67,1.09,5.45,5.45,0,0,1-2,.37,5.66,5.66,0,0,1-2.06-.37,4.73,4.73,0,0,1-1.69-1.09,5.27,5.27,0,0,1-1.16-1.82A6.91,6.91,0,0,1,303.45,252.51Zm1.63,0a6.18,6.18,0,0,0,.26,1.83,4,4,0,0,0,.73,1.4,3.16,3.16,0,0,0,1.15.89,3.91,3.91,0,0,0,3,0,3.3,3.3,0,0,0,1.14-.89,4.13,4.13,0,0,0,.73-1.4,6.82,6.82,0,0,0,0-3.66,4.13,4.13,0,0,0-.73-1.4,3.18,3.18,0,0,0-1.14-.89,3.91,3.91,0,0,0-3,0,3.05,3.05,0,0,0-1.15.89,4,4,0,0,0-.73,1.4A6.18,6.18,0,0,0,305.08,252.51Z" style="fill: #041e33"/>
      <path d="M323.45,258.06c-.18-.48-.35-.95-.51-1.42l-.5-1.41h-5l-1,2.83h-1.62l1.2-3.26c.38-1,.74-1.94,1.1-2.84s.71-1.75,1.06-2.56.72-1.63,1.11-2.43h1.42c.39.8.75,1.61,1.11,2.43s.7,1.67,1.06,2.56.72,1.85,1.1,2.84l1.2,3.26ZM322,254c-.34-.93-.68-1.83-1-2.7s-.69-1.7-1.05-2.5c-.37.8-.73,1.63-1.06,2.5s-.67,1.77-1,2.7Z" style="fill: #041e33"/>
      <path d="M329.48,257c1.62,0,2.43-.56,2.43-1.67a1.7,1.7,0,0,0-.21-.87,2,2,0,0,0-.59-.62,3.73,3.73,0,0,0-.84-.46c-.31-.13-.64-.26-1-.38a9.9,9.9,0,0,1-1.15-.48,3.74,3.74,0,0,1-.94-.62,2.46,2.46,0,0,1-.63-.86,2.73,2.73,0,0,1-.24-1.2,2.77,2.77,0,0,1,1-2.27,4.19,4.19,0,0,1,2.73-.81,7.42,7.42,0,0,1,1.83.21,4.33,4.33,0,0,1,1.21.47l-.49,1.27a4.32,4.32,0,0,0-1-.41,5.55,5.55,0,0,0-1.55-.2,3.15,3.15,0,0,0-.83.1,2.15,2.15,0,0,0-.67.28,1.53,1.53,0,0,0-.46.49,1.59,1.59,0,0,0,0,1.45,1.81,1.81,0,0,0,.5.54,4.65,4.65,0,0,0,.74.42,9.64,9.64,0,0,0,.94.38c.48.2.92.39,1.32.58a4.28,4.28,0,0,1,1,.69,2.81,2.81,0,0,1,.68.95,3.34,3.34,0,0,1,.24,1.34,2.63,2.63,0,0,1-1.07,2.24,5,5,0,0,1-3,.78,7.55,7.55,0,0,1-1.21-.09,9.77,9.77,0,0,1-1-.21,5.29,5.29,0,0,1-.74-.25l-.49-.23.46-1.28a7.12,7.12,0,0,0,1.12.46A5.78,5.78,0,0,0,329.48,257Z" style="fill: #041e33"/>
    </g>
    <g>
      <g>
        <path d="M261.76,106.91c.44-.15.88-.28,1.34-.39.08-.2.18-.39.27-.58A15.27,15.27,0,0,0,261.76,106.91Z" style="fill: #a4d7f0"/>
        <path d="M288,133.39a10.49,10.49,0,0,1,5.31,1.43V114c0-7.49-6.2-14.06-13.26-14.06-4.58,0-8.47,2.82-10.81,6.29a15.78,15.78,0,0,1,8.8,4.47,2.65,2.65,0,0,1-3.75,3.75,10.61,10.61,0,0,0-18.11,7.5v.21a18.09,18.09,0,0,1,2.65-.21c10.06,0,18.56,8.87,18.56,19.37a2.65,2.65,0,0,1-5.3,0c0-7.49-6.2-14.06-13.26-14.06-7.43,0-13.26,6.9-13.26,14.06a13.06,13.06,0,0,0,1.78,6.49,2.67,2.67,0,0,1-.89,3.55,13.17,13.17,0,0,0-6.2,11.17c0,7.49,6.07,14.06,13.27,14.06a2.65,2.65,0,1,1,0,5.3,17.88,17.88,0,0,1-11.32-4.17,13,13,0,0,0-1.95,6.83,13.21,13.21,0,0,0,4.84,10.14,2.64,2.64,0,0,1,.88,2.66c-2.3,9.56,6.2,18.11,13.75,17.08l.56-.08a2.67,2.67,0,0,1,2.7,1.52,16,16,0,0,0,14.4,9.25c8.63,0,15.92-7.65,15.92-16.7a15.94,15.94,0,0,0-15.92-15.92,2.65,2.65,0,0,1,0-5.3,21.18,21.18,0,0,1,15.92,7.2V144a5.31,5.31,0,0,0-5.31-5.31,2.65,2.65,0,0,1,0-5.3Z" style="fill: #a4d7f0"/>
        <path d="M322.72,106.26c-2.34-3.47-6.23-6.29-10.81-6.29-7.06,0-13.26,6.57-13.26,14.06v20.79a10.49,10.49,0,0,1,5.31-1.43,2.65,2.65,0,1,1,0,5.3,5.31,5.31,0,0,0-5.31,5.31v50.43a21.18,21.18,0,0,1,15.92-7.2,2.65,2.65,0,1,1,0,5.3,15.94,15.94,0,0,0-15.92,15.92c0,9.05,7.29,16.7,15.92,16.7A16,16,0,0,0,329,215.9a2.66,2.66,0,0,1,2.7-1.52l.56.08c6.72.91,14.16-5.74,14.16-14a13.18,13.18,0,0,0-.41-3.11,2.64,2.64,0,0,1,.88-2.66,13.21,13.21,0,0,0,4.84-10.14,13,13,0,0,0-1.95-6.83,17.88,17.88,0,0,1-11.32,4.17,2.65,2.65,0,0,1,0-5.3c7.18,0,13.27-6.54,13.27-14.06a13.17,13.17,0,0,0-6.2-11.17,2.67,2.67,0,0,1-.89-3.55,13.06,13.06,0,0,0,1.78-6.49c0-7.17-5.84-14.06-13.26-14.06-7.06,0-13.26,6.57-13.26,14.06a2.65,2.65,0,1,1-5.3,0c0-10.5,8.5-19.37,18.56-19.37a18.09,18.09,0,0,1,2.65.21V122a10.61,10.61,0,0,0-18.11-7.5,2.65,2.65,0,0,1-3.75-3.75A15.78,15.78,0,0,1,322.72,106.26Z" style="fill: #a4d7f0"/>
        <path d="M280.09,94.67A18.63,18.63,0,0,1,296,104.22a20.2,20.2,0,0,1,2.83-3.77,18.41,18.41,0,0,0-14.74-7.78,17.47,17.47,0,0,0-9.58,3A16.8,16.8,0,0,1,280.09,94.67Z" style="fill: #a4d7f0"/>
        <path d="M296,218.92a22.43,22.43,0,0,1-7.63,8.28,21.75,21.75,0,0,0,8.87-6.26A19.87,19.87,0,0,1,296,218.92Z" style="fill: #a4d7f0"/>
        <path d="M357.58,171.94A21.2,21.2,0,0,0,361,160.56a18.41,18.41,0,0,0-6.72-14.25,17.9,17.9,0,0,0,1.42-7A19.79,19.79,0,0,0,345,121.86a15.88,15.88,0,0,0-12.07-17.34c-3-7-9.83-11.85-17-11.85a17.66,17.66,0,0,0-9.75,3,17.08,17.08,0,0,1,5.75-1c7.16,0,13.94,4.8,17,11.85A15.88,15.88,0,0,1,341,123.86a19.79,19.79,0,0,1,10.73,17.49,17.9,17.9,0,0,1-1.42,7A18.41,18.41,0,0,1,357,162.56a21.2,21.2,0,0,1-3.42,11.38,18.3,18.3,0,0,1-2.12,23.77,17,17,0,0,1,.24,2.78,19.71,19.71,0,0,1-8.84,16.36,19.6,19.6,0,0,0,12.84-18.36,17,17,0,0,0-.24-2.78,18.3,18.3,0,0,0,2.12-23.77Z" style="fill: #a4d7f0"/>
        <path d="M333.13,219.85h-.24a21.38,21.38,0,0,1-7,7.26,21.42,21.42,0,0,0,9.81-7.48A17.08,17.08,0,0,1,333.13,219.85Z" style="fill: #a4d7f0"/>
      </g>
      <path d="M286.74,114.68a2.65,2.65,0,1,0,2.65,2.65A2.65,2.65,0,0,0,286.74,114.68Z" style="fill: #041e33"/>
      <path d="M357.58,171.94A21.2,21.2,0,0,0,361,160.56a18.41,18.41,0,0,0-6.72-14.25,17.9,17.9,0,0,0,1.42-7A19.79,19.79,0,0,0,345,121.86a15.88,15.88,0,0,0-12.07-17.34c-3-7-9.83-11.85-17-11.85A18.63,18.63,0,0,0,300,102.22a18.63,18.63,0,0,0-15.91-9.55c-7.16,0-13.94,4.8-17,11.85A15.88,15.88,0,0,0,255,121.86a19.79,19.79,0,0,0-10.73,17.49,17.9,17.9,0,0,0,1.42,7A18.41,18.41,0,0,0,239,160.56a21.21,21.21,0,0,0,3.42,11.38,18.3,18.3,0,0,0,2.12,23.77c-1.82,11,7,22.14,18.33,22.14h.24a20.91,20.91,0,0,0,36.89-.93,20.91,20.91,0,0,0,36.89.93h.24c10.06,0,18.57-8.87,18.57-19.36a17,17,0,0,0-.24-2.78,18.3,18.3,0,0,0,2.12-23.77Zm-60.23-39.12a10.49,10.49,0,0,0-5.31-1.43,2.65,2.65,0,0,0,0,5.3,5.31,5.31,0,0,1,5.31,5.31v50.43a21.18,21.18,0,0,0-15.92-7.2,2.65,2.65,0,0,0,0,5.3,15.94,15.94,0,0,1,15.92,15.92c0,9.05-7.29,16.7-15.92,16.7A16,16,0,0,1,267,213.9a2.67,2.67,0,0,0-2.7-1.52l-.56.08c-7.55,1-16-7.52-13.75-17.08a2.64,2.64,0,0,0-.88-2.66,13.21,13.21,0,0,1-4.84-10.14,13,13,0,0,1,1.95-6.83,17.88,17.88,0,0,0,11.32,4.17,2.65,2.65,0,1,0,0-5.3c-7.2,0-13.27-6.57-13.27-14.06a13.17,13.17,0,0,1,6.2-11.17,2.67,2.67,0,0,0,.89-3.55,13.06,13.06,0,0,1-1.78-6.49c0-7.16,5.83-14.06,13.26-14.06,7.06,0,13.26,6.57,13.26,14.06a2.65,2.65,0,0,0,5.3,0c0-10.5-8.5-19.37-18.56-19.37a18.09,18.09,0,0,0-2.65.21V120a10.61,10.61,0,0,1,18.11-7.5,2.65,2.65,0,0,0,3.75-3.75,15.78,15.78,0,0,0-8.8-4.47c2.34-3.47,6.23-6.29,10.81-6.29,7.06,0,13.26,6.57,13.26,14.06Zm45.08,47.1a17.88,17.88,0,0,0,11.32-4.17,13,13,0,0,1,1.95,6.83,13.21,13.21,0,0,1-4.84,10.14,2.64,2.64,0,0,0-.88,2.66,13.18,13.18,0,0,1,.41,3.11c0,8.23-7.44,14.88-14.16,14l-.56-.08a2.66,2.66,0,0,0-2.7,1.52,16,16,0,0,1-14.4,9.25c-8.63,0-15.92-7.65-15.92-16.7a15.94,15.94,0,0,1,15.92-15.92,2.65,2.65,0,1,0,0-5.3,21.18,21.18,0,0,0-15.92,7.2V142a5.31,5.31,0,0,1,5.31-5.31,2.65,2.65,0,1,0,0-5.3,10.49,10.49,0,0,0-5.31,1.43V112c0-7.49,6.2-14.06,13.26-14.06,4.58,0,8.47,2.82,10.81,6.29a15.78,15.78,0,0,0-8.8,4.47,2.65,2.65,0,0,0,3.75,3.75,10.61,10.61,0,0,1,18.11,7.5v.21a18.09,18.09,0,0,0-2.65-.21c-10.06,0-18.56,8.87-18.56,19.37a2.65,2.65,0,1,0,5.3,0c0-7.49,6.2-14.06,13.26-14.06,7.42,0,13.26,6.89,13.26,14.06a13.06,13.06,0,0,1-1.78,6.49,2.67,2.67,0,0,0,.89,3.55,13.17,13.17,0,0,1,6.2,11.17c0,7.52-6.09,14.06-13.27,14.06a2.65,2.65,0,0,0,0,5.3Z" style="fill: #041e33"/>
      <path d="M291.37,149.44a2.66,2.66,0,0,0-3.75-.21,13.28,13.28,0,0,1-22.1-9.88,2.65,2.65,0,1,0-5.3,0,18.6,18.6,0,0,0,15.54,18.31,8,8,0,0,1-7.59,5.56,2.65,2.65,0,0,0,0,5.3,13.28,13.28,0,0,0,13-10.77,18.51,18.51,0,0,0,10-4.57A2.65,2.65,0,0,0,291.37,149.44Z" style="fill: #041e33"/>
      <path d="M262.87,195.84a2.65,2.65,0,0,0,0,5.3c7.06,0,13.26,6.57,13.26,14.06a2.65,2.65,0,0,0,5.3,0C281.43,204.7,272.93,195.84,262.87,195.84Z" style="fill: #041e33"/>
      <path d="M284.09,174.62a23.82,23.82,0,0,0-20.77,12.1,2.65,2.65,0,1,0,4.61,2.61,18.55,18.55,0,0,1,16.16-9.41,2.65,2.65,0,1,0,0-5.3Z" style="fill: #041e33"/>
      <path d="M331.83,163.22a8,8,0,0,1-7.59-5.56,18.6,18.6,0,0,0,15.54-18.31,2.65,2.65,0,1,0-5.3,0,13.26,13.26,0,0,1-22.1,9.88,2.65,2.65,0,1,0-3.54,4,18.51,18.51,0,0,0,10,4.57,13.28,13.28,0,0,0,13,10.77,2.65,2.65,0,1,0,0-5.3Z" style="fill: #041e33"/>
      <path d="M337.13,195.84c-10.06,0-18.56,8.86-18.56,19.36a2.65,2.65,0,1,0,5.3,0c0-7.49,6.2-14.06,13.26-14.06a2.65,2.65,0,0,0,0-5.3Z" style="fill: #041e33"/>
      <path d="M336.68,186.72a23.82,23.82,0,0,0-20.77-12.1,2.65,2.65,0,0,0,0,5.3,18.53,18.53,0,0,1,16.15,9.41,2.65,2.65,0,0,0,4.62-2.61Z" style="fill: #041e33"/>
    </g>
  </g>
  <g>
    <polygon points="560 282 528 282 528 161 560 161 590 221.5 560 282" style="fill: url(#linear-gradient)"/>
    <g>
      <g>
        <path d="M472.08,199.17v1.34h-6.67V189.42H467v9.75Z" style="fill: #ff6b00"/>
        <path d="M481.57,200.51c-.18-.48-.35-.95-.51-1.42l-.5-1.41h-5l-1,2.83h-1.62l1.2-3.26c.38-1,.74-1.94,1.1-2.84s.71-1.75,1.06-2.56.72-1.63,1.11-2.43h1.42c.38.8.75,1.61,1.1,2.43s.71,1.67,1.07,2.56.72,1.85,1.09,2.84.78,2.09,1.2,3.26Zm-1.46-4.11c-.34-.93-.68-1.83-1-2.7s-.69-1.7-1.05-2.5c-.38.8-.73,1.63-1.07,2.5s-.67,1.77-1,2.7Z" style="fill: #ff6b00"/>
        <path d="M490.54,193c-.44,1.43-.9,2.75-1.36,4s-.91,2.4-1.37,3.55h-1.55a51.56,51.56,0,0,1-1.5-5.17q-.64-2.72-1.21-5.92h1.63c.15.83.31,1.67.47,2.5s.32,1.64.49,2.42.35,1.54.52,2.25.34,1.38.52,2c.43-1.12.88-2.34,1.36-3.68s.93-2.73,1.35-4.16h1.34c.42,1.43.87,2.82,1.36,4.16s1,2.56,1.38,3.68c.17-.59.34-1.25.51-2s.34-1.47.5-2.25.33-1.6.49-2.43.32-1.68.47-2.51h1.58q-.57,3.21-1.22,5.92t-1.48,5.17h-1.56c-.47-1.15-.92-2.34-1.37-3.55S491,194.42,490.54,193Z" style="fill: #ff6b00"/>
      </g>
      <g>
        <path d="M460.31,162.67h1.55v11.09h-1.55v-5.12h-5.42v5.12h-1.55V162.67h1.55v4.63h5.42Z" style="fill: #ff6b00"/>
        <path d="M464.62,173.76V162.67h6.76V164h-5.21v3.3h4.64v1.29h-4.64v3.84h5.61v1.33Z" style="fill: #ff6b00"/>
        <path d="M481.43,173.76c-.18-.48-.35-.95-.51-1.42l-.5-1.41h-5l-1,2.83h-1.61c.42-1.17.82-2.26,1.2-3.26s.73-1.94,1.09-2.84.71-1.75,1.07-2.56.72-1.63,1.1-2.43h1.42q.58,1.2,1.11,2.43c.35.81.7,1.67,1.06,2.56s.72,1.85,1.1,2.84l1.2,3.26ZM480,169.65c-.35-.93-.68-1.83-1-2.7s-.69-1.7-1-2.5c-.37.8-.73,1.63-1.06,2.5s-.67,1.77-1,2.7Z" style="fill: #ff6b00"/>
        <path d="M491.3,172.42v1.34h-6.67V162.67h1.55v9.75Z" style="fill: #ff6b00"/>
        <path d="M498.5,162.67V164H495v9.74h-1.56V164H490v-1.35Z" style="fill: #ff6b00"/>
        <path d="M507.11,162.67h1.55v11.09h-1.55v-5.12h-5.42v5.12h-1.55V162.67h1.55v4.63h5.42Z" style="fill: #ff6b00"/>
      </g>
      <g>
        <path d="M452.31,227.26V216.17h6.77v1.33h-5.22v3.3h4.64v1.29h-4.64v3.84h5.62v1.33Z" style="fill: #ff6b00"/>
        <path d="M469.05,227.26l-.81-1.33c-.3-.49-.63-1-1-1.53s-.72-1.06-1.1-1.6-.76-1.07-1.13-1.58-.73-1-1.09-1.43-.67-.84-1-1.19v8.66h-1.52V216.17h1.23c.5.54,1,1.16,1.61,1.87s1.13,1.44,1.69,2.19,1.09,1.49,1.59,2.21.91,1.37,1.25,1.94v-8.21h1.52v11.09Z" style="fill: #ff6b00"/>
        <path d="M473.1,227.26V216.17h6.76v1.33h-5.21v3.3h4.64v1.29h-4.64v3.84h5.61v1.33Z" style="fill: #ff6b00"/>
        <path d="M487.66,222.62c.17.21.38.49.64.84s.53.73.81,1.15.55.86.83,1.32a13.08,13.08,0,0,1,.69,1.33h-1.69c-.22-.41-.45-.82-.7-1.23s-.5-.82-.76-1.19-.51-.74-.76-1.07-.48-.62-.68-.86h-2.26v4.34h-1.55V216.33a8.81,8.81,0,0,1,1.47-.21c.53,0,1-.06,1.48-.06a6.06,6.06,0,0,1,3.56.88,3.4,3.4,0,0,1,.64,4.51A3.46,3.46,0,0,1,487.66,222.62Zm-2.36-5.2c-.66,0-1.16,0-1.52.05v4.17h1.11a10.58,10.58,0,0,0,1.44-.08,3.27,3.27,0,0,0,1.08-.3,1.66,1.66,0,0,0,.68-.63,2.11,2.11,0,0,0,.24-1.08,2.05,2.05,0,0,0-.24-1,1.79,1.79,0,0,0-.65-.66,2.72,2.72,0,0,0-1-.33A6.33,6.33,0,0,0,485.3,217.42Z" style="fill: #ff6b00"/>
        <path d="M498.89,221.8h1.55V227c-.13,0-.31.09-.55.14s-.52.11-.83.16-.66.1-1,.14a10.56,10.56,0,0,1-1.13,0,5.61,5.61,0,0,1-2.13-.38,4.6,4.6,0,0,1-1.65-1.12,5,5,0,0,1-1.06-1.81,7.39,7.39,0,0,1-.38-2.46,6.56,6.56,0,0,1,.43-2.47,5.32,5.32,0,0,1,1.14-1.82,4.85,4.85,0,0,1,1.69-1.12,5.44,5.44,0,0,1,2.07-.38,8.92,8.92,0,0,1,1.34.09,7.91,7.91,0,0,1,1,.23,5.6,5.6,0,0,1,.68.25l.36.19-.5,1.3a4.19,4.19,0,0,0-1.23-.5,5.93,5.93,0,0,0-1.57-.2,3.81,3.81,0,0,0-1.54.3,3.25,3.25,0,0,0-1.19.88,4.18,4.18,0,0,0-.76,1.4,5.94,5.94,0,0,0-.27,1.85,6.84,6.84,0,0,0,.23,1.81,3.94,3.94,0,0,0,.71,1.4,3.11,3.11,0,0,0,1.16.9,4,4,0,0,0,1.64.32,7.61,7.61,0,0,0,1.15-.07,4.54,4.54,0,0,0,.68-.14Z" style="fill: #ff6b00"/>
        <path d="M505.51,227.26v-4.45c-.73-1.14-1.43-2.26-2.08-3.37s-1.26-2.2-1.84-3.27h1.83c.4.88.85,1.77,1.36,2.67s1,1.76,1.55,2.6c.52-.84,1-1.7,1.53-2.6s1-1.79,1.38-2.67H511c-.58,1.07-1.19,2.15-1.84,3.26s-1.34,2.22-2.07,3.35v4.48Z" style="fill: #ff6b00"/>
      </g>
      <g>
        <path d="M449.17,252.91c1.62,0,2.43-.56,2.43-1.67a1.61,1.61,0,0,0-.22-.87,1.9,1.9,0,0,0-.58-.62,4.22,4.22,0,0,0-.84-.46c-.31-.13-.65-.26-1-.38a9.22,9.22,0,0,1-1.15-.48,4,4,0,0,1-.95-.62,2.74,2.74,0,0,1-.63-.86,2.89,2.89,0,0,1-.23-1.2,2.79,2.79,0,0,1,1-2.27,4.22,4.22,0,0,1,2.74-.81,7.42,7.42,0,0,1,1.83.21,4.46,4.46,0,0,1,1.21.47l-.5,1.27a4.14,4.14,0,0,0-1-.41,5.48,5.48,0,0,0-1.54-.2,3.1,3.1,0,0,0-.83.1,2.31,2.31,0,0,0-.68.28,1.5,1.5,0,0,0-.45.49,1.59,1.59,0,0,0,0,1.45,1.77,1.77,0,0,0,.49.54,4.77,4.77,0,0,0,.75.42c.28.13.59.26.93.38s.92.39,1.32.58a4.09,4.09,0,0,1,1,.69,2.68,2.68,0,0,1,.68.95,3.34,3.34,0,0,1,.24,1.34,2.62,2.62,0,0,1-1.06,2.24,5,5,0,0,1-3,.78,7.55,7.55,0,0,1-1.21-.09,8.69,8.69,0,0,1-1-.21,6,6,0,0,1-.75-.25l-.49-.23.47-1.28a6.73,6.73,0,0,0,1.12.46A5.74,5.74,0,0,0,449.17,252.91Z" style="fill: #ff6b00"/>
        <path d="M455.1,254V242.92h6.77v1.33h-5.21v3.3h4.64v1.29h-4.64v3.84h5.61V254Z" style="fill: #ff6b00"/>
        <path d="M468.56,254.25a5.81,5.81,0,0,1-2.13-.38,4.6,4.6,0,0,1-1.65-1.12,5.17,5.17,0,0,1-1.06-1.82,7.49,7.49,0,0,1-.38-2.47,6.76,6.76,0,0,1,.43-2.47,5.32,5.32,0,0,1,1.14-1.82,4.9,4.9,0,0,1,1.68-1.12,5.41,5.41,0,0,1,2.05-.38,7.76,7.76,0,0,1,1.24.09,7.57,7.57,0,0,1,1,.23,4.65,4.65,0,0,1,.66.25l.36.19-.45,1.28a2.81,2.81,0,0,0-.42-.2c-.18-.08-.38-.15-.61-.23a6.56,6.56,0,0,0-.76-.18,4.47,4.47,0,0,0-.82-.07,4,4,0,0,0-1.58.3,3.28,3.28,0,0,0-1.2.88,3.85,3.85,0,0,0-.76,1.4,5.94,5.94,0,0,0-.27,1.85,6.84,6.84,0,0,0,.23,1.81,4.09,4.09,0,0,0,.7,1.4,3.11,3.11,0,0,0,1.16.9,3.9,3.9,0,0,0,1.62.32,6,6,0,0,0,1.78-.22,9.56,9.56,0,0,0,1.06-.4l.4,1.28a2.88,2.88,0,0,1-.4.2c-.2.08-.44.15-.72.23a9.35,9.35,0,0,1-2.26.27Z" style="fill: #ff6b00"/>
        <path d="M477.84,254.25a4.76,4.76,0,0,1-1.89-.34,3.48,3.48,0,0,1-1.31-.92,3.86,3.86,0,0,1-.76-1.38,5.65,5.65,0,0,1-.25-1.73v-7h1.55v6.79a3.34,3.34,0,0,0,.74,2.41,2.57,2.57,0,0,0,1.92.75,3.14,3.14,0,0,0,1.08-.18,2,2,0,0,0,.84-.57,2.38,2.38,0,0,0,.54-1,4.65,4.65,0,0,0,.2-1.43v-6.79h1.55v7a5.65,5.65,0,0,1-.25,1.73A3.73,3.73,0,0,1,481,253a3.48,3.48,0,0,1-1.31.92A4.68,4.68,0,0,1,477.84,254.25Z" style="fill: #ff6b00"/>
        <path d="M490.14,249.37c.17.21.39.49.65.84s.53.73.81,1.15.55.86.82,1.32a11.46,11.46,0,0,1,.7,1.33h-1.7q-.32-.62-.69-1.23c-.25-.42-.51-.82-.76-1.19s-.51-.74-.76-1.07-.48-.62-.68-.86h-2.26V254h-1.55V243.08a8.83,8.83,0,0,1,1.46-.21c.54,0,1-.06,1.48-.06a6,6,0,0,1,3.56.88,3,3,0,0,1,1.23,2.62,3.06,3.06,0,0,1-.59,1.89A3.42,3.42,0,0,1,490.14,249.37Zm-2.35-5.2c-.66,0-1.17,0-1.52.05v4.17h1.11a10.58,10.58,0,0,0,1.44-.08,3.27,3.27,0,0,0,1.08-.3,1.66,1.66,0,0,0,.68-.63,2.11,2.11,0,0,0,.24-1.08,2.05,2.05,0,0,0-.24-1,1.79,1.79,0,0,0-.65-.66,2.72,2.72,0,0,0-1-.33A6.33,6.33,0,0,0,487.79,244.17Z" style="fill: #ff6b00"/>
        <path d="M494.78,242.92h1.56V254h-1.56Z" style="fill: #ff6b00"/>
        <path d="M506.5,242.92v1.35H503V254h-1.55v-9.74H498v-1.35Z" style="fill: #ff6b00"/>
        <path d="M511.23,254v-4.45c-.73-1.14-1.43-2.26-2.08-3.37s-1.26-2.2-1.84-3.27h1.83c.4.88.85,1.77,1.36,2.67s1,1.76,1.55,2.6c.52-.84,1-1.7,1.53-2.6s1-1.79,1.38-2.67h1.73c-.58,1.07-1.19,2.15-1.84,3.26s-1.34,2.22-2.07,3.35V254Z" style="fill: #ff6b00"/>
      </g>
      <g>
        <path d="M470.32,269.67V271h-3.49v9.74h-1.55V271h-3.49v-1.35Z" style="fill: #ff6b00"/>
        <path d="M472,280.76V269.67h6.77V271H473.5v3.3h4.64v1.29H473.5v3.84h5.62v1.33Z" style="fill: #ff6b00"/>
        <path d="M485.41,281a5.81,5.81,0,0,1-2.13-.38,4.6,4.6,0,0,1-1.65-1.12,5,5,0,0,1-1.06-1.82,7.49,7.49,0,0,1-.38-2.47,6.56,6.56,0,0,1,.43-2.47,5.32,5.32,0,0,1,1.14-1.82,4.9,4.9,0,0,1,1.68-1.12,5.38,5.38,0,0,1,2.05-.38,7.76,7.76,0,0,1,1.24.09,7.57,7.57,0,0,1,1,.23,4.65,4.65,0,0,1,.66.25l.35.19-.44,1.28a2.81,2.81,0,0,0-.42-.2c-.18-.08-.39-.15-.62-.23a6.89,6.89,0,0,0-.75-.18,4.47,4.47,0,0,0-.82-.07,4,4,0,0,0-1.59.3,3.28,3.28,0,0,0-1.2.88,4,4,0,0,0-.76,1.4,6.26,6.26,0,0,0-.26,1.85,6.84,6.84,0,0,0,.23,1.81,4.09,4.09,0,0,0,.7,1.4,3,3,0,0,0,1.16.9,3.87,3.87,0,0,0,1.62.32,6,6,0,0,0,1.78-.22,8.54,8.54,0,0,0,1.05-.4l.4,1.28a2,2,0,0,1-.4.2,6.21,6.21,0,0,1-.72.23,9,9,0,0,1-1,.19A9.73,9.73,0,0,1,485.41,281Z" style="fill: #ff6b00"/>
        <path d="M497.54,269.67h1.55v11.09h-1.55v-5.12h-5.43v5.12h-1.55V269.67h1.55v4.63h5.43Z" style="fill: #ff6b00"/>
      </g>
    </g>
    <rect x="396" y="161" width="38" height="121" style="fill: url(#linear-gradient-2)"/>
  </g>
  <g style="opacity: 0.7000000000000001">
    <g>
      <path d="M683.54,346.07h1.56v11.09h-1.56Z" style="fill: #041e33"/>
      <path d="M695.45,357.16l-.81-1.33c-.3-.49-.63-1-1-1.53s-.72-1.06-1.1-1.6-.76-1.07-1.13-1.58-.73-1-1.09-1.43-.67-.84-1-1.19v8.66h-1.52V346.07h1.23c.5.53,1,1.16,1.61,1.87s1.13,1.44,1.69,2.19,1.09,1.49,1.59,2.21.91,1.37,1.25,1.94v-8.21h1.52v11.09Z" style="fill: #041e33"/>
      <path d="M699.05,351.61a6.91,6.91,0,0,1,.42-2.51,5.25,5.25,0,0,1,1.15-1.82,4.79,4.79,0,0,1,1.7-1.1,5.87,5.87,0,0,1,2.06-.36,5.65,5.65,0,0,1,2,.36,4.76,4.76,0,0,1,1.67,1.1,5.4,5.4,0,0,1,1.15,1.82,7.71,7.71,0,0,1,0,5,5.4,5.4,0,0,1-1.15,1.82A4.74,4.74,0,0,1,706.4,357a5.45,5.45,0,0,1-2,.37,5.66,5.66,0,0,1-2.06-.37,4.77,4.77,0,0,1-1.7-1.09,5.25,5.25,0,0,1-1.15-1.82A7,7,0,0,1,699.05,351.61Zm1.63,0a6.18,6.18,0,0,0,.26,1.83,4.12,4.12,0,0,0,.72,1.4,3.28,3.28,0,0,0,1.16.89,3.56,3.56,0,0,0,1.52.31,3.5,3.5,0,0,0,1.52-.31,3.33,3.33,0,0,0,1.15-.89,4.13,4.13,0,0,0,.73-1.4,6.82,6.82,0,0,0,0-3.66,4.13,4.13,0,0,0-.73-1.4,3.22,3.22,0,0,0-1.15-.89,3.5,3.5,0,0,0-1.52-.31,3.56,3.56,0,0,0-1.52.31,3.17,3.17,0,0,0-1.16.89,4.12,4.12,0,0,0-.72,1.4A6.18,6.18,0,0,0,700.68,351.61Z" style="fill: #041e33"/>
      <path d="M720.63,346.07c-.4,1.18-.79,2.26-1.16,3.26s-.73,1.94-1.08,2.84-.7,1.75-1,2.57-.7,1.62-1.06,2.42h-1.46c-.36-.8-.71-1.61-1.06-2.42s-.7-1.68-1.06-2.57-.72-1.84-1.09-2.84-.76-2.08-1.15-3.26h1.71c.57,1.69,1.14,3.31,1.69,4.87s1.13,3,1.72,4.38q.87-2,1.71-4.38t1.68-4.87Z" style="fill: #041e33"/>
      <path d="M728.58,357.16c-.18-.48-.35-1-.51-1.42l-.49-1.41h-5l-1,2.83h-1.61c.42-1.17.82-2.26,1.2-3.26s.74-1.94,1.09-2.84.72-1.75,1.07-2.56.72-1.63,1.1-2.43h1.43c.38.8.75,1.61,1.1,2.43s.71,1.67,1.06,2.56.73,1.85,1.1,2.84l1.2,3.26Zm-1.45-4.11q-.51-1.4-1-2.7c-.33-.87-.68-1.7-1.05-2.5-.37.8-.72,1.63-1.06,2.5s-.67,1.77-1,2.7Z" style="fill: #041e33"/>
      <path d="M735.38,357.34a5.15,5.15,0,0,1-1.79-.57,4.66,4.66,0,0,1-1.37-1.17,5.42,5.42,0,0,1-.88-1.73,7.81,7.81,0,0,1-.31-2.26,6.56,6.56,0,0,1,.43-2.47,5.32,5.32,0,0,1,1.14-1.82,4.9,4.9,0,0,1,1.68-1.12,5.38,5.38,0,0,1,2.05-.38,7.76,7.76,0,0,1,1.24.09,7.57,7.57,0,0,1,1,.23,4.65,4.65,0,0,1,.66.25l.35.19-.44,1.28a2.81,2.81,0,0,0-.42-.2c-.18-.08-.39-.15-.62-.23a6.89,6.89,0,0,0-.75-.18,4.54,4.54,0,0,0-.82-.07,4,4,0,0,0-1.59.3,3.28,3.28,0,0,0-1.2.88,4,4,0,0,0-.76,1.4,6.26,6.26,0,0,0-.26,1.85,6.84,6.84,0,0,0,.23,1.81,4.09,4.09,0,0,0,.7,1.4,3,3,0,0,0,1.16.9,3.87,3.87,0,0,0,1.62.32,6,6,0,0,0,1.78-.22,8.54,8.54,0,0,0,1.05-.4l.4,1.28a4.34,4.34,0,0,1-1.08.42,8.4,8.4,0,0,1-2.16.28.76.76,0,0,0-.09.18c0,.06,0,.12-.07.17a1.94,1.94,0,0,1,.67.49,1.23,1.23,0,0,1,.21.78,1.18,1.18,0,0,1-.08.38,1,1,0,0,1-.28.38,1.32,1.32,0,0,1-.51.29,2.22,2.22,0,0,1-.78.11,4.42,4.42,0,0,1-.76-.06,3.08,3.08,0,0,1-.55-.14l.17-.92c.13.05.27.08.41.12a2.43,2.43,0,0,0,.49,0q.57,0,.57-.36a.36.36,0,0,0-.17-.3,3.29,3.29,0,0,0-.5-.25l-.11-.05c0-.12.1-.27.17-.44S735.31,357.48,735.38,357.34Z" style="fill: #041e33"/>
      <path d="M749.16,357.16c-.18-.48-.35-1-.51-1.42l-.5-1.41h-5l-1,2.83H740.5l1.2-3.26c.38-1,.74-1.94,1.1-2.84s.71-1.75,1.06-2.56.72-1.63,1.11-2.43h1.42c.39.8.75,1.61,1.11,2.43s.7,1.67,1.06,2.56.72,1.85,1.1,2.84l1.2,3.26Zm-.85-13.87c0,.13-.12.27-.21.45a2.61,2.61,0,0,1-.35.47,2.33,2.33,0,0,1-.49.37,1.25,1.25,0,0,1-.61.15,1.64,1.64,0,0,1-.6-.11l-.54-.24a5,5,0,0,0-.46-.2,1.24,1.24,0,0,0-.37-.06.69.69,0,0,0-.5.22,1.59,1.59,0,0,0-.36.48l-.77-.38a2.18,2.18,0,0,1,.21-.45,2,2,0,0,1,.35-.47,2,2,0,0,1,.49-.37,1.25,1.25,0,0,1,.61-.15,1.73,1.73,0,0,1,.6.11l.54.24a3,3,0,0,0,.46.19,1,1,0,0,0,.37.07.7.7,0,0,0,.5-.23,1.59,1.59,0,0,0,.36-.48Zm-.61,9.76c-.34-.93-.68-1.83-1-2.7s-.69-1.7-1.05-2.5c-.37.8-.73,1.63-1.06,2.5s-.67,1.77-1,2.7Z" style="fill: #041e33"/>
      <path d="M751.61,351.61a6.91,6.91,0,0,1,.42-2.51,5.25,5.25,0,0,1,1.15-1.82,4.79,4.79,0,0,1,1.7-1.1,5.83,5.83,0,0,1,2.06-.36,5.69,5.69,0,0,1,2,.36,4.76,4.76,0,0,1,1.67,1.1,5.4,5.4,0,0,1,1.15,1.82,7.71,7.71,0,0,1,0,5,5.4,5.4,0,0,1-1.15,1.82A4.74,4.74,0,0,1,759,357a5.49,5.49,0,0,1-2,.37,5.62,5.62,0,0,1-2.06-.37,4.77,4.77,0,0,1-1.7-1.09,5.25,5.25,0,0,1-1.15-1.82A7,7,0,0,1,751.61,351.61Zm1.63,0a5.87,5.87,0,0,0,.26,1.83,4.12,4.12,0,0,0,.72,1.4,3.28,3.28,0,0,0,1.16.89,3.56,3.56,0,0,0,1.52.31,3.5,3.5,0,0,0,1.52-.31,3.33,3.33,0,0,0,1.15-.89,4.31,4.31,0,0,0,.73-1.4,6.82,6.82,0,0,0,0-3.66,4.31,4.31,0,0,0-.73-1.4,3.22,3.22,0,0,0-1.15-.89,3.5,3.5,0,0,0-1.52-.31,3.56,3.56,0,0,0-1.52.31,3.17,3.17,0,0,0-1.16.89,4.12,4.12,0,0,0-.72,1.4A5.87,5.87,0,0,0,753.24,351.61Z" style="fill: #041e33"/>
      <path d="M768.2,357.16V346.07H775v1.33h-5.22v3.3h4.64V352h-4.64v3.84h5.62v1.33Z" style="fill: #041e33"/>
      <path d="M788.44,346.07v1.35H785v9.74H783.4v-9.74h-3.49v-1.35Z" style="fill: #041e33"/>
      <path d="M795.49,352.52c.18.21.39.49.65.84s.53.73.81,1.15.55.86.82,1.32a11.46,11.46,0,0,1,.7,1.33h-1.7q-.32-.62-.69-1.23c-.25-.42-.51-.82-.76-1.19s-.51-.74-.76-1.07-.48-.62-.68-.86h-2.26v4.34h-1.55V346.23a7.89,7.89,0,0,1,1.46-.21c.54,0,1-.06,1.48-.06a6,6,0,0,1,3.56.88,3,3,0,0,1,1.23,2.62,3.06,3.06,0,0,1-.59,1.89A3.43,3.43,0,0,1,795.49,352.52Zm-2.35-5.2c-.66,0-1.17,0-1.52.05v4.17h1.11a10.58,10.58,0,0,0,1.44-.08,3.27,3.27,0,0,0,1.08-.3,1.66,1.66,0,0,0,.68-.63,2.11,2.11,0,0,0,.24-1.08,2.05,2.05,0,0,0-.24-1,1.79,1.79,0,0,0-.65-.66,2.72,2.72,0,0,0-1-.33A6.33,6.33,0,0,0,793.14,347.32Z" style="fill: #041e33"/>
      <path d="M808,357.16c-.18-.48-.35-1-.51-1.42l-.5-1.41h-5l-1,2.83h-1.62c.43-1.17.83-2.26,1.21-3.26s.73-1.94,1.09-2.84.71-1.75,1.06-2.56.73-1.63,1.11-2.43h1.42q.59,1.2,1.11,2.43c.35.81.7,1.67,1.06,2.56s.72,1.85,1.1,2.84l1.2,3.26Zm-1.45-4.11-1-2.7c-.34-.87-.69-1.7-1-2.5-.37.8-.73,1.63-1.06,2.5s-.67,1.77-1,2.7Z" style="fill: #041e33"/>
      <path d="M818.79,357.16c-.23-.39-.5-.84-.81-1.33s-.63-1-1-1.53-.72-1.06-1.1-1.6-.75-1.07-1.13-1.58-.73-1-1.08-1.43-.68-.84-1-1.19v8.66h-1.52V346.07h1.23c.5.53,1,1.16,1.61,1.87s1.14,1.44,1.7,2.19,1.08,1.49,1.58,2.21.92,1.37,1.26,1.94v-8.21h1.52v11.09Z" style="fill: #041e33"/>
      <path d="M825.42,356.06c1.62,0,2.43-.56,2.43-1.67a1.7,1.7,0,0,0-.22-.87,2,2,0,0,0-.58-.62,4.22,4.22,0,0,0-.84-.46c-.32-.13-.65-.26-1-.38a10.06,10.06,0,0,1-1.16-.48,3.93,3.93,0,0,1-.94-.62,2.55,2.55,0,0,1-.63-.86,2.73,2.73,0,0,1-.23-1.2,2.79,2.79,0,0,1,1-2.27,4.2,4.2,0,0,1,2.74-.81,7.42,7.42,0,0,1,1.83.21,4.24,4.24,0,0,1,1.2.47l-.49,1.27a4.32,4.32,0,0,0-1-.41,5.48,5.48,0,0,0-1.54-.2,3.22,3.22,0,0,0-.84.1,2.25,2.25,0,0,0-.67.28,1.54,1.54,0,0,0-.46.49,1.42,1.42,0,0,0-.16.7,1.54,1.54,0,0,0,.17.75,2,2,0,0,0,.5.54,4.65,4.65,0,0,0,.74.42c.29.13.6.26.94.38s.92.39,1.32.58a4.09,4.09,0,0,1,1,.69,2.71,2.71,0,0,1,.68,1,3.34,3.34,0,0,1,.24,1.34,2.65,2.65,0,0,1-1.06,2.24,5,5,0,0,1-3,.78,7.46,7.46,0,0,1-1.21-.09,9.42,9.42,0,0,1-1-.21,6.36,6.36,0,0,1-.74-.25l-.49-.23.47-1.28a7.51,7.51,0,0,0,1.11.46A5.85,5.85,0,0,0,825.42,356.06Z" style="fill: #041e33"/>
      <path d="M831.35,357.16V346.07H838v1.33H832.9v3.34h4.56v1.32H832.9v5.1Z" style="fill: #041e33"/>
      <path d="M839.29,351.61a6.91,6.91,0,0,1,.42-2.51,5.25,5.25,0,0,1,1.15-1.82,4.79,4.79,0,0,1,1.7-1.1,5.82,5.82,0,0,1,2.05-.36,5.71,5.71,0,0,1,2,.36,4.76,4.76,0,0,1,1.67,1.1,5.23,5.23,0,0,1,1.14,1.82,7.54,7.54,0,0,1,0,5,5.23,5.23,0,0,1-1.14,1.82,4.74,4.74,0,0,1-1.67,1.09,5.5,5.5,0,0,1-2,.37,5.61,5.61,0,0,1-2.05-.37,4.77,4.77,0,0,1-1.7-1.09,5.25,5.25,0,0,1-1.15-1.82A7,7,0,0,1,839.29,351.61Zm1.63,0a6.18,6.18,0,0,0,.25,1.83,4.13,4.13,0,0,0,.73,1.4,3.33,3.33,0,0,0,1.15.89,3.64,3.64,0,0,0,1.53.31,3.53,3.53,0,0,0,1.52-.31,3.33,3.33,0,0,0,1.15-.89,4.12,4.12,0,0,0,.72-1.4,6.57,6.57,0,0,0,0-3.66,4.12,4.12,0,0,0-.72-1.4,3.22,3.22,0,0,0-1.15-.89,3.53,3.53,0,0,0-1.52-.31,3.64,3.64,0,0,0-1.53.31,3.22,3.22,0,0,0-1.15.89,4.13,4.13,0,0,0-.73,1.4A6.18,6.18,0,0,0,840.92,351.61Z" style="fill: #041e33"/>
      <path d="M857.61,352.52c.17.21.38.49.64.84s.54.73.81,1.15.55.86.83,1.32a13.08,13.08,0,0,1,.69,1.33h-1.69c-.22-.41-.45-.82-.7-1.23s-.5-.82-.76-1.19-.51-.74-.76-1.07-.48-.62-.68-.86h-2.26v4.34h-1.55V346.23a7.88,7.88,0,0,1,1.47-.21c.54,0,1-.06,1.48-.06a6.06,6.06,0,0,1,3.56.88,3.4,3.4,0,0,1,.64,4.51A3.52,3.52,0,0,1,857.61,352.52Zm-2.36-5.2c-.66,0-1.16,0-1.52.05v4.17h1.11a10.58,10.58,0,0,0,1.44-.08,3.2,3.2,0,0,0,1.08-.3,1.66,1.66,0,0,0,.68-.63,2.11,2.11,0,0,0,.24-1.08,2.05,2.05,0,0,0-.24-1,1.79,1.79,0,0,0-.65-.66,2.72,2.72,0,0,0-1-.33A6.33,6.33,0,0,0,855.25,347.32Z" style="fill: #041e33"/>
      <path d="M867.22,355.62c-.1-.25-.25-.58-.42-1s-.37-.82-.57-1.28-.42-.93-.65-1.42-.44-.94-.65-1.37-.39-.82-.56-1.16-.32-.61-.43-.79c-.11,1.26-.21,2.62-.29,4.09s-.13,2.95-.19,4.44h-1.52c0-1,.09-1.93.15-2.9s.11-1.94.18-2.88.14-1.87.22-2.76.17-1.75.27-2.55h1.36c.29.47.6,1,.93,1.67s.66,1.31,1,2,.65,1.4,1,2.1.59,1.34.85,1.91c.25-.57.54-1.21.84-1.91s.63-1.4,1-2.1.67-1.36,1-2,.64-1.2.92-1.67h1.36c.37,3.58.64,7.27.82,11.09h-1.52c-.05-1.49-.12-3-.19-4.44s-.17-2.83-.29-4.09c-.11.18-.25.44-.42.79s-.37.72-.57,1.16l-.65,1.37c-.23.49-.44,1-.65,1.42s-.39.88-.57,1.28l-.42,1Z" style="fill: #041e33"/>
      <path d="M883.59,357.16c-.18-.48-.35-1-.51-1.42l-.5-1.41h-5l-1,2.83h-1.62l1.2-3.26c.38-1,.74-1.94,1.1-2.84s.71-1.75,1.06-2.56.72-1.63,1.11-2.43h1.42c.39.8.75,1.61,1.11,2.43s.7,1.67,1.06,2.56.72,1.85,1.1,2.84l1.2,3.26Zm-1.46-4.11c-.34-.93-.68-1.83-1-2.7s-.69-1.7-1-2.5c-.37.8-.73,1.63-1.06,2.5s-.67,1.77-1,2.7Z" style="fill: #041e33"/>
      <path d="M890.39,357.34a5.15,5.15,0,0,1-1.79-.57,4.54,4.54,0,0,1-1.37-1.17,5.42,5.42,0,0,1-.88-1.73,7.49,7.49,0,0,1-.31-2.26,6.77,6.77,0,0,1,.42-2.47,5.34,5.34,0,0,1,1.15-1.82,4.9,4.9,0,0,1,1.68-1.12,5.36,5.36,0,0,1,2-.38,7.67,7.67,0,0,1,1.24.09,7.57,7.57,0,0,1,1,.23,4.39,4.39,0,0,1,.67.25l.35.19-.45,1.28a2.24,2.24,0,0,0-.41-.2l-.62-.23a6.89,6.89,0,0,0-.75-.18,4.57,4.57,0,0,0-.83-.07,4,4,0,0,0-1.58.3,3.28,3.28,0,0,0-1.2.88,4,4,0,0,0-.76,1.4,6,6,0,0,0-.26,1.85,6.45,6.45,0,0,0,.23,1.81,3.91,3.91,0,0,0,.69,1.4,3.11,3.11,0,0,0,1.16.9,4,4,0,0,0,1.63.32,5.88,5.88,0,0,0,1.77-.22,8.83,8.83,0,0,0,1.06-.4l.4,1.28a4.34,4.34,0,0,1-1.08.42,8.42,8.42,0,0,1-2.17.28l-.09.18c0,.06,0,.12-.07.17a1.76,1.76,0,0,1,.67.49,1.23,1.23,0,0,1,.21.78,1,1,0,0,1-.08.38.89.89,0,0,1-.27.38,1.39,1.39,0,0,1-.51.29,2.32,2.32,0,0,1-.79.11,4.51,4.51,0,0,1-.76-.06,3.33,3.33,0,0,1-.55-.14l.18-.92a4,4,0,0,0,.41.12,2.33,2.33,0,0,0,.48,0c.39,0,.58-.12.58-.36a.35.35,0,0,0-.18-.3,2.72,2.72,0,0,0-.49-.25l-.11-.05c0-.12.09-.27.16-.44S890.32,357.48,890.39,357.34Z" style="fill: #041e33"/>
      <path d="M904.17,357.16c-.19-.48-.36-1-.52-1.42l-.49-1.41h-5l-1,2.83h-1.62l1.2-3.26c.37-1,.74-1.94,1.1-2.84s.71-1.75,1.06-2.56.72-1.63,1.1-2.43h1.43c.38.8.75,1.61,1.1,2.43s.71,1.67,1.07,2.56.72,1.85,1.09,2.84.78,2.09,1.2,3.26Zm-.85-13.87-.22.45a2.16,2.16,0,0,1-.34.47,2.33,2.33,0,0,1-.49.37,1.29,1.29,0,0,1-.62.15,1.73,1.73,0,0,1-.6-.11l-.53-.24a5,5,0,0,0-.47-.2,1.18,1.18,0,0,0-.36-.06.71.71,0,0,0-.51.22,2,2,0,0,0-.36.48l-.77-.38a4.23,4.23,0,0,1,.21-.45,2.73,2.73,0,0,1,.35-.47,2.25,2.25,0,0,1,.49-.37,1.29,1.29,0,0,1,.62-.15,1.73,1.73,0,0,1,.6.11l.53.24a3.55,3.55,0,0,0,.47.19,1,1,0,0,0,.37.07.7.7,0,0,0,.5-.23,2,2,0,0,0,.36-.48Zm-.61,9.76q-.51-1.4-1-2.7c-.33-.87-.68-1.7-1-2.5-.38.8-.73,1.63-1.07,2.5s-.67,1.77-1,2.7Z" style="fill: #041e33"/>
      <path d="M906.61,351.61a6.91,6.91,0,0,1,.43-2.51,5.11,5.11,0,0,1,1.15-1.82,4.79,4.79,0,0,1,1.7-1.1,5.82,5.82,0,0,1,2.05-.36,5.71,5.71,0,0,1,2,.36,4.76,4.76,0,0,1,1.67,1.1,5.23,5.23,0,0,1,1.14,1.82,7.54,7.54,0,0,1,0,5,5.23,5.23,0,0,1-1.14,1.82A4.74,4.74,0,0,1,914,357a5.5,5.5,0,0,1-2,.37,5.61,5.61,0,0,1-2.05-.37,4.77,4.77,0,0,1-1.7-1.09,5.11,5.11,0,0,1-1.15-1.82A7,7,0,0,1,906.61,351.61Zm1.64,0a6.18,6.18,0,0,0,.25,1.83,4.13,4.13,0,0,0,.73,1.4,3.24,3.24,0,0,0,1.15.89,3.61,3.61,0,0,0,1.53.31,3.53,3.53,0,0,0,1.52-.31,3.21,3.21,0,0,0,1.14-.89,4,4,0,0,0,.73-1.4,6.57,6.57,0,0,0,0-3.66,4,4,0,0,0-.73-1.4,3.1,3.1,0,0,0-1.14-.89,3.53,3.53,0,0,0-1.52-.31,3.61,3.61,0,0,0-1.53.31,3.13,3.13,0,0,0-1.15.89,4.13,4.13,0,0,0-.73,1.4A6.18,6.18,0,0,0,908.25,351.61Z" style="fill: #041e33"/>
    </g>
  </g>
  <g>
    <path d="M630,133.52H968.33a11.78,11.78,0,0,1,11.78,11.78V314.61a0,0,0,0,1,0,0H618.26a0,0,0,0,1,0,0V145.29A11.78,11.78,0,0,1,630,133.52Z" transform="translate(1598.37 448.13) rotate(180)" style="fill: #a4d7f0"/>
    <g style="opacity: 0.1">
      <g>
        <line x1="644.47" y1="148.39" x2="644.47" y2="308.04" style="fill: none;stroke: #004b6b;stroke-miterlimit: 10;stroke-width: 1.1914247274398804px"/>
        <line x1="661.75" y1="148.39" x2="661.75" y2="308.04" style="fill: none;stroke: #004b6b;stroke-miterlimit: 10;stroke-width: 1.1914247274398804px"/>
        <line x1="679.02" y1="148.39" x2="679.02" y2="308.04" style="fill: none;stroke: #004b6b;stroke-miterlimit: 10;stroke-width: 1.1914247274398804px"/>
        <line x1="696.3" y1="148.39" x2="696.3" y2="308.04" style="fill: none;stroke: #004b6b;stroke-miterlimit: 10;stroke-width: 1.1914247274398804px"/>
        <line x1="713.58" y1="148.39" x2="713.58" y2="308.04" style="fill: none;stroke: #004b6b;stroke-miterlimit: 10;stroke-width: 1.1914247274398804px"/>
        <line x1="730.85" y1="148.39" x2="730.85" y2="308.04" style="fill: none;stroke: #004b6b;stroke-miterlimit: 10;stroke-width: 1.1914247274398804px"/>
        <line x1="748.13" y1="148.39" x2="748.13" y2="308.04" style="fill: none;stroke: #004b6b;stroke-miterlimit: 10;stroke-width: 1.1914247274398804px"/>
        <line x1="765.4" y1="148.39" x2="765.4" y2="308.04" style="fill: none;stroke: #004b6b;stroke-miterlimit: 10;stroke-width: 1.1914247274398804px"/>
        <line x1="782.68" y1="148.39" x2="782.68" y2="308.04" style="fill: none;stroke: #004b6b;stroke-miterlimit: 10;stroke-width: 1.1914247274398804px"/>
        <line x1="799.95" y1="148.39" x2="799.95" y2="308.04" style="fill: none;stroke: #004b6b;stroke-miterlimit: 10;stroke-width: 1.1914247274398804px"/>
        <line x1="817.23" y1="148.39" x2="817.23" y2="308.04" style="fill: none;stroke: #004b6b;stroke-miterlimit: 10;stroke-width: 1.1914247274398804px"/>
        <line x1="834.51" y1="148.39" x2="834.51" y2="308.04" style="fill: none;stroke: #004b6b;stroke-miterlimit: 10;stroke-width: 1.1914247274398804px"/>
        <line x1="851.78" y1="148.39" x2="851.78" y2="308.04" style="fill: none;stroke: #004b6b;stroke-miterlimit: 10;stroke-width: 1.1914247274398804px"/>
        <line x1="869.06" y1="148.39" x2="869.06" y2="308.04" style="fill: none;stroke: #004b6b;stroke-miterlimit: 10;stroke-width: 1.1914247274398804px"/>
        <line x1="886.33" y1="148.39" x2="886.33" y2="308.04" style="fill: none;stroke: #004b6b;stroke-miterlimit: 10;stroke-width: 1.1914247274398804px"/>
        <line x1="903.01" y1="148.39" x2="903.01" y2="308.04" style="fill: none;stroke: #004b6b;stroke-miterlimit: 10;stroke-width: 1.1914247274398804px"/>
        <line x1="919.1" y1="148.39" x2="919.1" y2="308.04" style="fill: none;stroke: #004b6b;stroke-miterlimit: 10;stroke-width: 1.1914247274398804px"/>
        <line x1="935.18" y1="148.39" x2="935.18" y2="308.04" style="fill: none;stroke: #004b6b;stroke-miterlimit: 10;stroke-width: 1.1914247274398804px"/>
        <line x1="951.27" y1="148.39" x2="951.27" y2="308.04" style="fill: none;stroke: #004b6b;stroke-miterlimit: 10;stroke-width: 1.1914247274398804px"/>
        <line x1="967.35" y1="148.39" x2="967.35" y2="308.04" style="fill: none;stroke: #004b6b;stroke-miterlimit: 10;stroke-width: 1.1914247274398804px"/>
      </g>
      <g>
        <line x1="974.5" y1="160.9" x2="631.37" y2="160.9" style="fill: none;stroke: #004b6b;stroke-miterlimit: 10;stroke-width: 1.1914247274398804px"/>
        <line x1="974.5" y1="178.18" x2="631.37" y2="178.18" style="fill: none;stroke: #004b6b;stroke-miterlimit: 10;stroke-width: 1.1914247274398804px"/>
        <line x1="974.5" y1="195.45" x2="631.37" y2="195.45" style="fill: none;stroke: #004b6b;stroke-miterlimit: 10;stroke-width: 1.1914247274398804px"/>
        <line x1="974.5" y1="212.73" x2="631.37" y2="212.73" style="fill: none;stroke: #004b6b;stroke-miterlimit: 10;stroke-width: 1.1914247274398804px"/>
        <line x1="974.5" y1="230" x2="631.37" y2="230" style="fill: none;stroke: #004b6b;stroke-miterlimit: 10;stroke-width: 1.1914247274398804px"/>
        <line x1="974.5" y1="247.28" x2="631.37" y2="247.28" style="fill: none;stroke: #004b6b;stroke-miterlimit: 10;stroke-width: 1.1914247274398804px"/>
        <line x1="974.5" y1="264.55" x2="631.37" y2="264.55" style="fill: none;stroke: #004b6b;stroke-miterlimit: 10;stroke-width: 1.1914247274398804px"/>
        <line x1="974.5" y1="281.83" x2="631.37" y2="281.83" style="fill: none;stroke: #004b6b;stroke-miterlimit: 10;stroke-width: 1.1914247274398804px"/>
        <line x1="974.5" y1="299.11" x2="631.37" y2="299.11" style="fill: none;stroke: #004b6b;stroke-miterlimit: 10;stroke-width: 1.1914247274398804px"/>
      </g>
    </g>
    <g>
      <g>
        <path d="M709.43,240.05s6.53,64.08,17.21,64.08C743,304.13,767,182.5,787.15,182.5s28.48,84.84,43.32,84.84S844.7,189,886.24,203.27" style="fill: none;stroke: #fff;stroke-linecap: round;stroke-miterlimit: 10;stroke-width: 4.7656989097595215px"/>
        <path d="M787.45,182.8s4.75,21.95,10.68,21.95,12.46-57.55,26.11-57.55" style="fill: none;stroke: #029adc;stroke-linecap: round;stroke-miterlimit: 10;stroke-width: 4.7656989097595215px"/>
        <path d="M859.24,211.87s4.75,21.95,10.68,21.95,12.46-57.55,26.11-57.55" style="fill: none;stroke: #029adc;stroke-linecap: round;stroke-miterlimit: 10;stroke-width: 4.7656989097595215px"/>
      </g>
      <circle cx="787.65" cy="182.49" r="7.65" style="fill: #041e33"/>
      <circle cx="859.05" cy="211.82" r="7.65" style="fill: #041e33"/>
      <circle cx="787.65" cy="182.49" r="5.1" style="fill: #fff"/>
      <circle cx="859.05" cy="211.82" r="7.65" style="fill: #041e33"/>
      <circle cx="859.05" cy="211.82" r="5.1" style="fill: #fff"/>
    </g>
    <g>
      <path d="M976.16,105.41H629.91A13.93,13.93,0,0,0,616,119.32v190.3a13.93,13.93,0,0,0,13.91,13.91H976.16a13.93,13.93,0,0,0,13.91-13.91V119.32A13.93,13.93,0,0,0,976.16,105.41Zm8.74,204.21a8.75,8.75,0,0,1-8.74,8.74H629.91a8.75,8.75,0,0,1-8.74-8.74V119.32a8.75,8.75,0,0,1,8.74-8.74H976.16a8.75,8.75,0,0,1,8.74,8.74Z" style="fill: #041e33"/>
      <rect x="631.1" y="118.13" width="5.17" height="5.17" style="fill: #041e33"/>
      <rect x="646.2" y="118.13" width="5.17" height="5.17" style="fill: #041e33"/>
      <rect x="661.3" y="118.13" width="5.17" height="5.17" style="fill: #041e33"/>
      <rect x="619.45" y="130.84" width="366.96" height="5.39" style="fill: #041e33"/>
    </g>
  </g>
</svg>
