<svg id="Layer_1" data-name="Layer 1" xmlns="http://www.w3.org/2000/svg" xmlns:xlink="http://www.w3.org/1999/xlink" viewBox="0 0 1000 444">
  <defs>
    <linearGradient id="linear-gradient" x1="403" y1="208.6" x2="595" y2="208.6" gradientUnits="userSpaceOnUse">
      <stop offset="0" stop-color="#ffc46b"/>
      <stop offset="1" stop-color="#ff7a2f"/>
    </linearGradient>
  </defs>
  <title>sobre</title>
  <circle cx="171" cy="200" r="134" style="fill: none;stroke: #e6e6e6;stroke-miterlimit: 10;stroke-width: 60px"/>
  <g>
    <polyline points="217.97 39.65 233.43 81.87 193.16 101.88" style="fill: none;stroke: #fff;stroke-linecap: square;stroke-miterlimit: 10;stroke-width: 13px"/>
    <polyline points="25.52 281.16 40.67 238.81 84.42 249.22" style="fill: none;stroke: #fff;stroke-linecap: square;stroke-miterlimit: 10;stroke-width: 13px"/>
    <polyline points="296.19 311 251.26 309.29 248.02 264.43" style="fill: none;stroke: #fff;stroke-linecap: square;stroke-miterlimit: 10;stroke-width: 13px"/>
  </g>
  <g>
    <g>
      <path d="M88.48,16.35A72.64,72.64,0,0,0,21,113.56a2.68,2.68,0,0,0,2.53,1.78,3.34,3.34,0,0,0,.92-.15A2.69,2.69,0,0,0,26,111.74,67.23,67.23,0,0,1,136.29,40.92l.42.38-8.12.09a2.74,2.74,0,0,0-2.68,2.74,2.71,2.71,0,0,0,2.71,2.67h0l14.63-.18A2.73,2.73,0,0,0,146,43.89l-.18-14.63a2.7,2.7,0,0,0-2.7-2.68h0a2.74,2.74,0,0,0-2.68,2.74l.09,8.12-.41-.39A72.13,72.13,0,0,0,88.48,16.35Z" style="fill: #041e33"/>
      <path d="M32.69,134.07l.18,14.63a2.71,2.71,0,0,0,2.71,2.68h0a2.73,2.73,0,0,0,2.67-2.74l-.08-8.11.41.38A72.65,72.65,0,0,0,157.73,64.38a2.7,2.7,0,1,0-5.09,1.81A67.24,67.24,0,0,1,42.39,137.05l-.42-.39,8.12-.09a2.71,2.71,0,0,0,0-5.41h0l-14.63.18A2.7,2.7,0,0,0,32.69,134.07Z" style="fill: #041e33"/>
      <g>
        <path d="M119.46,81.84l5.06-3.42a.42.42,0,0,0,.12-.45l-3.3-7.22a.42.42,0,0,0-.45-.18l-5.68,1.57a5.86,5.86,0,0,1-1.6.21,6,6,0,0,1-4.46-2A29.13,29.13,0,0,0,105.61,67a6,6,0,0,1-2.17-5.83l1.13-6a.39.39,0,0,0-.24-.42L96.84,52a.38.38,0,0,0-.48.18l-2.94,5.12a6,6,0,0,1-5.56,3,25.65,25.65,0,0,0-5,.15,6,6,0,0,1-5.71-2.59l-3.39-5a.32.32,0,0,0-.3-.15.22.22,0,0,0-.14,0l-6.87,3.13L67.78,61a3.23,3.23,0,0,1-.19,2.23,6,6,0,0,1-2,5,25.54,25.54,0,0,0-3.36,3.6,6.41,6.41,0,0,1-4.72,2.38,6.75,6.75,0,0,1-1.13-.12L50.51,73h0a.57.57,0,0,0-.42.26L47.68,79.6a3,3,0,0,0,1.4,1.78l5.2,3a3.3,3.3,0,0,1,1.64,3,31.7,31.7,0,0,0,.18,5.35,3.39,3.39,0,0,1-.27,1.76,6,6,0,0,1-2.59,5.62l-4.47,3,1.59,3.47L52,110.29a3.2,3.2,0,0,0,.64.9l5-1.34a5.56,5.56,0,0,1,1.55-.21,6,6,0,0,1,2.75.67,3.27,3.27,0,0,1,2.72,1.08A34.06,34.06,0,0,0,68.64,115a3.28,3.28,0,0,1,1.22,3.21l-.26,1.38a6.89,6.89,0,0,1-.09,1.19l-.8,4.2a3.06,3.06,0,0,0,2,2.6l3.74,1.4,2.13.79s0,0,0,0l3-5.2a6.08,6.08,0,0,1,5.5-3,27,27,0,0,0,4.67-.15,6,6,0,0,1,3.44.64,3.33,3.33,0,0,1,3,1.44l3.42,5a3.65,3.65,0,0,0,.29.37l6.64-3a.32.32,0,0,0,.18-.41l-1.55-5.74a6,6,0,0,1,1.78-6,29.43,29.43,0,0,0,3.36-3.56,6,6,0,0,1,4.7-2.29,8,8,0,0,1,1.1.11l6,1.13a.42.42,0,0,0,.42-.23l2.79-7.5a.37.37,0,0,0-.18-.47l-5.14-3a6,6,0,0,1-3-5.53,30.87,30.87,0,0,0-.14-4.9A6,6,0,0,1,119.46,81.84ZM103.05,93.72a14.55,14.55,0,1,1-8.83-18.58A14.54,14.54,0,0,1,103.05,93.72Z" style="fill: #a4d7f0"/>
        <path d="M126.15,68.49l3.3,7.22a5.8,5.8,0,0,1,.51,2,3.06,3.06,0,0,0,.17-2.87l-1.66-3.62-1.67-3.63a3,3,0,0,0-3.16-1.74A5.62,5.62,0,0,1,126.15,68.49Z" style="fill: #029adc;opacity: 0.4"/>
        <path d="M109,60.29l-.36,1.92a.56.56,0,0,0,.24.6,38.23,38.23,0,0,1,4.16,3.92.65.65,0,0,0,.62.21l.72-.2a1.7,1.7,0,0,1-.24-.22,31.67,31.67,0,0,0-3.87-3.63A3.38,3.38,0,0,1,109,60.29Z" style="fill: #029adc;opacity: 0.4"/>
        <path d="M78.07,49.81l3.39,5a.71.71,0,0,0,.63.24L83,55a3.19,3.19,0,0,1-.61-.66L79,49.3A3,3,0,0,0,76.05,48,5.81,5.81,0,0,1,78.07,49.81Z" style="fill: #029adc;opacity: 0.4"/>
        <path d="M129.51,96.49l-5.14-3a3.36,3.36,0,0,1-1.64-3,33.52,33.52,0,0,0-.09-4.37l-.23.16a.64.64,0,0,0-.24.59,37.14,37.14,0,0,1,.18,5.77.7.7,0,0,0,.29.57l5.15,3a5.76,5.76,0,0,1,2.87,4.76l.25-.66A3.22,3.22,0,0,0,129.51,96.49Z" style="fill: #029adc;opacity: 0.4"/>
        <path d="M110.86,117.3c-.12.11-.22.23-.35.34a.67.67,0,0,0-.21.62l1.55,5.74a5.84,5.84,0,0,1,.18,1,3,3,0,0,0,.29-2.28Z" style="fill: #029adc;opacity: 0.4"/>
        <path d="M106.14,49.72a5.74,5.74,0,0,1,3.73,5.75l.34-1.8a3.09,3.09,0,0,0-1.93-3.45l-3.75-1.4-3.74-1.39a3.26,3.26,0,0,0-1.3-.19Z" style="fill: #029adc;opacity: 0.4"/>
      </g>
      <path d="M83.54,105.11a17.25,17.25,0,0,0,11.57-32.5,17.61,17.61,0,0,0-5.77-1,17.26,17.26,0,0,0-5.8,33.51ZM78.16,84.89A11.84,11.84,0,0,1,89.34,77a12.21,12.21,0,0,1,4,.69,11.85,11.85,0,0,1-4,23,12.53,12.53,0,0,1-4-.68A11.85,11.85,0,0,1,78.16,84.89Z" style="fill: #041e33"/>
      <path d="M61.06,66.49a.7.7,0,0,1-.59.24l-5.92-1.16a6.09,6.09,0,0,0-1-.09A5.85,5.85,0,0,0,48.13,69s0,.09-.06.12l-2.8,7.5a5.75,5.75,0,0,0,2.53,7l5.2,3a.66.66,0,0,1,.3.56,34,34,0,0,0,.21,5.8.63.63,0,0,1-.24.6l-5,3.38a5.75,5.75,0,0,0-2,7.14l3.3,7.23a5.74,5.74,0,0,0,5.24,3.36,5,5,0,0,0,1.48-.21L62.1,113a.59.59,0,0,1,.6.21,35.51,35.51,0,0,0,4.25,4,.65.65,0,0,1,.24.59l-1.13,5.92a5.74,5.74,0,0,0,3.65,6.48l7.5,2.79a5.86,5.86,0,0,0,2,.36,5.79,5.79,0,0,0,5-2.88l3-5.21a.67.67,0,0,1,.59-.29h0a38.84,38.84,0,0,0,5.5-.18.63.63,0,0,1,.6.24l3.42,5a5.74,5.74,0,0,0,4.75,2.53,5.81,5.81,0,0,0,2.38-.51l7.23-3.3a5.7,5.7,0,0,0,3.15-6.72l-1.55-5.74a.67.67,0,0,1,.21-.62,32.89,32.89,0,0,0,3.93-4.19.6.6,0,0,1,.59-.24l6,1.13a6.44,6.44,0,0,0,1.07.09,5.8,5.8,0,0,0,5.41-3.75l2.8-7.49a5.76,5.76,0,0,0-2.53-7l-5.15-3a.7.7,0,0,1-.29-.57,37.14,37.14,0,0,0-.18-5.77.64.64,0,0,1,.24-.59l5.05-3.42a5.74,5.74,0,0,0,2-7.14l-3.3-7.22a5.72,5.72,0,0,0-5.23-3.36,5.46,5.46,0,0,0-1.52.21l-5.71,1.6a.65.65,0,0,1-.62-.21,38.23,38.23,0,0,0-4.16-3.92.56.56,0,0,1-.24-.6l1.13-6a5.76,5.76,0,0,0-3.66-6.49l-7.49-2.79a5.9,5.9,0,0,0-2-.36,5.79,5.79,0,0,0-5,2.89l-3,5.11a.66.66,0,0,1-.6.3h0a33,33,0,0,0-6,.18.71.71,0,0,1-.63-.24l-3.39-5a5.79,5.79,0,0,0-7.13-2l-7.23,3.3a5.71,5.71,0,0,0-3.15,6.72l1.55,5.83a.61.61,0,0,1-.21.6A39.56,39.56,0,0,0,61.06,66.49Zm4.22,3.33a25.54,25.54,0,0,1,3.36-3.6,6,6,0,0,0,1.79-6l-1.55-5.83a.33.33,0,0,1,.18-.41l7.23-3.3a.22.22,0,0,1,.14,0,.32.32,0,0,1,.3.15l3.39,5a6,6,0,0,0,5.71,2.59,25.65,25.65,0,0,1,5-.15,6,6,0,0,0,5.56-3l2.94-5.12a.38.38,0,0,1,.48-.18l7.49,2.8a.39.39,0,0,1,.24.42l-1.13,6A6,6,0,0,0,108.61,65a28.41,28.41,0,0,1,3.54,3.33,6,6,0,0,0,4.46,2,5.86,5.86,0,0,0,1.6-.21l5.68-1.57a.42.42,0,0,1,.45.18l3.3,7.22a.42.42,0,0,1-.12.45l-5.06,3.42a6,6,0,0,0-2.58,5.65,30.87,30.87,0,0,1,.14,4.9,6,6,0,0,0,3,5.53l5.14,3a.37.37,0,0,1,.18.47l-2.79,7.5a.42.42,0,0,1-.42.23l-6-1.13a8,8,0,0,0-1.1-.11,6,6,0,0,0-4.7,2.29,29.43,29.43,0,0,1-3.36,3.56,6,6,0,0,0-1.78,6l1.55,5.74a.32.32,0,0,1-.18.41l-7.23,3.31a.27.27,0,0,1-.15,0,.31.31,0,0,1-.29-.15L98.44,122a6.07,6.07,0,0,0-5.68-2.59,27,27,0,0,1-4.67.15,6.08,6.08,0,0,0-5.5,3l-3,5.2a.38.38,0,0,1-.48.18l-7.49-2.8a.37.37,0,0,1-.24-.41l1.13-5.92a6,6,0,0,0-2.2-5.86,27.29,27.29,0,0,1-3.6-3.36,6,6,0,0,0-4.46-2,5.56,5.56,0,0,0-1.55.21l-5.82,1.54a.43.43,0,0,1-.45-.17L51.13,102a.42.42,0,0,1,.12-.45l5-3.39a6,6,0,0,0,2.59-5.67,33.49,33.49,0,0,1-.18-4.91,6,6,0,0,0-3-5.47l-5.2-3a.36.36,0,0,1-.18-.47l2.76-7.41a.57.57,0,0,1,.42-.26h0l5.92,1.13a6.75,6.75,0,0,0,1.13.12A6.41,6.41,0,0,0,65.28,69.82Z" style="fill: #041e33"/>
    </g>
    <text transform="translate(44.87 192.06)" style="opacity: 0.7000000000000001;font-size: 16px;fill: #041e33;font-family: Ubuntu">P<tspan x="9.73" y="0" style="letter-spacing: -0.010955810546875em">R</tspan><tspan x="19.62" y="0">OCESS</tspan><tspan x="68.14" y="0" style="letter-spacing: -0.010009765625em">O</tspan><tspan x="80.43" y="0" style="letter-spacing: 0.000030517578125em">S</tspan></text>
  </g>
  <g>
    <g>
      <rect x="102" y="296.29" width="61" height="60.71" rx="5.92" style="fill: #a4d7f0"/>
      <path d="M204.88,322.87h-34v-4.81H180a2.12,2.12,0,1,0,0-4.23h-9.19V309h6.38a8.83,8.83,0,0,0,6.29-2.6l13.91-13.91a6.62,6.62,0,1,0-3-3l-13.91,13.91a4.64,4.64,0,0,1-3.3,1.37h-6.38v-4.67A11.17,11.17,0,0,0,159.68,289H155V270.24a6.64,6.64,0,1,0-4.23,0V289H146v-9.18a2.12,2.12,0,1,0-4.23,0V289h-4.81v-34a2.12,2.12,0,0,0-4.23,0v34h-4.81v-9.18a2.12,2.12,0,1,0-4.23,0V289h-4.81v-6.37a8.84,8.84,0,0,0-2.61-6.29l-13.91-13.92a6.66,6.66,0,1,0-3,3l13.91,13.92a4.64,4.64,0,0,1,1.37,3.3V289H110a11.41,11.41,0,0,0-2.79.35,2.12,2.12,0,1,0,1.06,4.1,7.13,7.13,0,0,1,1.73-.22h49.73a6.93,6.93,0,0,1,6.92,6.93v49.73a7.19,7.19,0,0,1-.21,1.73,2.11,2.11,0,0,0,1.52,2.57,1.93,1.93,0,0,0,.53.07,2.1,2.1,0,0,0,2-1.59,10.81,10.81,0,0,0,.35-2.78v-4.67h18.73a6.64,6.64,0,1,0,0-4.23H170.83v-4.81H180a2.12,2.12,0,1,0,0-4.23h-9.19V327.1h34a2.12,2.12,0,1,0,0-4.23Zm-6.22-38a2.41,2.41,0,0,1,4.11,1.7,2.41,2.41,0,1,1-4.81,0A2.38,2.38,0,0,1,198.66,284.86ZM98.09,261.14a2.41,2.41,0,0,1-3.4-3.41,2.41,2.41,0,0,1,3.4,0A2.41,2.41,0,0,1,98.09,261.14Zm54.81,5.22a2.41,2.41,0,1,1,2.4-2.41A2.41,2.41,0,0,1,152.9,266.36Zm42.94,74.3a2.41,2.41,0,1,1-2.4,2.4A2.41,2.41,0,0,1,195.84,340.66Z" style="fill: #041e33"/>
      <path d="M177.93,385.84a6.65,6.65,0,0,0-7.64-1.25l-13.91-13.91a4.64,4.64,0,0,1-1.37-3.3V361h4.67a11.41,11.41,0,0,0,2.79-.35,2.12,2.12,0,0,0-1.06-4.1,6.67,6.67,0,0,1-1.73.22H110a6.93,6.93,0,0,1-6.92-6.92V300.12a7.13,7.13,0,0,1,.21-1.73,2.11,2.11,0,1,0-4.09-1.06,10.94,10.94,0,0,0-.35,2.79v4.67H80.08a6.64,6.64,0,1,0,0,4.22H98.8v4.82H89.61a2.12,2.12,0,1,0,0,4.23H98.8v4.81h-34a2.12,2.12,0,1,0,0,4.23H98.8v4.81H89.61a2.12,2.12,0,1,0,0,4.23H98.8V341H92.42a8.84,8.84,0,0,0-6.29,2.61l-13.91,13.9a6.62,6.62,0,1,0,3,3l13.91-13.9a4.6,4.6,0,0,1,3.3-1.37H98.8v4.67A11.16,11.16,0,0,0,110,361h4.67v18.72a6.64,6.64,0,1,0,4.23,0V361h4.81v9.19a2.12,2.12,0,0,0,4.23,0V361h4.81v34.05a2.12,2.12,0,1,0,4.23,0V361h4.81v9.19a2.12,2.12,0,0,0,4.23,0V361h4.81v6.38a8.84,8.84,0,0,0,2.61,6.29l13.91,13.91a6.63,6.63,0,1,0,10.63-1.74ZM73.79,309.31a2.41,2.41,0,1,1,2.4-2.41A2.41,2.41,0,0,1,73.79,309.31ZM71,365.11a2.42,2.42,0,0,1-1.7.7,2.41,2.41,0,0,1-2.41-2.4A2.42,2.42,0,0,1,69.27,361a2.41,2.41,0,0,1,2.4,2.41A2.42,2.42,0,0,1,71,365.11ZM119.14,386a2.41,2.41,0,1,1-2.41-2.41A2.41,2.41,0,0,1,119.14,386Zm55.8,6.22a2.4,2.4,0,1,1,0-3.4A2.4,2.4,0,0,1,174.94,392.23Z" style="fill: #041e33"/>
    </g>
    <text transform="translate(85.62 427.06)" style="opacity: 0.7000000000000001;font-size: 16px;fill: #041e33;font-family: Ubuntu">T<tspan x="9.04" y="0" style="letter-spacing: -0.0279541015625em">E</tspan><tspan x="17.73" y="0">CNO</tspan><tspan x="51.74" y="0" style="letter-spacing: -0.04498291015625em">L</tspan><tspan x="59.33" y="0">OGIA</tspan></text>
  </g>
  <g>
    <text transform="translate(266.64 258.06)" style="opacity: 0.7000000000000001;font-size: 16px;fill: #041e33;font-family: Ubuntu">PESS<tspan x="35.89" y="0" style="letter-spacing: -0.019012451171875em">O</tspan><tspan x="48.03" y="0" style="letter-spacing: 0.0159912109375em">A</tspan><tspan x="58.9" y="0" style="letter-spacing: -0.000030517578125em">S</tspan></text>
    <g>
      <g>
        <path d="M261.76,106.91c.44-.15.88-.28,1.34-.39.08-.2.18-.39.27-.58A15.27,15.27,0,0,0,261.76,106.91Z" style="fill: #a4d7f0"/>
        <path d="M288,133.39a10.49,10.49,0,0,1,5.31,1.43V114c0-7.49-6.2-14.06-13.26-14.06-4.58,0-8.47,2.82-10.81,6.29a15.78,15.78,0,0,1,8.8,4.47,2.65,2.65,0,0,1-3.75,3.75,10.61,10.61,0,0,0-18.11,7.5v.21a18.09,18.09,0,0,1,2.65-.21c10.06,0,18.56,8.87,18.56,19.37a2.65,2.65,0,0,1-5.3,0c0-7.49-6.2-14.06-13.26-14.06-7.43,0-13.26,6.9-13.26,14.06a13.06,13.06,0,0,0,1.78,6.49,2.67,2.67,0,0,1-.89,3.55,13.17,13.17,0,0,0-6.2,11.17c0,7.49,6.07,14.06,13.27,14.06a2.65,2.65,0,1,1,0,5.3,17.88,17.88,0,0,1-11.32-4.17,13,13,0,0,0-1.95,6.83,13.21,13.21,0,0,0,4.84,10.14,2.64,2.64,0,0,1,.88,2.66c-2.3,9.56,6.2,18.11,13.75,17.08l.56-.08a2.67,2.67,0,0,1,2.7,1.52,16,16,0,0,0,14.4,9.25c8.63,0,15.92-7.65,15.92-16.7a15.94,15.94,0,0,0-15.92-15.92,2.65,2.65,0,0,1,0-5.3,21.18,21.18,0,0,1,15.92,7.2V144a5.31,5.31,0,0,0-5.31-5.31,2.65,2.65,0,0,1,0-5.3Z" style="fill: #a4d7f0"/>
        <path d="M322.72,106.26c-2.34-3.47-6.23-6.29-10.81-6.29-7.06,0-13.26,6.57-13.26,14.06v20.79a10.49,10.49,0,0,1,5.31-1.43,2.65,2.65,0,1,1,0,5.3,5.31,5.31,0,0,0-5.31,5.31v50.43a21.18,21.18,0,0,1,15.92-7.2,2.65,2.65,0,1,1,0,5.3,15.94,15.94,0,0,0-15.92,15.92c0,9.05,7.29,16.7,15.92,16.7A16,16,0,0,0,329,215.9a2.66,2.66,0,0,1,2.7-1.52l.56.08c6.72.91,14.16-5.74,14.16-14a13.18,13.18,0,0,0-.41-3.11,2.64,2.64,0,0,1,.88-2.66,13.21,13.21,0,0,0,4.84-10.14,13,13,0,0,0-1.95-6.83,17.88,17.88,0,0,1-11.32,4.17,2.65,2.65,0,0,1,0-5.3c7.18,0,13.27-6.54,13.27-14.06a13.17,13.17,0,0,0-6.2-11.17,2.67,2.67,0,0,1-.89-3.55,13.06,13.06,0,0,0,1.78-6.49c0-7.17-5.84-14.06-13.26-14.06-7.06,0-13.26,6.57-13.26,14.06a2.65,2.65,0,1,1-5.3,0c0-10.5,8.5-19.37,18.56-19.37a18.09,18.09,0,0,1,2.65.21V122a10.61,10.61,0,0,0-18.11-7.5,2.65,2.65,0,0,1-3.75-3.75A15.78,15.78,0,0,1,322.72,106.26Z" style="fill: #a4d7f0"/>
        <path d="M280.09,94.67A18.63,18.63,0,0,1,296,104.22a20.2,20.2,0,0,1,2.83-3.77,18.41,18.41,0,0,0-14.74-7.78,17.47,17.47,0,0,0-9.58,3A16.8,16.8,0,0,1,280.09,94.67Z" style="fill: #a4d7f0"/>
        <path d="M296,218.92a22.43,22.43,0,0,1-7.63,8.28,21.75,21.75,0,0,0,8.87-6.26A19.87,19.87,0,0,1,296,218.92Z" style="fill: #a4d7f0"/>
        <path d="M357.58,171.94A21.2,21.2,0,0,0,361,160.56a18.41,18.41,0,0,0-6.72-14.25,17.9,17.9,0,0,0,1.42-7A19.79,19.79,0,0,0,345,121.86a15.88,15.88,0,0,0-12.07-17.34c-3-7-9.83-11.85-17-11.85a17.66,17.66,0,0,0-9.75,3,17.08,17.08,0,0,1,5.75-1c7.16,0,13.94,4.8,17,11.85A15.88,15.88,0,0,1,341,123.86a19.79,19.79,0,0,1,10.73,17.49,17.9,17.9,0,0,1-1.42,7A18.41,18.41,0,0,1,357,162.56a21.2,21.2,0,0,1-3.42,11.38,18.3,18.3,0,0,1-2.12,23.77,17,17,0,0,1,.24,2.78,19.71,19.71,0,0,1-8.84,16.36,19.6,19.6,0,0,0,12.84-18.36,17,17,0,0,0-.24-2.78,18.3,18.3,0,0,0,2.12-23.77Z" style="fill: #a4d7f0"/>
        <path d="M333.13,219.85h-.24a21.38,21.38,0,0,1-7,7.26,21.42,21.42,0,0,0,9.81-7.48A17.08,17.08,0,0,1,333.13,219.85Z" style="fill: #a4d7f0"/>
      </g>
      <path d="M286.74,114.68a2.65,2.65,0,1,0,2.65,2.65A2.65,2.65,0,0,0,286.74,114.68Z" style="fill: #041e33"/>
      <path d="M357.58,171.94A21.2,21.2,0,0,0,361,160.56a18.41,18.41,0,0,0-6.72-14.25,17.9,17.9,0,0,0,1.42-7A19.79,19.79,0,0,0,345,121.86a15.88,15.88,0,0,0-12.07-17.34c-3-7-9.83-11.85-17-11.85A18.63,18.63,0,0,0,300,102.22a18.63,18.63,0,0,0-15.91-9.55c-7.16,0-13.94,4.8-17,11.85A15.88,15.88,0,0,0,255,121.86a19.79,19.79,0,0,0-10.73,17.49,17.9,17.9,0,0,0,1.42,7A18.41,18.41,0,0,0,239,160.56a21.21,21.21,0,0,0,3.42,11.38,18.3,18.3,0,0,0,2.12,23.77c-1.82,11,7,22.14,18.33,22.14h.24a20.91,20.91,0,0,0,36.89-.93,20.91,20.91,0,0,0,36.89.93h.24c10.06,0,18.57-8.87,18.57-19.36a17,17,0,0,0-.24-2.78,18.3,18.3,0,0,0,2.12-23.77Zm-60.23-39.12a10.49,10.49,0,0,0-5.31-1.43,2.65,2.65,0,0,0,0,5.3,5.31,5.31,0,0,1,5.31,5.31v50.43a21.18,21.18,0,0,0-15.92-7.2,2.65,2.65,0,0,0,0,5.3,15.94,15.94,0,0,1,15.92,15.92c0,9.05-7.29,16.7-15.92,16.7A16,16,0,0,1,267,213.9a2.67,2.67,0,0,0-2.7-1.52l-.56.08c-7.55,1-16-7.52-13.75-17.08a2.64,2.64,0,0,0-.88-2.66,13.21,13.21,0,0,1-4.84-10.14,13,13,0,0,1,1.95-6.83,17.88,17.88,0,0,0,11.32,4.17,2.65,2.65,0,1,0,0-5.3c-7.2,0-13.27-6.57-13.27-14.06a13.17,13.17,0,0,1,6.2-11.17,2.67,2.67,0,0,0,.89-3.55,13.06,13.06,0,0,1-1.78-6.49c0-7.16,5.83-14.06,13.26-14.06,7.06,0,13.26,6.57,13.26,14.06a2.65,2.65,0,0,0,5.3,0c0-10.5-8.5-19.37-18.56-19.37a18.09,18.09,0,0,0-2.65.21V120a10.61,10.61,0,0,1,18.11-7.5,2.65,2.65,0,0,0,3.75-3.75,15.78,15.78,0,0,0-8.8-4.47c2.34-3.47,6.23-6.29,10.81-6.29,7.06,0,13.26,6.57,13.26,14.06Zm45.08,47.1a17.88,17.88,0,0,0,11.32-4.17,13,13,0,0,1,1.95,6.83,13.21,13.21,0,0,1-4.84,10.14,2.64,2.64,0,0,0-.88,2.66,13.18,13.18,0,0,1,.41,3.11c0,8.23-7.44,14.88-14.16,14l-.56-.08a2.66,2.66,0,0,0-2.7,1.52,16,16,0,0,1-14.4,9.25c-8.63,0-15.92-7.65-15.92-16.7a15.94,15.94,0,0,1,15.92-15.92,2.65,2.65,0,1,0,0-5.3,21.18,21.18,0,0,0-15.92,7.2V142a5.31,5.31,0,0,1,5.31-5.31,2.65,2.65,0,1,0,0-5.3,10.49,10.49,0,0,0-5.31,1.43V112c0-7.49,6.2-14.06,13.26-14.06,4.58,0,8.47,2.82,10.81,6.29a15.78,15.78,0,0,0-8.8,4.47,2.65,2.65,0,0,0,3.75,3.75,10.61,10.61,0,0,1,18.11,7.5v.21a18.09,18.09,0,0,0-2.65-.21c-10.06,0-18.56,8.87-18.56,19.37a2.65,2.65,0,1,0,5.3,0c0-7.49,6.2-14.06,13.26-14.06,7.42,0,13.26,6.89,13.26,14.06a13.06,13.06,0,0,1-1.78,6.49,2.67,2.67,0,0,0,.89,3.55,13.17,13.17,0,0,1,6.2,11.17c0,7.52-6.09,14.06-13.27,14.06a2.65,2.65,0,0,0,0,5.3Z" style="fill: #041e33"/>
      <path d="M291.37,149.44a2.66,2.66,0,0,0-3.75-.21,13.28,13.28,0,0,1-22.1-9.88,2.65,2.65,0,1,0-5.3,0,18.6,18.6,0,0,0,15.54,18.31,8,8,0,0,1-7.59,5.56,2.65,2.65,0,0,0,0,5.3,13.28,13.28,0,0,0,13-10.77,18.51,18.51,0,0,0,10-4.57A2.65,2.65,0,0,0,291.37,149.44Z" style="fill: #041e33"/>
      <path d="M262.87,195.84a2.65,2.65,0,0,0,0,5.3c7.06,0,13.26,6.57,13.26,14.06a2.65,2.65,0,0,0,5.3,0C281.43,204.7,272.93,195.84,262.87,195.84Z" style="fill: #041e33"/>
      <path d="M284.09,174.62a23.82,23.82,0,0,0-20.77,12.1,2.65,2.65,0,1,0,4.61,2.61,18.55,18.55,0,0,1,16.16-9.41,2.65,2.65,0,1,0,0-5.3Z" style="fill: #041e33"/>
      <path d="M331.83,163.22a8,8,0,0,1-7.59-5.56,18.6,18.6,0,0,0,15.54-18.31,2.65,2.65,0,1,0-5.3,0,13.26,13.26,0,0,1-22.1,9.88,2.65,2.65,0,1,0-3.54,4,18.51,18.51,0,0,0,10,4.57,13.28,13.28,0,0,0,13,10.77,2.65,2.65,0,1,0,0-5.3Z" style="fill: #041e33"/>
      <path d="M337.13,195.84c-10.06,0-18.56,8.86-18.56,19.36a2.65,2.65,0,1,0,5.3,0c0-7.49,6.2-14.06,13.26-14.06a2.65,2.65,0,0,0,0-5.3Z" style="fill: #041e33"/>
      <path d="M336.68,186.72a23.82,23.82,0,0,0-20.77-12.1,2.65,2.65,0,0,0,0,5.3,18.53,18.53,0,0,1,16.15,9.41,2.65,2.65,0,0,0,4.62-2.61Z" style="fill: #041e33"/>
    </g>
  </g>
  <g>
    <polygon points="565 242.1 403 242.1 403 175.1 565 175.1 595 208.6 565 242.1" style="fill: url(#linear-gradient)"/>
    <text transform="translate(420 204.26)" style="opacity: 0.7000000000000001;font-size: 16px;fill: #041e33;font-family: Ubuntu"><tspan style="letter-spacing: -0.019989013671875em">C<tspan x="9.6" y="0" style="letter-spacing: 0.000030517578125em">OM EXPERTISE</tspan></tspan><tspan x="0" y="19.2">NO S</tspan><tspan x="36.3" y="19.2" style="letter-spacing: -0.02197265625em">E</tspan><tspan x="45.09" y="19.2">U BUSINESS</tspan></text>
    <g>
      <text transform="translate(463.03 159.26)" style="font-size: 16px;fill: #ff6b00;font-family: Ubuntu;letter-spacing: 0.027984619140625em">L<tspan x="8.75" y="0" style="letter-spacing: -0.01800537109375em">A</tspan><tspan x="19.07" y="0" style="letter-spacing: 0.000030517578125em">W</tspan></text>
      <text transform="translate(450.96 137.26)" style="font-size: 16px;fill: #ff6b00;font-family: Ubuntu">H<tspan x="11.28" y="0" style="letter-spacing: 0.0169677734375em">E</tspan><tspan x="20.69" y="0" style="letter-spacing: 0.000030517578125em">A</tspan><tspan x="31.3" y="0" style="letter-spacing: -0.115020751953125em">L</tspan><tspan x="37.76" y="0">TH</tspan></text>
      <text transform="translate(449.94 265.26)" style="font-size: 16px;fill: #ff6b00;font-family: Ubuntu">ENE<tspan x="29.92" y="0" style="letter-spacing: -0.010986328125em">R</tspan><tspan x="39.81" y="0">GY</tspan></text>
      <text transform="translate(444.22 291.26)" style="font-size: 16px;fill: #ff6b00;font-family: Ubuntu">S<tspan x="8.51" y="0" style="letter-spacing: -0.0279541015625em">E</tspan><tspan x="17.2" y="0">CURI</tspan><tspan x="52.5" y="0" style="letter-spacing: 0.028961181640625em">T</tspan><tspan x="62" y="0" style="letter-spacing: 0.000030517578125em">Y</tspan></text>
      <text transform="translate(460.54 317.26)" style="font-size: 16px;fill: #ff6b00;font-family: Ubuntu">T<tspan x="9.04" y="0" style="letter-spacing: -0.0279541015625em">E</tspan><tspan x="17.73" y="0">CH</tspan></text>
    </g>
  </g>
  <g style="opacity: 0.7000000000000001">
    <text transform="translate(713.15 403.16)" style="font-size: 16px;fill: #041e33;font-family: Ubuntu">T<tspan x="9.04" y="0" style="letter-spacing: 0.02801513671875em">R</tspan><tspan x="19.55" y="0">ANS</tspan><tspan x="50.32" y="0" style="letter-spacing: -0.01300048828125em">F</tspan><tspan x="58.7" y="0">ORM</tspan><tspan x="95.15" y="0" style="letter-spacing: -0.01898193359375em">A</tspan><tspan x="105.46" y="0" style="letter-spacing: 0.02197265625em">Ç</tspan><tspan x="115.73" y="0" style="letter-spacing: -0.019012451171875em">Ã</tspan><tspan x="126.03" y="0">O DIGI</tspan><tspan x="172.94" y="0" style="letter-spacing: -0.06402587890625em">T</tspan><tspan x="180.96" y="0">AL</tspan></text>
  </g>
  <g>
    <path d="M669.88,101H953.82a9.88,9.88,0,0,1,9.88,9.88V253a0,0,0,0,1,0,0H660a0,0,0,0,1,0,0V110.88A9.88,9.88,0,0,1,669.88,101Z" transform="translate(1623.71 354) rotate(180)" style="fill: #a4d7f0"/>
    <g style="opacity: 0.1">
      <g>
        <line x1="682" y1="113.49" x2="682" y2="247.49" style="fill: none;stroke: #004b6b;stroke-miterlimit: 10"/>
        <line x1="696.5" y1="113.49" x2="696.5" y2="247.49" style="fill: none;stroke: #004b6b;stroke-miterlimit: 10"/>
        <line x1="711" y1="113.49" x2="711" y2="247.49" style="fill: none;stroke: #004b6b;stroke-miterlimit: 10"/>
        <line x1="725.5" y1="113.49" x2="725.5" y2="247.49" style="fill: none;stroke: #004b6b;stroke-miterlimit: 10"/>
        <line x1="740" y1="113.49" x2="740" y2="247.49" style="fill: none;stroke: #004b6b;stroke-miterlimit: 10"/>
        <line x1="754.5" y1="113.49" x2="754.5" y2="247.49" style="fill: none;stroke: #004b6b;stroke-miterlimit: 10"/>
        <line x1="769" y1="113.49" x2="769" y2="247.49" style="fill: none;stroke: #004b6b;stroke-miterlimit: 10"/>
        <line x1="783.5" y1="113.49" x2="783.5" y2="247.49" style="fill: none;stroke: #004b6b;stroke-miterlimit: 10"/>
        <line x1="798" y1="113.49" x2="798" y2="247.49" style="fill: none;stroke: #004b6b;stroke-miterlimit: 10"/>
        <line x1="812.5" y1="113.49" x2="812.5" y2="247.49" style="fill: none;stroke: #004b6b;stroke-miterlimit: 10"/>
        <line x1="827" y1="113.49" x2="827" y2="247.49" style="fill: none;stroke: #004b6b;stroke-miterlimit: 10"/>
        <line x1="841.5" y1="113.49" x2="841.5" y2="247.49" style="fill: none;stroke: #004b6b;stroke-miterlimit: 10"/>
        <line x1="856" y1="113.49" x2="856" y2="247.49" style="fill: none;stroke: #004b6b;stroke-miterlimit: 10"/>
        <line x1="870.5" y1="113.49" x2="870.5" y2="247.49" style="fill: none;stroke: #004b6b;stroke-miterlimit: 10"/>
        <line x1="885" y1="113.49" x2="885" y2="247.49" style="fill: none;stroke: #004b6b;stroke-miterlimit: 10"/>
        <line x1="899" y1="113.49" x2="899" y2="247.49" style="fill: none;stroke: #004b6b;stroke-miterlimit: 10"/>
        <line x1="912.5" y1="113.49" x2="912.5" y2="247.49" style="fill: none;stroke: #004b6b;stroke-miterlimit: 10"/>
        <line x1="926" y1="113.49" x2="926" y2="247.49" style="fill: none;stroke: #004b6b;stroke-miterlimit: 10"/>
        <line x1="939.5" y1="113.49" x2="939.5" y2="247.49" style="fill: none;stroke: #004b6b;stroke-miterlimit: 10"/>
        <line x1="953" y1="113.49" x2="953" y2="247.49" style="fill: none;stroke: #004b6b;stroke-miterlimit: 10"/>
      </g>
      <g>
        <line x1="959" y1="123.99" x2="671" y2="123.99" style="fill: none;stroke: #004b6b;stroke-miterlimit: 10"/>
        <line x1="959" y1="138.49" x2="671" y2="138.49" style="fill: none;stroke: #004b6b;stroke-miterlimit: 10"/>
        <line x1="959" y1="152.99" x2="671" y2="152.99" style="fill: none;stroke: #004b6b;stroke-miterlimit: 10"/>
        <line x1="959" y1="167.49" x2="671" y2="167.49" style="fill: none;stroke: #004b6b;stroke-miterlimit: 10"/>
        <line x1="959" y1="181.99" x2="671" y2="181.99" style="fill: none;stroke: #004b6b;stroke-miterlimit: 10"/>
        <line x1="959" y1="196.49" x2="671" y2="196.49" style="fill: none;stroke: #004b6b;stroke-miterlimit: 10"/>
        <line x1="959" y1="210.99" x2="671" y2="210.99" style="fill: none;stroke: #004b6b;stroke-miterlimit: 10"/>
        <line x1="959" y1="225.49" x2="671" y2="225.49" style="fill: none;stroke: #004b6b;stroke-miterlimit: 10"/>
        <line x1="959" y1="239.99" x2="671" y2="239.99" style="fill: none;stroke: #004b6b;stroke-miterlimit: 10"/>
      </g>
    </g>
    <g>
      <g>
        <path d="M736.52,190.42S742,244.2,751,244.2c13.7,0,33.87-102.08,50.8-102.08s23.9,71.21,36.35,71.21,11.95-65.74,46.81-53.79" style="fill: none;stroke: #fff;stroke-linecap: round;stroke-miterlimit: 10;stroke-width: 4px"/>
        <path d="M802,142.36s4,18.43,9,18.43,10.46-48.3,21.91-48.3" style="fill: none;stroke: #029adc;stroke-linecap: round;stroke-miterlimit: 10;stroke-width: 4px"/>
        <path d="M862.26,166.77s4,18.42,9,18.42,10.46-48.3,21.92-48.3" style="fill: none;stroke: #029adc;stroke-linecap: round;stroke-miterlimit: 10;stroke-width: 4px"/>
      </g>
      <circle cx="802.17" cy="142.11" r="6.42" style="fill: #041e33"/>
      <circle cx="862.1" cy="166.72" r="6.42" style="fill: #041e33"/>
      <circle cx="802.17" cy="142.11" r="4.28" style="fill: #fff"/>
      <circle cx="862.1" cy="166.72" r="6.42" style="fill: #041e33"/>
      <circle cx="862.1" cy="166.72" r="4.28" style="fill: #fff"/>
    </g>
    <g>
      <g>
        <path d="M960.4,77.41H669.77A11.69,11.69,0,0,0,658.1,89.08V248.81a11.69,11.69,0,0,0,11.67,11.68H960.4a11.69,11.69,0,0,0,11.67-11.68V89.08A11.69,11.69,0,0,0,960.4,77.41Zm7.33,171.4a7.34,7.34,0,0,1-7.33,7.34H669.77a7.34,7.34,0,0,1-7.33-7.34V89.08a7.34,7.34,0,0,1,7.33-7.33H960.4a7.34,7.34,0,0,1,7.33,7.33Z" style="fill: #041e33"/>
        <rect x="670.77" y="88.08" width="4.34" height="4.34" style="fill: #041e33"/>
        <rect x="683.45" y="88.08" width="4.34" height="4.34" style="fill: #041e33"/>
        <rect x="696.12" y="88.08" width="4.34" height="4.34" style="fill: #041e33"/>
        <rect x="661" y="98.76" width="308" height="4.53" style="fill: #041e33"/>
      </g>
      <g>
        <rect x="632.84" y="59.49" width="360.5" height="254.5" rx="15.7" style="fill: none;stroke: #041e33;stroke-miterlimit: 10;stroke-width: 5px"/>
        <line x1="633.34" y1="276.49" x2="993.34" y2="276.49" style="fill: none;stroke: #041e33;stroke-miterlimit: 10;stroke-width: 5px"/>
        <g>
          <path d="M776.88,314v24.5s3.46,33-36.54,33c0,10,1,9,9,9h64" style="fill: none;stroke: #041e33;stroke-linejoin: round;stroke-width: 5px"/>
          <path d="M849.8,314v24.5s-3.46,33,36.54,33c0,10-1,9-9,9h-64" style="fill: none;stroke: #041e33;stroke-linejoin: round;stroke-width: 5px"/>
        </g>
      </g>
    </g>
  </g>
</svg>
