<svg id="Layer_1" data-name="Layer 1" xmlns="http://www.w3.org/2000/svg" xmlns:xlink="http://www.w3.org/1999/xlink" viewBox="0 0 1060 240">
  <defs>
    <clipPath id="clip-path">
      <path id="SVGID" d="M165.21,114c11-14.44,32.11-30.15,65-5.83,12.74,9.44,25.61,16.43,35.73,17.08a27.74,27.74,0,0,0,10-1.68s-.07,0,.06,0a24.26,24.26,0,0,0,11.78-8.33c12.76-17.63,12.95-45.1,32.64-54.94l-5.54-16.38L286.51,36,252,29.43l-38.2,8.22-30.4,19.71L167,84.06Z" style="fill: none"/>
    </clipPath>
    <clipPath id="clip-path-2">
      <path id="SVGID-2" data-name="SVGID" d="M177,163c6.48-14,26.1-43.92,67.78-16.33,49.43,32.72,62.75-30.33,63.82-35.42,5-23.65,14.11-33.86,21.12-38.27l11.43,36.94-2.88,35.32-9.86,19.31L314,183.05,286.1,207.28l-42.31,3.29-32.86-9.45-25.06-18.48Z" style="fill: none"/>
    </clipPath>
  </defs>
  <title>vertical-ness-city</title>
  <g id="logo-ness-health">
    <g>
      <g style="clip-path: url(#clip-path)">
        <g>
          <g>
            <g style="opacity: 0.17">
              <path d="M218.59,180.81c26.6,0,52.09-23.39,50.86-50.85S247.1,79.1,218.59,79.1c-26.6,0-52.09,23.39-50.86,50.86s22.35,50.85,50.86,50.85Z" style="fill: #029adc"/>
            </g>
            <g style="opacity: 0.17">
              <path d="M229.79,199.71c26.6,0,52.09-23.4,50.86-50.86S258.3,98,229.79,98c-26.6,0-52.09,23.39-50.86,50.86s22.35,50.86,50.86,50.86Z" style="fill: #029adc"/>
            </g>
            <g style="opacity: 0.17">
              <path d="M252.57,206.83c26.6,0,52.09-23.4,50.86-50.86s-22.35-50.86-50.86-50.86c-26.6,0-52.09,23.39-50.86,50.86s22.35,50.86,50.86,50.86Z" style="fill: #029adc"/>
            </g>
            <g style="opacity: 0.17">
              <path d="M266.81,204c26.6,0,52.09-23.39,50.86-50.86s-22.35-50.86-50.86-50.86c-26.6,0-52.09,23.39-50.86,50.86S238.3,204,266.81,204Z" style="fill: #029adc"/>
            </g>
            <g style="opacity: 0.17">
              <path d="M285.32,181.2c26.6,0,52.09-23.4,50.86-50.86s-22.35-50.86-50.86-50.86c-26.6,0-52.09,23.39-50.86,50.86s22.35,50.86,50.86,50.86Z" style="fill: #029adc"/>
            </g>
            <g style="opacity: 0.17">
              <path d="M285.32,162.69c26.6,0,52.09-23.4,50.86-50.86S313.83,61,285.32,61c-26.6,0-52.09,23.39-50.86,50.86s22.35,50.86,50.86,50.86Z" style="fill: #029adc"/>
            </g>
            <g style="opacity: 0.17">
              <path d="M269.66,144.18c26.6,0,52.08-23.4,50.85-50.86s-22.34-50.86-50.85-50.86c-26.61,0-52.09,23.39-50.86,50.86s22.35,50.86,50.86,50.86Z" style="fill: #029adc"/>
            </g>
            <g style="opacity: 0.17">
              <path d="M228.26,144c26.6,0,52.08-23.4,50.85-50.86s-22.34-50.86-50.85-50.86c-26.61,0-52.09,23.39-50.86,50.86S199.74,144,228.26,144Z" style="fill: #029adc"/>
            </g>
            <g style="opacity: 0.17">
              <path d="M249.72,135.06c26.61,0,52.09-23.39,50.86-50.86s-22.35-50.86-50.86-50.86c-26.6,0-52.08,23.4-50.85,50.86s22.34,50.86,50.85,50.86Z" style="fill: #029adc"/>
            </g>
            <g style="opacity: 0.17">
              <path d="M279.62,145.6c26.61,0,52.09-23.39,50.86-50.86s-22.34-50.85-50.86-50.85c-26.6,0-52.08,23.39-50.85,50.85s22.34,50.86,50.85,50.86Z" style="fill: #029adc"/>
            </g>
            <g style="opacity: 0.17">
              <path d="M219.25,156.8c26.6,0,52.09-23.39,50.86-50.86s-22.35-50.86-50.86-50.86c-26.6,0-52.09,23.4-50.86,50.86s22.35,50.86,50.86,50.86Z" style="fill: #029adc"/>
            </g>
          </g>
          <g>
            <g style="opacity: 0.17">
              <path d="M235.48,184c26.61,0,52.09-23.39,50.86-50.85S264,82.33,235.48,82.33c-26.6,0-52.08,23.39-50.85,50.86S207,184,235.48,184Z" style="fill: #029adc"/>
            </g>
            <g style="opacity: 0.17">
              <path d="M266.81,185.47c26.6,0,52.09-23.39,50.86-50.86s-22.35-50.86-50.86-50.86c-26.6,0-52.09,23.39-50.86,50.86s22.35,50.86,50.86,50.86Z" style="fill: #029adc"/>
            </g>
            <g style="opacity: 0.17">
              <path d="M273.93,165.53c26.6,0,52.09-23.39,50.86-50.85s-22.35-50.86-50.86-50.86c-26.6,0-52.09,23.39-50.86,50.86s22.35,50.85,50.86,50.85Z" style="fill: #029adc"/>
            </g>
            <g style="opacity: 0.17">
              <path d="M249.72,154.14c26.61,0,52.09-23.39,50.86-50.85s-22.35-50.86-50.86-50.86c-26.6,0-52.08,23.39-50.85,50.86s22.34,50.85,50.85,50.85Z" style="fill: #029adc"/>
            </g>
            <g style="opacity: 0.17">
              <path d="M232.64,162.69c26.6,0,52.08-23.4,50.85-50.86S261.15,61,232.64,61c-26.61,0-52.09,23.39-50.86,50.86s22.35,50.86,50.86,50.86Z" style="fill: #029adc"/>
            </g>
            <g style="opacity: 0.17">
              <path d="M222.67,175.5c26.6,0,52.09-23.39,50.86-50.86s-22.35-50.85-50.86-50.85c-26.6,0-52.09,23.39-50.86,50.85s22.35,50.86,50.86,50.86Z" style="fill: #029adc"/>
            </g>
            <g style="opacity: 0.17">
              <path d="M245.45,178.35c26.6,0,52.09-23.39,50.86-50.86S274,76.63,245.45,76.63c-26.6,0-52.09,23.4-50.86,50.86s22.35,50.86,50.86,50.86Z" style="fill: #029adc"/>
            </g>
            <g style="opacity: 0.17">
              <path d="M268.23,174.08c26.61,0,52.09-23.39,50.86-50.86s-22.35-50.86-50.86-50.86c-26.6,0-52.08,23.39-50.85,50.86s22.34,50.86,50.85,50.86Z" style="fill: #029adc"/>
            </g>
            <g style="opacity: 0.17">
              <path d="M265.39,155.57c26.6,0,52.08-23.39,50.85-50.86S293.9,53.85,265.39,53.85c-26.61,0-52.09,23.39-50.86,50.86s22.34,50.86,50.86,50.86Z" style="fill: #029adc"/>
            </g>
            <g style="opacity: 0.17">
              <path d="M235.48,161.26c26.61,0,52.09-23.39,50.86-50.85S264,59.55,235.48,59.55c-26.6,0-52.08,23.39-50.85,50.86s22.34,50.85,50.85,50.85Z" style="fill: #029adc"/>
            </g>
            <g style="opacity: 0.17">
              <path d="M249.61,189.55c26.61,0,52.09-23.39,50.86-50.86s-22.34-50.86-50.86-50.86c-26.6,0-52.08,23.39-50.85,50.86s22.34,50.86,50.85,50.86Z" style="fill: #029adc"/>
            </g>
          </g>
          <g>
            <g style="opacity: 0.17">
              <path d="M251.15,172.65c26.6,0,52.08-23.39,50.85-50.85s-22.34-50.86-50.85-50.86c-26.61,0-52.09,23.39-50.86,50.86s22.35,50.85,50.86,50.85Z" style="fill: #fff"/>
            </g>
            <g style="opacity: 0.17">
              <path d="M245.45,175.5c26.6,0,52.09-23.39,50.86-50.86S274,73.79,245.45,73.79c-26.6,0-52.09,23.39-50.86,50.85s22.35,50.86,50.86,50.86Z" style="fill: #fff"/>
            </g>
            <g style="opacity: 0.17">
              <path d="M264,179.77c26.6,0,52.09-23.39,50.86-50.86S292.47,78.06,264,78.06c-26.6,0-52.09,23.39-50.86,50.85s22.35,50.86,50.86,50.86Z" style="fill: #fff"/>
            </g>
            <g style="opacity: 0.17">
              <path d="M252.57,169.09c26.6,0,52.09-23.39,50.86-50.85s-22.35-50.86-50.86-50.86c-26.6,0-52.09,23.39-50.86,50.86s22.35,50.85,50.86,50.85Z" style="fill: #fff"/>
            </g>
          </g>
        </g>
      </g>
      <g style="clip-path: url(#clip-path-2)">
        <g>
          <g>
            <g style="opacity: 0.17">
              <path d="M218.59,180.81c26.6,0,52.09-23.39,50.86-50.85S247.1,79.1,218.59,79.1c-26.6,0-52.09,23.39-50.86,50.86s22.35,50.85,50.86,50.85Z" style="fill: #029adc"/>
            </g>
            <g style="opacity: 0.17">
              <path d="M229.79,199.71c26.6,0,52.09-23.4,50.86-50.86S258.3,98,229.79,98c-26.6,0-52.09,23.39-50.86,50.86s22.35,50.86,50.86,50.86Z" style="fill: #029adc"/>
            </g>
            <g style="opacity: 0.17">
              <path d="M252.57,206.83c26.6,0,52.09-23.4,50.86-50.86s-22.35-50.86-50.86-50.86c-26.6,0-52.09,23.39-50.86,50.86s22.35,50.86,50.86,50.86Z" style="fill: #029adc"/>
            </g>
            <g style="opacity: 0.17">
              <path d="M266.81,204c26.6,0,52.09-23.39,50.86-50.86s-22.35-50.86-50.86-50.86c-26.6,0-52.09,23.39-50.86,50.86S238.3,204,266.81,204Z" style="fill: #029adc"/>
            </g>
            <g style="opacity: 0.17">
              <path d="M285.32,181.2c26.6,0,52.09-23.4,50.86-50.86s-22.35-50.86-50.86-50.86c-26.6,0-52.09,23.39-50.86,50.86s22.35,50.86,50.86,50.86Z" style="fill: #029adc"/>
            </g>
            <g style="opacity: 0.17">
              <path d="M285.32,162.69c26.6,0,52.09-23.4,50.86-50.86S313.83,61,285.32,61c-26.6,0-52.09,23.39-50.86,50.86s22.35,50.86,50.86,50.86Z" style="fill: #029adc"/>
            </g>
            <g style="opacity: 0.17">
              <path d="M269.66,144.18c26.6,0,52.08-23.4,50.85-50.86s-22.34-50.86-50.85-50.86c-26.61,0-52.09,23.39-50.86,50.86s22.35,50.86,50.86,50.86Z" style="fill: #029adc"/>
            </g>
            <g style="opacity: 0.17">
              <path d="M228.26,144c26.6,0,52.08-23.4,50.85-50.86s-22.34-50.86-50.85-50.86c-26.61,0-52.09,23.39-50.86,50.86S199.74,144,228.26,144Z" style="fill: #029adc"/>
            </g>
            <g style="opacity: 0.17">
              <path d="M249.72,135.06c26.61,0,52.09-23.39,50.86-50.86s-22.35-50.86-50.86-50.86c-26.6,0-52.08,23.4-50.85,50.86s22.34,50.86,50.85,50.86Z" style="fill: #029adc"/>
            </g>
            <g style="opacity: 0.17">
              <path d="M279.62,145.6c26.61,0,52.09-23.39,50.86-50.86s-22.34-50.85-50.86-50.85c-26.6,0-52.08,23.39-50.85,50.85s22.34,50.86,50.85,50.86Z" style="fill: #029adc"/>
            </g>
            <g style="opacity: 0.17">
              <path d="M219.25,156.8c26.6,0,52.09-23.39,50.86-50.86s-22.35-50.86-50.86-50.86c-26.6,0-52.09,23.4-50.86,50.86s22.35,50.86,50.86,50.86Z" style="fill: #029adc"/>
            </g>
          </g>
          <g>
            <g style="opacity: 0.17">
              <path d="M235.48,184c26.61,0,52.09-23.39,50.86-50.85S264,82.33,235.48,82.33c-26.6,0-52.08,23.39-50.85,50.86S207,184,235.48,184Z" style="fill: #029adc"/>
            </g>
            <g style="opacity: 0.17">
              <path d="M266.81,185.47c26.6,0,52.09-23.39,50.86-50.86s-22.35-50.86-50.86-50.86c-26.6,0-52.09,23.39-50.86,50.86s22.35,50.86,50.86,50.86Z" style="fill: #029adc"/>
            </g>
            <g style="opacity: 0.17">
              <path d="M273.93,165.53c26.6,0,52.09-23.39,50.86-50.85s-22.35-50.86-50.86-50.86c-26.6,0-52.09,23.39-50.86,50.86s22.35,50.85,50.86,50.85Z" style="fill: #029adc"/>
            </g>
            <g style="opacity: 0.17">
              <path d="M249.72,154.14c26.61,0,52.09-23.39,50.86-50.85s-22.35-50.86-50.86-50.86c-26.6,0-52.08,23.39-50.85,50.86s22.34,50.85,50.85,50.85Z" style="fill: #029adc"/>
            </g>
            <g style="opacity: 0.17">
              <path d="M232.64,162.69c26.6,0,52.08-23.4,50.85-50.86S261.15,61,232.64,61c-26.61,0-52.09,23.39-50.86,50.86s22.35,50.86,50.86,50.86Z" style="fill: #029adc"/>
            </g>
            <g style="opacity: 0.17">
              <path d="M222.67,175.5c26.6,0,52.09-23.39,50.86-50.86s-22.35-50.85-50.86-50.85c-26.6,0-52.09,23.39-50.86,50.85s22.35,50.86,50.86,50.86Z" style="fill: #029adc"/>
            </g>
            <g style="opacity: 0.17">
              <path d="M245.45,178.35c26.6,0,52.09-23.39,50.86-50.86S274,76.63,245.45,76.63c-26.6,0-52.09,23.4-50.86,50.86s22.35,50.86,50.86,50.86Z" style="fill: #029adc"/>
            </g>
            <g style="opacity: 0.17">
              <path d="M268.23,174.08c26.61,0,52.09-23.39,50.86-50.86s-22.35-50.86-50.86-50.86c-26.6,0-52.08,23.39-50.85,50.86s22.34,50.86,50.85,50.86Z" style="fill: #029adc"/>
            </g>
            <g style="opacity: 0.17">
              <path d="M265.39,155.57c26.6,0,52.08-23.39,50.85-50.86S293.9,53.85,265.39,53.85c-26.61,0-52.09,23.39-50.86,50.86s22.34,50.86,50.86,50.86Z" style="fill: #029adc"/>
            </g>
            <g style="opacity: 0.17">
              <path d="M235.48,161.26c26.61,0,52.09-23.39,50.86-50.85S264,59.55,235.48,59.55c-26.6,0-52.08,23.39-50.85,50.86s22.34,50.85,50.85,50.85Z" style="fill: #029adc"/>
            </g>
            <g style="opacity: 0.17">
              <path d="M249.61,189.55c26.61,0,52.09-23.39,50.86-50.86s-22.34-50.86-50.86-50.86c-26.6,0-52.08,23.39-50.85,50.86s22.34,50.86,50.85,50.86Z" style="fill: #029adc"/>
            </g>
          </g>
          <g>
            <g style="opacity: 0.17">
              <path d="M251.15,172.65c26.6,0,52.08-23.39,50.85-50.85s-22.34-50.86-50.85-50.86c-26.61,0-52.09,23.39-50.86,50.86s22.35,50.85,50.86,50.85Z" style="fill: #fff"/>
            </g>
            <g style="opacity: 0.17">
              <path d="M245.45,175.5c26.6,0,52.09-23.39,50.86-50.86S274,73.79,245.45,73.79c-26.6,0-52.09,23.39-50.86,50.85s22.35,50.86,50.86,50.86Z" style="fill: #fff"/>
            </g>
            <g style="opacity: 0.17">
              <path d="M264,179.77c26.6,0,52.09-23.39,50.86-50.86S292.47,78.06,264,78.06c-26.6,0-52.09,23.39-50.86,50.85s22.35,50.86,50.86,50.86Z" style="fill: #fff"/>
            </g>
            <g style="opacity: 0.17">
              <path d="M252.57,169.09c26.6,0,52.09-23.39,50.86-50.85s-22.35-50.86-50.86-50.86c-26.6,0-52.09,23.39-50.86,50.86s22.35,50.85,50.86,50.85Z" style="fill: #fff"/>
            </g>
          </g>
        </g>
      </g>
    </g>
    <g>
      <path d="M430.75,132.6q-4.5-7.16-10.25-15.41t-11.91-16.48q-6.15-8.19-12.23-15.8T385,71.74H371.35v0h-8.57v6.54h3.67s4.18,1.12,4.9,4.76v80.35h16.41V97.81q5.55,6.61,11.7,14.88t12.11,17.06q6,8.81,11.51,17.47t10.05,16.2h14.16V71.74H430.75Z" style="fill: #fff"/>
      <polygon points="475.33 122.41 512.9 122.41 512.9 108.52 475.33 108.52 475.33 85.9 517.54 85.9 517.54 71.74 458.67 71.74 458.67 163.42 520.71 163.42 520.71 149.27 475.33 149.27 475.33 122.41" style="fill: #fff"/>
      <path d="M585.73,120.36a32.78,32.78,0,0,0-8.6-5.82q-5.1-2.45-11.57-4.83c-2.47-.88-4.75-1.81-6.82-2.78a31.73,31.73,0,0,1-5.42-3.17,13,13,0,0,1-3.57-3.9,10.31,10.31,0,0,1-1.26-5.23,9.16,9.16,0,0,1,3.77-7.81Q556,84,562.78,84.05a46,46,0,0,1,11,1.32,39.21,39.21,0,0,1,9.86,3.84l5.16-13.5a46.77,46.77,0,0,0-10.52-4.17A55.81,55.81,0,0,0,563,69.63q-14.81,0-23.41,7.07T531,96.22a23.1,23.1,0,0,0,2.05,10.18,23.42,23.42,0,0,0,5.42,7.28,30.69,30.69,0,0,0,7.81,5.09q4.43,2.06,9.19,3.77t8.47,3.24a33.54,33.54,0,0,1,6.28,3.58,14.56,14.56,0,0,1,4,4.3,11,11,0,0,1,1.39,5.68,10.07,10.07,0,0,1-4.1,8.6q-4.11,3-13.1,3.05a47.42,47.42,0,0,1-14.68-2,55.55,55.55,0,0,1-9.66-4l-4.89,13.63a37,37,0,0,0,4.23,2.05,55.65,55.65,0,0,0,6.28,2.18,66.86,66.86,0,0,0,8.34,1.79,68.69,68.69,0,0,0,10.38.73q16.94,0,25.73-6.82t8.8-19.25a29.44,29.44,0,0,0-1.85-11A22.85,22.85,0,0,0,585.73,120.36Z" style="fill: #fff"/>
      <path d="M662.52,128.3a22.83,22.83,0,0,0-5.35-7.94,32.78,32.78,0,0,0-8.6-5.82q-5.1-2.45-11.58-4.83-3.71-1.32-6.81-2.78a32.24,32.24,0,0,1-5.43-3.17,13.08,13.08,0,0,1-3.57-3.9,10.3,10.3,0,0,1-1.25-5.23,9.14,9.14,0,0,1,3.77-7.81q3.76-2.77,10.51-2.77a46,46,0,0,1,11,1.32,39.36,39.36,0,0,1,9.86,3.84l5.15-13.5a46.67,46.67,0,0,0-10.51-4.17,55.86,55.86,0,0,0-15.28-1.91q-14.82,0-23.42,7.07t-8.6,19.52a22.2,22.2,0,0,0,7.48,17.46,30.81,30.81,0,0,0,7.8,5.09q4.44,2.06,9.2,3.77c3.17,1.06,6,2.14,8.47,3.24a33.86,33.86,0,0,1,6.28,3.58,14.56,14.56,0,0,1,4,4.3,11.12,11.12,0,0,1,1.39,5.68,10.06,10.06,0,0,1-4.11,8.6q-4.1,3-13.09,3.05a47.37,47.37,0,0,1-14.68-2,55.55,55.55,0,0,1-9.66-4l-4.9,13.63a38.07,38.07,0,0,0,4.24,2.05,55,55,0,0,0,6.28,2.18,66.28,66.28,0,0,0,8.33,1.79,68.83,68.83,0,0,0,10.39.73q16.93,0,25.73-6.82t8.8-19.25A29.23,29.23,0,0,0,662.52,128.3Z" style="fill: #fff"/>
    </g>
    <g>
      <path d="M738.39,164.79a44.39,44.39,0,0,1-16.63-3A35.35,35.35,0,0,1,708.89,153a39.25,39.25,0,0,1-8.31-14.19,58.56,58.56,0,0,1-2.94-19.31A52.58,52.58,0,0,1,701,100.22,41.88,41.88,0,0,1,709.89,86,37.82,37.82,0,0,1,723,77.29a42.7,42.7,0,0,1,16-3,56.78,56.78,0,0,1,9.69.75,58.24,58.24,0,0,1,7.5,1.75,36,36,0,0,1,5.19,2c1.33.67,2.25,1.17,2.75,1.5l-3.5,10a20.15,20.15,0,0,0-3.25-1.63q-2.13-.87-4.81-1.75a44.79,44.79,0,0,0-5.88-1.44,37.42,37.42,0,0,0-6.44-.56,30.94,30.94,0,0,0-12.37,2.38,25.6,25.6,0,0,0-9.38,6.87,31,31,0,0,0-5.93,10.94,47.06,47.06,0,0,0-2.07,14.44,51.44,51.44,0,0,0,1.82,14.12,30.93,30.93,0,0,0,5.43,10.94,24.38,24.38,0,0,0,9.07,7.06,30,30,0,0,0,12.68,2.5,46.42,46.42,0,0,0,13.88-1.75,60.5,60.5,0,0,0,8.25-3.12l3.12,10a17.48,17.48,0,0,1-3.12,1.56,43.27,43.27,0,0,1-5.63,1.81,71.64,71.64,0,0,1-7.87,1.5A70.49,70.49,0,0,1,738.39,164.79Z" style="fill: #029adc"/>
      <path d="M778.24,86.16a7.45,7.45,0,0,1-5.31-2.06,8.17,8.17,0,0,1,0-11.13,7.87,7.87,0,0,1,10.62,0,8.17,8.17,0,0,1,0,11.13A7.48,7.48,0,0,1,778.24,86.16Zm5.87,76.75H772.49v-65h11.62Z" style="fill: #029adc"/>
      <path d="M808.47,97.91H833.1v9.75H808.47v30a36,36,0,0,0,.75,8.06,12,12,0,0,0,2.25,5,8.1,8.1,0,0,0,3.75,2.57,16.62,16.62,0,0,0,5.25.75,24.72,24.72,0,0,0,8.44-1.19q3.2-1.18,4.44-1.69l2.25,9.63a43.3,43.3,0,0,1-6.13,2.18,34.61,34.61,0,0,1-10,1.32,30.38,30.38,0,0,1-10.93-1.69,15.94,15.94,0,0,1-6.94-5.06,20.28,20.28,0,0,1-3.69-8.32,54.63,54.63,0,0,1-1.06-11.43v-58l11.62-2Z" style="fill: #029adc"/>
      <path d="M837.29,175a22,22,0,0,0,3.56,1.18,17,17,0,0,0,4.31.57q6.87,0,10.75-3.07t7-9.93q-7.87-15-14.69-31.82a276.2,276.2,0,0,1-11.31-34.06h12.5q1.38,5.63,3.31,12.13T857,123.41q2.37,6.89,5.12,13.75t5.75,13.25q4.76-13.12,8.25-26t6.63-26.5h12q-4.5,18.38-10,35.31t-11.88,31.69a67.37,67.37,0,0,1-5.19,9.69,29.28,29.28,0,0,1-5.93,6.69,21.64,21.64,0,0,1-7.32,3.87,31.31,31.31,0,0,1-9.18,1.25,22.32,22.32,0,0,1-2.88-.19c-1-.12-2-.29-2.94-.5a26.78,26.78,0,0,1-2.62-.68,12.21,12.21,0,0,1-1.69-.63Z" style="fill: #029adc"/>
    </g>
  </g>
</svg>
