<svg id="Layer_1" data-name="Layer 1" xmlns="http://www.w3.org/2000/svg" xmlns:xlink="http://www.w3.org/1999/xlink" viewBox="0 0 1060 240">
  <defs>
    <clipPath id="clip-path">
      <path id="SVGID" d="M162,114c11-14.44,32.11-30.15,65-5.83,12.74,9.44,25.61,16.43,35.73,17.08a27.74,27.74,0,0,0,10-1.68s-.07,0,.06,0a24.26,24.26,0,0,0,11.78-8.33c12.76-17.63,12.95-45.1,32.64-54.94l-5.54-16.38L283.29,36l-34.5-6.57-38.2,8.22-30.4,19.71-16.43,26.7Z" style="fill: none"/>
    </clipPath>
    <clipPath id="clip-path-2">
      <path id="SVGID-2" data-name="SVGID" d="M173.77,163c6.48-14,26.1-43.92,67.78-16.33,49.43,32.72,62.75-30.33,63.82-35.42,5-23.65,14.11-33.86,21.12-38.27l11.43,36.94L335,145.26l-9.86,19.31-14.37,18.48-27.93,24.23-42.31,3.29-32.86-9.45-25.05-18.48Z" style="fill: none"/>
    </clipPath>
  </defs>
  <title>vertical-ness-law</title>
  <g id="logo-ness-health">
    <g>
      <g style="clip-path: url(#clip-path)">
        <g>
          <g>
            <g style="opacity: 0.17">
              <path d="M215.37,180.81c26.6,0,52.09-23.39,50.86-50.85S243.88,79.1,215.37,79.1c-26.6,0-52.09,23.39-50.86,50.86s22.35,50.85,50.86,50.85Z" style="fill: #029adc"/>
            </g>
            <g style="opacity: 0.17">
              <path d="M226.57,199.71c26.6,0,52.09-23.4,50.86-50.86S255.08,98,226.57,98c-26.6,0-52.09,23.39-50.86,50.86s22.35,50.86,50.86,50.86Z" style="fill: #029adc"/>
            </g>
            <g style="opacity: 0.17">
              <path d="M249.35,206.83c26.6,0,52.09-23.4,50.86-50.86s-22.35-50.86-50.86-50.86c-26.6,0-52.09,23.39-50.86,50.86s22.35,50.86,50.86,50.86Z" style="fill: #029adc"/>
            </g>
            <g style="opacity: 0.17">
              <path d="M263.59,204c26.6,0,52.09-23.39,50.86-50.86s-22.35-50.86-50.86-50.86c-26.6,0-52.09,23.39-50.86,50.86S235.08,204,263.59,204Z" style="fill: #029adc"/>
            </g>
            <g style="opacity: 0.17">
              <path d="M282.1,181.2c26.6,0,52.09-23.4,50.86-50.86S310.61,79.48,282.1,79.48c-26.6,0-52.09,23.39-50.86,50.86s22.35,50.86,50.86,50.86Z" style="fill: #029adc"/>
            </g>
            <g style="opacity: 0.17">
              <path d="M282.1,162.69c26.6,0,52.09-23.4,50.86-50.86S310.61,61,282.1,61c-26.6,0-52.09,23.39-50.86,50.86s22.35,50.86,50.86,50.86Z" style="fill: #029adc"/>
            </g>
            <g style="opacity: 0.17">
              <path d="M266.44,144.18c26.6,0,52.09-23.4,50.85-50.86S295,42.46,266.44,42.46c-26.61,0-52.09,23.39-50.86,50.86s22.35,50.86,50.86,50.86Z" style="fill: #029adc"/>
            </g>
            <g style="opacity: 0.17">
              <path d="M225,144c26.6,0,52.09-23.4,50.85-50.86S253.55,42.27,225,42.27c-26.61,0-52.09,23.39-50.86,50.86S196.53,144,225,144Z" style="fill: #029adc"/>
            </g>
            <g style="opacity: 0.17">
              <path d="M246.5,135.06c26.61,0,52.09-23.39,50.86-50.86S275,33.34,246.5,33.34c-26.6,0-52.08,23.4-50.85,50.86S218,135.06,246.5,135.06Z" style="fill: #029adc"/>
            </g>
            <g style="opacity: 0.17">
              <path d="M276.4,145.6c26.61,0,52.09-23.39,50.86-50.86S304.92,43.89,276.4,43.89c-26.6,0-52.08,23.39-50.85,50.85s22.34,50.86,50.85,50.86Z" style="fill: #029adc"/>
            </g>
            <g style="opacity: 0.17">
              <path d="M216,156.8c26.6,0,52.09-23.39,50.86-50.86S244.54,55.08,216,55.08c-26.6,0-52.09,23.4-50.86,50.86S187.52,156.8,216,156.8Z" style="fill: #029adc"/>
            </g>
          </g>
          <g>
            <g style="opacity: 0.17">
              <path d="M232.27,184c26.6,0,52.08-23.39,50.85-50.85s-22.34-50.86-50.85-50.86c-26.61,0-52.09,23.39-50.86,50.86S203.75,184,232.27,184Z" style="fill: #029adc"/>
            </g>
            <g style="opacity: 0.17">
              <path d="M263.59,185.47c26.6,0,52.09-23.39,50.86-50.86S292.1,83.75,263.59,83.75c-26.6,0-52.09,23.39-50.86,50.86s22.35,50.86,50.86,50.86Z" style="fill: #029adc"/>
            </g>
            <g style="opacity: 0.17">
              <path d="M270.71,165.53c26.6,0,52.09-23.39,50.86-50.85s-22.35-50.86-50.86-50.86c-26.6,0-52.09,23.39-50.86,50.86s22.35,50.85,50.86,50.85Z" style="fill: #029adc"/>
            </g>
            <g style="opacity: 0.17">
              <path d="M246.5,154.14c26.61,0,52.09-23.39,50.86-50.85S275,52.43,246.5,52.43c-26.6,0-52.08,23.39-50.85,50.86S218,154.14,246.5,154.14Z" style="fill: #029adc"/>
            </g>
            <g style="opacity: 0.17">
              <path d="M229.42,162.69c26.6,0,52.09-23.4,50.86-50.86S257.93,61,229.42,61c-26.6,0-52.09,23.39-50.86,50.86s22.35,50.86,50.86,50.86Z" style="fill: #029adc"/>
            </g>
            <g style="opacity: 0.17">
              <path d="M219.45,175.5c26.6,0,52.09-23.39,50.86-50.86S248,73.79,219.45,73.79c-26.6,0-52.09,23.39-50.86,50.85s22.35,50.86,50.86,50.86Z" style="fill: #029adc"/>
            </g>
            <g style="opacity: 0.17">
              <path d="M242.23,178.35c26.6,0,52.09-23.39,50.86-50.86s-22.35-50.86-50.86-50.86c-26.6,0-52.09,23.4-50.86,50.86s22.35,50.86,50.86,50.86Z" style="fill: #029adc"/>
            </g>
            <g style="opacity: 0.17">
              <path d="M265,174.08c26.61,0,52.09-23.39,50.86-50.86S293.53,72.36,265,72.36c-26.6,0-52.08,23.39-50.85,50.86S236.5,174.08,265,174.08Z" style="fill: #029adc"/>
            </g>
            <g style="opacity: 0.17">
              <path d="M262.17,155.57c26.6,0,52.08-23.39,50.85-50.86s-22.34-50.86-50.85-50.86c-26.61,0-52.09,23.39-50.86,50.86s22.34,50.86,50.86,50.86Z" style="fill: #029adc"/>
            </g>
            <g style="opacity: 0.17">
              <path d="M232.27,161.26c26.6,0,52.08-23.39,50.85-50.85s-22.34-50.86-50.85-50.86c-26.61,0-52.09,23.39-50.86,50.86s22.34,50.85,50.86,50.85Z" style="fill: #029adc"/>
            </g>
            <g style="opacity: 0.17">
              <path d="M246.39,189.55c26.61,0,52.09-23.39,50.86-50.86s-22.34-50.86-50.86-50.86c-26.6,0-52.08,23.39-50.85,50.86s22.34,50.86,50.85,50.86Z" style="fill: #029adc"/>
            </g>
          </g>
          <g>
            <g style="opacity: 0.17">
              <path d="M247.93,172.65c26.6,0,52.09-23.39,50.86-50.85s-22.35-50.86-50.86-50.86c-26.6,0-52.09,23.39-50.86,50.86s22.35,50.85,50.86,50.85Z" style="fill: #fff"/>
            </g>
            <g style="opacity: 0.17">
              <path d="M242.23,175.5c26.6,0,52.09-23.39,50.86-50.86s-22.35-50.85-50.86-50.85c-26.6,0-52.09,23.39-50.86,50.85s22.35,50.86,50.86,50.86Z" style="fill: #fff"/>
            </g>
            <g style="opacity: 0.17">
              <path d="M260.74,179.77c26.6,0,52.09-23.39,50.86-50.86s-22.35-50.85-50.86-50.85c-26.6,0-52.09,23.39-50.86,50.85s22.35,50.86,50.86,50.86Z" style="fill: #fff"/>
            </g>
            <g style="opacity: 0.17">
              <path d="M249.35,169.09c26.6,0,52.09-23.39,50.86-50.85s-22.35-50.86-50.86-50.86c-26.6,0-52.09,23.39-50.86,50.86s22.35,50.85,50.86,50.85Z" style="fill: #fff"/>
            </g>
          </g>
        </g>
      </g>
      <g style="clip-path: url(#clip-path-2)">
        <g>
          <g>
            <g style="opacity: 0.17">
              <path d="M215.37,180.81c26.6,0,52.09-23.39,50.86-50.85S243.88,79.1,215.37,79.1c-26.6,0-52.09,23.39-50.86,50.86s22.35,50.85,50.86,50.85Z" style="fill: #029adc"/>
            </g>
            <g style="opacity: 0.17">
              <path d="M226.57,199.71c26.6,0,52.09-23.4,50.86-50.86S255.08,98,226.57,98c-26.6,0-52.09,23.39-50.86,50.86s22.35,50.86,50.86,50.86Z" style="fill: #029adc"/>
            </g>
            <g style="opacity: 0.17">
              <path d="M249.35,206.83c26.6,0,52.09-23.4,50.86-50.86s-22.35-50.86-50.86-50.86c-26.6,0-52.09,23.39-50.86,50.86s22.35,50.86,50.86,50.86Z" style="fill: #029adc"/>
            </g>
            <g style="opacity: 0.17">
              <path d="M263.59,204c26.6,0,52.09-23.39,50.86-50.86s-22.35-50.86-50.86-50.86c-26.6,0-52.09,23.39-50.86,50.86S235.08,204,263.59,204Z" style="fill: #029adc"/>
            </g>
            <g style="opacity: 0.17">
              <path d="M282.1,181.2c26.6,0,52.09-23.4,50.86-50.86S310.61,79.48,282.1,79.48c-26.6,0-52.09,23.39-50.86,50.86s22.35,50.86,50.86,50.86Z" style="fill: #029adc"/>
            </g>
            <g style="opacity: 0.17">
              <path d="M282.1,162.69c26.6,0,52.09-23.4,50.86-50.86S310.61,61,282.1,61c-26.6,0-52.09,23.39-50.86,50.86s22.35,50.86,50.86,50.86Z" style="fill: #029adc"/>
            </g>
            <g style="opacity: 0.17">
              <path d="M266.44,144.18c26.6,0,52.09-23.4,50.85-50.86S295,42.46,266.44,42.46c-26.61,0-52.09,23.39-50.86,50.86s22.35,50.86,50.86,50.86Z" style="fill: #029adc"/>
            </g>
            <g style="opacity: 0.17">
              <path d="M225,144c26.6,0,52.09-23.4,50.85-50.86S253.55,42.27,225,42.27c-26.61,0-52.09,23.39-50.86,50.86S196.53,144,225,144Z" style="fill: #029adc"/>
            </g>
            <g style="opacity: 0.17">
              <path d="M246.5,135.06c26.61,0,52.09-23.39,50.86-50.86S275,33.34,246.5,33.34c-26.6,0-52.08,23.4-50.85,50.86S218,135.06,246.5,135.06Z" style="fill: #029adc"/>
            </g>
            <g style="opacity: 0.17">
              <path d="M276.4,145.6c26.61,0,52.09-23.39,50.86-50.86S304.92,43.89,276.4,43.89c-26.6,0-52.08,23.39-50.85,50.85s22.34,50.86,50.85,50.86Z" style="fill: #029adc"/>
            </g>
            <g style="opacity: 0.17">
              <path d="M216,156.8c26.6,0,52.09-23.39,50.86-50.86S244.54,55.08,216,55.08c-26.6,0-52.09,23.4-50.86,50.86S187.52,156.8,216,156.8Z" style="fill: #029adc"/>
            </g>
          </g>
          <g>
            <g style="opacity: 0.17">
              <path d="M232.27,184c26.6,0,52.08-23.39,50.85-50.85s-22.34-50.86-50.85-50.86c-26.61,0-52.09,23.39-50.86,50.86S203.75,184,232.27,184Z" style="fill: #029adc"/>
            </g>
            <g style="opacity: 0.17">
              <path d="M263.59,185.47c26.6,0,52.09-23.39,50.86-50.86S292.1,83.75,263.59,83.75c-26.6,0-52.09,23.39-50.86,50.86s22.35,50.86,50.86,50.86Z" style="fill: #029adc"/>
            </g>
            <g style="opacity: 0.17">
              <path d="M270.71,165.53c26.6,0,52.09-23.39,50.86-50.85s-22.35-50.86-50.86-50.86c-26.6,0-52.09,23.39-50.86,50.86s22.35,50.85,50.86,50.85Z" style="fill: #029adc"/>
            </g>
            <g style="opacity: 0.17">
              <path d="M246.5,154.14c26.61,0,52.09-23.39,50.86-50.85S275,52.43,246.5,52.43c-26.6,0-52.08,23.39-50.85,50.86S218,154.14,246.5,154.14Z" style="fill: #029adc"/>
            </g>
            <g style="opacity: 0.17">
              <path d="M229.42,162.69c26.6,0,52.09-23.4,50.86-50.86S257.93,61,229.42,61c-26.6,0-52.09,23.39-50.86,50.86s22.35,50.86,50.86,50.86Z" style="fill: #029adc"/>
            </g>
            <g style="opacity: 0.17">
              <path d="M219.45,175.5c26.6,0,52.09-23.39,50.86-50.86S248,73.79,219.45,73.79c-26.6,0-52.09,23.39-50.86,50.85s22.35,50.86,50.86,50.86Z" style="fill: #029adc"/>
            </g>
            <g style="opacity: 0.17">
              <path d="M242.23,178.35c26.6,0,52.09-23.39,50.86-50.86s-22.35-50.86-50.86-50.86c-26.6,0-52.09,23.4-50.86,50.86s22.35,50.86,50.86,50.86Z" style="fill: #029adc"/>
            </g>
            <g style="opacity: 0.17">
              <path d="M265,174.08c26.61,0,52.09-23.39,50.86-50.86S293.53,72.36,265,72.36c-26.6,0-52.08,23.39-50.85,50.86S236.5,174.08,265,174.08Z" style="fill: #029adc"/>
            </g>
            <g style="opacity: 0.17">
              <path d="M262.17,155.57c26.6,0,52.08-23.39,50.85-50.86s-22.34-50.86-50.85-50.86c-26.61,0-52.09,23.39-50.86,50.86s22.34,50.86,50.86,50.86Z" style="fill: #029adc"/>
            </g>
            <g style="opacity: 0.17">
              <path d="M232.27,161.26c26.6,0,52.08-23.39,50.85-50.85s-22.34-50.86-50.85-50.86c-26.61,0-52.09,23.39-50.86,50.86s22.34,50.85,50.86,50.85Z" style="fill: #029adc"/>
            </g>
            <g style="opacity: 0.17">
              <path d="M246.39,189.55c26.61,0,52.09-23.39,50.86-50.86s-22.34-50.86-50.86-50.86c-26.6,0-52.08,23.39-50.85,50.86s22.34,50.86,50.85,50.86Z" style="fill: #029adc"/>
            </g>
          </g>
          <g>
            <g style="opacity: 0.17">
              <path d="M247.93,172.65c26.6,0,52.09-23.39,50.86-50.85s-22.35-50.86-50.86-50.86c-26.6,0-52.09,23.39-50.86,50.86s22.35,50.85,50.86,50.85Z" style="fill: #fff"/>
            </g>
            <g style="opacity: 0.17">
              <path d="M242.23,175.5c26.6,0,52.09-23.39,50.86-50.86s-22.35-50.85-50.86-50.85c-26.6,0-52.09,23.39-50.86,50.85s22.35,50.86,50.86,50.86Z" style="fill: #fff"/>
            </g>
            <g style="opacity: 0.17">
              <path d="M260.74,179.77c26.6,0,52.09-23.39,50.86-50.86s-22.35-50.85-50.86-50.85c-26.6,0-52.09,23.39-50.86,50.85s22.35,50.86,50.86,50.86Z" style="fill: #fff"/>
            </g>
            <g style="opacity: 0.17">
              <path d="M249.35,169.09c26.6,0,52.09-23.39,50.86-50.85s-22.35-50.86-50.86-50.86c-26.6,0-52.09,23.39-50.86,50.86s22.35,50.85,50.86,50.85Z" style="fill: #fff"/>
            </g>
          </g>
        </g>
      </g>
    </g>
    <g>
      <path d="M427.53,132.6q-4.5-7.16-10.25-15.41t-11.9-16.48q-6.17-8.19-12.24-15.8T381.76,71.74H368.13v0h-8.57v6.54h3.67s4.19,1.12,4.9,4.76v80.35h16.41V97.81q5.55,6.61,11.71,14.88t12.1,17.06q6,8.81,11.51,17.47t10.06,16.2h14.15V71.74H427.53Z" style="fill: #fff"/>
      <polygon points="472.12 122.41 509.69 122.41 509.69 108.52 472.12 108.52 472.12 85.9 514.32 85.9 514.32 71.74 455.44 71.74 455.44 163.42 517.49 163.42 517.49 149.27 472.12 149.27 472.12 122.41" style="fill: #fff"/>
      <path d="M582.51,120.36a32.61,32.61,0,0,0-8.6-5.82q-5.08-2.45-11.57-4.83c-2.47-.88-4.75-1.81-6.82-2.78a31.73,31.73,0,0,1-5.42-3.17,13,13,0,0,1-3.57-3.9,10.31,10.31,0,0,1-1.26-5.23A9.16,9.16,0,0,1,549,86.82q3.78-2.77,10.52-2.77a46,46,0,0,1,11,1.32,39.21,39.21,0,0,1,9.86,3.84l5.16-13.5a46.77,46.77,0,0,0-10.52-4.17,55.81,55.81,0,0,0-15.28-1.91q-14.8,0-23.41,7.07t-8.6,19.52a23.1,23.1,0,0,0,2.05,10.18,23.42,23.42,0,0,0,5.42,7.28,30.69,30.69,0,0,0,7.81,5.09q4.42,2.06,9.19,3.77t8.47,3.24a33.54,33.54,0,0,1,6.28,3.58,14.43,14.43,0,0,1,4,4.3,11,11,0,0,1,1.39,5.68,10.07,10.07,0,0,1-4.1,8.6q-4.11,3-13.1,3.05a47.42,47.42,0,0,1-14.68-2,55.55,55.55,0,0,1-9.66-4L526,158.66a37.8,37.8,0,0,0,4.23,2.05,55.65,55.65,0,0,0,6.28,2.18,66.86,66.86,0,0,0,8.34,1.79,68.69,68.69,0,0,0,10.38.73q16.93,0,25.73-6.82t8.8-19.25a29.44,29.44,0,0,0-1.85-11A22.85,22.85,0,0,0,582.51,120.36Z" style="fill: #fff"/>
      <path d="M659.31,128.3a23,23,0,0,0-5.36-7.94,32.78,32.78,0,0,0-8.6-5.82q-5.1-2.45-11.58-4.83-3.71-1.32-6.81-2.78a31.73,31.73,0,0,1-5.42-3.17,13,13,0,0,1-3.58-3.9,10.3,10.3,0,0,1-1.25-5.23,9.14,9.14,0,0,1,3.77-7.81Q624.25,84,631,84.05a46,46,0,0,1,11,1.32,39.36,39.36,0,0,1,9.86,3.84l5.16-13.5a47,47,0,0,0-10.52-4.17,55.81,55.81,0,0,0-15.28-1.91q-14.82,0-23.42,7.07t-8.59,19.52a22.15,22.15,0,0,0,7.47,17.46,30.81,30.81,0,0,0,7.8,5.09q4.44,2.06,9.2,3.77c3.17,1.06,6,2.14,8.47,3.24a33.86,33.86,0,0,1,6.28,3.58,14.56,14.56,0,0,1,4,4.3,11.12,11.12,0,0,1,1.39,5.68,10.07,10.07,0,0,1-4.1,8.6q-4.11,3-13.1,3.05A47.42,47.42,0,0,1,612,149a55.55,55.55,0,0,1-9.66-4l-4.9,13.63a38.07,38.07,0,0,0,4.24,2.05,55,55,0,0,0,6.28,2.18,66.28,66.28,0,0,0,8.33,1.79,68.83,68.83,0,0,0,10.39.73q16.93,0,25.73-6.82t8.8-19.25A29.44,29.44,0,0,0,659.31,128.3Z" style="fill: #fff"/>
    </g>
    <g>
      <path d="M776.27,97.41a33.67,33.67,0,0,1,11.81,1.81,19.24,19.24,0,0,1,7.75,5.12,19.51,19.51,0,0,1,4.19,7.88,38.12,38.12,0,0,1,1.25,10.06v40.63l-4.19.68q-2.69.45-6.06.82c-2.25.25-4.69.47-7.31.68s-5.23.32-7.82.32a42.78,42.78,0,0,1-10.12-1.13,22.68,22.68,0,0,1-8-3.56,16.33,16.33,0,0,1-5.25-6.44,22.52,22.52,0,0,1-1.88-9.62,18.48,18.48,0,0,1,2.19-9.25,17.37,17.37,0,0,1,5.94-6.25,27.28,27.28,0,0,1,8.75-3.5,47.67,47.67,0,0,1,10.5-1.13,35,35,0,0,1,3.62.19c1.25.12,2.44.29,3.57.5s2.1.39,2.93.56,1.42.29,1.75.38v-3.25a26.52,26.52,0,0,0-.62-5.69,13.09,13.09,0,0,0-2.25-5,11.35,11.35,0,0,0-4.44-3.5,17.3,17.3,0,0,0-7.31-1.31,55,55,0,0,0-10.06.81,34.26,34.26,0,0,0-6.44,1.69l-1.38-9.63a35.89,35.89,0,0,1,7.5-1.94A65.29,65.29,0,0,1,776.27,97.41Zm1,58.25c2.75,0,5.19-.07,7.31-.19a32.58,32.58,0,0,0,5.31-.69V135.41a14.92,14.92,0,0,0-4.06-1.07,45.49,45.49,0,0,0-6.81-.43,43.83,43.83,0,0,0-5.56.37,17.24,17.24,0,0,0-5.38,1.56,11.67,11.67,0,0,0-4.06,3.25,8.51,8.51,0,0,0-1.63,5.44q0,6.25,4,8.69T777.27,155.66Z" style="fill: #029adc"/>
      <path d="M866.26,164q-3.51-9-7.44-20.56t-7.19-24.06q-3.25,12.5-7.12,24.06T837.13,164H827q-5.76-12.87-11.25-29.37T805.38,99h12.5q1.25,5.88,3,12.75c1.17,4.58,2.39,9.17,3.69,13.75s2.64,9,4.06,13.25,2.75,8,4,11.13q2.13-5.88,4.19-12.44t3.94-13.25q1.88-6.69,3.56-13.13T847.26,99h9.62q1.13,5.63,2.75,12.06t3.5,13.13q1.88,6.69,3.94,13.25t4.19,12.44q1.88-4.75,3.93-11.13t4.07-13.25q2-6.87,3.75-13.75T886,99h12q-4.87,19.13-10.38,35.63T876.38,164Z" style="fill: #029adc"/>
      <polygon points="706.54 153.53 706.54 69.37 694.42 71.64 694.42 164.03 746.54 164.03 746.54 153.53 706.54 153.53" style="fill: #029adc"/>
    </g>
  </g>
</svg>
