<svg id="Layer_1" data-name="Layer 1" xmlns="http://www.w3.org/2000/svg" xmlns:xlink="http://www.w3.org/1999/xlink" viewBox="0 0 1060 240">
  <defs>
    <clipPath id="clip-path">
      <path id="SVGID" d="M57.18,114c11-14.44,32.1-30.15,64.95-5.83,12.75,9.44,25.61,16.43,35.74,17.08a27.82,27.82,0,0,0,10-1.68s-.08,0,.05,0a24.21,24.21,0,0,0,11.78-8.33c12.77-17.63,12.95-45.1,32.65-54.94l-5.54-16.38L178.47,36,144,29.43l-38.2,8.22L75.38,57.36,59,84.06Z" style="fill: none"/>
    </clipPath>
    <clipPath id="clip-path-2">
      <path id="SVGID-2" data-name="SVGID" d="M69,163c6.47-14,26.09-43.92,67.78-16.33,49.43,32.72,62.74-30.33,63.82-35.42,5-23.65,14.1-33.86,21.11-38.27l11.43,36.94-2.87,35.32-9.86,19.31L206,183.05l-27.93,24.23-42.31,3.29-32.85-9.45L77.84,182.64Z" style="fill: none"/>
    </clipPath>
  </defs>
  <title>vertical-ness-security</title>
  <g id="logo-ness-health">
    <g>
      <g style="clip-path: url(#clip-path)">
        <g>
          <g>
            <g style="opacity: 0.17">
              <path d="M110.56,180.81c26.6,0,52.08-23.39,50.85-50.85S139.07,79.1,110.56,79.1C84,79.1,58.47,102.49,59.7,130S82,180.81,110.56,180.81Z" style="fill: #029adc"/>
            </g>
            <g style="opacity: 0.17">
              <path d="M121.75,199.71c26.61,0,52.09-23.4,50.86-50.86S150.27,98,121.75,98c-26.6,0-52.08,23.39-50.85,50.86s22.34,50.86,50.85,50.86Z" style="fill: #029adc"/>
            </g>
            <g style="opacity: 0.17">
              <path d="M144.54,206.83c26.6,0,52.08-23.4,50.85-50.86s-22.34-50.86-50.85-50.86c-26.61,0-52.09,23.39-50.86,50.86s22.34,50.86,50.86,50.86Z" style="fill: #029adc"/>
            </g>
            <g style="opacity: 0.17">
              <path d="M158.77,204c26.61,0,52.09-23.39,50.86-50.86s-22.34-50.86-50.86-50.86c-26.6,0-52.08,23.39-50.85,50.86S130.26,204,158.77,204Z" style="fill: #029adc"/>
            </g>
            <g style="opacity: 0.17">
              <path d="M177.28,181.2c26.61,0,52.09-23.4,50.86-50.86S205.8,79.48,177.28,79.48c-26.6,0-52.08,23.39-50.85,50.86s22.34,50.86,50.85,50.86Z" style="fill: #029adc"/>
            </g>
            <g style="opacity: 0.17">
              <path d="M177.28,162.69c26.61,0,52.09-23.4,50.86-50.86S205.8,61,177.28,61c-26.6,0-52.08,23.39-50.85,50.86s22.34,50.86,50.85,50.86Z" style="fill: #029adc"/>
            </g>
            <g style="opacity: 0.17">
              <path d="M161.62,144.18c26.6,0,52.09-23.4,50.86-50.86s-22.35-50.86-50.86-50.86c-26.6,0-52.09,23.39-50.86,50.86s22.35,50.86,50.86,50.86Z" style="fill: #029adc"/>
            </g>
            <g style="opacity: 0.17">
              <path d="M120.22,144c26.6,0,52.09-23.4,50.86-50.86s-22.35-50.86-50.86-50.86c-26.6,0-52.09,23.39-50.86,50.86S91.71,144,120.22,144Z" style="fill: #029adc"/>
            </g>
            <g style="opacity: 0.17">
              <path d="M141.69,135.06c26.6,0,52.09-23.39,50.86-50.86S170.2,33.34,141.69,33.34c-26.6,0-52.09,23.4-50.86,50.86s22.35,50.86,50.86,50.86Z" style="fill: #029adc"/>
            </g>
            <g style="opacity: 0.17">
              <path d="M171.59,145.6c26.6,0,52.09-23.39,50.86-50.86S200.1,43.89,171.59,43.89c-26.6,0-52.09,23.39-50.86,50.85s22.35,50.86,50.86,50.86Z" style="fill: #029adc"/>
            </g>
            <g style="opacity: 0.17">
              <path d="M111.21,156.8c26.6,0,52.09-23.39,50.86-50.86s-22.35-50.86-50.86-50.86c-26.6,0-52.09,23.4-50.86,50.86S82.7,156.8,111.21,156.8Z" style="fill: #029adc"/>
            </g>
          </g>
          <g>
            <g style="opacity: 0.17">
              <path d="M127.45,184c26.6,0,52.09-23.39,50.86-50.85S156,82.33,127.45,82.33c-26.6,0-52.09,23.39-50.86,50.86S98.94,184,127.45,184Z" style="fill: #029adc"/>
            </g>
            <g style="opacity: 0.17">
              <path d="M158.77,185.47c26.61,0,52.09-23.39,50.86-50.86s-22.34-50.86-50.86-50.86c-26.6,0-52.08,23.39-50.85,50.86s22.34,50.86,50.85,50.86Z" style="fill: #029adc"/>
            </g>
            <g style="opacity: 0.17">
              <path d="M165.89,165.53c26.61,0,52.09-23.39,50.86-50.85S194.4,63.82,165.89,63.82c-26.6,0-52.08,23.39-50.85,50.86s22.34,50.85,50.85,50.85Z" style="fill: #029adc"/>
            </g>
            <g style="opacity: 0.17">
              <path d="M141.69,154.14c26.6,0,52.09-23.39,50.86-50.85S170.2,52.43,141.69,52.43c-26.6,0-52.09,23.39-50.86,50.86s22.35,50.85,50.86,50.85Z" style="fill: #029adc"/>
            </g>
            <g style="opacity: 0.17">
              <path d="M124.6,162.69c26.6,0,52.09-23.4,50.86-50.86S153.11,61,124.6,61C98,61,72.51,84.36,73.74,111.83s22.35,50.86,50.86,50.86Z" style="fill: #029adc"/>
            </g>
            <g style="opacity: 0.17">
              <path d="M114.63,175.5c26.61,0,52.09-23.39,50.86-50.86s-22.34-50.85-50.86-50.85c-26.6,0-52.08,23.39-50.85,50.85s22.34,50.86,50.85,50.86Z" style="fill: #029adc"/>
            </g>
            <g style="opacity: 0.17">
              <path d="M137.42,178.35c26.6,0,52.08-23.39,50.85-50.86s-22.34-50.86-50.85-50.86c-26.61,0-52.09,23.4-50.86,50.86s22.34,50.86,50.86,50.86Z" style="fill: #029adc"/>
            </g>
            <g style="opacity: 0.17">
              <path d="M160.2,174.08c26.6,0,52.09-23.39,50.86-50.86S188.71,72.36,160.2,72.36c-26.6,0-52.09,23.39-50.86,50.86s22.35,50.86,50.86,50.86Z" style="fill: #029adc"/>
            </g>
            <g style="opacity: 0.17">
              <path d="M157.35,155.57c26.6,0,52.09-23.39,50.86-50.86s-22.35-50.86-50.86-50.86c-26.6,0-52.09,23.39-50.86,50.86s22.35,50.86,50.86,50.86Z" style="fill: #029adc"/>
            </g>
            <g style="opacity: 0.17">
              <path d="M127.45,161.26c26.6,0,52.09-23.39,50.86-50.85S156,59.55,127.45,59.55c-26.6,0-52.09,23.39-50.86,50.86s22.35,50.85,50.86,50.85Z" style="fill: #029adc"/>
            </g>
            <g style="opacity: 0.17">
              <path d="M141.58,189.55c26.6,0,52.09-23.39,50.86-50.86s-22.35-50.86-50.86-50.86c-26.6,0-52.09,23.39-50.86,50.86s22.35,50.86,50.86,50.86Z" style="fill: #029adc"/>
            </g>
          </g>
          <g>
            <g style="opacity: 0.17">
              <path d="M143.11,172.65c26.6,0,52.09-23.39,50.86-50.85s-22.35-50.86-50.86-50.86c-26.6,0-52.09,23.39-50.86,50.86s22.35,50.85,50.86,50.85Z" style="fill: #fff"/>
            </g>
            <g style="opacity: 0.17">
              <path d="M137.42,175.5c26.6,0,52.08-23.39,50.85-50.86s-22.34-50.85-50.85-50.85c-26.61,0-52.09,23.39-50.86,50.85s22.34,50.86,50.86,50.86Z" style="fill: #fff"/>
            </g>
            <g style="opacity: 0.17">
              <path d="M155.93,179.77c26.6,0,52.08-23.39,50.85-50.86s-22.34-50.85-50.85-50.85c-26.61,0-52.09,23.39-50.86,50.85s22.34,50.86,50.86,50.86Z" style="fill: #fff"/>
            </g>
            <g style="opacity: 0.17">
              <path d="M144.54,169.09c26.6,0,52.08-23.39,50.85-50.85s-22.34-50.86-50.85-50.86c-26.61,0-52.09,23.39-50.86,50.86s22.34,50.85,50.86,50.85Z" style="fill: #fff"/>
            </g>
          </g>
        </g>
      </g>
      <g style="clip-path: url(#clip-path-2)">
        <g>
          <g>
            <g style="opacity: 0.17">
              <path d="M110.56,180.81c26.6,0,52.08-23.39,50.85-50.85S139.07,79.1,110.56,79.1C84,79.1,58.47,102.49,59.7,130S82,180.81,110.56,180.81Z" style="fill: #029adc"/>
            </g>
            <g style="opacity: 0.17">
              <path d="M121.75,199.71c26.61,0,52.09-23.4,50.86-50.86S150.27,98,121.75,98c-26.6,0-52.08,23.39-50.85,50.86s22.34,50.86,50.85,50.86Z" style="fill: #029adc"/>
            </g>
            <g style="opacity: 0.17">
              <path d="M144.54,206.83c26.6,0,52.08-23.4,50.85-50.86s-22.34-50.86-50.85-50.86c-26.61,0-52.09,23.39-50.86,50.86s22.34,50.86,50.86,50.86Z" style="fill: #029adc"/>
            </g>
            <g style="opacity: 0.17">
              <path d="M158.77,204c26.61,0,52.09-23.39,50.86-50.86s-22.34-50.86-50.86-50.86c-26.6,0-52.08,23.39-50.85,50.86S130.26,204,158.77,204Z" style="fill: #029adc"/>
            </g>
            <g style="opacity: 0.17">
              <path d="M177.28,181.2c26.61,0,52.09-23.4,50.86-50.86S205.8,79.48,177.28,79.48c-26.6,0-52.08,23.39-50.85,50.86s22.34,50.86,50.85,50.86Z" style="fill: #029adc"/>
            </g>
            <g style="opacity: 0.17">
              <path d="M177.28,162.69c26.61,0,52.09-23.4,50.86-50.86S205.8,61,177.28,61c-26.6,0-52.08,23.39-50.85,50.86s22.34,50.86,50.85,50.86Z" style="fill: #029adc"/>
            </g>
            <g style="opacity: 0.17">
              <path d="M161.62,144.18c26.6,0,52.09-23.4,50.86-50.86s-22.35-50.86-50.86-50.86c-26.6,0-52.09,23.39-50.86,50.86s22.35,50.86,50.86,50.86Z" style="fill: #029adc"/>
            </g>
            <g style="opacity: 0.17">
              <path d="M120.22,144c26.6,0,52.09-23.4,50.86-50.86s-22.35-50.86-50.86-50.86c-26.6,0-52.09,23.39-50.86,50.86S91.71,144,120.22,144Z" style="fill: #029adc"/>
            </g>
            <g style="opacity: 0.17">
              <path d="M141.69,135.06c26.6,0,52.09-23.39,50.86-50.86S170.2,33.34,141.69,33.34c-26.6,0-52.09,23.4-50.86,50.86s22.35,50.86,50.86,50.86Z" style="fill: #029adc"/>
            </g>
            <g style="opacity: 0.17">
              <path d="M171.59,145.6c26.6,0,52.09-23.39,50.86-50.86S200.1,43.89,171.59,43.89c-26.6,0-52.09,23.39-50.86,50.85s22.35,50.86,50.86,50.86Z" style="fill: #029adc"/>
            </g>
            <g style="opacity: 0.17">
              <path d="M111.21,156.8c26.6,0,52.09-23.39,50.86-50.86s-22.35-50.86-50.86-50.86c-26.6,0-52.09,23.4-50.86,50.86S82.7,156.8,111.21,156.8Z" style="fill: #029adc"/>
            </g>
          </g>
          <g>
            <g style="opacity: 0.17">
              <path d="M127.45,184c26.6,0,52.09-23.39,50.86-50.85S156,82.33,127.45,82.33c-26.6,0-52.09,23.39-50.86,50.86S98.94,184,127.45,184Z" style="fill: #029adc"/>
            </g>
            <g style="opacity: 0.17">
              <path d="M158.77,185.47c26.61,0,52.09-23.39,50.86-50.86s-22.34-50.86-50.86-50.86c-26.6,0-52.08,23.39-50.85,50.86s22.34,50.86,50.85,50.86Z" style="fill: #029adc"/>
            </g>
            <g style="opacity: 0.17">
              <path d="M165.89,165.53c26.61,0,52.09-23.39,50.86-50.85S194.4,63.82,165.89,63.82c-26.6,0-52.08,23.39-50.85,50.86s22.34,50.85,50.85,50.85Z" style="fill: #029adc"/>
            </g>
            <g style="opacity: 0.17">
              <path d="M141.69,154.14c26.6,0,52.09-23.39,50.86-50.85S170.2,52.43,141.69,52.43c-26.6,0-52.09,23.39-50.86,50.86s22.35,50.85,50.86,50.85Z" style="fill: #029adc"/>
            </g>
            <g style="opacity: 0.17">
              <path d="M124.6,162.69c26.6,0,52.09-23.4,50.86-50.86S153.11,61,124.6,61C98,61,72.51,84.36,73.74,111.83s22.35,50.86,50.86,50.86Z" style="fill: #029adc"/>
            </g>
            <g style="opacity: 0.17">
              <path d="M114.63,175.5c26.61,0,52.09-23.39,50.86-50.86s-22.34-50.85-50.86-50.85c-26.6,0-52.08,23.39-50.85,50.85s22.34,50.86,50.85,50.86Z" style="fill: #029adc"/>
            </g>
            <g style="opacity: 0.17">
              <path d="M137.42,178.35c26.6,0,52.08-23.39,50.85-50.86s-22.34-50.86-50.85-50.86c-26.61,0-52.09,23.4-50.86,50.86s22.34,50.86,50.86,50.86Z" style="fill: #029adc"/>
            </g>
            <g style="opacity: 0.17">
              <path d="M160.2,174.08c26.6,0,52.09-23.39,50.86-50.86S188.71,72.36,160.2,72.36c-26.6,0-52.09,23.39-50.86,50.86s22.35,50.86,50.86,50.86Z" style="fill: #029adc"/>
            </g>
            <g style="opacity: 0.17">
              <path d="M157.35,155.57c26.6,0,52.09-23.39,50.86-50.86s-22.35-50.86-50.86-50.86c-26.6,0-52.09,23.39-50.86,50.86s22.35,50.86,50.86,50.86Z" style="fill: #029adc"/>
            </g>
            <g style="opacity: 0.17">
              <path d="M127.45,161.26c26.6,0,52.09-23.39,50.86-50.85S156,59.55,127.45,59.55c-26.6,0-52.09,23.39-50.86,50.86s22.35,50.85,50.86,50.85Z" style="fill: #029adc"/>
            </g>
            <g style="opacity: 0.17">
              <path d="M141.58,189.55c26.6,0,52.09-23.39,50.86-50.86s-22.35-50.86-50.86-50.86c-26.6,0-52.09,23.39-50.86,50.86s22.35,50.86,50.86,50.86Z" style="fill: #029adc"/>
            </g>
          </g>
          <g>
            <g style="opacity: 0.17">
              <path d="M143.11,172.65c26.6,0,52.09-23.39,50.86-50.85s-22.35-50.86-50.86-50.86c-26.6,0-52.09,23.39-50.86,50.86s22.35,50.85,50.86,50.85Z" style="fill: #fff"/>
            </g>
            <g style="opacity: 0.17">
              <path d="M137.42,175.5c26.6,0,52.08-23.39,50.85-50.86s-22.34-50.85-50.85-50.85c-26.61,0-52.09,23.39-50.86,50.85s22.34,50.86,50.86,50.86Z" style="fill: #fff"/>
            </g>
            <g style="opacity: 0.17">
              <path d="M155.93,179.77c26.6,0,52.08-23.39,50.85-50.86s-22.34-50.85-50.85-50.85c-26.61,0-52.09,23.39-50.86,50.85s22.34,50.86,50.86,50.86Z" style="fill: #fff"/>
            </g>
            <g style="opacity: 0.17">
              <path d="M144.54,169.09c26.6,0,52.08-23.39,50.85-50.85s-22.34-50.86-50.85-50.86c-26.61,0-52.09,23.39-50.86,50.86s22.34,50.85,50.86,50.85Z" style="fill: #fff"/>
            </g>
          </g>
        </g>
      </g>
    </g>
    <g>
      <path d="M322.72,132.6q-4.5-7.16-10.25-15.41t-11.91-16.48q-6.15-8.19-12.24-15.8T277,71.74H263.32v0h-8.58v6.54h3.68s4.18,1.12,4.9,4.76v80.35h16.4V97.81q5.56,6.61,11.71,14.88t12.11,17.06q5.94,8.81,11.5,17.47t10.06,16.2h14.15V71.74H322.72Z" style="fill: #fff"/>
      <polygon points="367.3 122.41 404.87 122.41 404.87 108.52 367.3 108.52 367.3 85.9 409.5 85.9 409.5 71.74 350.63 71.74 350.63 163.42 412.68 163.42 412.68 149.27 367.3 149.27 367.3 122.41" style="fill: #fff"/>
      <path d="M477.7,120.36a32.78,32.78,0,0,0-8.6-5.82q-5.1-2.45-11.58-4.83-3.7-1.32-6.81-2.78a31.84,31.84,0,0,1-5.43-3.17,13.08,13.08,0,0,1-3.57-3.9,10.3,10.3,0,0,1-1.25-5.23,9.14,9.14,0,0,1,3.77-7.81Q448,84,454.74,84.05a46,46,0,0,1,11.05,1.32,39.36,39.36,0,0,1,9.86,3.84l5.15-13.5a46.86,46.86,0,0,0-10.51-4.17A55.86,55.86,0,0,0,455,69.63q-14.82,0-23.42,7.07T423,96.22a22.2,22.2,0,0,0,7.48,17.46,30.81,30.81,0,0,0,7.8,5.09q4.44,2.06,9.2,3.77t8.46,3.24a33.64,33.64,0,0,1,6.29,3.58,14.56,14.56,0,0,1,4,4.3,11.12,11.12,0,0,1,1.39,5.68,10.06,10.06,0,0,1-4.11,8.6q-4.1,3-13.09,3.05a47.48,47.48,0,0,1-14.69-2,56.22,56.22,0,0,1-9.66-4l-4.89,13.63a38.68,38.68,0,0,0,4.23,2.05,55.88,55.88,0,0,0,6.29,2.18,66.28,66.28,0,0,0,8.33,1.79,68.73,68.73,0,0,0,10.39.73q16.94,0,25.73-6.82t8.8-19.25a29.23,29.23,0,0,0-1.86-11A22.83,22.83,0,0,0,477.7,120.36Z" style="fill: #fff"/>
      <path d="M554.49,128.3a22.85,22.85,0,0,0-5.36-7.94,32.61,32.61,0,0,0-8.6-5.82q-5.09-2.45-11.57-4.83c-2.47-.88-4.75-1.81-6.81-2.78a31.46,31.46,0,0,1-5.43-3.17,13,13,0,0,1-3.57-3.9,10.31,10.31,0,0,1-1.26-5.23,9.16,9.16,0,0,1,3.77-7.81q3.78-2.77,10.52-2.77a46,46,0,0,1,11,1.32,39.21,39.21,0,0,1,9.86,3.84l5.16-13.5a46.77,46.77,0,0,0-10.52-4.17,55.81,55.81,0,0,0-15.28-1.91q-14.81,0-23.41,7.07t-8.6,19.52a23.1,23.1,0,0,0,2.05,10.18,23.42,23.42,0,0,0,5.42,7.28,30.69,30.69,0,0,0,7.81,5.09q4.43,2.06,9.19,3.77t8.47,3.24a33.54,33.54,0,0,1,6.28,3.58,14.43,14.43,0,0,1,4,4.3,11,11,0,0,1,1.39,5.68,10.07,10.07,0,0,1-4.1,8.6q-4.11,3-13.1,3.05a47.46,47.46,0,0,1-14.68-2,55.55,55.55,0,0,1-9.66-4l-4.89,13.63a37.8,37.8,0,0,0,4.23,2.05,55.65,55.65,0,0,0,6.28,2.18,66.86,66.86,0,0,0,8.34,1.79,68.69,68.69,0,0,0,10.38.73q16.94,0,25.73-6.82t8.8-19.25A29.44,29.44,0,0,0,554.49,128.3Z" style="fill: #fff"/>
    </g>
    <g>
      <path d="M616.35,154.29q19,0,19-13a13.09,13.09,0,0,0-1.68-6.82,16.36,16.36,0,0,0-4.57-4.87,31.22,31.22,0,0,0-6.56-3.56q-3.69-1.5-7.81-3a79.44,79.44,0,0,1-9-3.69,31.54,31.54,0,0,1-7.38-4.88,20.55,20.55,0,0,1-4.93-6.68,22,22,0,0,1-1.82-9.38q0-11.37,7.75-17.75t21.38-6.37A56.65,56.65,0,0,1,635,76a33,33,0,0,1,9.44,3.69l-3.88,9.88a34.16,34.16,0,0,0-7.81-3.19,42,42,0,0,0-12.06-1.56,26.71,26.71,0,0,0-6.5.75A16.67,16.67,0,0,0,609,87.79a11.09,11.09,0,0,0-3.56,3.81A10.8,10.8,0,0,0,604.1,97a11.51,11.51,0,0,0,1.38,5.87,13.55,13.55,0,0,0,3.87,4.19,33.27,33.27,0,0,0,5.82,3.31q3.3,1.5,7.31,3,5.63,2.25,10.31,4.5a33.79,33.79,0,0,1,8.13,5.38,21.54,21.54,0,0,1,5.31,7.43,26.16,26.16,0,0,1,1.87,10.44q0,11.39-8.31,17.5t-23.44,6.13a59.82,59.82,0,0,1-9.43-.69,69.21,69.21,0,0,1-7.69-1.63,43.22,43.22,0,0,1-5.81-2c-1.63-.7-2.9-1.31-3.82-1.81l3.63-10a53.34,53.34,0,0,0,8.75,3.63A45,45,0,0,0,616.35,154.29Z" style="fill: #029adc"/>
      <path d="M653.72,130.54a41.49,41.49,0,0,1,2.5-15.07,31.31,31.31,0,0,1,6.62-10.68,27,27,0,0,1,9.5-6.38,29.79,29.79,0,0,1,11-2.12q13.13,0,20.13,8.18t7,24.94v1.94a18.43,18.43,0,0,1-.13,2.19h-44.5q.75,10.13,5.88,15.37t16,5.25A42.55,42.55,0,0,0,698,153.1a37.17,37.17,0,0,0,6.31-2.06l1.63,9.75a34.56,34.56,0,0,1-7.44,2.37,53,53,0,0,1-12.06,1.25,38.22,38.22,0,0,1-14.69-2.56,27.41,27.41,0,0,1-10.19-7.06,28.8,28.8,0,0,1-5.94-10.69A45.25,45.25,0,0,1,653.72,130.54Zm44.62-6.38q.12-7.87-3.94-12.94a13.56,13.56,0,0,0-11.18-5.06,15.37,15.37,0,0,0-7.07,1.56,16.66,16.66,0,0,0-5.18,4.07,18.62,18.62,0,0,0-3.32,5.75,28.45,28.45,0,0,0-1.56,6.62Z" style="fill: #029adc"/>
      <path d="M749,164.41a35.31,35.31,0,0,1-13.81-2.5,27.7,27.7,0,0,1-10-7,29,29,0,0,1-6.06-10.69,44.06,44.06,0,0,1-2-13.68,41.61,41.61,0,0,1,2.18-13.75A32.53,32.53,0,0,1,725.45,106a27.83,27.83,0,0,1,9.81-7.12,31.73,31.73,0,0,1,12.94-2.56A51.7,51.7,0,0,1,757,97a40.49,40.49,0,0,1,8.38,2.37l-2.63,9.88a28.15,28.15,0,0,0-6.06-2,34.23,34.23,0,0,0-7.31-.75q-9.75,0-14.94,6.12t-5.19,17.88a36.68,36.68,0,0,0,1.19,9.62,19.76,19.76,0,0,0,3.75,7.5,16.59,16.59,0,0,0,6.56,4.81,25,25,0,0,0,9.75,1.69,37.2,37.2,0,0,0,8.38-.87,30.13,30.13,0,0,0,5.87-1.88l1.63,9.75a12.38,12.38,0,0,1-2.88,1.19,41.32,41.32,0,0,1-4.25,1c-1.58.29-3.27.54-5.06.75A44.53,44.53,0,0,1,749,164.41Z" style="fill: #029adc"/>
      <path d="M824.28,161q-4,1-10.57,2.12a90.6,90.6,0,0,1-15.18,1.13,32.19,32.19,0,0,1-12.63-2.19,20.33,20.33,0,0,1-8.25-6.19,25.15,25.15,0,0,1-4.5-9.44,49,49,0,0,1-1.37-12.06V97.91H783.4v34q0,11.88,3.75,17T799.78,154c1.25,0,2.54,0,3.87-.13s2.58-.19,3.75-.31,2.23-.25,3.19-.38a9,9,0,0,0,2.06-.43V97.91h11.63Z" style="fill: #029adc"/>
      <path d="M861.69,96.54c1,0,2.14.06,3.43.18s2.57.3,3.82.5,2.39.42,3.43.63a22.92,22.92,0,0,1,2.32.56l-2,10.13a38,38,0,0,0-12.75-1.88,30.31,30.31,0,0,0-6.44.69c-2.13.46-3.52.77-4.19.94v54.62H837.69V100.66a78,78,0,0,1,10.25-2.81A65.46,65.46,0,0,1,861.69,96.54Z" style="fill: #029adc"/>
      <path d="M886.27,86.16A7.48,7.48,0,0,1,881,84.1,8.17,8.17,0,0,1,881,73a7.89,7.89,0,0,1,10.63,0,8.19,8.19,0,0,1,0,11.13A7.49,7.49,0,0,1,886.27,86.16Zm5.88,76.75H880.52v-65h11.63Z" style="fill: #029adc"/>
      <path d="M916.51,97.91h24.62v9.75H916.51v30a36,36,0,0,0,.75,8.06,12,12,0,0,0,2.25,5,8.1,8.1,0,0,0,3.75,2.57,16.62,16.62,0,0,0,5.25.75,24.76,24.76,0,0,0,8.44-1.19q3.18-1.18,4.43-1.69l2.25,9.63a42.57,42.57,0,0,1-6.12,2.18,34.66,34.66,0,0,1-10,1.32,30.44,30.44,0,0,1-10.94-1.69,16,16,0,0,1-6.94-5.06,20.14,20.14,0,0,1-3.68-8.32,54.58,54.58,0,0,1-1.07-11.43v-58l11.63-2Z" style="fill: #029adc"/>
      <path d="M945.32,175a22.37,22.37,0,0,0,3.56,1.18,17.1,17.1,0,0,0,4.32.57q6.87,0,10.75-3.07t7-9.93q-7.87-15-14.69-31.82A276.2,276.2,0,0,1,945,97.91h12.5q1.37,5.63,3.31,12.13t4.31,13.37q2.37,6.89,5.13,13.75T976,150.41q4.74-13.12,8.25-26t6.62-26.5h12q-4.5,18.38-10,35.31T981,164.91a67.37,67.37,0,0,1-5.19,9.69,29.08,29.08,0,0,1-5.94,6.69,21.6,21.6,0,0,1-7.31,3.87,31.33,31.33,0,0,1-9.19,1.25,22.17,22.17,0,0,1-2.87-.19c-1-.12-2-.29-2.94-.5a27,27,0,0,1-2.63-.68,12,12,0,0,1-1.68-.63Z" style="fill: #029adc"/>
    </g>
  </g>
</svg>
