<svg id="Layer_1" data-name="Layer 1" xmlns="http://www.w3.org/2000/svg" xmlns:xlink="http://www.w3.org/1999/xlink" viewBox="0 0 1060 240">
  <defs>
    <clipPath id="clip-path">
      <path id="SVGID" d="M106.88,114c11-14.44,32.1-30.15,65-5.83,12.75,9.44,25.61,16.43,35.74,17.08a27.73,27.73,0,0,0,10-1.68s-.07,0,.06,0a24.26,24.26,0,0,0,11.78-8.33c12.77-17.63,13-45.1,32.65-54.94l-5.54-16.38L228.17,36l-34.5-6.57-38.2,8.22-30.4,19.71-16.43,26.7Z" style="fill: none"/>
    </clipPath>
    <clipPath id="clip-path-2">
      <path id="SVGID-2" data-name="SVGID" d="M118.66,163c6.47-14,26.09-43.92,67.78-16.33,49.43,32.72,62.74-30.33,63.81-35.42,5-23.65,14.11-33.86,21.12-38.27l11.43,36.94-2.87,35.32-9.86,19.31-14.38,18.48-27.93,24.23-42.31,3.29-32.86-9.45-25-18.48Z" style="fill: none"/>
    </clipPath>
  </defs>
  <title>vertical-ness-health-cor</title>
  <g id="logo-ness-health">
    <g>
      <g style="clip-path: url(#clip-path)">
        <g>
          <g>
            <g style="opacity: 0.17">
              <path d="M160.25,180.81c26.61,0,52.09-23.39,50.86-50.85S188.77,79.1,160.25,79.1c-26.6,0-52.08,23.39-50.85,50.86s22.34,50.85,50.85,50.85Z" style="fill: #00848c"/>
            </g>
            <g style="opacity: 0.17">
              <path d="M171.45,199.71c26.61,0,52.09-23.4,50.86-50.86S200,98,171.45,98c-26.6,0-52.08,23.39-50.85,50.86s22.34,50.86,50.85,50.86Z" style="fill: #00848c"/>
            </g>
            <g style="opacity: 0.17">
              <path d="M194.23,206.83c26.61,0,52.09-23.4,50.86-50.86s-22.34-50.86-50.86-50.86c-26.6,0-52.08,23.39-50.85,50.86s22.34,50.86,50.85,50.86Z" style="fill: #00848c"/>
            </g>
            <g style="opacity: 0.17">
              <path d="M208.47,204c26.61,0,52.09-23.39,50.86-50.86S237,102.26,208.47,102.26c-26.6,0-52.09,23.39-50.85,50.86S180,204,208.47,204Z" style="fill: #00848c"/>
            </g>
            <g style="opacity: 0.17">
              <path d="M227,181.2c26.6,0,52.09-23.4,50.86-50.86S255.49,79.48,227,79.48c-26.6,0-52.09,23.39-50.86,50.86S198.47,181.2,227,181.2Z" style="fill: #00848c"/>
            </g>
            <g style="opacity: 0.17">
              <path d="M227,162.69c26.6,0,52.09-23.4,50.86-50.86S255.49,61,227,61c-26.6,0-52.09,23.39-50.86,50.86s22.35,50.86,50.86,50.86Z" style="fill: #00848c"/>
            </g>
            <g style="opacity: 0.17">
              <path d="M211.32,144.18c26.6,0,52.09-23.4,50.86-50.86s-22.35-50.86-50.86-50.86c-26.6,0-52.09,23.39-50.86,50.86s22.35,50.86,50.86,50.86Z" style="fill: #00848c"/>
            </g>
            <g style="opacity: 0.17">
              <path d="M169.92,144c26.6,0,52.09-23.4,50.86-50.86s-22.35-50.86-50.86-50.86c-26.6,0-52.09,23.39-50.86,50.86S141.41,144,169.92,144Z" style="fill: #00848c"/>
            </g>
            <g style="opacity: 0.17">
              <path d="M191.39,135.06c26.6,0,52.08-23.39,50.85-50.86S219.9,33.34,191.39,33.34c-26.61,0-52.09,23.4-50.86,50.86s22.35,50.86,50.86,50.86Z" style="fill: #00848c"/>
            </g>
            <g style="opacity: 0.17">
              <path d="M221.29,145.6c26.6,0,52.08-23.39,50.85-50.86S249.8,43.89,221.29,43.89c-26.61,0-52.09,23.39-50.86,50.85s22.35,50.86,50.86,50.86Z" style="fill: #00848c"/>
            </g>
            <g style="opacity: 0.17">
              <path d="M160.91,156.8c26.6,0,52.09-23.39,50.86-50.86s-22.35-50.86-50.86-50.86c-26.6,0-52.09,23.4-50.86,50.86s22.35,50.86,50.86,50.86Z" style="fill: #00848c"/>
            </g>
          </g>
          <g>
            <g style="opacity: 0.17">
              <path d="M177.15,184c26.6,0,52.09-23.39,50.86-50.85s-22.35-50.86-50.86-50.86c-26.6,0-52.09,23.39-50.86,50.86S148.64,184,177.15,184Z" style="fill: #17f1d7"/>
            </g>
            <g style="opacity: 0.17">
              <path d="M208.47,185.47c26.61,0,52.09-23.39,50.86-50.86S237,83.75,208.47,83.75c-26.6,0-52.09,23.39-50.85,50.86s22.34,50.86,50.85,50.86Z" style="fill: #17f1d7"/>
            </g>
            <g style="opacity: 0.17">
              <path d="M215.59,165.53c26.6,0,52.09-23.39,50.86-50.85S244.1,63.82,215.59,63.82c-26.6,0-52.09,23.39-50.86,50.86s22.35,50.85,50.86,50.85Z" style="fill: #17f1d7"/>
            </g>
            <g style="opacity: 0.17">
              <path d="M191.39,154.14c26.6,0,52.08-23.39,50.85-50.85S219.9,52.43,191.39,52.43c-26.61,0-52.09,23.39-50.86,50.86s22.35,50.85,50.86,50.85Z" style="fill: #17f1d7"/>
            </g>
            <g style="opacity: 0.17">
              <path d="M174.3,162.69c26.6,0,52.09-23.4,50.86-50.86S202.81,61,174.3,61c-26.6,0-52.09,23.39-50.86,50.86s22.35,50.86,50.86,50.86Z" style="fill: #17f1d7"/>
            </g>
            <g style="opacity: 0.17">
              <path d="M164.33,175.5c26.61,0,52.09-23.39,50.86-50.86s-22.34-50.85-50.86-50.85c-26.6,0-52.08,23.39-50.85,50.85s22.34,50.86,50.85,50.86Z" style="fill: #17f1d7"/>
            </g>
            <g style="opacity: 0.17">
              <path d="M187.12,178.35c26.6,0,52.08-23.39,50.85-50.86s-22.34-50.86-50.85-50.86c-26.61,0-52.09,23.4-50.86,50.86s22.34,50.86,50.86,50.86Z" style="fill: #17f1d7"/>
            </g>
            <g style="opacity: 0.17">
              <path d="M209.9,174.08c26.6,0,52.08-23.39,50.85-50.86S238.41,72.36,209.9,72.36c-26.61,0-52.09,23.39-50.86,50.86s22.34,50.86,50.86,50.86Z" style="fill: #17f1d7"/>
            </g>
            <g style="opacity: 0.17">
              <path d="M207.05,155.57c26.6,0,52.09-23.39,50.86-50.86s-22.35-50.86-50.86-50.86c-26.6,0-52.09,23.39-50.86,50.86s22.35,50.86,50.86,50.86Z" style="fill: #17f1d7"/>
            </g>
            <g style="opacity: 0.17">
              <path d="M177.15,161.26c26.6,0,52.09-23.39,50.86-50.85s-22.35-50.86-50.86-50.86c-26.6,0-52.09,23.39-50.86,50.86s22.35,50.85,50.86,50.85Z" style="fill: #17f1d7"/>
            </g>
            <g style="opacity: 0.17">
              <path d="M191.28,189.55c26.6,0,52.09-23.39,50.86-50.86s-22.35-50.86-50.86-50.86c-26.6,0-52.09,23.39-50.86,50.86s22.35,50.86,50.86,50.86Z" style="fill: #17f1d7"/>
            </g>
          </g>
          <g>
            <g style="opacity: 0.17">
              <path d="M192.81,172.65c26.6,0,52.09-23.39,50.86-50.85s-22.35-50.86-50.86-50.86c-26.6,0-52.09,23.39-50.86,50.86s22.35,50.85,50.86,50.85Z" style="fill: #b5fbdd"/>
            </g>
            <g style="opacity: 0.17">
              <path d="M187.12,175.5c26.6,0,52.08-23.39,50.85-50.86s-22.34-50.85-50.85-50.85c-26.61,0-52.09,23.39-50.86,50.85s22.34,50.86,50.86,50.86Z" style="fill: #b5fbdd"/>
            </g>
            <g style="opacity: 0.17">
              <path d="M205.62,179.77c26.61,0,52.09-23.39,50.86-50.86s-22.34-50.85-50.86-50.85c-26.6,0-52.08,23.39-50.85,50.85s22.34,50.86,50.85,50.86Z" style="fill: #b5fbdd"/>
            </g>
            <g style="opacity: 0.17">
              <path d="M194.23,169.09c26.61,0,52.09-23.39,50.86-50.85s-22.34-50.86-50.86-50.86c-26.6,0-52.08,23.39-50.85,50.86s22.34,50.85,50.85,50.85Z" style="fill: #b5fbdd"/>
            </g>
          </g>
        </g>
      </g>
      <g style="clip-path: url(#clip-path-2)">
        <g>
          <g>
            <g style="opacity: 0.17">
              <path d="M160.25,180.81c26.61,0,52.09-23.39,50.86-50.85S188.77,79.1,160.25,79.1c-26.6,0-52.08,23.39-50.85,50.86s22.34,50.85,50.85,50.85Z" style="fill: #00848c"/>
            </g>
            <g style="opacity: 0.17">
              <path d="M171.45,199.71c26.61,0,52.09-23.4,50.86-50.86S200,98,171.45,98c-26.6,0-52.08,23.39-50.85,50.86s22.34,50.86,50.85,50.86Z" style="fill: #00848c"/>
            </g>
            <g style="opacity: 0.17">
              <path d="M194.23,206.83c26.61,0,52.09-23.4,50.86-50.86s-22.34-50.86-50.86-50.86c-26.6,0-52.08,23.39-50.85,50.86s22.34,50.86,50.85,50.86Z" style="fill: #00848c"/>
            </g>
            <g style="opacity: 0.17">
              <path d="M208.47,204c26.61,0,52.09-23.39,50.86-50.86S237,102.26,208.47,102.26c-26.6,0-52.09,23.39-50.85,50.86S180,204,208.47,204Z" style="fill: #00848c"/>
            </g>
            <g style="opacity: 0.17">
              <path d="M227,181.2c26.6,0,52.09-23.4,50.86-50.86S255.49,79.48,227,79.48c-26.6,0-52.09,23.39-50.86,50.86S198.47,181.2,227,181.2Z" style="fill: #00848c"/>
            </g>
            <g style="opacity: 0.17">
              <path d="M227,162.69c26.6,0,52.09-23.4,50.86-50.86S255.49,61,227,61c-26.6,0-52.09,23.39-50.86,50.86s22.35,50.86,50.86,50.86Z" style="fill: #00848c"/>
            </g>
            <g style="opacity: 0.17">
              <path d="M211.32,144.18c26.6,0,52.09-23.4,50.86-50.86s-22.35-50.86-50.86-50.86c-26.6,0-52.09,23.39-50.86,50.86s22.35,50.86,50.86,50.86Z" style="fill: #00848c"/>
            </g>
            <g style="opacity: 0.17">
              <path d="M169.92,144c26.6,0,52.09-23.4,50.86-50.86s-22.35-50.86-50.86-50.86c-26.6,0-52.09,23.39-50.86,50.86S141.41,144,169.92,144Z" style="fill: #00848c"/>
            </g>
            <g style="opacity: 0.17">
              <path d="M191.39,135.06c26.6,0,52.08-23.39,50.85-50.86S219.9,33.34,191.39,33.34c-26.61,0-52.09,23.4-50.86,50.86s22.35,50.86,50.86,50.86Z" style="fill: #00848c"/>
            </g>
            <g style="opacity: 0.17">
              <path d="M221.29,145.6c26.6,0,52.08-23.39,50.85-50.86S249.8,43.89,221.29,43.89c-26.61,0-52.09,23.39-50.86,50.85s22.35,50.86,50.86,50.86Z" style="fill: #00848c"/>
            </g>
            <g style="opacity: 0.17">
              <path d="M160.91,156.8c26.6,0,52.09-23.39,50.86-50.86s-22.35-50.86-50.86-50.86c-26.6,0-52.09,23.4-50.86,50.86s22.35,50.86,50.86,50.86Z" style="fill: #00848c"/>
            </g>
          </g>
          <g>
            <g style="opacity: 0.17">
              <path d="M177.15,184c26.6,0,52.09-23.39,50.86-50.85s-22.35-50.86-50.86-50.86c-26.6,0-52.09,23.39-50.86,50.86S148.64,184,177.15,184Z" style="fill: #17f1d7"/>
            </g>
            <g style="opacity: 0.17">
              <path d="M208.47,185.47c26.61,0,52.09-23.39,50.86-50.86S237,83.75,208.47,83.75c-26.6,0-52.09,23.39-50.85,50.86s22.34,50.86,50.85,50.86Z" style="fill: #17f1d7"/>
            </g>
            <g style="opacity: 0.17">
              <path d="M215.59,165.53c26.6,0,52.09-23.39,50.86-50.85S244.1,63.82,215.59,63.82c-26.6,0-52.09,23.39-50.86,50.86s22.35,50.85,50.86,50.85Z" style="fill: #17f1d7"/>
            </g>
            <g style="opacity: 0.17">
              <path d="M191.39,154.14c26.6,0,52.08-23.39,50.85-50.85S219.9,52.43,191.39,52.43c-26.61,0-52.09,23.39-50.86,50.86s22.35,50.85,50.86,50.85Z" style="fill: #17f1d7"/>
            </g>
            <g style="opacity: 0.17">
              <path d="M174.3,162.69c26.6,0,52.09-23.4,50.86-50.86S202.81,61,174.3,61c-26.6,0-52.09,23.39-50.86,50.86s22.35,50.86,50.86,50.86Z" style="fill: #17f1d7"/>
            </g>
            <g style="opacity: 0.17">
              <path d="M164.33,175.5c26.61,0,52.09-23.39,50.86-50.86s-22.34-50.85-50.86-50.85c-26.6,0-52.08,23.39-50.85,50.85s22.34,50.86,50.85,50.86Z" style="fill: #17f1d7"/>
            </g>
            <g style="opacity: 0.17">
              <path d="M187.12,178.35c26.6,0,52.08-23.39,50.85-50.86s-22.34-50.86-50.85-50.86c-26.61,0-52.09,23.4-50.86,50.86s22.34,50.86,50.86,50.86Z" style="fill: #17f1d7"/>
            </g>
            <g style="opacity: 0.17">
              <path d="M209.9,174.08c26.6,0,52.08-23.39,50.85-50.86S238.41,72.36,209.9,72.36c-26.61,0-52.09,23.39-50.86,50.86s22.34,50.86,50.86,50.86Z" style="fill: #17f1d7"/>
            </g>
            <g style="opacity: 0.17">
              <path d="M207.05,155.57c26.6,0,52.09-23.39,50.86-50.86s-22.35-50.86-50.86-50.86c-26.6,0-52.09,23.39-50.86,50.86s22.35,50.86,50.86,50.86Z" style="fill: #17f1d7"/>
            </g>
            <g style="opacity: 0.17">
              <path d="M177.15,161.26c26.6,0,52.09-23.39,50.86-50.85s-22.35-50.86-50.86-50.86c-26.6,0-52.09,23.39-50.86,50.86s22.35,50.85,50.86,50.85Z" style="fill: #17f1d7"/>
            </g>
            <g style="opacity: 0.17">
              <path d="M191.28,189.55c26.6,0,52.09-23.39,50.86-50.86s-22.35-50.86-50.86-50.86c-26.6,0-52.09,23.39-50.86,50.86s22.35,50.86,50.86,50.86Z" style="fill: #17f1d7"/>
            </g>
          </g>
          <g>
            <g style="opacity: 0.17">
              <path d="M192.81,172.65c26.6,0,52.09-23.39,50.86-50.85s-22.35-50.86-50.86-50.86c-26.6,0-52.09,23.39-50.86,50.86s22.35,50.85,50.86,50.85Z" style="fill: #b5fbdd"/>
            </g>
            <g style="opacity: 0.17">
              <path d="M187.12,175.5c26.6,0,52.08-23.39,50.85-50.86s-22.34-50.85-50.85-50.85c-26.61,0-52.09,23.39-50.86,50.85s22.34,50.86,50.86,50.86Z" style="fill: #b5fbdd"/>
            </g>
            <g style="opacity: 0.17">
              <path d="M205.62,179.77c26.61,0,52.09-23.39,50.86-50.86s-22.34-50.85-50.86-50.85c-26.6,0-52.08,23.39-50.85,50.85s22.34,50.86,50.85,50.86Z" style="fill: #b5fbdd"/>
            </g>
            <g style="opacity: 0.17">
              <path d="M194.23,169.09c26.61,0,52.09-23.39,50.86-50.85s-22.34-50.86-50.86-50.86c-26.6,0-52.08,23.39-50.85,50.86s22.34,50.85,50.85,50.85Z" style="fill: #b5fbdd"/>
            </g>
          </g>
        </g>
      </g>
    </g>
    <g>
      <path d="M372.42,132.6q-4.5-7.16-10.26-15.41t-11.9-16.48q-6.15-8.19-12.24-15.8T326.64,71.74H313v0h-8.58v6.54h3.68s4.18,1.12,4.9,4.76v80.35h16.4V97.81q5.56,6.61,11.71,14.88t12.11,17.06q5.94,8.81,11.5,17.47t10.06,16.2H389V71.74H372.42Z" style="fill: #fff"/>
      <polygon points="417 122.41 454.57 122.41 454.57 108.52 417 108.52 417 85.9 459.2 85.9 459.2 71.74 400.33 71.74 400.33 163.42 462.38 163.42 462.38 149.27 417 149.27 417 122.41" style="fill: #fff"/>
      <path d="M527.39,120.36a32.55,32.55,0,0,0-8.59-5.82q-5.1-2.45-11.58-4.83-3.71-1.32-6.81-2.78a31.84,31.84,0,0,1-5.43-3.17,13.08,13.08,0,0,1-3.57-3.9,10.3,10.3,0,0,1-1.25-5.23,9.15,9.15,0,0,1,3.76-7.81q3.78-2.77,10.52-2.77a46,46,0,0,1,11.05,1.32,39.29,39.29,0,0,1,9.85,3.84l5.16-13.5A46.86,46.86,0,0,0,520,71.54a55.86,55.86,0,0,0-15.28-1.91q-14.82,0-23.42,7.07t-8.6,19.52a23.1,23.1,0,0,0,2.05,10.18,23.58,23.58,0,0,0,5.42,7.28,31,31,0,0,0,7.81,5.09q4.42,2.06,9.2,3.77t8.46,3.24a33.64,33.64,0,0,1,6.29,3.58,14.7,14.7,0,0,1,4,4.3,11.12,11.12,0,0,1,1.39,5.68,10.08,10.08,0,0,1-4.11,8.6q-4.09,3-13.09,3.05a47.48,47.48,0,0,1-14.69-2,55.55,55.55,0,0,1-9.66-4l-4.89,13.63a38.68,38.68,0,0,0,4.23,2.05,55.88,55.88,0,0,0,6.29,2.18,66.28,66.28,0,0,0,8.33,1.79,68.73,68.73,0,0,0,10.39.73q16.92,0,25.73-6.82t8.8-19.25a29.23,29.23,0,0,0-1.86-11A22.72,22.72,0,0,0,527.39,120.36Z" style="fill: #fff"/>
      <path d="M604.19,128.3a22.85,22.85,0,0,0-5.36-7.94,32.78,32.78,0,0,0-8.6-5.82q-5.1-2.45-11.57-4.83c-2.47-.88-4.75-1.81-6.82-2.78a31.73,31.73,0,0,1-5.42-3.17,13,13,0,0,1-3.57-3.9,10.31,10.31,0,0,1-1.26-5.23,9.16,9.16,0,0,1,3.77-7.81q3.76-2.77,10.52-2.77a46,46,0,0,1,11,1.32,39.21,39.21,0,0,1,9.86,3.84l5.16-13.5a46.77,46.77,0,0,0-10.52-4.17,55.81,55.81,0,0,0-15.28-1.91q-14.82,0-23.41,7.07t-8.6,19.52a23.1,23.1,0,0,0,2,10.18,23.42,23.42,0,0,0,5.42,7.28,30.69,30.69,0,0,0,7.81,5.09q4.43,2.06,9.19,3.77t8.47,3.24a33.54,33.54,0,0,1,6.28,3.58,14.56,14.56,0,0,1,4,4.3,11,11,0,0,1,1.39,5.68,10.07,10.07,0,0,1-4.1,8.6q-4.11,3-13.1,3.05a47.42,47.42,0,0,1-14.68-2,55.55,55.55,0,0,1-9.66-4l-4.89,13.63a37,37,0,0,0,4.23,2.05,55.65,55.65,0,0,0,6.28,2.18,66.86,66.86,0,0,0,8.34,1.79,68.69,68.69,0,0,0,10.38.73q16.93,0,25.73-6.82t8.8-19.25A29.44,29.44,0,0,0,604.19,128.3Z" style="fill: #fff"/>
    </g>
    <g>
      <polygon points="691.51 71.94 691.51 125.67 649.7 125.67 649.7 69.98 637.74 72.07 637.74 165.5 649.7 165.5 649.7 136.03 691.51 136.03 691.51 165.5 703.47 165.5 703.47 69.85 691.51 71.94" style="fill: #17f1d7"/>
      <path d="M709.8,133.56a41,41,0,0,1,2.47-14.86,30.9,30.9,0,0,1,6.54-10.55,26.56,26.56,0,0,1,9.37-6.29A29.39,29.39,0,0,1,739,99.77q12.94,0,19.86,8.07t6.9,24.61v1.91a17.72,17.72,0,0,1-.12,2.15h-43.9q.74,10,5.79,15.17t15.79,5.18a42,42,0,0,0,10.17-1.05,36,36,0,0,0,6.23-2l1.6,9.62a34,34,0,0,1-7.34,2.34,52.22,52.22,0,0,1-11.9,1.24,37.85,37.85,0,0,1-14.49-2.53,27.08,27.08,0,0,1-10-7,28.35,28.35,0,0,1-5.85-10.54A44.41,44.41,0,0,1,709.8,133.56Zm44-6.29q.12-7.77-3.89-12.77a13.36,13.36,0,0,0-11-5,15.1,15.1,0,0,0-7,1.54,16.36,16.36,0,0,0-5.12,4,18.29,18.29,0,0,0-3.27,5.67,28.27,28.27,0,0,0-1.54,6.54Z" style="fill: #17f1d7"/>
      <path d="M796.34,99.77A33.31,33.31,0,0,1,808,101.55a19.07,19.07,0,0,1,7.65,5.06,19.28,19.28,0,0,1,4.13,7.77,37.61,37.61,0,0,1,1.23,9.93v40.08l-4.13.67q-2.65.44-6,.81c-2.22.24-4.63.47-7.22.67s-5.16.31-7.7.31a42.21,42.21,0,0,1-10-1.11,22.4,22.4,0,0,1-7.89-3.51,16.12,16.12,0,0,1-5.18-6.35,22.14,22.14,0,0,1-1.85-9.5,18.33,18.33,0,0,1,2.15-9.12,17.25,17.25,0,0,1,5.86-6.17,27.18,27.18,0,0,1,8.63-3.45,47.07,47.07,0,0,1,10.36-1.11c1.15,0,2.35.06,3.58.18s2.4.29,3.51.49l2.9.56,1.73.37v-3.21a25.86,25.86,0,0,0-.62-5.61,12.79,12.79,0,0,0-2.22-4.93,11.21,11.21,0,0,0-4.38-3.45,17,17,0,0,0-7.21-1.3,54.66,54.66,0,0,0-9.93.8,34.91,34.91,0,0,0-6.35,1.67l-1.35-9.5a36,36,0,0,1,7.39-1.91A63.74,63.74,0,0,1,796.34,99.77Zm1,57.46c2.72,0,5.12-.06,7.22-.18a32.18,32.18,0,0,0,5.24-.68V137.26a14.8,14.8,0,0,0-4-1,44.3,44.3,0,0,0-6.72-.43,42.77,42.77,0,0,0-5.49.37,16.73,16.73,0,0,0-5.3,1.54,11.45,11.45,0,0,0-4,3.2,8.43,8.43,0,0,0-1.6,5.37q0,6.17,3.94,8.57T797.32,157.23Z" style="fill: #17f1d7"/>
      <path d="M851.63,166.73q-10.61-.25-15-4.56t-4.44-13.45V71.77l11.47-2v77.07a18.52,18.52,0,0,0,.49,4.69,6.45,6.45,0,0,0,1.6,3,6.91,6.91,0,0,0,3,1.66,31,31,0,0,0,4.56.93Z" style="fill: #17f1d7"/>
      <path d="M868.67,101.37H893V111h-24.3v29.59a35.82,35.82,0,0,0,.74,8,12.14,12.14,0,0,0,2.22,4.93,8,8,0,0,0,3.7,2.53,16.51,16.51,0,0,0,5.18.74,24.45,24.45,0,0,0,8.33-1.17q3.13-1.17,4.37-1.67l2.22,9.5a43.9,43.9,0,0,1-6,2.16,34.52,34.52,0,0,1-9.87,1.29,30,30,0,0,1-10.79-1.66,15.77,15.77,0,0,1-6.84-5,20,20,0,0,1-3.64-8.2,54,54,0,0,1-1-11.28V83.49l11.47-2Z" style="fill: #17f1d7"/>
      <path d="M901.33,165.5V71.77l11.47-2v32.8a38.53,38.53,0,0,1,6.84-1.91,39.54,39.54,0,0,1,7.22-.68,32.51,32.51,0,0,1,12.7,2.16,19.82,19.82,0,0,1,8.07,6,23.32,23.32,0,0,1,4.26,9.31,54.23,54.23,0,0,1,1.23,12v36H941.65V132a54.33,54.33,0,0,0-.8-10.11,17.06,17.06,0,0,0-2.65-6.78,10.46,10.46,0,0,0-4.93-3.76,21.75,21.75,0,0,0-7.65-1.17,31.59,31.59,0,0,0-3.82.24c-1.32.17-2.57.35-3.76.56s-2.26.43-3.21.67a21.09,21.09,0,0,0-2,.62V165.5Z" style="fill: #17f1d7"/>
    </g>
  </g>
</svg>
