<svg id="Layer_1" data-name="Layer 1" xmlns="http://www.w3.org/2000/svg" xmlns:xlink="http://www.w3.org/1999/xlink" viewBox="0 0 1060 240">
  <defs>
    <clipPath id="clip-path">
      <path id="SVGID" d="M88.89,114c11-14.44,32.11-30.15,65-5.83,12.74,9.44,25.6,16.43,35.73,17.08a27.74,27.74,0,0,0,10-1.68s-.08,0,.05,0a24.28,24.28,0,0,0,11.79-8.33c12.76-17.63,12.94-45.1,32.64-54.94l-5.54-16.38L210.18,36l-34.5-6.57-38.2,8.22L107.09,57.36,90.66,84.06Z" style="fill: none"/>
    </clipPath>
    <clipPath id="clip-path-2">
      <path id="SVGID-2" data-name="SVGID" d="M100.67,163c6.48-14,26.1-43.92,67.78-16.33,49.43,32.72,62.74-30.33,63.82-35.42,5-23.65,14.1-33.86,21.12-38.27l11.42,36.94-2.87,35.32-9.86,19.31L237.7,183.05l-27.93,24.23-42.3,3.29-32.86-9.45-25.06-18.48Z" style="fill: none"/>
    </clipPath>
  </defs>
  <title>vertical-ness-energy</title>
  <g id="logo-ness-health">
    <g>
      <g style="clip-path: url(#clip-path)">
        <g>
          <g>
            <g style="opacity: 0.17">
              <path d="M142.27,180.81c26.6,0,52.08-23.39,50.85-50.85S170.78,79.1,142.27,79.1c-26.61,0-52.09,23.39-50.86,50.86s22.35,50.85,50.86,50.85Z" style="fill: #029adc"/>
            </g>
            <g style="opacity: 0.17">
              <path d="M153.47,199.71c26.6,0,52.08-23.4,50.85-50.86S182,98,153.47,98c-26.61,0-52.09,23.39-50.86,50.86s22.34,50.86,50.86,50.86Z" style="fill: #029adc"/>
            </g>
            <g style="opacity: 0.17">
              <path d="M176.25,206.83c26.6,0,52.09-23.4,50.85-50.86s-22.34-50.86-50.85-50.86c-26.61,0-52.09,23.39-50.86,50.86s22.35,50.86,50.86,50.86Z" style="fill: #029adc"/>
            </g>
            <g style="opacity: 0.17">
              <path d="M190.49,204c26.6,0,52.08-23.39,50.85-50.86S219,102.26,190.49,102.26c-26.61,0-52.09,23.39-50.86,50.86S162,204,190.49,204Z" style="fill: #029adc"/>
            </g>
            <g style="opacity: 0.17">
              <path d="M209,181.2c26.6,0,52.08-23.4,50.85-50.86S237.51,79.48,209,79.48c-26.61,0-52.09,23.39-50.86,50.86S180.48,181.2,209,181.2Z" style="fill: #029adc"/>
            </g>
            <g style="opacity: 0.17">
              <path d="M209,162.69c26.6,0,52.08-23.4,50.85-50.86S237.51,61,209,61c-26.61,0-52.09,23.39-50.86,50.86s22.34,50.86,50.86,50.86Z" style="fill: #029adc"/>
            </g>
            <g style="opacity: 0.17">
              <path d="M193.33,144.18c26.61,0,52.09-23.4,50.86-50.86s-22.35-50.86-50.86-50.86c-26.6,0-52.08,23.39-50.85,50.86s22.34,50.86,50.85,50.86Z" style="fill: #029adc"/>
            </g>
            <g style="opacity: 0.17">
              <path d="M151.93,144c26.61,0,52.09-23.4,50.86-50.86s-22.35-50.86-50.86-50.86c-26.6,0-52.08,23.39-50.85,50.86S123.42,144,151.93,144Z" style="fill: #029adc"/>
            </g>
            <g style="opacity: 0.17">
              <path d="M173.4,135.06c26.6,0,52.09-23.39,50.86-50.86S201.91,33.34,173.4,33.34c-26.6,0-52.09,23.4-50.86,50.86s22.35,50.86,50.86,50.86Z" style="fill: #029adc"/>
            </g>
            <g style="opacity: 0.17">
              <path d="M203.3,145.6c26.6,0,52.09-23.39,50.86-50.86S231.81,43.89,203.3,43.89c-26.6,0-52.09,23.39-50.86,50.85s22.35,50.86,50.86,50.86Z" style="fill: #029adc"/>
            </g>
            <g style="opacity: 0.17">
              <path d="M142.92,156.8c26.61,0,52.09-23.39,50.86-50.86s-22.34-50.86-50.86-50.86c-26.6,0-52.08,23.4-50.85,50.86s22.34,50.86,50.85,50.86Z" style="fill: #029adc"/>
            </g>
          </g>
          <g>
            <g style="opacity: 0.17">
              <path d="M159.16,184c26.6,0,52.09-23.39,50.86-50.85s-22.35-50.86-50.86-50.86c-26.6,0-52.09,23.39-50.86,50.86S130.65,184,159.16,184Z" style="fill: #029adc"/>
            </g>
            <g style="opacity: 0.17">
              <path d="M190.49,185.47c26.6,0,52.08-23.39,50.85-50.86S219,83.75,190.49,83.75c-26.61,0-52.09,23.39-50.86,50.86s22.34,50.86,50.86,50.86Z" style="fill: #029adc"/>
            </g>
            <g style="opacity: 0.17">
              <path d="M197.6,165.53c26.61,0,52.09-23.39,50.86-50.85S226.12,63.82,197.6,63.82c-26.6,0-52.08,23.39-50.85,50.86s22.34,50.85,50.85,50.85Z" style="fill: #029adc"/>
            </g>
            <g style="opacity: 0.17">
              <path d="M173.4,154.14c26.6,0,52.09-23.39,50.86-50.85S201.91,52.43,173.4,52.43c-26.6,0-52.09,23.39-50.86,50.86s22.35,50.85,50.86,50.85Z" style="fill: #029adc"/>
            </g>
            <g style="opacity: 0.17">
              <path d="M156.31,162.69c26.61,0,52.09-23.4,50.86-50.86S184.83,61,156.31,61c-26.6,0-52.08,23.39-50.85,50.86s22.34,50.86,50.85,50.86Z" style="fill: #029adc"/>
            </g>
            <g style="opacity: 0.17">
              <path d="M146.35,175.5c26.6,0,52.08-23.39,50.85-50.86s-22.34-50.85-50.85-50.85c-26.61,0-52.09,23.39-50.86,50.85s22.35,50.86,50.86,50.86Z" style="fill: #029adc"/>
            </g>
            <g style="opacity: 0.17">
              <path d="M169.13,178.35c26.6,0,52.09-23.39,50.86-50.86s-22.35-50.86-50.86-50.86c-26.6,0-52.09,23.4-50.86,50.86s22.35,50.86,50.86,50.86Z" style="fill: #029adc"/>
            </g>
            <g style="opacity: 0.17">
              <path d="M191.91,174.08c26.6,0,52.09-23.39,50.86-50.86s-22.35-50.86-50.86-50.86c-26.6,0-52.09,23.39-50.86,50.86s22.35,50.86,50.86,50.86Z" style="fill: #029adc"/>
            </g>
            <g style="opacity: 0.17">
              <path d="M189.06,155.57c26.6,0,52.09-23.39,50.86-50.86s-22.35-50.86-50.86-50.86c-26.6,0-52.09,23.39-50.86,50.86s22.35,50.86,50.86,50.86Z" style="fill: #029adc"/>
            </g>
            <g style="opacity: 0.17">
              <path d="M159.16,161.26c26.6,0,52.09-23.39,50.86-50.85s-22.35-50.86-50.86-50.86c-26.6,0-52.09,23.39-50.86,50.86s22.35,50.85,50.86,50.85Z" style="fill: #029adc"/>
            </g>
            <g style="opacity: 0.17">
              <path d="M173.29,189.55c26.6,0,52.09-23.39,50.86-50.86S201.8,87.83,173.29,87.83c-26.6,0-52.09,23.39-50.86,50.86s22.35,50.86,50.86,50.86Z" style="fill: #029adc"/>
            </g>
          </g>
          <g>
            <g style="opacity: 0.17">
              <path d="M174.82,172.65c26.61,0,52.09-23.39,50.86-50.85s-22.34-50.86-50.86-50.86c-26.6,0-52.08,23.39-50.85,50.86s22.34,50.85,50.85,50.85Z" style="fill: #fff"/>
            </g>
            <g style="opacity: 0.17">
              <path d="M169.13,175.5c26.6,0,52.09-23.39,50.86-50.86s-22.35-50.85-50.86-50.85c-26.6,0-52.09,23.39-50.86,50.85s22.35,50.86,50.86,50.86Z" style="fill: #fff"/>
            </g>
            <g style="opacity: 0.17">
              <path d="M187.64,179.77c26.6,0,52.09-23.39,50.86-50.86s-22.35-50.85-50.86-50.85c-26.6,0-52.09,23.39-50.86,50.85s22.35,50.86,50.86,50.86Z" style="fill: #fff"/>
            </g>
            <g style="opacity: 0.17">
              <path d="M176.25,169.09c26.6,0,52.09-23.39,50.85-50.85s-22.34-50.86-50.85-50.86c-26.61,0-52.09,23.39-50.86,50.86s22.35,50.85,50.86,50.85Z" style="fill: #fff"/>
            </g>
          </g>
        </g>
      </g>
      <g style="clip-path: url(#clip-path-2)">
        <g>
          <g>
            <g style="opacity: 0.17">
              <path d="M142.27,180.81c26.6,0,52.08-23.39,50.85-50.85S170.78,79.1,142.27,79.1c-26.61,0-52.09,23.39-50.86,50.86s22.35,50.85,50.86,50.85Z" style="fill: #029adc"/>
            </g>
            <g style="opacity: 0.17">
              <path d="M153.47,199.71c26.6,0,52.08-23.4,50.85-50.86S182,98,153.47,98c-26.61,0-52.09,23.39-50.86,50.86s22.34,50.86,50.86,50.86Z" style="fill: #029adc"/>
            </g>
            <g style="opacity: 0.17">
              <path d="M176.25,206.83c26.6,0,52.09-23.4,50.85-50.86s-22.34-50.86-50.85-50.86c-26.61,0-52.09,23.39-50.86,50.86s22.35,50.86,50.86,50.86Z" style="fill: #029adc"/>
            </g>
            <g style="opacity: 0.17">
              <path d="M190.49,204c26.6,0,52.08-23.39,50.85-50.86S219,102.26,190.49,102.26c-26.61,0-52.09,23.39-50.86,50.86S162,204,190.49,204Z" style="fill: #029adc"/>
            </g>
            <g style="opacity: 0.17">
              <path d="M209,181.2c26.6,0,52.08-23.4,50.85-50.86S237.51,79.48,209,79.48c-26.61,0-52.09,23.39-50.86,50.86S180.48,181.2,209,181.2Z" style="fill: #029adc"/>
            </g>
            <g style="opacity: 0.17">
              <path d="M209,162.69c26.6,0,52.08-23.4,50.85-50.86S237.51,61,209,61c-26.61,0-52.09,23.39-50.86,50.86s22.34,50.86,50.86,50.86Z" style="fill: #029adc"/>
            </g>
            <g style="opacity: 0.17">
              <path d="M193.33,144.18c26.61,0,52.09-23.4,50.86-50.86s-22.35-50.86-50.86-50.86c-26.6,0-52.08,23.39-50.85,50.86s22.34,50.86,50.85,50.86Z" style="fill: #029adc"/>
            </g>
            <g style="opacity: 0.17">
              <path d="M151.93,144c26.61,0,52.09-23.4,50.86-50.86s-22.35-50.86-50.86-50.86c-26.6,0-52.08,23.39-50.85,50.86S123.42,144,151.93,144Z" style="fill: #029adc"/>
            </g>
            <g style="opacity: 0.17">
              <path d="M173.4,135.06c26.6,0,52.09-23.39,50.86-50.86S201.91,33.34,173.4,33.34c-26.6,0-52.09,23.4-50.86,50.86s22.35,50.86,50.86,50.86Z" style="fill: #029adc"/>
            </g>
            <g style="opacity: 0.17">
              <path d="M203.3,145.6c26.6,0,52.09-23.39,50.86-50.86S231.81,43.89,203.3,43.89c-26.6,0-52.09,23.39-50.86,50.85s22.35,50.86,50.86,50.86Z" style="fill: #029adc"/>
            </g>
            <g style="opacity: 0.17">
              <path d="M142.92,156.8c26.61,0,52.09-23.39,50.86-50.86s-22.34-50.86-50.86-50.86c-26.6,0-52.08,23.4-50.85,50.86s22.34,50.86,50.85,50.86Z" style="fill: #029adc"/>
            </g>
          </g>
          <g>
            <g style="opacity: 0.17">
              <path d="M159.16,184c26.6,0,52.09-23.39,50.86-50.85s-22.35-50.86-50.86-50.86c-26.6,0-52.09,23.39-50.86,50.86S130.65,184,159.16,184Z" style="fill: #029adc"/>
            </g>
            <g style="opacity: 0.17">
              <path d="M190.49,185.47c26.6,0,52.08-23.39,50.85-50.86S219,83.75,190.49,83.75c-26.61,0-52.09,23.39-50.86,50.86s22.34,50.86,50.86,50.86Z" style="fill: #029adc"/>
            </g>
            <g style="opacity: 0.17">
              <path d="M197.6,165.53c26.61,0,52.09-23.39,50.86-50.85S226.12,63.82,197.6,63.82c-26.6,0-52.08,23.39-50.85,50.86s22.34,50.85,50.85,50.85Z" style="fill: #029adc"/>
            </g>
            <g style="opacity: 0.17">
              <path d="M173.4,154.14c26.6,0,52.09-23.39,50.86-50.85S201.91,52.43,173.4,52.43c-26.6,0-52.09,23.39-50.86,50.86s22.35,50.85,50.86,50.85Z" style="fill: #029adc"/>
            </g>
            <g style="opacity: 0.17">
              <path d="M156.31,162.69c26.61,0,52.09-23.4,50.86-50.86S184.83,61,156.31,61c-26.6,0-52.08,23.39-50.85,50.86s22.34,50.86,50.85,50.86Z" style="fill: #029adc"/>
            </g>
            <g style="opacity: 0.17">
              <path d="M146.35,175.5c26.6,0,52.08-23.39,50.85-50.86s-22.34-50.85-50.85-50.85c-26.61,0-52.09,23.39-50.86,50.85s22.35,50.86,50.86,50.86Z" style="fill: #029adc"/>
            </g>
            <g style="opacity: 0.17">
              <path d="M169.13,178.35c26.6,0,52.09-23.39,50.86-50.86s-22.35-50.86-50.86-50.86c-26.6,0-52.09,23.4-50.86,50.86s22.35,50.86,50.86,50.86Z" style="fill: #029adc"/>
            </g>
            <g style="opacity: 0.17">
              <path d="M191.91,174.08c26.6,0,52.09-23.39,50.86-50.86s-22.35-50.86-50.86-50.86c-26.6,0-52.09,23.39-50.86,50.86s22.35,50.86,50.86,50.86Z" style="fill: #029adc"/>
            </g>
            <g style="opacity: 0.17">
              <path d="M189.06,155.57c26.6,0,52.09-23.39,50.86-50.86s-22.35-50.86-50.86-50.86c-26.6,0-52.09,23.39-50.86,50.86s22.35,50.86,50.86,50.86Z" style="fill: #029adc"/>
            </g>
            <g style="opacity: 0.17">
              <path d="M159.16,161.26c26.6,0,52.09-23.39,50.86-50.85s-22.35-50.86-50.86-50.86c-26.6,0-52.09,23.39-50.86,50.86s22.35,50.85,50.86,50.85Z" style="fill: #029adc"/>
            </g>
            <g style="opacity: 0.17">
              <path d="M173.29,189.55c26.6,0,52.09-23.39,50.86-50.86S201.8,87.83,173.29,87.83c-26.6,0-52.09,23.39-50.86,50.86s22.35,50.86,50.86,50.86Z" style="fill: #029adc"/>
            </g>
          </g>
          <g>
            <g style="opacity: 0.17">
              <path d="M174.82,172.65c26.61,0,52.09-23.39,50.86-50.85s-22.34-50.86-50.86-50.86c-26.6,0-52.08,23.39-50.85,50.86s22.34,50.85,50.85,50.85Z" style="fill: #fff"/>
            </g>
            <g style="opacity: 0.17">
              <path d="M169.13,175.5c26.6,0,52.09-23.39,50.86-50.86s-22.35-50.85-50.86-50.85c-26.6,0-52.09,23.39-50.86,50.85s22.35,50.86,50.86,50.86Z" style="fill: #fff"/>
            </g>
            <g style="opacity: 0.17">
              <path d="M187.64,179.77c26.6,0,52.09-23.39,50.86-50.86s-22.35-50.85-50.86-50.85c-26.6,0-52.09,23.39-50.86,50.85s22.35,50.86,50.86,50.86Z" style="fill: #fff"/>
            </g>
            <g style="opacity: 0.17">
              <path d="M176.25,169.09c26.6,0,52.09-23.39,50.85-50.85s-22.34-50.86-50.85-50.86c-26.61,0-52.09,23.39-50.86,50.86s22.35,50.85,50.86,50.85Z" style="fill: #fff"/>
            </g>
          </g>
        </g>
      </g>
    </g>
    <g>
      <path d="M354.43,132.6q-4.5-7.16-10.25-15.41t-11.91-16.48q-6.15-8.19-12.24-15.8T308.66,71.74H295v0h-8.57v6.54h3.67s4.18,1.12,4.9,4.76v80.35h16.4V97.81q5.56,6.61,11.71,14.88t12.11,17.06q5.94,8.81,11.51,17.47t10.05,16.2H371V71.74H354.43Z" style="fill: #fff"/>
      <polygon points="399.01 122.41 436.58 122.41 436.58 108.52 399.01 108.52 399.01 85.9 441.21 85.9 441.21 71.74 382.34 71.74 382.34 163.42 444.39 163.42 444.39 149.27 399.01 149.27 399.01 122.41" style="fill: #fff"/>
      <path d="M509.41,120.36a32.78,32.78,0,0,0-8.6-5.82q-5.1-2.45-11.58-4.83-3.71-1.32-6.81-2.78a31.73,31.73,0,0,1-5.42-3.17,13,13,0,0,1-3.58-3.9,10.3,10.3,0,0,1-1.25-5.23,9.14,9.14,0,0,1,3.77-7.81q3.76-2.77,10.51-2.77a46,46,0,0,1,11.05,1.32,39.36,39.36,0,0,1,9.86,3.84l5.16-13.5A47,47,0,0,0,502,71.54a55.86,55.86,0,0,0-15.28-1.91q-14.82,0-23.42,7.07t-8.59,19.52a22.15,22.15,0,0,0,7.47,17.46,30.81,30.81,0,0,0,7.8,5.09q4.44,2.06,9.2,3.77c3.17,1.06,6,2.14,8.47,3.24a33.86,33.86,0,0,1,6.28,3.58,14.56,14.56,0,0,1,4,4.3,11.12,11.12,0,0,1,1.39,5.68,10.07,10.07,0,0,1-4.1,8.6q-4.11,3-13.1,3.05a47.42,47.42,0,0,1-14.68-2,55.55,55.55,0,0,1-9.66-4l-4.9,13.63a38.07,38.07,0,0,0,4.24,2.05,55,55,0,0,0,6.28,2.18,66.28,66.28,0,0,0,8.33,1.79,68.83,68.83,0,0,0,10.39.73q16.94,0,25.73-6.82t8.8-19.25a29.44,29.44,0,0,0-1.85-11A23,23,0,0,0,509.41,120.36Z" style="fill: #fff"/>
      <path d="M586.2,128.3a22.72,22.72,0,0,0-5.36-7.94,32.55,32.55,0,0,0-8.59-5.82q-5.1-2.45-11.58-4.83-3.7-1.32-6.81-2.78a31.46,31.46,0,0,1-5.43-3.17,13.08,13.08,0,0,1-3.57-3.9,10.31,10.31,0,0,1-1.26-5.23,9.16,9.16,0,0,1,3.77-7.81q3.78-2.77,10.52-2.77a46,46,0,0,1,11.05,1.32,39.29,39.29,0,0,1,9.85,3.84L584,75.71a46.77,46.77,0,0,0-10.52-4.17,55.76,55.76,0,0,0-15.28-1.91q-14.8,0-23.41,7.07t-8.6,19.52a23.1,23.1,0,0,0,2.05,10.18,23.58,23.58,0,0,0,5.42,7.28,30.87,30.87,0,0,0,7.81,5.09q4.43,2.06,9.19,3.77t8.47,3.24a34,34,0,0,1,6.29,3.58,14.52,14.52,0,0,1,4,4.3,11,11,0,0,1,1.39,5.68,10.07,10.07,0,0,1-4.1,8.6q-4.1,3-13.09,3.05a47.48,47.48,0,0,1-14.69-2,55.55,55.55,0,0,1-9.66-4l-4.89,13.63a38.68,38.68,0,0,0,4.23,2.05,55.88,55.88,0,0,0,6.29,2.18,66.28,66.28,0,0,0,8.33,1.79,68.73,68.73,0,0,0,10.39.73q16.92,0,25.73-6.82t8.79-19.25A29.24,29.24,0,0,0,586.2,128.3Z" style="fill: #fff"/>
    </g>
    <g>
      <path d="M621.32,164.91V70.28h52.87V80.66H633.44v33.75h36.25v10.12H633.44v30h43.88v10.38Z" style="fill: #029adc"/>
      <path d="M685.09,101.78q4-1,10.62-2.12A91.91,91.91,0,0,1,711,98.53a32.93,32.93,0,0,1,12.88,2.19,20.23,20.23,0,0,1,8.19,6.12,23.69,23.69,0,0,1,4.31,9.44,55,55,0,0,1,1.25,12.13v36.5H726v-34a55.64,55.64,0,0,0-.81-10.25,17.29,17.29,0,0,0-2.69-6.88,10.59,10.59,0,0,0-5-3.81,22,22,0,0,0-7.75-1.19c-1.25,0-2.54,0-3.87.13s-2.61.18-3.81.31-2.3.27-3.25.44-1.65.29-2.07.37v54.88H685.09Z" style="fill: #029adc"/>
      <path d="M747,132.53a41.4,41.4,0,0,1,2.5-15.06,31.35,31.35,0,0,1,6.62-10.69,26.87,26.87,0,0,1,9.5-6.37,29.6,29.6,0,0,1,11-2.13q13.13,0,20.13,8.19t7,24.94v1.93a18.31,18.31,0,0,1-.13,2.19H759.1q.75,10.13,5.88,15.38t16,5.25a42.5,42.5,0,0,0,10.31-1.07A36.29,36.29,0,0,0,797.6,153l1.63,9.75a35,35,0,0,1-7.44,2.38,53,53,0,0,1-12.06,1.25A38.21,38.21,0,0,1,765,163.84a27.3,27.3,0,0,1-10.19-7.06,28.72,28.72,0,0,1-5.94-10.69A45.2,45.2,0,0,1,747,132.53Zm44.62-6.37q.12-7.87-3.94-12.94a13.53,13.53,0,0,0-11.18-5.06,15.37,15.37,0,0,0-7.07,1.56,16.49,16.49,0,0,0-5.18,4.06,18.62,18.62,0,0,0-3.32,5.75,28.53,28.53,0,0,0-1.56,6.63Z" style="fill: #029adc"/>
      <path d="M837.84,98.53c1,0,2.14.06,3.44.19s2.56.29,3.81.5,2.39.42,3.44.62a20.27,20.27,0,0,1,2.31.57l-2,10.12a40.3,40.3,0,0,0-4.56-1.19,40.75,40.75,0,0,0-8.19-.68,31,31,0,0,0-6.44.68c-2.12.46-3.52.77-4.19.94v54.63H813.84V102.66a79.41,79.41,0,0,1,10.25-2.82A66.13,66.13,0,0,1,837.84,98.53Z" style="fill: #029adc"/>
      <path d="M895.7,158.41a31.55,31.55,0,0,1-5.81,2.56,29.59,29.59,0,0,1-10.07,1.56,32.31,32.31,0,0,1-11.06-1.87,23.92,23.92,0,0,1-9.06-5.82,27.92,27.92,0,0,1-6.13-9.81,39.14,39.14,0,0,1-2.25-14A38.43,38.43,0,0,1,853.45,118a28.82,28.82,0,0,1,6.19-10.25,28.22,28.22,0,0,1,9.93-6.75,34.23,34.23,0,0,1,13.25-2.44A74.7,74.7,0,0,1,897,99.72q6.06,1.19,10.19,2.19v58q0,15-7.75,21.75T876,188.41a64.38,64.38,0,0,1-11.56-1A65.67,65.67,0,0,1,855,185l2.12-10.12a55.29,55.29,0,0,0,8.57,2.43,51.1,51.1,0,0,0,10.56,1.07q10.37,0,14.94-4.13t4.56-13.12Zm-.13-48.25a36.63,36.63,0,0,0-4.68-.94,56.83,56.83,0,0,0-7.94-.44q-9.37,0-14.44,6.13t-5.06,16.25a28.5,28.5,0,0,0,1.44,9.62,19,19,0,0,0,3.87,6.63,15.13,15.13,0,0,0,5.63,3.87,17.86,17.86,0,0,0,6.56,1.25,26.53,26.53,0,0,0,8.5-1.31,21.24,21.24,0,0,0,6.12-3.06Z" style="fill: #029adc"/>
      <path d="M913.61,177a22.27,22.27,0,0,0,3.56,1.19,17.53,17.53,0,0,0,4.31.56q6.88,0,10.75-3.06t7-9.94q-7.87-15-14.68-31.81a275.13,275.13,0,0,1-11.32-34.06h12.5q1.38,5.63,3.32,12.12t4.31,13.38q2.37,6.87,5.12,13.75t5.75,13.25q4.75-13.12,8.25-26t6.63-26.5h12q-4.5,18.38-10,35.31t-11.88,31.69a66.26,66.26,0,0,1-5.18,9.68,29.31,29.31,0,0,1-5.94,6.69,21.89,21.89,0,0,1-7.31,3.88,31.33,31.33,0,0,1-9.19,1.25,24.27,24.27,0,0,1-2.88-.19c-1-.13-2-.29-2.93-.5s-1.84-.44-2.63-.69a14.79,14.79,0,0,1-1.69-.62Z" style="fill: #029adc"/>
    </g>
  </g>
</svg>
