<svg id="Layer_1" data-name="Layer 1" xmlns="http://www.w3.org/2000/svg" xmlns:xlink="http://www.w3.org/1999/xlink" viewBox="0 0 1060 240">
  <defs>
    <clipPath id="clip-path">
      <path id="SVGID" d="M15.13,114c11-14.44,32.1-30.15,65-5.83,12.75,9.44,25.61,16.43,35.74,17.08a27.82,27.82,0,0,0,10-1.68s-.08,0,0,0a24.21,24.21,0,0,0,11.78-8.33c12.77-17.63,13-45.1,32.65-54.94l-5.54-16.38L136.42,36l-34.5-6.57-38.2,8.22L33.33,57.36,16.9,84.06Z" style="fill: none"/>
    </clipPath>
    <clipPath id="clip-path-2">
      <path id="SVGID-2" data-name="SVGID" d="M26.91,163C33.39,149,53,119.1,94.69,146.69c49.43,32.72,62.74-30.33,63.82-35.42,5-23.65,14.1-33.86,21.11-38.27l11.43,36.94-2.87,35.32-9.86,19.31-14.38,18.48L136,207.28l-42.3,3.29-32.86-9.45L35.79,182.64Z" style="fill: none"/>
    </clipPath>
  </defs>
  <title>vertical-ness-education</title>
  <g id="logo-ness-health">
    <g>
      <g style="clip-path: url(#clip-path)">
        <g>
          <g>
            <g style="opacity: 0.17">
              <path d="M68.51,180.81c26.6,0,52.08-23.39,50.85-50.85S97,79.1,68.51,79.1C41.9,79.1,16.42,102.49,17.65,130S40,180.81,68.51,180.81Z" style="fill: #029adc"/>
            </g>
            <g style="opacity: 0.17">
              <path d="M79.7,199.71c26.61,0,52.09-23.4,50.86-50.86S108.22,98,79.7,98c-26.6,0-52.08,23.39-50.85,50.86s22.34,50.86,50.85,50.86Z" style="fill: #029adc"/>
            </g>
            <g style="opacity: 0.17">
              <path d="M102.49,206.83c26.6,0,52.08-23.4,50.85-50.86S131,105.11,102.49,105.11c-26.61,0-52.09,23.39-50.86,50.86S74,206.83,102.49,206.83Z" style="fill: #029adc"/>
            </g>
            <g style="opacity: 0.17">
              <path d="M116.72,204c26.61,0,52.09-23.39,50.86-50.86s-22.34-50.86-50.86-50.86c-26.6,0-52.08,23.39-50.85,50.86S88.21,204,116.72,204Z" style="fill: #029adc"/>
            </g>
            <g style="opacity: 0.17">
              <path d="M135.23,181.2c26.61,0,52.09-23.4,50.86-50.86s-22.34-50.86-50.86-50.86c-26.6,0-52.08,23.39-50.85,50.86s22.34,50.86,50.85,50.86Z" style="fill: #029adc"/>
            </g>
            <g style="opacity: 0.17">
              <path d="M135.23,162.69c26.61,0,52.09-23.4,50.86-50.86S163.75,61,135.23,61c-26.6,0-52.08,23.39-50.85,50.86s22.34,50.86,50.85,50.86Z" style="fill: #029adc"/>
            </g>
            <g style="opacity: 0.17">
              <path d="M119.57,144.18c26.6,0,52.09-23.4,50.86-50.86s-22.35-50.86-50.86-50.86c-26.6,0-52.09,23.39-50.86,50.86s22.35,50.86,50.86,50.86Z" style="fill: #029adc"/>
            </g>
            <g style="opacity: 0.17">
              <path d="M78.17,144c26.6,0,52.09-23.4,50.86-50.86S106.68,42.27,78.17,42.27c-26.6,0-52.09,23.39-50.86,50.86S49.66,144,78.17,144Z" style="fill: #029adc"/>
            </g>
            <g style="opacity: 0.17">
              <path d="M99.64,135.06c26.6,0,52.09-23.39,50.86-50.86S128.15,33.34,99.64,33.34c-26.6,0-52.09,23.4-50.86,50.86s22.35,50.86,50.86,50.86Z" style="fill: #029adc"/>
            </g>
            <g style="opacity: 0.17">
              <path d="M129.54,145.6c26.6,0,52.09-23.39,50.86-50.86s-22.35-50.85-50.86-50.85c-26.6,0-52.09,23.39-50.86,50.85S101,145.6,129.54,145.6Z" style="fill: #029adc"/>
            </g>
            <g style="opacity: 0.17">
              <path d="M69.16,156.8c26.61,0,52.09-23.39,50.86-50.86S97.67,55.08,69.16,55.08c-26.6,0-52.09,23.4-50.85,50.86S40.65,156.8,69.16,156.8Z" style="fill: #029adc"/>
            </g>
          </g>
          <g>
            <g style="opacity: 0.17">
              <path d="M85.4,184c26.6,0,52.09-23.39,50.86-50.85S113.91,82.33,85.4,82.33c-26.6,0-52.09,23.39-50.86,50.86S56.89,184,85.4,184Z" style="fill: #029adc"/>
            </g>
            <g style="opacity: 0.17">
              <path d="M116.72,185.47c26.61,0,52.09-23.39,50.86-50.86s-22.34-50.86-50.86-50.86c-26.6,0-52.08,23.39-50.85,50.86s22.34,50.86,50.85,50.86Z" style="fill: #029adc"/>
            </g>
            <g style="opacity: 0.17">
              <path d="M123.84,165.53c26.61,0,52.09-23.39,50.86-50.85s-22.35-50.86-50.86-50.86c-26.6,0-52.08,23.39-50.85,50.86s22.34,50.85,50.85,50.85Z" style="fill: #029adc"/>
            </g>
            <g style="opacity: 0.17">
              <path d="M99.64,154.14c26.6,0,52.09-23.39,50.86-50.85S128.15,52.43,99.64,52.43c-26.6,0-52.09,23.39-50.86,50.86s22.35,50.85,50.86,50.85Z" style="fill: #029adc"/>
            </g>
            <g style="opacity: 0.17">
              <path d="M82.55,162.69c26.6,0,52.09-23.4,50.86-50.86S111.06,61,82.55,61C56,61,30.46,84.36,31.69,111.83S54,162.69,82.55,162.69Z" style="fill: #029adc"/>
            </g>
            <g style="opacity: 0.17">
              <path d="M72.59,175.5c26.6,0,52.08-23.39,50.85-50.86S101.1,73.79,72.59,73.79C46,73.79,20.5,97.18,21.73,124.64S44.07,175.5,72.59,175.5Z" style="fill: #029adc"/>
            </g>
            <g style="opacity: 0.17">
              <path d="M95.37,178.35c26.6,0,52.08-23.39,50.85-50.86S123.88,76.63,95.37,76.63c-26.61,0-52.09,23.4-50.86,50.86s22.34,50.86,50.86,50.86Z" style="fill: #029adc"/>
            </g>
            <g style="opacity: 0.17">
              <path d="M118.15,174.08c26.6,0,52.09-23.39,50.86-50.86s-22.35-50.86-50.86-50.86c-26.6,0-52.09,23.39-50.86,50.86s22.35,50.86,50.86,50.86Z" style="fill: #029adc"/>
            </g>
            <g style="opacity: 0.17">
              <path d="M115.3,155.57c26.6,0,52.09-23.39,50.86-50.86S143.81,53.85,115.3,53.85c-26.6,0-52.09,23.39-50.86,50.86s22.35,50.86,50.86,50.86Z" style="fill: #029adc"/>
            </g>
            <g style="opacity: 0.17">
              <path d="M85.4,161.26c26.6,0,52.09-23.39,50.86-50.85S113.91,59.55,85.4,59.55c-26.6,0-52.09,23.39-50.86,50.86s22.35,50.85,50.86,50.85Z" style="fill: #029adc"/>
            </g>
            <g style="opacity: 0.17">
              <path d="M99.53,189.55c26.6,0,52.09-23.39,50.86-50.86S128,87.83,99.53,87.83c-26.6,0-52.09,23.39-50.86,50.86S71,189.55,99.53,189.55Z" style="fill: #029adc"/>
            </g>
          </g>
          <g>
            <g style="opacity: 0.17">
              <path d="M101.06,172.65c26.6,0,52.09-23.39,50.86-50.85s-22.35-50.86-50.86-50.86C74.46,70.94,49,94.33,50.2,121.8s22.35,50.85,50.86,50.85Z" style="fill: #fff"/>
            </g>
            <g style="opacity: 0.17">
              <path d="M95.37,175.5c26.6,0,52.08-23.39,50.85-50.86S123.88,73.79,95.37,73.79c-26.61,0-52.09,23.39-50.86,50.85S66.85,175.5,95.37,175.5Z" style="fill: #fff"/>
            </g>
            <g style="opacity: 0.17">
              <path d="M113.88,179.77c26.6,0,52.08-23.39,50.85-50.86s-22.34-50.85-50.85-50.85c-26.61,0-52.09,23.39-50.86,50.85s22.34,50.86,50.86,50.86Z" style="fill: #fff"/>
            </g>
            <g style="opacity: 0.17">
              <path d="M102.49,169.09c26.6,0,52.08-23.39,50.85-50.85S131,67.38,102.49,67.38c-26.61,0-52.09,23.39-50.86,50.86S74,169.09,102.49,169.09Z" style="fill: #fff"/>
            </g>
          </g>
        </g>
      </g>
      <g style="clip-path: url(#clip-path-2)">
        <g>
          <g>
            <g style="opacity: 0.17">
              <path d="M68.51,180.81c26.6,0,52.08-23.39,50.85-50.85S97,79.1,68.51,79.1C41.9,79.1,16.42,102.49,17.65,130S40,180.81,68.51,180.81Z" style="fill: #029adc"/>
            </g>
            <g style="opacity: 0.17">
              <path d="M79.7,199.71c26.61,0,52.09-23.4,50.86-50.86S108.22,98,79.7,98c-26.6,0-52.08,23.39-50.85,50.86s22.34,50.86,50.85,50.86Z" style="fill: #029adc"/>
            </g>
            <g style="opacity: 0.17">
              <path d="M102.49,206.83c26.6,0,52.08-23.4,50.85-50.86S131,105.11,102.49,105.11c-26.61,0-52.09,23.39-50.86,50.86S74,206.83,102.49,206.83Z" style="fill: #029adc"/>
            </g>
            <g style="opacity: 0.17">
              <path d="M116.72,204c26.61,0,52.09-23.39,50.86-50.86s-22.34-50.86-50.86-50.86c-26.6,0-52.08,23.39-50.85,50.86S88.21,204,116.72,204Z" style="fill: #029adc"/>
            </g>
            <g style="opacity: 0.17">
              <path d="M135.23,181.2c26.61,0,52.09-23.4,50.86-50.86s-22.34-50.86-50.86-50.86c-26.6,0-52.08,23.39-50.85,50.86s22.34,50.86,50.85,50.86Z" style="fill: #029adc"/>
            </g>
            <g style="opacity: 0.17">
              <path d="M135.23,162.69c26.61,0,52.09-23.4,50.86-50.86S163.75,61,135.23,61c-26.6,0-52.08,23.39-50.85,50.86s22.34,50.86,50.85,50.86Z" style="fill: #029adc"/>
            </g>
            <g style="opacity: 0.17">
              <path d="M119.57,144.18c26.6,0,52.09-23.4,50.86-50.86s-22.35-50.86-50.86-50.86c-26.6,0-52.09,23.39-50.86,50.86s22.35,50.86,50.86,50.86Z" style="fill: #029adc"/>
            </g>
            <g style="opacity: 0.17">
              <path d="M78.17,144c26.6,0,52.09-23.4,50.86-50.86S106.68,42.27,78.17,42.27c-26.6,0-52.09,23.39-50.86,50.86S49.66,144,78.17,144Z" style="fill: #029adc"/>
            </g>
            <g style="opacity: 0.17">
              <path d="M99.64,135.06c26.6,0,52.09-23.39,50.86-50.86S128.15,33.34,99.64,33.34c-26.6,0-52.09,23.4-50.86,50.86s22.35,50.86,50.86,50.86Z" style="fill: #029adc"/>
            </g>
            <g style="opacity: 0.17">
              <path d="M129.54,145.6c26.6,0,52.09-23.39,50.86-50.86s-22.35-50.85-50.86-50.85c-26.6,0-52.09,23.39-50.86,50.85S101,145.6,129.54,145.6Z" style="fill: #029adc"/>
            </g>
            <g style="opacity: 0.17">
              <path d="M69.16,156.8c26.61,0,52.09-23.39,50.86-50.86S97.67,55.08,69.16,55.08c-26.6,0-52.09,23.4-50.85,50.86S40.65,156.8,69.16,156.8Z" style="fill: #029adc"/>
            </g>
          </g>
          <g>
            <g style="opacity: 0.17">
              <path d="M85.4,184c26.6,0,52.09-23.39,50.86-50.85S113.91,82.33,85.4,82.33c-26.6,0-52.09,23.39-50.86,50.86S56.89,184,85.4,184Z" style="fill: #029adc"/>
            </g>
            <g style="opacity: 0.17">
              <path d="M116.72,185.47c26.61,0,52.09-23.39,50.86-50.86s-22.34-50.86-50.86-50.86c-26.6,0-52.08,23.39-50.85,50.86s22.34,50.86,50.85,50.86Z" style="fill: #029adc"/>
            </g>
            <g style="opacity: 0.17">
              <path d="M123.84,165.53c26.61,0,52.09-23.39,50.86-50.85s-22.35-50.86-50.86-50.86c-26.6,0-52.08,23.39-50.85,50.86s22.34,50.85,50.85,50.85Z" style="fill: #029adc"/>
            </g>
            <g style="opacity: 0.17">
              <path d="M99.64,154.14c26.6,0,52.09-23.39,50.86-50.85S128.15,52.43,99.64,52.43c-26.6,0-52.09,23.39-50.86,50.86s22.35,50.85,50.86,50.85Z" style="fill: #029adc"/>
            </g>
            <g style="opacity: 0.17">
              <path d="M82.55,162.69c26.6,0,52.09-23.4,50.86-50.86S111.06,61,82.55,61C56,61,30.46,84.36,31.69,111.83S54,162.69,82.55,162.69Z" style="fill: #029adc"/>
            </g>
            <g style="opacity: 0.17">
              <path d="M72.59,175.5c26.6,0,52.08-23.39,50.85-50.86S101.1,73.79,72.59,73.79C46,73.79,20.5,97.18,21.73,124.64S44.07,175.5,72.59,175.5Z" style="fill: #029adc"/>
            </g>
            <g style="opacity: 0.17">
              <path d="M95.37,178.35c26.6,0,52.08-23.39,50.85-50.86S123.88,76.63,95.37,76.63c-26.61,0-52.09,23.4-50.86,50.86s22.34,50.86,50.86,50.86Z" style="fill: #029adc"/>
            </g>
            <g style="opacity: 0.17">
              <path d="M118.15,174.08c26.6,0,52.09-23.39,50.86-50.86s-22.35-50.86-50.86-50.86c-26.6,0-52.09,23.39-50.86,50.86s22.35,50.86,50.86,50.86Z" style="fill: #029adc"/>
            </g>
            <g style="opacity: 0.17">
              <path d="M115.3,155.57c26.6,0,52.09-23.39,50.86-50.86S143.81,53.85,115.3,53.85c-26.6,0-52.09,23.39-50.86,50.86s22.35,50.86,50.86,50.86Z" style="fill: #029adc"/>
            </g>
            <g style="opacity: 0.17">
              <path d="M85.4,161.26c26.6,0,52.09-23.39,50.86-50.85S113.91,59.55,85.4,59.55c-26.6,0-52.09,23.39-50.86,50.86s22.35,50.85,50.86,50.85Z" style="fill: #029adc"/>
            </g>
            <g style="opacity: 0.17">
              <path d="M99.53,189.55c26.6,0,52.09-23.39,50.86-50.86S128,87.83,99.53,87.83c-26.6,0-52.09,23.39-50.86,50.86S71,189.55,99.53,189.55Z" style="fill: #029adc"/>
            </g>
          </g>
          <g>
            <g style="opacity: 0.17">
              <path d="M101.06,172.65c26.6,0,52.09-23.39,50.86-50.85s-22.35-50.86-50.86-50.86C74.46,70.94,49,94.33,50.2,121.8s22.35,50.85,50.86,50.85Z" style="fill: #fff"/>
            </g>
            <g style="opacity: 0.17">
              <path d="M95.37,175.5c26.6,0,52.08-23.39,50.85-50.86S123.88,73.79,95.37,73.79c-26.61,0-52.09,23.39-50.86,50.85S66.85,175.5,95.37,175.5Z" style="fill: #fff"/>
            </g>
            <g style="opacity: 0.17">
              <path d="M113.88,179.77c26.6,0,52.08-23.39,50.85-50.86s-22.34-50.85-50.85-50.85c-26.61,0-52.09,23.39-50.86,50.85s22.34,50.86,50.86,50.86Z" style="fill: #fff"/>
            </g>
            <g style="opacity: 0.17">
              <path d="M102.49,169.09c26.6,0,52.08-23.39,50.85-50.85S131,67.38,102.49,67.38c-26.61,0-52.09,23.39-50.86,50.86S74,169.09,102.49,169.09Z" style="fill: #fff"/>
            </g>
          </g>
        </g>
      </g>
    </g>
    <g>
      <path d="M280.67,132.6q-4.5-7.16-10.25-15.41t-11.91-16.48q-6.15-8.19-12.24-15.8T234.9,71.74H221.27v0h-8.58v6.54h3.68s4.18,1.12,4.9,4.76v80.35h16.4V97.81q5.57,6.61,11.71,14.88t12.11,17.06q5.94,8.81,11.51,17.47t10.05,16.2H297.2V71.74H280.67Z" style="fill: #fff"/>
      <polygon points="325.25 122.41 362.82 122.41 362.82 108.52 325.25 108.52 325.25 85.9 367.45 85.9 367.45 71.74 308.58 71.74 308.58 163.42 370.63 163.42 370.63 149.27 325.25 149.27 325.25 122.41" style="fill: #fff"/>
      <path d="M435.65,120.36a32.78,32.78,0,0,0-8.6-5.82q-5.1-2.45-11.58-4.83-3.71-1.32-6.81-2.78a31.84,31.84,0,0,1-5.43-3.17,13.08,13.08,0,0,1-3.57-3.9,10.3,10.3,0,0,1-1.25-5.23,9.14,9.14,0,0,1,3.77-7.81q3.76-2.77,10.51-2.77a46,46,0,0,1,11.05,1.32,39.36,39.36,0,0,1,9.86,3.84l5.15-13.5a46.86,46.86,0,0,0-10.51-4.17A55.86,55.86,0,0,0,413,69.63q-14.82,0-23.42,7.07t-8.6,19.52a22.2,22.2,0,0,0,7.48,17.46,30.81,30.81,0,0,0,7.8,5.09q4.44,2.06,9.2,3.77t8.46,3.24a33.64,33.64,0,0,1,6.29,3.58,14.56,14.56,0,0,1,4,4.3,11.12,11.12,0,0,1,1.39,5.68,10.06,10.06,0,0,1-4.11,8.6q-4.1,3-13.09,3.05a47.48,47.48,0,0,1-14.69-2,56.22,56.22,0,0,1-9.66-4l-4.89,13.63a38.68,38.68,0,0,0,4.23,2.05,55.88,55.88,0,0,0,6.29,2.18,66.28,66.28,0,0,0,8.33,1.79,68.73,68.73,0,0,0,10.39.73q16.94,0,25.73-6.82t8.8-19.25a29.23,29.23,0,0,0-1.86-11A22.83,22.83,0,0,0,435.65,120.36Z" style="fill: #fff"/>
      <path d="M512.44,128.3a22.85,22.85,0,0,0-5.36-7.94,32.61,32.61,0,0,0-8.6-5.82q-5.09-2.45-11.57-4.83-3.71-1.32-6.81-2.78a31.46,31.46,0,0,1-5.43-3.17,13,13,0,0,1-3.57-3.9,10.31,10.31,0,0,1-1.26-5.23,9.16,9.16,0,0,1,3.77-7.81q3.78-2.77,10.52-2.77a46,46,0,0,1,11,1.32A39.21,39.21,0,0,1,505,89.21l5.16-13.5a46.77,46.77,0,0,0-10.52-4.17,55.76,55.76,0,0,0-15.28-1.91q-14.81,0-23.41,7.07t-8.6,19.52a23.1,23.1,0,0,0,2.05,10.18,23.42,23.42,0,0,0,5.42,7.28,30.69,30.69,0,0,0,7.81,5.09q4.43,2.06,9.19,3.77t8.47,3.24a33.54,33.54,0,0,1,6.28,3.58,14.43,14.43,0,0,1,4,4.3,11,11,0,0,1,1.39,5.68,10.07,10.07,0,0,1-4.1,8.6q-4.1,3-13.1,3.05a47.46,47.46,0,0,1-14.68-2,55.55,55.55,0,0,1-9.66-4l-4.89,13.63a38.68,38.68,0,0,0,4.23,2.05,55.65,55.65,0,0,0,6.28,2.18,66.86,66.86,0,0,0,8.34,1.79,68.69,68.69,0,0,0,10.38.73q16.94,0,25.73-6.82t8.8-19.25A29.44,29.44,0,0,0,512.44,128.3Z" style="fill: #fff"/>
    </g>
    <g>
      <path d="M547.55,163.78V69.16h52.88V79.53H559.68v33.75h36.25v10.13H559.68v30h43.87v10.37Z" style="fill: #029adc"/>
      <path d="M652.58,71.78l11.62-2v92.13q-4,1.13-10.25,2.25a81.81,81.81,0,0,1-14.37,1.12,36.49,36.49,0,0,1-13.5-2.37,29.08,29.08,0,0,1-10.25-6.75,29.73,29.73,0,0,1-6.56-10.69A40.85,40.85,0,0,1,607,131.28a46.34,46.34,0,0,1,1.94-13.75,30.78,30.78,0,0,1,5.69-10.75,25.85,25.85,0,0,1,9.19-7,29.38,29.38,0,0,1,12.43-2.5,30.2,30.2,0,0,1,9.94,1.5,31.15,31.15,0,0,1,6.44,2.88Zm0,40.75a23.78,23.78,0,0,0-6.13-3.37,22.87,22.87,0,0,0-8.75-1.63,18.81,18.81,0,0,0-8.56,1.81,15.81,15.81,0,0,0-5.81,5,21.06,21.06,0,0,0-3.25,7.57,41.74,41.74,0,0,0-1,9.37q0,11.37,5.62,17.56t15,6.19a58.45,58.45,0,0,0,7.94-.44,38.11,38.11,0,0,0,4.94-.93Z" style="fill: #029adc"/>
      <path d="M729.45,161.91q-4,1-10.56,2.12a90.81,90.81,0,0,1-15.19,1.13A32.11,32.11,0,0,1,691.08,163a20.33,20.33,0,0,1-8.25-6.19,24.92,24.92,0,0,1-4.5-9.44A49,49,0,0,1,677,135.28V98.78h11.63v34q0,11.88,3.75,17T705,154.91c1.25,0,2.54,0,3.88-.13s2.58-.19,3.75-.31,2.23-.25,3.18-.38a9.69,9.69,0,0,0,2.07-.43V98.78h11.62Z" style="fill: #029adc"/>
      <path d="M771.55,165.28a35.31,35.31,0,0,1-13.81-2.5,27.83,27.83,0,0,1-10-7,29,29,0,0,1-6.06-10.69,44.06,44.06,0,0,1-2-13.68,41.31,41.31,0,0,1,2.18-13.75,32.53,32.53,0,0,1,6.19-10.82,27.83,27.83,0,0,1,9.81-7.12,31.73,31.73,0,0,1,12.94-2.56,51.7,51.7,0,0,1,8.75.75,40.49,40.49,0,0,1,8.38,2.37l-2.63,9.88a27.61,27.61,0,0,0-6.06-2,34.23,34.23,0,0,0-7.31-.75q-9.75,0-14.94,6.12t-5.19,17.88A36.73,36.73,0,0,0,753,141a19.76,19.76,0,0,0,3.75,7.5,16.68,16.68,0,0,0,6.56,4.81,25,25,0,0,0,9.75,1.69,37.2,37.2,0,0,0,8.38-.87,30.83,30.83,0,0,0,5.87-1.88l1.63,9.75a12.38,12.38,0,0,1-2.88,1.19,41.32,41.32,0,0,1-4.25,1c-1.58.29-3.27.54-5.06.75A44.53,44.53,0,0,1,771.55,165.28Z" style="fill: #029adc"/>
      <path d="M817.7,97.16A33.63,33.63,0,0,1,829.51,99a18.47,18.47,0,0,1,11.94,13A38.12,38.12,0,0,1,842.7,122v40.63l-4.19.68q-2.68.45-6.06.82c-2.25.25-4.69.47-7.31.68s-5.23.32-7.81.32A42.81,42.81,0,0,1,807.2,164a22.76,22.76,0,0,1-8-3.56A16.33,16.33,0,0,1,794,154a22.52,22.52,0,0,1-1.87-9.62,18.48,18.48,0,0,1,2.18-9.25,17.37,17.37,0,0,1,5.94-6.25,27.37,27.37,0,0,1,8.75-3.5,47.67,47.67,0,0,1,10.5-1.13,35.07,35.07,0,0,1,3.63.19c1.25.12,2.43.29,3.56.5l2.94.56c.83.17,1.41.29,1.75.38v-3.25a25.91,25.91,0,0,0-.63-5.69,13.09,13.09,0,0,0-2.25-5,11.28,11.28,0,0,0-4.44-3.5,17.3,17.3,0,0,0-7.31-1.31,55,55,0,0,0-10.06.81,34.48,34.48,0,0,0-6.44,1.69L798.83,100a35.89,35.89,0,0,1,7.5-1.94A65.26,65.26,0,0,1,817.7,97.16Zm1,58.25c2.75,0,5.19-.07,7.31-.19a32.87,32.87,0,0,0,5.32-.69V135.16a15.12,15.12,0,0,0-4.07-1.07,45.4,45.4,0,0,0-6.81-.43,43.83,43.83,0,0,0-5.56.37,17.24,17.24,0,0,0-5.38,1.56,11.67,11.67,0,0,0-4.06,3.25,8.57,8.57,0,0,0-1.62,5.44q0,6.25,4,8.69T818.7,155.41Z" style="fill: #029adc"/>
      <path d="M866.55,98.78h24.62v9.75H866.55v30a36,36,0,0,0,.75,8.06,12,12,0,0,0,2.25,5,8.1,8.1,0,0,0,3.75,2.57,16.62,16.62,0,0,0,5.25.75,24.76,24.76,0,0,0,8.44-1.19c2.12-.79,3.6-1.36,4.43-1.69l2.25,9.63a43,43,0,0,1-6.12,2.18,34.66,34.66,0,0,1-10,1.32,30.44,30.44,0,0,1-10.94-1.69,16,16,0,0,1-6.94-5.06,20.14,20.14,0,0,1-3.68-8.32,54.58,54.58,0,0,1-1.07-11.43v-67l11.63-2Z" style="fill: #029adc"/>
      <path d="M905.64,87A7.49,7.49,0,0,1,900.32,85a8.19,8.19,0,0,1,0-11.13,7.89,7.89,0,0,1,10.63,0A8.17,8.17,0,0,1,911,85,7.48,7.48,0,0,1,905.64,87Zm5.87,76.75H899.89v-65h11.62Z" style="fill: #029adc"/>
      <path d="M982.36,131.28a41.12,41.12,0,0,1-2.25,14A32.12,32.12,0,0,1,973.8,156a27.86,27.86,0,0,1-9.69,6.94,32,32,0,0,1-24.5,0,27.86,27.86,0,0,1-9.69-6.94,32,32,0,0,1-6.31-10.75,44.49,44.49,0,0,1,0-27.94,31.94,31.94,0,0,1,6.31-10.81,27.86,27.86,0,0,1,9.69-6.94,32.09,32.09,0,0,1,24.5,0,27.86,27.86,0,0,1,9.69,6.94,32.11,32.11,0,0,1,6.31,10.81A41.3,41.3,0,0,1,982.36,131.28Zm-12.13,0q0-11-4.93-17.44a17.26,17.26,0,0,0-26.88,0q-4.93,6.45-4.94,17.44t4.94,17.44a17.24,17.24,0,0,0,26.88,0Q970.24,142.29,970.23,131.28Z" style="fill: #029adc"/>
      <path d="M992.37,100.66q4-1,10.63-2.13a91.91,91.91,0,0,1,15.25-1.12,33.11,33.11,0,0,1,12.87,2.18,20.09,20.09,0,0,1,8.19,6.13,23.62,23.62,0,0,1,4.31,9.44,54.84,54.84,0,0,1,1.25,12.12v36.5h-11.62v-34a55.55,55.55,0,0,0-.82-10.25,17.3,17.3,0,0,0-2.68-6.87,10.72,10.72,0,0,0-5-3.82,22.05,22.05,0,0,0-7.75-1.18c-1.25,0-2.55,0-3.88.12s-2.6.19-3.81.31-2.29.27-3.25.44-1.65.29-2.06.38v54.87H992.37Z" style="fill: #029adc"/>
    </g>
  </g>
</svg>
